<svg id="Layer_1" data-name="Layer 1" xmlns="http://www.w3.org/2000/svg" viewBox="0 0 500 500"><defs><style>.cls-1{fill:#fbe1a1;}.cls-2{fill:#502a6f;}</style></defs><rect class="cls-1" x="15.6" y="82.26" width="306.41" height="306.41" rx="153.2"/><path class="cls-2" d="M75.86,366.68H322c11.36,0,22.86.49,34.22,0h.49c4.56,0,4.57-7.1,0-7.1H110.57c-11.36,0-22.86-.5-34.22,0h-.49c-4.57,0-4.57,7.1,0,7.1Z"/><path d="M484.4,366.68a3.55,3.55,0,1,0-3.55-3.55,3.6,3.6,0,0,0,3.55,3.55Z"/><path class="cls-2" d="M50.32,359.58H24.79a3.55,3.55,0,1,0,0,7.1H50.32a3.55,3.55,0,0,0,0-7.1Z"/><path class="cls-2" d="M50.32,392.21H152.46c4.56,0,4.57-7.09,0-7.09H50.32c-4.56,0-4.57,7.09,0,7.09Z"/><path class="cls-2" d="M178,392.21H254.6c4.56,0,4.57-7.09,0-7.09H178c-4.56,0-4.57,7.09,0,7.09Z"/><path class="cls-2" d="M458.87,410.65H331.2c-4.57,0-4.57,7.09,0,7.09H458.87c4.56,0,4.57-7.09,0-7.09Z"/><path class="cls-2" d="M305.66,410.65H254.6c-4.57,0-4.58,7.09,0,7.09h51.06c4.57,0,4.57-7.09,0-7.09Z"/><path class="cls-2" d="M229.06,410.65H203.53a3.55,3.55,0,1,0,0,7.09h25.53a3.55,3.55,0,1,0,0-7.09Z"/><path class="cls-2" d="M382.26,366.68h76.61c4.56,0,4.57-7.1,0-7.1H382.26c-4.56,0-4.57,7.1,0,7.1Z"/><path class="cls-2" d="M75.86,155.31H50.32a3.55,3.55,0,0,0,0,7.09H75.86a3.55,3.55,0,0,0,0-7.09Z"/><path class="cls-2" d="M458.87,334.05H433.33a3.55,3.55,0,0,0,0,7.09h25.54a3.55,3.55,0,0,0,0-7.09Z"/><path class="cls-2" d="M50.32,264.54h51.07c4.57,0,4.57-7.09,0-7.09H50.32c-4.56,0-4.57,7.09,0,7.09Z"/><path class="cls-2" d="M75.86,239h51.07c4.56,0,4.57-7.1,0-7.1H75.86c-4.57,0-4.57,7.1,0,7.1Z"/><path class="cls-2" d="M254.6,162.4h51.06c4.57,0,4.57-7.09,0-7.09H254.6c-4.57,0-4.58,7.09,0,7.09Z"/><path class="cls-2" d="M101.39,162.4H178c4.57,0,4.58-7.09,0-7.09h-76.6c-4.56,0-4.57,7.09,0,7.09Z"/><path class="cls-2" d="M50.32,187.94h51.07c4.57,0,4.57-7.09,0-7.09H50.32c-4.56,0-4.57,7.09,0,7.09Z"/><path class="cls-2" d="M178,308.51c-.8,0-1.61-.09-2.41-.17s.08,0,.24,0c-.19,0-.38-.06-.57-.09-.52-.08-1-.17-1.54-.28a31.47,31.47,0,0,1-3.21-.83c-.56-.17-1.11-.36-1.65-.56a2.68,2.68,0,0,1-.8-.32c.4.42.62.28.13.06l-.53-.25a24.78,24.78,0,0,1-3.58-2c-.29-.2-.57-.42-.87-.62.89.6-.09-.09-.3-.26-.57-.49-1.11-1-1.63-1.54-.26-.27-.52-.56-.77-.85s-.93-1.22-.33-.38c-.47-.66-.93-1.32-1.34-2-.26-.44-.5-.88-.72-1.34-.1-.2-.19-.39-.28-.59-.4-.83.14.43-.11-.25a30.44,30.44,0,0,1-.94-2.94c-.14-.53-.25-1.07-.36-1.6,0-.26-.09-.51-.13-.76s-.12-.95,0-.32a36.88,36.88,0,0,1-.23-4.07,3.55,3.55,0,0,0-7.1,0c0,8.38,2.84,16.8,9.57,22.17a32,32,0,0,0,15.39,6.51,30.08,30.08,0,0,0,4.12.4,3.55,3.55,0,0,0,0-7.1Z"/><path class="cls-2" d="M455.32,216.11c0,5-.19,9.87-2.53,14.45-2.55,5-7.09,9.14-12.88,9.67-2.17.19-4.18,2.12-3.42,4.49,1,3.15.78,6.35.78,9.62l0,13c0,8.72-.13,18-7.7,23.94-6,4.77-15.42,3.16-22.61,3.16-2.84,0-6.08-.41-8.89.21-5,1.09-7.38,5.33-7.47,10.14-.18,8.89,1.38,18.55-3.65,26.45-1.8,2.84-4.07,4.2-6.63,6.19s-2.11,5.91-3.26,8.66a22.17,22.17,0,0,1-12.63,12.12c-6.15,2.25-13.81,1.37-20.26,1.37H130c-17,0-32.48-5.43-44.7-17.6l-6.89-6.89-2.51,6.05h25.53a3.58,3.58,0,0,0,2.51-6.05C99,330.22,94,325.5,89.31,320.44a37.68,37.68,0,0,1-9.71-21.55c-.41-4.08-.2-8.26-.2-12.36l-5.33,3.06,25.45,12.74c5.29,2.64,10.17,5.59,14.2,10a38.17,38.17,0,0,1,9.66,25.24,3.58,3.58,0,0,0,6.05,2.5c5.56-5.55,10.65-11.85,18.74-13.51,13.62-2.78,25.94,8,26.28,21.59.11,4.55,7.09,4.58,7.09,0V330.24c0-7.81-.87-15.52,5-21.71h-5l7.43,6a3.66,3.66,0,0,0,5,0c5.18-4.92,11.06-5,17.58-5h72c7.17,0,13.84-.43,19.57,5a3.6,3.6,0,0,0,3.46.91l19.49-6-3.45-.91c7.12,7.51,5,19.53,5,29.07,0,4.56,7,4.56,7.09,0a22.64,22.64,0,0,1,3-11.1,22.38,22.38,0,0,1,2.69-3.66c1.51-1.65,3.68-2.66,5.12-4.27,2.11-2.34,1-7.82,1-10.68,0-5.14.39-10.1,3-14.68,2.84-5,7.61-8.66,13.5-8.81,6.71-.17,13.43.13,20.14,0,4.54-.09,8.76-2.35,9.83-7.08.76-3.37.2-7.33.2-10.74,0-4.66-.23-9.27,1.2-13.77,2-6.39,7.19-12.23,14.18-12.87,2.17-.19,4.19-2.12,3.42-4.49-1.21-3.71-.75-7.9-.74-11.76v-9.82a3.59,3.59,0,0,0-3.54-3.55H336.48a57.81,57.81,0,0,1-9-.39,25.24,25.24,0,0,1-11.17-4.75c-5.18-4.15-7-10.42-7.1-16.84l-6.06,2.5c5.1,5.08,11.92,10.9,19.2,12.16,5.25.91,9.55-1.73,11.3-6.74,1.65-4.71.62-9.44,2.26-14,5.88-16.26,26.91-26.89,43.35-21.85,15,4.6,23.41,20,28.27,33.86,1,2.74,4.92,3.67,6.48.85,3.09-5.6,7.91-9.37,14.46-9.42a46.46,46.46,0,0,1,5.9,0,21.53,21.53,0,0,1,4.6,1.84c11.36,5.67,15.95,16.25,16.35,28.54.15,4.55,7.24,4.57,7.09,0-.49-15.18-6.78-28.69-21.09-35.25-2.2-1-4.52-2.13-6.95-2.23-2.16-.08-4.37,0-6.53,0-8.74.23-15.81,5.42-20,12.94l6.49.84c-4.79-13.62-12.18-27.55-25-35.17a38.3,38.3,0,0,0-30.3-3.55,48.25,48.25,0,0,0-23.82,15.9A36.42,36.42,0,0,0,328.85,181a26,26,0,0,0-1.16,6.05c-.17,2.52.28,5.74-1.22,8-2,3-7.59-.79-10.17-2.52a55,55,0,0,1-8.13-6.7,3.58,3.58,0,0,0-6.05,2.51c.16,12.17,6.11,22.26,17.59,26.75a35.31,35.31,0,0,0,12.89,2.33h75.2l-3.55-3.55,0,10.5c0,4.34-.36,8.79,1,13l3.42-4.49c-11.93,1.08-20.25,11-22,22.5a72.56,72.56,0,0,0-.43,11.23c0,2.71.61,6.23,0,8.88s-5.19,1.85-7.3,1.85h-12c-3.21,0-6.39-.09-9.51.83a24.05,24.05,0,0,0-12.9,9.88c-5.69,8.44-5,18.38-5,28l1.76-3.06a29.74,29.74,0,0,0-13.62,24.6h7.09c0-11.92,1.85-24.68-7.08-34.09a3.5,3.5,0,0,0-3.45-.91l-19.49,6,3.45.91c-6.08-5.77-13.24-7.08-21.2-7.08H212.13c-1.94,0-3.89,0-5.83,0A25.29,25.29,0,0,0,189,309.55h5l-7.44-6a3.62,3.62,0,0,0-5,0,25.16,25.16,0,0,0-7.08,17.11c-.06,2.55,0,5.11,0,7.66v19.9h7.09c-.41-16.32-13.88-29.95-30.51-29.05a29.69,29.69,0,0,0-19.12,8.47c-2.54,2.45-5,5-7.49,7.49l6,2.51c-.22-17.71-10.29-32.85-26-40.7L77.65,283.47a3.59,3.59,0,0,0-5.34,3.06,111.5,111.5,0,0,0,.38,14,45,45,0,0,0,9.41,22.3c4.94,6.24,11.17,11.62,16.78,17.23l2.51-6.05H75.86a3.58,3.58,0,0,0-2.51,6.05c4.22,4.22,8.31,8.67,13,12.38a65.16,65.16,0,0,0,28.94,13.13,101.44,101.44,0,0,0,17.92,1.07H354.53c10.71,0,20.51-4.06,26.59-13.26a30,30,0,0,0,4.52-12.93l-1.76,3.06a26.94,26.94,0,0,0,12.34-15.61c1.47-4.62,1.45-9.36,1.45-14.13V307c0-1.12-.34-3,.17-4.14,1.13-2.46,7.38-1.36,9.43-1.36,8.34,0,17.88,1.33,25.16-3.62,9.21-6.26,11.9-16.72,11.91-27.24l0-14.8c0-4.39.35-8.82-1-13l-3.42,4.49A23.52,23.52,0,0,0,458,235.8c3.71-6.08,4.37-12.75,4.42-19.69C462.45,211.55,455.36,211.54,455.32,216.11Z"/><path class="cls-2" d="M225.51,306v25.75a3.55,3.55,0,0,0,7.1,0V306a3.55,3.55,0,0,0-7.1,0Z"/><path class="cls-2" d="M251.05,306v25.75a3.55,3.55,0,0,0,7.09,0V306a3.55,3.55,0,1,0-7.09,0Z"/><path class="cls-2" d="M276.58,306v25.75a3.55,3.55,0,0,0,7.1,0V306a3.55,3.55,0,0,0-7.1,0Z"/><path class="cls-2" d="M203.53,231.91H152.46c-4.56,0-4.57,7.1,0,7.1h51.07c4.56,0,4.57-7.1,0-7.1Z"/><path class="cls-2" d="M229.06,206.38H178c-4.56,0-4.57,7.09,0,7.09h51.07c4.57,0,4.57-7.09,0-7.09Z"/><path class="cls-2" d="M203.53,180.85H152.46c-4.56,0-4.57,7.09,0,7.09h51.07c4.56,0,4.57-7.09,0-7.09Z"/><path class="cls-2" d="M331.2,257.45H280.13c-4.56,0-4.57,7.09,0,7.09H331.2c4.56,0,4.57-7.09,0-7.09Z"/><path class="cls-2" d="M305.66,231.91H254.6c-4.57,0-4.58,7.1,0,7.1h51.06c4.57,0,4.57-7.1,0-7.1Z"/></svg>