<svg id="Layer_1" data-name="Layer 1" xmlns="http://www.w3.org/2000/svg" viewBox="0 0 500 500"><defs><style>.cls-1{fill:#fbe1a1;}.cls-2{fill:#502a6f;}</style></defs><rect class="cls-1" x="13.83" y="82.23" width="306.41" height="306.41" rx="153.2"/><path class="cls-2" d="M35.78,341.17h76.61c4.56,0,4.57-7.1,0-7.1H35.78c-4.56,0-4.57,7.1,0,7.1Z"/><path class="cls-2" d="M61.32,315.63h76.6c4.56,0,4.57-7.09,0-7.09H61.32c-4.57,0-4.57,7.09,0,7.09Z"/><path class="cls-2" d="M35.78,290.1H86.85c4.57,0,4.57-7.09,0-7.09H35.78c-4.56,0-4.57,7.09,0,7.09Z"/><path class="cls-2" d="M406,188h51.07c4.57,0,4.57-7.09,0-7.09H406c-4.56,0-4.57,7.09,0,7.09Z"/><path class="cls-2" d="M431.56,162.43h25.53a3.55,3.55,0,1,0,0-7.09H431.56a3.55,3.55,0,1,0,0,7.09Z"/><path class="cls-2" d="M406,239h51.07c4.57,0,4.57-7.09,0-7.09H406c-4.56,0-4.57,7.09,0,7.09Z"/><path class="cls-2" d="M36.65,167.67H87.72c4.57,0,4.57-7.09,0-7.09H36.65c-4.56,0-4.57,7.09,0,7.09Z"/><path class="cls-2" d="M36.65,193.21H62.19a3.55,3.55,0,0,0,0-7.09H36.65a3.55,3.55,0,0,0,0,7.09Z"/><path class="cls-2" d="M305.63,186.62h76.6c4.56,0,4.57-7.09,0-7.09h-76.6c-4.57,0-4.57,7.09,0,7.09Z"/><path class="cls-2" d="M331.16,161.09h51.07c4.56,0,4.57-7.09,0-7.09H331.16c-4.56,0-4.57,7.09,0,7.09Z"/><path class="cls-2" d="M48.55,359.61H23a3.55,3.55,0,1,0,0,7.09H48.55a3.55,3.55,0,1,0,0-7.09Z"/><path class="cls-2" d="M48.55,392.23H150.69c4.56,0,4.57-7.09,0-7.09H48.55c-4.56,0-4.57,7.09,0,7.09Z"/><path class="cls-2" d="M176.22,392.23h51.07c4.56,0,4.57-7.09,0-7.09H176.22c-4.56,0-4.57,7.09,0,7.09Z"/><path class="cls-2" d="M457.09,410.68H329.42c-4.56,0-4.57,7.09,0,7.09H457.09c4.57,0,4.57-7.09,0-7.09Z"/><path class="cls-2" d="M303.89,410.68H252.82c-4.56,0-4.57,7.09,0,7.09h51.07c4.56,0,4.57-7.09,0-7.09Z"/><path class="cls-2" d="M227.29,410.68H201.75a3.55,3.55,0,0,0,0,7.09h25.54a3.55,3.55,0,0,0,0-7.09Z"/><path class="cls-2" d="M457.09,366.7h25.54a3.55,3.55,0,0,0,0-7.09H457.09a3.55,3.55,0,0,0,0,7.09Z"/><path class="cls-2" d="M99.62,366.7h291c13.41,0,26.94.54,40.34,0h.58c4.56,0,4.57-7.09,0-7.09h-291c-13.4,0-26.94-.54-40.34,0h-.57c-4.56,0-4.57,7.09,0,7.09Z"/><path class="cls-2" d="M419.68,357.91l-25.91-50.66L352.5,226.58l-9.42-18.42a3.57,3.57,0,0,0-6.12,0c-8.9,17.19-18.71,34-28.88,50.43-17.74,28.73-36.95,58-61.59,81.38-9.11,8.65-21.27,19-34.14,19.64-4.54.21-4.57,7.3,0,7.09,12.58-.59,23.73-8.35,33-16.2,12.68-10.73,23.49-23.62,33.6-36.73,20.12-26.11,37.59-54.3,53.74-83,3.54-6.29,7-12.61,10.36-19H337l25.91,50.66,41.27,80.67,9.42,18.42c2.08,4.06,8.2.48,6.12-3.58Z"/><path class="cls-2" d="M196.17,190.8a34.75,34.75,0,1,1-34.28,28.92,35,35,0,0,1,34.28-28.92c4.56-.06,4.57-7.15,0-7.09a41.85,41.85,0,1,0,41,33.65c-3.7-19.33-21.44-33.65-41-33.65C191.61,183.71,191.6,190.8,196.17,190.8Z"/><path class="cls-2" d="M155.36,261.35,136,283.69l-2.77,3.19a3.65,3.65,0,0,0,0,5,3.59,3.59,0,0,0,5,0l19.35-22.34,2.77-3.2a3.63,3.63,0,0,0,0-5,3.58,3.58,0,0,0-5,0Z"/><path class="cls-2" d="M145.87,239.74l-19,6.5-2.69.92A3.55,3.55,0,1,0,126.1,254l19-6.5,2.68-.92a3.55,3.55,0,1,0-1.88-6.84Z"/><path class="cls-2" d="M187.8,280.8l-.1,11.82v1.7a3.55,3.55,0,1,0,7.09,0l.1-11.82v-1.7a3.55,3.55,0,1,0-7.09,0Z"/><path class="cls-2" d="M240.63,185.58,260,163.24l2.77-3.19a3.63,3.63,0,0,0,0-5,3.57,3.57,0,0,0-5,0l-19.36,22.34-2.76,3.19a3.63,3.63,0,0,0,0,5,3.56,3.56,0,0,0,5,0Z"/><path class="cls-2" d="M250.13,207.19l19-6.5,2.69-.92a3.55,3.55,0,0,0-1.89-6.84l-19,6.5-2.69.92a3.55,3.55,0,0,0,1.89,6.84Z"/><path class="cls-2" d="M223.05,171.25l3.9-11.18.55-1.58a3.57,3.57,0,0,0-2.47-4.37,3.63,3.63,0,0,0-4.36,2.48l-3.91,11.18-.55,1.59a3.57,3.57,0,0,0,2.48,4.36,3.63,3.63,0,0,0,4.36-2.48Z"/><path class="cls-2" d="M239.49,259.66,261.83,279l3.19,2.77a3.65,3.65,0,0,0,5,0,3.59,3.59,0,0,0,0-5L247.7,257.41l-3.2-2.77a3.63,3.63,0,0,0-5,0,3.58,3.58,0,0,0,0,5Z"/><path class="cls-2" d="M217.88,269.15l6.5,19,.92,2.69a3.55,3.55,0,0,0,6.84-1.88l-6.5-19-.92-2.68a3.55,3.55,0,0,0-6.84,1.88Z"/><path class="cls-2" d="M253.82,242.08,265,246l1.59.55a3.57,3.57,0,0,0,4.36-2.48,3.63,3.63,0,0,0-2.48-4.36l-11.18-3.9-1.59-.55a3.56,3.56,0,0,0-4.36,2.47,3.64,3.64,0,0,0,2.48,4.37Z"/><path class="cls-2" d="M163.72,174.39,141.38,155l-3.19-2.76a3.61,3.61,0,0,0-5,0,3.56,3.56,0,0,0,0,5l22.34,19.36,3.19,2.76a3.62,3.62,0,0,0,5,0,3.56,3.56,0,0,0,0-5Z"/><path class="cls-2" d="M185.33,164.89l-6.5-19-.92-2.69a3.55,3.55,0,0,0-6.84,1.89l6.5,19,.92,2.69a3.55,3.55,0,0,0,6.84-1.89Z"/><path class="cls-2" d="M149.39,192l-11.18-3.9-1.58-.55a3.57,3.57,0,0,0-4.37,2.47,3.64,3.64,0,0,0,2.48,4.37l11.18,3.9,1.59.55a3.57,3.57,0,0,0,4.36-2.48,3.63,3.63,0,0,0-2.48-4.36Z"/><path class="cls-2" d="M336.47,210a296,296,0,0,1-2.54,61.76c-1.84,11.82-4.3,26.06-12.31,35.49-4.08,4.81-8.82,5.31-14.43,7.63a59.36,59.36,0,0,0-21.27,15.51,91,91,0,0,0-18.5,31.87c-1.4,4.36,5.45,6.22,6.84,1.89a83,83,0,0,1,14.86-26.63c5.56-6.7,12.33-12.59,20.42-16,6-2.52,11.45-3.32,16.13-8.19,8.73-9.1,12.07-22.86,14.29-34.88A270,270,0,0,0,343.88,235c.17-8.33.16-16.7-.31-25-.26-4.54-7.35-4.57-7.1,0Z"/></svg>