<?xml version="1.0" encoding="utf-8"?>
<!-- Generator: Adobe Illustrator 24.1.2, SVG Export Plug-In . SVG Version: 6.00 Build 0)  -->
<svg version="1.1" id="Layer_1" xmlns="http://www.w3.org/2000/svg" xmlns:xlink="http://www.w3.org/1999/xlink" x="0px" y="0px"
	 viewBox="0 0 594 500" style="enable-background:new 0 0 594 500;" xml:space="preserve">
<style type="text/css">
	.st0{fill:#FBE1A1;}
	.st1{fill:#502A6F;}
</style>
<path class="st0" d="M214,82.3L214,82.3c84.6,0,153.2,68.6,153.2,153.2v0c0,84.6-68.6,153.2-153.2,153.2h0
	c-84.6,0-153.2-68.6-153.2-153.2v0C60.8,150.8,129.4,82.3,214,82.3z"/>
<path class="st1" d="M95.6,359.6H70c-2,0-3.6,1.6-3.6,3.6c0,2,1.6,3.5,3.6,3.5h25.6c2,0,3.6-1.6,3.6-3.5
	C99.1,361.2,97.5,359.6,95.6,359.6z"/>
<path class="st1" d="M95.6,392.2h102.1c4.6,0,4.6-7.1,0-7.1H95.6C91,385.1,91,392.2,95.6,392.2z"/>
<path class="st1" d="M223.2,392.2h51.1c4.6,0,4.6-7.1,0-7.1h-51.1C218.7,385.1,218.6,392.2,223.2,392.2z"/>
<path class="st1" d="M504.1,410.6H376.4c-4.6,0-4.6,7.1,0,7.1h127.7C508.7,417.7,508.7,410.6,504.1,410.6z"/>
<path class="st1" d="M350.9,410.6h-51.1c-4.6,0-4.6,7.1,0,7.1h51.1C355.5,417.7,355.5,410.6,350.9,410.6z"/>
<path class="st1" d="M274.3,410.6h-25.5c-2,0.1-3.5,1.8-3.4,3.7c0.1,1.8,1.5,3.3,3.4,3.4h25.5c2-0.1,3.5-1.8,3.4-3.7
	C277.6,412.2,276.1,410.7,274.3,410.6L274.3,410.6z"/>
<path class="st1" d="M504.1,366.7h25.5c2,0,3.6-1.6,3.6-3.5c0-2-1.6-3.6-3.6-3.6l0,0h-25.5c-2,0-3.6,1.6-3.6,3.6
	C500.5,365.1,502.1,366.7,504.1,366.7z"/>
<path class="st1" d="M427.5,366.7h51.1c4.6,0,4.6-7.1,0-7.1h-51.1C422.9,359.6,422.9,366.7,427.5,366.7z"/>
<path class="st1" d="M379.8,364.1c5.5-16.5,11-33,16.5-49.4c6.4-19.5,9.5-39.9,9.2-60.4c-0.1-9-4.9-17.1-13.3-20.6
	c-4.6-2-9.8-0.9-14.3-3c-1.9-1-3.7-2.2-5.1-3.8c-7.6-7.5-15.1-15.1-22.7-22.7c-2.8-2.8-5.4-5.6-8.6-7.9c-7.4-5-16.7-6.3-25.2-3.5
	c-9.9,3.4-17.3,13-24.5,20.2L280,224.7c-3.8,3.8-7.4,7.2-13.2,7.2c-8.2,0-14.4-6.7-14.5-14.7c-0.1-4.3,0-8.6,0-12.8v-32.8
	c0-4.6-7.1-4.6-7.1,0v41.1c0,4.8,0,9.4,2.1,13.9c3.8,7.9,11.9,12.8,20.6,12.3c6.3-0.4,11.3-3.4,15.6-7.7l23-23
	c3.1-3.1,6-6.3,10.2-8.1c8.2-3.5,17.7-1.6,24,4.6c6.8,6.6,13.3,13.3,20,20c2.6,2.6,5.1,5.3,7.8,7.8c2.7,2.6,6,4.6,9.6,5.6
	c5,1.4,9.9,0.3,14.3,3.5c7.4,5.3,6.2,15,5.9,23c-0.5,12-2.2,23.9-5.1,35.5c-2.5,10-6.1,19.7-9.3,29.5l-10.1,30.4l-0.7,2
	C371.6,366.5,378.4,368.4,379.8,364.1L379.8,364.1z"/>
<path class="st1" d="M233.5,155.3c-7.5,0-14.9-0.1-22.4,0c-6.4,0.1-12.3,3.1-15.3,9.1c-3.5,7.3-1.2,16.1,5.4,20.8
	c5.9,4,15.4,1,18,9.3c0.4,1.9,0.6,3.8,0.4,5.7v22.8c0,16.6-0.1,33.2,0,49.8c-0.1,4.1,1.2,8.2,3.7,11.4c2.4,2.9,5.7,4.9,9.4,5.7
	c3.6,0.7,6.9,0.2,9.8,3c4.1,4.1,2.7,12.4,2.7,17.7v52.6c0,1.9,1.6,3.5,3.5,3.5h25.5c1.9,0,3.5-1.6,3.5-3.5v-51l-3.5,3.5h76.6
	c4.6,0,4.6-7.1,0-7.1h-76.6c-1.9,0-3.5,1.6-3.6,3.5v51.1l3.6-3.5h-25.6l3.6,3.5v-44.7c0-6.2,0.1-12.4,0-18.6
	c0.1-4.8-1.9-9.4-5.4-12.6c-2.3-2-5.1-3.4-8.1-3.9c-4.3-0.8-8.3-0.5-10.8-4.8c-2.4-4.1-1.2-11.3-1.2-15.8v-54.8
	c0-4.8,0.7-10.6-0.7-15.3c-1.1-3.5-3.2-6.5-6.2-8.6c-3.5-2.5-6.8-2.5-10.8-3.1c-11.1-1.9-9.6-17.8,1.4-18.4c7.6-0.4,15.4,0,23,0
	C238.1,162.4,238.1,155.3,233.5,155.3L233.5,155.3z"/>
<path class="st1" d="M376.4,359.6h-25.5l3.5,3.5v-37.8c0-4.3,0.5-9,0-13.2c-0.3-2.2-2.1-3.6-3.6-5.2c-2.7-3-5.1-6.1-7.5-9.3
	c-7.6-10.6-14.3-23.1-14.5-36.5c-0.1-4.6-7.1-4.6-7.1,0c0.3,20,12.8,39.8,26.6,53.6l-1-2.5v51.1c0,1.9,1.6,3.5,3.5,3.5h25.5
	C381,366.7,381,359.6,376.4,359.6L376.4,359.6z"/>
<path class="st1" d="M399.5,263.5c4.5,4.6,8.5,9.6,12,15c6.7,9.9,12.4,21.4,12.5,33.6c0,4.6,7.1,4.6,7.1,0
	c-0.1-13.2-5.9-25.8-13.1-36.6c-3.9-6.1-8.5-11.8-13.5-16.9C401.2,255.3,396.2,260.3,399.5,263.5L399.5,263.5z"/>
<path class="st1" d="M236.9,159.8c0.5-2.7,0.9-5.3,1.4-8c0-0.1,0-0.3,0.1-0.4s0.1-0.5,0.2-0.8c0.2-0.8-0.4,0.6,0.1-0.1l0.4-0.7
	c0.4-0.7-0.5,0.5,0.1-0.1c0.2-0.2,0.4-0.4,0.5-0.5c0.5-0.5-0.6,0.3,0.1-0.1c0.2-0.1,0.4-0.3,0.6-0.4s0.9-0.3,0.1-0.1
	c0.5-0.2,0.9-0.3,1.4-0.4c-1,0.2,0.2,0,0.5,0s0.9,0.2,0,0l0.9,0.2c0.8,0.2-0.6-0.4,0.1,0l0.6,0.4c-0.7-0.4-0.2-0.2,0,0l0.5,0.5
	c-0.6-0.6,0,0,0.1,0.2c0,0,0.5,1,0.3,0.5c0.3,0.5,0.4,1.1,0.3,1.8c0,0.6,0,1.3,0,1.9v17.9c0.1,2,1.8,3.5,3.7,3.4
	c1.8-0.1,3.3-1.5,3.4-3.4v-18.2c0-1.2,0-2.5-0.2-3.7c-0.5-3.2-2.6-6-5.5-7.5c-5.5-2.5-11.9-0.1-14.4,5.4c0,0,0,0.1-0.1,0.1
	c-0.6,1.7-1,3.5-1.2,5.3l-0.8,4.9c-0.5,1.9,0.6,3.8,2.5,4.4c1.7,0.4,4-0.5,4.4-2.5L236.9,159.8z"/>
<path class="st1" d="M252.3,184.4v-12.8c0.1-2-1.4-3.6-3.4-3.7c-2-0.1-3.6,1.4-3.7,3.4c0,0.1,0,0.3,0,0.4v12.8
	c-0.1,2,1.4,3.6,3.4,3.7c2,0.1,3.6-1.4,3.7-3.4C252.3,184.6,252.3,184.5,252.3,184.4z"/>
<path class="st1" d="M146.6,366.7h223.9c10.2,0,20.8,0.8,31,0c0.1,0,0.3,0,0.4,0c4.6,0,4.6-7.1,0-7.1H178.1c-10.2,0-20.8-0.8-31.1,0
	h-0.4C142.1,359.6,142,366.7,146.6,366.7z"/>
<path class="st1" d="M95.6,315.6h76.6c4.6,0,4.6-7.1,0-7.1H95.6C91,308.5,91,315.6,95.6,315.6z"/>
<path class="st1" d="M121.1,290.1h76.6c4.6,0,4.6-7.1,0-7.1h-76.6C116.5,283,116.5,290.1,121.1,290.1z"/>
<path class="st1" d="M95.6,264.5h51.1c4.6,0,4.6-7.1,0-7.1H95.6C91,257.5,91,264.5,95.6,264.5z"/>
<path class="st1" d="M121.1,213.5h76.6c4.6,0,4.6-7.1,0-7.1h-76.6C116.5,206.4,116.5,213.5,121.1,213.5z"/>
<path class="st1" d="M95.6,187.9h51.1c4.6,0,4.6-7.1,0-7.1H95.6C91,180.9,91,187.9,95.6,187.9z"/>
<path class="st1" d="M427.5,239h76.6c4.6,0,4.6-7.1,0-7.1h-76.6C422.9,231.9,422.9,239,427.5,239z"/>
<path class="st1" d="M453,213.5h51.1c4.6,0,4.6-7.1,0-7.1H453C448.4,206.4,448.4,213.5,453,213.5z"/>
<path class="st1" d="M478.6,180.9h-51.1c-4.6,0-4.6,7.1,0,7.1h51.1C483.1,187.9,483.1,180.9,478.6,180.9z"/>
<path class="st1" d="M453,290.1h51.1c4.6,0,4.6-7.1,0-7.1H453C448.4,283,448.4,290.1,453,290.1z"/>
<path class="st1" d="M350.9,162.4H402c4.6,0,4.6-7.1,0-7.1h-51.1C346.3,155.3,346.3,162.4,350.9,162.4z"/>
<path class="st1" d="M350.9,187.9h25.5c2,0.1,3.6-1.4,3.7-3.4c0.1-2-1.4-3.6-3.4-3.7c-0.1,0-0.3,0-0.4,0h-25.5
	c-2-0.1-3.6,1.4-3.7,3.4c-0.1,2,1.4,3.6,3.4,3.7C350.6,187.9,350.8,187.9,350.9,187.9z"/>
</svg>
