<?xml version="1.0" encoding="utf-8"?>
<!-- Generator: Adobe Illustrator 24.1.2, SVG Export Plug-In . SVG Version: 6.00 Build 0)  -->
<svg version="1.1" id="Layer_1" xmlns="http://www.w3.org/2000/svg" xmlns:xlink="http://www.w3.org/1999/xlink" x="0px" y="0px"
	 viewBox="0 0 594 500" style="enable-background:new 0 0 594 500;" xml:space="preserve">
<style type="text/css">
	.st0{fill:#FBE1A1;}
	.st1{fill:#502A6F;}
</style>
<path class="st0" d="M215.8,82.3L215.8,82.3c84.6,0,153.2,68.6,153.2,153.2v0c0,84.6-68.6,153.2-153.2,153.2h0
	c-84.6,0-153.2-68.6-153.2-153.2v0C62.6,150.8,131.2,82.3,215.8,82.3z"/>
<path class="st1" d="M122.9,366.7H369c11.4,0,22.9,0.5,34.2,0h0.5c4.6,0,4.6-7.1,0-7.1H157.6c-11.4,0-22.9-0.5-34.2,0h-0.5
	C118.3,359.6,118.3,366.7,122.9,366.7z"/>
<path class="st1" d="M97.3,359.6H71.8c-2,0-3.6,1.6-3.6,3.6c0,2,1.6,3.5,3.6,3.5h25.5c2,0,3.6-1.6,3.6-3.5
	C100.9,361.2,99.3,359.6,97.3,359.6z"/>
<path class="st1" d="M97.3,392.2h102.1c4.6,0,4.6-7.1,0-7.1H97.3C92.8,385.1,92.8,392.2,97.3,392.2z"/>
<path class="st1" d="M225,392.2h76.6c4.6,0,4.6-7.1,0-7.1H225C220.4,385.1,220.4,392.2,225,392.2z"/>
<path class="st1" d="M505.9,410.6H378.2c-4.6,0-4.6,7.1,0,7.1h127.7C510.4,417.7,510.4,410.6,505.9,410.6z"/>
<path class="st1" d="M352.7,410.6h-51.1c-4.6,0-4.6,7.1,0,7.1h51.1C357.2,417.7,357.2,410.6,352.7,410.6z"/>
<path class="st1" d="M276.1,410.6h-25.5c-2-0.1-3.6,1.4-3.7,3.4c-0.1,2,1.4,3.6,3.4,3.7c0.1,0,0.3,0,0.4,0h25.5
	c2,0.1,3.6-1.4,3.7-3.4c0.1-2-1.4-3.6-3.4-3.7C276.3,410.6,276.2,410.6,276.1,410.6z"/>
<path class="st1" d="M429.3,366.7h76.6c4.6,0,4.6-7.1,0-7.1h-76.6C424.7,359.6,424.7,366.7,429.3,366.7z"/>
<path class="st1" d="M228.5,363.1v-51.1c0-1.9-1.6-3.5-3.6-3.5h-33.1c-2.4,0.2-4.7,0.1-7.1-0.2c-9.6-1.9-7.4-14.4-7.4-21.5
	s-2.4-20.2,7.4-22.2c6.3-1.2,11,3.8,11.1,9.8c0,4,0,8,0,12.1c0,1.9,1.6,3.5,3.6,3.5H225c1.9,0,3.5-1.6,3.6-3.5v-69.7
	c0-10.4,0-20.8,0-31.2c0-6.8,2.2-13.1,7.4-17.7c9.1-8,23-7.2,31.1,1.9c3.1,3.5,5,7.9,5.4,12.6c0.2,2.5,0.1,5,0.1,7.5v20
	c0,1.9,1.6,3.5,3.5,3.5h25.5c1.9,0,3.5-1.6,3.5-3.5c0-7.2-2.4-19.9,7.4-21.8c5.9-1.2,10.9,3.4,11.1,9.1c0.1,3.2,0,6.4,0,9.6v13
	c0,3.8-0.1,7.4-3.4,10c-2.6,2.2-5.7,2.1-8.8,2.1h-35.3c-1.9,0-3.5,1.6-3.5,3.6v127.7c0,4.6,7.1,4.6,7.1,0V235.5l-3.5,3.5h24.7
	c9,0,20,1.8,26.3-6.1c3.2-4,3.6-8.4,3.6-13.3v-15.4c0-4.1,0.5-8.6-1-12.5c-3-8.5-12.4-12.9-20.9-9.8c-6.5,2.3-10.8,8.5-10.8,15.3
	c-0.1,4.2,0,8.5,0,12.8l3.6-3.6h-25.5l3.5,3.6v-18.8c0-7.9-0.1-15.4-4.5-22.3c-8.6-13.6-26.6-17.6-40.2-8.9
	c-5.8,3.7-10.2,9.4-12.2,16c-1.3,4.2-1.2,8.5-1.2,12.8v97.8l3.5-3.5h-25.5l3.6,3.5c0-10.3,1.6-22.9-10-27.8
	c-6.7-2.8-14.4-0.8-19,4.8c-3.3,4.1-3.6,8.8-3.6,13.8v15.5c0,3.9-0.4,8.1,1,11.9c2.4,6.5,8.6,10.8,15.5,10.8c3.2,0.1,6.4,0,9.6,0
	H225l-3.5-3.5v51.1C221.5,367.7,228.6,367.7,228.5,363.1L228.5,363.1z"/>
<path class="st1" d="M305.1,363.1v-60.3c0-7.5-1.3-17,1.5-24.2c6.9-18,33-18.5,40.7-0.9c2.5,5.6,1.8,12.1,1.8,18.1v16.2
	c0,1.9,1.6,3.5,3.5,3.5h25.5c1.9,0,3.5-1.6,3.5-3.5c0-7.2-2.4-19.9,7.4-21.8c5.9-1.2,10.9,3.4,11.1,9.1c0.1,3.2,0,6.4,0,9.6v13
	c0,3.8-0.1,7.4-3.4,10c-2.6,2.2-5.7,2.1-8.8,2.1h-35.3c-1.9,0-3.5,1.6-3.5,3.5v25.5c0,4.6,7.1,4.6,7.1,0v-25.5l-3.5,3.5h24.7
	c9,0,20,1.8,26.3-6.1c3.2-4,3.6-8.5,3.6-13.3v-15.4c0-4.1,0.5-8.6-1-12.5c-3-8.5-12.4-12.9-20.8-9.9c-6.5,2.3-10.8,8.5-10.8,15.4
	c-0.1,4.2,0,8.5,0,12.8l3.5-3.5h-25.5l3.5,3.5v-15.2c0-5.6,0.5-11.5-0.8-17c-4.5-19.7-28.6-28.8-45-17.1
	c-7.7,5.5-12.3,14.3-12.4,23.8c0,2.5,0,5,0,7.5v69.1C298.1,367.7,305.2,367.7,305.1,363.1L305.1,363.1z"/>
<path class="st1" d="M97.3,315.6h51.1c4.6,0,4.6-7.1,0-7.1H97.3C92.8,308.5,92.8,315.6,97.3,315.6z"/>
<path class="st1" d="M122.9,290.1h25.5c2,0.1,3.6-1.4,3.7-3.4c0.1-2-1.4-3.6-3.4-3.7c-0.1,0-0.3,0-0.4,0h-25.5
	c-2-0.1-3.6,1.4-3.7,3.4c-0.1,2,1.4,3.6,3.4,3.7C122.6,290.1,122.7,290.1,122.9,290.1z"/>
<path class="st1" d="M173.9,206.4H97.3c-4.6,0-4.6,7.1,0,7.1h76.6C178.5,213.5,178.5,206.4,173.9,206.4z"/>
<path class="st1" d="M173.9,180.9h-51.1c-4.6,0-4.6,7.1,0,7.1h51.1C178.5,187.9,178.5,180.9,173.9,180.9z"/>
<path class="st1" d="M97.3,162.4h51.1c4.6,0,4.6-7.1,0-7.1H97.3C92.8,155.3,92.8,162.4,97.3,162.4z"/>
<path class="st1" d="M378.2,239h76.6c4.6,0,4.6-7.1,0-7.1h-76.6C373.6,231.9,373.6,239,378.2,239z"/>
<path class="st1" d="M403.7,213.5h76.6c4.6,0,4.6-7.1,0-7.1h-76.6C399.2,206.4,399.2,213.5,403.7,213.5z"/>
<path class="st1" d="M378.2,187.9h51.1c4.6,0,4.6-7.1,0-7.1h-51.1C373.6,180.9,373.6,187.9,378.2,187.9z"/>
<path class="st1" d="M480.3,187.9h25.5c2-0.1,3.5-1.8,3.4-3.7c-0.1-1.8-1.5-3.3-3.4-3.4h-25.5c-2,0.1-3.5,1.8-3.4,3.7
	C477.1,186.4,478.5,187.8,480.3,187.9z"/>
<path class="st1" d="M403.7,155.3h-51.1c-4.6,0-4.6,7.1,0,7.1h51.1C408.3,162.4,408.3,155.3,403.7,155.3z"/>
<path class="st1" d="M454.8,315.6h51.1c4.6,0,4.6-7.1,0-7.1h-51.1C450.2,308.5,450.2,315.6,454.8,315.6z"/>
<path class="st1" d="M480.3,283h-51.1c-4.6,0-4.6,7.1,0,7.1h51.1C484.9,290.1,484.9,283,480.3,283L480.3,283z"/>
</svg>
