<?xml version="1.0" encoding="utf-8"?>
<!-- Generator: Adobe Illustrator 24.1.2, SVG Export Plug-In . SVG Version: 6.00 Build 0)  -->
<svg version="1.1" id="Layer_1" xmlns="http://www.w3.org/2000/svg" xmlns:xlink="http://www.w3.org/1999/xlink" x="0px" y="0px"
	 viewBox="0 0 594 500" style="enable-background:new 0 0 594 500;" xml:space="preserve">
<style type="text/css">
	.st0{fill:#FBE1A1;}
	.st1{fill:#502A6F;}
</style>
<path class="st0" d="M215.8,82.3L215.8,82.3c84.6,0,153.2,68.6,153.2,153.2v0c0,84.6-68.6,153.2-153.2,153.2h0
	c-84.6,0-153.2-68.6-153.2-153.2v0C62.6,150.8,131.2,82.3,215.8,82.3z"/>
<path class="st1" d="M122.9,366.7h335.9c15.5,0,31,0.6,46.5,0h0.7c4.6,0,4.6-7.1,0-7.1H170c-15.4,0-31-0.6-46.5,0h-0.7
	C118.3,359.6,118.3,366.7,122.9,366.7L122.9,366.7z"/>
<path class="st1" d="M97.3,359.6H71.8c-2,0-3.6,1.6-3.6,3.6c0,2,1.6,3.5,3.6,3.5h25.5c2,0,3.6-1.6,3.6-3.5
	C100.9,361.2,99.3,359.6,97.3,359.6z"/>
<path class="st1" d="M97.3,392.2h102.1c4.6,0,4.6-7.1,0-7.1H97.3C92.8,385.1,92.8,392.2,97.3,392.2z"/>
<path class="st1" d="M225,392.2h51.1c4.6,0,4.6-7.1,0-7.1H225C220.4,385.1,220.4,392.2,225,392.2z"/>
<path class="st1" d="M505.9,410.6H378.2c-4.6,0-4.6,7.1,0,7.1h127.7C510.4,417.7,510.4,410.6,505.9,410.6z"/>
<path class="st1" d="M352.7,410.6h-51.1c-4.6,0-4.6,7.1,0,7.1h51.1C357.2,417.7,357.2,410.6,352.7,410.6z"/>
<path class="st1" d="M276.1,410.6h-25.5c-2-0.1-3.6,1.4-3.7,3.4c-0.1,2,1.4,3.6,3.4,3.7c0.1,0,0.3,0,0.4,0h25.5
	c2,0.1,3.6-1.4,3.7-3.4c0.1-2-1.4-3.6-3.4-3.7C276.3,410.6,276.2,410.6,276.1,410.6z"/>
<path class="st1" d="M170.1,365.6c9-10.8,17.7-21.8,26.2-32.9c17.7-22.9,34.9-46.2,50.7-70.4c7.8-11.9,15.2-24,21.8-36.6
	c2.8-5.3,5.4-10.8,7.7-16.4c1-2.5,2-4.9,2.8-7.5c0.5-1.5,1.1-6.1,2.7-6.6c1.8-0.5,3.8,3.2,4.7,4.4c1.6,2.2,3.3,4.3,4.9,6.5
	c4,5.3,8,10.6,11.9,16c9.8,13.4,19.3,26.9,28.6,40.7c19.3,28.8,38.6,58.7,51.6,91c1.3,3.3,2.6,6.7,3.8,10.2c1.5,4.3,8.3,2.5,6.8-1.9
	C383.2,329,364,298.4,345,269.4c-16.8-25.7-34.8-50.6-53.4-74.9c-2-2.5-3.7-5.2-7-6c-3.8-0.9-7.7,0.8-9.6,4.2
	c-1.3,2.3-1.7,5.2-2.5,7.6c-0.9,2.5-1.8,5-2.9,7.5c-5.2,12.4-12,24.2-18.9,35.7c-15.8,26-33.7,50.8-52.2,75
	c-10.7,14-21.7,27.8-32.8,41.5l-0.5,0.6C162.2,364.1,167.2,369.1,170.1,365.6L170.1,365.6z"/>
<path class="st1" d="M349.3,275.5l22.3-44.7h-6.1c7.9,15.7,16.6,31.1,25.8,46.1c8.2,13.5,16.9,26.7,26.3,39.4
	c8.9,11.9,18.4,23.6,29.5,33.6c9.1,8.1,20.5,16.6,33.2,16.7c4.6,0,4.6-7,0-7.1c-9.8-0.1-19.2-6.8-26.5-13.1
	c-10.8-9.3-20.1-20.4-28.6-31.8c-16.8-22.4-31.4-46.5-44.8-71.1c-2.9-5.4-5.9-10.8-8.6-16.3c-1-1.7-3.2-2.2-4.9-1.2
	c-0.5,0.3-0.9,0.7-1.2,1.2L343.2,272C341.2,276.1,347.3,279.7,349.3,275.5L349.3,275.5z"/>
<path class="st1" d="M279.1,193.5c-0.5-1.1-0.3-0.6-0.1-0.1l0.8,2.1c0.9,2.3,1.9,4.7,2.7,7c2.8,7.2,5.3,14.6,7.6,21.9
	c2.9,9.1,5.3,18.3,7.1,27.7c1.4,7.7,2.6,15.9,1.4,23.8c-1.1,7.1-4.3,12.3-11.4,14.2c-7.8,2.1-16.1,2.3-23.9,4.5
	c-11.3,3.4-21.6,9.7-29.7,18.3c-7.9,8.1-15.4,17.7-19.4,28.5c-2.9,8-3.3,19.8,5,24.9c3.9,2.4,7.5-3.7,3.6-6.1
	c-0.1-0.1-0.2-0.1-0.3-0.2c1.1,1.1-0.1-0.1-0.3-0.4l-0.5-0.6c-0.6-0.6,0.1,0.2-0.2-0.2c-0.4-0.6-0.8-1.3-1.1-1.9
	c-0.3-0.7-0.5-1.3-0.6-2c-0.3-1.1-0.4-2.1-0.3-3.2c0.1-3.1,0.8-6.1,2-9c4.3-10.9,12.9-21,21.5-28.7c8.3-7.3,18.3-12.1,29.2-14
	c7.2-1.4,15-1.5,21.7-4.7c6.7-3.2,10.3-9.8,11.6-16.8c3-16.8-2.2-35.1-6.9-51.1c-3.7-12.7-8.2-25.1-13.3-37.3
	C283.5,185.7,277.4,189.3,279.1,193.5L279.1,193.5z"/>
<path class="st1" d="M365.2,228.1c-3.4,11.8-4.2,24.1-2.4,36.3c1.4,8.7,4.9,17.4,11.5,23.5c3.8,3.6,7.2,6.9,9.5,11.7
	c2,4.2,3,8.8,3.1,13.4c0.2,7-1.5,17.4-8.7,20.8c-4.1,1.9-0.5,8.1,3.6,6.1c6.7-3.2,10.2-11.2,11.5-18.1c1.8-9.5,0.3-19.3-4.4-27.7
	c-2.7-4.7-6.4-8-10.2-11.7c-3.2-3.3-5.6-7.2-7-11.5c-2.8-8.2-3.1-17.1-2.3-25.7c0.4-5.1,1.3-10.1,2.6-15
	C373.2,225.6,366.4,223.7,365.2,228.1L365.2,228.1z"/>
<path class="st1" d="M148.4,283H97.3c-4.6,0-4.6,7.1,0,7.1h51.1C153,290.1,153,283,148.4,283z"/>
<path class="st1" d="M173.9,257.5h-51.1c-4.6,0-4.6,7.1,0,7.1h51.1C178.5,264.5,178.5,257.5,173.9,257.5z"/>
<path class="st1" d="M148.4,231.9H97.3c-4.6,0-4.6,7.1,0,7.1h51.1C153,239,153,231.9,148.4,231.9z"/>
<path class="st1" d="M173.9,187.9h76.6c4.6,0,4.6-7.1,0-7.1h-76.6C169.4,180.9,169.4,187.9,173.9,187.9z"/>
<path class="st1" d="M199.5,162.4h51.1c4.6,0,4.6-7.1,0-7.1h-51.1C194.9,155.3,194.9,162.4,199.5,162.4z"/>
<path class="st1" d="M173.9,155.3h-25.5c-2,0.1-3.5,1.8-3.4,3.7c0.1,1.8,1.5,3.3,3.4,3.4h25.5c2-0.1,3.5-1.8,3.4-3.7
	C177.2,156.9,175.7,155.4,173.9,155.3z"/>
<path class="st1" d="M352.7,187.9h76.6c4.6,0,4.6-7.1,0-7.1h-76.6C348.1,180.9,348.1,187.9,352.7,187.9z"/>
<path class="st1" d="M378.2,162.4h51.1c4.6,0,4.6-7.1,0-7.1h-51.1C373.6,155.3,373.6,162.4,378.2,162.4z"/>
<path class="st1" d="M429.3,264.5h76.6c4.6,0,4.6-7.1,0-7.1h-76.6C424.7,257.5,424.7,264.5,429.3,264.5z"/>
<path class="st1" d="M454.8,239h51.1c4.6,0,4.6-7.1,0-7.1h-51.1C450.2,231.9,450.2,239,454.8,239z"/>
<path class="st1" d="M480.3,206.4h-51.1c-4.6,0-4.6,7.1,0,7.1h51.1C484.9,213.5,484.9,206.4,480.3,206.4L480.3,206.4z"/>
<path class="st1" d="M454.8,315.6h51.1c4.6,0,4.6-7.1,0-7.1h-51.1C450.2,308.5,450.2,315.6,454.8,315.6z"/>
</svg>
