<svg id="Layer_1" data-name="Layer 1" xmlns="http://www.w3.org/2000/svg" viewBox="0 0 500 500"><defs><style>.cls-1{fill:#fbe1a1;}.cls-2{fill:#502a6f;}</style></defs><rect class="cls-1" x="15.6" y="88.97" width="306.41" height="306.41" rx="153.2"/><path class="cls-2" d="M75.86,148.6H50.32a3.55,3.55,0,0,0,0,7.09H75.86a3.55,3.55,0,0,0,0-7.09Z"/><path class="cls-2" d="M50.32,308.89H75.86a3.55,3.55,0,0,0,0-7.09H50.32a3.55,3.55,0,0,0,0,7.09Z"/><path class="cls-2" d="M75.86,232.29h51.07c4.56,0,4.57-7.09,0-7.09H75.86c-4.57,0-4.57,7.09,0,7.09Z"/><path class="cls-2" d="M254.6,155.69h51.06c4.57,0,4.57-7.09,0-7.09H254.6c-4.57,0-4.58,7.09,0,7.09Z"/><path class="cls-2" d="M101.39,155.69H178c4.57,0,4.58-7.09,0-7.09h-76.6c-4.56,0-4.57,7.09,0,7.09Z"/><path class="cls-2" d="M50.32,181.22h51.07c4.57,0,4.57-7.09,0-7.09H50.32c-4.56,0-4.57,7.09,0,7.09Z"/><path class="cls-2" d="M203.53,225.2H152.46c-4.56,0-4.57,7.09,0,7.09h51.07c4.56,0,4.57-7.09,0-7.09Z"/><path class="cls-2" d="M229.06,199.67H178c-4.56,0-4.57,7.09,0,7.09h51.07c4.57,0,4.57-7.09,0-7.09Z"/><path class="cls-2" d="M203.53,174.13H152.46c-4.56,0-4.57,7.09,0,7.09h51.07c4.56,0,4.57-7.09,0-7.09Z"/><path class="cls-2" d="M245.24,250.73H194.18c-4.57,0-4.58,7.1,0,7.1h51.06c4.57,0,4.57-7.1,0-7.1Z"/><path class="cls-2" d="M305.66,225.2H254.6c-4.57,0-4.58,7.09,0,7.09h51.06c4.57,0,4.57-7.09,0-7.09Z"/><path class="cls-2" d="M75.86,360H322c11.36,0,22.86.5,34.22,0h.49c4.56,0,4.57-7.09,0-7.09H110.57c-11.36,0-22.86-.5-34.22,0h-.49c-4.57,0-4.57,7.09,0,7.09Z"/><path class="cls-2" d="M50.32,352.87H24.79a3.55,3.55,0,1,0,0,7.09H50.32a3.55,3.55,0,1,0,0-7.09Z"/><path class="cls-2" d="M50.32,385.49H152.46c4.56,0,4.57-7.09,0-7.09H50.32c-4.56,0-4.57,7.09,0,7.09Z"/><path class="cls-2" d="M178,385.49H254.6c4.56,0,4.57-7.09,0-7.09H178c-4.56,0-4.57,7.09,0,7.09Z"/><path class="cls-2" d="M458.87,403.94H331.2c-4.57,0-4.57,7.09,0,7.09H458.87c4.56,0,4.57-7.09,0-7.09Z"/><path class="cls-2" d="M305.66,403.94H254.6c-4.57,0-4.58,7.09,0,7.09h51.06c4.57,0,4.57-7.09,0-7.09Z"/><path class="cls-2" d="M229.06,403.94H203.53a3.55,3.55,0,1,0,0,7.09h25.53a3.55,3.55,0,1,0,0-7.09Z"/><path class="cls-2" d="M382.26,360h76.61c4.56,0,4.57-7.09,0-7.09H382.26c-4.56,0-4.57,7.09,0,7.09Z"/><path class="cls-2" d="M406.06,206.76h51.07c4.56,0,4.57-7.09,0-7.09H406.06c-4.56,0-4.57,7.09,0,7.09Z"/><path class="cls-2" d="M431.59,181.22h25.54a3.55,3.55,0,0,0,0-7.09H431.59a3.55,3.55,0,0,0,0,7.09Z"/><path class="cls-2" d="M406.06,257.83h51.07c4.56,0,4.57-7.1,0-7.1H406.06c-4.56,0-4.57,7.1,0,7.1Z"/><path class="cls-2" d="M305.66,205.42h76.6c4.57,0,4.58-7.09,0-7.09h-76.6c-4.56,0-4.57,7.09,0,7.09Z"/><path class="cls-2" d="M331.2,179.88h51.06c4.57,0,4.58-7.09,0-7.09H331.2c-4.57,0-4.57,7.09,0,7.09Z"/><path class="cls-2" d="M300.53,303.84h44.36c3.14,0,5.51.62,7.62,3.34,4.4,5.7,4.61,14.91,1.45,21.2-2.69,5.33-6.26,5.72-11.27,5.72H206.36l3.55,3.55c0-18.91,15.69-33.73,34.31-33.81,10.38,0,20.76,0,31.13,0,4.57,0,4.57-7.1,0-7.1H247.29c-13.84,0-26.68,4.25-35.55,15.45a41.07,41.07,0,0,0-8.92,25.46,3.59,3.59,0,0,0,3.54,3.54H343.55c1.06,0,2.12.05,3.18,0,5.34-.22,9.55-3.19,12.41-7.61C366,323,364.48,301,350,297.17c-2.89-.77-6.23-.43-9.19-.43H300.53c-4.56,0-4.57,7.1,0,7.1Z"/><path class="cls-2" d="M257.43,341.19H283a3.67,3.67,0,0,0,3.42-2.6l31.95-85.22a19.27,19.27,0,0,0,1.47-5,10.18,10.18,0,0,0-9.66-10.84c-6.72-.35-9.19,5.13-11.68,10.1l-23.72,47.44-20.38,40.77c-2,4.07,4.08,7.66,6.12,3.58l40.57-81.14c1.91-3.82,3.66-7.78,5.75-11.5a4.15,4.15,0,0,1,1.52-1.89,3.22,3.22,0,0,1,4.46,2.28c.16,1.12-.72,2.78-1.12,3.84l-16.55,44.14L279.55,336.7l3.42-2.6H257.43C252.87,334.1,252.86,341.19,257.43,341.19Z"/><path class="cls-2" d="M312.78,248.93V351.06a3.6,3.6,0,0,0,3.55,3.55H334c4.57,0,4.57-7.09,0-7.09h-17.7l3.54,3.54V248.93c0-4.56-7.09-4.57-7.09,0Z"/><path class="cls-2" d="M171.05,308.63l17.35,4.87c2.38.67,4.77,1.29,7.13,2a9.23,9.23,0,0,1-3.14,18.11,36.91,36.91,0,0,1-6.54-1.67c-6.42-1.81-12.85-3.57-19.26-5.41-4.4-1.27-7.65-5-7.25-9.77a9.33,9.33,0,0,1,11.71-8.13c4.43,1.11,6.32-5.73,1.88-6.84A16.3,16.3,0,0,0,156,327.89c2.8,3.42,6.59,4.88,10.68,6l12.58,3.53c3.09.87,6.18,1.8,9.29,2.61a16.32,16.32,0,0,0,18.78-23.7c-2.46-4.37-6.58-6.76-11.25-8.07l-23.14-6.5C168.53,300.55,166.65,307.39,171.05,308.63Z"/><path class="cls-2" d="M120.78,323.08c-2.18-5.79-4.44-11.57-6.56-17.39C110.1,294.34,115.36,281.27,127,277s25,2.05,28.68,14a22.26,22.26,0,0,1-13.19,27.21c-3.93,1.54-7.9,3-11.84,4.46-3.42,1.29-8.15,4.25-10.2-.41-1.84-4.17-8-.57-6.13,3.58,2.65,6,9,7.14,14.62,5l13.55-5.11c5.17-1.95,9.94-4.36,13.71-8.54a29.08,29.08,0,0,0-21-48.68c-15.38-.25-28.32,12-29.47,27.19-.44,6,1.48,11.24,3.53,16.67L114,325C115.54,329.2,122.4,327.37,120.78,323.08Z"/><path class="cls-2" d="M176.35,330.39l-28.21,15.39L144.06,348c-4,2.19-.43,8.31,3.58,6.13l28.21-15.39,4.08-2.22c4-2.19.43-8.32-3.58-6.13Z"/><path class="cls-2" d="M129.1,272.77c-3.49-9.23-8.8-18.76-16.15-25.44a26.88,26.88,0,0,0-10.15-6.05c-4.37-1.34-6.24,5.5-1.88,6.84.34.1.67.22,1,.33.76.27-.11-.09.43.17s1.3.64,1.93,1,1.25.79,1.85,1.22l.39.29c.44.33-.39-.32,0,0l.88.73a39,39,0,0,1,3.4,3.4c.48.55,1,1.1,1.41,1.67.14.18.28.35.41.53,0-.06-.28-.38,0-.06l.8,1.08a78,78,0,0,1,7.86,13.83c.19.42.37.85.56,1.27.31.71-.22-.54-.09-.2,0,.13.11.25.16.38l.34.85a3.64,3.64,0,0,0,4.36,2.48c1.72-.47,3.16-2.56,2.48-4.37Z"/><path class="cls-2" d="M117.19,283c-3.49-9.23-8.8-18.77-16.15-25.44a26.91,26.91,0,0,0-10.15-6.06c-4.37-1.34-6.24,5.51-1.88,6.84l1,.34c.76.26-.11-.1.43.16s1.3.64,1.93,1,1.25.79,1.85,1.22l.39.29c.44.33-.38-.32,0,0l.87.74a36.37,36.37,0,0,1,3.4,3.4c.48.54,1,1.1,1.41,1.67.14.17.28.34.41.52,0,0-.28-.37,0,0s.54.71.8,1.07a78,78,0,0,1,7.86,13.83l.56,1.28c.31.7-.22-.55-.09-.2.05.12.11.25.16.38l.34.84a3.64,3.64,0,0,0,4.36,2.48c1.72-.47,3.16-2.56,2.48-4.36Z"/></svg>