<?xml version="1.0" encoding="utf-8"?>
<!-- Generator: Adobe Illustrator 24.1.2, SVG Export Plug-In . SVG Version: 6.00 Build 0)  -->
<svg version="1.1" id="Layer_1" xmlns="http://www.w3.org/2000/svg" xmlns:xlink="http://www.w3.org/1999/xlink" x="0px" y="0px"
	 viewBox="0 0 594 500" style="enable-background:new 0 0 594 500;" xml:space="preserve">
<style type="text/css">
	.st0{fill:#FBE1A1;}
	.st1{fill:#502A6F;}
</style>
<path class="st0" d="M214,82.3L214,82.3c84.6,0,153.2,68.6,153.2,153.2v0c0,84.6-68.6,153.2-153.2,153.2h0
	c-84.6,0-153.2-68.6-153.2-153.2v0C60.8,150.8,129.4,82.3,214,82.3z"/>
<path class="st1" d="M95.6,359.6H70c-2,0-3.6,1.6-3.6,3.6c0,2,1.6,3.5,3.6,3.5h25.6c2,0,3.6-1.6,3.6-3.5
	C99.1,361.2,97.5,359.6,95.6,359.6z"/>
<path class="st1" d="M121.1,155.3H95.6c-2,0.1-3.5,1.8-3.4,3.7c0.1,1.8,1.5,3.3,3.4,3.4h25.5c2-0.1,3.5-1.8,3.4-3.7
	C124.4,156.9,122.9,155.4,121.1,155.3z"/>
<path class="st1" d="M95.6,392.2h102.1c4.6,0,4.6-7.1,0-7.1H95.6C91,385.1,91,392.2,95.6,392.2z"/>
<path class="st1" d="M223.2,392.2h51.1c4.6,0,4.6-7.1,0-7.1h-51.1C218.7,385.1,218.6,392.2,223.2,392.2z"/>
<path class="st1" d="M504.1,410.6H376.4c-4.6,0-4.6,7.1,0,7.1h127.7C508.7,417.7,508.7,410.6,504.1,410.6z"/>
<path class="st1" d="M350.9,410.6h-51.1c-4.6,0-4.6,7.1,0,7.1h51.1C355.5,417.7,355.5,410.6,350.9,410.6z"/>
<path class="st1" d="M274.3,410.6h-25.5c-2,0.1-3.5,1.8-3.4,3.7c0.1,1.8,1.5,3.3,3.4,3.4h25.5c2-0.1,3.5-1.8,3.4-3.7
	C277.6,412.2,276.1,410.7,274.3,410.6L274.3,410.6z"/>
<path class="st1" d="M504.1,366.7h25.5c2,0,3.6-1.6,3.6-3.5c0-2-1.6-3.6-3.6-3.6l0,0h-25.5c-2,0-3.6,1.6-3.6,3.6
	C500.5,365.1,502.1,366.7,504.1,366.7z"/>
<path class="st1" d="M274.3,162.4h25.5c2,0.1,3.6-1.4,3.7-3.4c0.1-2-1.4-3.6-3.4-3.7c-0.1,0-0.3,0-0.4,0h-25.5
	c-2-0.1-3.6,1.4-3.7,3.4c-0.1,2,1.4,3.6,3.4,3.7C274,162.4,274.2,162.4,274.3,162.4z"/>
<path class="st1" d="M427.5,366.7h51.1c4.6,0,4.6-7.1,0-7.1h-51.1C422.9,359.6,422.9,366.7,427.5,366.7z"/>
<path class="st1" d="M430.9,364.1c5.8-18.1,0.2-36.5,0.1-54.9c0-5.9-0.2-11.5-3.7-16.7c-4.6-6.8-11.2-8.8-19-9.5
	c-8-0.8-13.9-8.9-19.2-14.2c-5.8-5.8-11.5-11.6-17.4-17.4c-8.8-8.7-21.7-11.5-33.1-6.3c-7,3.2-12.4,9.9-17.7,15.3
	c-5.9,5.9-11.7,11.8-17.6,17.6c-3.8,3.7-8.6,5.9-14,4.8c-6.7-1.5-11.5-7.4-11.6-14.2c-0.4-15.2,0-30.5,0-45.8c0-4.6-7.1-4.6-7.1,0
	v43.6c0,10.7,5.6,20.8,16.8,23.2c7.2,1.6,14.8-0.6,20.1-5.8c1.6-1.5,3.2-3.2,4.7-4.7l19.6-19.5c1.7-1.7,3.3-3.5,5.2-5
	c5.6-4.6,13.1-6.1,20.1-4c7.5,2.2,12.9,9.2,18.2,14.5c6,6,12,12,18,18c4,4.1,9.4,6.6,15.1,7c4.7,0.3,8.9,1.3,12.1,5
	c2.4,2.9,3.6,6.7,3.5,10.5c0.1,8.7,0.8,17.2,1.8,25.8c1.1,10.4,1.6,20.7-1.6,30.8C422.7,366.5,429.5,368.3,430.9,364.1L430.9,364.1z
	"/>
<path class="st1" d="M299.8,366.7h76.6c4.6,0,4.6-7.1,0-7.1h-76.6C295.3,359.6,295.2,366.7,299.8,366.7z"/>
<path class="st1" d="M259.1,206.4h-14.7c-6.1,0-12.6-0.7-17.9,3.1c-7.3,5.4-8.8,15.7-3.5,23c1,1.3,2.1,2.5,3.5,3.5
	c2,1.5,4.4,2.4,6.8,2.8c2.4,0.4,4.8,0.1,7.1,1.4c3,1.7,4.8,4.8,4.8,8.2c0.8,21.2,0,42.5,0,63.7c0,4-0.1,8.1,0,12.1
	c0.1,9.4,6.8,16.6,16.3,17c4.6,0.2,4.5-6.9,0-7.1c-11.4-0.5-9.2-13.9-9.2-21.7v-35.6c0-9,0-18,0-27.1c0-4.7-1.2-9.1-4.5-12.6
	c-2.9-3-6.8-4.7-10.9-5c-5.6-0.5-10.6-3.6-10.1-9.9c0.7-9.2,9.9-8.6,16.6-8.6h15.7C263.6,213.5,263.6,206.4,259.1,206.4L259.1,206.4
	z"/>
<path class="st1" d="M361,335.8c-3.8-7.4-6.6-15.5-6.6-23.8c0-2-1.6-3.5-3.5-3.5c-2,0-3.6,1.6-3.6,3.5c0.1,9.6,3.2,18.9,7.6,27.3
	c0.9,1.7,3,2.4,4.8,1.5c1.7-0.9,2.4-3,1.5-4.8C361.2,336,361.1,335.9,361,335.8z"/>
<path class="st1" d="M427.5,315.6c0.8,0,1.6,0.1,2.4,0.2s-0.1,0-0.2,0l0.6,0.1c0.5,0.1,1,0.2,1.5,0.3c1.1,0.2,2.2,0.5,3.2,0.8
	c0.6,0.2,1.1,0.4,1.6,0.6c0.3,0.1,0.5,0.2,0.8,0.3c-0.4-0.4-0.6-0.3-0.1,0l0.5,0.2c1.2,0.6,2.4,1.2,3.6,2c0.3,0.2,0.6,0.4,0.9,0.6
	c-0.9-0.6,0.1,0.1,0.3,0.3c0.6,0.5,1.1,1,1.6,1.5c0.3,0.3,0.5,0.6,0.8,0.9s0.9,1.2,0.3,0.4c0.5,0.7,0.9,1.3,1.4,2
	c0.2,0.4,0.5,0.9,0.7,1.3l0.3,0.6c0.4,0.8-0.1-0.4,0.1,0.3c0.4,1,0.7,1.9,1,2.9c0.1,0.5,0.2,1.1,0.4,1.6c0,0.2,0.1,0.5,0.1,0.8
	s0.1,0.9,0,0.3c0.2,1.4,0.2,2.7,0.2,4.1c0.1,2,1.8,3.5,3.7,3.4c1.8-0.1,3.3-1.5,3.4-3.4c0-8.4-2.8-16.8-9.6-22.2
	c-4.5-3.5-9.8-5.7-15.4-6.5c-1.4-0.2-2.7-0.4-4.1-0.4c-2,0-3.6,1.6-3.6,3.5C423.9,314,425.5,315.6,427.5,315.6L427.5,315.6z"/>
<path class="st1" d="M262.5,210.9c0.5-2.7,0.9-5.3,1.4-8c0-0.1,0-0.3,0.1-0.4c0.1-0.1,0.2-0.5,0.2-0.8c0.2-0.8-0.4,0.6,0.1-0.1
	c0.1-0.2,0.3-0.4,0.4-0.7c0.4-0.7-0.5,0.5,0.1-0.1l0.5-0.5c0.5-0.5-0.6,0.3,0.1-0.1c0.2-0.1,0.4-0.3,0.6-0.4
	c0.2-0.1,0.9-0.3,0.1-0.1c0.5-0.2,0.9-0.3,1.4-0.4c-1,0.2,0.2,0,0.5,0s0.9,0.2,0,0l1,0.2c0.8,0.2-0.6-0.4,0,0l0.6,0.4
	c-0.7-0.4-0.2-0.2,0,0l0.5,0.5c-0.6-0.6,0,0,0.1,0.2c0,0,0.5,1,0.3,0.5c0.3,0.5,0.4,1.1,0.3,1.8c0,0.6,0,1.3,0,1.9v17.8
	c-0.1,2,1.4,3.6,3.4,3.7c2,0.1,3.6-1.4,3.7-3.4c0-0.1,0-0.3,0-0.4v-18.1c0-1.2,0-2.5-0.2-3.7c-0.5-3.2-2.6-6-5.5-7.5
	c-5.5-2.5-11.9,0-14.4,5.4c0,0,0,0.1-0.1,0.1c-0.6,1.7-1,3.5-1.2,5.2l-0.8,4.9c-0.3,1.8,0.5,3.9,2.5,4.4
	C259.8,213.7,262.1,212.8,262.5,210.9L262.5,210.9z"/>
<path class="st1" d="M277.8,235.5v-12.8c-0.1-2-1.8-3.5-3.7-3.4c-1.8,0.1-3.3,1.5-3.4,3.4v12.8c-0.1,2,1.4,3.6,3.4,3.7
	c2,0.1,3.6-1.4,3.7-3.4C277.8,235.7,277.8,235.6,277.8,235.5z"/>
<path class="st1" d="M146.6,366.7h246.2c11.4,0,22.9,0.5,34.2,0h0.5c4.6,0,4.6-7.1,0-7.1H181.3c-11.4,0-22.9-0.5-34.2,0h-0.5
	C142.1,359.6,142.1,366.7,146.6,366.7z"/>
<path class="st1" d="M95.6,315.6h76.6c4.6,0,4.6-7.1,0-7.1H95.6C91,308.5,91,315.6,95.6,315.6z"/>
<path class="st1" d="M146.6,290.1h76.6c4.6,0,4.6-7.1,0-7.1h-76.6C142.1,283,142.1,290.1,146.6,290.1z"/>
<path class="st1" d="M95.6,264.5h51.1c4.6,0,4.6-7.1,0-7.1H95.6C91,257.5,91,264.5,95.6,264.5z"/>
<path class="st1" d="M121.1,239h51.1c4.6,0,4.6-7.1,0-7.1h-51.1C116.5,231.9,116.5,239,121.1,239z"/>
<path class="st1" d="M146.6,162.4h76.6c4.6,0,4.6-7.1,0-7.1h-76.6C142.1,155.3,142.1,162.4,146.6,162.4z"/>
<path class="st1" d="M95.6,187.9h51.1c4.6,0,4.6-7.1,0-7.1H95.6C91,180.9,91,187.9,95.6,187.9z"/>
<path class="st1" d="M453,239h76.6c4.6,0,4.6-7.1,0-7.1H453C448.4,231.9,448.4,239,453,239z"/>
<path class="st1" d="M478.6,213.5h51.1c4.6,0,4.6-7.1,0-7.1h-51.1C474,206.4,474,213.5,478.6,213.5z"/>
<path class="st1" d="M504.1,180.9H453c-4.6,0-4.6,7.1,0,7.1h51.1C508.6,187.9,508.6,180.9,504.1,180.9L504.1,180.9z"/>
<path class="st1" d="M478.6,290.1h51.1c4.6,0,4.6-7.1,0-7.1h-51.1C474,283,474,290.1,478.6,290.1z"/>
<path class="st1" d="M376.4,162.4h51.1c4.6,0,4.6-7.1,0-7.1h-51.1C371.9,155.3,371.9,162.4,376.4,162.4z"/>
<path class="st1" d="M274.3,334c-8.5,0-16.9-0.1-25.4,0c-15.9,0.2-29.2,13-29.2,29.1c0,1.9,1.6,3.5,3.6,3.5h102.1
	c1.9,0,3.5-1.6,3.5-3.5c0.1-8.2,4.7-15.8,12-19.6c5.4-2.8,11.3-2.4,17.1-2.4c4.6,0,4.6-7.1,0-7.1c-7.8,0-15.4,0-22.3,4.3
	c-8.6,5.3-13.8,14.7-13.9,24.8l3.5-3.5H223.2l3.6,3.5c0-13.3,11-22,23.6-22h23.9C278.9,341.1,278.9,334,274.3,334L274.3,334z"/>
<path class="st1" d="M299.8,213.5h76.6c4.6,0,4.6-7.1,0-7.1h-76.6C295.3,206.4,295.2,213.5,299.8,213.5z"/>
<path class="st1" d="M325.4,187.9H402c4.6,0,4.6-7.1,0-7.1h-76.6C320.8,180.9,320.8,187.9,325.4,187.9L325.4,187.9z"/>
</svg>
