<?xml version="1.0" encoding="utf-8"?>
<!-- Generator: Adobe Illustrator 24.1.2, SVG Export Plug-In . SVG Version: 6.00 Build 0)  -->
<svg version="1.1" id="Layer_1" xmlns="http://www.w3.org/2000/svg" xmlns:xlink="http://www.w3.org/1999/xlink" x="0px" y="0px"
	 viewBox="0 0 594 500" style="enable-background:new 0 0 594 500;" xml:space="preserve">
<style type="text/css">
	.st0{fill:#FBE1A1;}
	.st1{fill:#502A6F;}
</style>
<path class="st0" d="M215.8,82.3L215.8,82.3c84.6,0,153.2,68.6,153.2,153.2v0c0,84.6-68.6,153.2-153.2,153.2h0
	c-84.6,0-153.2-68.6-153.2-153.2v0C62.6,150.8,131.2,82.3,215.8,82.3z"/>
<path class="st1" d="M148.4,308.5H97.3c-4.6,0-4.6,7.1,0,7.1h51.1C153,315.6,153,308.5,148.4,308.5z"/>
<path class="st1" d="M122.9,283H97.3c-2,0.1-3.5,1.8-3.4,3.7c0.1,1.8,1.5,3.3,3.4,3.4h25.5c2-0.1,3.5-1.8,3.4-3.7
	C126.1,284.5,124.7,283.1,122.9,283z"/>
<path class="st1" d="M454.8,187.9h51.1c4.6,0,4.6-7.1,0-7.1h-51.1C450.2,180.9,450.2,187.9,454.8,187.9z"/>
<path class="st1" d="M480.3,162.4h25.5c2-0.1,3.5-1.8,3.4-3.7c-0.1-1.8-1.5-3.3-3.4-3.4h-25.5c-2,0.1-3.5,1.8-3.4,3.7
	C477.1,160.9,478.5,162.3,480.3,162.4z"/>
<path class="st1" d="M97.3,239h76.6c4.6,0,4.6-7.1,0-7.1H97.3C92.8,231.9,92.8,239,97.3,239z"/>
<path class="st1" d="M122.9,213.5h76.6c4.6,0,4.6-7.1,0-7.1h-76.6C118.3,206.4,118.3,213.5,122.9,213.5z"/>
<path class="st1" d="M97.3,187.9h51.1c4.6,0,4.6-7.1,0-7.1H97.3C92.8,180.9,92.8,187.9,97.3,187.9z"/>
<path class="st1" d="M148.4,155.3H97.3c-4.6,0-4.6,7.1,0,7.1h51.1C153,162.4,153,155.3,148.4,155.3z"/>
<path class="st1" d="M429.3,264.5h76.6c4.6,0,4.6-7.1,0-7.1h-76.6C424.7,257.5,424.7,264.5,429.3,264.5z"/>
<path class="st1" d="M454.8,239h51.1c4.6,0,4.6-7.1,0-7.1h-51.1C450.2,231.9,450.2,239,454.8,239z"/>
<path class="st1" d="M454.8,315.6h51.1c4.6,0,4.6-7.1,0-7.1h-51.1C450.2,308.5,450.2,315.6,454.8,315.6z"/>
<path class="st1" d="M352.7,213.5h76.6c4.6,0,4.6-7.1,0-7.1h-76.6C348.1,206.4,348.1,213.5,352.7,213.5z"/>
<path class="st1" d="M378.2,187.9h51.1c4.6,0,4.6-7.1,0-7.1h-51.1C373.6,180.9,373.6,187.9,378.2,187.9z"/>
<path class="st1" d="M403.7,155.3h-51.1c-4.6,0-4.6,7.1,0,7.1h51.1C408.3,162.4,408.3,155.3,403.7,155.3z"/>
<path class="st1" d="M122.9,366.7h335.9c15.5,0,31,0.6,46.5,0h0.7c4.6,0,4.6-7.1,0-7.1H170c-15.4,0-31-0.6-46.5,0h-0.7
	C118.3,359.6,118.3,366.7,122.9,366.7L122.9,366.7z"/>
<path class="st1" d="M97.3,359.6H71.8c-2,0-3.6,1.6-3.6,3.6c0,2,1.6,3.5,3.6,3.5h25.5c2,0,3.6-1.6,3.6-3.5
	C100.9,361.2,99.3,359.6,97.3,359.6z"/>
<path class="st1" d="M97.3,392.2h102.1c4.6,0,4.6-7.1,0-7.1H97.3C92.8,385.1,92.8,392.2,97.3,392.2z"/>
<path class="st1" d="M225,392.2h76.6c4.6,0,4.6-7.1,0-7.1H225C220.4,385.1,220.4,392.2,225,392.2z"/>
<path class="st1" d="M505.9,410.6H378.2c-4.6,0-4.6,7.1,0,7.1h127.7C510.4,417.7,510.4,410.6,505.9,410.6z"/>
<path class="st1" d="M352.7,410.6h-51.1c-4.6,0-4.6,7.1,0,7.1h51.1C357.2,417.7,357.2,410.6,352.7,410.6z"/>
<path class="st1" d="M276.1,410.6h-25.5c-2-0.1-3.6,1.4-3.7,3.4c-0.1,2,1.4,3.6,3.4,3.7c0.1,0,0.3,0,0.4,0h25.5
	c2,0.1,3.6-1.4,3.7-3.4c0.1-2-1.4-3.6-3.4-3.7C276.3,410.6,276.2,410.6,276.1,410.6z"/>
<path class="st1" d="M151.8,364.1l18.6-46.6l4.2-10.4c1.4-3.5,2.1-7.2,3.3-10.7c2-5.5,6.8-6.3,11.9-6.3h14.7c3.7,0,7.8,0.4,11.4-0.4
	c7.4-1.7,12.3-8.4,12.6-15.9c0.2-5.1,0-10.3,0-15.4v-57.7c0-2-0.2-4.3,0.4-6.2c1-3.2,3.7-5.6,7-6.3c1.4-0.3,2.6-0.1,3.8-0.8
	c0.9-0.5,1.8-1.1,2.7-1.8c4.6-3.1,9.1-6.4,14.3-8.6c8.4-3.6,17.7-4.8,26.7-3.4c7.5,1.3,14.7,4.2,21,8.5l5.8,3.8
	c0.7,0.5,1.4,1,2.2,1.5c1.5,0.8,3.1,0.5,4.7,1c7.8,2.5,6.5,11.1,6.5,17.4v59.4c0,6.8-0.8,13.9,4.2,19.5c6.8,7.7,19.5,5.4,28.7,5.4
	c3.5,0,7.4-0.5,10.9,0.2c3.3,0.7,5.9,3.1,7,6.3c1,3.3,0.5,6.7,2.1,9.9c5.3,11,17.7,9.1,27.8,9.1c4,0,8.1-0.1,12.1,0
	c8.8,0.3,10.9,10.3,14.4,16.8c4.7,8.8,10.7,16.9,16.2,25.2l4.9,7.3c2.5,3.8,8.7,0.2,6.1-3.6L443.6,340c-2.9-4.3-5.6-8.8-8-13.4
	c-4-7.8-7-16.6-17-17.9c-3.9-0.5-7.9-0.2-11.8-0.2h-14.4c-5.9,0-10.2-3.1-10.7-9.2c-0.6-7.2-4.4-13.5-11.7-15.6
	c-3.7-1.1-7.9-0.7-11.7-0.7h-15.8c-4.9,0-9.8-1.1-11.5-6.5c-0.6-2-0.4-4.2-0.4-6.2v-58.9c0-5.5,0.7-11.6-0.3-17.1
	c-0.6-3.6-2.4-6.9-5.2-9.3c-1.3-1.2-2.9-2.2-4.5-2.9c-0.8-0.4-1.7-0.7-2.6-0.9c-0.5-0.1-4.1-0.9-2,0c-3.6-1.6-6.8-4.6-10.1-6.7
	c-15.3-9.6-34.3-11.3-51-4.6c-5.9,2.4-10.9,5.9-16.1,9.4c-0.7,0.5-1.5,0.9-2.2,1.5c-0.2,0.2-0.4,0.3-0.6,0.4
	c2.1-0.9-0.7-0.2-1.1-0.2c-3.9,0.7-7.4,2.8-9.9,5.9c-4.5,5.7-3.6,13-3.6,19.8v60.2c0,2.2,0.1,4.4,0,6.5c0.1,5.2-4.1,9.5-9.3,9.5
	c0,0,0,0-0.1,0c-8.3,0.3-16.7-0.2-25,0c-6.6,0.1-12.6,3.6-15.3,9.8c-1.7,3.8-2.2,8-3.8,11.9l-21,52.7l-2,4.9
	C143.2,366.4,150.1,368.3,151.8,364.1L151.8,364.1z"/>
<path class="st1" d="M298,209.9c0,12.7,0.6,25.6,0,38.3c0,2.7-1.3,5.3-3.3,7.1c-2.7,2.2-5.5,1.8-8.7,2.4c-6.1,1.1-11,5.5-12.8,11.4
	c-0.8,2.7-0.7,5.6-0.7,8.4v34.5c0,4.6,7.1,4.6,7.1,0c0-12.7-0.6-25.6,0-38.3c0-2.8,1.2-5.4,3.4-7.1c2.7-2.2,5.5-1.8,8.7-2.4
	c6.1-1.1,11-5.5,12.8-11.4c0.8-2.7,0.7-5.6,0.7-8.4v-34.5C305.1,205.4,298.1,205.3,298,209.9L298,209.9z"/>
<path class="st1" d="M221.4,312.1v25.5c0.1,2,1.8,3.5,3.7,3.4c1.8-0.1,3.3-1.5,3.4-3.4v-25.5c0.1-2-1.4-3.6-3.4-3.7
	c-2-0.1-3.6,1.4-3.7,3.4C221.4,311.8,221.4,311.9,221.4,312.1z"/>
<path class="st1" d="M254.1,312.1v-25.5c0.1-2-1.4-3.6-3.4-3.7c-2-0.1-3.6,1.4-3.7,3.4c0,0.1,0,0.3,0,0.4v25.5
	c-0.1,2,1.4,3.6,3.4,3.7c2,0.1,3.6-1.4,3.7-3.4C254.1,312.3,254.1,312.2,254.1,312.1z"/>
<path class="st1" d="M349.1,312.1v25.5c0.1,2,1.8,3.5,3.7,3.4c1.8-0.1,3.3-1.5,3.4-3.4v-25.5c0.1-2-1.4-3.6-3.4-3.7
	c-2-0.1-3.6,1.4-3.7,3.4C349.1,311.8,349.1,311.9,349.1,312.1z"/>
<path class="st1" d="M276.1,206.4c-16.1,0-29.1,13-29.1,29.1c-0.1,2,1.4,3.6,3.4,3.7c2,0.1,3.6-1.4,3.7-3.4c0-0.1,0-0.3,0-0.4
	c0-0.8,0-1.5,0.1-2.3c0-0.1,0.2-1.3,0.1-0.6c0.1-0.4,0.1-0.8,0.2-1.2c0.2-0.8,0.4-1.7,0.6-2.5c0.1-0.3,0.2-0.6,0.3-1
	c0-0.1,0.5-1.4,0.3-0.7c0.6-1.4,1.4-2.8,2.2-4.1c0.2-0.3,0.4-0.5,0.6-0.8s0.3-0.4,0.1-0.1c0.1-0.2,0.3-0.4,0.4-0.5
	c0.5-0.6,1-1.2,1.6-1.7s1.1-1.1,1.7-1.6l0.5-0.4c-0.2,0.2-0.3,0.2-0.1,0.1s0.6-0.4,1-0.7c1.3-0.9,2.7-1.6,4.1-2.2
	c-0.6,0.3,0.6-0.2,0.7-0.3l1-0.3c0.8-0.2,1.5-0.4,2.3-0.6c0.5-0.1,0.9-0.2,1.4-0.2c-0.7,0.1,0.3,0,0.4,0c0.8-0.1,1.7-0.1,2.5-0.1
	c2,0.1,3.6-1.4,3.7-3.4c0.1-2-1.4-3.6-3.4-3.7C276.3,206.4,276.2,206.4,276.1,206.4L276.1,206.4z"/>
</svg>
