<svg id="Layer_1" data-name="Layer 1" xmlns="http://www.w3.org/2000/svg" viewBox="0 0 500 500"><defs><style>.cls-1{fill:#fbe1a1;}.cls-2{fill:#502a6f;}</style></defs><rect class="cls-1" x="13.83" y="88.97" width="306.41" height="306.41" rx="153.2"/><path class="cls-2" d="M150,356.41v-26.5a3.59,3.59,0,0,0-3.54-3.54h-13c-3.52,0-9.67,1.31-10-3.62a72.91,72.91,0,0,1,0-12.71c.56-4.33,5.71-3.69,6.16.32a57.56,57.56,0,0,1,0,6.3,3.6,3.6,0,0,0,3.55,3.55H146.5a3.59,3.59,0,0,0,3.54-3.55V282.18c0-5.7,0-11.41,0-17.11,0-2.6.29-5,1.94-7.21a9.76,9.76,0,0,1,13.57-2c5.87,4.44,3.9,14.57,3.9,21a3.6,3.6,0,0,0,3.55,3.55h13.25a3.6,3.6,0,0,0,3.55-3.55,50.93,50.93,0,0,1,0-6.3c.49-4,5.57-4.65,6.15-.32.55,4,.22,8.68,0,12.71-.26,4.95-6.43,3.62-9.94,3.62H173a3.59,3.59,0,0,0-3.55,3.54v66.25c0,4.57,7.1,4.58,7.1,0V290.16L173,293.71h13.67c5.43,0,11.49.63,14.82-4.78,2.72-4.39,1.56-11.26,1.56-16.17,0-2.6,0-5.12-1.33-7.46a10.15,10.15,0,0,0-19,4.5c-.17,2.35,0,4.75,0,7.11l3.55-3.54H173l3.55,3.54c0-7.08,1.39-16-2.62-22.25-6.94-10.81-23.61-10-29.26,1.63-2.47,5.07-1.72,11.38-1.72,16.87v43.5l3.55-3.54H133.25l3.54,3.54c0-5.93.64-12.46-5.58-15.69-7.28-3.78-14.61,2.3-14.76,9.75-.09,4.64-.68,9.91.2,14.49,1.36,7.1,7.74,8.25,13.75,8.25h16.1L143,329.91v26.5c0,4.57,7.09,4.58,7.09,0Z"/><path class="cls-2" d="M68.93,235.17h76.6c4.56,0,4.57-7.09,0-7.09H68.93c-4.56,0-4.57,7.09,0,7.09Z"/><path class="cls-2" d="M94.46,209.64h76.6c4.57,0,4.58-7.1,0-7.1H94.46c-4.56,0-4.57,7.1,0,7.1Z"/><path class="cls-2" d="M68.93,184.1H120c4.56,0,4.57-7.09,0-7.09H68.93c-4.56,0-4.57,7.09,0,7.09Z"/><path class="cls-2" d="M171.06,184.1H196.6a3.55,3.55,0,0,0,0-7.09H171.06a3.55,3.55,0,0,0,0,7.09Z"/><path class="cls-2" d="M94.46,151.48H43.4c-4.57,0-4.58,7.09,0,7.09H94.46c4.57,0,4.57-7.09,0-7.09Z"/><path class="cls-2" d="M48.55,352.87H23A3.55,3.55,0,1,0,23,360H48.55a3.55,3.55,0,1,0,0-7.09Z"/><path class="cls-2" d="M48.55,385.49H150.69c4.56,0,4.57-7.09,0-7.09H48.55c-4.56,0-4.57,7.09,0,7.09Z"/><path class="cls-2" d="M176.22,385.49h51.07c4.56,0,4.57-7.09,0-7.09H176.22c-4.56,0-4.57,7.09,0,7.09Z"/><path class="cls-2" d="M457.09,403.94H329.42c-4.56,0-4.57,7.09,0,7.09H457.09c4.57,0,4.57-7.09,0-7.09Z"/><path class="cls-2" d="M303.89,403.94H252.82c-4.56,0-4.57,7.09,0,7.09h51.07c4.56,0,4.57-7.09,0-7.09Z"/><path class="cls-2" d="M227.29,403.94H201.75a3.55,3.55,0,0,0,0,7.09h25.54a3.55,3.55,0,0,0,0-7.09Z"/><path class="cls-2" d="M457.09,360h25.54a3.55,3.55,0,0,0,0-7.09H457.09a3.55,3.55,0,0,0,0,7.09Z"/><path class="cls-2" d="M380.49,360h51.07c4.56,0,4.57-7.09,0-7.09H380.49c-4.56,0-4.57,7.09,0,7.09Z"/><path class="cls-2" d="M252.82,360h76.6c4.57,0,4.57-7.09,0-7.09h-76.6c-4.56,0-4.57,7.09,0,7.09Z"/><path class="cls-2" d="M99.62,360H345.78c11.36,0,22.86.5,34.22,0h.49c4.56,0,4.57-7.09,0-7.09H134.33c-11.36,0-22.86-.5-34.22,0h-.49c-4.56,0-4.57,7.09,0,7.09Z"/><path class="cls-2" d="M410.71,181.22h51.07c4.57,0,4.57-7.09,0-7.09H410.71c-4.56,0-4.57,7.09,0,7.09Z"/><path class="cls-2" d="M436.25,155.69h25.53a3.55,3.55,0,1,0,0-7.09H436.25a3.55,3.55,0,1,0,0,7.09Z"/><path class="cls-2" d="M410.71,232.29h51.07c4.57,0,4.57-7.09,0-7.09H410.71c-4.56,0-4.57,7.09,0,7.09Z"/><path class="cls-2" d="M310.32,179.88h76.6c4.56,0,4.57-7.09,0-7.09h-76.6c-4.57,0-4.57,7.09,0,7.09Z"/><path class="cls-2" d="M335.85,154.35h51.07c4.56,0,4.57-7.09,0-7.09H335.85c-4.56,0-4.57,7.09,0,7.09Z"/><path class="cls-2" d="M214.52,232.29h51.07c4.56,0,4.57-7.09,0-7.09H214.52c-4.56,0-4.57,7.09,0,7.09Z"/><path class="cls-2" d="M240.05,206.76h25.54a3.55,3.55,0,1,0,0-7.09H240.05a3.55,3.55,0,0,0,0,7.09Z"/><path class="cls-2" d="M176.22,155.69h76.6c4.57,0,4.57-7.09,0-7.09h-76.6c-4.56,0-4.57,7.09,0,7.09Z"/><path class="cls-2" d="M245.21,178.35h25.53a3.55,3.55,0,0,0,0-7.1H245.21a3.55,3.55,0,0,0,0,7.1Z"/><path class="cls-2" d="M410.19,351.17l-25.92-50.66L343,219.84l-9.42-18.42a3.58,3.58,0,0,0-6.13,0c-8.89,17.19-18.7,34-28.87,50.43-17.75,28.73-36.95,58-61.59,81.38-9.12,8.65-21.27,19-34.14,19.64-4.55.21-4.57,7.3,0,7.09,12.58-.59,23.72-8.35,33-16.2,12.69-10.73,23.49-23.62,33.6-36.73,20.13-26.11,37.59-54.3,53.74-83,3.54-6.29,7-12.61,10.37-19h-6.13l25.92,50.66,41.26,80.67,9.42,18.42c2.08,4.06,8.2.48,6.13-3.58Z"/><path class="cls-2" d="M326.4,202.27a179.21,179.21,0,0,0-2.32,22.65c-.64,14.24-.05,29.1,4.23,42.79a52.28,52.28,0,0,0,9.48,18.16c4.16,5,7.47,9.75,7.74,16.47.5,12.22-6.92,23.89-14.27,33.06a126.36,126.36,0,0,1-18.05,18.51c-3.53,2.89,1.51,7.88,5,5a124.84,124.84,0,0,0,15.22-15.11c8.29-9.61,16.38-21,18.59-33.81a32.26,32.26,0,0,0-1.92-18.65c-2.73-6.26-8.1-10.62-11.3-16.61C332,261.93,330.88,246.28,331,232a175.63,175.63,0,0,1,2.25-27.87c.79-4.46-6.05-6.38-6.83-1.88Z"/></svg>