<?xml version="1.0" encoding="utf-8"?>
<!-- Generator: Adobe Illustrator 24.2.1, SVG Export Plug-In . SVG Version: 6.00 Build 0)  -->
<svg version="1.1" id="Layer_1" xmlns="http://www.w3.org/2000/svg" xmlns:xlink="http://www.w3.org/1999/xlink" x="0px" y="0px"
	 viewBox="0 0 52.2 52.2" style="enable-background:new 0 0 52.2 52.2;" xml:space="preserve">
<style type="text/css">
	.st0{fill:#69A8AA;}
	.st1{fill:none;}
</style>
<g id="Layer_2_1_">
	<g id="Layer_2-2">
		<path class="st0" d="M39.4,7.2c-8.8,0-17.6,0-26.4,0c-3.6,0-6.7,2.5-7.5,6c-0.2,1.5-0.3,3-0.2,4.5v23.1c-0.1,3.1,1.6,5.9,4.4,7.2
			c1.7,0.8,3.5,0.7,5.3,0.7h23.5c2.8,0,5.3-0.9,6.9-3.2c1.3-1.8,1.3-3.8,1.3-5.9V16.1c0-2.4-0.3-4.6-2-6.4
			C43.4,8.1,41.4,7.3,39.4,7.2c-1.5,0-1.5,2.4,0,2.4c3.1,0.1,5.1,2.5,5.1,5.5c0,1.7,0,3.4,0,5.1V37c0,1.4,0,2.8,0,4.2
			c0,2.9-2.3,5.2-5.2,5.1c0,0,0,0,0,0c-4.3,0.1-8.6,0-12.8,0c-4.4,0-8.9,0-13.3,0c-2.9,0.1-5.3-2.2-5.3-5c0,0,0-0.1,0-0.1
			c0-1.3,0-2.5,0-3.8V15.3c0-2.7,1.5-5.2,4.3-5.6c1.3-0.1,2.5-0.2,3.8-0.1h23.5c0.7,0,1.2-0.5,1.2-1.2S40,7.2,39.4,7.2z"/>
		<path class="st0" d="M26.1,18.9c-5,0-9.1,4.1-9.1,9.1c0,2.7,1.2,5.2,3.2,6.9c3.8,3.3,9.6,2.8,12.8-1c1.8-2.1,2.5-4.9,2-7.6
			C34.3,22.1,30.5,18.9,26.1,18.9c-0.7,0-1.2,0.5-1.2,1.2c0,0.7,0.5,1.2,1.2,1.2c3.7,0,6.7,3,6.7,6.7c0,3.7-3,6.7-6.7,6.7
			c-3.7,0-6.7-3-6.7-6.7c0-0.4,0-0.9,0.1-1.3c0.6-3.1,3.4-5.4,6.6-5.4c0.7,0,1.2-0.5,1.2-1.2C27.3,19.4,26.8,18.9,26.1,18.9z"/>
		<path class="st0" d="M37.7,12.9c-0.2,0-0.5,0-0.7,0.1c-0.2,0.1-0.4,0.2-0.6,0.3c-0.2,0.2-0.4,0.3-0.6,0.6
			c-0.2,0.2-0.3,0.5-0.4,0.7c-0.1,0.2-0.1,0.5-0.1,0.7c0,0.2,0,0.5,0.1,0.7c0.1,0.2,0.2,0.4,0.3,0.6c0.1,0.2,0.3,0.4,0.4,0.5
			c0.2,0.2,0.5,0.4,0.8,0.5c0.2,0.1,0.5,0.1,0.7,0.1c0.5,0,0.9-0.1,1.4-0.3c0.2-0.1,0.4-0.3,0.5-0.4c0.2-0.2,0.3-0.3,0.4-0.5
			c0.1-0.3,0.2-0.6,0.3-1c0-0.2,0-0.5,0-0.7c0-0.3-0.1-0.5-0.3-0.7c-0.1-0.2-0.3-0.4-0.5-0.6C38.9,13.2,38.3,12.9,37.7,12.9
			c-0.7,0-1.2,0.5-1.2,1.2l0,0c0,0.3,0.1,0.6,0.3,0.8c0.2,0.2,0.5,0.3,0.8,0.3h0.2l-0.3,0c0.1,0,0.2,0,0.3,0.1l-0.3-0.1
			c0.1,0,0.2,0.1,0.3,0.2l-0.2-0.2c0.1,0.1,0.1,0.1,0.2,0.2l-0.2-0.2c0.1,0.1,0.1,0.2,0.2,0.3l-0.1-0.3c0,0.1,0.1,0.2,0.1,0.3l0-0.3
			c0,0.1,0,0.2,0,0.3l0-0.3c0,0.1,0,0.2-0.1,0.3l0.1-0.3c0,0.1-0.1,0.2-0.2,0.3l0.2-0.2c-0.1,0.1-0.1,0.1-0.2,0.2l0.2-0.2
			c-0.1,0.1-0.2,0.1-0.3,0.2l0.3-0.1c-0.1,0-0.2,0.1-0.3,0.1l0.3,0h-0.3l0.3,0c-0.1,0-0.2,0-0.3-0.1l0.3,0.1c-0.1,0-0.2-0.1-0.3-0.2
			l0.2,0.2c-0.1-0.1-0.2-0.1-0.2-0.2l0.2,0.2c-0.1-0.1-0.1-0.2-0.2-0.3l0.1,0.3c0-0.1-0.1-0.2-0.1-0.3l0,0.3c0-0.1,0-0.2,0-0.3
			l0,0.3c0-0.1,0-0.2,0.1-0.3l-0.1,0.3c0-0.1,0.1-0.2,0.2-0.3l-0.2,0.2c0.1-0.1,0.1-0.1,0.2-0.2l-0.2,0.2c0.1-0.1,0.2-0.1,0.3-0.2
			l-0.3,0.1c0.1,0,0.2-0.1,0.3-0.1l-0.3,0h0.2c0.3,0,0.6-0.1,0.9-0.3c0.5-0.5,0.4-1.2,0-1.7C38.3,13.1,38,12.9,37.7,12.9L37.7,12.9z
			"/>
	</g>
</g>
<rect x="0" class="st1" width="52.2" height="52.2"/>
</svg>
