<svg xmlns="http://www.w3.org/2000/svg" viewBox="0 0 59.88 44.88"><defs><style>.cls-1{fill:#69a8aa;}</style></defs><g id="Layer_2" data-name="Layer 2"><g id="Layer_2-2" data-name="Layer 2"><g id="Frame"><path class="cls-1" d="M1.5,3H58.38l-1.5-1.5V43.38l1.5-1.5H1.5L3,43.38V1.5a1.5,1.5,0,0,0-3,0V43.38a1.52,1.52,0,0,0,1.5,1.5H58.38a1.52,1.52,0,0,0,1.5-1.5V1.5A1.52,1.52,0,0,0,58.38,0H1.5A1.5,1.5,0,0,0,1.5,3Z"/></g><g id="HhhB2F.tif"><path class="cls-1" d="M26.5,21.28l.28.1a5.29,5.29,0,0,1,3.69,5c.16,3.57-1.84,6-5.51,6.71a12.67,12.67,0,0,1-2.52.25c-3.34,0-6.68,0-10,0-.43,0-.51-.13-.51-.54q0-10.58,0-21.17c0-.37.07-.49.47-.49,3.38,0,6.76,0,10.14,0a10.55,10.55,0,0,1,3.86.61,4.5,4.5,0,0,1,3,4.23,7.25,7.25,0,0,1-.06,1.74,4.32,4.32,0,0,1-1.79,2.84C27.24,20.83,26.89,21,26.5,21.28Zm-6.57,8.26H22a5.62,5.62,0,0,0,1.68-.22,2.52,2.52,0,0,0,1.72-1.49A3,3,0,0,0,23,23.52a4,4,0,0,0-.69-.06H17.14c-.28,0-.34.1-.34.35,0,1.8,0,3.59,0,5.38,0,.28.08.37.37.37C18.09,29.53,19,29.54,19.93,29.54Zm-.28-9.45h2.14a3.75,3.75,0,0,0,1.74-.38,2.34,2.34,0,0,0,1.18-2.43,2.09,2.09,0,0,0-1.33-2,4.42,4.42,0,0,0-1.79-.34H17.17c-.27,0-.38.05-.38.35,0,1.49,0,3,0,4.46,0,.32.13.38.41.37C18,20.08,18.83,20.09,19.65,20.09Z"/><path class="cls-1" d="M42.15,26.36c-1.8,0-3.59,0-5.38,0-.37,0-.47.11-.4.45s.07.52.13.77a3.28,3.28,0,0,0,3.24,2.83,3.77,3.77,0,0,0,4-1.9c.08-.15.19-.15.32-.15h3.28c.28,0,.31.08.23.34a7,7,0,0,1-6.56,5,9.78,9.78,0,0,1-4.09-.51,7.43,7.43,0,0,1-4.85-6.26,9,9,0,0,1,.61-5.31,7.69,7.69,0,0,1,7-4.78,7.24,7.24,0,0,1,6.08,2.3A8.67,8.67,0,0,1,47.88,24a16,16,0,0,1,.1,2c0,.31-.11.38-.41.38ZM40,23.58h3.23c.16,0,.37.06.33-.24A3.55,3.55,0,0,0,42,20.64a3.7,3.7,0,0,0-5.62,2.55c0,.31,0,.4.32.39C37.79,23.56,38.87,23.58,40,23.58Z"/><path class="cls-1" d="M40,14.83H35.84c-.31,0-.41-.08-.39-.38a14.81,14.81,0,0,0,0-1.49c0-.24.06-.33.31-.32h8.4c.22,0,.31.06.3.29,0,.5,0,1,0,1.49,0,.32-.08.42-.41.41C42.69,14.82,41.32,14.83,40,14.83Z"/></g></g></g></svg>