<svg id="Layer_1" data-name="Layer 1" xmlns="http://www.w3.org/2000/svg" viewBox="0 0 500 500"><defs><style>.cls-1{fill:#e8e7df;}.cls-2{fill:#825b2b;}.cls-3{fill:#d59f5e;}.cls-4{fill:#73b3a9;}</style></defs><path class="cls-1" d="M374.64,98.47l-76-43.89a25.77,25.77,0,0,0-25.85,0L125.36,140.17a4.43,4.43,0,0,0-2.22,3.84V281.53a25.86,25.86,0,0,0,12.71,22.22l9.94,5.87v34.89a15.73,15.73,0,0,0-13.54,15.54v45a15.7,15.7,0,0,0,15.69,15.69h15A15.71,15.71,0,0,0,178.62,405v-45a15.73,15.73,0,0,0-13.53-15.54V321l31,18.29v33.4A15.7,15.7,0,0,0,182.6,388.2v45a15.69,15.69,0,0,0,15.68,15.69h15a15.71,15.71,0,0,0,15.67-15.69v-45a15.69,15.69,0,0,0-13.52-15.54V348.29l.22-.12,32-18.19c14-8,25-26.88,25-43.07v-22l76.92-44.18a54.55,54.55,0,0,0,27.31-47.19V102.32A4.44,4.44,0,0,0,374.64,98.47ZM268.18,286.91c0,14.49-10.22,32.09-22.75,39.21l-31.24,17.77-.74.41-.75-.43-1-.59-.74-.43V377h2.3A11.24,11.24,0,0,1,224.5,388.2v45a11.23,11.23,0,0,1-11.23,11.24h-15a11.23,11.23,0,0,1-11.23-11.24v-45A11.24,11.24,0,0,1,198.28,377h2.28V336.72l-.64-.37-38.55-22.73-.72-.43V348.8h2.28a11.24,11.24,0,0,1,11.24,11.25v45a11.22,11.22,0,0,1-11.24,11.24h-15A11.23,11.23,0,0,1,136.69,405v-45a11.24,11.24,0,0,1,11.25-11.25h2.29V307.07l-.63-.37-11.5-6.77a21.34,21.34,0,0,1-10.52-18.4V144l.73-.43L275,58.44a21.52,21.52,0,0,1,10.73-2.87,21.3,21.3,0,0,1,10.68,2.86l75.26,43.46.74.43v71.19a50,50,0,0,1-25.08,43.34L268.18,262.3Z"/><path class="cls-1" d="M261.24,245.59l-5.32-3.06a.7.7,0,0,0-.74,0L242,250.14a.78.78,0,0,0-.37.65v10.15a.76.76,0,0,0,.37.65l5.32,3.07a.76.76,0,0,0,.37.1.86.86,0,0,0,.37-.1l13.2-7.62a.76.76,0,0,0,.37-.65V246.24A.79.79,0,0,0,261.24,245.59ZM260.13,256l-11.72,6.77v-8.44l11.72-6.77Z"/><path class="cls-1" d="M290.29,228.9a.41.41,0,0,0-.15-.14l-.09,0-5.23-3a.7.7,0,0,0-.74,0l-13.2,7.63a.72.72,0,0,0-.37.63v10.17a.76.76,0,0,0,.37.63l5.32,3.07a.73.73,0,0,0,.74,0l13.2-7.61a.79.79,0,0,0,.37-.66V229.42A.73.73,0,0,0,290.29,228.9ZM289,239.15l-11.72,6.75v-8.44L289,230.69Z"/><path class="cls-1" d="M339.35,142.87a9.76,9.76,0,0,0-9.83,0l-80.16,45.87a15.47,15.47,0,0,0-7.75,13.37A15.44,15.44,0,0,0,257,217.5a15.45,15.45,0,0,0,7.71-2.08l79.17-45.71a.76.76,0,0,0,.37-.65V151.39A9.75,9.75,0,0,0,339.35,142.87Zm-9.09,1.26a8.36,8.36,0,0,1,4.15-1.11,8.41,8.41,0,0,1,8.37,8.37v16.4L316,152.31Z"/><path class="cls-1" d="M351.92,191.77l-7.56-4.37a.75.75,0,0,0-.74,0l-43.36,25.07a.7.7,0,0,0-.37.63v14.46a.72.72,0,0,0,.37.64l7.57,4.37a.75.75,0,0,0,.37.09.84.84,0,0,0,.37-.09l43.35-25.07a.72.72,0,0,0,.37-.63V192.41A.76.76,0,0,0,351.92,191.77Zm-1.11,14.67-41.87,24.21V217.9l41.87-24.2Z"/><path class="cls-1" d="M193.67,429.41v-36A9.68,9.68,0,0,1,198.5,385l-.74-1.29a11.19,11.19,0,0,0-5.57,9.66v36a11.19,11.19,0,0,0,5.57,9.66l.74-1.29A9.68,9.68,0,0,1,193.67,429.41Zm7.09-45v54.06h1.49V384.37Zm8.85,0v54.06h1.48V384.37Zm4.49-.65-.74,1.29a9.7,9.7,0,0,1,4.83,8.37v36a9.7,9.7,0,0,1-4.83,8.37l.74,1.29a11.21,11.21,0,0,0,5.57-9.66v-36A11.21,11.21,0,0,0,214.1,383.72Zm0,0-.74,1.29a9.7,9.7,0,0,1,4.83,8.37v36a9.7,9.7,0,0,1-4.83,8.37l.74,1.29a11.21,11.21,0,0,0,5.57-9.66v-36A11.21,11.21,0,0,0,214.1,383.72Zm-4.49.65v54.06h1.48V384.37Zm-8.85,0v54.06h1.49V384.37Zm-7.09,45v-36A9.68,9.68,0,0,1,198.5,385l-.74-1.29a11.19,11.19,0,0,0-5.57,9.66v36a11.19,11.19,0,0,0,5.57,9.66l.74-1.29A9.68,9.68,0,0,1,193.67,429.41Zm-50.34-28.15v-36a9.68,9.68,0,0,1,4.83-8.37l-.74-1.29a11.19,11.19,0,0,0-5.57,9.66v36a11.17,11.17,0,0,0,5.57,9.66l.74-1.29A9.68,9.68,0,0,1,143.33,401.26Zm7.09-45v54h1.49v-54Zm8.85,0v54h1.48v-54Zm4.49-.66-.74,1.29a9.7,9.7,0,0,1,4.83,8.37v36a9.7,9.7,0,0,1-4.83,8.37l.74,1.29a11.2,11.2,0,0,0,5.57-9.66v-36A11.21,11.21,0,0,0,163.76,355.57Zm29.91,73.84v-36A9.68,9.68,0,0,1,198.5,385l-.74-1.29a11.19,11.19,0,0,0-5.57,9.66v36a11.19,11.19,0,0,0,5.57,9.66l.74-1.29A9.68,9.68,0,0,1,193.67,429.41Zm7.09-45v54.06h1.49V384.37Zm8.85,0v54.06h1.48V384.37Zm4.49-.65-.74,1.29a9.7,9.7,0,0,1,4.83,8.37v36a9.7,9.7,0,0,1-4.83,8.37l.74,1.29a11.21,11.21,0,0,0,5.57-9.66v-36A11.21,11.21,0,0,0,214.1,383.72Zm-50.34-28.15-.74,1.29a9.7,9.7,0,0,1,4.83,8.37v36a9.7,9.7,0,0,1-4.83,8.37l.74,1.29a11.2,11.2,0,0,0,5.57-9.66v-36A11.21,11.21,0,0,0,163.76,355.57Zm-4.49.66v54h1.48v-54Zm-8.85,0v54h1.49v-54Zm-7.09,45v-36a9.68,9.68,0,0,1,4.83-8.37l-.74-1.29a11.19,11.19,0,0,0-5.57,9.66v36a11.17,11.17,0,0,0,5.57,9.66l.74-1.29A9.68,9.68,0,0,1,143.33,401.26Zm70.77-17.54-.74,1.29a9.7,9.7,0,0,1,4.83,8.37v36a9.7,9.7,0,0,1-4.83,8.37l.74,1.29a11.21,11.21,0,0,0,5.57-9.66v-36A11.21,11.21,0,0,0,214.1,383.72Zm-4.49.65v54.06h1.48V384.37Zm-8.85,0v54.06h1.49V384.37Zm-7.09,45v-36A9.68,9.68,0,0,1,198.5,385l-.74-1.29a11.19,11.19,0,0,0-5.57,9.66v36a11.19,11.19,0,0,0,5.57,9.66l.74-1.29A9.68,9.68,0,0,1,193.67,429.41Zm-50.34-28.15v-36a9.68,9.68,0,0,1,4.83-8.37l-.74-1.29a11.19,11.19,0,0,0-5.57,9.66v36a11.17,11.17,0,0,0,5.57,9.66l.74-1.29A9.68,9.68,0,0,1,143.33,401.26Zm7.09-45v54h1.49v-54Zm8.85,0v54h1.48v-54Zm4.49-.66-.74,1.29a9.7,9.7,0,0,1,4.83,8.37v36a9.7,9.7,0,0,1-4.83,8.37l.74,1.29a11.2,11.2,0,0,0,5.57-9.66v-36A11.21,11.21,0,0,0,163.76,355.57Zm29.91,73.84v-36A9.68,9.68,0,0,1,198.5,385l-.74-1.29a11.19,11.19,0,0,0-5.57,9.66v36a11.19,11.19,0,0,0,5.57,9.66l.74-1.29A9.68,9.68,0,0,1,193.67,429.41Zm7.09-45v54.06h1.49V384.37Zm8.85,0v54.06h1.48V384.37Zm4.49-.65-.74,1.29a9.7,9.7,0,0,1,4.83,8.37v36a9.7,9.7,0,0,1-4.83,8.37l.74,1.29a11.21,11.21,0,0,0,5.57-9.66v-36A11.21,11.21,0,0,0,214.1,383.72Zm-50.34-28.15-.74,1.29a9.7,9.7,0,0,1,4.83,8.37v36a9.7,9.7,0,0,1-4.83,8.37l.74,1.29a11.2,11.2,0,0,0,5.57-9.66v-36A11.21,11.21,0,0,0,163.76,355.57Zm-4.49.66v54h1.48v-54Zm-8.85,0v54h1.49v-54Zm-7.09,45v-36a9.68,9.68,0,0,1,4.83-8.37l-.74-1.29a11.19,11.19,0,0,0-5.57,9.66v36a11.17,11.17,0,0,0,5.57,9.66l.74-1.29A9.68,9.68,0,0,1,143.33,401.26Zm70.77-17.54-.74,1.29a9.7,9.7,0,0,1,4.83,8.37v36a9.7,9.7,0,0,1-4.83,8.37l.74,1.29a11.21,11.21,0,0,0,5.57-9.66v-36A11.21,11.21,0,0,0,214.1,383.72Zm-4.49.65v54.06h1.48V384.37Zm-8.85,0v54.06h1.49V384.37Zm-7.09,45v-36A9.68,9.68,0,0,1,198.5,385l-.74-1.29a11.19,11.19,0,0,0-5.57,9.66v36a11.19,11.19,0,0,0,5.57,9.66l.74-1.29A9.68,9.68,0,0,1,193.67,429.41Zm-50.34-28.15v-36a9.68,9.68,0,0,1,4.83-8.37l-.74-1.29a11.19,11.19,0,0,0-5.57,9.66v36a11.17,11.17,0,0,0,5.57,9.66l.74-1.29A9.68,9.68,0,0,1,143.33,401.26Zm7.09-45v54h1.49v-54Zm8.85,0v54h1.48v-54Zm4.49-.66-.74,1.29a9.7,9.7,0,0,1,4.83,8.37v36a9.7,9.7,0,0,1-4.83,8.37l.74,1.29a11.2,11.2,0,0,0,5.57-9.66v-36A11.21,11.21,0,0,0,163.76,355.57Zm29.91,73.84v-36A9.68,9.68,0,0,1,198.5,385l-.74-1.29a11.19,11.19,0,0,0-5.57,9.66v36a11.19,11.19,0,0,0,5.57,9.66l.74-1.29A9.68,9.68,0,0,1,193.67,429.41Zm7.09-45v54.06h1.49V384.37Zm8.85,0v54.06h1.48V384.37Zm4.49-.65-.74,1.29a9.7,9.7,0,0,1,4.83,8.37v36a9.7,9.7,0,0,1-4.83,8.37l.74,1.29a11.21,11.21,0,0,0,5.57-9.66v-36A11.21,11.21,0,0,0,214.1,383.72Zm-50.34-28.15-.74,1.29a9.7,9.7,0,0,1,4.83,8.37v36a9.7,9.7,0,0,1-4.83,8.37l.74,1.29a11.2,11.2,0,0,0,5.57-9.66v-36A11.21,11.21,0,0,0,163.76,355.57Zm-4.49.66v54h1.48v-54Zm-8.85,0v54h1.49v-54Zm-7.09,45v-36a9.68,9.68,0,0,1,4.83-8.37l-.74-1.29a11.19,11.19,0,0,0-5.57,9.66v36a11.17,11.17,0,0,0,5.57,9.66l.74-1.29A9.68,9.68,0,0,1,143.33,401.26Zm70.77-17.54-.74,1.29a9.7,9.7,0,0,1,4.83,8.37v36a9.7,9.7,0,0,1-4.83,8.37l.74,1.29a11.21,11.21,0,0,0,5.57-9.66v-36A11.21,11.21,0,0,0,214.1,383.72Zm-4.49.65v54.06h1.48V384.37Zm-8.85,0v54.06h1.49V384.37Zm-7.09,45v-36A9.68,9.68,0,0,1,198.5,385l-.74-1.29a11.19,11.19,0,0,0-5.57,9.66v36a11.19,11.19,0,0,0,5.57,9.66l.74-1.29A9.68,9.68,0,0,1,193.67,429.41Zm-50.34-28.15v-36a9.68,9.68,0,0,1,4.83-8.37l-.74-1.29a11.19,11.19,0,0,0-5.57,9.66v36a11.17,11.17,0,0,0,5.57,9.66l.74-1.29A9.68,9.68,0,0,1,143.33,401.26Zm7.09-45v54h1.49v-54Zm8.85,0v54h1.48v-54Zm4.49-.66-.74,1.29a9.7,9.7,0,0,1,4.83,8.37v36a9.7,9.7,0,0,1-4.83,8.37l.74,1.29a11.2,11.2,0,0,0,5.57-9.66v-36A11.21,11.21,0,0,0,163.76,355.57Zm29.91,73.84v-36A9.68,9.68,0,0,1,198.5,385l-.74-1.29a11.19,11.19,0,0,0-5.57,9.66v36a11.19,11.19,0,0,0,5.57,9.66l.74-1.29A9.68,9.68,0,0,1,193.67,429.41Zm7.09-45v54.06h1.49V384.37Zm8.85,0v54.06h1.48V384.37Zm4.49-.65-.74,1.29a9.7,9.7,0,0,1,4.83,8.37v36a9.7,9.7,0,0,1-4.83,8.37l.74,1.29a11.21,11.21,0,0,0,5.57-9.66v-36A11.21,11.21,0,0,0,214.1,383.72Zm-50.34-28.15-.74,1.29a9.7,9.7,0,0,1,4.83,8.37v36a9.7,9.7,0,0,1-4.83,8.37l.74,1.29a11.2,11.2,0,0,0,5.57-9.66v-36A11.21,11.21,0,0,0,163.76,355.57Zm-4.49.66v54h1.48v-54Zm-8.85,0v54h1.49v-54Zm-7.09,45v-36a9.68,9.68,0,0,1,4.83-8.37l-.74-1.29a11.19,11.19,0,0,0-5.57,9.66v36a11.17,11.17,0,0,0,5.57,9.66l.74-1.29A9.68,9.68,0,0,1,143.33,401.26Zm70.77-17.54-.74,1.29a9.7,9.7,0,0,1,4.83,8.37v36a9.7,9.7,0,0,1-4.83,8.37l.74,1.29a11.21,11.21,0,0,0,5.57-9.66v-36A11.21,11.21,0,0,0,214.1,383.72Zm-4.49.65v54.06h1.48V384.37Zm-8.85,0v54.06h1.49V384.37Zm-7.09,45v-36A9.68,9.68,0,0,1,198.5,385l-.74-1.29a11.19,11.19,0,0,0-5.57,9.66v36a11.19,11.19,0,0,0,5.57,9.66l.74-1.29A9.68,9.68,0,0,1,193.67,429.41Zm-50.34-28.15v-36a9.68,9.68,0,0,1,4.83-8.37l-.74-1.29a11.19,11.19,0,0,0-5.57,9.66v36a11.17,11.17,0,0,0,5.57,9.66l.74-1.29A9.68,9.68,0,0,1,143.33,401.26Zm7.09-45v54h1.49v-54Zm8.85,0v54h1.48v-54Zm4.49-.66-.74,1.29a9.7,9.7,0,0,1,4.83,8.37v36a9.7,9.7,0,0,1-4.83,8.37l.74,1.29a11.2,11.2,0,0,0,5.57-9.66v-36A11.21,11.21,0,0,0,163.76,355.57Zm29.91,73.84v-36A9.68,9.68,0,0,1,198.5,385l-.74-1.29a11.19,11.19,0,0,0-5.57,9.66v36a11.19,11.19,0,0,0,5.57,9.66l.74-1.29A9.68,9.68,0,0,1,193.67,429.41Zm7.09-45v54.06h1.49V384.37Zm8.85,0v54.06h1.48V384.37Zm4.49-.65-.74,1.29a9.7,9.7,0,0,1,4.83,8.37v36a9.7,9.7,0,0,1-4.83,8.37l.74,1.29a11.21,11.21,0,0,0,5.57-9.66v-36A11.21,11.21,0,0,0,214.1,383.72Zm-50.34-28.15-.74,1.29a9.7,9.7,0,0,1,4.83,8.37v36a9.7,9.7,0,0,1-4.83,8.37l.74,1.29a11.2,11.2,0,0,0,5.57-9.66v-36A11.21,11.21,0,0,0,163.76,355.57Zm-4.49,54.71h1.48v-54h-1.48Zm-8.85,0h1.49v-54h-1.49Zm-2.26-53.42-.74-1.29a11.19,11.19,0,0,0-5.57,9.66v36a11.17,11.17,0,0,0,5.57,9.66l.74-1.29a9.68,9.68,0,0,1-4.83-8.37v-36A9.68,9.68,0,0,1,148.16,356.86Zm65.94,26.86-.74,1.29a9.7,9.7,0,0,1,4.83,8.37v36a9.7,9.7,0,0,1-4.83,8.37l.74,1.29a11.21,11.21,0,0,0,5.57-9.66v-36A11.21,11.21,0,0,0,214.1,383.72Zm-4.49,54.71h1.48V384.37h-1.48Zm-8.85,0h1.49V384.37h-1.49ZM198.5,385l-.74-1.29a11.19,11.19,0,0,0-5.57,9.66v36a11.19,11.19,0,0,0,5.57,9.66l.74-1.29a9.68,9.68,0,0,1-4.83-8.37v-36A9.68,9.68,0,0,1,198.5,385ZM371.68,101.89,296.42,58.43a21.3,21.3,0,0,0-10.68-2.86A21.52,21.52,0,0,0,275,58.44l-146.7,85.14-.73.43V281.53a21.34,21.34,0,0,0,10.52,18.4l11.5,6.77.63.37V348.8h-2.29a11.24,11.24,0,0,0-11.25,11.25v45a11.23,11.23,0,0,0,11.25,11.24h15A11.22,11.22,0,0,0,174.17,405v-45a11.24,11.24,0,0,0-11.24-11.25h-2.28V313.19l.72.43,38.55,22.73.64.37V377h-2.28a11.24,11.24,0,0,0-11.23,11.25v45a11.23,11.23,0,0,0,11.23,11.24h15a11.23,11.23,0,0,0,11.23-11.24v-45A11.24,11.24,0,0,0,213.27,377H211v-34.1l.74.43,1,.59.75.43.74-.41,31.24-17.77C258,319,268.18,301.4,268.18,286.91V262.3l79.16-45.45a50,50,0,0,0,25.08-43.34V102.32ZM213.27,377.69a10.51,10.51,0,0,1,10.49,10.51v45a10.51,10.51,0,0,1-10.49,10.5h-15a10.51,10.51,0,0,1-10.51-10.5v-45a10.52,10.52,0,0,1,10.51-10.51h2.28a.73.73,0,0,0,.74-.74V338l8.93,5.26V377a.73.73,0,0,0,.74.74Zm57.79-300c0,.17-.21.4-.52.57a3.94,3.94,0,0,1-3.48,0c-.31-.17-.5-.4-.5-.57s.19-.4.5-.58a3.51,3.51,0,0,1,1.75-.42,3.44,3.44,0,0,1,1.73.42C270.85,77.26,271.06,77.48,271.06,77.66ZM233.21,156a1.83,1.83,0,0,1-1.1,1.41,7.16,7.16,0,0,1-6.35,0,1.45,1.45,0,0,1,0-2.81,6.64,6.64,0,0,1,3.18-.74,6.57,6.57,0,0,1,3.17.74A1.84,1.84,0,0,1,233.21,156Zm-15.9-5.58a7.14,7.14,0,0,1-6.34,0,1.46,1.46,0,0,1,0-2.82,7.16,7.16,0,0,1,6.34,0,1.45,1.45,0,0,1,0,2.82Zm-4.92,10.35a10,10,0,0,1,9,0,2.78,2.78,0,0,1,1.64,2.18,2.73,2.73,0,0,1-1.64,2.18,10,10,0,0,1-9,0,2.76,2.76,0,0,1-1.66-2.18A2.81,2.81,0,0,1,212.39,160.79ZM203,155.71c0,.17-.19.39-.5.58a4,4,0,0,1-3.48,0c-.32-.19-.51-.41-.51-.58s.19-.4.51-.59a4,4,0,0,1,3.48,0C202.84,155.31,203,155.54,203,155.71Zm97.09-79.15c.7.41,1.1.92,1.1,1.41s-.4,1-1.1,1.4a7.07,7.07,0,0,1-6.34,0,1.83,1.83,0,0,1-1.09-1.4,1.86,1.86,0,0,1,1.09-1.41A7.17,7.17,0,0,1,300.12,76.56Zm-19.71,6.18a10,10,0,0,1,9,0,2.76,2.76,0,0,1,1.66,2.18,2.7,2.7,0,0,1-1.66,2.17,10,10,0,0,1-9,0,2.7,2.7,0,0,1-1.66-2.17A2.76,2.76,0,0,1,280.41,82.74Zm6-11.76a1.83,1.83,0,0,1-1.11,1.4,7.16,7.16,0,0,1-6.35,0,1.44,1.44,0,0,1,0-2.8,7.1,7.1,0,0,1,6.35,0C286,70,286.44,70.49,286.44,71Zm-117.1,225.2L166,298.39V234.32l3.36,1.92Zm14.45,8.36-3.35,2.21V242.66l3.35,1.94Zm14.46,8.33-3.35,2.2V251l3.35,1.94Zm-38.36.77V348.8a.74.74,0,0,0,.74.75h2.3a10.51,10.51,0,0,1,10.49,10.5v45a10.51,10.51,0,0,1-10.49,10.5h-15A10.51,10.51,0,0,1,137.43,405v-45a10.51,10.51,0,0,1,10.51-10.5h2.29a.73.73,0,0,0,.74-.75V308.38ZM371.68,173.51A49.4,49.4,0,0,1,347,216.22l-79.16,45.45a.74.74,0,0,0-.37.63v24.61c0,14.27-10,31.56-22.38,38.56L214.19,343V194.53l157.49-90.92ZM213.36,437.78l.74,1.29a11.21,11.21,0,0,0,5.57-9.66v-36a11.21,11.21,0,0,0-5.57-9.66l-.74,1.29a9.7,9.7,0,0,1,4.83,8.37v36A9.7,9.7,0,0,1,213.36,437.78Zm-3.75.65h1.48V384.37h-1.48Zm-8.85,0h1.49V384.37h-1.49ZM198.5,385l-.74-1.29a11.19,11.19,0,0,0-5.57,9.66v36a11.19,11.19,0,0,0,5.57,9.66l.74-1.29a9.68,9.68,0,0,1-4.83-8.37v-36A9.68,9.68,0,0,1,198.5,385ZM163,409.63l.74,1.29a11.2,11.2,0,0,0,5.57-9.66v-36a11.21,11.21,0,0,0-5.57-9.66l-.74,1.29a9.7,9.7,0,0,1,4.83,8.37v36A9.7,9.7,0,0,1,163,409.63Zm-2.27-53.4h-1.48v54h1.48Zm-10.33,54h1.49v-54h-1.49Zm-2.26-53.42-.74-1.29a11.19,11.19,0,0,0-5.57,9.66v36a11.17,11.17,0,0,0,5.57,9.66l.74-1.29a9.68,9.68,0,0,1-4.83-8.37v-36A9.68,9.68,0,0,1,148.16,356.86Zm45.51,72.55v-36A9.68,9.68,0,0,1,198.5,385l-.74-1.29a11.19,11.19,0,0,0-5.57,9.66v36a11.19,11.19,0,0,0,5.57,9.66l.74-1.29A9.68,9.68,0,0,1,193.67,429.41Zm7.09-45v54.06h1.49V384.37Zm8.85,0v54.06h1.48V384.37Zm4.49-.65-.74,1.29a9.7,9.7,0,0,1,4.83,8.37v36a9.7,9.7,0,0,1-4.83,8.37l.74,1.29a11.21,11.21,0,0,0,5.57-9.66v-36A11.21,11.21,0,0,0,214.1,383.72Zm-70.77,17.54v-36a9.68,9.68,0,0,1,4.83-8.37l-.74-1.29a11.19,11.19,0,0,0-5.57,9.66v36a11.17,11.17,0,0,0,5.57,9.66l.74-1.29A9.68,9.68,0,0,1,143.33,401.26Zm7.09-45v54h1.49v-54Zm8.85,0v54h1.48v-54Zm4.49-.66-.74,1.29a9.7,9.7,0,0,1,4.83,8.37v36a9.7,9.7,0,0,1-4.83,8.37l.74,1.29a11.2,11.2,0,0,0,5.57-9.66v-36A11.21,11.21,0,0,0,163.76,355.57Zm50.34,28.15-.74,1.29a9.7,9.7,0,0,1,4.83,8.37v36a9.7,9.7,0,0,1-4.83,8.37l.74,1.29a11.21,11.21,0,0,0,5.57-9.66v-36A11.21,11.21,0,0,0,214.1,383.72Zm-4.49.65v54.06h1.48V384.37Zm-8.85,0v54.06h1.49V384.37Zm-7.09,45v-36A9.68,9.68,0,0,1,198.5,385l-.74-1.29a11.19,11.19,0,0,0-5.57,9.66v36a11.19,11.19,0,0,0,5.57,9.66l.74-1.29A9.68,9.68,0,0,1,193.67,429.41Zm-29.91-73.84-.74,1.29a9.7,9.7,0,0,1,4.83,8.37v36a9.7,9.7,0,0,1-4.83,8.37l.74,1.29a11.2,11.2,0,0,0,5.57-9.66v-36A11.21,11.21,0,0,0,163.76,355.57Zm-4.49.66v54h1.48v-54Zm-8.85,0v54h1.49v-54Zm-7.09,45v-36a9.68,9.68,0,0,1,4.83-8.37l-.74-1.29a11.19,11.19,0,0,0-5.57,9.66v36a11.17,11.17,0,0,0,5.57,9.66l.74-1.29A9.68,9.68,0,0,1,143.33,401.26Zm50.34,28.15v-36A9.68,9.68,0,0,1,198.5,385l-.74-1.29a11.19,11.19,0,0,0-5.57,9.66v36a11.19,11.19,0,0,0,5.57,9.66l.74-1.29A9.68,9.68,0,0,1,193.67,429.41Zm7.09-45v54.06h1.49V384.37Zm8.85,0v54.06h1.48V384.37Zm4.49-.65-.74,1.29a9.7,9.7,0,0,1,4.83,8.37v36a9.7,9.7,0,0,1-4.83,8.37l.74,1.29a11.21,11.21,0,0,0,5.57-9.66v-36A11.21,11.21,0,0,0,214.1,383.72Zm-70.77,17.54v-36a9.68,9.68,0,0,1,4.83-8.37l-.74-1.29a11.19,11.19,0,0,0-5.57,9.66v36a11.17,11.17,0,0,0,5.57,9.66l.74-1.29A9.68,9.68,0,0,1,143.33,401.26Zm7.09-45v54h1.49v-54Zm8.85,0v54h1.48v-54Zm4.49-.66-.74,1.29a9.7,9.7,0,0,1,4.83,8.37v36a9.7,9.7,0,0,1-4.83,8.37l.74,1.29a11.2,11.2,0,0,0,5.57-9.66v-36A11.21,11.21,0,0,0,163.76,355.57Zm50.34,28.15-.74,1.29a9.7,9.7,0,0,1,4.83,8.37v36a9.7,9.7,0,0,1-4.83,8.37l.74,1.29a11.21,11.21,0,0,0,5.57-9.66v-36A11.21,11.21,0,0,0,214.1,383.72Zm-4.49.65v54.06h1.48V384.37Zm-8.85,0v54.06h1.49V384.37Zm-7.09,45v-36A9.68,9.68,0,0,1,198.5,385l-.74-1.29a11.19,11.19,0,0,0-5.57,9.66v36a11.19,11.19,0,0,0,5.57,9.66l.74-1.29A9.68,9.68,0,0,1,193.67,429.41Zm-29.91-73.84-.74,1.29a9.7,9.7,0,0,1,4.83,8.37v36a9.7,9.7,0,0,1-4.83,8.37l.74,1.29a11.2,11.2,0,0,0,5.57-9.66v-36A11.21,11.21,0,0,0,163.76,355.57Zm-4.49.66v54h1.48v-54Zm-8.85,0v54h1.49v-54Zm-7.09,45v-36a9.68,9.68,0,0,1,4.83-8.37l-.74-1.29a11.19,11.19,0,0,0-5.57,9.66v36a11.17,11.17,0,0,0,5.57,9.66l.74-1.29A9.68,9.68,0,0,1,143.33,401.26Zm50.34,28.15v-36A9.68,9.68,0,0,1,198.5,385l-.74-1.29a11.19,11.19,0,0,0-5.57,9.66v36a11.19,11.19,0,0,0,5.57,9.66l.74-1.29A9.68,9.68,0,0,1,193.67,429.41Zm7.09-45v54.06h1.49V384.37Zm8.85,0v54.06h1.48V384.37Zm4.49-.65-.74,1.29a9.7,9.7,0,0,1,4.83,8.37v36a9.7,9.7,0,0,1-4.83,8.37l.74,1.29a11.21,11.21,0,0,0,5.57-9.66v-36A11.21,11.21,0,0,0,214.1,383.72Zm-70.77,17.54v-36a9.68,9.68,0,0,1,4.83-8.37l-.74-1.29a11.19,11.19,0,0,0-5.57,9.66v36a11.17,11.17,0,0,0,5.57,9.66l.74-1.29A9.68,9.68,0,0,1,143.33,401.26Zm7.09-45v54h1.49v-54Zm8.85,0v54h1.48v-54Zm4.49-.66-.74,1.29a9.7,9.7,0,0,1,4.83,8.37v36a9.7,9.7,0,0,1-4.83,8.37l.74,1.29a11.2,11.2,0,0,0,5.57-9.66v-36A11.21,11.21,0,0,0,163.76,355.57Zm50.34,28.15-.74,1.29a9.7,9.7,0,0,1,4.83,8.37v36a9.7,9.7,0,0,1-4.83,8.37l.74,1.29a11.21,11.21,0,0,0,5.57-9.66v-36A11.21,11.21,0,0,0,214.1,383.72Zm-4.49.65v54.06h1.48V384.37Zm-8.85,0v54.06h1.49V384.37Zm-7.09,45v-36A9.68,9.68,0,0,1,198.5,385l-.74-1.29a11.19,11.19,0,0,0-5.57,9.66v36a11.19,11.19,0,0,0,5.57,9.66l.74-1.29A9.68,9.68,0,0,1,193.67,429.41Zm-29.91-73.84-.74,1.29a9.7,9.7,0,0,1,4.83,8.37v36a9.7,9.7,0,0,1-4.83,8.37l.74,1.29a11.2,11.2,0,0,0,5.57-9.66v-36A11.21,11.21,0,0,0,163.76,355.57Zm-4.49.66v54h1.48v-54Zm-8.85,0v54h1.49v-54Zm-7.09,45v-36a9.68,9.68,0,0,1,4.83-8.37l-.74-1.29a11.19,11.19,0,0,0-5.57,9.66v36a11.17,11.17,0,0,0,5.57,9.66l.74-1.29A9.68,9.68,0,0,1,143.33,401.26Zm50.34,28.15v-36A9.68,9.68,0,0,1,198.5,385l-.74-1.29a11.19,11.19,0,0,0-5.57,9.66v36a11.19,11.19,0,0,0,5.57,9.66l.74-1.29A9.68,9.68,0,0,1,193.67,429.41Zm7.09-45v54.06h1.49V384.37Zm8.85,0v54.06h1.48V384.37Zm4.49-.65-.74,1.29a9.7,9.7,0,0,1,4.83,8.37v36a9.7,9.7,0,0,1-4.83,8.37l.74,1.29a11.21,11.21,0,0,0,5.57-9.66v-36A11.21,11.21,0,0,0,214.1,383.72Zm-70.77,17.54v-36a9.68,9.68,0,0,1,4.83-8.37l-.74-1.29a11.19,11.19,0,0,0-5.57,9.66v36a11.17,11.17,0,0,0,5.57,9.66l.74-1.29A9.68,9.68,0,0,1,143.33,401.26Zm7.09-45v54h1.49v-54Zm8.85,0v54h1.48v-54Zm4.49-.66-.74,1.29a9.7,9.7,0,0,1,4.83,8.37v36a9.7,9.7,0,0,1-4.83,8.37l.74,1.29a11.2,11.2,0,0,0,5.57-9.66v-36A11.21,11.21,0,0,0,163.76,355.57Zm50.34,28.15-.74,1.29a9.7,9.7,0,0,1,4.83,8.37v36a9.7,9.7,0,0,1-4.83,8.37l.74,1.29a11.21,11.21,0,0,0,5.57-9.66v-36A11.21,11.21,0,0,0,214.1,383.72Zm-4.49.65v54.06h1.48V384.37Zm-8.85,0v54.06h1.49V384.37Zm-7.09,45v-36A9.68,9.68,0,0,1,198.5,385l-.74-1.29a11.19,11.19,0,0,0-5.57,9.66v36a11.19,11.19,0,0,0,5.57,9.66l.74-1.29A9.68,9.68,0,0,1,193.67,429.41Zm-29.91-73.84-.74,1.29a9.7,9.7,0,0,1,4.83,8.37v36a9.7,9.7,0,0,1-4.83,8.37l.74,1.29a11.2,11.2,0,0,0,5.57-9.66v-36A11.21,11.21,0,0,0,163.76,355.57Zm-4.49.66v54h1.48v-54Zm-8.85,0v54h1.49v-54Zm-7.09,45v-36a9.68,9.68,0,0,1,4.83-8.37l-.74-1.29a11.19,11.19,0,0,0-5.57,9.66v36a11.17,11.17,0,0,0,5.57,9.66l.74-1.29A9.68,9.68,0,0,1,143.33,401.26Zm50.34,28.15v-36A9.68,9.68,0,0,1,198.5,385l-.74-1.29a11.19,11.19,0,0,0-5.57,9.66v36a11.19,11.19,0,0,0,5.57,9.66l.74-1.29A9.68,9.68,0,0,1,193.67,429.41Zm7.09-45v54.06h1.49V384.37Zm8.85,0v54.06h1.48V384.37Zm4.49-.65-.74,1.29a9.7,9.7,0,0,1,4.83,8.37v36a9.7,9.7,0,0,1-4.83,8.37l.74,1.29a11.21,11.21,0,0,0,5.57-9.66v-36A11.21,11.21,0,0,0,214.1,383.72Zm-70.77,17.54v-36a9.68,9.68,0,0,1,4.83-8.37l-.74-1.29a11.19,11.19,0,0,0-5.57,9.66v36a11.17,11.17,0,0,0,5.57,9.66l.74-1.29A9.68,9.68,0,0,1,143.33,401.26Zm7.09-45v54h1.49v-54Zm8.85,0v54h1.48v-54Zm4.49-.66-.74,1.29a9.7,9.7,0,0,1,4.83,8.37v36a9.7,9.7,0,0,1-4.83,8.37l.74,1.29a11.2,11.2,0,0,0,5.57-9.66v-36A11.21,11.21,0,0,0,163.76,355.57Zm50.34,28.15-.74,1.29a9.7,9.7,0,0,1,4.83,8.37v36a9.7,9.7,0,0,1-4.83,8.37l.74,1.29a11.21,11.21,0,0,0,5.57-9.66v-36A11.21,11.21,0,0,0,214.1,383.72Zm-4.49.65v54.06h1.48V384.37Zm-8.85,0v54.06h1.49V384.37Zm-7.09,45v-36A9.68,9.68,0,0,1,198.5,385l-.74-1.29a11.19,11.19,0,0,0-5.57,9.66v36a11.19,11.19,0,0,0,5.57,9.66l.74-1.29A9.68,9.68,0,0,1,193.67,429.41Zm-29.91-73.84-.74,1.29a9.7,9.7,0,0,1,4.83,8.37v36a9.7,9.7,0,0,1-4.83,8.37l.74,1.29a11.2,11.2,0,0,0,5.57-9.66v-36A11.21,11.21,0,0,0,163.76,355.57Zm-4.49.66v54h1.48v-54Zm-8.85,0v54h1.49v-54Zm-7.09,45v-36a9.68,9.68,0,0,1,4.83-8.37l-.74-1.29a11.19,11.19,0,0,0-5.57,9.66v36a11.17,11.17,0,0,0,5.57,9.66l.74-1.29A9.68,9.68,0,0,1,143.33,401.26Z"/><path class="cls-2" d="M213.27,376.21h-1.56V342.85a.72.72,0,0,0-.37-.64l-10.41-6.13a.75.75,0,0,0-.74,0,.7.7,0,0,0-.27.27.66.66,0,0,0-.1.37v39.49h-1.54a12,12,0,0,0-12,12v45a12,12,0,0,0,12,12h15a12,12,0,0,0,12-12v-45A12,12,0,0,0,213.27,376.21Zm10.49,57a10.51,10.51,0,0,1-10.49,10.5h-15a10.51,10.51,0,0,1-10.51-10.5v-45a10.52,10.52,0,0,1,10.51-10.51h2.28a.73.73,0,0,0,.74-.74V338l8.93,5.26V377a.73.73,0,0,0,.74.74h2.3a10.51,10.51,0,0,1,10.49,10.51Z"/><path class="cls-2" d="M219.67,393.38v36a11.21,11.21,0,0,1-5.57,9.66l-.74-1.29a9.7,9.7,0,0,0,4.83-8.37v-36a9.7,9.7,0,0,0-4.83-8.37l.74-1.29A11.21,11.21,0,0,1,219.67,393.38Z"/><path class="cls-2" d="M198.5,437.78l-.74,1.29a11.19,11.19,0,0,1-5.57-9.66v-36a11.19,11.19,0,0,1,5.57-9.66l.74,1.29a9.68,9.68,0,0,0-4.83,8.37v36A9.68,9.68,0,0,0,198.5,437.78Z"/><rect class="cls-2" x="200.76" y="384.37" width="1.48" height="54.06"/><rect class="cls-2" x="209.61" y="384.37" width="1.48" height="54.06"/><path class="cls-2" d="M162.93,348.06h-1.56V313.21a.71.71,0,0,0-.37-.64l-10.43-6.15a.7.7,0,0,0-.71,0,.65.65,0,0,0-.26.26.8.8,0,0,0-.11.37v41h-1.55a12,12,0,0,0-12,12v45a12,12,0,0,0,12,12h15a12,12,0,0,0,12-12v-45A12,12,0,0,0,162.93,348.06Zm-3-34.42V348.8a.74.74,0,0,0,.74.75h2.3a10.51,10.51,0,0,1,10.49,10.5v45a10.51,10.51,0,0,1-10.49,10.5h-15A10.51,10.51,0,0,1,137.43,405v-45a10.51,10.51,0,0,1,10.51-10.5h2.29a.73.73,0,0,0,.74-.75V308.38Z"/><path class="cls-2" d="M169.33,365.23v36a11.2,11.2,0,0,1-5.57,9.66l-.74-1.29a9.7,9.7,0,0,0,4.83-8.37v-36a9.7,9.7,0,0,0-4.83-8.37l.74-1.29A11.21,11.21,0,0,1,169.33,365.23Z"/><path class="cls-2" d="M148.16,409.63l-.74,1.29a11.17,11.17,0,0,1-5.57-9.66v-36a11.19,11.19,0,0,1,5.57-9.66l.74,1.29a9.68,9.68,0,0,0-4.83,8.37v36A9.68,9.68,0,0,0,148.16,409.63Z"/><rect class="cls-2" x="150.42" y="356.23" width="1.48" height="54.06"/><rect class="cls-2" x="159.27" y="356.23" width="1.48" height="54.06"/><path class="cls-2" d="M372.79,101.69a.7.7,0,0,0-.74,0l-.37.2-.73.43-157.5,90.92-.37.22a.74.74,0,0,0-.38.64V344.3a.75.75,0,0,0,.38.64.66.66,0,0,0,.37.1.81.81,0,0,0,.37-.09l32-18.19c12.76-7.24,23.13-25.11,23.13-39.85V262.73l78.78-45.23a50.88,50.88,0,0,0,25.45-44V102.32A.74.74,0,0,0,372.79,101.69Zm-1.11,1.92v69.9A49.4,49.4,0,0,1,347,216.22l-79.16,45.45a.74.74,0,0,0-.37.63v24.61c0,14.27-10,31.56-22.38,38.56L214.19,343V194.53Z"/><path class="cls-2" d="M339.35,142.87a9.76,9.76,0,0,0-9.83,0l-80.16,45.87a15.47,15.47,0,0,0-7.75,13.37A15.44,15.44,0,0,0,257,217.5a15.45,15.45,0,0,0,7.71-2.08l79.17-45.71a.76.76,0,0,0,.37-.65V151.39A9.75,9.75,0,0,0,339.35,142.87ZM264,214.14A13.93,13.93,0,1,1,250.1,190l64.38-36.84,1.48-.84,14.3-8.18a8.36,8.36,0,0,1,4.15-1.11,8.41,8.41,0,0,1,8.37,8.37v17.26l-.75.43Z"/><path class="cls-2" d="M170.45,235.18l-4.84-2.79a.75.75,0,0,0-.74,0,.76.76,0,0,0-.37.64v66.78a.47.47,0,0,0,0,.17V300l.05.08s0,0,0,0a.61.61,0,0,0,.12.15.57.57,0,0,0,.15.12l4.84,2.79a.71.71,0,0,0,.37.1.66.66,0,0,0,.37-.1.72.72,0,0,0,.37-.64V235.82A.73.73,0,0,0,170.45,235.18Zm-1.11,66.11-2.69-1.55-.67-.39v-65l3.36,1.92Zm15.93,3.53V244.17a.72.72,0,0,0-.37-.64l-4.83-2.8a.75.75,0,0,0-.74,0,.76.76,0,0,0-.37.64v66.78a.76.76,0,0,0,.22.49.44.44,0,0,0,.15.12l4.83,2.79a.69.69,0,0,0,.37.1.81.81,0,0,0,.37-.09.49.49,0,0,0,.15-.13.74.74,0,0,0,.22-.52v-6A.34.34,0,0,0,185.27,304.82Zm-1.47,1.5v3.32l-2.68-1.56-.67-.39v-65l3.35,1.94v60.34a.81.81,0,0,0,0,.15Zm15.56-54.45-4.83-2.8a.75.75,0,0,0-.74,0,.74.74,0,0,0-.37.64v66.78a.7.7,0,0,0,.37.61l4.83,2.8a.6.6,0,0,0,.37.11.81.81,0,0,0,.37-.09.79.79,0,0,0,.37-.65V252.51A.76.76,0,0,0,199.36,251.87ZM198.25,318l-2.69-1.56-.66-.38V251l3.35,1.94Zm1.11-66.11-4.83-2.8a.75.75,0,0,0-.74,0,.74.74,0,0,0-.37.64v66.78a.7.7,0,0,0,.37.61l4.83,2.8a.6.6,0,0,0,.37.11.81.81,0,0,0,.37-.09.79.79,0,0,0,.37-.65V252.51A.76.76,0,0,0,199.36,251.87ZM198.25,318l-2.69-1.56-.66-.38V251l3.35,1.94Zm-13-13.16V244.17a.72.72,0,0,0-.37-.64l-4.83-2.8a.75.75,0,0,0-.74,0,.76.76,0,0,0-.37.64v66.78a.76.76,0,0,0,.22.49.44.44,0,0,0,.15.12l4.83,2.79a.69.69,0,0,0,.37.1.81.81,0,0,0,.37-.09.49.49,0,0,0,.15-.13.74.74,0,0,0,.22-.52v-6A.34.34,0,0,0,185.27,304.82Zm-1.47,1.5v3.32l-2.68-1.56-.67-.39v-65l3.35,1.94v60.34a.81.81,0,0,0,0,.15Zm-13.35-71.14-4.84-2.79a.75.75,0,0,0-.74,0,.76.76,0,0,0-.37.64v66.78a.47.47,0,0,0,0,.17V300l.05.08s0,0,0,0a.61.61,0,0,0,.12.15.57.57,0,0,0,.15.12l4.84,2.79a.71.71,0,0,0,.37.1.66.66,0,0,0,.37-.1.72.72,0,0,0,.37-.64V235.82A.73.73,0,0,0,170.45,235.18Zm-1.11,66.11-2.69-1.55-.67-.39v-65l3.36,1.92Zm1.11-66.11-4.84-2.79a.75.75,0,0,0-.74,0,.76.76,0,0,0-.37.64v66.78a.47.47,0,0,0,0,.17V300l.05.08s0,0,0,0a.61.61,0,0,0,.12.15.57.57,0,0,0,.15.12l4.84,2.79a.71.71,0,0,0,.37.1.66.66,0,0,0,.37-.1.72.72,0,0,0,.37-.64V235.82A.73.73,0,0,0,170.45,235.18Zm-1.11,66.11-2.69-1.55-.67-.39v-65l3.36,1.92Zm15.93,3.53V244.17a.72.72,0,0,0-.37-.64l-4.83-2.8a.75.75,0,0,0-.74,0,.76.76,0,0,0-.37.64v66.78a.76.76,0,0,0,.22.49.44.44,0,0,0,.15.12l4.83,2.79a.69.69,0,0,0,.37.1.81.81,0,0,0,.37-.09.49.49,0,0,0,.15-.13.74.74,0,0,0,.22-.52v-6A.34.34,0,0,0,185.27,304.82Zm-1.47,1.5v3.32l-2.68-1.56-.67-.39v-65l3.35,1.94v60.34a.81.81,0,0,0,0,.15Zm15.56-54.45-4.83-2.8a.75.75,0,0,0-.74,0,.74.74,0,0,0-.37.64v66.78a.7.7,0,0,0,.37.61l4.83,2.8a.6.6,0,0,0,.37.11.81.81,0,0,0,.37-.09.79.79,0,0,0,.37-.65V252.51A.76.76,0,0,0,199.36,251.87ZM198.25,318l-2.69-1.56-.66-.38V251l3.35,1.94Zm1.11-66.11-4.83-2.8a.75.75,0,0,0-.74,0,.74.74,0,0,0-.37.64v66.78a.7.7,0,0,0,.37.61l4.83,2.8a.6.6,0,0,0,.37.11.81.81,0,0,0,.37-.09.79.79,0,0,0,.37-.65V252.51A.76.76,0,0,0,199.36,251.87ZM198.25,318l-2.69-1.56-.66-.38V251l3.35,1.94Zm-13-13.19V244.17a.72.72,0,0,0-.37-.64l-4.83-2.8a.75.75,0,0,0-.74,0,.76.76,0,0,0-.37.64v66.78a.76.76,0,0,0,.22.49.44.44,0,0,0,.15.12l4.83,2.79a.69.69,0,0,0,.37.1.81.81,0,0,0,.37-.09.49.49,0,0,0,.15-.13.74.74,0,0,0,.22-.52v-6a.34.34,0,0,0,0-.1Zm-1.47,1.53v3.32l-2.68-1.56-.67-.39v-65l3.35,1.94v60.34a.81.81,0,0,0,0,.15Zm-18.19-73.93a.75.75,0,0,0-.74,0,.76.76,0,0,0-.37.64v66.78a.47.47,0,0,0,0,.17V300l.05.08s0,0,0,0a.61.61,0,0,0,.12.15.57.57,0,0,0,.15.12l4.84,2.79a.71.71,0,0,0,.37.1.66.66,0,0,0,.37-.1.72.72,0,0,0,.37-.64V235.82a.73.73,0,0,0-.37-.64Zm3.73,68.9-2.69-1.55-.67-.39v-65l3.36,1.92Zm44.48-107.83-.37-.22L129.05,144l-.74-.43-.36-.21a.75.75,0,0,0-.74,0,.76.76,0,0,0-.37.64V281.53a22.14,22.14,0,0,0,10.89,19l11.76,6.93.74.43.74.45,9.68,5.68.72.43,38.45,22.64.74.43L211,343.69l.74.45,1.37.8a.66.66,0,0,0,.37.1.81.81,0,0,0,.37-.09.76.76,0,0,0,.37-.65V194.1A.73.73,0,0,0,213.82,193.46ZM200.93,336.08,161,312.57l-10.43-6.15-12.1-7.13a20.69,20.69,0,0,1-10.15-17.76V145.3l84.38,49.23V343l-1.36-.8Zm-6.4-87a.75.75,0,0,0-.74,0,.74.74,0,0,0-.37.64v66.78a.7.7,0,0,0,.37.61l4.83,2.8a.6.6,0,0,0,.37.11.81.81,0,0,0,.37-.09.79.79,0,0,0,.37-.65V252.51a.76.76,0,0,0-.37-.64ZM198.25,318l-2.69-1.56-.66-.38V251l3.35,1.94Zm-13-13.19V244.17a.72.72,0,0,0-.37-.64l-4.83-2.8a.75.75,0,0,0-.74,0,.76.76,0,0,0-.37.64v66.78a.76.76,0,0,0,.22.49.44.44,0,0,0,.15.12l4.83,2.79a.69.69,0,0,0,.37.1.81.81,0,0,0,.37-.09.49.49,0,0,0,.15-.13.74.74,0,0,0,.22-.52v-6a.34.34,0,0,0,0-.1Zm-1.47,1.53v3.32l-2.68-1.56-.67-.39v-65l3.35,1.94v60.34a.81.81,0,0,0,0,.15Zm-18.19-73.93a.75.75,0,0,0-.74,0,.76.76,0,0,0-.37.64v66.78a.47.47,0,0,0,0,.17V300l.05.08s0,0,0,0a.61.61,0,0,0,.12.15.57.57,0,0,0,.15.12l4.84,2.79a.71.71,0,0,0,.37.1.66.66,0,0,0,.37-.1.72.72,0,0,0,.37-.64V235.82a.73.73,0,0,0-.37-.64Zm3.73,68.9-2.69-1.55-.67-.39v-65l3.36,1.92Zm1.11-66.11-4.84-2.79a.75.75,0,0,0-.74,0,.76.76,0,0,0-.37.64v66.78a.47.47,0,0,0,0,.17V300l.05.08s0,0,0,0a.61.61,0,0,0,.12.15.57.57,0,0,0,.15.12l4.84,2.79a.71.71,0,0,0,.37.1.66.66,0,0,0,.37-.1.72.72,0,0,0,.37-.64V235.82A.73.73,0,0,0,170.45,235.18Zm-1.11,66.11-2.69-1.55-.67-.39v-65l3.36,1.92Zm15.93,3.53V244.17a.72.72,0,0,0-.37-.64l-4.83-2.8a.75.75,0,0,0-.74,0,.76.76,0,0,0-.37.64v66.78a.76.76,0,0,0,.22.49.44.44,0,0,0,.15.12l4.83,2.79a.69.69,0,0,0,.37.1.81.81,0,0,0,.37-.09.49.49,0,0,0,.15-.13.74.74,0,0,0,.22-.52v-6A.34.34,0,0,0,185.27,304.82Zm-1.47,1.5v3.32l-2.68-1.56-.67-.39v-65l3.35,1.94v60.34a.81.81,0,0,0,0,.15Zm15.56-54.45-4.83-2.8a.75.75,0,0,0-.74,0,.74.74,0,0,0-.37.64v66.78a.7.7,0,0,0,.37.61l4.83,2.8a.6.6,0,0,0,.37.11.81.81,0,0,0,.37-.09.79.79,0,0,0,.37-.65V252.51A.76.76,0,0,0,199.36,251.87ZM198.25,318l-2.69-1.56-.66-.38V251l3.35,1.94Zm1.11-66.11-4.83-2.8a.75.75,0,0,0-.74,0,.74.74,0,0,0-.37.64v66.78a.7.7,0,0,0,.37.61l4.83,2.8a.6.6,0,0,0,.37.11.81.81,0,0,0,.37-.09.79.79,0,0,0,.37-.65V252.51A.76.76,0,0,0,199.36,251.87ZM198.25,318l-2.69-1.56-.66-.38V251l3.35,1.94Zm-13-13.16V244.17a.72.72,0,0,0-.37-.64l-4.83-2.8a.75.75,0,0,0-.74,0,.76.76,0,0,0-.37.64v66.78a.76.76,0,0,0,.22.49.44.44,0,0,0,.15.12l4.83,2.79a.69.69,0,0,0,.37.1.81.81,0,0,0,.37-.09.49.49,0,0,0,.15-.13.74.74,0,0,0,.22-.52v-6A.34.34,0,0,0,185.27,304.82Zm-1.47,1.5v3.32l-2.68-1.56-.67-.39v-65l3.35,1.94v60.34a.81.81,0,0,0,0,.15Zm-13.35-71.14-4.84-2.79a.75.75,0,0,0-.74,0,.76.76,0,0,0-.37.64v66.78a.47.47,0,0,0,0,.17V300l.05.08s0,0,0,0a.61.61,0,0,0,.12.15.57.57,0,0,0,.15.12l4.84,2.79a.71.71,0,0,0,.37.1.66.66,0,0,0,.37-.1.72.72,0,0,0,.37-.64V235.82A.73.73,0,0,0,170.45,235.18Zm-1.11,66.11-2.69-1.55-.67-.39v-65l3.36,1.92Zm1.11-66.11-4.84-2.79a.75.75,0,0,0-.74,0,.76.76,0,0,0-.37.64v66.78a.47.47,0,0,0,0,.17V300l.05.08s0,0,0,0a.61.61,0,0,0,.12.15.57.57,0,0,0,.15.12l4.84,2.79a.71.71,0,0,0,.37.1.66.66,0,0,0,.37-.1.72.72,0,0,0,.37-.64V235.82A.73.73,0,0,0,170.45,235.18Zm-1.11,66.11-2.69-1.55-.67-.39v-65l3.36,1.92Zm15.93,3.53V244.17a.72.72,0,0,0-.37-.64l-4.83-2.8a.75.75,0,0,0-.74,0,.76.76,0,0,0-.37.64v66.78a.76.76,0,0,0,.22.49.44.44,0,0,0,.15.12l4.83,2.79a.69.69,0,0,0,.37.1.81.81,0,0,0,.37-.09.49.49,0,0,0,.15-.13.74.74,0,0,0,.22-.52v-6A.34.34,0,0,0,185.27,304.82Zm-1.47,1.5v3.32l-2.68-1.56-.67-.39v-65l3.35,1.94v60.34a.81.81,0,0,0,0,.15Zm15.56-54.45-4.83-2.8a.75.75,0,0,0-.74,0,.74.74,0,0,0-.37.64v66.78a.7.7,0,0,0,.37.61l4.83,2.8a.6.6,0,0,0,.37.11.81.81,0,0,0,.37-.09.79.79,0,0,0,.37-.65V252.51A.76.76,0,0,0,199.36,251.87ZM198.25,318l-2.69-1.56-.66-.38V251l3.35,1.94Zm1.11-66.11-4.83-2.8a.75.75,0,0,0-.74,0,.74.74,0,0,0-.37.64v66.78a.7.7,0,0,0,.37.61l4.83,2.8a.6.6,0,0,0,.37.11.81.81,0,0,0,.37-.09.79.79,0,0,0,.37-.65V252.51A.76.76,0,0,0,199.36,251.87ZM198.25,318l-2.69-1.56-.66-.38V251l3.35,1.94Zm-13-13.16V244.17a.72.72,0,0,0-.37-.64l-4.83-2.8a.75.75,0,0,0-.74,0,.76.76,0,0,0-.37.64v66.78a.76.76,0,0,0,.22.49.44.44,0,0,0,.15.12l4.83,2.79a.69.69,0,0,0,.37.1.81.81,0,0,0,.37-.09.49.49,0,0,0,.15-.13.74.74,0,0,0,.22-.52v-6A.34.34,0,0,0,185.27,304.82Zm-1.47,1.5v3.32l-2.68-1.56-.67-.39v-65l3.35,1.94v60.34a.81.81,0,0,0,0,.15Zm-13.35-71.14-4.84-2.79a.75.75,0,0,0-.74,0,.76.76,0,0,0-.37.64v66.78a.47.47,0,0,0,0,.17V300l.05.08s0,0,0,0a.61.61,0,0,0,.12.15.57.57,0,0,0,.15.12l4.84,2.79a.71.71,0,0,0,.37.1.66.66,0,0,0,.37-.1.72.72,0,0,0,.37-.64V235.82A.73.73,0,0,0,170.45,235.18Zm-1.11,66.11-2.69-1.55-.67-.39v-65l3.36,1.92Z"/><path class="cls-2" d="M170.45,235.18l-4.84-2.79a.75.75,0,0,0-.74,0,.76.76,0,0,0-.37.64v66.78a.47.47,0,0,0,0,.17V300l.05.08s0,0,0,0a.61.61,0,0,0,.12.15.57.57,0,0,0,.15.12l4.84,2.79a.71.71,0,0,0,.37.1.66.66,0,0,0,.37-.1.72.72,0,0,0,.37-.64V235.82A.73.73,0,0,0,170.45,235.18Zm-1.11,66.11-2.69-1.55-.67-.39v-65l3.36,1.92Z"/><path class="cls-2" d="M185.27,304.82V244.17a.72.72,0,0,0-.37-.64l-4.83-2.8a.75.75,0,0,0-.74,0,.76.76,0,0,0-.37.64v66.78a.76.76,0,0,0,.22.49.44.44,0,0,0,.15.12l4.83,2.79a.69.69,0,0,0,.37.1.81.81,0,0,0,.37-.09.49.49,0,0,0,.15-.13.74.74,0,0,0,.22-.52v-6A.34.34,0,0,0,185.27,304.82Zm-1.47,1.5v3.32l-2.68-1.56-.67-.39v-65l3.35,1.94v60.34a.81.81,0,0,0,0,.15Z"/><path class="cls-2" d="M199.36,251.87l-4.83-2.8a.75.75,0,0,0-.74,0,.74.74,0,0,0-.37.64v66.78a.7.7,0,0,0,.37.61l4.83,2.8a.6.6,0,0,0,.37.11.81.81,0,0,0,.37-.09.79.79,0,0,0,.37-.65V252.51A.76.76,0,0,0,199.36,251.87ZM198.25,318l-2.69-1.56-.66-.38V251l3.35,1.94Z"/><path class="cls-2" d="M128,144.65l-.75-1.28L274.65,57.8a22.14,22.14,0,0,1,22.14,0l76,43.89-.74,1.28-76-43.89a20.66,20.66,0,0,0-20.66,0Z"/><path class="cls-2" d="M286.07,68.29a8,8,0,0,0-3.9-.94,8.07,8.07,0,0,0-3.93.94,2.89,2.89,0,0,0,0,5.38,8.54,8.54,0,0,0,7.83,0,2.88,2.88,0,0,0,0-5.38Zm-.74,4.09a7.16,7.16,0,0,1-6.35,0,1.44,1.44,0,0,1,0-2.8,7.1,7.1,0,0,1,6.35,0c.71.4,1.11.91,1.11,1.4A1.83,1.83,0,0,1,285.33,72.38Z"/><path class="cls-2" d="M300.87,75.29a8.54,8.54,0,0,0-7.83,0,2.88,2.88,0,0,0,0,5.37,8.54,8.54,0,0,0,7.83,0,2.88,2.88,0,0,0,0-5.37Zm-.75,4.08a7.07,7.07,0,0,1-6.34,0,1.83,1.83,0,0,1-1.09-1.4,1.86,1.86,0,0,1,1.09-1.41,7.17,7.17,0,0,1,6.34,0c.7.41,1.1.92,1.1,1.41S300.82,79,300.12,79.37Z"/><path class="cls-2" d="M290.17,81.46a11.49,11.49,0,0,0-10.5,0,3.69,3.69,0,0,0,0,6.92,11.41,11.41,0,0,0,10.5,0,3.69,3.69,0,0,0,0-6.92Zm-.74,5.63a10,10,0,0,1-9,0,2.7,2.7,0,0,1-1.66-2.17,2.76,2.76,0,0,1,1.66-2.18,10,10,0,0,1,9,0,2.76,2.76,0,0,1,1.66,2.18A2.7,2.7,0,0,1,289.43,87.09Z"/><path class="cls-2" d="M271.28,75.79a5.06,5.06,0,0,0-2.49-.59,5,5,0,0,0-2.47.59,2.23,2.23,0,0,0-1.25,1.87,2.2,2.2,0,0,0,1.25,1.85,5.35,5.35,0,0,0,5,0,2.2,2.2,0,0,0,1.26-1.85A2.22,2.22,0,0,0,271.28,75.79Zm-.74,2.44a3.94,3.94,0,0,1-3.48,0c-.31-.17-.5-.4-.5-.57s.19-.4.5-.58a3.51,3.51,0,0,1,1.75-.42,3.44,3.44,0,0,1,1.73.42c.31.18.52.4.52.58S270.85,78.06,270.54,78.23Z"/><path class="cls-2" d="M218.05,146.35a8.5,8.5,0,0,0-7.82,0,2.87,2.87,0,0,0,0,5.36,8.37,8.37,0,0,0,7.82,0,2.87,2.87,0,0,0,0-5.36Zm-.74,4.09a7.14,7.14,0,0,1-6.34,0,1.46,1.46,0,0,1,0-2.82,7.16,7.16,0,0,1,6.34,0,1.45,1.45,0,0,1,0,2.82Z"/><path class="cls-2" d="M232.85,153.34a8,8,0,0,0-3.91-1,8.07,8.07,0,0,0-3.92,1,2.88,2.88,0,0,0,0,5.37,8.07,8.07,0,0,0,3.92,1,8,8,0,0,0,3.91-1,2.88,2.88,0,0,0,0-5.37Zm-.74,4.09a7.16,7.16,0,0,1-6.35,0,1.45,1.45,0,0,1,0-2.81,6.64,6.64,0,0,1,3.18-.74,6.57,6.57,0,0,1,3.17.74,1.45,1.45,0,0,1,0,2.81Z"/><path class="cls-2" d="M222.16,159.51a11.47,11.47,0,0,0-10.51,0,3.7,3.7,0,0,0,0,6.93,11.51,11.51,0,0,0,10.51,0,3.71,3.71,0,0,0,0-6.93Zm-.74,5.64a10,10,0,0,1-9,0,2.76,2.76,0,0,1-1.66-2.18,2.81,2.81,0,0,1,1.66-2.18,10,10,0,0,1,9,0,2.78,2.78,0,0,1,1.64,2.18A2.73,2.73,0,0,1,221.42,165.15Z"/><path class="cls-2" d="M203.27,153.85a5.09,5.09,0,0,0-2.48-.61,5,5,0,0,0-2.48.61,2,2,0,0,0,0,3.72,5,5,0,0,0,2.48.6,5.08,5.08,0,0,0,2.48-.6,2,2,0,0,0,0-3.72Zm-.74,2.44a4,4,0,0,1-3.48,0c-.32-.19-.51-.41-.51-.58s.19-.4.51-.59a4,4,0,0,1,3.48,0c.31.19.5.42.5.59S202.84,156.1,202.53,156.29Z"/><path class="cls-2" d="M351.92,191.77a.75.75,0,0,0-.74,0l-1.12.64-42.23,24.43a.69.69,0,0,0-.37.63v14.45a.72.72,0,0,0,.37.65.75.75,0,0,0,.37.09.84.84,0,0,0,.37-.09l43.35-25.07a.72.72,0,0,0,.37-.63V192.41A.76.76,0,0,0,351.92,191.77Zm-1.11,14.67-41.87,24.21V217.9l41.87-24.2Z"/><path class="cls-2" d="M351.92,191.77l-7.56-4.37a.75.75,0,0,0-.74,0l-43.36,25.07a.7.7,0,0,0-.37.63v14.46a.72.72,0,0,0,.37.64l7.57,4.37a.75.75,0,0,0,.37.09.84.84,0,0,0,.37-.09.76.76,0,0,0,.37-.65v-14l41.87-24.2,1.11-.64a.74.74,0,0,0,.37-.65A.76.76,0,0,0,351.92,191.77Zm-44.09,25.07a.69.69,0,0,0-.37.63v13.18l-6.09-3.52v-13.6L344,188.9l6.07,3.51Z"/><path class="cls-2" d="M261.24,245.59a.75.75,0,0,0-.74,0l-1.11.65h0l-12.07,7a.72.72,0,0,0-.37.64V264a.71.71,0,0,0,.37.64.76.76,0,0,0,.37.1.86.86,0,0,0,.37-.1l13.2-7.62a.76.76,0,0,0,.37-.65V246.24A.79.79,0,0,0,261.24,245.59ZM260.13,256l-11.72,6.77v-8.44l11.72-6.77Z"/><path class="cls-2" d="M261.24,245.59l-5.32-3.06a.7.7,0,0,0-.74,0L242,250.14a.78.78,0,0,0-.37.65v10.15a.76.76,0,0,0,.37.65l5.32,3.07a.76.76,0,0,0,.37.1.86.86,0,0,0,.37-.1.75.75,0,0,0,.37-.64v-9.73l11.72-6.77,1.11-.64a.75.75,0,0,0,.37-.64A.79.79,0,0,0,261.24,245.59Zm-13.94,7.63a.72.72,0,0,0-.37.64v8.87l-3.84-2.2v-9.31l12.46-7.2,3.82,2.22Z"/><path class="cls-2" d="M290.29,228.9a.41.41,0,0,0-.15-.14l-.09,0a.74.74,0,0,0-.65,0l-1.11.66h0l-12.07,7a.76.76,0,0,0-.37.64v10.16a.75.75,0,0,0,.37.64.73.73,0,0,0,.74,0l13.2-7.61a.79.79,0,0,0,.37-.66V229.42A.73.73,0,0,0,290.29,228.9ZM289,239.15l-11.72,6.75v-8.44L289,230.69Z"/><path class="cls-2" d="M290.29,228.9a.57.57,0,0,0-.15-.12l-.09-.06-5.23-3a.7.7,0,0,0-.74,0l-13.2,7.63a.72.72,0,0,0-.37.63v10.17a.76.76,0,0,0,.37.63l5.32,3.07a.74.74,0,0,0,1.11-.64v-9.73L289,230.69l1.11-.64a.74.74,0,0,0,.37-.63A.73.73,0,0,0,290.29,228.9Zm-14.09,7.49a.76.76,0,0,0-.37.64v8.87L272,243.7v-9.31l12.46-7.2,3.82,2.23Z"/><polygon class="cls-2" points="343.89 168.42 343.15 169.71 342.04 169.08 314.48 153.15 314.24 153.02 314.98 151.74 315.96 152.31 342.77 167.79 343.89 168.42"/><path class="cls-2" d="M199.36,251.87l-4.83-2.8a.75.75,0,0,0-.74,0,.74.74,0,0,0-.37.64v66.78a.7.7,0,0,0,.37.61l4.83,2.8a.6.6,0,0,0,.37.11.81.81,0,0,0,.37-.09.79.79,0,0,0,.37-.65V252.51A.76.76,0,0,0,199.36,251.87ZM198.25,318l-2.69-1.56-.66-.38V251l3.35,1.94Z"/><path class="cls-2" d="M199.34,312.61a.76.76,0,0,0-.77,0l-.32.23-3.35,2.2-1.16.77a.76.76,0,0,0-.32.61v0a.7.7,0,0,0,.37.61l4.83,2.8a.6.6,0,0,0,.37.11.81.81,0,0,0,.37-.09.79.79,0,0,0,.37-.65v-6A.77.77,0,0,0,199.34,312.61ZM198.25,318l-2.69-1.56,2.69-1.78Z"/><path class="cls-2" d="M184.9,243.53l-4.83-2.8a.75.75,0,0,0-.74,0,.76.76,0,0,0-.37.64v66.78a.76.76,0,0,0,.22.49.44.44,0,0,0,.15.12l4.83,2.79a.69.69,0,0,0,.37.1.71.71,0,0,0,.37-.1.88.88,0,0,0,.15-.12.74.74,0,0,0,.22-.52V244.17A.72.72,0,0,0,184.9,243.53Zm-3.79,64.55-.67-.39v-65l3.35,1.94v65Z"/><path class="cls-2" d="M185.27,304.82v0a.8.8,0,0,0-.45-.55.75.75,0,0,0-.71.09l-.32.21-3.35,2.21-1.16.75a.83.83,0,0,0-.32.62v0a.76.76,0,0,0,.22.49.44.44,0,0,0,.15.12l4.83,2.79a.69.69,0,0,0,.37.1.81.81,0,0,0,.37-.09.49.49,0,0,0,.15-.13.74.74,0,0,0,.22-.52v-6A.34.34,0,0,0,185.27,304.82Zm-1.48,4.82-2.68-1.56,2.68-1.75h0Z"/><path class="cls-2" d="M170.45,235.18l-4.84-2.79a.75.75,0,0,0-.74,0,.76.76,0,0,0-.37.64v66.78a.47.47,0,0,0,0,.17V300l.05.08s0,0,0,0a.61.61,0,0,0,.12.15.57.57,0,0,0,.15.12l4.84,2.79a.71.71,0,0,0,.37.1.66.66,0,0,0,.37-.1.72.72,0,0,0,.37-.64V235.82A.73.73,0,0,0,170.45,235.18Zm-1.11,66.11-2.69-1.55-.67-.39v-65l3.36,1.92Z"/><path class="cls-2" d="M170.44,295.93a.76.76,0,0,0-.77,0l-.33.22L166,298.39l-1.16.77a.83.83,0,0,0-.32.62v0a.47.47,0,0,0,0,.17V300l.05.08s0,0,0,0a.61.61,0,0,0,.12.15.57.57,0,0,0,.15.12l4.84,2.79a.71.71,0,0,0,.37.1.66.66,0,0,0,.37-.1.72.72,0,0,0,.37-.64v-6A.76.76,0,0,0,170.44,295.93Zm-1.1,5.36-2.69-1.55,2.69-1.78Z"/><path class="cls-2" d="M374.64,98.47l-76-43.89a25.77,25.77,0,0,0-25.85,0L125.36,140.17a4.43,4.43,0,0,0-2.22,3.84V281.53a25.86,25.86,0,0,0,12.71,22.22l9.94,5.87v34.89a15.73,15.73,0,0,0-13.54,15.54v45a15.7,15.7,0,0,0,15.69,15.69h15A15.71,15.71,0,0,0,178.62,405v-45a15.73,15.73,0,0,0-13.53-15.54V321l31,18.29v33.4A15.7,15.7,0,0,0,182.6,388.2v45a15.69,15.69,0,0,0,15.68,15.69h15a15.71,15.71,0,0,0,15.67-15.69v-45a15.69,15.69,0,0,0-13.52-15.54V348.29l.22-.12,32-18.19c14-8,25-26.88,25-43.07v-22l76.92-44.18a54.55,54.55,0,0,0,27.31-47.19V102.32A4.44,4.44,0,0,0,374.64,98.47ZM268.18,286.91c0,14.49-10.22,32.09-22.75,39.21l-31.24,17.77-.74.41-.75-.43-1-.59-.74-.43V377h2.3A11.24,11.24,0,0,1,224.5,388.2v45a11.23,11.23,0,0,1-11.23,11.24h-15a11.23,11.23,0,0,1-11.23-11.24v-45A11.24,11.24,0,0,1,198.28,377h2.28V336.72l-.64-.37-38.55-22.73-.72-.43V348.8h2.28a11.24,11.24,0,0,1,11.24,11.25v45a11.22,11.22,0,0,1-11.24,11.24h-15A11.23,11.23,0,0,1,136.69,405v-45a11.24,11.24,0,0,1,11.25-11.25h2.29V307.07l-.63-.37-11.5-6.77a21.34,21.34,0,0,1-10.52-18.4V144l.73-.43L275,58.44a21.52,21.52,0,0,1,10.73-2.87,21.3,21.3,0,0,1,10.68,2.86l75.26,43.46.74.43v71.19a50,50,0,0,1-25.08,43.34L268.18,262.3Z"/><path class="cls-3" d="M286.44,71a1.83,1.83,0,0,1-1.11,1.4,7.16,7.16,0,0,1-6.35,0,1.44,1.44,0,0,1,0-2.8,7.1,7.1,0,0,1,6.35,0C286,70,286.44,70.49,286.44,71Z"/><path class="cls-3" d="M301.22,78c0,.49-.4,1-1.1,1.4a7.07,7.07,0,0,1-6.34,0,1.83,1.83,0,0,1-1.09-1.4,1.86,1.86,0,0,1,1.09-1.41,7.17,7.17,0,0,1,6.34,0C300.82,77,301.22,77.48,301.22,78Z"/><path class="cls-3" d="M271.06,77.66c0,.17-.21.4-.52.57a3.94,3.94,0,0,1-3.48,0c-.31-.17-.5-.4-.5-.57s.19-.4.5-.58a3.51,3.51,0,0,1,1.75-.42,3.44,3.44,0,0,1,1.73.42C270.85,77.26,271.06,77.48,271.06,77.66Z"/><path class="cls-3" d="M291.09,84.92a2.7,2.7,0,0,1-1.66,2.17,10,10,0,0,1-9,0,2.7,2.7,0,0,1-1.66-2.17,2.76,2.76,0,0,1,1.66-2.18,10,10,0,0,1,9,0A2.76,2.76,0,0,1,291.09,84.92Z"/><path class="cls-3" d="M233.21,156a1.83,1.83,0,0,1-1.1,1.41,7.16,7.16,0,0,1-6.35,0,1.45,1.45,0,0,1,0-2.81,6.64,6.64,0,0,1,3.18-.74,6.57,6.57,0,0,1,3.17.74A1.84,1.84,0,0,1,233.21,156Z"/><path class="cls-3" d="M218.41,149a1.83,1.83,0,0,1-1.1,1.41,7.14,7.14,0,0,1-6.34,0,1.46,1.46,0,0,1,0-2.82,7.16,7.16,0,0,1,6.34,0A1.83,1.83,0,0,1,218.41,149Z"/><path class="cls-3" d="M203,155.71c0,.17-.19.39-.5.58a4,4,0,0,1-3.48,0c-.32-.19-.51-.41-.51-.58s.19-.4.51-.59a4,4,0,0,1,3.48,0C202.84,155.31,203,155.54,203,155.71Z"/><path class="cls-3" d="M223.06,163a2.73,2.73,0,0,1-1.64,2.18,10,10,0,0,1-9,0,2.76,2.76,0,0,1-1.66-2.18,2.81,2.81,0,0,1,1.66-2.18,10,10,0,0,1,9,0A2.78,2.78,0,0,1,223.06,163Z"/><path class="cls-3" d="M162.93,349.55h-2.3a.74.74,0,0,1-.74-.75V313.64L151,308.38V348.8a.73.73,0,0,1-.74.75h-2.29a10.51,10.51,0,0,0-10.51,10.5v45a10.51,10.51,0,0,0,10.51,10.5h15A10.51,10.51,0,0,0,173.42,405v-45A10.51,10.51,0,0,0,162.93,349.55Zm-14.77,60.08-.74,1.29a11.17,11.17,0,0,1-5.57-9.66v-36a11.19,11.19,0,0,1,5.57-9.66l.74,1.29a9.68,9.68,0,0,0-4.83,8.37v36A9.68,9.68,0,0,0,148.16,409.63Zm3.75.65h-1.49v-54h1.49Zm8.84,0h-1.48v-54h1.48Zm8.58-9a11.2,11.2,0,0,1-5.57,9.66l-.74-1.29a9.7,9.7,0,0,0,4.83-8.37v-36a9.7,9.7,0,0,0-4.83-8.37l.74-1.29a11.21,11.21,0,0,1,5.57,9.66Z"/><path class="cls-3" d="M213.27,377.69H211a.73.73,0,0,1-.74-.74V343.28L201.3,338V377a.73.73,0,0,1-.74.74h-2.28a10.52,10.52,0,0,0-10.51,10.51v45a10.51,10.51,0,0,0,10.51,10.5h15a10.51,10.51,0,0,0,10.49-10.5v-45A10.51,10.51,0,0,0,213.27,377.69ZM198.5,437.78l-.74,1.29a11.19,11.19,0,0,1-5.57-9.66v-36a11.19,11.19,0,0,1,5.57-9.66l.74,1.29a9.68,9.68,0,0,0-4.83,8.37v36A9.68,9.68,0,0,0,198.5,437.78Zm3.75.65h-1.49V384.37h1.49Zm8.84,0h-1.48V384.37h1.48Zm8.58-9a11.21,11.21,0,0,1-5.57,9.66l-.74-1.29a9.7,9.7,0,0,0,4.83-8.37v-36a9.7,9.7,0,0,0-4.83-8.37l.74-1.29a11.21,11.21,0,0,1,5.57,9.66Z"/><polygon class="cls-4" points="169.34 236.25 169.34 296.18 165.98 298.39 165.98 234.32 169.34 236.25"/><polygon class="cls-4" points="183.79 244.6 183.79 304.54 180.44 306.75 180.44 242.66 183.79 244.6"/><polygon class="cls-4" points="198.25 252.94 198.25 312.87 194.9 315.07 194.9 251 198.25 252.94"/><path class="cls-4" d="M214.19,194.53V343l30.87-17.56c12.34-7,22.38-24.29,22.38-38.56V262.3a.74.74,0,0,1,.37-.63L347,216.22a49.4,49.4,0,0,0,24.71-42.71v-69.9Zm47.42,61.86a.76.76,0,0,1-.37.65L248,264.66a.86.86,0,0,1-.37.1.76.76,0,0,1-.37-.1L242,261.59a.76.76,0,0,1-.37-.65V250.79a.78.78,0,0,1,.37-.65l13.2-7.61a.7.7,0,0,1,.74,0l5.32,3.06a.79.79,0,0,1,.37.65Zm3.11-41a15.31,15.31,0,0,1-15.41,0,15.24,15.24,0,0,1-7.7-13.34,15.47,15.47,0,0,1,7.75-13.37l80.16-45.87a9.85,9.85,0,0,1,14.74,8.55v17.67a.76.76,0,0,1-.37.65Zm25.79,24.14a.79.79,0,0,1-.37.66l-13.2,7.61a.73.73,0,0,1-.74,0l-5.32-3.07a.76.76,0,0,1-.37-.63V234a.72.72,0,0,1,.37-.63l13.2-7.63a.7.7,0,0,1,.74,0l5.23,3,.09,0a.41.41,0,0,1,.15.14.73.73,0,0,1,.22.52Zm61.78-32.69a.72.72,0,0,1-.37.63l-43.35,25.07a.84.84,0,0,1-.37.09.75.75,0,0,1-.37-.09l-7.57-4.37a.72.72,0,0,1-.37-.64V213.1a.7.7,0,0,1,.37-.63l43.36-25.07a.75.75,0,0,1,.74,0l7.56,4.37a.76.76,0,0,1,.37.64Z"/><polygon class="cls-4" points="350.81 193.7 350.81 206.44 308.94 230.65 308.94 217.91 350.81 193.7"/><polygon class="cls-4" points="289.03 230.69 289.03 239.15 277.31 245.9 277.31 237.46 289.03 230.69"/><polygon class="cls-4" points="260.13 247.52 260.13 255.96 248.41 262.73 248.41 254.29 260.13 247.52"/><path class="cls-4" d="M342.78,151.39v16.4L316,152.31l14.3-8.18a8.36,8.36,0,0,1,4.15-1.11,8.41,8.41,0,0,1,8.37,8.37Z"/></svg>