<svg id="Layer_1" data-name="Layer 1" xmlns="http://www.w3.org/2000/svg" viewBox="0 0 500 500"><defs><style>.cls-1{fill:#825b2b;}.cls-2{fill:#e8e7df;}.cls-3{fill:#d59f5e;}.cls-4{fill:#73b3a9;}</style></defs><path class="cls-1" d="M382.15,292.45a.74.74,0,0,0-.72,0l-4.24,2.12L336,315.13a.73.73,0,0,0-.42.67l0,3.63a.75.75,0,0,0,.36.62.74.74,0,0,0,.38.12.77.77,0,0,0,.34-.08l45.24-22.63a.45.45,0,0,0,.12-.06l.09,0,.08-.05a1.2,1.2,0,0,0,.22-.35,1.38,1.38,0,0,0,0-.2l0-3.66A.76.76,0,0,0,382.15,292.45Zm0,27.44a.74.74,0,0,0-.72-.05L377.19,322,336,342.57a.72.72,0,0,0-.42.66l0,3.63a.8.8,0,0,0,.36.63.72.72,0,0,0,.38.1.65.65,0,0,0,.34-.07L382,324.88l.19-.1a.42.42,0,0,0,.14-.12.66.66,0,0,0,.16-.28,1.38,1.38,0,0,0,0-.2l0-3.66A.73.73,0,0,0,382.15,319.89Zm0-13.72a.74.74,0,0,0-.72,0l-4.24,2.12L336,328.85a.73.73,0,0,0-.42.67l0,3.63a.79.79,0,0,0,.36.62.74.74,0,0,0,.38.12.67.67,0,0,0,.34-.09L382,311.16a.27.27,0,0,0,.12-.06s0,0,.07,0a.24.24,0,0,0,.08-.06,1,1,0,0,0,.22-.34,1.38,1.38,0,0,0,0-.2l0-3.66A.74.74,0,0,0,382.15,306.17Zm0-27.44a.74.74,0,0,0-.72,0l-4.24,2.12L336,301.41a.76.76,0,0,0-.42.69l0,3.62a.8.8,0,0,0,.36.63.72.72,0,0,0,.38.1.94.94,0,0,0,.34-.07L382,283.74l.19-.1a1.49,1.49,0,0,0,.14-.12.78.78,0,0,0,.16-.28,1.33,1.33,0,0,0,0-.21l0-3.66A.79.79,0,0,0,382.15,278.73Zm0,54.88a.69.69,0,0,0-.72-.05l-4.24,2.12L336,356.29a.7.7,0,0,0-.42.66l0,3.63a.78.78,0,0,0,.36.62.65.65,0,0,0,.38.11.77.77,0,0,0,.34-.08L382,338.6a.72.72,0,0,0,.19-.11l.14-.11a.67.67,0,0,0,.07-.11.76.76,0,0,0,.09-.18,1.06,1.06,0,0,0,0-.2l0-3.66A.73.73,0,0,0,382.15,333.61ZM260.91,209.46V419.65a.78.78,0,0,1-.37.65l-9.78,5.63v21.7l18.77-10.84V425.51a.74.74,0,0,1,.37-.63l101.35-58.51a.75.75,0,0,1,.74,0,.77.77,0,0,1,.37.64v10.42l18.78-10.85V134.29ZM230.38,382.64v2.86l2.47-1.42Zm-90.89-154.5a2.39,2.39,0,0,0-1.15-.37,1.26,1.26,0,0,0-.54.12,1.77,1.77,0,0,0-.62,1.58,6.84,6.84,0,0,0,3,5.29,1.71,1.71,0,0,0,1.68.24,1.75,1.75,0,0,0,.63-1.57A6.84,6.84,0,0,0,139.49,228.14Zm7.5-5.48a1.55,1.55,0,0,0-.74-.24.58.58,0,0,0-.28.06,1.11,1.11,0,0,0-.36,1,4.79,4.79,0,0,0,2.12,3.66,1.06,1.06,0,0,0,1,.16,1.1,1.1,0,0,0,.36-1A4.79,4.79,0,0,0,147,222.66ZM136.9,194.07a1.52,1.52,0,0,0-.74-.24.57.57,0,0,0-.27.06,1.06,1.06,0,0,0-.37,1,4.73,4.73,0,0,0,2.12,3.66,1.08,1.08,0,0,0,1,.18,1.1,1.1,0,0,0,.36-1A4.73,4.73,0,0,0,136.9,194.07ZM136,182.63a1.62,1.62,0,0,0-.74-.24.62.62,0,0,0-.29.06,1.14,1.14,0,0,0-.35,1,4.73,4.73,0,0,0,2.12,3.66,1,1,0,0,0,1,.16c.23-.11.36-.49.36-1A4.77,4.77,0,0,0,136,182.63Zm258.14-53.48L252.23,47.23a4.41,4.41,0,0,0-4.44,0L116.38,123.12c-.12,0-.22.11-.34.17l-9.69,5.62a2.82,2.82,0,0,0-.46.23,4.42,4.42,0,0,0-2.22,3.83l0,210.64V367a4.44,4.44,0,0,0,2.22,3.85l20.27,11.71a4.47,4.47,0,0,0,4.44,0,4.45,4.45,0,0,0,2.22-3.85v-4l92.45,53.36v9.14a4.45,4.45,0,0,0,2.22,3.85l20.27,11.7a4.38,4.38,0,0,0,1.36.51,4.26,4.26,0,0,0,.86.09,4.48,4.48,0,0,0,2.22-.6l20.27-11.7a4.45,4.45,0,0,0,2.22-3.85v-9.14l92.45-53.36v4a4.46,4.46,0,0,0,2.23,3.85,4.58,4.58,0,0,0,2.22.59,4.48,4.48,0,0,0,2.22-.59l20.27-11.71a4.44,4.44,0,0,0,2.22-3.85V133A4.45,4.45,0,0,0,394.11,129.15ZM128.28,180.26s-.14,0-.31-.1a2.53,2.53,0,0,1-1.11-1.93.88.88,0,0,1,0-.31h0a.68.68,0,0,1,.29.1,2.55,2.55,0,0,1,1.11,1.93A.56.56,0,0,1,128.28,180.26Zm.19,7.85a2.39,2.39,0,0,0-1.17-.37,1.24,1.24,0,0,0-.52.12,1.79,1.79,0,0,0-.64,1.59,6.89,6.89,0,0,0,3.07,5.29,1.71,1.71,0,0,0,1.67.23,1.74,1.74,0,0,0,.64-1.57A6.9,6.9,0,0,0,128.47,188.11Zm9.78,29.94a.56.56,0,0,0-.28-.1h0a.81.81,0,0,0-.05.31,2.57,2.57,0,0,0,1.1,1.93.67.67,0,0,0,.32.1.81.81,0,0,0,.05-.31A2.55,2.55,0,0,0,138.25,218.05Zm9.67,16a1.39,1.39,0,0,0-.74-.24.49.49,0,0,0-.27.06,1.11,1.11,0,0,0-.35,1,4.7,4.7,0,0,0,2.1,3.66,1.08,1.08,0,0,0,1,.18c.23-.12.36-.49.36-1A4.7,4.7,0,0,0,147.92,234.1Zm82.56,144.2V381l3.85,2.22.06,0v-2.43Zm8.8-151.55V222l-12.62,7.29V390.91l12.62-7.29v-4.8l-3.41,1.95v2.85a.77.77,0,0,1-.35.64l-.8.46h0l-4.68,2.7a.75.75,0,0,1-.74,0,.72.72,0,0,1-.37-.64V229.92a.72.72,0,0,1,.37-.64l2.59-1.49,2.9-1.69a.7.7,0,0,1,.74,0,.71.71,0,0,1,.37.63v2Zm142.87,65.7a.74.74,0,0,0-.72,0l-4.24,2.12L336,315.13a.73.73,0,0,0-.42.67l0,3.63a.75.75,0,0,0,.36.62.74.74,0,0,0,.38.12.77.77,0,0,0,.34-.08l45.24-22.63a.45.45,0,0,0,.12-.06l.09,0,.08-.05a1.2,1.2,0,0,0,.22-.35,1.38,1.38,0,0,0,0-.2l0-3.66A.76.76,0,0,0,382.15,292.45Zm0,41.16a.69.69,0,0,0-.72-.05l-4.24,2.12L336,356.29a.7.7,0,0,0-.42.66l0,3.63a.78.78,0,0,0,.36.62.65.65,0,0,0,.38.11.77.77,0,0,0,.34-.08L382,338.6a.72.72,0,0,0,.19-.11l.14-.11a.67.67,0,0,0,.07-.11.76.76,0,0,0,.09-.18,1.06,1.06,0,0,0,0-.2l0-3.66A.73.73,0,0,0,382.15,333.61Zm0-13.72a.74.74,0,0,0-.72-.05L377.19,322,336,342.57a.72.72,0,0,0-.42.66l0,3.63a.8.8,0,0,0,.36.63.72.72,0,0,0,.38.1.65.65,0,0,0,.34-.07L382,324.88l.19-.1a.42.42,0,0,0,.14-.12.66.66,0,0,0,.16-.28,1.38,1.38,0,0,0,0-.2l0-3.66A.73.73,0,0,0,382.15,319.89Zm0-13.72a.74.74,0,0,0-.72,0l-4.24,2.12L336,328.85a.73.73,0,0,0-.42.67l0,3.63a.79.79,0,0,0,.36.62.74.74,0,0,0,.38.12.67.67,0,0,0,.34-.09L382,311.16a.27.27,0,0,0,.12-.06s0,0,.07,0a.24.24,0,0,0,.08-.06,1,1,0,0,0,.22-.34,1.38,1.38,0,0,0,0-.2l0-3.66A.74.74,0,0,0,382.15,306.17Zm0-27.44a.74.74,0,0,0-.72,0l-4.24,2.12L336,301.41a.76.76,0,0,0-.42.69l0,3.62a.8.8,0,0,0,.36.63.72.72,0,0,0,.38.1.94.94,0,0,0,.34-.07L382,283.74l.19-.1a1.49,1.49,0,0,0,.14-.12.78.78,0,0,0,.16-.28,1.33,1.33,0,0,0,0-.21l0-3.66A.79.79,0,0,0,382.15,278.73ZM260.91,209.46V419.65a.78.78,0,0,1-.37.65l-9.78,5.63v21.7l18.77-10.84V425.51a.74.74,0,0,1,.37-.63l101.35-58.51a.75.75,0,0,1,.74,0,.77.77,0,0,1,.37.64v10.42l18.78-10.85V134.29ZM230.38,382.64v2.86l2.47-1.42Zm-90.89-154.5a2.39,2.39,0,0,0-1.15-.37,1.26,1.26,0,0,0-.54.12,1.77,1.77,0,0,0-.62,1.58,6.84,6.84,0,0,0,3,5.29,1.71,1.71,0,0,0,1.68.24,1.75,1.75,0,0,0,.63-1.57A6.84,6.84,0,0,0,139.49,228.14Zm7.5-5.48a1.55,1.55,0,0,0-.74-.24.58.58,0,0,0-.28.06,1.11,1.11,0,0,0-.36,1,4.79,4.79,0,0,0,2.12,3.66,1.06,1.06,0,0,0,1,.16,1.1,1.1,0,0,0,.36-1A4.79,4.79,0,0,0,147,222.66ZM136.9,194.07a1.52,1.52,0,0,0-.74-.24.57.57,0,0,0-.27.06,1.06,1.06,0,0,0-.37,1,4.73,4.73,0,0,0,2.12,3.66,1.08,1.08,0,0,0,1,.18,1.1,1.1,0,0,0,.36-1A4.73,4.73,0,0,0,136.9,194.07ZM136,182.63a1.62,1.62,0,0,0-.74-.24.62.62,0,0,0-.29.06,1.14,1.14,0,0,0-.35,1,4.73,4.73,0,0,0,2.12,3.66,1,1,0,0,0,1,.16c.23-.11.36-.49.36-1A4.77,4.77,0,0,0,136,182.63Zm255.17-50.06L250,51.08,119,126.72l-.74.43h0l-9.39,5.43-.75.43h0l0,0v.86l0,209.78V367l20.27,11.71V367l101.33,58.5v11.71l19.54,11.29.73.41.74-.43,19.52-11.27V425.51L371.62,367v11.71L391.89,367V133ZM128.28,180.26s-.14,0-.31-.1a2.53,2.53,0,0,1-1.11-1.93.88.88,0,0,1,0-.31h0a.68.68,0,0,1,.29.1,2.55,2.55,0,0,1,1.11,1.93A.56.56,0,0,1,128.28,180.26Zm.19,7.85a2.39,2.39,0,0,0-1.17-.37,1.24,1.24,0,0,0-.52.12,1.79,1.79,0,0,0-.64,1.59,6.89,6.89,0,0,0,3.07,5.29,1.71,1.71,0,0,0,1.67.23,1.74,1.74,0,0,0,.64-1.57A6.9,6.9,0,0,0,128.47,188.11Zm9.78,29.94a.56.56,0,0,0-.28-.1h0a.81.81,0,0,0-.05.31,2.57,2.57,0,0,0,1.1,1.93.67.67,0,0,0,.32.1.81.81,0,0,0,.05-.31A2.55,2.55,0,0,0,138.25,218.05Zm9.67,16a1.39,1.39,0,0,0-.74-.24.49.49,0,0,0-.27.06,1.11,1.11,0,0,0-.35,1,4.7,4.7,0,0,0,2.1,3.66,1.08,1.08,0,0,0,1,.18c.23-.12.36-.49.36-1A4.7,4.7,0,0,0,147.92,234.1Zm82.56,144.2V381l3.85,2.22.06,0v-2.43Zm8.8-151.55V222l-12.62,7.29V390.91l12.62-7.29v-4.8l-3.41,1.95v2.85a.77.77,0,0,1-.35.64l-.8.46h0l-4.68,2.7a.75.75,0,0,1-.74,0,.72.72,0,0,1-.37-.64V229.92a.72.72,0,0,1,.37-.64l2.59-1.49,2.9-1.69a.7.7,0,0,1,.74,0,.71.71,0,0,1,.37.63v2ZM250,448.92l.74-.43,19.52-11.27V425.51L371.62,367v11.71L391.89,367V133l-.75-.43L250,51.08,119,126.72l-.74.43h0l-9.39,5.43-.75.43h0l0,0v.86l0,209.78V367l20.27,11.71V367l101.33,58.5v11.71l19.54,11.29.73.41m0,0V426.24m0,0v-.76"/><path class="cls-2" d="M382.15,292.45a.74.74,0,0,0-.72,0l-4.24,2.12L336,315.13a.73.73,0,0,0-.42.67l0,3.63a.75.75,0,0,0,.36.62.74.74,0,0,0,.38.12.77.77,0,0,0,.34-.08l45.24-22.63a.45.45,0,0,0,.12-.06l.09,0,.08-.05a1.2,1.2,0,0,0,.22-.35,1.38,1.38,0,0,0,0-.2l0-3.66A.76.76,0,0,0,382.15,292.45Zm0,41.16a.69.69,0,0,0-.72-.05l-4.24,2.12L336,356.29a.7.7,0,0,0-.42.66l0,3.63a.78.78,0,0,0,.36.62.65.65,0,0,0,.38.11.77.77,0,0,0,.34-.08L382,338.6a.72.72,0,0,0,.19-.11l.14-.11a.67.67,0,0,0,.07-.11.76.76,0,0,0,.09-.18,1.06,1.06,0,0,0,0-.2l0-3.66A.73.73,0,0,0,382.15,333.61Zm0-13.72a.74.74,0,0,0-.72-.05L377.19,322,336,342.57a.72.72,0,0,0-.42.66l0,3.63a.8.8,0,0,0,.36.63.72.72,0,0,0,.38.1.65.65,0,0,0,.34-.07L382,324.88l.19-.1a.42.42,0,0,0,.14-.12.66.66,0,0,0,.16-.28,1.38,1.38,0,0,0,0-.2l0-3.66A.73.73,0,0,0,382.15,319.89Zm0-13.72a.74.74,0,0,0-.72,0l-4.24,2.12L336,328.85a.73.73,0,0,0-.42.67l0,3.63a.79.79,0,0,0,.36.62.74.74,0,0,0,.38.12.67.67,0,0,0,.34-.09L382,311.16a.27.27,0,0,0,.12-.06s0,0,.07,0a.24.24,0,0,0,.08-.06,1,1,0,0,0,.22-.34,1.38,1.38,0,0,0,0-.2l0-3.66A.74.74,0,0,0,382.15,306.17Zm0-27.44a.74.74,0,0,0-.72,0l-4.24,2.12L336,301.41a.76.76,0,0,0-.42.69l0,3.62a.8.8,0,0,0,.36.63.72.72,0,0,0,.38.1.94.94,0,0,0,.34-.07L382,283.74l.19-.1a1.49,1.49,0,0,0,.14-.12.78.78,0,0,0,.16-.28,1.33,1.33,0,0,0,0-.21l0-3.66A.79.79,0,0,0,382.15,278.73Zm0,13.72a.74.74,0,0,0-.72,0l-4.24,2.12L336,315.13a.73.73,0,0,0-.42.67l0,3.63a.75.75,0,0,0,.36.62.74.74,0,0,0,.38.12.77.77,0,0,0,.34-.08l45.24-22.63a.45.45,0,0,0,.12-.06l.09,0,.08-.05a1.2,1.2,0,0,0,.22-.35,1.38,1.38,0,0,0,0-.2l0-3.66A.76.76,0,0,0,382.15,292.45Zm0,13.72a.74.74,0,0,0-.72,0l-4.24,2.12L336,328.85a.73.73,0,0,0-.42.67l0,3.63a.79.79,0,0,0,.36.62.74.74,0,0,0,.38.12.67.67,0,0,0,.34-.09L382,311.16a.27.27,0,0,0,.12-.06s0,0,.07,0a.24.24,0,0,0,.08-.06,1,1,0,0,0,.22-.34,1.38,1.38,0,0,0,0-.2l0-3.66A.74.74,0,0,0,382.15,306.17Zm0,13.72a.74.74,0,0,0-.72-.05L377.19,322,336,342.57a.72.72,0,0,0-.42.66l0,3.63a.8.8,0,0,0,.36.63.72.72,0,0,0,.38.1.65.65,0,0,0,.34-.07L382,324.88l.19-.1a.42.42,0,0,0,.14-.12.66.66,0,0,0,.16-.28,1.38,1.38,0,0,0,0-.2l0-3.66A.73.73,0,0,0,382.15,319.89Zm0,13.72a.69.69,0,0,0-.72-.05l-4.24,2.12L336,356.29a.7.7,0,0,0-.42.66l0,3.63a.78.78,0,0,0,.36.62.65.65,0,0,0,.38.11.77.77,0,0,0,.34-.08L382,338.6a.72.72,0,0,0,.19-.11l.14-.11a.67.67,0,0,0,.07-.11.76.76,0,0,0,.09-.18,1.06,1.06,0,0,0,0-.2l0-3.66A.73.73,0,0,0,382.15,333.61Zm0-54.88a.74.74,0,0,0-.72,0l-4.24,2.12L336,301.41a.76.76,0,0,0-.42.69l0,3.62a.8.8,0,0,0,.36.63.72.72,0,0,0,.38.1.94.94,0,0,0,.34-.07L382,283.74l.19-.1a1.49,1.49,0,0,0,.14-.12.78.78,0,0,0,.16-.28,1.33,1.33,0,0,0,0-.21l0-3.66A.79.79,0,0,0,382.15,278.73Zm0,13.72a.74.74,0,0,0-.72,0l-4.24,2.12L336,315.13a.73.73,0,0,0-.42.67l0,3.63a.75.75,0,0,0,.36.62.74.74,0,0,0,.38.12.77.77,0,0,0,.34-.08l45.24-22.63a.45.45,0,0,0,.12-.06l.09,0,.08-.05a1.2,1.2,0,0,0,.22-.35,1.38,1.38,0,0,0,0-.2l0-3.66A.76.76,0,0,0,382.15,292.45Zm0,41.16a.69.69,0,0,0-.72-.05l-4.24,2.12L336,356.29a.7.7,0,0,0-.42.66l0,3.63a.78.78,0,0,0,.36.62.65.65,0,0,0,.38.11.77.77,0,0,0,.34-.08L382,338.6a.72.72,0,0,0,.19-.11l.14-.11a.67.67,0,0,0,.07-.11.76.76,0,0,0,.09-.18,1.06,1.06,0,0,0,0-.2l0-3.66A.73.73,0,0,0,382.15,333.61Zm0-13.72a.74.74,0,0,0-.72-.05L377.19,322,336,342.57a.72.72,0,0,0-.42.66l0,3.63a.8.8,0,0,0,.36.63.72.72,0,0,0,.38.1.65.65,0,0,0,.34-.07L382,324.88l.19-.1a.42.42,0,0,0,.14-.12.66.66,0,0,0,.16-.28,1.38,1.38,0,0,0,0-.2l0-3.66A.73.73,0,0,0,382.15,319.89Zm0-13.72a.74.74,0,0,0-.72,0l-4.24,2.12L336,328.85a.73.73,0,0,0-.42.67l0,3.63a.79.79,0,0,0,.36.62.74.74,0,0,0,.38.12.67.67,0,0,0,.34-.09L382,311.16a.27.27,0,0,0,.12-.06s0,0,.07,0a.24.24,0,0,0,.08-.06,1,1,0,0,0,.22-.34,1.38,1.38,0,0,0,0-.2l0-3.66A.74.74,0,0,0,382.15,306.17Zm0-27.44a.74.74,0,0,0-.72,0l-4.24,2.12L336,301.41a.76.76,0,0,0-.42.69l0,3.62a.8.8,0,0,0,.36.63.72.72,0,0,0,.38.1.94.94,0,0,0,.34-.07L382,283.74l.19-.1a1.49,1.49,0,0,0,.14-.12.78.78,0,0,0,.16-.28,1.33,1.33,0,0,0,0-.21l0-3.66A.79.79,0,0,0,382.15,278.73Zm0,13.72a.74.74,0,0,0-.72,0l-4.24,2.12L336,315.13a.73.73,0,0,0-.42.67l0,3.63a.75.75,0,0,0,.36.62.74.74,0,0,0,.38.12.77.77,0,0,0,.34-.08l45.24-22.63a.45.45,0,0,0,.12-.06l.09,0,.08-.05a1.2,1.2,0,0,0,.22-.35,1.38,1.38,0,0,0,0-.2l0-3.66A.76.76,0,0,0,382.15,292.45Zm0,13.72a.74.74,0,0,0-.72,0l-4.24,2.12L336,328.85a.73.73,0,0,0-.42.67l0,3.63a.79.79,0,0,0,.36.62.74.74,0,0,0,.38.12.67.67,0,0,0,.34-.09L382,311.16a.27.27,0,0,0,.12-.06s0,0,.07,0a.24.24,0,0,0,.08-.06,1,1,0,0,0,.22-.34,1.38,1.38,0,0,0,0-.2l0-3.66A.74.74,0,0,0,382.15,306.17Zm0,13.72a.74.74,0,0,0-.72-.05L377.19,322,336,342.57a.72.72,0,0,0-.42.66l0,3.63a.8.8,0,0,0,.36.63.72.72,0,0,0,.38.1.65.65,0,0,0,.34-.07L382,324.88l.19-.1a.42.42,0,0,0,.14-.12.66.66,0,0,0,.16-.28,1.38,1.38,0,0,0,0-.2l0-3.66A.73.73,0,0,0,382.15,319.89Zm0,13.72a.69.69,0,0,0-.72-.05l-4.24,2.12L336,356.29a.7.7,0,0,0-.42.66l0,3.63a.78.78,0,0,0,.36.62.65.65,0,0,0,.38.11.77.77,0,0,0,.34-.08L382,338.6a.72.72,0,0,0,.19-.11l.14-.11a.67.67,0,0,0,.07-.11.76.76,0,0,0,.09-.18,1.06,1.06,0,0,0,0-.2l0-3.66A.73.73,0,0,0,382.15,333.61Zm0-54.88a.74.74,0,0,0-.72,0l-4.24,2.12L336,301.41a.76.76,0,0,0-.42.69l0,3.62a.8.8,0,0,0,.36.63.72.72,0,0,0,.38.1.94.94,0,0,0,.34-.07L382,283.74l.19-.1a1.49,1.49,0,0,0,.14-.12.78.78,0,0,0,.16-.28,1.33,1.33,0,0,0,0-.21l0-3.66A.79.79,0,0,0,382.15,278.73Zm0,13.72a.74.74,0,0,0-.72,0l-4.24,2.12L336,315.13a.73.73,0,0,0-.42.67l0,3.63a.75.75,0,0,0,.36.62.74.74,0,0,0,.38.12.77.77,0,0,0,.34-.08l45.24-22.63a.45.45,0,0,0,.12-.06l.09,0,.08-.05a1.2,1.2,0,0,0,.22-.35,1.38,1.38,0,0,0,0-.2l0-3.66A.76.76,0,0,0,382.15,292.45Zm0,41.16a.69.69,0,0,0-.72-.05l-4.24,2.12L336,356.29a.7.7,0,0,0-.42.66l0,3.63a.78.78,0,0,0,.36.62.65.65,0,0,0,.38.11.77.77,0,0,0,.34-.08L382,338.6a.72.72,0,0,0,.19-.11l.14-.11a.67.67,0,0,0,.07-.11.76.76,0,0,0,.09-.18,1.06,1.06,0,0,0,0-.2l0-3.66A.73.73,0,0,0,382.15,333.61Zm0-13.72a.74.74,0,0,0-.72-.05L377.19,322,336,342.57a.72.72,0,0,0-.42.66l0,3.63a.8.8,0,0,0,.36.63.72.72,0,0,0,.38.1.65.65,0,0,0,.34-.07L382,324.88l.19-.1a.42.42,0,0,0,.14-.12.66.66,0,0,0,.16-.28,1.38,1.38,0,0,0,0-.2l0-3.66A.73.73,0,0,0,382.15,319.89Zm0-13.72a.74.74,0,0,0-.72,0l-4.24,2.12L336,328.85a.73.73,0,0,0-.42.67l0,3.63a.79.79,0,0,0,.36.62.74.74,0,0,0,.38.12.67.67,0,0,0,.34-.09L382,311.16a.27.27,0,0,0,.12-.06s0,0,.07,0a.24.24,0,0,0,.08-.06,1,1,0,0,0,.22-.34,1.38,1.38,0,0,0,0-.2l0-3.66A.74.74,0,0,0,382.15,306.17Zm0-27.44a.74.74,0,0,0-.72,0l-4.24,2.12L336,301.41a.76.76,0,0,0-.42.69l0,3.62a.8.8,0,0,0,.36.63.72.72,0,0,0,.38.1.94.94,0,0,0,.34-.07L382,283.74l.19-.1a1.49,1.49,0,0,0,.14-.12.78.78,0,0,0,.16-.28,1.33,1.33,0,0,0,0-.21l0-3.66A.79.79,0,0,0,382.15,278.73Zm0,13.72a.74.74,0,0,0-.72,0l-4.24,2.12L336,315.13a.73.73,0,0,0-.42.67l0,3.63a.75.75,0,0,0,.36.62.74.74,0,0,0,.38.12.77.77,0,0,0,.34-.08l45.24-22.63a.45.45,0,0,0,.12-.06l.09,0,.08-.05a1.2,1.2,0,0,0,.22-.35,1.38,1.38,0,0,0,0-.2l0-3.66A.76.76,0,0,0,382.15,292.45Zm0,13.72a.74.74,0,0,0-.72,0l-4.24,2.12L336,328.85a.73.73,0,0,0-.42.67l0,3.63a.79.79,0,0,0,.36.62.74.74,0,0,0,.38.12.67.67,0,0,0,.34-.09L382,311.16a.27.27,0,0,0,.12-.06s0,0,.07,0a.24.24,0,0,0,.08-.06,1,1,0,0,0,.22-.34,1.38,1.38,0,0,0,0-.2l0-3.66A.74.74,0,0,0,382.15,306.17Zm0,13.72a.74.74,0,0,0-.72-.05L377.19,322,336,342.57a.72.72,0,0,0-.42.66l0,3.63a.8.8,0,0,0,.36.63.72.72,0,0,0,.38.1.65.65,0,0,0,.34-.07L382,324.88l.19-.1a.42.42,0,0,0,.14-.12.66.66,0,0,0,.16-.28,1.38,1.38,0,0,0,0-.2l0-3.66A.73.73,0,0,0,382.15,319.89Zm0,13.72a.69.69,0,0,0-.72-.05l-4.24,2.12L336,356.29a.7.7,0,0,0-.42.66l0,3.63a.78.78,0,0,0,.36.62.65.65,0,0,0,.38.11.77.77,0,0,0,.34-.08L382,338.6a.72.72,0,0,0,.19-.11l.14-.11a.67.67,0,0,0,.07-.11.76.76,0,0,0,.09-.18,1.06,1.06,0,0,0,0-.2l0-3.66A.73.73,0,0,0,382.15,333.61Zm0-54.88a.74.74,0,0,0-.72,0l-4.24,2.12L336,301.41a.76.76,0,0,0-.42.69l0,3.62a.8.8,0,0,0,.36.63.72.72,0,0,0,.38.1.94.94,0,0,0,.34-.07L382,283.74l.19-.1a1.49,1.49,0,0,0,.14-.12.78.78,0,0,0,.16-.28,1.33,1.33,0,0,0,0-.21l0-3.66A.79.79,0,0,0,382.15,278.73Zm0,13.72a.74.74,0,0,0-.72,0l-4.24,2.12L336,315.13a.73.73,0,0,0-.42.67l0,3.63a.75.75,0,0,0,.36.62.74.74,0,0,0,.38.12.77.77,0,0,0,.34-.08l45.24-22.63a.45.45,0,0,0,.12-.06l.09,0,.08-.05a1.2,1.2,0,0,0,.22-.35,1.38,1.38,0,0,0,0-.2l0-3.66A.76.76,0,0,0,382.15,292.45Zm0,41.16a.69.69,0,0,0-.72-.05l-4.24,2.12L336,356.29a.7.7,0,0,0-.42.66l0,3.63a.78.78,0,0,0,.36.62.65.65,0,0,0,.38.11.77.77,0,0,0,.34-.08L382,338.6a.72.72,0,0,0,.19-.11l.14-.11a.67.67,0,0,0,.07-.11.76.76,0,0,0,.09-.18,1.06,1.06,0,0,0,0-.2l0-3.66A.73.73,0,0,0,382.15,333.61Zm0-13.72a.74.74,0,0,0-.72-.05L377.19,322,336,342.57a.72.72,0,0,0-.42.66l0,3.63a.8.8,0,0,0,.36.63.72.72,0,0,0,.38.1.65.65,0,0,0,.34-.07L382,324.88l.19-.1a.42.42,0,0,0,.14-.12.66.66,0,0,0,.16-.28,1.38,1.38,0,0,0,0-.2l0-3.66A.73.73,0,0,0,382.15,319.89Zm0-13.72a.74.74,0,0,0-.72,0l-4.24,2.12L336,328.85a.73.73,0,0,0-.42.67l0,3.63a.79.79,0,0,0,.36.62.74.74,0,0,0,.38.12.67.67,0,0,0,.34-.09L382,311.16a.27.27,0,0,0,.12-.06s0,0,.07,0a.24.24,0,0,0,.08-.06,1,1,0,0,0,.22-.34,1.38,1.38,0,0,0,0-.2l0-3.66A.74.74,0,0,0,382.15,306.17Zm0-27.44a.74.74,0,0,0-.72,0l-4.24,2.12L336,301.41a.76.76,0,0,0-.42.69l0,3.62a.8.8,0,0,0,.36.63.72.72,0,0,0,.38.1.94.94,0,0,0,.34-.07L382,283.74l.19-.1a1.49,1.49,0,0,0,.14-.12.78.78,0,0,0,.16-.28,1.33,1.33,0,0,0,0-.21l0-3.66A.79.79,0,0,0,382.15,278.73Zm0,13.72a.74.74,0,0,0-.72,0l-4.24,2.12L336,315.13a.73.73,0,0,0-.42.67l0,3.63a.75.75,0,0,0,.36.62.74.74,0,0,0,.38.12.77.77,0,0,0,.34-.08l45.24-22.63a.45.45,0,0,0,.12-.06l.09,0,.08-.05a1.2,1.2,0,0,0,.22-.35,1.38,1.38,0,0,0,0-.2l0-3.66A.76.76,0,0,0,382.15,292.45Zm0,13.72a.74.74,0,0,0-.72,0l-4.24,2.12L336,328.85a.73.73,0,0,0-.42.67l0,3.63a.79.79,0,0,0,.36.62.74.74,0,0,0,.38.12.67.67,0,0,0,.34-.09L382,311.16a.27.27,0,0,0,.12-.06s0,0,.07,0a.24.24,0,0,0,.08-.06,1,1,0,0,0,.22-.34,1.38,1.38,0,0,0,0-.2l0-3.66A.74.74,0,0,0,382.15,306.17Zm0,13.72a.74.74,0,0,0-.72-.05L377.19,322,336,342.57a.72.72,0,0,0-.42.66l0,3.63a.8.8,0,0,0,.36.63.72.72,0,0,0,.38.1.65.65,0,0,0,.34-.07L382,324.88l.19-.1a.42.42,0,0,0,.14-.12.66.66,0,0,0,.16-.28,1.38,1.38,0,0,0,0-.2l0-3.66A.73.73,0,0,0,382.15,319.89Zm0,13.72a.69.69,0,0,0-.72-.05l-4.24,2.12L336,356.29a.7.7,0,0,0-.42.66l0,3.63a.78.78,0,0,0,.36.62.65.65,0,0,0,.38.11.77.77,0,0,0,.34-.08L382,338.6a.72.72,0,0,0,.19-.11l.14-.11a.67.67,0,0,0,.07-.11.76.76,0,0,0,.09-.18,1.06,1.06,0,0,0,0-.2l0-3.66A.73.73,0,0,0,382.15,333.61Zm0-54.88a.74.74,0,0,0-.72,0l-4.24,2.12L336,301.41a.76.76,0,0,0-.42.69l0,3.62a.8.8,0,0,0,.36.63.72.72,0,0,0,.38.1.94.94,0,0,0,.34-.07L382,283.74l.19-.1a1.49,1.49,0,0,0,.14-.12.78.78,0,0,0,.16-.28,1.33,1.33,0,0,0,0-.21l0-3.66A.79.79,0,0,0,382.15,278.73Zm0,13.72a.74.74,0,0,0-.72,0l-4.24,2.12L336,315.13a.73.73,0,0,0-.42.67l0,3.63a.75.75,0,0,0,.36.62.74.74,0,0,0,.38.12.77.77,0,0,0,.34-.08l45.24-22.63a.45.45,0,0,0,.12-.06l.09,0,.08-.05a1.2,1.2,0,0,0,.22-.35,1.38,1.38,0,0,0,0-.2l0-3.66A.76.76,0,0,0,382.15,292.45Zm0,41.16a.69.69,0,0,0-.72-.05l-4.24,2.12L336,356.29a.7.7,0,0,0-.42.66l0,3.63a.78.78,0,0,0,.36.62.65.65,0,0,0,.38.11.77.77,0,0,0,.34-.08L382,338.6a.72.72,0,0,0,.19-.11l.14-.11a.67.67,0,0,0,.07-.11.76.76,0,0,0,.09-.18,1.06,1.06,0,0,0,0-.2l0-3.66A.73.73,0,0,0,382.15,333.61Zm0-13.72a.74.74,0,0,0-.72-.05L377.19,322,336,342.57a.72.72,0,0,0-.42.66l0,3.63a.8.8,0,0,0,.36.63.72.72,0,0,0,.38.1.65.65,0,0,0,.34-.07L382,324.88l.19-.1a.42.42,0,0,0,.14-.12.66.66,0,0,0,.16-.28,1.38,1.38,0,0,0,0-.2l0-3.66A.73.73,0,0,0,382.15,319.89Zm0-13.72a.74.74,0,0,0-.72,0l-4.24,2.12L336,328.85a.73.73,0,0,0-.42.67l0,3.63a.79.79,0,0,0,.36.62.74.74,0,0,0,.38.12.67.67,0,0,0,.34-.09L382,311.16a.27.27,0,0,0,.12-.06s0,0,.07,0a.24.24,0,0,0,.08-.06,1,1,0,0,0,.22-.34,1.38,1.38,0,0,0,0-.2l0-3.66A.74.74,0,0,0,382.15,306.17Zm0-27.44a.74.74,0,0,0-.72,0l-4.24,2.12L336,301.41a.76.76,0,0,0-.42.69l0,3.62a.8.8,0,0,0,.36.63.72.72,0,0,0,.38.1.94.94,0,0,0,.34-.07L382,283.74l.19-.1a1.49,1.49,0,0,0,.14-.12.78.78,0,0,0,.16-.28,1.33,1.33,0,0,0,0-.21l0-3.66A.79.79,0,0,0,382.15,278.73Zm0,13.72a.74.74,0,0,0-.72,0l-4.24,2.12L336,315.13a.73.73,0,0,0-.42.67l0,3.63a.75.75,0,0,0,.36.62.74.74,0,0,0,.38.12.77.77,0,0,0,.34-.08l45.24-22.63a.45.45,0,0,0,.12-.06l.09,0,.08-.05a1.2,1.2,0,0,0,.22-.35,1.38,1.38,0,0,0,0-.2l0-3.66A.76.76,0,0,0,382.15,292.45Zm0,13.72a.74.74,0,0,0-.72,0l-4.24,2.12L336,328.85a.73.73,0,0,0-.42.67l0,3.63a.79.79,0,0,0,.36.62.74.74,0,0,0,.38.12.67.67,0,0,0,.34-.09L382,311.16a.27.27,0,0,0,.12-.06s0,0,.07,0a.24.24,0,0,0,.08-.06,1,1,0,0,0,.22-.34,1.38,1.38,0,0,0,0-.2l0-3.66A.74.74,0,0,0,382.15,306.17Zm0,13.72a.74.74,0,0,0-.72-.05L377.19,322,336,342.57a.72.72,0,0,0-.42.66l0,3.63a.8.8,0,0,0,.36.63.72.72,0,0,0,.38.1.65.65,0,0,0,.34-.07L382,324.88l.19-.1a.42.42,0,0,0,.14-.12.66.66,0,0,0,.16-.28,1.38,1.38,0,0,0,0-.2l0-3.66A.73.73,0,0,0,382.15,319.89Zm0,13.72a.69.69,0,0,0-.72-.05l-4.24,2.12L336,356.29a.7.7,0,0,0-.42.66l0,3.63a.78.78,0,0,0,.36.62.65.65,0,0,0,.38.11.77.77,0,0,0,.34-.08L382,338.6a.72.72,0,0,0,.19-.11l.14-.11a.67.67,0,0,0,.07-.11.76.76,0,0,0,.09-.18,1.06,1.06,0,0,0,0-.2l0-3.66A.73.73,0,0,0,382.15,333.61Zm0-54.88a.74.74,0,0,0-.72,0l-4.24,2.12L336,301.41a.76.76,0,0,0-.42.69l0,3.62a.8.8,0,0,0,.36.63.72.72,0,0,0,.38.1.94.94,0,0,0,.34-.07L382,283.74l.19-.1a1.49,1.49,0,0,0,.14-.12.78.78,0,0,0,.16-.28,1.33,1.33,0,0,0,0-.21l0-3.66A.79.79,0,0,0,382.15,278.73Zm0,13.72a.74.74,0,0,0-.72,0l-4.24,2.12L336,315.13a.73.73,0,0,0-.42.67l0,3.63a.75.75,0,0,0,.36.62.74.74,0,0,0,.38.12.77.77,0,0,0,.34-.08l45.24-22.63a.45.45,0,0,0,.12-.06l.09,0,.08-.05a1.2,1.2,0,0,0,.22-.35,1.38,1.38,0,0,0,0-.2l0-3.66A.76.76,0,0,0,382.15,292.45Zm0,41.16a.69.69,0,0,0-.72-.05l-4.24,2.12L336,356.29a.7.7,0,0,0-.42.66l0,3.63a.78.78,0,0,0,.36.62.65.65,0,0,0,.38.11.77.77,0,0,0,.34-.08L382,338.6a.72.72,0,0,0,.19-.11l.14-.11a.67.67,0,0,0,.07-.11.76.76,0,0,0,.09-.18,1.06,1.06,0,0,0,0-.2l0-3.66A.73.73,0,0,0,382.15,333.61Zm0-13.72a.74.74,0,0,0-.72-.05L377.19,322,336,342.57a.72.72,0,0,0-.42.66l0,3.63a.8.8,0,0,0,.36.63.72.72,0,0,0,.38.1.65.65,0,0,0,.34-.07L382,324.88l.19-.1a.42.42,0,0,0,.14-.12.66.66,0,0,0,.16-.28,1.38,1.38,0,0,0,0-.2l0-3.66A.73.73,0,0,0,382.15,319.89Zm0-13.72a.74.74,0,0,0-.72,0l-4.24,2.12L336,328.85a.73.73,0,0,0-.42.67l0,3.63a.79.79,0,0,0,.36.62.74.74,0,0,0,.38.12.67.67,0,0,0,.34-.09L382,311.16a.27.27,0,0,0,.12-.06s0,0,.07,0a.24.24,0,0,0,.08-.06,1,1,0,0,0,.22-.34,1.38,1.38,0,0,0,0-.2l0-3.66A.74.74,0,0,0,382.15,306.17Zm0-27.44a.74.74,0,0,0-.72,0l-4.24,2.12L336,301.41a.76.76,0,0,0-.42.69l0,3.62a.8.8,0,0,0,.36.63.72.72,0,0,0,.38.1.94.94,0,0,0,.34-.07L382,283.74l.19-.1a1.49,1.49,0,0,0,.14-.12.78.78,0,0,0,.16-.28,1.33,1.33,0,0,0,0-.21l0-3.66A.79.79,0,0,0,382.15,278.73Zm-.72,13.69-4.24,2.12L336,315.13a.73.73,0,0,0-.42.67l0,3.63a.75.75,0,0,0,.36.62.74.74,0,0,0,.38.12.77.77,0,0,0,.34-.08l45.24-22.63a.45.45,0,0,0,.12-.06l.09,0,.08-.05a1.2,1.2,0,0,0,.22-.35,1.38,1.38,0,0,0,0-.2l0-3.66a.76.76,0,0,0-.36-.64A.74.74,0,0,0,381.43,292.42Zm0,13.72-4.24,2.12L336,328.85a.73.73,0,0,0-.42.67l0,3.63a.79.79,0,0,0,.36.62.74.74,0,0,0,.38.12.67.67,0,0,0,.34-.09L382,311.16a.27.27,0,0,0,.12-.06s0,0,.07,0a.24.24,0,0,0,.08-.06,1,1,0,0,0,.22-.34,1.38,1.38,0,0,0,0-.2l0-3.66a.75.75,0,0,0-1.08-.67Zm0,13.7L377.19,322,336,342.57a.72.72,0,0,0-.42.66l0,3.63a.8.8,0,0,0,.36.63.72.72,0,0,0,.38.1.65.65,0,0,0,.34-.07L382,324.88l.19-.1a.42.42,0,0,0,.14-.12.66.66,0,0,0,.16-.28,1.38,1.38,0,0,0,0-.2l0-3.66a.77.77,0,0,0-1.08-.68Zm0,13.72-4.24,2.12L336,356.29a.7.7,0,0,0-.42.66l0,3.63a.78.78,0,0,0,.36.62.65.65,0,0,0,.38.11.77.77,0,0,0,.34-.08L382,338.6a.72.72,0,0,0,.19-.11l.14-.11a.67.67,0,0,0,.07-.11.76.76,0,0,0,.09-.18,1.06,1.06,0,0,0,0-.2l0-3.66a.73.73,0,0,0-.36-.62A.69.69,0,0,0,381.43,333.56ZM336,306.35a.72.72,0,0,0,.38.1.94.94,0,0,0,.34-.07L382,283.74l.19-.1a1.49,1.49,0,0,0,.14-.12.78.78,0,0,0,.16-.28,1.33,1.33,0,0,0,0-.21l0-3.66a.79.79,0,0,0-.36-.64.74.74,0,0,0-.72,0l-4.24,2.12L336,301.41a.76.76,0,0,0-.42.69l0,3.62A.8.8,0,0,0,336,306.35Zm55.16-173.78L250,51.08,119,126.72l-.74.43h0l-9.39,5.43-.75.43h0l0,0v.86l0,209.78V367l20.27,11.71V367l101.33,58.5v11.71l19.54,11.29.73.41.74-.43,19.52-11.27V425.51L371.62,367v11.71L391.89,367V133ZM126.78,187.86a1.24,1.24,0,0,1,.52-.12,2.39,2.39,0,0,1,1.17.37,6.9,6.9,0,0,1,3.05,5.29,1.74,1.74,0,0,1-.64,1.57,1.71,1.71,0,0,1-1.67-.23,6.89,6.89,0,0,1-3.07-5.29A1.79,1.79,0,0,1,126.78,187.86Zm1.5-7.6s-.14,0-.31-.1a2.53,2.53,0,0,1-1.11-1.93.88.88,0,0,1,0-.31h0a.68.68,0,0,1,.29.1,2.55,2.55,0,0,1,1.11,1.93A.56.56,0,0,1,128.28,180.26Zm9.52,47.63a1.26,1.26,0,0,1,.54-.12,2.39,2.39,0,0,1,1.15.37,6.84,6.84,0,0,1,3,5.29,1.75,1.75,0,0,1-.63,1.57,1.71,1.71,0,0,1-1.68-.24,6.84,6.84,0,0,1-3-5.29A1.77,1.77,0,0,1,137.8,227.89Zm1.51-7.6a.67.67,0,0,1-.32-.1,2.57,2.57,0,0,1-1.1-1.93.81.81,0,0,1,.05-.31h0a.56.56,0,0,1,.28.1,2.55,2.55,0,0,1,1.11,1.93A.81.81,0,0,1,139.31,220.29Zm-.65-21.6a1.08,1.08,0,0,1-1-.18,4.73,4.73,0,0,1-2.12-3.66,1.06,1.06,0,0,1,.37-1,.57.57,0,0,1,.27-.06,1.52,1.52,0,0,1,.74.24,4.73,4.73,0,0,1,2.12,3.66A1.1,1.1,0,0,1,138.66,198.69Zm-.95-11.44a1,1,0,0,1-1-.16,4.73,4.73,0,0,1-2.12-3.66,1.14,1.14,0,0,1,.35-1,.62.62,0,0,1,.29-.06,1.62,1.62,0,0,1,.74.24,4.77,4.77,0,0,1,2.1,3.66C138.07,186.76,137.94,187.14,137.71,187.25Zm9.2,46.67a.49.49,0,0,1,.27-.06,1.39,1.39,0,0,1,.74.24,4.7,4.7,0,0,1,2.12,3.66c0,.47-.13.84-.36,1a1.08,1.08,0,0,1-1-.18,4.7,4.7,0,0,1-2.1-3.66A1.11,1.11,0,0,1,146.91,233.92Zm1.84-6.64a1.06,1.06,0,0,1-1-.16,4.79,4.79,0,0,1-2.12-3.66,1.11,1.11,0,0,1,.36-1,.58.58,0,0,1,.28-.06,1.55,1.55,0,0,1,.74.24,4.79,4.79,0,0,1,2.12,3.66A1.1,1.1,0,0,1,148.75,227.28Zm81.63,155.36,2.47,1.44-2.47,1.42Zm4,.55-.06,0L230.48,381v-2.7l3.91,2.46Zm4.89-156.44-3.41,2v-2a.71.71,0,0,0-.37-.63.7.7,0,0,0-.74,0l-2.9,1.69-2.59,1.49a.72.72,0,0,0-.37.64V386.79a.72.72,0,0,0,.37.64.75.75,0,0,0,.74,0l4.68-2.7h0l.8-.46a.77.77,0,0,0,.35-.64v-2.85l3.41-1.95v4.8l-12.62,7.29V229.24L239.28,222ZM250.75,268V215.33l8.68-5v208.9l-8.67,5Zm140.39,98.57-18.78,10.85V367a.77.77,0,0,0-.37-.64.75.75,0,0,0-.74,0L269.9,424.88a.74.74,0,0,0-.37.63v11.28l-18.77,10.84v-21.7l9.78-5.63a.78.78,0,0,0,.37-.65V209.46l130.23-75.17ZM336,306.35a.72.72,0,0,0,.38.1.94.94,0,0,0,.34-.07L382,283.74l.19-.1a1.49,1.49,0,0,0,.14-.12.78.78,0,0,0,.16-.28,1.33,1.33,0,0,0,0-.21l0-3.66a.79.79,0,0,0-.36-.64.74.74,0,0,0-.72,0l-4.24,2.12L336,301.41a.76.76,0,0,0-.42.69l0,3.62A.8.8,0,0,0,336,306.35Zm0,27.42a.74.74,0,0,0,.38.12.67.67,0,0,0,.34-.09L382,311.16a.27.27,0,0,0,.12-.06s0,0,.07,0a.24.24,0,0,0,.08-.06,1,1,0,0,0,.22-.34,1.38,1.38,0,0,0,0-.2l0-3.66a.75.75,0,0,0-1.08-.67l-4.24,2.12L336,328.85a.73.73,0,0,0-.42.67l0,3.63A.79.79,0,0,0,336,333.77Zm0,13.72a.72.72,0,0,0,.38.1.65.65,0,0,0,.34-.07L382,324.88l.19-.1a.42.42,0,0,0,.14-.12.66.66,0,0,0,.16-.28,1.38,1.38,0,0,0,0-.2l0-3.66a.77.77,0,0,0-1.08-.68L377.19,322,336,342.57a.72.72,0,0,0-.42.66l0,3.63A.8.8,0,0,0,336,347.49Zm0,13.71a.65.65,0,0,0,.38.11.77.77,0,0,0,.34-.08L382,338.6a.72.72,0,0,0,.19-.11l.14-.11a.67.67,0,0,0,.07-.11.76.76,0,0,0,.09-.18,1.06,1.06,0,0,0,0-.2l0-3.66a.73.73,0,0,0-.36-.62.69.69,0,0,0-.72-.05l-4.24,2.12L336,356.29a.7.7,0,0,0-.42.66l0,3.63A.78.78,0,0,0,336,361.2Zm0-41.15a.74.74,0,0,0,.38.12.77.77,0,0,0,.34-.08l45.24-22.63a.45.45,0,0,0,.12-.06l.09,0,.08-.05a1.2,1.2,0,0,0,.22-.35,1.38,1.38,0,0,0,0-.2l0-3.66a.76.76,0,0,0-.36-.64.74.74,0,0,0-.72,0l-4.24,2.12L336,315.13a.73.73,0,0,0-.42.67l0,3.63A.75.75,0,0,0,336,320.05Zm46.17-41.32a.74.74,0,0,0-.72,0l-4.24,2.12L336,301.41a.76.76,0,0,0-.42.69l0,3.62a.8.8,0,0,0,.36.63.72.72,0,0,0,.38.1.94.94,0,0,0,.34-.07L382,283.74l.19-.1a1.49,1.49,0,0,0,.14-.12.78.78,0,0,0,.16-.28,1.33,1.33,0,0,0,0-.21l0-3.66A.79.79,0,0,0,382.15,278.73Zm0,54.88a.69.69,0,0,0-.72-.05l-4.24,2.12L336,356.29a.7.7,0,0,0-.42.66l0,3.63a.78.78,0,0,0,.36.62.65.65,0,0,0,.38.11.77.77,0,0,0,.34-.08L382,338.6a.72.72,0,0,0,.19-.11l.14-.11a.67.67,0,0,0,.07-.11.76.76,0,0,0,.09-.18,1.06,1.06,0,0,0,0-.2l0-3.66A.73.73,0,0,0,382.15,333.61Zm0-13.72a.74.74,0,0,0-.72-.05L377.19,322,336,342.57a.72.72,0,0,0-.42.66l0,3.63a.8.8,0,0,0,.36.63.72.72,0,0,0,.38.1.65.65,0,0,0,.34-.07L382,324.88l.19-.1a.42.42,0,0,0,.14-.12.66.66,0,0,0,.16-.28,1.38,1.38,0,0,0,0-.2l0-3.66A.73.73,0,0,0,382.15,319.89Zm0-13.72a.74.74,0,0,0-.72,0l-4.24,2.12L336,328.85a.73.73,0,0,0-.42.67l0,3.63a.79.79,0,0,0,.36.62.74.74,0,0,0,.38.12.67.67,0,0,0,.34-.09L382,311.16a.27.27,0,0,0,.12-.06s0,0,.07,0a.24.24,0,0,0,.08-.06,1,1,0,0,0,.22-.34,1.38,1.38,0,0,0,0-.2l0-3.66A.74.74,0,0,0,382.15,306.17Zm0-13.72a.74.74,0,0,0-.72,0l-4.24,2.12L336,315.13a.73.73,0,0,0-.42.67l0,3.63a.75.75,0,0,0,.36.62.74.74,0,0,0,.38.12.77.77,0,0,0,.34-.08l45.24-22.63a.45.45,0,0,0,.12-.06l.09,0,.08-.05a1.2,1.2,0,0,0,.22-.35,1.38,1.38,0,0,0,0-.2l0-3.66A.76.76,0,0,0,382.15,292.45Zm0-13.72a.74.74,0,0,0-.72,0l-4.24,2.12L336,301.41a.76.76,0,0,0-.42.69l0,3.62a.8.8,0,0,0,.36.63.72.72,0,0,0,.38.1.94.94,0,0,0,.34-.07L382,283.74l.19-.1a1.49,1.49,0,0,0,.14-.12.78.78,0,0,0,.16-.28,1.33,1.33,0,0,0,0-.21l0-3.66A.79.79,0,0,0,382.15,278.73Zm0,27.44a.74.74,0,0,0-.72,0l-4.24,2.12L336,328.85a.73.73,0,0,0-.42.67l0,3.63a.79.79,0,0,0,.36.62.74.74,0,0,0,.38.12.67.67,0,0,0,.34-.09L382,311.16a.27.27,0,0,0,.12-.06s0,0,.07,0a.24.24,0,0,0,.08-.06,1,1,0,0,0,.22-.34,1.38,1.38,0,0,0,0-.2l0-3.66A.74.74,0,0,0,382.15,306.17Zm0,13.72a.74.74,0,0,0-.72-.05L377.19,322,336,342.57a.72.72,0,0,0-.42.66l0,3.63a.8.8,0,0,0,.36.63.72.72,0,0,0,.38.1.65.65,0,0,0,.34-.07L382,324.88l.19-.1a.42.42,0,0,0,.14-.12.66.66,0,0,0,.16-.28,1.38,1.38,0,0,0,0-.2l0-3.66A.73.73,0,0,0,382.15,319.89Zm0,13.72a.69.69,0,0,0-.72-.05l-4.24,2.12L336,356.29a.7.7,0,0,0-.42.66l0,3.63a.78.78,0,0,0,.36.62.65.65,0,0,0,.38.11.77.77,0,0,0,.34-.08L382,338.6a.72.72,0,0,0,.19-.11l.14-.11a.67.67,0,0,0,.07-.11.76.76,0,0,0,.09-.18,1.06,1.06,0,0,0,0-.2l0-3.66A.73.73,0,0,0,382.15,333.61Zm0-41.16a.74.74,0,0,0-.72,0l-4.24,2.12L336,315.13a.73.73,0,0,0-.42.67l0,3.63a.75.75,0,0,0,.36.62.74.74,0,0,0,.38.12.77.77,0,0,0,.34-.08l45.24-22.63a.45.45,0,0,0,.12-.06l.09,0,.08-.05a1.2,1.2,0,0,0,.22-.35,1.38,1.38,0,0,0,0-.2l0-3.66A.76.76,0,0,0,382.15,292.45Zm0-13.72a.74.74,0,0,0-.72,0l-4.24,2.12L336,301.41a.76.76,0,0,0-.42.69l0,3.62a.8.8,0,0,0,.36.63.72.72,0,0,0,.38.1.94.94,0,0,0,.34-.07L382,283.74l.19-.1a1.49,1.49,0,0,0,.14-.12.78.78,0,0,0,.16-.28,1.33,1.33,0,0,0,0-.21l0-3.66A.79.79,0,0,0,382.15,278.73Zm0,54.88a.69.69,0,0,0-.72-.05l-4.24,2.12L336,356.29a.7.7,0,0,0-.42.66l0,3.63a.78.78,0,0,0,.36.62.65.65,0,0,0,.38.11.77.77,0,0,0,.34-.08L382,338.6a.72.72,0,0,0,.19-.11l.14-.11a.67.67,0,0,0,.07-.11.76.76,0,0,0,.09-.18,1.06,1.06,0,0,0,0-.2l0-3.66A.73.73,0,0,0,382.15,333.61Zm0-13.72a.74.74,0,0,0-.72-.05L377.19,322,336,342.57a.72.72,0,0,0-.42.66l0,3.63a.8.8,0,0,0,.36.63.72.72,0,0,0,.38.1.65.65,0,0,0,.34-.07L382,324.88l.19-.1a.42.42,0,0,0,.14-.12.66.66,0,0,0,.16-.28,1.38,1.38,0,0,0,0-.2l0-3.66A.73.73,0,0,0,382.15,319.89Zm0-13.72a.74.74,0,0,0-.72,0l-4.24,2.12L336,328.85a.73.73,0,0,0-.42.67l0,3.63a.79.79,0,0,0,.36.62.74.74,0,0,0,.38.12.67.67,0,0,0,.34-.09L382,311.16a.27.27,0,0,0,.12-.06s0,0,.07,0a.24.24,0,0,0,.08-.06,1,1,0,0,0,.22-.34,1.38,1.38,0,0,0,0-.2l0-3.66A.74.74,0,0,0,382.15,306.17Zm0-13.72a.74.74,0,0,0-.72,0l-4.24,2.12L336,315.13a.73.73,0,0,0-.42.67l0,3.63a.75.75,0,0,0,.36.62.74.74,0,0,0,.38.12.77.77,0,0,0,.34-.08l45.24-22.63a.45.45,0,0,0,.12-.06l.09,0,.08-.05a1.2,1.2,0,0,0,.22-.35,1.38,1.38,0,0,0,0-.2l0-3.66A.76.76,0,0,0,382.15,292.45Zm0-13.72a.74.74,0,0,0-.72,0l-4.24,2.12L336,301.41a.76.76,0,0,0-.42.69l0,3.62a.8.8,0,0,0,.36.63.72.72,0,0,0,.38.1.94.94,0,0,0,.34-.07L382,283.74l.19-.1a1.49,1.49,0,0,0,.14-.12.78.78,0,0,0,.16-.28,1.33,1.33,0,0,0,0-.21l0-3.66A.79.79,0,0,0,382.15,278.73Zm0,27.44a.74.74,0,0,0-.72,0l-4.24,2.12L336,328.85a.73.73,0,0,0-.42.67l0,3.63a.79.79,0,0,0,.36.62.74.74,0,0,0,.38.12.67.67,0,0,0,.34-.09L382,311.16a.27.27,0,0,0,.12-.06s0,0,.07,0a.24.24,0,0,0,.08-.06,1,1,0,0,0,.22-.34,1.38,1.38,0,0,0,0-.2l0-3.66A.74.74,0,0,0,382.15,306.17Zm0,13.72a.74.74,0,0,0-.72-.05L377.19,322,336,342.57a.72.72,0,0,0-.42.66l0,3.63a.8.8,0,0,0,.36.63.72.72,0,0,0,.38.1.65.65,0,0,0,.34-.07L382,324.88l.19-.1a.42.42,0,0,0,.14-.12.66.66,0,0,0,.16-.28,1.38,1.38,0,0,0,0-.2l0-3.66A.73.73,0,0,0,382.15,319.89Zm0,13.72a.69.69,0,0,0-.72-.05l-4.24,2.12L336,356.29a.7.7,0,0,0-.42.66l0,3.63a.78.78,0,0,0,.36.62.65.65,0,0,0,.38.11.77.77,0,0,0,.34-.08L382,338.6a.72.72,0,0,0,.19-.11l.14-.11a.67.67,0,0,0,.07-.11.76.76,0,0,0,.09-.18,1.06,1.06,0,0,0,0-.2l0-3.66A.73.73,0,0,0,382.15,333.61Zm0-41.16a.74.74,0,0,0-.72,0l-4.24,2.12L336,315.13a.73.73,0,0,0-.42.67l0,3.63a.75.75,0,0,0,.36.62.74.74,0,0,0,.38.12.77.77,0,0,0,.34-.08l45.24-22.63a.45.45,0,0,0,.12-.06l.09,0,.08-.05a1.2,1.2,0,0,0,.22-.35,1.38,1.38,0,0,0,0-.2l0-3.66A.76.76,0,0,0,382.15,292.45Zm0-13.72a.74.74,0,0,0-.72,0l-4.24,2.12L336,301.41a.76.76,0,0,0-.42.69l0,3.62a.8.8,0,0,0,.36.63.72.72,0,0,0,.38.1.94.94,0,0,0,.34-.07L382,283.74l.19-.1a1.49,1.49,0,0,0,.14-.12.78.78,0,0,0,.16-.28,1.33,1.33,0,0,0,0-.21l0-3.66A.79.79,0,0,0,382.15,278.73Zm0,54.88a.69.69,0,0,0-.72-.05l-4.24,2.12L336,356.29a.7.7,0,0,0-.42.66l0,3.63a.78.78,0,0,0,.36.62.65.65,0,0,0,.38.11.77.77,0,0,0,.34-.08L382,338.6a.72.72,0,0,0,.19-.11l.14-.11a.67.67,0,0,0,.07-.11.76.76,0,0,0,.09-.18,1.06,1.06,0,0,0,0-.2l0-3.66A.73.73,0,0,0,382.15,333.61Zm0-13.72a.74.74,0,0,0-.72-.05L377.19,322,336,342.57a.72.72,0,0,0-.42.66l0,3.63a.8.8,0,0,0,.36.63.72.72,0,0,0,.38.1.65.65,0,0,0,.34-.07L382,324.88l.19-.1a.42.42,0,0,0,.14-.12.66.66,0,0,0,.16-.28,1.38,1.38,0,0,0,0-.2l0-3.66A.73.73,0,0,0,382.15,319.89Zm0-13.72a.74.74,0,0,0-.72,0l-4.24,2.12L336,328.85a.73.73,0,0,0-.42.67l0,3.63a.79.79,0,0,0,.36.62.74.74,0,0,0,.38.12.67.67,0,0,0,.34-.09L382,311.16a.27.27,0,0,0,.12-.06s0,0,.07,0a.24.24,0,0,0,.08-.06,1,1,0,0,0,.22-.34,1.38,1.38,0,0,0,0-.2l0-3.66A.74.74,0,0,0,382.15,306.17Zm0-13.72a.74.74,0,0,0-.72,0l-4.24,2.12L336,315.13a.73.73,0,0,0-.42.67l0,3.63a.75.75,0,0,0,.36.62.74.74,0,0,0,.38.12.77.77,0,0,0,.34-.08l45.24-22.63a.45.45,0,0,0,.12-.06l.09,0,.08-.05a1.2,1.2,0,0,0,.22-.35,1.38,1.38,0,0,0,0-.2l0-3.66A.76.76,0,0,0,382.15,292.45Zm0-13.72a.74.74,0,0,0-.72,0l-4.24,2.12L336,301.41a.76.76,0,0,0-.42.69l0,3.62a.8.8,0,0,0,.36.63.72.72,0,0,0,.38.1.94.94,0,0,0,.34-.07L382,283.74l.19-.1a1.49,1.49,0,0,0,.14-.12.78.78,0,0,0,.16-.28,1.33,1.33,0,0,0,0-.21l0-3.66A.79.79,0,0,0,382.15,278.73Zm0,27.44a.74.74,0,0,0-.72,0l-4.24,2.12L336,328.85a.73.73,0,0,0-.42.67l0,3.63a.79.79,0,0,0,.36.62.74.74,0,0,0,.38.12.67.67,0,0,0,.34-.09L382,311.16a.27.27,0,0,0,.12-.06s0,0,.07,0a.24.24,0,0,0,.08-.06,1,1,0,0,0,.22-.34,1.38,1.38,0,0,0,0-.2l0-3.66A.74.74,0,0,0,382.15,306.17Zm0,13.72a.74.74,0,0,0-.72-.05L377.19,322,336,342.57a.72.72,0,0,0-.42.66l0,3.63a.8.8,0,0,0,.36.63.72.72,0,0,0,.38.1.65.65,0,0,0,.34-.07L382,324.88l.19-.1a.42.42,0,0,0,.14-.12.66.66,0,0,0,.16-.28,1.38,1.38,0,0,0,0-.2l0-3.66A.73.73,0,0,0,382.15,319.89Zm0,13.72a.69.69,0,0,0-.72-.05l-4.24,2.12L336,356.29a.7.7,0,0,0-.42.66l0,3.63a.78.78,0,0,0,.36.62.65.65,0,0,0,.38.11.77.77,0,0,0,.34-.08L382,338.6a.72.72,0,0,0,.19-.11l.14-.11a.67.67,0,0,0,.07-.11.76.76,0,0,0,.09-.18,1.06,1.06,0,0,0,0-.2l0-3.66A.73.73,0,0,0,382.15,333.61Zm0-41.16a.74.74,0,0,0-.72,0l-4.24,2.12L336,315.13a.73.73,0,0,0-.42.67l0,3.63a.75.75,0,0,0,.36.62.74.74,0,0,0,.38.12.77.77,0,0,0,.34-.08l45.24-22.63a.45.45,0,0,0,.12-.06l.09,0,.08-.05a1.2,1.2,0,0,0,.22-.35,1.38,1.38,0,0,0,0-.2l0-3.66A.76.76,0,0,0,382.15,292.45Zm0-13.72a.74.74,0,0,0-.72,0l-4.24,2.12L336,301.41a.76.76,0,0,0-.42.69l0,3.62a.8.8,0,0,0,.36.63.72.72,0,0,0,.38.1.94.94,0,0,0,.34-.07L382,283.74l.19-.1a1.49,1.49,0,0,0,.14-.12.78.78,0,0,0,.16-.28,1.33,1.33,0,0,0,0-.21l0-3.66A.79.79,0,0,0,382.15,278.73Zm0,54.88a.69.69,0,0,0-.72-.05l-4.24,2.12L336,356.29a.7.7,0,0,0-.42.66l0,3.63a.78.78,0,0,0,.36.62.65.65,0,0,0,.38.11.77.77,0,0,0,.34-.08L382,338.6a.72.72,0,0,0,.19-.11l.14-.11a.67.67,0,0,0,.07-.11.76.76,0,0,0,.09-.18,1.06,1.06,0,0,0,0-.2l0-3.66A.73.73,0,0,0,382.15,333.61Zm0-13.72a.74.74,0,0,0-.72-.05L377.19,322,336,342.57a.72.72,0,0,0-.42.66l0,3.63a.8.8,0,0,0,.36.63.72.72,0,0,0,.38.1.65.65,0,0,0,.34-.07L382,324.88l.19-.1a.42.42,0,0,0,.14-.12.66.66,0,0,0,.16-.28,1.38,1.38,0,0,0,0-.2l0-3.66A.73.73,0,0,0,382.15,319.89Zm0-13.72a.74.74,0,0,0-.72,0l-4.24,2.12L336,328.85a.73.73,0,0,0-.42.67l0,3.63a.79.79,0,0,0,.36.62.74.74,0,0,0,.38.12.67.67,0,0,0,.34-.09L382,311.16a.27.27,0,0,0,.12-.06s0,0,.07,0a.24.24,0,0,0,.08-.06,1,1,0,0,0,.22-.34,1.38,1.38,0,0,0,0-.2l0-3.66A.74.74,0,0,0,382.15,306.17Zm0-13.72a.74.74,0,0,0-.72,0l-4.24,2.12L336,315.13a.73.73,0,0,0-.42.67l0,3.63a.75.75,0,0,0,.36.62.74.74,0,0,0,.38.12.77.77,0,0,0,.34-.08l45.24-22.63a.45.45,0,0,0,.12-.06l.09,0,.08-.05a1.2,1.2,0,0,0,.22-.35,1.38,1.38,0,0,0,0-.2l0-3.66A.76.76,0,0,0,382.15,292.45Zm0-13.72a.74.74,0,0,0-.72,0l-4.24,2.12L336,301.41a.76.76,0,0,0-.42.69l0,3.62a.8.8,0,0,0,.36.63.72.72,0,0,0,.38.1.94.94,0,0,0,.34-.07L382,283.74l.19-.1a1.49,1.49,0,0,0,.14-.12.78.78,0,0,0,.16-.28,1.33,1.33,0,0,0,0-.21l0-3.66A.79.79,0,0,0,382.15,278.73Zm0,27.44a.74.74,0,0,0-.72,0l-4.24,2.12L336,328.85a.73.73,0,0,0-.42.67l0,3.63a.79.79,0,0,0,.36.62.74.74,0,0,0,.38.12.67.67,0,0,0,.34-.09L382,311.16a.27.27,0,0,0,.12-.06s0,0,.07,0a.24.24,0,0,0,.08-.06,1,1,0,0,0,.22-.34,1.38,1.38,0,0,0,0-.2l0-3.66A.74.74,0,0,0,382.15,306.17Zm0,13.72a.74.74,0,0,0-.72-.05L377.19,322,336,342.57a.72.72,0,0,0-.42.66l0,3.63a.8.8,0,0,0,.36.63.72.72,0,0,0,.38.1.65.65,0,0,0,.34-.07L382,324.88l.19-.1a.42.42,0,0,0,.14-.12.66.66,0,0,0,.16-.28,1.38,1.38,0,0,0,0-.2l0-3.66A.73.73,0,0,0,382.15,319.89Zm0,13.72a.69.69,0,0,0-.72-.05l-4.24,2.12L336,356.29a.7.7,0,0,0-.42.66l0,3.63a.78.78,0,0,0,.36.62.65.65,0,0,0,.38.11.77.77,0,0,0,.34-.08L382,338.6a.72.72,0,0,0,.19-.11l.14-.11a.67.67,0,0,0,.07-.11.76.76,0,0,0,.09-.18,1.06,1.06,0,0,0,0-.2l0-3.66A.73.73,0,0,0,382.15,333.61Zm0-41.16a.74.74,0,0,0-.72,0l-4.24,2.12L336,315.13a.73.73,0,0,0-.42.67l0,3.63a.75.75,0,0,0,.36.62.74.74,0,0,0,.38.12.77.77,0,0,0,.34-.08l45.24-22.63a.45.45,0,0,0,.12-.06l.09,0,.08-.05a1.2,1.2,0,0,0,.22-.35,1.38,1.38,0,0,0,0-.2l0-3.66A.76.76,0,0,0,382.15,292.45Zm0-13.72a.74.74,0,0,0-.72,0l-4.24,2.12L336,301.41a.76.76,0,0,0-.42.69l0,3.62a.8.8,0,0,0,.36.63.72.72,0,0,0,.38.1.94.94,0,0,0,.34-.07L382,283.74l.19-.1a1.49,1.49,0,0,0,.14-.12.78.78,0,0,0,.16-.28,1.33,1.33,0,0,0,0-.21l0-3.66A.79.79,0,0,0,382.15,278.73Zm0,54.88a.69.69,0,0,0-.72-.05l-4.24,2.12L336,356.29a.7.7,0,0,0-.42.66l0,3.63a.78.78,0,0,0,.36.62.65.65,0,0,0,.38.11.77.77,0,0,0,.34-.08L382,338.6a.72.72,0,0,0,.19-.11l.14-.11a.67.67,0,0,0,.07-.11.76.76,0,0,0,.09-.18,1.06,1.06,0,0,0,0-.2l0-3.66A.73.73,0,0,0,382.15,333.61Zm0-13.72a.74.74,0,0,0-.72-.05L377.19,322,336,342.57a.72.72,0,0,0-.42.66l0,3.63a.8.8,0,0,0,.36.63.72.72,0,0,0,.38.1.65.65,0,0,0,.34-.07L382,324.88l.19-.1a.42.42,0,0,0,.14-.12.66.66,0,0,0,.16-.28,1.38,1.38,0,0,0,0-.2l0-3.66A.73.73,0,0,0,382.15,319.89Zm0-13.72a.74.74,0,0,0-.72,0l-4.24,2.12L336,328.85a.73.73,0,0,0-.42.67l0,3.63a.79.79,0,0,0,.36.62.74.74,0,0,0,.38.12.67.67,0,0,0,.34-.09L382,311.16a.27.27,0,0,0,.12-.06s0,0,.07,0a.24.24,0,0,0,.08-.06,1,1,0,0,0,.22-.34,1.38,1.38,0,0,0,0-.2l0-3.66A.74.74,0,0,0,382.15,306.17Zm0-13.72a.74.74,0,0,0-.72,0l-4.24,2.12L336,315.13a.73.73,0,0,0-.42.67l0,3.63a.75.75,0,0,0,.36.62.74.74,0,0,0,.38.12.77.77,0,0,0,.34-.08l45.24-22.63a.45.45,0,0,0,.12-.06l.09,0,.08-.05a1.2,1.2,0,0,0,.22-.35,1.38,1.38,0,0,0,0-.2l0-3.66A.76.76,0,0,0,382.15,292.45Zm0-13.72a.74.74,0,0,0-.72,0l-4.24,2.12L336,301.41a.76.76,0,0,0-.42.69l0,3.62a.8.8,0,0,0,.36.63.72.72,0,0,0,.38.1.94.94,0,0,0,.34-.07L382,283.74l.19-.1a1.49,1.49,0,0,0,.14-.12.78.78,0,0,0,.16-.28,1.33,1.33,0,0,0,0-.21l0-3.66A.79.79,0,0,0,382.15,278.73Zm0,27.44a.74.74,0,0,0-.72,0l-4.24,2.12L336,328.85a.73.73,0,0,0-.42.67l0,3.63a.79.79,0,0,0,.36.62.74.74,0,0,0,.38.12.67.67,0,0,0,.34-.09L382,311.16a.27.27,0,0,0,.12-.06s0,0,.07,0a.24.24,0,0,0,.08-.06,1,1,0,0,0,.22-.34,1.38,1.38,0,0,0,0-.2l0-3.66A.74.74,0,0,0,382.15,306.17Zm0,13.72a.74.74,0,0,0-.72-.05L377.19,322,336,342.57a.72.72,0,0,0-.42.66l0,3.63a.8.8,0,0,0,.36.63.72.72,0,0,0,.38.1.65.65,0,0,0,.34-.07L382,324.88l.19-.1a.42.42,0,0,0,.14-.12.66.66,0,0,0,.16-.28,1.38,1.38,0,0,0,0-.2l0-3.66A.73.73,0,0,0,382.15,319.89Zm0,13.72a.69.69,0,0,0-.72-.05l-4.24,2.12L336,356.29a.7.7,0,0,0-.42.66l0,3.63a.78.78,0,0,0,.36.62.65.65,0,0,0,.38.11.77.77,0,0,0,.34-.08L382,338.6a.72.72,0,0,0,.19-.11l.14-.11a.67.67,0,0,0,.07-.11.76.76,0,0,0,.09-.18,1.06,1.06,0,0,0,0-.2l0-3.66A.73.73,0,0,0,382.15,333.61Zm0-41.16a.74.74,0,0,0-.72,0l-4.24,2.12L336,315.13a.73.73,0,0,0-.42.67l0,3.63a.75.75,0,0,0,.36.62.74.74,0,0,0,.38.12.77.77,0,0,0,.34-.08l45.24-22.63a.45.45,0,0,0,.12-.06l.09,0,.08-.05a1.2,1.2,0,0,0,.22-.35,1.38,1.38,0,0,0,0-.2l0-3.66A.76.76,0,0,0,382.15,292.45Z"/><path class="cls-1" d="M136.71,181.34a2.53,2.53,0,0,0-2.51-.16,2.47,2.47,0,0,0-1.09,2.25,6.2,6.2,0,0,0,2.86,4.93,2.88,2.88,0,0,0,1.48.45,1.87,1.87,0,0,0,1-.27,2.46,2.46,0,0,0,1.1-2.25A6.24,6.24,0,0,0,136.71,181.34Zm1,5.91a1,1,0,0,1-1-.16,4.73,4.73,0,0,1-2.12-3.66,1.14,1.14,0,0,1,.35-1,.62.62,0,0,1,.29-.06,1.62,1.62,0,0,1,.74.24,4.77,4.77,0,0,1,2.1,3.66C138.07,186.76,137.94,187.14,137.71,187.25Z"/><path class="cls-1" d="M137.64,192.78a2.46,2.46,0,0,0-2.49-.18,2.49,2.49,0,0,0-1.11,2.25,6.22,6.22,0,0,0,2.86,5,2.87,2.87,0,0,0,1.48.43,2,2,0,0,0,1-.25,2.48,2.48,0,0,0,1.1-2.25A6.25,6.25,0,0,0,137.64,192.78Zm1,5.91a1.08,1.08,0,0,1-1-.18,4.73,4.73,0,0,1-2.12-3.66,1.06,1.06,0,0,1,.37-1,.57.57,0,0,1,.27-.06,1.52,1.52,0,0,1,.74.24,4.73,4.73,0,0,1,2.12,3.66A1.1,1.1,0,0,1,138.66,198.69Z"/><path class="cls-1" d="M129.21,186.82a2.83,2.83,0,0,0-4.55,2.63,8.25,8.25,0,0,0,3.81,6.56,3.82,3.82,0,0,0,1.9.58,2.5,2.5,0,0,0,1.26-.33A3.12,3.12,0,0,0,133,193.4,8.3,8.3,0,0,0,129.21,186.82Zm1.67,8.15a1.71,1.71,0,0,1-1.67-.23,6.89,6.89,0,0,1-3.07-5.29,1.79,1.79,0,0,1,.64-1.59,1.24,1.24,0,0,1,.52-.12,2.39,2.39,0,0,1,1.17.37,6.9,6.9,0,0,1,3.05,5.29A1.74,1.74,0,0,1,130.88,195Z"/><path class="cls-1" d="M128,176.74a1.64,1.64,0,0,0-2.6,1.49,4.08,4.08,0,0,0,1.86,3.22,2.15,2.15,0,0,0,1,.29,1.68,1.68,0,0,0,.76-.19,1.8,1.8,0,0,0,.8-1.6A4,4,0,0,0,128,176.74Zm.31,3.52s-.14,0-.31-.1a2.53,2.53,0,0,1-1.11-1.93.88.88,0,0,1,0-.31h0a.68.68,0,0,1,.29.1,2.55,2.55,0,0,1,1.11,1.93A.56.56,0,0,1,128.28,180.26Z"/><path class="cls-1" d="M392.26,132.37a.72.72,0,0,0-.75,0l-.37.2-.74.43L260.17,208.17v0l-.37.2-1.11.64L250,214h0l-.37.21a.72.72,0,0,0-.37.64v234a.73.73,0,0,0,.73.74.71.71,0,0,0,.37-.1h0l20.25-11.71a.7.7,0,0,0,.37-.63V425.94l99.87-57.64v10.42a.74.74,0,0,0,1.11.63l20.27-11.7a.75.75,0,0,0,.37-.64V133A.74.74,0,0,0,392.26,132.37ZM259.43,210.32l1.11-.65.37-.21,130.23-75.17V366.58l-18.78,10.85V367a.77.77,0,0,0-.37-.64.75.75,0,0,0-.74,0L269.9,424.88a.74.74,0,0,0-.37.63v11.28l-18.77,10.84V215.33Z"/><path class="cls-1" d="M210.72,193.06,108.89,134.29l140.38,81Zm0,0L108.89,134.29l140.38,81Zm0,0L108.89,134.29l140.38,81Zm0,0L108.89,134.29l140.38,81Zm0,0L108.89,134.29l140.38,81Zm0,0L108.89,134.29l140.38,81Zm39.66,21.2-.37-.21h0L109.63,133l-.74-.43-.38-.2a.7.7,0,0,0-.74,0,.72.72,0,0,0-.37.63V367a.73.73,0,0,0,.37.64L128,379.35a.74.74,0,0,0,1.11-.63V368.3L229,425.94v11.28a.74.74,0,0,0,.37.63l20.27,11.71a.74.74,0,0,0,.37.1.71.71,0,0,0,.37-.1h0a.76.76,0,0,0,.36-.64v-234A.72.72,0,0,0,250.38,214.26Zm-1.11,233.37-18.79-10.84V425.51a.7.7,0,0,0-.37-.63L128.78,366.37a.75.75,0,0,0-.74,0,.77.77,0,0,0-.37.64v10.42l-18.78-10.85V134.29l140.38,81ZM210.72,193.06,108.89,134.29l140.38,81Zm0,0L108.89,134.29l140.38,81Zm0,0L108.89,134.29l140.38,81Zm0,0L108.89,134.29l140.38,81Zm0,0L108.89,134.29l140.38,81Zm0,0L108.89,134.29l140.38,81Z"/><path class="cls-1" d="M392.26,132.37,250.38,50.44a.75.75,0,0,0-.74,0L118,126.46l-.09,0L108,132.26h0l-.17.11a.73.73,0,0,0,0,1.27l.34.19.75.43,0,0,101.83,58.77,38.55,22.27.37.2a.66.66,0,0,0,.37.11.62.62,0,0,0,.37-.11l.37-.2,8.68-5,1.11-.65.37-.21,130.23-75.17.75-.44.37-.21a.73.73,0,0,0,0-1.27Zm-132.09,75.8-.37.22-1.11.64L250,214,109.63,133l8.65-5h0l1.48-.85L250,51.94,390.4,133Z"/><path class="cls-1" d="M250.38,214.26l-.37-.21h0L109.63,133l-.74-.43-.4-.23a.74.74,0,0,0-.52-.08h0a.44.44,0,0,0-.2.08.73.73,0,0,0-.37.63l0,210.64a.72.72,0,0,0,.37.63l.37.21.75.43,140.38,81.05h0l.34.2a.69.69,0,0,0,.37.1h0l.18,0a.47.47,0,0,0,.17-.07.72.72,0,0,0,.37-.64v-1.27l0-156.22V214.9A.72.72,0,0,0,250.38,214.26Zm-141.52-80h0l101.86,58.81,38.55,22.27V268l0,156.22L108.89,343.18Z"/><path class="cls-1" d="M260.54,208.39a.75.75,0,0,0-.74,0l-1.11.64L250,214h0l-.37.21a.72.72,0,0,0-.37.64V268l0,156.22v1.27a.18.18,0,0,0,0,.1.19.19,0,0,0,0,.08h0a.68.68,0,0,0,.34.45.69.69,0,0,0,.37.1h0l.18,0a.44.44,0,0,0,.17-.06l.39-.22h0l9.78-5.63a.78.78,0,0,0,.37-.65V209A.76.76,0,0,0,260.54,208.39Zm-1.11,210.83-8.67,5h0l0,0,0-156.22V215.33l8.68-5Z"/><path class="cls-1" d="M234.39,230a.75.75,0,0,0,.31.61s.05,0,.06.05a.59.59,0,0,0,.2.07h.17a.87.87,0,0,0,.37-.08,0,0,0,0,1,0,0l4.87-2.81a.72.72,0,0,0,.37-.64v-6.52a.72.72,0,0,0-.38-.65.76.76,0,0,0-.73,0l-1.14.65L225.92,228h0l-.35.21a.76.76,0,0,0-.37.65V392.2a.74.74,0,0,0,.37.63v0a.8.8,0,0,0,.36.09.84.84,0,0,0,.38-.11l0,0,14-8.11a.72.72,0,0,0,.37-.64v-6.52a.63.63,0,0,0,0-.19.8.8,0,0,0-.17-.33,2,2,0,0,0-.18-.13.76.76,0,0,0-.73,0l-1.14.65-3.35,1.95h0l-.39.22a.76.76,0,0,0-.37.64v2.84l-.06,0-1.48.86-2.47,1.42V230.35l1.86-1.08,1.5-.86.65-.39Zm-2.53-2.2-2.59,1.49a.72.72,0,0,0-.37.64V386.79a.72.72,0,0,0,.37.64.75.75,0,0,0,.74,0l4.68-2.7h0l.8-.46a.77.77,0,0,0,.35-.64v-2.85l3.41-1.95v4.8l-12.62,7.29V229.24L239.28,222v4.8l-3.41,2v-2a.71.71,0,0,0-.37-.63.7.7,0,0,0-.74,0Z"/><path class="cls-1" d="M226.27,228.16l-.35-.21h0l-4.25-2.34L220.5,225a.73.73,0,0,0-.7,0l0,0a.72.72,0,0,0-.37.65V389a.73.73,0,0,0,.39.65l5.76,3.17v0a.8.8,0,0,0,.36.09.84.84,0,0,0,.38-.11l0,0a.76.76,0,0,0,.31-.6V228.81A.73.73,0,0,0,226.27,228.16Zm-5.39-1.28,4.3,2.36v161.7l-4.3-2.36Z"/><path class="cls-1" d="M240.38,220l-5.78-3.17a.69.69,0,0,0-.73,0L219.8,225l0,0a.73.73,0,0,0,0,1.28l1.09.61,4.3,2.36h0l.38.21a.8.8,0,0,0,.36.09.88.88,0,0,0,.37-.1l.37-.21L239.28,222l1.11-.65a.74.74,0,0,0,.37-.64A.72.72,0,0,0,240.38,220ZM225.92,228h0l-4.25-2.34,12.61-7.28,4.25,2.34Z"/><path class="cls-1" d="M240.73,377.34a.8.8,0,0,0-.17-.33,2,2,0,0,0-.18-.13l-5.78-3.17a.76.76,0,0,0-.73,0l-3.49,2-.95.55h0a0,0,0,0,0,0,0,.53.53,0,0,0-.15.11.7.7,0,0,0-.22.52.69.69,0,0,0,.36.62l1,.66.1.07,3.91,2.46.36.22a.67.67,0,0,0,.38.11.72.72,0,0,0,.37-.09l.37-.21v0l3.41-1.95,1.11-.65a.72.72,0,0,0,.37-.64A.63.63,0,0,0,240.73,377.34Zm-5.57,2.15h0l-4-2.51,3.06-1.78,4.27,2.34Z"/><path class="cls-1" d="M235.53,379.72l-.37-.23h0l-4-2.51-.8-.5-.24-.15a.72.72,0,0,0-.71,0h0a0,0,0,0,0,0,0,.53.53,0,0,0-.15.11.7.7,0,0,0-.22.52v4.48a.76.76,0,0,0,.37.63l1,.58,2.47,1.44,1.11.64a.76.76,0,0,0,.37.1.74.74,0,0,0,.36-.09h0l.8-.46a.77.77,0,0,0,.35-.64v-3.27A.71.71,0,0,0,235.53,379.72Zm-1.14,3.47-.06,0L230.48,381v-2.7l3.91,2.46Z"/><path class="cls-1" d="M235.5,226.1a.7.7,0,0,0-.74,0l-2.9,1.69a.69.69,0,0,0-.37.65.71.71,0,0,0,.38.63l.37.2,2.46,1.33.09.05.17.07h.17a.87.87,0,0,0,.37-.08,0,0,0,0,1,0,0,.73.73,0,0,0,.35-.64v-3.26A.71.71,0,0,0,235.5,226.1ZM234.39,228v.73l-.65-.34Z"/><path class="cls-1" d="M382.15,333.61a.69.69,0,0,0-.72-.05l-4.24,2.12L336,356.29a.7.7,0,0,0-.42.66l0,3.63a.78.78,0,0,0,.36.62.65.65,0,0,0,.38.11.77.77,0,0,0,.34-.08L382,338.6a.72.72,0,0,0,.19-.11.4.4,0,0,0,.14-.11.67.67,0,0,0,.07-.11.76.76,0,0,0,.09-.18,1.38,1.38,0,0,0,0-.2l0-3.66A.73.73,0,0,0,382.15,333.61Zm-45,25.77,0-2,40.5-20.25,1.83-.91,1.61-.81v2l-1.13.56Z"/><path class="cls-1" d="M382.15,333.61a.69.69,0,0,0-.72-.05l-4.24,2.12a.74.74,0,0,0,.09,1.36l.29.11,2.3.84,1.62.59a.66.66,0,0,0,.25.05l.22,0a.72.72,0,0,0,.19-.11.4.4,0,0,0,.14-.11.67.67,0,0,0,.07-.11.76.76,0,0,0,.09-.18,1.38,1.38,0,0,0,0-.2l0-3.66A.73.73,0,0,0,382.15,333.61ZM381,336.83l-1.6-.59,1.61-.81Z"/><path class="cls-1" d="M382.15,319.89a.74.74,0,0,0-.72-.05L377.19,322,336,342.57a.72.72,0,0,0-.42.66l0,3.63a.8.8,0,0,0,.36.63.72.72,0,0,0,.38.1.65.65,0,0,0,.34-.07L382,324.88l.19-.1a.42.42,0,0,0,.14-.12.66.66,0,0,0,.16-.28,1.06,1.06,0,0,0,0-.2l0-3.66A.73.73,0,0,0,382.15,319.89Zm-45,25.77,0-2,40.5-20.25,1.83-.91,1.61-.81v2l-1.13.56Z"/><path class="cls-1" d="M382.15,319.89a.74.74,0,0,0-.72-.05L377.19,322a.73.73,0,0,0-.4.71.72.72,0,0,0,.49.65l.29.11,2.3.84,1.62.59a.66.66,0,0,0,.25.05l.22,0,.19-.1a.42.42,0,0,0,.14-.12.66.66,0,0,0,.16-.28,1.06,1.06,0,0,0,0-.2l0-3.66A.73.73,0,0,0,382.15,319.89ZM381,323.12l-1.6-.6,1.61-.81Z"/><path class="cls-1" d="M382.15,306.17a.74.74,0,0,0-.72,0l-4.24,2.12L336,328.85a.73.73,0,0,0-.42.67l0,3.63a.79.79,0,0,0,.36.62.74.74,0,0,0,.38.12.67.67,0,0,0,.34-.09L382,311.16a.27.27,0,0,0,.12-.06.27.27,0,0,0,.15-.09,1,1,0,0,0,.22-.34,1.38,1.38,0,0,0,0-.2l0-3.66A.74.74,0,0,0,382.15,306.17ZM337.1,332l0-2,40.52-20.26,1.81-.91h0l1.6-.8v2l-1.13.56Z"/><path class="cls-1" d="M382.15,306.17a.74.74,0,0,0-.72,0l-4.24,2.12a.7.7,0,0,0-.4.69.72.72,0,0,0,.49.66l.31.11,2.28.83,1.62.6a.66.66,0,0,0,.25,0,.83.83,0,0,0,.22,0,.27.27,0,0,0,.12-.06s0,0,.07,0a.24.24,0,0,0,.08-.06,1,1,0,0,0,.22-.34,1.38,1.38,0,0,0,0-.2l0-3.66A.74.74,0,0,0,382.15,306.17ZM381,309.4l-1.59-.59,1.6-.8Z"/><path class="cls-1" d="M382.15,292.45a.74.74,0,0,0-.72,0l-4.24,2.12L336,315.13a.73.73,0,0,0-.42.67l0,3.63a.75.75,0,0,0,.36.62.74.74,0,0,0,.38.12.77.77,0,0,0,.34-.08l45.24-22.63a.45.45,0,0,0,.12-.06l.17-.1a1.2,1.2,0,0,0,.22-.35,1.38,1.38,0,0,0,0-.2l0-3.66A.76.76,0,0,0,382.15,292.45Zm-45,25.78,0-2L377.57,296l1.83-.91,1.61-.81v2l-1.13.56Z"/><path class="cls-1" d="M382.15,292.45a.74.74,0,0,0-.72,0l-4.24,2.12a.72.72,0,0,0-.4.7.74.74,0,0,0,.49.66l.29.11,2.3.84,1.62.59a.66.66,0,0,0,.25.05,1.38,1.38,0,0,0,.2,0,.45.45,0,0,0,.12-.06s.06,0,.09,0l.08-.05a1.2,1.2,0,0,0,.22-.35,1.38,1.38,0,0,0,0-.2l0-3.66A.76.76,0,0,0,382.15,292.45ZM381,295.68l-1.6-.58,1.61-.81Z"/><path class="cls-1" d="M382.15,278.73a.74.74,0,0,0-.72,0l-4.24,2.12L336,301.41a.76.76,0,0,0-.42.69l0,3.62a.8.8,0,0,0,.36.63.72.72,0,0,0,.38.1.94.94,0,0,0,.34-.07L382,283.74l.19-.1a.42.42,0,0,0,.14-.12.78.78,0,0,0,.16-.28,1.77,1.77,0,0,0,0-.21l0-3.66A.79.79,0,0,0,382.15,278.73Zm-45,25.79,0-2,40.5-20.25,1.83-.91,1.61-.81v2l-1.13.56Z"/><path class="cls-1" d="M382.15,278.73a.74.74,0,0,0-.72,0l-4.24,2.12a.73.73,0,0,0-.4.71.72.72,0,0,0,.49.65l.29.11,2.3.84,1.62.6a.93.93,0,0,0,.25,0l.22,0,.19-.1a.42.42,0,0,0,.14-.12.78.78,0,0,0,.16-.28,1.77,1.77,0,0,0,0-.21l0-3.66A.79.79,0,0,0,382.15,278.73ZM381,282l-1.6-.58,1.61-.81Z"/><path class="cls-1" d="M147.73,221.37a2.53,2.53,0,0,0-2.51-.16,2.47,2.47,0,0,0-1.09,2.25,6.21,6.21,0,0,0,2.86,4.93,2.91,2.91,0,0,0,1.48.45,2,2,0,0,0,1-.27,2.46,2.46,0,0,0,1.1-2.25A6.25,6.25,0,0,0,147.73,221.37Zm1,5.91a1.06,1.06,0,0,1-1-.16,4.79,4.79,0,0,1-2.12-3.66,1.11,1.11,0,0,1,.36-1,.58.58,0,0,1,.28-.06,1.55,1.55,0,0,1,.74.24,4.79,4.79,0,0,1,2.12,3.66A1.1,1.1,0,0,1,148.75,227.28Z"/><path class="cls-1" d="M148.66,232.81a2.23,2.23,0,0,0-3.58,2.07,6.21,6.21,0,0,0,2.84,5,2.93,2.93,0,0,0,1.5.44,1.92,1.92,0,0,0,1-.26,2.48,2.48,0,0,0,1.1-2.25A6.18,6.18,0,0,0,148.66,232.81Zm1,5.91a1.08,1.08,0,0,1-1-.18,4.7,4.7,0,0,1-2.1-3.66,1.11,1.11,0,0,1,.35-1,.49.49,0,0,1,.27-.06,1.39,1.39,0,0,1,.74.24,4.7,4.7,0,0,1,2.12,3.66C150,238.23,149.91,238.6,149.68,238.72Z"/><path class="cls-1" d="M140.23,226.85a2.81,2.81,0,0,0-4.53,2.62,8.24,8.24,0,0,0,3.79,6.57,3.85,3.85,0,0,0,1.9.58,2.44,2.44,0,0,0,1.26-.33,3.11,3.11,0,0,0,1.37-2.86A8.25,8.25,0,0,0,140.23,226.85Zm1.68,8.15a1.71,1.71,0,0,1-1.68-.24,6.84,6.84,0,0,1-3-5.29,1.77,1.77,0,0,1,.62-1.58,1.26,1.26,0,0,1,.54-.12,2.39,2.39,0,0,1,1.15.37,6.84,6.84,0,0,1,3,5.29A1.75,1.75,0,0,1,141.91,235Z"/><path class="cls-1" d="M139,216.76a1.63,1.63,0,0,0-2.58,1.5,4,4,0,0,0,1.84,3.21,2.12,2.12,0,0,0,1,.3,1.51,1.51,0,0,0,.76-.19,1.76,1.76,0,0,0,.8-1.6A4,4,0,0,0,139,216.76Zm.32,3.53a.67.67,0,0,1-.32-.1,2.57,2.57,0,0,1-1.1-1.93.81.81,0,0,1,.05-.31h0a.56.56,0,0,1,.28.1,2.55,2.55,0,0,1,1.11,1.93A.81.81,0,0,1,139.31,220.29Z"/><path class="cls-3" d="M128.34,180a.56.56,0,0,1-.06.31s-.14,0-.31-.1a2.53,2.53,0,0,1-1.11-1.93.88.88,0,0,1,0-.31h0a.68.68,0,0,1,.29.1A2.55,2.55,0,0,1,128.34,180Z"/><path class="cls-3" d="M138.07,186.29c0,.47-.13.85-.36,1a1,1,0,0,1-1-.16,4.73,4.73,0,0,1-2.12-3.66,1.14,1.14,0,0,1,.35-1,.62.62,0,0,1,.29-.06,1.62,1.62,0,0,1,.74.24A4.77,4.77,0,0,1,138.07,186.29Z"/><path class="cls-3" d="M131.52,193.4a1.74,1.74,0,0,1-.64,1.57,1.71,1.71,0,0,1-1.67-.23,6.89,6.89,0,0,1-3.07-5.29,1.79,1.79,0,0,1,.64-1.59,1.24,1.24,0,0,1,.52-.12,2.39,2.39,0,0,1,1.17.37A6.9,6.9,0,0,1,131.52,193.4Z"/><path class="cls-3" d="M139,197.73a1.1,1.1,0,0,1-.36,1,1.08,1.08,0,0,1-1-.18,4.73,4.73,0,0,1-2.12-3.66,1.06,1.06,0,0,1,.37-1,.57.57,0,0,1,.27-.06,1.52,1.52,0,0,1,.74.24A4.73,4.73,0,0,1,139,197.73Z"/><path class="cls-3" d="M139.36,220a.81.81,0,0,1-.05.31.67.67,0,0,1-.32-.1,2.57,2.57,0,0,1-1.1-1.93.81.81,0,0,1,.05-.31h0a.56.56,0,0,1,.28.1A2.55,2.55,0,0,1,139.36,220Z"/><path class="cls-3" d="M149.11,226.32a1.1,1.1,0,0,1-.36,1,1.06,1.06,0,0,1-1-.16,4.79,4.79,0,0,1-2.12-3.66,1.11,1.11,0,0,1,.36-1,.58.58,0,0,1,.28-.06,1.55,1.55,0,0,1,.74.24A4.79,4.79,0,0,1,149.11,226.32Z"/><path class="cls-3" d="M150,237.76c0,.47-.13.84-.36,1a1.08,1.08,0,0,1-1-.18,4.7,4.7,0,0,1-2.1-3.66,1.11,1.11,0,0,1,.35-1,.49.49,0,0,1,.27-.06,1.39,1.39,0,0,1,.74.24A4.7,4.7,0,0,1,150,237.76Z"/><path class="cls-3" d="M142.54,233.43a1.75,1.75,0,0,1-.63,1.57,1.71,1.71,0,0,1-1.68-.24,6.84,6.84,0,0,1-3-5.29,1.77,1.77,0,0,1,.62-1.58,1.26,1.26,0,0,1,.54-.12,2.39,2.39,0,0,1,1.15.37A6.84,6.84,0,0,1,142.54,233.43Z"/><polygon class="cls-4" points="234.39 380.76 234.39 383.19 234.33 383.22 230.48 381 230.48 378.3 234.39 380.76"/><polygon class="cls-4" points="232.85 384.08 230.38 385.5 230.38 382.64 232.85 384.08"/><path class="cls-4" d="M235.87,228.72v-2a.71.71,0,0,0-.37-.63.7.7,0,0,0-.74,0l-2.9,1.69-2.59,1.49a.72.72,0,0,0-.37.64V386.79a.72.72,0,0,0,.37.64.75.75,0,0,0,.74,0l4.68-2.7h0l.8-.46a.77.77,0,0,0,.35-.64v-2.85l3.41-1.95v4.8l-12.62,7.29V229.24L239.28,222v4.8Z"/><path class="cls-4" d="M260.91,209.46V419.65a.78.78,0,0,1-.37.65l-9.78,5.63v21.7l18.77-10.84V425.51a.74.74,0,0,1,.37-.63l101.35-58.51a.75.75,0,0,1,.74,0,.77.77,0,0,1,.37.64v10.42l18.78-10.85V134.29ZM382.48,337.89a1.06,1.06,0,0,1,0,.2.76.76,0,0,1-.09.18.67.67,0,0,1-.07.11l-.14.11a.72.72,0,0,1-.19.11L336.7,361.23a.77.77,0,0,1-.34.08.65.65,0,0,1-.38-.11.78.78,0,0,1-.36-.62l0-3.63a.7.7,0,0,1,.42-.66l41.18-20.61,4.24-2.12a.69.69,0,0,1,.72.05.73.73,0,0,1,.36.62Zm0-13.71a1.38,1.38,0,0,1,0,.2.66.66,0,0,1-.16.28.42.42,0,0,1-.14.12l-.19.1L336.7,347.52a.65.65,0,0,1-.34.07.72.72,0,0,1-.38-.1.8.8,0,0,1-.36-.63l0-3.63a.72.72,0,0,1,.42-.66L377.19,322l4.24-2.12a.77.77,0,0,1,1.08.68Zm0-13.71a1.38,1.38,0,0,1,0,.2,1,1,0,0,1-.22.34.24.24,0,0,1-.08.06s0,0-.07,0a.27.27,0,0,1-.12.06L336.7,333.8a.67.67,0,0,1-.34.09.74.74,0,0,1-.38-.12.79.79,0,0,1-.36-.62l0-3.63a.73.73,0,0,1,.42-.67l41.18-20.59,4.24-2.12a.75.75,0,0,1,1.08.67Zm0-13.72a1.38,1.38,0,0,1,0,.2,1.2,1.2,0,0,1-.22.35l-.08.05s-.06,0-.09,0a.45.45,0,0,1-.12.06L336.7,320.09a.77.77,0,0,1-.34.08.74.74,0,0,1-.38-.12.75.75,0,0,1-.36-.62l0-3.63a.73.73,0,0,1,.42-.67l41.18-20.59,4.24-2.12a.74.74,0,0,1,.72,0,.76.76,0,0,1,.36.64Zm0-13.72a1.33,1.33,0,0,1,0,.21.78.78,0,0,1-.16.28,1.49,1.49,0,0,1-.14.12l-.19.1L336.7,306.38a.94.94,0,0,1-.34.07.72.72,0,0,1-.38-.1.8.8,0,0,1-.36-.63l0-3.62a.76.76,0,0,1,.42-.69l41.18-20.59,4.24-2.12a.74.74,0,0,1,.72,0,.79.79,0,0,1,.36.64Z"/><polygon class="cls-4" points="259.43 210.32 259.43 419.22 250.76 424.21 250.75 268.01 250.75 215.33 259.43 210.32"/><path class="cls-1" d="M260.54,208.39l-.37-.2v0l-140.4-81-.74-.43-.38-.22a.72.72,0,0,0-.65,0l-.09,0L108,132.26h0l-.17.11a.73.73,0,0,0,0,1.27l.34.19.75.43,0,0,101.83,58.77,38.55,22.27.37.2a.66.66,0,0,0,.37.11.62.62,0,0,0,.37-.11l.37-.2,8.68-5,1.11-.65a.74.74,0,0,0,0-1.28ZM250,214,109.63,133l8.65-5h0l140.4,81Z"/></svg>