<svg id="Layer_1" data-name="Layer 1" xmlns="http://www.w3.org/2000/svg" viewBox="0 0 500 500"><defs><style>.cls-1{fill:#e8e7df;}.cls-2{fill:#825b2b;}.cls-3{fill:#d59f5e;}.cls-4{fill:#73b3a9;}</style></defs><path class="cls-1" d="M311.77,324.23a7.34,7.34,0,0,1,2.53-2.67,2.93,2.93,0,0,1,3-.22c1.64.93,1.76,3.69.28,6.25a7.3,7.3,0,0,1-2.55,2.67,3.69,3.69,0,0,1-1.79.53,2.4,2.4,0,0,1-1.21-.31C310.41,329.53,310.29,326.79,311.77,324.23Z"/><path class="cls-1" d="M318.46,315.26a3.2,3.2,0,0,1,.45-2.31,3.53,3.53,0,0,1,1.24-1.3,1.66,1.66,0,0,1,1.72-.1c.94.53,1.05,1.94.27,3.27a3.47,3.47,0,0,1-1.25,1.32,1.93,1.93,0,0,1-1,.28,1.41,1.41,0,0,1-.72-.19A1.58,1.58,0,0,1,318.46,315.26Z"/><path class="cls-1" d="M322.29,325.65a2.38,2.38,0,0,1,1,2.15,5.42,5.42,0,0,1-.77,2.65,4.31,4.31,0,0,1-3.34,2.43,1.9,1.9,0,0,1-.95-.25c-1.29-.74-1.41-2.86-.28-4.82S321,324.89,322.29,325.65Z"/><path class="cls-1" d="M323.61,316.63a5.27,5.27,0,0,1,1.91-2,2.14,2.14,0,0,1,3.45,2,5.43,5.43,0,0,1-.79,2.67,4.28,4.28,0,0,1-3.34,2.41,1.83,1.83,0,0,1-1-.25C322.6,320.7,322.48,318.58,323.61,316.63Z"/><path class="cls-1" d="M337,318.55a.73.73,0,0,1-.26,1l-12.63,7.29a.66.66,0,0,1-.37.1.74.74,0,0,1-.37-1.37L336,318.29A.73.73,0,0,1,337,318.55Z"/><path class="cls-1" d="M323.15,310.44a.73.73,0,0,1,.26-1L336,302.14a.73.73,0,0,1,1,.27.75.75,0,0,1-.26,1l-12.63,7.27a.6.6,0,0,1-.37.11A.74.74,0,0,1,323.15,310.44Z"/><path class="cls-1" d="M323.15,294.29a.73.73,0,0,1,.26-1L336,286a.75.75,0,0,1,.75,1.29l-12.63,7.29a.75.75,0,0,1-.37.09A.74.74,0,0,1,323.15,294.29Z"/><path class="cls-1" d="M323.15,278.15a.72.72,0,0,1,.26-1L336,269.86a.74.74,0,0,1,.75,1.27l-12.63,7.29a.6.6,0,0,1-.37.11A.72.72,0,0,1,323.15,278.15Z"/><path class="cls-1" d="M338,273.52a3.62,3.62,0,0,1,1.81-.54,2.43,2.43,0,0,1,1.21.32,2.92,2.92,0,0,1,1.31,2.71,7.77,7.77,0,0,1-3.59,6.2,3.61,3.61,0,0,1-1.79.54,2.51,2.51,0,0,1-1.22-.31,3,3,0,0,1-1.3-2.73A7.8,7.8,0,0,1,338,273.52Z"/><path class="cls-1" d="M342.32,265a5.89,5.89,0,0,1,2.71-4.69,2.77,2.77,0,0,1,1.4-.41,2,2,0,0,1,1,.25,2.37,2.37,0,0,1,1,2.15,5.89,5.89,0,0,1-2.69,4.68,3,3,0,0,1-1.42.42,1.91,1.91,0,0,1-1-.26A2.35,2.35,0,0,1,342.32,265Z"/><path class="cls-1" d="M348.29,269.8a2.41,2.41,0,0,1,1,2.16,5.91,5.91,0,0,1-2.7,4.67,2.77,2.77,0,0,1-1.41.41,2,2,0,0,1-1-.25,2.36,2.36,0,0,1-1.06-2.15,5.86,5.86,0,0,1,2.7-4.66A2.37,2.37,0,0,1,348.29,269.8Z"/><path class="cls-1" d="M353.13,201a.7.7,0,0,0-.74,0l-45.33,26.17a.72.72,0,0,0-.37.64V348.6a.7.7,0,0,0,.37.63.58.58,0,0,0,.37.11.66.66,0,0,0,.37-.11l45.33-26.17a.72.72,0,0,0,.37-.64V201.59A.7.7,0,0,0,353.13,201ZM352,322l-43.85,25.32V278.67L352,253.34Z"/><path class="cls-1" d="M390.63,321.18V164.68a5.21,5.21,0,0,0-2.6-4.49L282.81,99.48A110.05,110.05,0,0,0,262.69,80.2a12.37,12.37,0,0,0-4-2.62L257.41,77a21,21,0,0,0-8.07-1.54,18,18,0,0,0-9.17,2.26L238,79.05a.91.91,0,0,0-.23.15,118.81,118.81,0,0,0-24.08,21.94L112,159.88a5.19,5.19,0,0,0-2.59,4.49V341a5.23,5.23,0,0,0,2.53,4.44l16.43,9.79a5.22,5.22,0,0,0,5.16.09l5.15-2.84-.07,5.26c0,7.51,2.95,13.43,8.07,16.25l5.38,2.95c5.76,3.18,13.47,2.56,21-1.74l.23-.14,11.95-6.89,42.44,24.69v16.68a5.23,5.23,0,0,0,2.59,4.51l17,9.79a5.16,5.16,0,0,0,5.19,0l17-9.79a5.23,5.23,0,0,0,2.59-4.51V393l79.65-46,14.37,8.3a5.29,5.29,0,0,0,5.12,0l17-9.48a5.18,5.18,0,0,0,2.67-4.52V321.4A1.28,1.28,0,0,0,390.63,321.18ZM225.68,96.83c.94-.94,1.9-1.84,2.86-2.74.61-.57,1.22-1.12,1.84-1.63l.19-.17a2.46,2.46,0,0,1,.25-.22l.17-.15c.45-.4.91-.78,1.37-1.17,1.77-1.49,3.59-2.93,5.44-4.31,1.08-.8,2.16-1.58,3.27-2.34l2.15-1.32a8.68,8.68,0,0,1,1.26-.59c.19-.07.4-.13.61-.19a16.62,16.62,0,0,1,7.11-.36c.31.06.61.11.9.18s.51.13.76.21a4.91,4.91,0,0,1,.68.22,6.26,6.26,0,0,1,.65.25l1.19.52a6.46,6.46,0,0,1,2.26,1.52s0,0,.06.06l.06.06c.77.55,1.53,1.13,2.27,1.71.33.25.67.5,1,.78a1,1,0,0,1,.16.12c.51.4,1,.82,1.52,1.23v0c.22.17.43.35.65.54l.37.31c.68.58,1.37,1.17,2,1.78,1.7,1.54,3.36,3.14,5,4.82.61.62,1.21,1.26,1.81,1.91.31.31.6.63.9,1s.59.66.87,1,.6.65.88,1,.59.68.87,1c.58.68,1.14,1.38,1.71,2.08l.09.1s0,0,0,0c.27.34.55.68.82,1a118.56,118.56,0,0,1,9,13.34c13.38,22.78,18.55,47.95,19.5,59.27a14.72,14.72,0,0,1,.16,2.37v.22c-.09,6.83-4.5,13.11-12.43,17.69l-6.09,3.51c-18.8,10.86-51.74,9.45-73.43-3.16l-7.17-4.16c-11.35-6.61-17.77-15.29-17.59-23.81a.64.64,0,0,0-.15-.44,119.87,119.87,0,0,1,15.89-49.6,113,113,0,0,1,10.08-14.56s0-.05.06-.07a0,0,0,0,0,0,0s0,0,.06,0c.83-1,1.67-2,2.52-3s1.79-2,2.71-3c.68-.72,1.36-1.41,2.06-2.11Q225.31,97.18,225.68,96.83ZM173,344.52a3.39,3.39,0,0,1,0-.47.53.53,0,0,1,0-.13.22.22,0,0,1,0-.11l15.68-9.24L202,342.11l-23.59,12.77h0c-.18-.08-.33-.16-.49-.25a8.28,8.28,0,0,1-4-4.46c-.09-.21-.17-.43-.24-.64a7.08,7.08,0,0,1-.22-.75c-.06-.23-.12-.45-.17-.66a.06.06,0,0,0,0,0,15.81,15.81,0,0,1-.28-3C173,344.88,173,344.7,173,344.52ZM228.75,230,116,164.37l98-56.6a117.08,117.08,0,0,0-7.77,11.63v0L129.4,163.79a.74.74,0,0,0-.37.63.73.73,0,0,0,.37.64l101,58.79a38.66,38.66,0,0,0,38.68.07l101.46-58.59a.74.74,0,0,0,.37-.64.76.76,0,0,0-.37-.64l-80.65-46.53h0c-.59-1-1.2-2-1.82-3s-1.19-1.86-1.79-2.8-1.08-1.61-1.65-2.41c-.77-1.11-1.55-2.21-2.37-3.27l87.33,50.38L384,164.68,270.76,230A42,42,0,0,1,228.75,230Zm-97,102.24,4.43,2.5,7.14,4.05-.07,4.44-2.83,1.57-2.52,1.38-6.15,3.39ZM170,370.06a1.88,1.88,0,0,1-.36.18,1.06,1.06,0,0,1-.28.13,6.54,6.54,0,0,1-.77.36c-.13,0-.23.09-.35.12l-.25.07a.63.63,0,0,1-.8.18l-.38,0a3.54,3.54,0,0,1-.45,0h-.11a1.27,1.27,0,0,1-.28,0l-.25,0h-.16a.39.39,0,0,0-.18,0h-.08l-.17-.13s-.06,0-.08,0l-.18-.06a.57.57,0,0,0-.29,0,.69.69,0,0,0-.24-.19,1.68,1.68,0,0,1-.44-.29l-.3-.22-.19-.19v0l0,0,0,0s0,0,0,0a1.56,1.56,0,0,1-.18-.21.3.3,0,0,0-.07-.1.57.57,0,0,0-.08-.13,2.08,2.08,0,0,1-.19-.29,14,14,0,0,1-.89-5.73l.89-81.8v-.23l0-2.68,0-2.83h0l.18-16.85a.66.66,0,0,0,0-.14c0-.09-1.22-7.72,16.53-18l-.37-.64a.72.72,0,0,0,.64.37.71.71,0,0,0,.37-.1L203.73,227v7.73l-14.31,8.62-7.57,4.37c-5.16,3-9.35,10.25-9.35,16.21l0,25.42-.95,53.92c0,.11-1.28,10,6.6,13.13a.78.78,0,0,0,.26,0h.15s0,0,0,0l.12,0a9.4,9.4,0,0,0,2.9-1.14l7.56-4.35,13.58-7.5v7.74l-18,10.4h-.05l0,0-3.23,1.87Zm181.15-29.7-84.81,49-12.22,7.07h0l-3.61,2.07V237.12h-.66a43.31,43.31,0,0,0,21.69-5.81L384.7,166V321l-16.59,9.58L353.41,339Zm33.59.5-15.5,8.66v-17.9l15.41-8.9,0,0h.05Zm-87-162.55a.75.75,0,0,0-.1.77.78.78,0,0,0,.68.43.89.89,0,0,0,.31-.06l.16-.08a.74.74,0,0,0,.43-.66c0-.36.67-37.25-24.7-70a.75.75,0,0,0-1.05-.14.76.76,0,0,0-.13,1C297,140.17,297.77,174.35,297.77,178.31Zm-21.08,10.75a.74.74,0,0,0,.62.85h.1a.74.74,0,0,0,.74-.64c.05-.42,5.34-42.25-16.79-86.7a.75.75,0,0,0-1.34.66C282,147.25,276.73,188.66,276.69,189.06Zm-21.19,6.65a.76.76,0,0,0,.52.92.65.65,0,0,0,.19,0,.76.76,0,0,0,.72-.55c6.94-26.18.78-70.59-3.52-94.74a.73.73,0,0,0-.85-.59.75.75,0,0,0-.6.86C256.23,125.64,262.38,169.8,255.5,195.71Zm-14.26.94a.62.62,0,0,0,.19,0,.76.76,0,0,0,.52-.92c-6.85-25.82-.74-69.89,3.51-93.88a.74.74,0,1,0-1.45-.26c-4.28,24.1-10.42,68.42-3.48,94.53A.75.75,0,0,0,241.24,196.65Zm-22.52-7.38a.72.72,0,0,0,.73.64h.1a.77.77,0,0,0,.64-.85c-.06-.4-5.22-41.18,16.16-84.83a.74.74,0,0,0-.34-1,.75.75,0,0,0-1,.34C213.43,147.64,218.66,188.85,218.72,189.27Zm2.62-78.06a.72.72,0,0,0-1,.16c-23.33,32-22.73,67-22.71,67.34a.73.73,0,0,0,.46.66l.18.08a.67.67,0,0,0,.28.06.73.73,0,0,0,.68-.46.72.72,0,0,0-.12-.77c0-3.91.73-36.23,22.41-66A.72.72,0,0,0,221.34,111.21Z"/><path class="cls-2" d="M144,339a.75.75,0,0,1-.38-.1l-29.48-17.15a.74.74,0,0,1-.37-.64V164.37a.74.74,0,1,1,1.48,0V320.66L144.4,337.6A.74.74,0,0,1,144,339Z"/><path class="cls-2" d="M386.18,164.68V321.4a.75.75,0,0,1-.37.64l-1.09.65h-.05l0,0-15.41,8.9-1.48.84v0l-13.42,7.73s0,0-.05,0l-2.77,1.6-84.07,48.55-1.48.84v0l-11.11,6.4s0,0,0,0l-4.72,2.73a.71.71,0,0,1-.37.1.66.66,0,0,1-.37-.1L232,390.3,185.15,363l-.37-.21a.73.73,0,0,1-.27-1,.74.74,0,0,1,.2-.23l0,0h.05a.34.34,0,0,1,.15-.06.74.74,0,0,1,.56.07l1.1.64L249,398.46l.74.43.74-.43,3.61-2.07h0l12.22-7.07,84.81-49,2.28-1.32,14.7-8.49L384.7,321V164.68a.74.74,0,0,1,.74-.74.76.76,0,0,1,.3.05l.07,0a.57.57,0,0,1,.15.12.61.61,0,0,1,.12.15A.64.64,0,0,1,386.18,164.68Z"/><path class="cls-2" d="M384.63,322.72l-15.41,8.9,15.45-8.92A0,0,0,0,1,384.63,322.72Zm1.55-1.41a.7.7,0,0,0-.35-.55.75.75,0,0,0-.74,0l-.86.5-.29.17h0l-15.82,9.12a.76.76,0,0,0-.37.64v19.58a.75.75,0,0,0,.37.66.81.81,0,0,0,.74,0l17-9.48a.71.71,0,0,0,.39-.64V321.4A.15.15,0,0,0,386.18,321.31Zm-1.46,19.55-15.5,8.66v-17.9l15.45-8.92h.05Z"/><path class="cls-2" d="M368.85,330.55a.75.75,0,0,0-.74,0L353.41,339l-2.28,1.32a.75.75,0,0,0-.35.64.74.74,0,0,0,.37.63l.35.21,16.61,9.59a.81.81,0,0,0,.74,0,.75.75,0,0,0,.37-.66V331.19A.72.72,0,0,0,368.85,330.55Zm-14.7,9.78h0l13.57-7.85v17L353,341Z"/><path class="cls-2" d="M249.72,420.09a.74.74,0,0,1-.37-.1l-16.95-9.8a.73.73,0,0,1-.37-.64V390a.74.74,0,0,1,1.11-.65l16.59,9.58,16.59-9.58a.75.75,0,0,1,.74,0,.74.74,0,0,1,.37.64v19.59a.73.73,0,0,1-.37.64l-17,9.8A.69.69,0,0,1,249.72,420.09Zm-16.21-11,16.21,9.38L266,409.12V391.24L250.1,400.4a.75.75,0,0,1-.74,0l-15.85-9.15Z"/><path class="cls-2" d="M131.39,330.32l0,0L115.83,321l-.55-.32-.35-.21a.75.75,0,0,0-.74,0,.73.73,0,0,0-.39.64V341a.77.77,0,0,0,.37.63l16.42,9.8h0a.69.69,0,0,0,.37.1.6.6,0,0,0,.2,0,.44.44,0,0,0,.16-.06h0a.74.74,0,0,0,.37-.64V330.92A.68.68,0,0,0,131.39,330.32Zm-16.11-7.93,14.95,8.95v18.15l-14.95-8.92Z"/><path class="cls-2" d="M144.4,337.66l-1.1-.62-11.91-6.72,0,0a.7.7,0,0,0-.74,0,.72.72,0,0,0-.37.63v19.87a.76.76,0,0,0,.36.64h0a.69.69,0,0,0,.37.1.6.6,0,0,0,.2,0,.44.44,0,0,0,.16-.06h0l11.86-6.52v0l1.11-.6a.77.77,0,0,0,.38-.61v-.07l.08-5.29v-.05A.76.76,0,0,0,144.4,337.66Zm-4,7.1-2.52,1.38-6.15,3.41V332.2l4.43,2.5,7.14,4v0l-.07,4.44Z"/><path class="cls-2" d="M386.08,164.31a.61.61,0,0,0-.12-.15.57.57,0,0,0-.15-.12l-.07,0L279.9,102.93l-.12-.07a.73.73,0,0,0-.93.16.7.7,0,0,0,0,.93.47.47,0,0,1,.06.09s0,0,0,0c.27.34.55.68.82,1a118.56,118.56,0,0,1,9,13.34c13.38,22.78,18.55,47.95,19.5,59.27a14.72,14.72,0,0,1,.16,2.37v.22c-.09,6.83-4.5,13.11-12.43,17.69l-6.09,3.51c-18.8,10.86-51.74,9.45-73.43-3.16l-7.17-4.16c-11.35-6.61-17.77-15.29-17.59-23.81a.64.64,0,0,0-.15-.44,119.87,119.87,0,0,1,15.89-49.6,113,113,0,0,1,10.08-14.56s0-.05.06-.07a0,0,0,0,0,0,0,.74.74,0,0,0,0-1,.72.72,0,0,0-.93-.16l-.1,0,0,0L114.25,163.68l-.08,0a.41.41,0,0,0-.14.12.53.53,0,0,0-.12.14.65.65,0,0,0-.11.38.72.72,0,0,0,.37.63l1.11.65L228,231.24a43.37,43.37,0,0,0,43.49.07L384.7,166l1.11-.64a.73.73,0,0,0,.37-.63A.64.64,0,0,0,386.08,164.31ZM270.76,230a42,42,0,0,1-42-.08L116,164.37l98-56.6a117.08,117.08,0,0,0-7.77,11.63v0a.76.76,0,0,0-.11.16c-.46.8-.92,1.59-1.35,2.37l-.41.77c-.31.56-.61,1.13-.91,1.69l-1.21,2.39-.18.37c-.1.2-.21.41-.29.6s-.11.21-.15.31-.11.21-.14.3-.08.18-.13.27-.09.16-.13.25-.08.18-.12.27c-.33.68-.62,1.34-.92,2-.19.4-.37.82-.53,1.22-.57,1.27-1.08,2.53-1.56,3.76-.29.74-.58,1.48-.84,2.21s-.55,1.48-.8,2.2c-.18.48-.34,1-.49,1.41-.09.25-.18.5-.25.76l-.17.47c-.17.55-.35,1.1-.51,1.63l-.18.56-.45,1.5c-.2.68-.4,1.35-.57,2-.06.21-.12.41-.17.61-.15.54-.29,1.09-.43,1.61-.06.24-.12.48-.17.71s-.15.59-.21.88-.15.62-.22.91-.15.6-.21.89c-.16.67-.3,1.32-.43,2-.11.46-.19.89-.27,1.32a.28.28,0,0,0,0,.09c-.06.26-.11.53-.17.8s-.07.43-.11.63-.09.49-.14.73a3,3,0,0,1-.06.34c0,.12,0,.25-.07.37s0,.12,0,.16-.06.34-.08.52a1.08,1.08,0,0,0,0,.19c-.06.39-.12.76-.18,1.12s-.09.57-.14.84,0,.3,0,.43-.05.36-.08.52a5,5,0,0,1-.07.56,1.52,1.52,0,0,1,0,.21s0,0,0,0c-.05.35-.08.69-.12,1a1.66,1.66,0,0,0,0,.22.18.18,0,0,1,0,.11c-.07.72-.13,1.34-.17,1.85,0,.07,0,.15,0,.22v0a1,1,0,0,0,0,.17c0,.06,0,.12,0,.16s0,0,0,.06c0,.22,0,.41,0,.56s0,.48,0,.49a.82.82,0,0,0,.16.49c0,8.95,6.65,17.94,18.33,24.73l7.17,4.16c.71.41,1.42.81,2.16,1.2s1.67.87,2.53,1.27l.27.14,2.18,1c.92.4,1.85.77,2.8,1.14.63.25,1.27.49,1.92.71,1,.36,2,.7,3,1,.45.13.89.28,1.33.4.23.07.45.15.69.21s.43.13.65.17l.56.17.31.08c.49.12,1,.26,1.48.37a4.5,4.5,0,0,0,.7.18c.34.09.67.18,1,.24l1.37.3c.73.16,1.46.29,2.2.44l1.76.31c.52.09,1.05.18,1.57.25l1.75.26.4,0h.21q.47.08.93.12a1.63,1.63,0,0,0,.31,0l.31,0,.27,0c1.13.13,2.26.24,3.39.31l1.16.08h0l1.19.06c.16,0,.34,0,.51,0h.69c.35,0,.69,0,1.05,0s.58,0,.86,0H259c.29,0,.57,0,.86,0h.57l1.12,0h0l1.11-.06c.2,0,.39,0,.57,0,.63,0,1.29-.09,1.92-.14l1.41-.11c.18,0,.36,0,.52-.06a.16.16,0,0,0,.12,0c.34,0,.68-.06,1-.1s.61-.08.9-.12l1.91-.28.45-.06c1.44-.24,2.83-.51,4.21-.82s2.81-.68,4.16-1.08c.43-.13.86-.26,1.27-.41a10.16,10.16,0,0,0,1-.34l1.38-.48a.85.85,0,0,0,.17-.06c.59-.23,1.18-.46,1.76-.71s1.2-.5,1.79-.78c1.17-.55,2.31-1.14,3.39-1.77l6.09-3.51c8.39-4.83,13.07-11.55,13.17-18.92a.57.57,0,0,0,0-.26,19.24,19.24,0,0,0-.16-2.53,2.87,2.87,0,0,1,0-.36s0-.07,0-.13a2.46,2.46,0,0,0,0-.26c0-.11,0-.25,0-.4a0,0,0,0,0,0,0,.81.81,0,0,0,0-.15c0-.06,0-.13,0-.19s0-.37-.06-.58a.42.42,0,0,1,0-.12v-.09c0-.1,0-.2,0-.32,0-.28-.08-.59-.12-.93s-.09-.69-.15-1-.12-.94-.21-1.44c0-.31-.09-.65-.14-1s-.15-.86-.23-1.32a.18.18,0,0,0,0-.06c0-.24-.08-.47-.12-.73s-.07-.4-.12-.62-.1-.58-.16-.89-.08-.4-.12-.6a2,2,0,0,0,0-.2c0-.26-.1-.53-.16-.81s-.08-.39-.12-.58-.12-.58-.18-.87-.13-.61-.19-.91l0-.22c-.1-.52-.22-1-.35-1.57-.15-.71-.33-1.42-.51-2.16-.07-.28-.14-.58-.22-.88,0,0,0-.06,0-.1-.08-.3-.15-.61-.24-.92-.43-1.7-.92-3.48-1.45-5.32q-.15-.56-.33-1.11c-.17-.59-.35-1.2-.55-1.81l0-.13c-.28-.92-.59-1.85-.9-2.8-.21-.64-.43-1.29-.67-1.95-.33-.95-.68-1.92-1-2.89-.13-.37-.26-.74-.41-1.11l-.24-.64c-.1-.25-.19-.5-.3-.76-.26-.68-.53-1.37-.82-2.07s-.67-1.63-1-2.44a6.66,6.66,0,0,1-.31-.73l-.51-1.13c-.56-1.29-1.17-2.59-1.79-3.91-.41-.87-.84-1.75-1.29-2.62-.18-.37-.37-.74-.56-1.11-.76-1.48-1.56-3-2.39-4.46-.46-.8-.9-1.59-1.37-2.38a.82.82,0,0,0-.11-.17h0c-.59-1-1.2-2-1.82-3s-1.19-1.86-1.79-2.8-1.08-1.61-1.65-2.41c-.77-1.11-1.55-2.21-2.37-3.27l87.33,50.38L384,164.68Z"/><path class="cls-2" d="M370.58,164.05l-80.65-46.53h0l-.16-.09a.74.74,0,0,0-1,1c13.38,22.78,18.55,47.95,19.5,59.27a14.72,14.72,0,0,1,.16,2.37v.22c-.09,6.83-4.5,13.11-12.43,17.69l-6.09,3.51c-18.8,10.86-51.74,9.45-73.43-3.16l-7.17-4.16c-11.35-6.61-17.77-15.29-17.59-23.81a.64.64,0,0,0-.15-.44,119.87,119.87,0,0,1,15.89-49.6.74.74,0,0,0-1-1l-.16.09v0L129.4,163.79a.74.74,0,0,0-.37.63.73.73,0,0,0,.37.64l101,58.79a38.66,38.66,0,0,0,38.68.07l101.46-58.59a.74.74,0,0,0,.37-.64A.76.76,0,0,0,370.58,164.05Zm-102.2,58.59a37.18,37.18,0,0,1-37.2-.07l-99.93-58.15L204.82,122l-.41.77c-.31.56-.61,1.13-.91,1.69l-1.21,2.39-.18.37c-.1.2-.21.41-.29.6s-.11.21-.15.31-.19.39-.27.57-.09.16-.13.25-.08.18-.12.27c-.33.68-.62,1.34-.92,2-.19.4-.37.82-.53,1.22-.57,1.27-1.08,2.53-1.56,3.76-.29.74-.58,1.48-.84,2.21s-.55,1.48-.8,2.2c-.18.48-.34,1-.49,1.41-.09.25-.18.5-.25.76l-.17.47c-.17.55-.35,1.1-.51,1.63l-.18.56-.45,1.5c-.2.68-.4,1.35-.57,2-.06.21-.12.41-.17.61-.15.54-.29,1.09-.43,1.61-.06.24-.12.48-.17.71s-.15.59-.21.88-.15.62-.22.91-.15.6-.21.89c-.16.67-.3,1.32-.43,2-.11.46-.19.89-.27,1.32a.28.28,0,0,0,0,.09c-.06.26-.11.53-.17.8s-.07.43-.11.63-.09.49-.14.73a3,3,0,0,1-.06.34c0,.12,0,.25-.07.37s-.08.46-.1.68a1.08,1.08,0,0,0,0,.19c-.06.39-.12.76-.18,1.12s-.09.57-.14.84,0,.3,0,.43-.05.36-.08.52a5,5,0,0,1-.07.56,1.52,1.52,0,0,1,0,.21s0,0,0,0c-.05.35-.08.69-.12,1a1.66,1.66,0,0,0,0,.22.18.18,0,0,1,0,.11c-.07.72-.13,1.34-.17,1.85,0,.07,0,.15,0,.22v0a.09.09,0,0,0,0,.05V169c0,.06,0,.12,0,.16s0,0,0,.06c0,.22,0,.41,0,.56s0,.48,0,.49a.82.82,0,0,0,.16.49c0,8.95,6.65,17.94,18.33,24.73l7.17,4.16c.71.41,1.42.81,2.16,1.2s1.67.87,2.53,1.27l.27.14,2.18,1c.92.4,1.85.77,2.8,1.14.63.25,1.27.49,1.92.71,1,.36,2,.7,3,1,.45.13.89.28,1.33.4l1.34.38c.78.22,1.57.43,2.35.62a4.5,4.5,0,0,0,.7.18c.78.2,1.58.37,2.38.54s1.46.29,2.2.44l1.76.31c.52.09,1.05.18,1.57.25.71.11,1.42.21,2.15.3h.21q.47.08.93.12a1.63,1.63,0,0,0,.31,0l.31,0,.27,0c1.13.13,2.26.24,3.39.31l1.16.08h0l1.19.06c.4,0,.8,0,1.2,0,.91,0,1.83.05,2.75.05H259c.29,0,.57,0,.86,0h.57c.75,0,1.51-.05,2.26-.09.2,0,.39,0,.57,0,.63,0,1.29-.09,1.92-.14s1.29-.1,1.93-.17a.16.16,0,0,0,.12,0c.63-.06,1.29-.15,1.92-.22l1.91-.28.45-.06c1.44-.24,2.83-.51,4.21-.82s2.81-.68,4.16-1.08c.43-.13.86-.26,1.27-.41a10.16,10.16,0,0,0,1-.34l1.38-.48a.85.85,0,0,0,.17-.06c.59-.23,1.18-.46,1.76-.71s1.2-.5,1.79-.78c1.17-.55,2.31-1.14,3.39-1.77l6.09-3.51c8.39-4.83,13.07-11.55,13.17-18.92a.57.57,0,0,0,0-.26,19.24,19.24,0,0,0-.16-2.53,2.87,2.87,0,0,1,0-.36s0-.07,0-.13a2.46,2.46,0,0,0,0-.26c0-.11,0-.25,0-.4a0,0,0,0,0,0,0,.81.81,0,0,0,0-.15c0-.06,0-.13,0-.19s-.06-.45-.09-.7,0-.26,0-.41-.08-.59-.12-.93-.09-.69-.15-1-.12-.94-.21-1.44c0-.31-.09-.65-.14-1s-.15-.86-.23-1.32a.18.18,0,0,0,0-.06c0-.24-.08-.47-.12-.73s-.07-.4-.12-.62-.1-.58-.16-.89l-.09-.5a.38.38,0,0,1,0-.1,2,2,0,0,0,0-.2c0-.26-.1-.53-.16-.81s-.08-.39-.12-.58-.12-.58-.18-.87-.13-.61-.19-.91l0-.22c-.1-.52-.22-1-.35-1.57-.15-.71-.33-1.42-.51-2.16-.07-.33-.14-.65-.23-1s-.15-.61-.24-.92c-.43-1.7-.92-3.48-1.45-5.32q-.15-.56-.33-1.11c-.17-.59-.35-1.2-.55-1.81l0-.13c-.28-.92-.59-1.85-.9-2.8-.21-.64-.43-1.29-.67-1.95-.33-.95-.68-1.92-1-2.89-.13-.37-.26-.74-.41-1.11l-.24-.64c-.1-.25-.19-.5-.3-.76-.26-.68-.53-1.37-.82-2.07s-.67-1.63-1-2.44a6.66,6.66,0,0,1-.31-.73l-.51-1.13c-.56-1.29-1.17-2.59-1.79-3.91-.41-.87-.84-1.75-1.29-2.62-.18-.37-.37-.74-.56-1.11-.76-1.48-1.56-3-2.39-4.46l77.32,44.62Zm-77.27-61.21c0-.18,0-.34.08-.52s0-.1,0-.16C191.18,161,191.13,161.21,191.11,161.43Zm10.29-32.78c0-.09.08-.18.13-.27s.09-.19.14-.3C201.56,128.28,201.48,128.47,201.4,128.65ZM306.26,158s0,.07,0,.1c.08.3.15.6.22.88C306.42,158.63,306.35,158.31,306.26,158Z"/><path class="cls-2" d="M309.74,177.54a2.87,2.87,0,0,1,0-.36s0-.07,0-.13a2.46,2.46,0,0,0,0-.26c0-.13,0-.28-.05-.44a.81.81,0,0,0,0-.15c0-.06,0-.13,0-.19s0-.37-.06-.58a1.33,1.33,0,0,1,0-.21c0-.1,0-.2,0-.32,0-.28-.08-.59-.12-.93s-.09-.69-.15-1-.12-.94-.21-1.44c0-.31-.09-.65-.14-1s-.15-.86-.23-1.32a.18.18,0,0,0,0-.06c0-.24-.08-.47-.12-.73s-.07-.4-.12-.62-.1-.58-.16-.89l-.09-.5a.38.38,0,0,1,0-.1,2,2,0,0,0,0-.2c0-.26-.1-.53-.16-.81s-.08-.39-.12-.58-.12-.58-.18-.87-.13-.61-.19-.91l0-.22c-.1-.52-.22-1-.35-1.57-.15-.71-.33-1.42-.51-2.16-.07-.28-.14-.58-.22-.88s-.16-.68-.25-1c-.43-1.7-.92-3.48-1.45-5.32q-.15-.56-.33-1.11c-.17-.59-.35-1.2-.55-1.81l0-.13c-.28-.92-.59-1.85-.9-2.8-.21-.64-.43-1.29-.67-1.95-.33-.95-.68-1.92-1-2.89-.13-.37-.26-.74-.41-1.11l-.24-.64c-.1-.25-.19-.5-.3-.76-.26-.68-.53-1.37-.82-2.07s-.67-1.63-1-2.44a6.66,6.66,0,0,1-.31-.73l-.51-1.13c-.56-1.29-1.17-2.59-1.79-3.91-.41-.87-.84-1.75-1.29-2.62-.18-.37-.37-.74-.56-1.11-.76-1.48-1.56-3-2.39-4.46-.46-.8-.9-1.59-1.37-2.38a.82.82,0,0,0-.11-.17h0c-.59-1-1.2-2-1.82-3s-1.19-1.86-1.79-2.8-1.08-1.61-1.65-2.41c-.77-1.11-1.55-2.21-2.37-3.27a0,0,0,0,0,0,0h0c-.74-1-1.51-2-2.28-3l-.09-.1a105.44,105.44,0,0,0-20.19-19.42A7.9,7.9,0,0,0,257,81.66l-1.26-.55c-4.1-1.77-9.92-1.6-13.26.41l-2.18,1.34a114.14,114.14,0,0,0-23.71,21.74l0,0a1.25,1.25,0,0,0-.09.12c-.81,1-1.6,2-2.38,3h0a117.08,117.08,0,0,0-7.77,11.63v0a.76.76,0,0,0-.11.16c-.46.8-.92,1.59-1.35,2.37l-.41.77c-.31.56-.61,1.13-.91,1.69l-1.21,2.39-.18.37c-.1.2-.21.41-.29.6s-.11.21-.15.31-.11.21-.14.3-.08.18-.13.27-.09.16-.13.25-.08.18-.12.27c-.33.68-.62,1.34-.92,2-.19.4-.37.82-.53,1.22-.57,1.27-1.08,2.53-1.56,3.76-.29.74-.58,1.48-.84,2.21s-.55,1.48-.8,2.2c-.18.48-.34,1-.49,1.41-.09.25-.18.5-.25.76l-.17.47c-.17.55-.35,1.1-.51,1.63l-.18.56-.45,1.5c-.2.68-.4,1.35-.57,2-.06.21-.12.41-.17.61-.15.54-.29,1.09-.43,1.61-.06.24-.12.48-.17.71s-.15.59-.21.88-.15.62-.22.91-.15.6-.21.89c-.16.67-.3,1.32-.43,2-.11.46-.19.89-.27,1.32a.28.28,0,0,0,0,.09c-.06.26-.11.53-.17.8s-.07.43-.11.63-.09.49-.14.73a3,3,0,0,1-.06.34l-.09.53c0,.18-.06.34-.08.52a1.08,1.08,0,0,0,0,.19c-.06.39-.12.76-.18,1.12s-.09.57-.14.84,0,.3,0,.43-.05.36-.08.52a5,5,0,0,1-.07.56,1.52,1.52,0,0,1,0,.21s0,0,0,0c-.05.35-.08.69-.12,1a1.66,1.66,0,0,0,0,.22.18.18,0,0,1,0,.11c-.07.72-.13,1.34-.17,1.85,0,.07,0,.15,0,.22v0a.09.09,0,0,0,0,.05V169c0,.06,0,.12,0,.16s0,0,0,.06c0,.22,0,.41,0,.56s0,.48,0,.49a.82.82,0,0,0,.16.49c0,8.95,6.65,17.94,18.33,24.73l7.17,4.16c.71.41,1.42.81,2.16,1.2s1.67.87,2.53,1.27l.27.14,2.18,1c.92.4,1.85.77,2.8,1.14.63.25,1.27.49,1.92.71,1,.36,2,.7,3,1,.45.13.89.28,1.33.4.23.07.45.15.69.21s.43.13.65.17l.56.17.31.08c.49.12,1,.26,1.48.37a4.5,4.5,0,0,0,.7.18c.34.09.67.18,1,.24l1.37.3c.73.16,1.46.29,2.2.44l1.76.31c.52.09,1.05.18,1.57.25l1.75.26.4,0h.21q.47.08.93.12a1.63,1.63,0,0,0,.31,0l.31,0c1.08.12,2.16.22,3.26.3l.4,0,1.16.08h0l1.19.06c.16,0,.34,0,.51,0h.69c.35,0,.69,0,1.05,0s.58,0,.86,0H259c.29,0,.57,0,.86,0h.57l1.12,0h0l1.11-.06c.2,0,.39,0,.57,0,.63,0,1.29-.09,1.92-.14l1.41-.11c.18,0,.36,0,.52-.06a.16.16,0,0,0,.12,0c.34,0,.68-.06,1-.1s.61-.08.9-.12l1.91-.28.45-.06c1.44-.24,2.83-.51,4.21-.82s2.81-.68,4.16-1.08c.43-.13.86-.26,1.27-.41a10.16,10.16,0,0,0,1-.34l1.38-.48a.85.85,0,0,0,.17-.06c.59-.23,1.18-.46,1.76-.71s1.2-.5,1.79-.78c1.17-.55,2.31-1.14,3.39-1.77l6.09-3.51c8.39-4.83,13.07-11.55,13.17-18.92a.57.57,0,0,0,0-.26A19.24,19.24,0,0,0,309.74,177.54Zm-1.32,2.75c-.09,6.83-4.5,13.11-12.43,17.69l-6.09,3.51c-18.8,10.86-51.74,9.45-73.43-3.16l-7.17-4.16c-11.35-6.61-17.77-15.29-17.59-23.81a.64.64,0,0,0-.15-.44,119.87,119.87,0,0,1,15.89-49.6,113,113,0,0,1,10.08-14.56s0-.05.06-.07a0,0,0,0,0,0,0c.84-1,1.7-2,2.58-3s1.79-2,2.71-3c.68-.72,1.36-1.41,2.06-2.11a8.15,8.15,0,0,1,.72-.72c.94-.94,1.9-1.84,2.86-2.74.61-.57,1.22-1.12,1.84-1.63l.19-.17a2.46,2.46,0,0,1,.25-.22l.17-.15c.45-.41.91-.81,1.37-1.17,1.77-1.51,3.59-3,5.44-4.31,1.08-.8,2.16-1.58,3.27-2.34l2.15-1.32a8.68,8.68,0,0,1,1.26-.59c.19-.07.4-.13.61-.19a15.09,15.09,0,0,1,7.11-.36c.31.06.61.11.9.18s.51.13.76.21a4.91,4.91,0,0,1,.68.22,6.26,6.26,0,0,1,.65.25l1.19.52a6.46,6.46,0,0,1,2.26,1.52h0l0,.06.06.06c.77.55,1.53,1.13,2.27,1.71.33.25.67.5,1,.78a1,1,0,0,1,.16.12c.51.4,1,.82,1.52,1.23v0a7.74,7.74,0,0,1,.65.54l.37.31c.68.58,1.37,1.17,2,1.78,1.7,1.53,3.36,3.13,5,4.82.62.62,1.23,1.26,1.81,1.91.32.32.62.65.9,1s.59.66.87,1,.6.65.88,1,.61.68.87,1c.6.68,1.17,1.38,1.74,2.09a.47.47,0,0,1,.06.09s0,0,0,0h0l.8,1a118.56,118.56,0,0,1,9,13.34c13.38,22.78,18.55,47.95,19.5,59.27a14.72,14.72,0,0,1,.16,2.37Z"/><path class="cls-2" d="M221.5,112.25c-21.68,29.8-22.41,62.12-22.41,66a.72.72,0,0,1,.12.77.73.73,0,0,1-.68.46.67.67,0,0,1-.28-.06l-.18-.08a.73.73,0,0,1-.46-.66c0-.35-.62-35.29,22.71-67.34a.74.74,0,1,1,1.18.88Z"/><path class="cls-2" d="M236.35,104.23c-21.38,43.65-16.22,84.43-16.16,84.83a.77.77,0,0,1-.64.85h-.1a.72.72,0,0,1-.73-.64c-.06-.42-5.29-41.63,16.3-85.69a.75.75,0,0,1,1-.34A.74.74,0,0,1,236.35,104.23Z"/><path class="cls-2" d="M274.55,108.71a.75.75,0,0,0-1.05-.14.76.76,0,0,0-.13,1c23.67,30.56,24.4,64.74,24.4,68.7a.75.75,0,0,0-.1.77.78.78,0,0,0,.68.43.89.89,0,0,0,.31-.06l.16-.08a.74.74,0,0,0,.43-.66C299.27,178.35,299.92,141.46,274.55,108.71Z"/><path class="cls-2" d="M278.15,189.27a.74.74,0,0,1-.74.64h-.1a.74.74,0,0,1-.62-.85c0-.4,5.27-41.81-16.67-85.83a.75.75,0,0,1,1.34-.66C283.49,147,278.2,188.85,278.15,189.27Z"/><path class="cls-2" d="M203.9,341.49l-14.79-8.42a.77.77,0,0,0-.75,0l-15.25,9-1.15.67a.74.74,0,0,0-.37.53c0,.11-1.28,10,6.6,13.13a.78.78,0,0,0,.26,0h.09a.1.1,0,0,0,.09,0l.12,0,.06,0,25.08-13.57a.75.75,0,0,0,.39-.64v0A.71.71,0,0,0,203.9,341.49Zm-25.48,13.39h0c-.16-.08-.33-.15-.49-.25a8.28,8.28,0,0,1-4-4.46c-.09-.21-.17-.43-.24-.64a7.08,7.08,0,0,1-.22-.75c-.06-.23-.12-.45-.17-.66a.06.06,0,0,0,0,0,15.81,15.81,0,0,1-.28-3c0-.21,0-.39,0-.57a3.39,3.39,0,0,1,0-.47.53.53,0,0,1,0-.13v-.11h0l15.68-9.24L202,342.11Z"/><path class="cls-2" d="M204.84,225.07a.74.74,0,0,0-.65,0L190,216.94a.75.75,0,0,0-.74,0l-16.44,9.68-18.9,12.1a19.29,19.29,0,0,0-4.43,2.84,15.89,15.89,0,0,0-3.77,4.64s-.06.13-.07.15l.7.28-.77-.1c-.12.25-.24.5-.29.65a7.27,7.27,0,0,0-.34.92h0c0,.13-.09.27-.12.4s-.07.25-.13.42l-.07.23c-.06.23-.14.43-.18.65l-.13.55c-.09.43-.17.85-.23,1.26l0,.16c0,.08,0,.17,0,.26a16,16,0,0,0-.1,1.7c0,.47,0,6.36,0,13.19,0,9.45,0,20.74,0,22a.3.3,0,0,0,0,.13l-.7,47.9V337l0,1.62v.09l-.07,4.44v1.72L143,357.8c0,5.79,2.11,10.28,5.78,12.29l5.38,3a12.33,12.33,0,0,0,6.07,1.5,21.36,21.36,0,0,0,10.52-3.2l14.4-8.33,1.47-.84,17.28-10a.72.72,0,0,0,.38-.63v-9.43a.76.76,0,0,0-1.1-.65l-1.17.64-13.53,7.48L180.91,354a8.68,8.68,0,0,1-2.38,1l-.11,0h0c-.18-.08-.33-.16-.49-.25a8.28,8.28,0,0,1-4-4.46c-.09-.21-.17-.43-.24-.64a7.08,7.08,0,0,1-.22-.75c-.06-.23-.12-.45-.17-.66a.06.06,0,0,0,0,0,15.81,15.81,0,0,1-.28-3v-.3a2.44,2.44,0,0,1,0-.27,3.39,3.39,0,0,1,0-.47.53.53,0,0,1,0-.13.22.22,0,0,1,0-.11c0-.23,0-.38,0-.43l0-1.32.91-52.71v-.14l0-25.29c0-5.48,3.87-12.18,8.61-14.93l7.58-4.38,14.68-8.84a.72.72,0,0,0,.36-.64v-9.42A.77.77,0,0,0,204.84,225.07Zm-1.11,9.65-14.31,8.62-7.57,4.37c-5.16,3-9.35,10.25-9.35,16.21l0,25.42-.95,53.92c0,.11-1.28,10,6.6,13.13a.78.78,0,0,0,.26,0h.15s0,0,0,0l.12,0a9.4,9.4,0,0,0,2.9-1.14l7.56-4.35,13.58-7.5v7.74l-18,10.4h-.05l0,0-3.23,1.87L170,370.06a25.75,25.75,0,0,1-2.67,1.35.73.73,0,0,0-.55-.27,3.54,3.54,0,0,1-.45,0h-.11a1.27,1.27,0,0,1-.28,0,.64.64,0,0,1-.24,0h-.17a.39.39,0,0,0-.18,0h-.08a.82.82,0,0,0-.41.57.66.66,0,0,0,.12.55l-.91.25h0a2.2,2.2,0,0,1-.44.12l-.46.08-.12,0-.12,0a4.51,4.51,0,0,1-.72.12l-.17,0h-.22l-.72.08-.85,0a10.54,10.54,0,0,1-1.38-.09c-.26,0-.5-.06-.75-.11a.66.66,0,0,1-.15,0,6.9,6.9,0,0,1-1-.25c-.13,0-.27-.07-.4-.12a6.26,6.26,0,0,1-.65-.25,7.14,7.14,0,0,1-1-.47l-5.38-2.95c-3.18-1.75-5-5.75-5-11l.21-14.13v-.07l.08-5.29v-.08l.71-49.27a.27.27,0,0,0,0-.13c0-1.68,0-12.67,0-21.91,0-6.83,0-12.72,0-13.22a13.19,13.19,0,0,1,.1-1.51l.06-.37c0-.37.12-.76.19-1.13l.12-.51.18-.6.06-.2c.06-.15.1-.32.15-.48l.09-.33v0a.08.08,0,0,0,0-.06,4.72,4.72,0,0,1,.31-.8,3.71,3.71,0,0,1,.26-.64l.09-.19a14.3,14.3,0,0,1,3.41-4.18,18.86,18.86,0,0,1,4.18-2.68l19-12.14,16-9.43,13.08,7.45,1,.58Z"/><path class="cls-2" d="M162.85,275.92h0l0,2.83,0,2.68v.23l-.7,51.46a.73.73,0,0,1-.74.74.76.76,0,0,1-.6-.32.71.71,0,0,1-.14-.43l.68-50.77,0-2.48,0-.74,0-3.15a.74.74,0,0,1,.74-.73.61.61,0,0,1,.28.06h0a.35.35,0,0,1,.19.15s0,0,0,0a.49.49,0,0,1,.14.18l0,.06a.41.41,0,0,1,.05.19Z"/><path class="cls-2" d="M204.56,226.51l-.83.48-23.54,13.6a.71.71,0,0,1-.37.1.72.72,0,0,1-.64-.37.73.73,0,0,1,.27-1l23.25-13.42,1.12-.65a.73.73,0,0,1,.74,1.27Z"/><path class="cls-2" d="M242,195.71a.76.76,0,0,1-.52.92.62.62,0,0,1-.19,0,.75.75,0,0,1-.71-.55c-6.94-26.11-.8-70.43,3.48-94.53a.74.74,0,1,1,1.45.26C241.21,125.82,235.1,169.89,242,195.71Z"/><path class="cls-2" d="M256.93,196.1a.76.76,0,0,1-.72.55.65.65,0,0,1-.19,0,.76.76,0,0,1-.52-.92c6.88-25.91.73-70.07-3.54-94.08a.75.75,0,0,1,.6-.86.73.73,0,0,1,.85.59C257.71,125.51,263.87,169.92,256.93,196.1Z"/><path class="cls-2" d="M353.13,201a.7.7,0,0,0-.74,0l-45.33,26.17a.72.72,0,0,0-.37.64V348.6a.7.7,0,0,0,.37.63.58.58,0,0,0,.37.11.66.66,0,0,0,.37-.11l45.33-26.17a.72.72,0,0,0,.37-.64V201.59A.7.7,0,0,0,353.13,201ZM352,322l-43.85,25.32V228.2L352,202.88Z"/><path class="cls-2" d="M336.78,319.56l-12.63,7.29a.66.66,0,0,1-.37.1.74.74,0,0,1-.37-1.37L336,318.29a.74.74,0,1,1,.75,1.27Z"/><path class="cls-2" d="M336.78,303.43l-12.63,7.27a.6.6,0,0,1-.37.11.74.74,0,0,1-.37-1.38L336,302.14a.73.73,0,0,1,1,.27A.75.75,0,0,1,336.78,303.43Z"/><path class="cls-2" d="M336.78,287.28l-12.63,7.29a.75.75,0,0,1-.37.09.74.74,0,0,1-.37-1.38L336,286a.75.75,0,0,1,.75,1.29Z"/><path class="cls-2" d="M336.78,271.13l-12.63,7.29a.6.6,0,0,1-.37.11.75.75,0,0,1-.37-1.38L336,269.86a.74.74,0,0,1,.75,1.27Z"/><path class="cls-2" d="M323.78,262.38a.76.76,0,0,1-.64-.37.74.74,0,0,1,.27-1L336,253.71a.75.75,0,0,1,1,.27.74.74,0,0,1-.28,1l-12.61,7.29A.75.75,0,0,1,323.78,262.38Z"/><path class="cls-2" d="M323.78,246.23a.74.74,0,0,1-.37-1.38L336,237.57a.74.74,0,1,1,.74,1.28l-12.61,7.28A.75.75,0,0,1,323.78,246.23Z"/><path class="cls-2" d="M323.78,230.09a.74.74,0,0,1-.37-1.38L336,221.42a.75.75,0,0,1,1,.27.74.74,0,0,1-.28,1L324.16,230A.75.75,0,0,1,323.78,230.09Z"/><path class="cls-2" d="M353.5,252.05a.72.72,0,0,1-.37.65l-1.11.64-43.85,25.33-.37.21a.86.86,0,0,1-.37.1.75.75,0,0,1-.37-1.39l1.11-.64L352,251.62l.37-.21a.76.76,0,0,1,1,.29A.73.73,0,0,1,353.5,252.05Z"/><path class="cls-2" d="M347.41,260.11a2,2,0,0,0-1-.25,2.77,2.77,0,0,0-1.4.41,5.89,5.89,0,0,0-2.71,4.69,2.35,2.35,0,0,0,1.05,2.14,1.91,1.91,0,0,0,1,.26,3,3,0,0,0,1.42-.42,5.89,5.89,0,0,0,2.69-4.68A2.37,2.37,0,0,0,347.41,260.11ZM345,265.65a1,1,0,0,1-.92.16,1,1,0,0,1-.31-.85,4.39,4.39,0,0,1,2-3.4,1.26,1.26,0,0,1,.66-.22.48.48,0,0,1,.24.06c.19.1.31.43.31.86A4.41,4.41,0,0,1,345,265.65Z"/><path class="cls-2" d="M348.29,269.8a2.37,2.37,0,0,0-2.39.18,5.86,5.86,0,0,0-2.7,4.66,2.36,2.36,0,0,0,1.06,2.15,2,2,0,0,0,1,.25,2.77,2.77,0,0,0,1.41-.41,5.91,5.91,0,0,0,2.7-4.67A2.41,2.41,0,0,0,348.29,269.8Zm-2.39,5.54a.94.94,0,0,1-.9.16c-.2-.1-.31-.43-.31-.86a4.38,4.38,0,0,1,1.95-3.39,1.38,1.38,0,0,1,.67-.22.57.57,0,0,1,.24.06,1,1,0,0,1,.31.87A4.36,4.36,0,0,1,345.9,275.34Z"/><path class="cls-2" d="M341,273.3a2.43,2.43,0,0,0-1.21-.32,3.62,3.62,0,0,0-1.81.54,7.8,7.8,0,0,0-3.57,6.19,3,3,0,0,0,1.3,2.73,2.51,2.51,0,0,0,1.22.31,3.61,3.61,0,0,0,1.79-.54,7.77,7.77,0,0,0,3.59-6.2A2.92,2.92,0,0,0,341,273.3Zm-3,7.63a1.24,1.24,0,0,1-2.09-1.22,6.39,6.39,0,0,1,2.83-4.9,1.61,1.61,0,0,1,1.54-.24,1.62,1.62,0,0,1,.56,1.44A6.4,6.4,0,0,1,338,280.93Z"/><path class="cls-2" d="M327.92,314.46a2.41,2.41,0,0,0-2.4.17,5.27,5.27,0,0,0-1.91,2c-1.13,1.95-1,4.07.26,4.81a1.83,1.83,0,0,0,1,.25,4.28,4.28,0,0,0,3.34-2.41,5.43,5.43,0,0,0,.79-2.67A2.4,2.4,0,0,0,327.92,314.46Zm-1,4.08c-.77,1.35-1.86,1.85-2.28,1.63s-.5-1.45.28-2.8a4.08,4.08,0,0,1,1.37-1.47,1.59,1.59,0,0,1,.68-.21.64.64,0,0,1,.24.05,1,1,0,0,1,.31.87A4.14,4.14,0,0,1,326.89,318.54Z"/><path class="cls-2" d="M322.29,325.65c-1.29-.76-3.17.21-4.31,2.16s-1,4.08.28,4.82a1.9,1.9,0,0,0,.95.25,4.31,4.31,0,0,0,3.34-2.43,5.42,5.42,0,0,0,.77-2.65A2.38,2.38,0,0,0,322.29,325.65Zm-1,4.06c-.79,1.35-1.88,1.87-2.28,1.63s-.52-1.44.26-2.79a3,3,0,0,1,2.05-1.69.57.57,0,0,1,.24.06C322,327.16,322.05,328.36,321.28,329.71Z"/><path class="cls-2" d="M317.31,321.34a2.93,2.93,0,0,0-3,.22,7.34,7.34,0,0,0-2.53,2.67c-1.48,2.56-1.36,5.3.27,6.25a2.4,2.4,0,0,0,1.21.31,3.69,3.69,0,0,0,1.79-.53,7.3,7.3,0,0,0,2.55-2.67C319.07,325,319,322.27,317.31,321.34Zm-1,5.51a5.79,5.79,0,0,1-2,2.12,1.58,1.58,0,0,1-1.52.22c-.77-.44-.85-2.28.26-4.22a5.87,5.87,0,0,1,2-2.12,2.1,2.1,0,0,1,1.07-.34.92.92,0,0,1,.46.1C317.34,323.06,317.43,324.91,316.3,326.85Z"/><path class="cls-2" d="M321.87,311.55a1.66,1.66,0,0,0-1.72.1,3.53,3.53,0,0,0-1.24,1.3,3.2,3.2,0,0,0-.45,2.31,1.58,1.58,0,0,0,.72,1,1.41,1.41,0,0,0,.72.19,1.93,1.93,0,0,0,1-.28,3.47,3.47,0,0,0,1.25-1.32C322.92,313.49,322.81,312.08,321.87,311.55Zm-1,2.53a1.7,1.7,0,0,1-.93.87c-.09-.09-.12-.6.25-1.26a1.61,1.61,0,0,1,.95-.85A1.53,1.53,0,0,1,320.86,314.08Z"/><path class="cls-2" d="M179.55,241l-.74-1.28c-18,10.39-17.41,18.43-17.26,19.44l-.22,20,0-3.15a.74.74,0,0,1,.74-.73.61.61,0,0,1,.28.06h0a.35.35,0,0,1,.19.15s0,0,0,0a.49.49,0,0,1,.14.18l0,.06a.41.41,0,0,1,.05.19v0l.18-16.85a.66.66,0,0,0,0-.14C163,258.84,161.8,251.21,179.55,241Zm0,0-.74-1.28c-18,10.39-17.41,18.43-17.26,19.44l-.22,20,0-3.15a.74.74,0,0,1,.74-.73.61.61,0,0,1,.28.06h0a.35.35,0,0,1,.19.15s0,0,0,0a.49.49,0,0,1,.14.18l0,.06a.41.41,0,0,1,.05.19v0l.18-16.85a.66.66,0,0,0,0-.14C163,258.84,161.8,251.21,179.55,241Zm0,0-.74-1.28c-18,10.39-17.41,18.43-17.26,19.44l-.22,20,0-3.15a.74.74,0,0,1,.74-.73.61.61,0,0,1,.28.06h0a.35.35,0,0,1,.19.15s0,0,0,0a.49.49,0,0,1,.14.18l0,.06a.41.41,0,0,1,.05.19v0l.18-16.85a.66.66,0,0,0,0-.14C163,258.84,161.8,251.21,179.55,241Zm0,0-.74-1.28c-18,10.39-17.41,18.43-17.26,19.44l-.22,20,0-3.15a.74.74,0,0,1,.74-.73.61.61,0,0,1,.28.06h0a.35.35,0,0,1,.19.15s0,0,0,0a.49.49,0,0,1,.14.18l0,.06a.41.41,0,0,1,.05.19v0l.18-16.85a.66.66,0,0,0,0-.14C163,258.84,161.8,251.21,179.55,241Zm-34.78,97.36v0a.61.61,0,0,1,0,.13A.38.38,0,0,0,144.77,338.32Zm245.86-17.14V164.68a5.21,5.21,0,0,0-2.6-4.49L282.81,99.48A110.05,110.05,0,0,0,262.69,80.2a12.37,12.37,0,0,0-4-2.62L257.41,77a21,21,0,0,0-8.07-1.54,18,18,0,0,0-9.17,2.26L238,79.05a.91.91,0,0,0-.23.15,118.81,118.81,0,0,0-24.08,21.94L112,159.88a5.19,5.19,0,0,0-2.59,4.49V341a5.23,5.23,0,0,0,2.53,4.44l16.43,9.79a5.22,5.22,0,0,0,5.16.09l5.15-2.84-.07,5.26c0,7.51,2.95,13.43,8.07,16.25l5.38,2.95c5.76,3.18,13.47,2.56,21-1.74l.23-.14,11.95-6.89,42.44,24.69v16.68a5.23,5.23,0,0,0,2.59,4.51l17,9.79a5.16,5.16,0,0,0,5.19,0l17-9.79a5.23,5.23,0,0,0,2.59-4.51V393l79.65-46,14.37,8.3a5.29,5.29,0,0,0,5.12,0l17-9.48a5.18,5.18,0,0,0,2.67-4.52V321.4A1.28,1.28,0,0,0,390.63,321.18Zm-5.91,19.68-15.5,8.66-.74.41-.74-.43L353,341l1.15-.67h0l.1-.09s0,0,.05,0a.75.75,0,0,0,.1-.9.73.73,0,0,0-1-.27l-2.28,1.32-84.81,49a.79.79,0,0,0-.37.64v19.17l-16.22,9.36-16.23-9.36V391.25l15.86,9.15a.7.7,0,0,0,.74,0l4.72-2.72v0s0,0,0,0a.73.73,0,0,0-.74-1.26h0l-3.61,2.07v0l-.74.41-.74-.43-62.37-36.29-1.1-.64a.74.74,0,0,0-.56-.07.34.34,0,0,0-.15.06h-.05l0,0-3.23,1.87L170,370.06a1.88,1.88,0,0,1-.36.18,1.06,1.06,0,0,1-.28.13,6.54,6.54,0,0,1-.77.36c-.13,0-.23.09-.35.12l-.25.07a.63.63,0,0,1-.8.18l-.38,0a3.54,3.54,0,0,1-.45,0h-.11a1.27,1.27,0,0,1-.28,0l-.25,0h-.16a.39.39,0,0,0-.18,0h-.08l-.17-.13s-.06,0-.08,0l-.18-.06a.57.57,0,0,0-.29,0,.69.69,0,0,0-.24-.19,1.68,1.68,0,0,1-.44-.29l-.3-.22-.19-.19v0l0,0,0,0s0,0,0,0a1.56,1.56,0,0,1-.18-.21.3.3,0,0,0-.07-.1.57.57,0,0,0-.08-.13,2.08,2.08,0,0,1-.19-.29,14,14,0,0,1-.89-5.73l.89-81.8v-.23l0-2.68,0-2.83h0l.18-16.85a.66.66,0,0,0,0-.14c0-.09-1.22-7.72,16.53-18l-.74-1.28c-18,10.39-17.41,18.43-17.26,19.44l-.22,20,0,.74,0,2.48-.54,51.2-.17,14.4a.81.81,0,0,0-.06.31l-.12,17.11a8.8,8.8,0,0,0,1.09,4.53,5.1,5.1,0,0,0,1.69,2.15,3.37,3.37,0,0,0,.91.49h0l-.44.12-.46.08-.12,0-.12,0c-.23,0-.49.07-.72.12l-.17,0h-.22l-.72.08-.85,0a10.54,10.54,0,0,1-1.38-.09c-.26,0-.5-.06-.75-.11a.66.66,0,0,1-.15,0,6.9,6.9,0,0,1-1-.25c-.13,0-.27-.07-.4-.12a6.26,6.26,0,0,1-.65-.25,7.14,7.14,0,0,1-1-.47l-5.38-2.95c-3.18-1.75-5-5.75-5-11l.21-14.13v-.07a.66.66,0,0,0-.37-.61.71.71,0,0,0-.72,0l-.39.21-2.83,1.57-2.52,1.38-6.15,3.39-.72.4-.76-.44-14.95-8.92V322.39l14.95,8.95.37.22,1.11.62v0l4.43,2.5,7.14,4.05.37.2a.72.72,0,0,0,.75,0,.67.67,0,0,0,.26-.31.46.46,0,0,0,.08-.19.38.38,0,0,0,0-.1v-.08a.29.29,0,0,0,0-.15.22.22,0,0,0-.05-.14c0-.05,0-.06,0-.09v0a.61.61,0,0,0-.25-.23l-1.1-.64-27-15.73-.43-.26-.55-.32V164.79l.75-.42,98-56.6h0l3.39-2,.07,0s0-.05.06-.07a0,0,0,0,0,0,0s0,0,.06,0c.83-1,1.67-2,2.52-3s1.79-2,2.71-3c.68-.72,1.36-1.41,2.06-2.11q.34-.37.72-.72c.94-.94,1.9-1.84,2.86-2.74.61-.57,1.22-1.12,1.84-1.63l.19-.17a2.46,2.46,0,0,1,.25-.22l.17-.15c.45-.4.91-.78,1.37-1.17,1.77-1.49,3.59-2.93,5.44-4.31,1.08-.8,2.16-1.58,3.27-2.34l2.15-1.32a8.68,8.68,0,0,1,1.26-.59c.19-.07.4-.13.61-.19a16.62,16.62,0,0,1,7.11-.36c.31.06.61.11.9.18s.51.13.76.21a4.91,4.91,0,0,1,.68.22,6.26,6.26,0,0,1,.65.25l1.19.52a6.46,6.46,0,0,1,2.26,1.52s0,0,.06.06l.06.06c.77.55,1.53,1.13,2.27,1.71.33.25.67.5,1,.78a1,1,0,0,1,.16.12c.51.4,1,.82,1.52,1.23v0c.22.17.43.35.65.54l.37.31c.68.58,1.37,1.17,2,1.78,1.7,1.54,3.36,3.14,5,4.82.61.62,1.21,1.26,1.81,1.91.31.31.6.63.9,1s.59.66.87,1,.6.65.88,1,.59.68.87,1c.58.68,1.14,1.38,1.71,2.08l.09.1s0,0,0,0h0a.11.11,0,0,0,.08,0l3.26,1.89h0l87.34,50.41L384,164.68l.74.43V321l-.47.29-.29.17h0a.73.73,0,0,0,.7,1.29l0,0h.05ZM179.55,241l-.74-1.28c-18,10.39-17.41,18.43-17.26,19.44l-.22,20,0-3.15a.74.74,0,0,1,.74-.73.61.61,0,0,1,.28.06h0a.35.35,0,0,1,.19.15s0,0,0,0a.49.49,0,0,1,.14.18l0,.06a.41.41,0,0,1,.05.19v0l.18-16.85a.66.66,0,0,0,0-.14C163,258.84,161.8,251.21,179.55,241Zm0,0-.74-1.28c-18,10.39-17.41,18.43-17.26,19.44l-.22,20,0-3.15a.74.74,0,0,1,.74-.73.61.61,0,0,1,.28.06h0a.35.35,0,0,1,.19.15s0,0,0,0a.49.49,0,0,1,.14.18l0,.06a.41.41,0,0,1,.05.19v0l.18-16.85a.66.66,0,0,0,0-.14C163,258.84,161.8,251.21,179.55,241Zm0,0-.74-1.28c-18,10.39-17.41,18.43-17.26,19.44l-.22,20,0-3.15a.74.74,0,0,1,.74-.73.61.61,0,0,1,.28.06h0a.35.35,0,0,1,.19.15s0,0,0,0a.49.49,0,0,1,.14.18l0,.06a.41.41,0,0,1,.05.19v0l.18-16.85a.66.66,0,0,0,0-.14C163,258.84,161.8,251.21,179.55,241Zm0,0-.74-1.28c-18,10.39-17.41,18.43-17.26,19.44l-.22,20,0-3.15a.74.74,0,0,1,.74-.73.61.61,0,0,1,.28.06h0a.35.35,0,0,1,.19.15s0,0,0,0a.49.49,0,0,1,.14.18l0,.06a.41.41,0,0,1,.05.19v0l.18-16.85a.66.66,0,0,0,0-.14C163,258.84,161.8,251.21,179.55,241Z"/><path class="cls-3" d="M308.26,177.7c-.95-11.32-6.12-36.49-19.5-59.27a118.56,118.56,0,0,0-9-13.34c-.27-.35-.55-.69-.82-1,0,0,0,0,0,0l-.09-.1c-.57-.7-1.13-1.4-1.71-2.08q-.42-.51-.87-1c-.28-.34-.58-.67-.88-1s-.57-.67-.87-1-.59-.67-.9-1c-.6-.65-1.2-1.29-1.81-1.91-1.63-1.68-3.29-3.28-5-4.82-.68-.61-1.37-1.2-2-1.78l-.37-.31c-.22-.19-.43-.37-.65-.54v0c-.51-.41-1-.83-1.52-1.23a1,1,0,0,0-.16-.12c-.32-.28-.66-.53-1-.78-.74-.58-1.5-1.16-2.27-1.71l-.06-.06s0,0-.06-.06A6.46,6.46,0,0,0,256.38,83l-1.19-.52a6.26,6.26,0,0,0-.65-.25,4.91,4.91,0,0,0-.68-.22c-.25-.08-.5-.14-.76-.21s-.59-.12-.9-.18a16.62,16.62,0,0,0-7.11.36c-.21.06-.42.12-.61.19a8.68,8.68,0,0,0-1.26.59l-2.15,1.32c-1.11.76-2.19,1.54-3.27,2.34-1.85,1.38-3.67,2.82-5.44,4.31-.46.39-.92.77-1.37,1.17l-.17.15a2.46,2.46,0,0,0-.25.22l-.19.17c-.62.51-1.23,1.06-1.84,1.63-1,.9-1.92,1.8-2.86,2.74q-.37.35-.72.72c-.7.7-1.38,1.39-2.06,2.11-.92,1-1.83,2-2.71,3s-1.69,2-2.52,3c0,0,0,0-.06,0a0,0,0,0,1,0,0s0,0-.06.07a113,113,0,0,0-10.08,14.56,119.87,119.87,0,0,0-15.89,49.6.64.64,0,0,1,.15.44c-.18,8.52,6.24,17.2,17.59,23.81l7.17,4.16c21.69,12.61,54.63,14,73.43,3.16L296,198c7.93-4.58,12.34-10.86,12.43-17.69v-.22A14.72,14.72,0,0,0,308.26,177.7Zm-109.17.58a.72.72,0,0,1,.12.77.73.73,0,0,1-.68.46.67.67,0,0,1-.28-.06l-.18-.08a.73.73,0,0,1-.46-.66c0-.35-.62-35.29,22.71-67.34a.74.74,0,1,1,1.18.88C199.82,142.05,199.09,174.37,199.09,178.28Zm37.26-74c-21.38,43.65-16.22,84.43-16.16,84.83a.77.77,0,0,1-.64.85h-.1a.72.72,0,0,1-.73-.64c-.06-.42-5.29-41.63,16.3-85.69a.75.75,0,0,1,1-.34A.74.74,0,0,1,236.35,104.23Zm5.6,91.48a.76.76,0,0,1-.52.92.62.62,0,0,1-.19,0,.75.75,0,0,1-.71-.55c-6.94-26.11-.8-70.43,3.48-94.53a.74.74,0,1,1,1.45.26C241.21,125.82,235.1,169.89,242,195.71Zm15,.39a.76.76,0,0,1-.72.55.65.65,0,0,1-.19,0,.76.76,0,0,1-.52-.92c6.88-25.91.73-70.07-3.54-94.08a.75.75,0,0,1,.6-.86.73.73,0,0,1,.85.59C257.71,125.51,263.87,169.92,256.93,196.1Zm21.22-6.83a.74.74,0,0,1-.74.64h-.1a.74.74,0,0,1-.62-.85c0-.4,5.27-41.81-16.67-85.83a.75.75,0,0,1,1.34-.66C283.49,147,278.2,188.85,278.15,189.27Zm21.1-10.56a.74.74,0,0,1-.43.66l-.16.08a.89.89,0,0,1-.31.06.78.78,0,0,1-.68-.43.75.75,0,0,1,.1-.77c0-4-.73-38.14-24.4-68.7a.76.76,0,0,1,.13-1,.75.75,0,0,1,1.05.14C299.92,141.46,299.27,178.35,299.25,178.71Z"/><path class="cls-4" d="M384,164.68,270.76,230a42,42,0,0,1-42-.08L116,164.37l98-56.6a117.08,117.08,0,0,0-7.77,11.63v0L129.4,163.79a.74.74,0,0,0-.37.63.73.73,0,0,0,.37.64l101,58.79a38.66,38.66,0,0,0,38.68.07l101.46-58.59a.74.74,0,0,0,.37-.64.76.76,0,0,0-.37-.64l-80.65-46.53h0c-.59-1-1.2-2-1.82-3s-1.17-1.88-1.79-2.8-1.08-1.61-1.65-2.41c-.77-1.11-1.55-2.21-2.37-3.27l87.33,50.38Z"/><polygon class="cls-4" points="143.28 338.75 143.21 343.19 140.38 344.76 137.86 346.14 131.71 349.53 131.71 332.2 136.14 334.7 143.28 338.75"/><path class="cls-4" d="M202,342.11l-23.59,12.77h0c-.18-.08-.33-.16-.49-.25a8.28,8.28,0,0,1-4-4.46c-.09-.21-.17-.43-.24-.64a7.08,7.08,0,0,1-.22-.75c-.06-.23-.12-.45-.17-.66a.06.06,0,0,0,0,0,15.81,15.81,0,0,1-.28-3c0-.21,0-.39,0-.57a3.39,3.39,0,0,1,0-.47.53.53,0,0,1,0-.13.22.22,0,0,1,0-.11l15.68-9.24Z"/><path class="cls-4" d="M172.5,263.92l0,25.42-.95,53.92c0,.11-1.28,10,6.6,13.13a.78.78,0,0,0,.26,0h.15s0,0,0,0a9.56,9.56,0,0,0,3-1.17l7.56-4.35,13.58-7.5v7.74l-18,10.4h-.05l0,0-3.23,1.87L170,370.06a1.88,1.88,0,0,1-.36.18,1.06,1.06,0,0,1-.28.13,6.54,6.54,0,0,1-.77.36c-.13,0-.23.09-.35.12l-.25.07a.63.63,0,0,1-.8.18l-.38,0a3.54,3.54,0,0,1-.45,0h-.11a1.27,1.27,0,0,1-.28,0l-.25,0h-.16a.39.39,0,0,0-.18,0h-.08l-.17-.13s-.06,0-.08,0l-.18-.06a.57.57,0,0,0-.29,0,.69.69,0,0,0-.24-.19,1.68,1.68,0,0,1-.44-.29l-.3-.22-.19-.19v0l0,0,0,0s0,0,0,0a1.56,1.56,0,0,1-.18-.21.3.3,0,0,0-.07-.1.57.57,0,0,0-.08-.13,2.08,2.08,0,0,1-.19-.29,14,14,0,0,1-.89-5.73l.89-81.8v-.23l0-2.68,0-2.83h0l.18-16.85a.66.66,0,0,0,0-.14c0-.09-1.22-7.72,16.53-18l-.37-.64a.72.72,0,0,0,.64.37.71.71,0,0,0,.37-.1L203.73,227v7.73l-14.31,8.62-7.57,4.37C176.69,250.69,172.5,258,172.5,263.92Z"/><polygon class="cls-4" points="384.71 322.69 384.71 340.86 369.22 349.52 369.22 331.62 384.67 322.7 384.71 322.69"/><path class="cls-4" d="M271.5,231.31a43.31,43.31,0,0,1-21.69,5.81h.66V398.46l3.61-2.07h0l12.22-7.07,84.81-49,2.28-1.32,14.7-8.49L384.7,321V166Zm82,91.11a.72.72,0,0,1-.37.64L307.8,349.23a.66.66,0,0,1-.37.11.58.58,0,0,1-.37-.11.7.7,0,0,1-.37-.63V227.77a.72.72,0,0,1,.37-.64L352.39,201a.74.74,0,0,1,1.11.63Z"/><path class="cls-3" d="M308.17,278.67v68.64L352,322V253.34Zm15.24-1.52L336,269.86a.74.74,0,0,1,.75,1.27l-12.63,7.29a.6.6,0,0,1-.37.11.75.75,0,0,1-.37-1.38Zm-4.5,35.8a3.53,3.53,0,0,1,1.24-1.3,1.66,1.66,0,0,1,1.72-.1c.94.53,1.05,1.94.27,3.27a3.47,3.47,0,0,1-1.25,1.32,1.93,1.93,0,0,1-1,.28,1.41,1.41,0,0,1-.72-.19,1.58,1.58,0,0,1-.72-1A3.2,3.2,0,0,1,318.91,313ZM315,330.26a3.69,3.69,0,0,1-1.79.53,2.4,2.4,0,0,1-1.21-.31c-1.63-1-1.75-3.69-.27-6.25a7.34,7.34,0,0,1,2.53-2.67,2.93,2.93,0,0,1,3-.22c1.64.93,1.76,3.69.28,6.25A7.3,7.3,0,0,1,315,330.26Zm7.51.19a4.31,4.31,0,0,1-3.34,2.43,1.9,1.9,0,0,1-.95-.25c-1.29-.74-1.41-2.86-.28-4.82s3-2.92,4.31-2.16a2.38,2.38,0,0,1,1,2.15A5.42,5.42,0,0,1,322.55,330.45Zm14.23-10.89-12.63,7.29a.66.66,0,0,1-.37.1.74.74,0,0,1-.37-1.37L336,318.29a.74.74,0,1,1,.75,1.27Zm-13.17-2.93a5.27,5.27,0,0,1,1.91-2,2.14,2.14,0,0,1,3.45,2,5.43,5.43,0,0,1-.79,2.67,4.28,4.28,0,0,1-3.34,2.41,1.83,1.83,0,0,1-1-.25C322.6,320.7,322.48,318.58,323.61,316.63Zm13.17-13.2-12.63,7.27a.6.6,0,0,1-.37.11.74.74,0,0,1-.37-1.38L336,302.14a.73.73,0,0,1,1,.27A.75.75,0,0,1,336.78,303.43Zm0-16.15-12.63,7.29a.75.75,0,0,1-.37.09.74.74,0,0,1-.37-1.38L336,286a.75.75,0,0,1,.75,1.29Zm2-5.07a3.61,3.61,0,0,1-1.79.54,2.51,2.51,0,0,1-1.22-.31,3,3,0,0,1-1.3-2.73,7.8,7.8,0,0,1,3.57-6.19,3.62,3.62,0,0,1,1.81-.54,2.43,2.43,0,0,1,1.21.32,2.92,2.92,0,0,1,1.31,2.71A7.77,7.77,0,0,1,338.73,282.21ZM342.32,265a5.89,5.89,0,0,1,2.71-4.69,2.77,2.77,0,0,1,1.4-.41,2,2,0,0,1,1,.25,2.37,2.37,0,0,1,1,2.15,5.89,5.89,0,0,1-2.69,4.68,3,3,0,0,1-1.42.42,1.91,1.91,0,0,1-1-.26A2.35,2.35,0,0,1,342.32,265Zm4.32,11.67a2.77,2.77,0,0,1-1.41.41,2,2,0,0,1-1-.25,2.36,2.36,0,0,1-1.06-2.15,5.86,5.86,0,0,1,2.7-4.66,2.37,2.37,0,0,1,2.39-.18,2.41,2.41,0,0,1,1,2.16A5.91,5.91,0,0,1,346.64,276.63Z"/><rect class="cls-2" x="248.99" y="237.12" width="1.48" height="162.63"/></svg>