<svg id="Layer_1" data-name="Layer 1" xmlns="http://www.w3.org/2000/svg" viewBox="0 0 500 500"><defs><style>.cls-1{fill:#825b2b;}.cls-2{fill:#e8e7df;}.cls-3{fill:#73b3a9;}.cls-4{fill:#d59f5e;}</style></defs><path class="cls-1" d="M394.11,88.21,252.23,6.29a4.34,4.34,0,0,0-4.44,0L116.38,82.17l-.34.18-10.13,5.86a4.46,4.46,0,0,0-2.21,3.85V173.5c0,.13,0,.28,0,.43l0,210.64V408a4.41,4.41,0,0,0,2.22,3.84l20.27,11.7a4.44,4.44,0,0,0,6.66-3.85v-4l92.45,53.38v9.14a4.39,4.39,0,0,0,2.22,3.83l20.27,11.71a4.51,4.51,0,0,0,1.43.53,5.46,5.46,0,0,0,.79.06,4.37,4.37,0,0,0,2.22-.59L272.5,482a4.39,4.39,0,0,0,2.22-3.83v-9.14l92.45-53.38v4a4.44,4.44,0,0,0,4.45,4.44,4.48,4.48,0,0,0,2.22-.59l20.27-11.7a4.41,4.41,0,0,0,2.22-3.84V92.06A4.41,4.41,0,0,0,394.11,88.21Zm-164.37,390V466.48L128.41,408v11.69L108.14,408V384.57l0-210.64h0V92.06l10.14-5.88v0l.74-.43L250,10.12,391.13,91.63l.76.43V408l-20.27,11.69V408l-101.35,58.5v11.71L250,489.88l-.74-.43Z"/><path class="cls-2" d="M335.62,401.54l0-3.63a.73.73,0,0,1,.42-.67l41.18-20.59,4.24-2.12a.74.74,0,0,1,.72,0,.75.75,0,0,1,.36.64l0,3.66a1.38,1.38,0,0,1,0,.2,1,1,0,0,1-.22.34.24.24,0,0,1-.08.06s-.06.05-.09.05a.45.45,0,0,1-.12.06L336.7,402.2a.77.77,0,0,1-.34.08.74.74,0,0,1-.38-.12A.76.76,0,0,1,335.62,401.54Z"/><path class="cls-2" d="M335.62,387.82l0-3.62a.76.76,0,0,1,.42-.68l41.18-20.59,4.24-2.12a.74.74,0,0,1,.72,0,.76.76,0,0,1,.36.64l0,3.66a1.77,1.77,0,0,1,0,.21.87.87,0,0,1-.22.34l-.08.06s-.06,0-.09,0l-.12.06L336.7,388.49a.94.94,0,0,1-.34.07.72.72,0,0,1-.38-.1A.81.81,0,0,1,335.62,387.82Z"/><path class="cls-2" d="M335.62,374.12l0-3.63a.71.71,0,0,1,.42-.67l41.18-20.61,4.24-2.12a.69.69,0,0,1,.72.05.73.73,0,0,1,.36.62l0,3.66a1.77,1.77,0,0,1,0,.21.78.78,0,0,1-.16.28.55.55,0,0,1-.14.12l-.19.1L336.7,374.77a.94.94,0,0,1-.34.07.72.72,0,0,1-.38-.1A.79.79,0,0,1,335.62,374.12Z"/><path class="cls-2" d="M335.62,360.4l0-3.63a.72.72,0,0,1,.42-.67l41.18-20.61,4.24-2.11a.71.71,0,0,1,.72,0,.74.74,0,0,1,.36.64l0,3.66a1.25,1.25,0,0,1,0,.19.61.61,0,0,1-.16.28.55.55,0,0,1-.14.12l-.19.1L336.7,361.05a.65.65,0,0,1-.34.07.72.72,0,0,1-.38-.1A.78.78,0,0,1,335.62,360.4Z"/><path class="cls-2" d="M335.62,346.68l0-3.63a.74.74,0,0,1,.42-.67l41.18-20.59,4.24-2.12a.74.74,0,0,1,.72,0,.75.75,0,0,1,.36.64l0,3.66a1.77,1.77,0,0,1,0,.21.63.63,0,0,1-.16.26.41.41,0,0,1-.14.12.87.87,0,0,1-.19.1L336.7,347.33a.67.67,0,0,1-.72,0A.78.78,0,0,1,335.62,346.68Z"/><path class="cls-2" d="M148.66,273.78a2.46,2.46,0,0,0-2.49-.18,2.49,2.49,0,0,0-1.09,2.25,6.23,6.23,0,0,0,2.84,4.95,3.12,3.12,0,0,0,1.5.43,1.92,1.92,0,0,0,1-.27,2.44,2.44,0,0,0,1.1-2.23A6.22,6.22,0,0,0,148.66,273.78Zm1,5.91a1.14,1.14,0,0,1-1-.18,4.77,4.77,0,0,1-2.1-3.66,1.09,1.09,0,0,1,.35-1,.52.52,0,0,1,.29-.08,1.6,1.6,0,0,1,.72.24,4.74,4.74,0,0,1,2.12,3.68A1.09,1.09,0,0,1,149.68,279.69Zm-1-5.91a2.46,2.46,0,0,0-2.49-.18,2.49,2.49,0,0,0-1.09,2.25,6.23,6.23,0,0,0,2.84,4.95,3.12,3.12,0,0,0,1.5.43,1.92,1.92,0,0,0,1-.27,2.44,2.44,0,0,0,1.1-2.23A6.22,6.22,0,0,0,148.66,273.78Zm1,5.91a1.14,1.14,0,0,1-1-.18,4.77,4.77,0,0,1-2.1-3.66,1.09,1.09,0,0,1,.35-1,.52.52,0,0,1,.29-.08,1.6,1.6,0,0,1,.72.24,4.74,4.74,0,0,1,2.12,3.68A1.09,1.09,0,0,1,149.68,279.69Zm-1-5.91a2.46,2.46,0,0,0-2.49-.18,2.49,2.49,0,0,0-1.09,2.25,6.23,6.23,0,0,0,2.84,4.95,3.12,3.12,0,0,0,1.5.43,1.92,1.92,0,0,0,1-.27,2.44,2.44,0,0,0,1.1-2.23A6.22,6.22,0,0,0,148.66,273.78Zm1,5.91a1.14,1.14,0,0,1-1-.18,4.77,4.77,0,0,1-2.1-3.66,1.09,1.09,0,0,1,.35-1,.52.52,0,0,1,.29-.08,1.6,1.6,0,0,1,.72.24,4.74,4.74,0,0,1,2.12,3.68A1.09,1.09,0,0,1,149.68,279.69Zm-1-5.91a2.46,2.46,0,0,0-2.49-.18,2.49,2.49,0,0,0-1.09,2.25,6.23,6.23,0,0,0,2.84,4.95,3.12,3.12,0,0,0,1.5.43,1.92,1.92,0,0,0,1-.27,2.44,2.44,0,0,0,1.1-2.23A6.22,6.22,0,0,0,148.66,273.78Zm1,5.91a1.14,1.14,0,0,1-1-.18,4.77,4.77,0,0,1-2.1-3.66,1.09,1.09,0,0,1,.35-1,.52.52,0,0,1,.29-.08,1.6,1.6,0,0,1,.72.24,4.74,4.74,0,0,1,2.12,3.68A1.09,1.09,0,0,1,149.68,279.69Zm-1-5.91a2.46,2.46,0,0,0-2.49-.18,2.49,2.49,0,0,0-1.09,2.25,6.23,6.23,0,0,0,2.84,4.95,3.12,3.12,0,0,0,1.5.43,1.92,1.92,0,0,0,1-.27,2.44,2.44,0,0,0,1.1-2.23A6.22,6.22,0,0,0,148.66,273.78Zm1,5.91a1.14,1.14,0,0,1-1-.18,4.77,4.77,0,0,1-2.1-3.66,1.09,1.09,0,0,1,.35-1,.52.52,0,0,1,.29-.08,1.6,1.6,0,0,1,.72.24,4.74,4.74,0,0,1,2.12,3.68A1.09,1.09,0,0,1,149.68,279.69Zm-1-5.91a2.46,2.46,0,0,0-2.49-.18,2.49,2.49,0,0,0-1.09,2.25,6.23,6.23,0,0,0,2.84,4.95,3.12,3.12,0,0,0,1.5.43,1.92,1.92,0,0,0,1-.27,2.44,2.44,0,0,0,1.1-2.23A6.22,6.22,0,0,0,148.66,273.78Zm1,5.91a1.14,1.14,0,0,1-1-.18,4.77,4.77,0,0,1-2.1-3.66,1.09,1.09,0,0,1,.35-1,.52.52,0,0,1,.29-.08,1.6,1.6,0,0,1,.72.24,4.74,4.74,0,0,1,2.12,3.68A1.09,1.09,0,0,1,149.68,279.69Zm-1-5.91a2.46,2.46,0,0,0-2.49-.18,2.49,2.49,0,0,0-1.09,2.25,6.23,6.23,0,0,0,2.84,4.95,3.12,3.12,0,0,0,1.5.43,1.92,1.92,0,0,0,1-.27,2.44,2.44,0,0,0,1.1-2.23A6.22,6.22,0,0,0,148.66,273.78Zm1,5.91a1.14,1.14,0,0,1-1-.18,4.77,4.77,0,0,1-2.1-3.66,1.09,1.09,0,0,1,.35-1,.52.52,0,0,1,.29-.08,1.6,1.6,0,0,1,.72.24,4.74,4.74,0,0,1,2.12,3.68A1.09,1.09,0,0,1,149.68,279.69Zm-1-5.91a2.46,2.46,0,0,0-2.49-.18,2.49,2.49,0,0,0-1.09,2.25,6.23,6.23,0,0,0,2.84,4.95,3.12,3.12,0,0,0,1.5.43,1.92,1.92,0,0,0,1-.27,2.44,2.44,0,0,0,1.1-2.23A6.22,6.22,0,0,0,148.66,273.78Zm1,5.91a1.14,1.14,0,0,1-1-.18,4.77,4.77,0,0,1-2.1-3.66,1.09,1.09,0,0,1,.35-1,.52.52,0,0,1,.29-.08,1.6,1.6,0,0,1,.72.24,4.74,4.74,0,0,1,2.12,3.68A1.09,1.09,0,0,1,149.68,279.69Zm-1-5.91a2.46,2.46,0,0,0-2.49-.18,2.49,2.49,0,0,0-1.09,2.25,6.23,6.23,0,0,0,2.84,4.95,3.12,3.12,0,0,0,1.5.43,1.92,1.92,0,0,0,1-.27,2.44,2.44,0,0,0,1.1-2.23A6.22,6.22,0,0,0,148.66,273.78Zm1,5.91a1.14,1.14,0,0,1-1-.18,4.77,4.77,0,0,1-2.1-3.66,1.09,1.09,0,0,1,.35-1,.52.52,0,0,1,.29-.08,1.6,1.6,0,0,1,.72.24,4.74,4.74,0,0,1,2.12,3.68A1.09,1.09,0,0,1,149.68,279.69Zm-1-5.91a2.46,2.46,0,0,0-2.49-.18,2.49,2.49,0,0,0-1.09,2.25,6.23,6.23,0,0,0,2.84,4.95,3.12,3.12,0,0,0,1.5.43,1.92,1.92,0,0,0,1-.27,2.44,2.44,0,0,0,1.1-2.23A6.22,6.22,0,0,0,148.66,273.78Zm1,5.91a1.14,1.14,0,0,1-1-.18,4.77,4.77,0,0,1-2.1-3.66,1.09,1.09,0,0,1,.35-1,.52.52,0,0,1,.29-.08,1.6,1.6,0,0,1,.72.24,4.74,4.74,0,0,1,2.12,3.68A1.09,1.09,0,0,1,149.68,279.69Zm-1-5.91a2.46,2.46,0,0,0-2.49-.18,2.49,2.49,0,0,0-1.09,2.25,6.23,6.23,0,0,0,2.84,4.95,3.12,3.12,0,0,0,1.5.43,1.92,1.92,0,0,0,1-.27,2.44,2.44,0,0,0,1.1-2.23A6.22,6.22,0,0,0,148.66,273.78Zm1,5.91a1.14,1.14,0,0,1-1-.18,4.77,4.77,0,0,1-2.1-3.66,1.09,1.09,0,0,1,.35-1,.52.52,0,0,1,.29-.08,1.6,1.6,0,0,1,.72.24,4.74,4.74,0,0,1,2.12,3.68A1.09,1.09,0,0,1,149.68,279.69Zm-1-5.91a2.46,2.46,0,0,0-2.49-.18,2.49,2.49,0,0,0-1.09,2.25,6.23,6.23,0,0,0,2.84,4.95,3.12,3.12,0,0,0,1.5.43,1.92,1.92,0,0,0,1-.27,2.44,2.44,0,0,0,1.1-2.23A6.22,6.22,0,0,0,148.66,273.78Zm1,5.91a1.14,1.14,0,0,1-1-.18,4.77,4.77,0,0,1-2.1-3.66,1.09,1.09,0,0,1,.35-1,.52.52,0,0,1,.29-.08,1.6,1.6,0,0,1,.72.24,4.74,4.74,0,0,1,2.12,3.68A1.09,1.09,0,0,1,149.68,279.69Zm-1-5.91a2.46,2.46,0,0,0-2.49-.18,2.49,2.49,0,0,0-1.09,2.25,6.23,6.23,0,0,0,2.84,4.95,3.12,3.12,0,0,0,1.5.43,1.92,1.92,0,0,0,1-.27,2.44,2.44,0,0,0,1.1-2.23A6.22,6.22,0,0,0,148.66,273.78Zm1,5.91a1.14,1.14,0,0,1-1-.18,4.77,4.77,0,0,1-2.1-3.66,1.09,1.09,0,0,1,.35-1,.52.52,0,0,1,.29-.08,1.6,1.6,0,0,1,.72.24,4.74,4.74,0,0,1,2.12,3.68A1.09,1.09,0,0,1,149.68,279.69Zm-1-5.91a2.46,2.46,0,0,0-2.49-.18,2.49,2.49,0,0,0-1.09,2.25,6.23,6.23,0,0,0,2.84,4.95,3.12,3.12,0,0,0,1.5.43,1.92,1.92,0,0,0,1-.27,2.44,2.44,0,0,0,1.1-2.23A6.22,6.22,0,0,0,148.66,273.78Zm1,5.91a1.14,1.14,0,0,1-1-.18,4.77,4.77,0,0,1-2.1-3.66,1.09,1.09,0,0,1,.35-1,.52.52,0,0,1,.29-.08,1.6,1.6,0,0,1,.72.24,4.74,4.74,0,0,1,2.12,3.68A1.09,1.09,0,0,1,149.68,279.69ZM391.13,91.63,250,10.12,119,85.77l-.74.43v0l-10.14,5.88v81.88h0l0,210.64V408l20.27,11.69V408l101.33,58.5v11.71l19.53,11.26.74.43,20.26-11.69V466.48L371.62,408v11.69L391.89,408V92.06ZM156.77,145.1a.92.92,0,0,1,.51-.13,2.44,2.44,0,0,1,1.16.37,6.84,6.84,0,0,1,3.05,5.28,1.67,1.67,0,0,1-.64,1.57,1.71,1.71,0,0,1-1.67-.23,6.84,6.84,0,0,1-3.05-5.29A1.71,1.71,0,0,1,156.77,145.1Zm1.49-7.62s-.13,0-.31-.1a2.52,2.52,0,0,1-1.11-1.91.6.6,0,0,1,.06-.33h0a.78.78,0,0,1,.3.11,2.55,2.55,0,0,1,1.1,1.92A.81.81,0,0,1,158.26,137.48Zm7.6,13.63a.58.58,0,0,1,.28-.06,1.55,1.55,0,0,1,.74.24A4.78,4.78,0,0,1,169,155a1.08,1.08,0,0,1-.36,1,1,1,0,0,1-1-.16,4.75,4.75,0,0,1-2.11-3.66A1.14,1.14,0,0,1,165.86,151.11Zm1.84-6.62a1.14,1.14,0,0,1-1-.18,4.77,4.77,0,0,1-2.12-3.66,1.09,1.09,0,0,1,.35-1,.68.68,0,0,1,.28-.07,1.77,1.77,0,0,1,.75.23,4.8,4.8,0,0,1,2.11,3.68A1.11,1.11,0,0,1,167.7,144.49Zm91.73,105.07-8.68,5V174.39l2.19-1.28,6.49-3.72ZM142.54,274.38a1.79,1.79,0,0,1-.63,1.59,1.77,1.77,0,0,1-1.68-.24,6.88,6.88,0,0,1-3-5.3,1.76,1.76,0,0,1,.62-1.57,1,1,0,0,1,.54-.13,2.5,2.5,0,0,1,1.15.37A6.84,6.84,0,0,1,142.54,274.38Zm-5.48-6.8a3.13,3.13,0,0,0-1.36,2.85,8.28,8.28,0,0,0,3.79,6.58,3.83,3.83,0,0,0,1.9.57,2.36,2.36,0,0,0,1.26-.34,3.08,3.08,0,0,0,1.37-2.86,7.71,7.71,0,0,0-1.09-3.74,5.6,5.6,0,0,0-.3-.48l16.54,9.77V313l-28.43-16.68-.15-33.29,7.2,4.25A2.69,2.69,0,0,0,137.06,267.58Zm-8.78-46.36a.47.47,0,0,1-.31-.09,2.56,2.56,0,0,1-1.11-1.93.75.75,0,0,1,0-.31h0a.68.68,0,0,1,.29.1,2.54,2.54,0,0,1,1.11,1.92A.58.58,0,0,1,128.28,221.22Zm-1.5,7.61a1,1,0,0,1,.52-.13,2.5,2.5,0,0,1,1.17.37,6.9,6.9,0,0,1,3.05,5.29,1.37,1.37,0,0,1-2.31,1.33,6.86,6.86,0,0,1-3.07-5.29A1.75,1.75,0,0,1,126.78,228.83Zm22.33,38.46a.81.81,0,0,1-1.38.78,4.76,4.76,0,0,1-2.12-3.66,1.08,1.08,0,0,1,.36-1,.61.61,0,0,1,.28-.07,1.58,1.58,0,0,1,.74.25A4.73,4.73,0,0,1,149.11,267.29Zm-9.75-6.36a.53.53,0,0,1-.06.31s-.12,0-.31-.08a2.59,2.59,0,0,1-1.1-1.93.75.75,0,0,1,.05-.31h0a.58.58,0,0,1,.28.09A2.55,2.55,0,0,1,139.36,260.93Zm10.18-9.33-15.26-9.08,0-5.28a6.34,6.34,0,0,0,2.64,3.53,3.08,3.08,0,0,0,1.48.43,2,2,0,0,0,1-.27,2.46,2.46,0,0,0,1.1-2.25,6.21,6.21,0,0,0-2.86-4.93,2.46,2.46,0,0,0-2.49-.18,2,2,0,0,0-.89,1.05l0-7a5.48,5.48,0,0,0,1.74,1.66,3,3,0,0,0,1.48.43,2.06,2.06,0,0,0,1-.25,2.49,2.49,0,0,0,1.1-2.25,6.21,6.21,0,0,0-2.84-4.95,2.48,2.48,0,0,0-2.49-.19l0-12.84,15.35,9.21Zm-14-15.78c0-.47.13-.84.37-1a.57.57,0,0,1,.27-.07,1.6,1.6,0,0,1,.74.23,4.79,4.79,0,0,1,2.12,3.66.81.81,0,0,1-1.38.8A4.77,4.77,0,0,1,135.52,235.82Zm-.93-11.43a1.13,1.13,0,0,1,.35-1,.65.65,0,0,1,.29-.07,1.65,1.65,0,0,1,.74.25,4.72,4.72,0,0,1,2.1,3.66,1.08,1.08,0,0,1-.36,1,1.06,1.06,0,0,1-1-.17A4.73,4.73,0,0,1,134.59,224.39Zm95.8,12.4,2.49,1.43-2.49,1.42Zm4,.54,0,0-3.86-2.22v-2.69l3.91,2.46ZM239.3,185l-3.41,2v-2a.74.74,0,0,0-.37-.63.7.7,0,0,0-.74,0L231.87,186l-2.59,1.49a.76.76,0,0,0-.37.64v52.78a.79.79,0,0,0,.37.66.8.8,0,0,0,.74,0l4.68-2.71s0,0,0,0l.79-.45a.72.72,0,0,0,.37-.64v-2.83l3.41-2v4.8l-9.9,5.72-2.73,1.57v-57.6l12.63-7.27Zm-4.91,236.77v2.41l-.06,0L230.48,422v-2.7Zm-4,1.87,2.49,1.43-2.49,1.44Zm8.9-155.9-3.41,2v-2a.74.74,0,0,0-1.11-.63l-2.9,1.67-2.59,1.5a.72.72,0,0,0-.37.65V427.76a.74.74,0,0,0,.37.64.75.75,0,0,0,.74,0l4.69-2.72h0l.78-.46a.71.71,0,0,0,.37-.64v-2.83l3.41-2v4.82l-12.62,7.29V270.19l12.62-7.29Zm11.47-11.42,8.68-5V460.19l-8.68,5ZM391.14,407.55,372.36,418.4V408a.76.76,0,0,0-.37-.65.75.75,0,0,0-.74,0L269.9,465.85a.72.72,0,0,0-.37.63v11.28L250.75,488.6V466.88l9.79-5.63a.74.74,0,0,0,.37-.63V168.51L391.14,93.34ZM147.92,280.8a3.12,3.12,0,0,0,1.5.43,1.92,1.92,0,0,0,1-.27,2.44,2.44,0,0,0,1.1-2.23,6.22,6.22,0,0,0-2.86-5,2.46,2.46,0,0,0-2.49-.18,2.49,2.49,0,0,0-1.09,2.25A6.23,6.23,0,0,0,147.92,280.8Zm-1-5.91a.52.52,0,0,1,.29-.08,1.6,1.6,0,0,1,.72.24,4.74,4.74,0,0,1,2.12,3.68,1.09,1.09,0,0,1-.36,1,1.14,1.14,0,0,1-1-.18,4.77,4.77,0,0,1-2.1-3.66A1.09,1.09,0,0,1,146.91,274.89Zm1.75-1.11a2.46,2.46,0,0,0-2.49-.18,2.49,2.49,0,0,0-1.09,2.25,6.23,6.23,0,0,0,2.84,4.95,3.12,3.12,0,0,0,1.5.43,1.92,1.92,0,0,0,1-.27,2.44,2.44,0,0,0,1.1-2.23A6.22,6.22,0,0,0,148.66,273.78Zm1,5.91a1.14,1.14,0,0,1-1-.18,4.77,4.77,0,0,1-2.1-3.66,1.09,1.09,0,0,1,.35-1,.52.52,0,0,1,.29-.08,1.6,1.6,0,0,1,.72.24,4.74,4.74,0,0,1,2.12,3.68A1.09,1.09,0,0,1,149.68,279.69Zm-1-5.91a2.46,2.46,0,0,0-2.49-.18,2.49,2.49,0,0,0-1.09,2.25,6.23,6.23,0,0,0,2.84,4.95,3.12,3.12,0,0,0,1.5.43,1.92,1.92,0,0,0,1-.27,2.44,2.44,0,0,0,1.1-2.23A6.22,6.22,0,0,0,148.66,273.78Zm1,5.91a1.14,1.14,0,0,1-1-.18,4.77,4.77,0,0,1-2.1-3.66,1.09,1.09,0,0,1,.35-1,.52.52,0,0,1,.29-.08,1.6,1.6,0,0,1,.72.24,4.74,4.74,0,0,1,2.12,3.68A1.09,1.09,0,0,1,149.68,279.69Zm-1-5.91a2.46,2.46,0,0,0-2.49-.18,2.49,2.49,0,0,0-1.09,2.25,6.23,6.23,0,0,0,2.84,4.95,3.12,3.12,0,0,0,1.5.43,1.92,1.92,0,0,0,1-.27,2.44,2.44,0,0,0,1.1-2.23A6.22,6.22,0,0,0,148.66,273.78Zm1,5.91a1.14,1.14,0,0,1-1-.18,4.77,4.77,0,0,1-2.1-3.66,1.09,1.09,0,0,1,.35-1,.52.52,0,0,1,.29-.08,1.6,1.6,0,0,1,.72.24,4.74,4.74,0,0,1,2.12,3.68A1.09,1.09,0,0,1,149.68,279.69Zm-1-5.91a2.46,2.46,0,0,0-2.49-.18,2.49,2.49,0,0,0-1.09,2.25,6.23,6.23,0,0,0,2.84,4.95,3.12,3.12,0,0,0,1.5.43,1.92,1.92,0,0,0,1-.27,2.44,2.44,0,0,0,1.1-2.23A6.22,6.22,0,0,0,148.66,273.78Zm1,5.91a1.14,1.14,0,0,1-1-.18,4.77,4.77,0,0,1-2.1-3.66,1.09,1.09,0,0,1,.35-1,.52.52,0,0,1,.29-.08,1.6,1.6,0,0,1,.72.24,4.74,4.74,0,0,1,2.12,3.68A1.09,1.09,0,0,1,149.68,279.69Zm-1-5.91a2.46,2.46,0,0,0-2.49-.18,2.49,2.49,0,0,0-1.09,2.25,6.23,6.23,0,0,0,2.84,4.95,3.12,3.12,0,0,0,1.5.43,1.92,1.92,0,0,0,1-.27,2.44,2.44,0,0,0,1.1-2.23A6.22,6.22,0,0,0,148.66,273.78Zm1,5.91a1.14,1.14,0,0,1-1-.18,4.77,4.77,0,0,1-2.1-3.66,1.09,1.09,0,0,1,.35-1,.52.52,0,0,1,.29-.08,1.6,1.6,0,0,1,.72.24,4.74,4.74,0,0,1,2.12,3.68A1.09,1.09,0,0,1,149.68,279.69Zm-1-5.91a2.46,2.46,0,0,0-2.49-.18,2.49,2.49,0,0,0-1.09,2.25,6.23,6.23,0,0,0,2.84,4.95,3.12,3.12,0,0,0,1.5.43,1.92,1.92,0,0,0,1-.27,2.44,2.44,0,0,0,1.1-2.23A6.22,6.22,0,0,0,148.66,273.78Zm1,5.91a1.14,1.14,0,0,1-1-.18,4.77,4.77,0,0,1-2.1-3.66,1.09,1.09,0,0,1,.35-1,.52.52,0,0,1,.29-.08,1.6,1.6,0,0,1,.72.24,4.74,4.74,0,0,1,2.12,3.68A1.09,1.09,0,0,1,149.68,279.69Zm-1-5.91a2.46,2.46,0,0,0-2.49-.18,2.49,2.49,0,0,0-1.09,2.25,6.23,6.23,0,0,0,2.84,4.95,3.12,3.12,0,0,0,1.5.43,1.92,1.92,0,0,0,1-.27,2.44,2.44,0,0,0,1.1-2.23A6.22,6.22,0,0,0,148.66,273.78Zm1,5.91a1.14,1.14,0,0,1-1-.18,4.77,4.77,0,0,1-2.1-3.66,1.09,1.09,0,0,1,.35-1,.52.52,0,0,1,.29-.08,1.6,1.6,0,0,1,.72.24,4.74,4.74,0,0,1,2.12,3.68A1.09,1.09,0,0,1,149.68,279.69Zm-1-5.91a2.46,2.46,0,0,0-2.49-.18,2.49,2.49,0,0,0-1.09,2.25,6.23,6.23,0,0,0,2.84,4.95,3.12,3.12,0,0,0,1.5.43,1.92,1.92,0,0,0,1-.27,2.44,2.44,0,0,0,1.1-2.23A6.22,6.22,0,0,0,148.66,273.78Zm1,5.91a1.14,1.14,0,0,1-1-.18,4.77,4.77,0,0,1-2.1-3.66,1.09,1.09,0,0,1,.35-1,.52.52,0,0,1,.29-.08,1.6,1.6,0,0,1,.72.24,4.74,4.74,0,0,1,2.12,3.68A1.09,1.09,0,0,1,149.68,279.69Zm-1-5.91a2.46,2.46,0,0,0-2.49-.18,2.49,2.49,0,0,0-1.09,2.25,6.23,6.23,0,0,0,2.84,4.95,3.12,3.12,0,0,0,1.5.43,1.92,1.92,0,0,0,1-.27,2.44,2.44,0,0,0,1.1-2.23A6.22,6.22,0,0,0,148.66,273.78Zm1,5.91a1.14,1.14,0,0,1-1-.18,4.77,4.77,0,0,1-2.1-3.66,1.09,1.09,0,0,1,.35-1,.52.52,0,0,1,.29-.08,1.6,1.6,0,0,1,.72.24,4.74,4.74,0,0,1,2.12,3.68A1.09,1.09,0,0,1,149.68,279.69Zm-1-5.91a2.46,2.46,0,0,0-2.49-.18,2.49,2.49,0,0,0-1.09,2.25,6.23,6.23,0,0,0,2.84,4.95,3.12,3.12,0,0,0,1.5.43,1.92,1.92,0,0,0,1-.27,2.44,2.44,0,0,0,1.1-2.23A6.22,6.22,0,0,0,148.66,273.78Zm1,5.91a1.14,1.14,0,0,1-1-.18,4.77,4.77,0,0,1-2.1-3.66,1.09,1.09,0,0,1,.35-1,.52.52,0,0,1,.29-.08,1.6,1.6,0,0,1,.72.24,4.74,4.74,0,0,1,2.12,3.68A1.09,1.09,0,0,1,149.68,279.69Zm-1-5.91a2.46,2.46,0,0,0-2.49-.18,2.49,2.49,0,0,0-1.09,2.25,6.23,6.23,0,0,0,2.84,4.95,3.12,3.12,0,0,0,1.5.43,1.92,1.92,0,0,0,1-.27,2.44,2.44,0,0,0,1.1-2.23A6.22,6.22,0,0,0,148.66,273.78Zm1,5.91a1.14,1.14,0,0,1-1-.18,4.77,4.77,0,0,1-2.1-3.66,1.09,1.09,0,0,1,.35-1,.52.52,0,0,1,.29-.08,1.6,1.6,0,0,1,.72.24,4.74,4.74,0,0,1,2.12,3.68A1.09,1.09,0,0,1,149.68,279.69Zm-1-5.91a2.46,2.46,0,0,0-2.49-.18,2.49,2.49,0,0,0-1.09,2.25,6.23,6.23,0,0,0,2.84,4.95,3.12,3.12,0,0,0,1.5.43,1.92,1.92,0,0,0,1-.27,2.44,2.44,0,0,0,1.1-2.23A6.22,6.22,0,0,0,148.66,273.78Zm1,5.91a1.14,1.14,0,0,1-1-.18,4.77,4.77,0,0,1-2.1-3.66,1.09,1.09,0,0,1,.35-1,.52.52,0,0,1,.29-.08,1.6,1.6,0,0,1,.72.24,4.74,4.74,0,0,1,2.12,3.68A1.09,1.09,0,0,1,149.68,279.69Z"/><polygon class="cls-3" points="232.88 238.22 230.39 239.65 230.39 236.79 232.88 238.22"/><path class="cls-1" d="M136.71,222.31a2.48,2.48,0,0,0-2.49-.19h0a2.5,2.5,0,0,0-1.09,2.26,6,6,0,0,0,1.12,3.28,5.48,5.48,0,0,0,1.74,1.66,3,3,0,0,0,1.48.43,2.06,2.06,0,0,0,1-.25,2.49,2.49,0,0,0,1.1-2.25A6.21,6.21,0,0,0,136.71,222.31Zm1,5.91a1.06,1.06,0,0,1-1-.17,4.73,4.73,0,0,1-2.12-3.66,1.13,1.13,0,0,1,.35-1,.65.65,0,0,1,.29-.07,1.65,1.65,0,0,1,.74.25,4.72,4.72,0,0,1,2.1,3.66A1.08,1.08,0,0,1,137.71,228.22Z"/><path class="cls-1" d="M137.64,233.75a2.46,2.46,0,0,0-2.49-.18,2,2,0,0,0-.89,1.05,3,3,0,0,0-.22,1.2,4.77,4.77,0,0,0,.22,1.42,6.34,6.34,0,0,0,2.64,3.53,3.08,3.08,0,0,0,1.48.43,2,2,0,0,0,1-.27,2.46,2.46,0,0,0,1.1-2.25A6.21,6.21,0,0,0,137.64,233.75Zm1,5.91a1.14,1.14,0,0,1-1-.18,4.77,4.77,0,0,1-2.12-3.66c0-.47.13-.84.37-1a.57.57,0,0,1,.27-.07,1.6,1.6,0,0,1,.74.23,4.79,4.79,0,0,1,2.12,3.66A1.13,1.13,0,0,1,138.66,239.66Z"/><path class="cls-1" d="M132.77,232.7v0a8.43,8.43,0,0,0-3.56-4.89h0a3.18,3.18,0,0,0-3.17-.24,3.11,3.11,0,0,0-1.38,2.86,8.3,8.3,0,0,0,3.81,6.58,3.76,3.76,0,0,0,1.9.56,2.54,2.54,0,0,0,1.26-.32,2.65,2.65,0,0,0,1.15-1.46,4.11,4.11,0,0,0,.22-1.4A6,6,0,0,0,132.77,232.7Zm-1.89,3.24a1.78,1.78,0,0,1-1.67-.25,6.86,6.86,0,0,1-3.07-5.29,1.75,1.75,0,0,1,.64-1.57,1,1,0,0,1,.52-.13,2.5,2.5,0,0,1,1.17.37,6.9,6.9,0,0,1,3.05,5.29A1.77,1.77,0,0,1,130.88,235.94Z"/><path class="cls-1" d="M128,217.7a1.72,1.72,0,0,0-1.78-.1,1.76,1.76,0,0,0-.82,1.6,4,4,0,0,0,1.86,3.2,2,2,0,0,0,1,.3,1.47,1.47,0,0,0,.76-.2,1.77,1.77,0,0,0,.8-1.6A4,4,0,0,0,128,217.7Zm.31,3.52a.47.47,0,0,1-.31-.09,2.56,2.56,0,0,1-1.11-1.93.75.75,0,0,1,0-.31h0a.68.68,0,0,1,.29.1,2.54,2.54,0,0,1,1.11,1.92A.58.58,0,0,1,128.28,221.22Z"/><path class="cls-1" d="M166.68,138.58a2.24,2.24,0,0,0-3.6,2.07,6.23,6.23,0,0,0,2.86,4.95,3,3,0,0,0,1.48.43,2.09,2.09,0,0,0,1-.26,2.46,2.46,0,0,0,1.1-2.24A6.23,6.23,0,0,0,166.68,138.58Zm1,5.91a1.14,1.14,0,0,1-1-.18,4.77,4.77,0,0,1-2.12-3.66,1.09,1.09,0,0,1,.35-1,.68.68,0,0,1,.28-.07,1.77,1.77,0,0,1,.75.23,4.8,4.8,0,0,1,2.11,3.68A1.11,1.11,0,0,1,167.7,144.49Z"/><path class="cls-4" d="M168.05,143.53a1.11,1.11,0,0,1-.35,1,1.14,1.14,0,0,1-1-.18,4.77,4.77,0,0,1-2.12-3.66,1.09,1.09,0,0,1,.35-1,.68.68,0,0,1,.28-.07,1.77,1.77,0,0,1,.75.23A4.8,4.8,0,0,1,168.05,143.53Z"/><path class="cls-1" d="M167.62,150a2.24,2.24,0,0,0-3.6,2.07,6.26,6.26,0,0,0,2.86,4.95,3.06,3.06,0,0,0,1.49.43,1.92,1.92,0,0,0,1-.27,2.46,2.46,0,0,0,1.1-2.25A6.2,6.2,0,0,0,167.62,150Zm1,5.89a1,1,0,0,1-1-.16,4.75,4.75,0,0,1-2.11-3.66,1.14,1.14,0,0,1,.35-1,.58.58,0,0,1,.28-.06,1.55,1.55,0,0,1,.74.24A4.78,4.78,0,0,1,169,155,1.08,1.08,0,0,1,168.63,155.91Z"/><path class="cls-4" d="M169,155a1.08,1.08,0,0,1-.36,1,1,1,0,0,1-1-.16,4.75,4.75,0,0,1-2.11-3.66,1.14,1.14,0,0,1,.35-1,.58.58,0,0,1,.28-.06,1.55,1.55,0,0,1,.74.24A4.78,4.78,0,0,1,169,155Z"/><path class="cls-1" d="M161.88,146.88a7.6,7.6,0,0,0-2.7-2.83,2.81,2.81,0,0,0-4.53,2.62,8.28,8.28,0,0,0,3.79,6.58,3.89,3.89,0,0,0,1.9.56,2.34,2.34,0,0,0,1.25-.33,3.09,3.09,0,0,0,1.38-2.86A7.74,7.74,0,0,0,161.88,146.88Zm-1,5.31a1.71,1.71,0,0,1-1.67-.23,6.84,6.84,0,0,1-3.05-5.29,1.71,1.71,0,0,1,.64-1.57.92.92,0,0,1,.51-.13,2.44,2.44,0,0,1,1.16.37,6.84,6.84,0,0,1,3.05,5.28A1.67,1.67,0,0,1,160.85,152.19Z"/><path class="cls-4" d="M161.49,150.62a1.67,1.67,0,0,1-.64,1.57,1.71,1.71,0,0,1-1.67-.23,6.84,6.84,0,0,1-3.05-5.29,1.71,1.71,0,0,1,.64-1.57.92.92,0,0,1,.51-.13,2.44,2.44,0,0,1,1.16.37A6.84,6.84,0,0,1,161.49,150.62Z"/><path class="cls-1" d="M158,134a1.63,1.63,0,0,0-2.59,1.5,4,4,0,0,0,1.85,3.2,2,2,0,0,0,1,.3,1.39,1.39,0,0,0,.76-.2,1.73,1.73,0,0,0,.8-1.6A4,4,0,0,0,158,134Zm.31,3.51s-.13,0-.31-.1a2.52,2.52,0,0,1-1.11-1.91.6.6,0,0,1,.06-.33h0a.78.78,0,0,1,.3.11,2.55,2.55,0,0,1,1.1,1.92A.81.81,0,0,1,158.26,137.48Z"/><path class="cls-4" d="M158.31,137.17a.81.81,0,0,1-.05.31s-.13,0-.31-.1a2.52,2.52,0,0,1-1.11-1.91.6.6,0,0,1,.06-.33h0a.78.78,0,0,1,.3.11A2.55,2.55,0,0,1,158.31,137.17Z"/><path class="cls-1" d="M392.26,91.41a.77.77,0,0,0-.75,0l-.38.22-.73.43h0L260.16,167.25h0l-1.47.84-6.8,3.93L250,173.1l-.37.21a.74.74,0,0,0-.37.63V489.88a.77.77,0,0,0,.37.65.84.84,0,0,0,.37.09.78.78,0,0,0,.37-.09l20.26-11.71a.7.7,0,0,0,.37-.63V466.91l99.87-57.66v10.42a.72.72,0,0,0,.37.65.75.75,0,0,0,.74,0l20.27-11.7a.79.79,0,0,0,.37-.64V92.06A.78.78,0,0,0,392.26,91.41Zm-139.32,81.7,7.69-4.43s0,0,.06,0l0,0,.19-.1L391.14,93.34V407.55L372.36,418.4V408a.76.76,0,0,0-.37-.65.75.75,0,0,0-.74,0L269.9,465.85a.72.72,0,0,0-.37.63v11.28L250.75,488.6V174.39Z"/><path class="cls-1" d="M392.26,91.41,250.38,9.49a.7.7,0,0,0-.74,0L118,85.5l-.09,0-10.14,5.86a.76.76,0,0,0-.37.65.74.74,0,0,0,.37.64l.37.21,141.13,81.48.37.2a.84.84,0,0,0,.37.09.81.81,0,0,0,.37-.09l.37-.2,2.19-1.28,7.69-4.43s0,0,.06,0l.22-.12h0L391.14,93.34l.75-.43.37-.21a.75.75,0,0,0,.37-.64A.78.78,0,0,0,392.26,91.41Zm-132.1,75.84h0l-1.47.84-6.8,3.93L250,173.1l-140.38-81h0l8.65-5,1.48-.86L250,11,390.39,92.06Z"/><path class="cls-1" d="M260.54,167.47a.75.75,0,0,0-.74,0l-1.11.64L251.87,172,250,173.1l-.37.21a.74.74,0,0,0-.37.63v81.91a.74.74,0,0,0,.37.65.84.84,0,0,0,.37.09.78.78,0,0,0,.37-.09l.37-.2v0l8.68-5,1.11-.63a.79.79,0,0,0,.37-.65V168.12A.76.76,0,0,0,260.54,167.47Zm-9.79,87.11V174.39l2.19-1.28,6.49-3.72v80.17Z"/><polygon class="cls-3" points="259.43 169.4 259.43 249.56 250.75 254.58 250.75 174.39 252.94 173.11 259.43 169.4"/><path class="cls-1" d="M250.38,255.21,250,255l-.74-.43-18.06-10.45-1.11-.63a.73.73,0,0,0-.7,0l-2.73,1.57-.75.43-.73-.4-4.29-2.35v-4.11a.74.74,0,0,0-.37-.63l-1.11-.64L108.47,173.28a.63.63,0,0,0-.33-.09.86.86,0,0,0-.41.1.76.76,0,0,0-.36.64l0,210.63a.74.74,0,0,0,.37.64l.37.2,141.13,81.5.35.21a.93.93,0,0,0,.37.1h0a.93.93,0,0,0,.35-.1.73.73,0,0,0,.37-.64v-1.29l0-156.68V255.85A.76.76,0,0,0,250.38,255.21Zm-141.52-80,110.56,63.83v4.11a.76.76,0,0,0,.38.65l5.76,3.15,0,0a.59.59,0,0,0,.16.06l.19,0a.58.58,0,0,0,.37-.11l3.43-2,19.54,11.29V309l0,156.23L108.89,384.13Z"/><path class="cls-4" d="M128.34,220.9a.58.58,0,0,1-.06.32.47.47,0,0,1-.31-.09,2.56,2.56,0,0,1-1.11-1.93.75.75,0,0,1,0-.31h0a.68.68,0,0,1,.29.1A2.54,2.54,0,0,1,128.34,220.9Z"/><path class="cls-4" d="M131.52,234.36a1.37,1.37,0,0,1-2.31,1.33,6.86,6.86,0,0,1-3.07-5.29,1.75,1.75,0,0,1,.64-1.57,1,1,0,0,1,.52-.13,2.5,2.5,0,0,1,1.17.37A6.9,6.9,0,0,1,131.52,234.36Z"/><polygon class="cls-3" points="232.87 425.03 230.38 426.47 230.38 423.6 232.87 425.03"/><path class="cls-1" d="M260.54,249.35a.7.7,0,0,0-.74,0l-.37.21-8.68,5L250,255l-.37.2a.76.76,0,0,0-.37.64V309l0,156.23v1.28a.18.18,0,0,0,0,.1.71.71,0,0,0,.35.54.93.93,0,0,0,.37.1h0a.93.93,0,0,0,.35-.1l.39-.23,9.79-5.63a.74.74,0,0,0,.37-.63V250A.76.76,0,0,0,260.54,249.35Zm-1.11,210.84-8.68,5,0,0,0-156.68V256.28l8.68-5Z"/><polygon class="cls-3" points="259.43 251.27 259.43 460.19 250.75 465.17 250.75 256.28 259.43 251.27"/><path class="cls-1" d="M260.54,167.47l-.38-.22h0l-140.37-81-.74-.43-.38-.22a.72.72,0,0,0-.65,0l-.09,0-10.14,5.86a.76.76,0,0,0-.37.65.74.74,0,0,0,.37.64l.37.21,141.13,81.48.37.2a.84.84,0,0,0,.37.09.81.81,0,0,0,.37-.09l.37-.2,2.19-1.28,6.49-3.72,1.11-.63.09-.08s0,0,.06,0l0,0a.73.73,0,0,0,.19-.49A.76.76,0,0,0,260.54,167.47ZM251.87,172,250,173.1l-140.37-81,8.64-5v0l140.38,81,0,0Z"/><path class="cls-1" d="M240.62,261.18l-.08-.08a.48.48,0,0,0-.16-.12l0,0a.72.72,0,0,0-.68,0l-1.14.66-12.59,7.28-.37.21a.74.74,0,0,0-.37.63V433.15a.74.74,0,0,0,.37.64h0a.8.8,0,0,0,.36.09.72.72,0,0,0,.38-.1l0,0,14-8.11a.7.7,0,0,0,.37-.63v-6.54a.73.73,0,0,0-.14-.42l-.08-.09a.48.48,0,0,0-.16-.12l0,0a.72.72,0,0,0-.68,0l-1.14.66-3.35,1.94h0l-.39.23a.74.74,0,0,0-.37.63v2.83l-.06,0-1.46.86-2.49,1.44V271.3l1.85-1.06,1.51-.88.65-.37v2a.75.75,0,0,0,.37.64h0a.72.72,0,0,0,.34.09.87.87,0,0,0,.39-.1s0,0,0,0l4.83-2.79a.72.72,0,0,0,.37-.65v-6.52A.65.65,0,0,0,240.62,261.18Zm-1.34,6.52-3.41,2v-2a.74.74,0,0,0-1.11-.63l-2.9,1.67-2.59,1.5a.72.72,0,0,0-.37.65V427.76a.74.74,0,0,0,.37.64.75.75,0,0,0,.74,0l4.69-2.72h0l.78-.46a.71.71,0,0,0,.37-.64v-2.83l3.41-2v4.82l-12.62,7.29V270.19l12.62-7.29Z"/><path class="cls-3" d="M235.87,269.67v-2a.74.74,0,0,0-1.11-.63l-2.9,1.67-2.59,1.5a.72.72,0,0,0-.37.65V427.76a.74.74,0,0,0,.37.64.75.75,0,0,0,.74,0l4.69-2.72h0l.78-.46a.71.71,0,0,0,.37-.64v-2.83l3.41-2v4.82l-12.62,7.29V270.19l12.62-7.29v4.8Z"/><path class="cls-1" d="M226.27,269.11l-.35-.19-4.27-2.34-1.15-.64a.76.76,0,0,0-.73,0h0a.61.61,0,0,0-.15.12s-.05,0-.05.06a.57.57,0,0,0-.13.27,1.08,1.08,0,0,0,0,.19V430a.74.74,0,0,0,.39.65l5.76,3.16h0a.8.8,0,0,0,.36.09.72.72,0,0,0,.38-.1l0,0a.75.75,0,0,0,.31-.61V269.76A.75.75,0,0,0,226.27,269.11Zm-5.39-1.27,3,1.64,1.32.73v161.7l-4.3-2.37Z"/><path class="cls-1" d="M240.62,261.18l-.08-.08a.48.48,0,0,0-.16-.12l0,0-5.73-3.16a.73.73,0,0,0-.73,0l-14.1,8.13h0a.61.61,0,0,0-.15.12s-.05,0-.05.06a.57.57,0,0,0-.13.27,1.08,1.08,0,0,0,0,.19.74.74,0,0,0,.39.65l1.09.6h0l3,1.63,1.32.73.38.2a.8.8,0,0,0,.36.09.71.71,0,0,0,.37-.1l.37-.21,12.62-7.29,1.11-.63a.72.72,0,0,0,.37-.63v0A.65.65,0,0,0,240.62,261.18Zm-14.7,7.74-4.27-2.34,12.61-7.28,4.25,2.34Z"/><path class="cls-1" d="M240.62,418.06l-.08-.09a.48.48,0,0,0-.16-.12l0,0-5.73-3.16a.73.73,0,0,0-.73,0l-3.49,2-1,.58a.73.73,0,0,0-.39.65.71.71,0,0,0,.36.62l1,.64.1.07,3.91,2.46.36.23a.6.6,0,0,0,.38.11.57.57,0,0,0,.37-.1l.37-.21,3.41-2,1.11-.63a.72.72,0,0,0,.37-.64v0A.73.73,0,0,0,240.62,418.06Zm-5.46,2.39h0l-4-2.5,3.05-1.78,4.27,2.34Z"/><path class="cls-1" d="M235.53,420.69l-.37-.24h0l-4-2.5-.81-.52-.24-.15a.77.77,0,0,0-.75,0,.73.73,0,0,0-.39.65v4.46a.74.74,0,0,0,.37.64l1,.58,2.49,1.43,1.11.64a.66.66,0,0,0,.37.1.73.73,0,0,0,.35-.09h0l.78-.46a.71.71,0,0,0,.37-.64v-3.26A.7.7,0,0,0,235.53,420.69Zm-1.14,3.45,0,.05,0,0L230.48,422v-2.7l3.91,2.48Z"/><polygon class="cls-3" points="234.39 421.73 234.39 424.14 234.33 424.17 230.48 421.95 230.48 419.25 234.39 421.73"/><path class="cls-1" d="M235.5,267.07a.7.7,0,0,0-.74,0l-2.9,1.67a.75.75,0,0,0-.39.65.8.8,0,0,0,.4.65l.36.2,2.53,1.36h0a.72.72,0,0,0,.34.09.87.87,0,0,0,.39-.1s0,0,0,0a.75.75,0,0,0,.31-.61V267.7A.7.7,0,0,0,235.5,267.07ZM234.39,269v.73l-.65-.36Z"/><path class="cls-1" d="M234.41,188.22a.75.75,0,0,0,.34.63l0,0a.94.94,0,0,0,.36.08.72.72,0,0,0,.38-.1l.05,0,4.83-2.8a.74.74,0,0,0,.37-.64v-6.5a.74.74,0,0,0-.22-.52.47.47,0,0,0-.15-.12h0a.74.74,0,0,0-.72,0l-1.14.66-12.6,7.27h0l-.36.21a.74.74,0,0,0-.37.63v59.31a.73.73,0,0,0,.37.63l0,0a.59.59,0,0,0,.16.06l.19,0a.58.58,0,0,0,.37-.11l3.43-2,1.48-.86,9.2-5.3a.75.75,0,0,0,.37-.64v-6.52a.7.7,0,0,0-.22-.51.36.36,0,0,0-.15-.12,0,0,0,0,0,0,0,.71.71,0,0,0-.72,0l-1.14.65-3.37,1.94-.38.22a.76.76,0,0,0-.37.64v2.84l0,0-1.48.87-2.49,1.42V188.58l1.87-1.08,1.5-.86.65-.39Zm-2.54-2.2-2.59,1.49a.76.76,0,0,0-.37.64v52.78a.79.79,0,0,0,.37.66.8.8,0,0,0,.74,0l4.68-2.71s0,0,0,0l.79-.45a.72.72,0,0,0,.37-.64v-2.83l3.41-2v4.8l-9.9,5.72-2.73,1.57v-57.6l12.63-7.27V185l-3.41,2v-2a.74.74,0,0,0-.37-.63.7.7,0,0,0-.74,0Z"/><path class="cls-3" d="M235.89,186.94v-2a.74.74,0,0,0-.37-.63.7.7,0,0,0-.74,0L231.87,186l-2.59,1.49a.76.76,0,0,0-.37.64v52.78a.79.79,0,0,0,.37.66.8.8,0,0,0,.74,0l4.68-2.71s0,0,0,0l.79-.45a.72.72,0,0,0,.37-.64v-2.83l3.41-2v4.8l-9.9,5.72-2.73,1.57v-57.6l12.63-7.27V185Z"/><path class="cls-1" d="M226.29,186.37l-.36-.19h0l-4.25-2.34-1.16-.64a.71.71,0,0,0-.72,0,.72.72,0,0,0-.37.65v59.29a.76.76,0,0,0,.38.65l5.76,3.15,0,0a.59.59,0,0,0,.16.06l.19,0a.58.58,0,0,0,.37-.11.7.7,0,0,0,.37-.63V187A.76.76,0,0,0,226.29,186.37Zm-5.39-1.26,4.29,2.36v57.61l-4.29-2.35Z"/><path class="cls-1" d="M240.56,178.37a.47.47,0,0,0-.15-.12h0l-5.77-3.19a.79.79,0,0,0-.73,0l-14.1,8.15a.72.72,0,0,0-.37.65.74.74,0,0,0,.38.64l1.1.6,4.29,2.36.39.21a.72.72,0,0,0,.35.08.59.59,0,0,0,.37-.1l.37-.21,12.63-7.27,1.11-.64a.77.77,0,0,0,.37-.65A.74.74,0,0,0,240.56,178.37Zm-14.63,7.81h0l-4.25-2.34,12.6-7.27,4.26,2.34Z"/><path class="cls-1" d="M240.56,231.16a.36.36,0,0,0-.15-.12,0,0,0,0,0,0,0l-5.77-3.18a.76.76,0,0,0-.73,0l-3.5,2-.95.54,0,0s0,0,0,0a.44.44,0,0,0-.15.12.67.67,0,0,0-.22.52.72.72,0,0,0,.34.62l1,.65.11.07,3.91,2.46.34.21a.69.69,0,0,0,.4.12.71.71,0,0,0,.37-.1l.37-.21,3.41-2,1.11-.63a.77.77,0,0,0,.37-.66A.7.7,0,0,0,240.56,231.16Zm-5.4,2.47-4-2.5,3.08-1.78,4.26,2.34Z"/><path class="cls-1" d="M235.55,233.87l-.39-.24-4-2.5-.8-.51-.23-.15a.77.77,0,0,0-.72-.05l0,0s0,0,0,0a.44.44,0,0,0-.15.12.67.67,0,0,0-.22.52v4.46a.77.77,0,0,0,.37.65l1,.58,2.49,1.43,1.11.64a.81.81,0,0,0,.37.09.67.67,0,0,0,.34-.09s0,0,0,0l.79-.45a.72.72,0,0,0,.37-.64v-3.26A.73.73,0,0,0,235.55,233.87Zm-1.14,3.46,0,0-3.86-2.22v-2.69l3.91,2.46Z"/><polygon class="cls-3" points="234.41 234.9 234.41 237.33 234.36 237.35 230.5 235.13 230.5 232.44 234.41 234.9"/><path class="cls-1" d="M235.52,184.33a.7.7,0,0,0-.74,0L231.87,186a.74.74,0,0,0,0,1.29l.37.19,2.49,1.35,0,0a.94.94,0,0,0,.36.08.72.72,0,0,0,.38-.1l.05,0a.73.73,0,0,0,.31-.61V185A.74.74,0,0,0,235.52,184.33Zm-1.11,1.92V187l-.65-.34Z"/><path class="cls-1" d="M382.15,374.56a.74.74,0,0,0-.72,0l-4.24,2.12L336,397.24a.73.73,0,0,0-.42.67l0,3.63a.76.76,0,0,0,.36.62.74.74,0,0,0,.38.12.77.77,0,0,0,.34-.08l45.24-22.63a.45.45,0,0,0,.12-.06.82.82,0,0,0,.17-.11,1,1,0,0,0,.22-.34,1.38,1.38,0,0,0,0-.2l0-3.66A.75.75,0,0,0,382.15,374.56Zm-45,25.78,0-2,40.49-20.25,1.84-.91,1.61-.81v2l-1.13.56Z"/><path class="cls-1" d="M382.15,374.56a.74.74,0,0,0-.72,0l-4.24,2.12a.7.7,0,0,0-.4.69.76.76,0,0,0,.47.67l.3.11,2.31.84,1.62.59a.66.66,0,0,0,.25.05,1.38,1.38,0,0,0,.2,0,.45.45,0,0,0,.12-.06s.06,0,.09-.05a.24.24,0,0,0,.08-.06,1,1,0,0,0,.22-.34,1.38,1.38,0,0,0,0-.2l0-3.66A.75.75,0,0,0,382.15,374.56ZM381,377.79l-1.6-.58,1.61-.81Z"/><path class="cls-1" d="M382.15,360.84a.74.74,0,0,0-.72,0l-4.24,2.12L336,383.52a.76.76,0,0,0-.42.68l0,3.62a.81.81,0,0,0,.36.64.72.72,0,0,0,.38.1.94.94,0,0,0,.34-.07l45.24-22.64.12-.06.17-.1a.87.87,0,0,0,.22-.34,1.77,1.77,0,0,0,0-.21l0-3.66A.76.76,0,0,0,382.15,360.84Zm-45,25.79,0-2,40.49-20.25,1.84-.91,1.61-.81v2l-1.13.56Z"/><path class="cls-1" d="M382.15,360.84a.74.74,0,0,0-.72,0l-4.24,2.12a.75.75,0,0,0,.07,1.36l.3.11,2.31.84,1.62.59a.66.66,0,0,0,.25.05,1.38,1.38,0,0,0,.2,0l.12-.06s.06,0,.09,0l.08-.06a.87.87,0,0,0,.22-.34,1.77,1.77,0,0,0,0-.21l0-3.66A.76.76,0,0,0,382.15,360.84ZM381,364.07l-1.6-.58,1.61-.81Z"/><path class="cls-1" d="M382.15,347.14a.69.69,0,0,0-.72-.05l-4.24,2.12L336,369.82a.71.71,0,0,0-.42.67l0,3.63a.79.79,0,0,0,.36.62.72.72,0,0,0,.38.1.94.94,0,0,0,.34-.07L382,352.13l.19-.1a.55.55,0,0,0,.14-.12.78.78,0,0,0,.16-.28,1.77,1.77,0,0,0,0-.21l0-3.66A.73.73,0,0,0,382.15,347.14Zm-45,25.78,0-2,40.49-20.25,1.84-.9L381,349v2l-1.13.56Z"/><path class="cls-1" d="M382.15,347.14a.69.69,0,0,0-.72-.05l-4.24,2.12a.74.74,0,0,0-.4.71.76.76,0,0,0,.47.66l.3.1,2.31.84,1.62.6a.66.66,0,0,0,.25,0,.83.83,0,0,0,.22,0l.19-.1a.55.55,0,0,0,.14-.12.78.78,0,0,0,.16-.28,1.77,1.77,0,0,0,0-.21l0-3.66A.73.73,0,0,0,382.15,347.14ZM381,350.37l-1.6-.59L381,349Z"/><path class="cls-1" d="M382.15,333.42a.71.71,0,0,0-.72,0l-4.24,2.11L336,356.1a.72.72,0,0,0-.42.67l0,3.63a.78.78,0,0,0,.36.62.72.72,0,0,0,.38.1.65.65,0,0,0,.34-.07L382,338.41l.19-.1a.55.55,0,0,0,.14-.12.61.61,0,0,0,.16-.28,1.25,1.25,0,0,0,0-.19l0-3.66A.74.74,0,0,0,382.15,333.42Zm-45,25.78,0-2L377.56,337l1.84-.9,1.61-.82v2l-1.13.56Z"/><path class="cls-1" d="M382.15,333.42a.71.71,0,0,0-.72,0l-4.24,2.11a.74.74,0,0,0-.4.72.75.75,0,0,0,.47.65l.3.1,2.31.84,1.62.6a.66.66,0,0,0,.25,0,.83.83,0,0,0,.22,0l.19-.1a.55.55,0,0,0,.14-.12.61.61,0,0,0,.16-.28,1.25,1.25,0,0,0,0-.19l0-3.66A.74.74,0,0,0,382.15,333.42ZM381,336.65l-1.6-.59,1.61-.82Z"/><path class="cls-1" d="M382.15,319.7a.74.74,0,0,0-.72,0l-4.24,2.12L336,342.38a.74.74,0,0,0-.42.67l0,3.63a.78.78,0,0,0,.36.62.67.67,0,0,0,.72,0L382,324.69a.87.87,0,0,0,.19-.1.41.41,0,0,0,.14-.12.63.63,0,0,0,.16-.26,1.77,1.77,0,0,0,0-.21l0-3.66A.75.75,0,0,0,382.15,319.7Zm-45,25.78,0-2,40.5-20.25,1.83-.92h0l1.6-.8v2l-1.13.57Z"/><path class="cls-1" d="M382.15,319.7a.74.74,0,0,0-.72,0l-4.24,2.12a.7.7,0,0,0-.4.7.75.75,0,0,0,.47.65l.31.12,2.3.83,1.62.59a.66.66,0,0,0,.25,0,.83.83,0,0,0,.22,0,.87.87,0,0,0,.19-.1.41.41,0,0,0,.14-.12.63.63,0,0,0,.16-.26,1.77,1.77,0,0,0,0-.21l0-3.66A.75.75,0,0,0,382.15,319.7ZM381,322.93l-1.59-.59,1.6-.8Z"/><path class="cls-1" d="M160.28,278.86l-30.06-17.75a.75.75,0,0,0-.74,0,.71.71,0,0,0-.37.64l.14,35a.75.75,0,0,0,.38.64L159.52,315a.87.87,0,0,0,.39.1.89.89,0,0,0,.37-.1.75.75,0,0,0,.37-.64V279.5A.76.76,0,0,0,160.28,278.86ZM159.17,313l-28.43-16.68-.15-33.29,7.2,4.25,4.84,2.86,16.54,9.77Z"/><path class="cls-3" d="M142.63,270.16a5.6,5.6,0,0,1,.3.48,7.71,7.71,0,0,1,1.09,3.74,3.08,3.08,0,0,1-1.37,2.86,2.36,2.36,0,0,1-1.26.34,3.83,3.83,0,0,1-1.9-.57,8.28,8.28,0,0,1-3.79-6.58,3.13,3.13,0,0,1,1.36-2.85,2.69,2.69,0,0,1,.73-.28l-7.2-4.25.15,33.29L159.17,313V279.93Zm7.79,10.8a1.92,1.92,0,0,1-1,.27,3.12,3.12,0,0,1-1.5-.43,6.23,6.23,0,0,1-2.84-4.95,2.49,2.49,0,0,1,1.09-2.25,2.46,2.46,0,0,1,2.49.18,6.22,6.22,0,0,1,2.86,5A2.44,2.44,0,0,1,150.42,281Z"/><path class="cls-1" d="M150.66,217.44l-16.83-10.11a.74.74,0,0,0-1.12.64l.06,24.71v3.08l0,7.19a.71.71,0,0,0,.35.62l16.76,10a.64.64,0,0,0,.37.1.81.81,0,0,0,.37-.09.76.76,0,0,0,.37-.65V218.08A.74.74,0,0,0,150.66,217.44Zm-1.12,34.16-15.26-9.08,0-5.28v-2.62l0-7v-5.55l0-12.84,15.35,9.21Z"/><path class="cls-4" d="M138.07,227.26a1.08,1.08,0,0,1-.36,1,1.06,1.06,0,0,1-1-.17,4.73,4.73,0,0,1-2.12-3.66,1.13,1.13,0,0,1,.35-1,.65.65,0,0,1,.29-.07,1.65,1.65,0,0,1,.74.25A4.72,4.72,0,0,1,138.07,227.26Z"/><path class="cls-4" d="M139,238.68a.81.81,0,0,1-1.38.8,4.77,4.77,0,0,1-2.12-3.66c0-.47.13-.84.37-1a.57.57,0,0,1,.27-.07,1.6,1.6,0,0,1,.74.23A4.79,4.79,0,0,1,139,238.68Z"/><path class="cls-3" d="M149.54,218.49V251.6l-15.26-9.08,0-5.28a6.34,6.34,0,0,0,2.64,3.53,3.08,3.08,0,0,0,1.48.43,2,2,0,0,0,1-.27,2.46,2.46,0,0,0,1.1-2.25,6.21,6.21,0,0,0-2.86-4.93,2.46,2.46,0,0,0-2.49-.18,2,2,0,0,0-.89,1.05l0-7a5.48,5.48,0,0,0,1.74,1.66,3,3,0,0,0,1.48.43,2.06,2.06,0,0,0,1-.25,2.49,2.49,0,0,0,1.1-2.25,6.21,6.21,0,0,0-2.84-4.95,2.48,2.48,0,0,0-2.49-.19l0-12.84Z"/><path class="cls-1" d="M147.73,262.34a2.24,2.24,0,0,0-3.6,2.07,6.22,6.22,0,0,0,2.86,4.95,3.08,3.08,0,0,0,1.48.43,2.2,2.2,0,0,0,1-.25,2.49,2.49,0,0,0,1.1-2.25A6.23,6.23,0,0,0,147.73,262.34Zm1,5.91a1.1,1.1,0,0,1-1-.18,4.76,4.76,0,0,1-2.12-3.66,1.08,1.08,0,0,1,.36-1,.61.61,0,0,1,.28-.07,1.58,1.58,0,0,1,.74.25,4.73,4.73,0,0,1,2.12,3.66A1.11,1.11,0,0,1,148.75,268.25Z"/><path class="cls-4" d="M149.11,267.29a.81.81,0,0,1-1.38.78,4.76,4.76,0,0,1-2.12-3.66,1.08,1.08,0,0,1,.36-1,.61.61,0,0,1,.28-.07,1.58,1.58,0,0,1,.74.25A4.73,4.73,0,0,1,149.11,267.29Z"/><path class="cls-1" d="M148.66,273.78a2.46,2.46,0,0,0-2.49-.18,2.49,2.49,0,0,0-1.09,2.25,6.23,6.23,0,0,0,2.84,4.95,3.12,3.12,0,0,0,1.5.43,1.92,1.92,0,0,0,1-.27,2.44,2.44,0,0,0,1.1-2.23A6.22,6.22,0,0,0,148.66,273.78Zm1,5.91a1.14,1.14,0,0,1-1-.18,4.77,4.77,0,0,1-2.1-3.66,1.09,1.09,0,0,1,.35-1,.52.52,0,0,1,.29-.08,1.6,1.6,0,0,1,.72.24,4.74,4.74,0,0,1,2.12,3.68A1.09,1.09,0,0,1,149.68,279.69Z"/><path class="cls-4" d="M150,278.73a1.09,1.09,0,0,1-.36,1,1.14,1.14,0,0,1-1-.18,4.77,4.77,0,0,1-2.1-3.66,1.09,1.09,0,0,1,.35-1,.52.52,0,0,1,.29-.08,1.6,1.6,0,0,1,.72.24A4.74,4.74,0,0,1,150,278.73Z"/><path class="cls-1" d="M142.93,270.64a5.6,5.6,0,0,0-.3-.48,7.74,7.74,0,0,0-2.4-2.34,3.55,3.55,0,0,0-2.44-.52,2.69,2.69,0,0,0-.73.28,3.13,3.13,0,0,0-1.36,2.85,8.28,8.28,0,0,0,3.79,6.58,3.83,3.83,0,0,0,1.9.57,2.36,2.36,0,0,0,1.26-.34,3.08,3.08,0,0,0,1.37-2.86A7.71,7.71,0,0,0,142.93,270.64Zm-1,5.33a1.77,1.77,0,0,1-1.68-.24,6.88,6.88,0,0,1-3-5.3,1.76,1.76,0,0,1,.62-1.57,1,1,0,0,1,.54-.13,2.5,2.5,0,0,1,1.15.37,6.84,6.84,0,0,1,3,5.28A1.79,1.79,0,0,1,141.91,276Z"/><path class="cls-4" d="M142.54,274.38a1.79,1.79,0,0,1-.63,1.59,1.77,1.77,0,0,1-1.68-.24,6.88,6.88,0,0,1-3-5.3,1.76,1.76,0,0,1,.62-1.57,1,1,0,0,1,.54-.13,2.5,2.5,0,0,1,1.15.37A6.84,6.84,0,0,1,142.54,274.38Z"/><path class="cls-1" d="M139,257.73a1.72,1.72,0,0,0-1.78-.1,1.74,1.74,0,0,0-.8,1.6,4,4,0,0,0,1.84,3.2,2,2,0,0,0,1,.3,1.42,1.42,0,0,0,.76-.2,1.73,1.73,0,0,0,.8-1.6A4,4,0,0,0,139,257.73Zm.31,3.51s-.12,0-.31-.08a2.59,2.59,0,0,1-1.1-1.93.75.75,0,0,1,.05-.31h0a.58.58,0,0,1,.28.09,2.55,2.55,0,0,1,1.11,1.92A.53.53,0,0,1,139.3,261.24Z"/><path class="cls-4" d="M139.36,260.93a.53.53,0,0,1-.06.31s-.12,0-.31-.08a2.59,2.59,0,0,1-1.1-1.93.75.75,0,0,1,.05-.31h0a.58.58,0,0,1,.28.09A2.55,2.55,0,0,1,139.36,260.93Z"/><path class="cls-3" d="M260.91,168.51V460.62a.74.74,0,0,1-.37.63l-9.79,5.63V488.6l18.78-10.84V466.48a.72.72,0,0,1,.37-.63l101.35-58.52a.75.75,0,0,1,.74,0,.76.76,0,0,1,.37.65V418.4l18.78-10.85V93.34ZM382.48,378.86a1.38,1.38,0,0,1,0,.2,1,1,0,0,1-.22.34.24.24,0,0,1-.08.06s-.06.05-.09.05a.45.45,0,0,1-.12.06L336.7,402.2a.77.77,0,0,1-.34.08.74.74,0,0,1-.38-.12.76.76,0,0,1-.36-.62l0-3.63a.73.73,0,0,1,.42-.67l41.18-20.59,4.24-2.12a.74.74,0,0,1,.72,0,.75.75,0,0,1,.36.64Zm0-13.72a1.77,1.77,0,0,1,0,.21.87.87,0,0,1-.22.34l-.08.06s-.06,0-.09,0l-.12.06L336.7,388.49a.94.94,0,0,1-.34.07.72.72,0,0,1-.38-.1.81.81,0,0,1-.36-.64l0-3.62a.76.76,0,0,1,.42-.68l41.18-20.59,4.24-2.12a.74.74,0,0,1,.72,0,.76.76,0,0,1,.36.64Zm0-13.72a1.33,1.33,0,0,1,0,.21.78.78,0,0,1-.16.28,1.49,1.49,0,0,1-.14.12l-.19.1L336.7,374.77a.94.94,0,0,1-.34.07.72.72,0,0,1-.38-.1.79.79,0,0,1-.36-.62l0-3.63a.71.71,0,0,1,.42-.67l41.18-20.61,4.24-2.12a.69.69,0,0,1,.72.05.73.73,0,0,1,.36.62Zm0-13.7a1.25,1.25,0,0,1,0,.19.61.61,0,0,1-.16.28.42.42,0,0,1-.14.12l-.19.1L336.7,361.05a.65.65,0,0,1-.34.07.72.72,0,0,1-.38-.1.78.78,0,0,1-.36-.62l0-3.63a.72.72,0,0,1,.42-.67l41.18-20.61,4.24-2.11a.71.71,0,0,1,.72,0,.74.74,0,0,1,.36.64Zm0-13.72a1.77,1.77,0,0,1,0,.21.63.63,0,0,1-.16.26.33.33,0,0,1-.14.12.87.87,0,0,1-.19.1L336.7,347.33a.67.67,0,0,1-.72,0,.78.78,0,0,1-.36-.62l0-3.63a.74.74,0,0,1,.42-.67l41.18-20.59,4.24-2.12a.74.74,0,0,1,.72,0,.75.75,0,0,1,.36.64Z"/></svg>