<svg id="Layer_1" data-name="Layer 1" xmlns="http://www.w3.org/2000/svg" viewBox="0 0 500 500"><defs><style>.cls-1{fill:#e8e7df;}.cls-2{fill:#825b2b;}.cls-3{fill:#d59f5e;}.cls-4{fill:#73b3a9;}</style></defs><path class="cls-1" d="M352.46,293.23a.75.75,0,0,0-.74,0l-2.84,1.61a.72.72,0,0,0-.37.64v35.57a.72.72,0,0,0,.37.64.66.66,0,0,0,.37.1.74.74,0,0,0,.37-.1l2.84-1.68a.7.7,0,0,0,.37-.63V293.87A.71.71,0,0,0,352.46,293.23Zm9.17-5.26a.75.75,0,0,0-.74,0L358,289.58a.79.79,0,0,0-.37.66v35.55a.75.75,0,0,0,1.12.64l2.85-1.66a.74.74,0,0,0,.36-.65V288.61A.73.73,0,0,0,361.63,288Zm9.16-5.38a.78.78,0,0,0-.74,0l-2.86,1.63a.68.68,0,0,0-.37.63v35.57a.73.73,0,0,0,.37.64.73.73,0,0,0,.74,0l2.86-1.67a.88.88,0,0,0,.15-.12.74.74,0,0,0,.16-.27.66.66,0,0,0,0-.25V283.23A.75.75,0,0,0,370.79,282.59Zm9.15-5.26a.75.75,0,0,0-.74,0L376.36,279a.72.72,0,0,0-.39.63v35.57a.75.75,0,0,0,.37.64.77.77,0,0,0,.38.1.75.75,0,0,0,.38-.1l2.84-1.67a.75.75,0,0,0,.38-.64V278A.75.75,0,0,0,379.94,277.33Zm9.16-5.26a.75.75,0,0,0-.74,0l-2.84,1.62a.74.74,0,0,0-.39.65v35.55a.74.74,0,0,0,.37.64.66.66,0,0,0,.37.11.7.7,0,0,0,.39-.11l2.84-1.66a.72.72,0,0,0,.37-.65V272.71A.74.74,0,0,0,389.1,272.07Zm0,0a.75.75,0,0,0-.74,0l-2.84,1.62a.74.74,0,0,0-.39.65v35.55a.74.74,0,0,0,.37.64.66.66,0,0,0,.37.11.7.7,0,0,0,.39-.11l2.84-1.66a.72.72,0,0,0,.37-.65V272.71A.74.74,0,0,0,389.1,272.07Zm-9.16,5.26a.75.75,0,0,0-.74,0L376.36,279a.72.72,0,0,0-.39.63v35.57a.75.75,0,0,0,.37.64.77.77,0,0,0,.38.1.75.75,0,0,0,.38-.1l2.84-1.67a.75.75,0,0,0,.38-.64V278A.75.75,0,0,0,379.94,277.33Zm-9.15,5.26a.78.78,0,0,0-.74,0l-2.86,1.63a.68.68,0,0,0-.37.63v35.57a.73.73,0,0,0,.37.64.73.73,0,0,0,.74,0l2.86-1.67a.88.88,0,0,0,.15-.12.74.74,0,0,0,.16-.27.66.66,0,0,0,0-.25V283.23A.75.75,0,0,0,370.79,282.59ZM361.63,288a.75.75,0,0,0-.74,0L358,289.58a.79.79,0,0,0-.37.66v35.55a.75.75,0,0,0,1.12.64l2.85-1.66a.74.74,0,0,0,.36-.65V288.61A.73.73,0,0,0,361.63,288Zm-9.17,5.26a.75.75,0,0,0-.74,0l-2.84,1.61a.72.72,0,0,0-.37.64v35.57a.72.72,0,0,0,.37.64.66.66,0,0,0,.37.1.74.74,0,0,0,.37-.1l2.84-1.68a.7.7,0,0,0,.37-.63V293.87A.71.71,0,0,0,352.46,293.23Zm0,0a.75.75,0,0,0-.74,0l-2.84,1.61a.72.72,0,0,0-.37.64v35.57a.72.72,0,0,0,.37.64.66.66,0,0,0,.37.1.74.74,0,0,0,.37-.1l2.84-1.68a.7.7,0,0,0,.37-.63V293.87A.71.71,0,0,0,352.46,293.23Zm9.17-5.26a.75.75,0,0,0-.74,0L358,289.58a.79.79,0,0,0-.37.66v35.55a.75.75,0,0,0,1.12.64l2.85-1.66a.74.74,0,0,0,.36-.65V288.61A.73.73,0,0,0,361.63,288Zm9.16-5.38a.78.78,0,0,0-.74,0l-2.86,1.63a.68.68,0,0,0-.37.63v35.57a.73.73,0,0,0,.37.64.73.73,0,0,0,.74,0l2.86-1.67a.88.88,0,0,0,.15-.12.74.74,0,0,0,.16-.27.66.66,0,0,0,0-.25V283.23A.75.75,0,0,0,370.79,282.59Zm9.15-5.26a.75.75,0,0,0-.74,0L376.36,279a.72.72,0,0,0-.39.63v35.57a.75.75,0,0,0,.37.64.77.77,0,0,0,.38.1.75.75,0,0,0,.38-.1l2.84-1.67a.75.75,0,0,0,.38-.64V278A.75.75,0,0,0,379.94,277.33Zm9.16-5.26a.75.75,0,0,0-.74,0l-2.84,1.62a.74.74,0,0,0-.39.65v35.55a.74.74,0,0,0,.37.64.66.66,0,0,0,.37.11.7.7,0,0,0,.39-.11l2.84-1.66a.72.72,0,0,0,.37-.65V272.71A.74.74,0,0,0,389.1,272.07Zm0,0a.75.75,0,0,0-.74,0l-2.84,1.62a.74.74,0,0,0-.39.65v35.55a.74.74,0,0,0,.37.64.66.66,0,0,0,.37.11.7.7,0,0,0,.39-.11l2.84-1.66a.72.72,0,0,0,.37-.65V272.71A.74.74,0,0,0,389.1,272.07Zm-9.16,5.26a.75.75,0,0,0-.74,0L376.36,279a.72.72,0,0,0-.39.63v35.57a.75.75,0,0,0,.37.64.77.77,0,0,0,.38.1.75.75,0,0,0,.38-.1l2.84-1.67a.75.75,0,0,0,.38-.64V278A.75.75,0,0,0,379.94,277.33Zm-9.15,5.26a.78.78,0,0,0-.74,0l-2.86,1.63a.68.68,0,0,0-.37.63v35.57a.73.73,0,0,0,.37.64.73.73,0,0,0,.74,0l2.86-1.67a.88.88,0,0,0,.15-.12.74.74,0,0,0,.16-.27.66.66,0,0,0,0-.25V283.23A.75.75,0,0,0,370.79,282.59ZM361.63,288a.75.75,0,0,0-.74,0L358,289.58a.79.79,0,0,0-.37.66v35.55a.75.75,0,0,0,1.12.64l2.85-1.66a.74.74,0,0,0,.36-.65V288.61A.73.73,0,0,0,361.63,288Zm-9.17,5.26a.75.75,0,0,0-.74,0l-2.84,1.61a.72.72,0,0,0-.37.64v35.57a.72.72,0,0,0,.37.64.66.66,0,0,0,.37.1.74.74,0,0,0,.37-.1l2.84-1.68a.7.7,0,0,0,.37-.63V293.87A.71.71,0,0,0,352.46,293.23Zm0,0a.75.75,0,0,0-.74,0l-2.84,1.61a.72.72,0,0,0-.37.64v35.57a.72.72,0,0,0,.37.64.66.66,0,0,0,.37.1.74.74,0,0,0,.37-.1l2.84-1.68a.7.7,0,0,0,.37-.63V293.87A.71.71,0,0,0,352.46,293.23Zm9.17-5.26a.75.75,0,0,0-.74,0L358,289.58a.79.79,0,0,0-.37.66v35.55a.75.75,0,0,0,1.12.64l2.85-1.66a.74.74,0,0,0,.36-.65V288.61A.73.73,0,0,0,361.63,288Zm9.16-5.38a.78.78,0,0,0-.74,0l-2.86,1.63a.68.68,0,0,0-.37.63v35.57a.73.73,0,0,0,.37.64.73.73,0,0,0,.74,0l2.86-1.67a.88.88,0,0,0,.15-.12.74.74,0,0,0,.16-.27.66.66,0,0,0,0-.25V283.23A.75.75,0,0,0,370.79,282.59Zm9.15-5.26a.75.75,0,0,0-.74,0L376.36,279a.72.72,0,0,0-.39.63v35.57a.75.75,0,0,0,.37.64.77.77,0,0,0,.38.1.75.75,0,0,0,.38-.1l2.84-1.67a.75.75,0,0,0,.38-.64V278A.75.75,0,0,0,379.94,277.33Zm9.16-5.26a.75.75,0,0,0-.74,0l-2.84,1.62a.74.74,0,0,0-.39.65v35.55a.74.74,0,0,0,.37.64.66.66,0,0,0,.37.11.7.7,0,0,0,.39-.11l2.84-1.66a.72.72,0,0,0,.37-.65V272.71A.74.74,0,0,0,389.1,272.07Zm0,0a.75.75,0,0,0-.74,0l-2.84,1.62a.74.74,0,0,0-.39.65v35.55a.74.74,0,0,0,.37.64.66.66,0,0,0,.37.11.7.7,0,0,0,.39-.11l2.84-1.66a.72.72,0,0,0,.37-.65V272.71A.74.74,0,0,0,389.1,272.07Zm-9.16,5.26a.75.75,0,0,0-.74,0L376.36,279a.72.72,0,0,0-.39.63v35.57a.75.75,0,0,0,.37.64.77.77,0,0,0,.38.1.75.75,0,0,0,.38-.1l2.84-1.67a.75.75,0,0,0,.38-.64V278A.75.75,0,0,0,379.94,277.33Zm-9.15,5.26a.78.78,0,0,0-.74,0l-2.86,1.63a.68.68,0,0,0-.37.63v35.57a.73.73,0,0,0,.37.64.73.73,0,0,0,.74,0l2.86-1.67a.88.88,0,0,0,.15-.12.74.74,0,0,0,.16-.27.66.66,0,0,0,0-.25V283.23A.75.75,0,0,0,370.79,282.59ZM361.63,288a.75.75,0,0,0-.74,0L358,289.58a.79.79,0,0,0-.37.66v35.55a.75.75,0,0,0,1.12.64l2.85-1.66a.74.74,0,0,0,.36-.65V288.61A.73.73,0,0,0,361.63,288Zm-9.17,5.26a.75.75,0,0,0-.74,0l-2.84,1.61a.72.72,0,0,0-.37.64v35.57a.72.72,0,0,0,.37.64.66.66,0,0,0,.37.1.74.74,0,0,0,.37-.1l2.84-1.68a.7.7,0,0,0,.37-.63V293.87A.71.71,0,0,0,352.46,293.23Zm0,0a.75.75,0,0,0-.74,0l-2.84,1.61a.72.72,0,0,0-.37.64v35.57a.72.72,0,0,0,.37.64.66.66,0,0,0,.37.1.74.74,0,0,0,.37-.1l2.84-1.68a.7.7,0,0,0,.37-.63V293.87A.71.71,0,0,0,352.46,293.23Zm9.17-5.26a.75.75,0,0,0-.74,0L358,289.58a.79.79,0,0,0-.37.66v35.55a.75.75,0,0,0,1.12.64l2.85-1.66a.74.74,0,0,0,.36-.65V288.61A.73.73,0,0,0,361.63,288Zm9.16-5.38a.78.78,0,0,0-.74,0l-2.86,1.63a.68.68,0,0,0-.37.63v35.57a.73.73,0,0,0,.37.64.73.73,0,0,0,.74,0l2.86-1.67a.88.88,0,0,0,.15-.12.74.74,0,0,0,.16-.27.66.66,0,0,0,0-.25V283.23A.75.75,0,0,0,370.79,282.59Zm9.15-5.26a.75.75,0,0,0-.74,0L376.36,279a.72.72,0,0,0-.39.63v35.57a.75.75,0,0,0,.37.64.77.77,0,0,0,.38.1.75.75,0,0,0,.38-.1l2.84-1.67a.75.75,0,0,0,.38-.64V278A.75.75,0,0,0,379.94,277.33Zm9.16-5.26a.75.75,0,0,0-.74,0l-2.84,1.62a.74.74,0,0,0-.39.65v35.55a.74.74,0,0,0,.37.64.66.66,0,0,0,.37.11.7.7,0,0,0,.39-.11l2.84-1.66a.72.72,0,0,0,.37-.65V272.71A.74.74,0,0,0,389.1,272.07Zm0,0a.75.75,0,0,0-.74,0l-2.84,1.62a.74.74,0,0,0-.39.65v35.55a.74.74,0,0,0,.37.64.66.66,0,0,0,.37.11.7.7,0,0,0,.39-.11l2.84-1.66a.72.72,0,0,0,.37-.65V272.71A.74.74,0,0,0,389.1,272.07Zm-9.16,5.26a.75.75,0,0,0-.74,0L376.36,279a.72.72,0,0,0-.39.63v35.57a.75.75,0,0,0,.37.64.77.77,0,0,0,.38.1.75.75,0,0,0,.38-.1l2.84-1.67a.75.75,0,0,0,.38-.64V278A.75.75,0,0,0,379.94,277.33Zm-9.15,5.26a.78.78,0,0,0-.74,0l-2.86,1.63a.68.68,0,0,0-.37.63v35.57a.73.73,0,0,0,.37.64.73.73,0,0,0,.74,0l2.86-1.67a.88.88,0,0,0,.15-.12.74.74,0,0,0,.16-.27.66.66,0,0,0,0-.25V283.23A.75.75,0,0,0,370.79,282.59ZM361.63,288a.75.75,0,0,0-.74,0L358,289.58a.79.79,0,0,0-.37.66v35.55a.75.75,0,0,0,1.12.64l2.85-1.66a.74.74,0,0,0,.36-.65V288.61A.73.73,0,0,0,361.63,288Zm-9.17,5.26a.75.75,0,0,0-.74,0l-2.84,1.61a.72.72,0,0,0-.37.64v35.57a.72.72,0,0,0,.37.64.66.66,0,0,0,.37.1.74.74,0,0,0,.37-.1l2.84-1.68a.7.7,0,0,0,.37-.63V293.87A.71.71,0,0,0,352.46,293.23Zm0,0a.75.75,0,0,0-.74,0l-2.84,1.61a.72.72,0,0,0-.37.64v35.57a.72.72,0,0,0,.37.64.66.66,0,0,0,.37.1.74.74,0,0,0,.37-.1l2.84-1.68a.7.7,0,0,0,.37-.63V293.87A.71.71,0,0,0,352.46,293.23Zm9.17-5.26a.75.75,0,0,0-.74,0L358,289.58a.79.79,0,0,0-.37.66v35.55a.75.75,0,0,0,1.12.64l2.85-1.66a.74.74,0,0,0,.36-.65V288.61A.73.73,0,0,0,361.63,288Zm9.16-5.38a.78.78,0,0,0-.74,0l-2.86,1.63a.68.68,0,0,0-.37.63v35.57a.73.73,0,0,0,.37.64.73.73,0,0,0,.74,0l2.86-1.67a.88.88,0,0,0,.15-.12.74.74,0,0,0,.16-.27.66.66,0,0,0,0-.25V283.23A.75.75,0,0,0,370.79,282.59Zm9.15-5.26a.75.75,0,0,0-.74,0L376.36,279a.72.72,0,0,0-.39.63v35.57a.75.75,0,0,0,.37.64.77.77,0,0,0,.38.1.75.75,0,0,0,.38-.1l2.84-1.67a.75.75,0,0,0,.38-.64V278A.75.75,0,0,0,379.94,277.33Zm9.16-5.26a.75.75,0,0,0-.74,0l-2.84,1.62a.74.74,0,0,0-.39.65v35.55a.74.74,0,0,0,.37.64.66.66,0,0,0,.37.11.7.7,0,0,0,.39-.11l2.84-1.66a.72.72,0,0,0,.37-.65V272.71A.74.74,0,0,0,389.1,272.07Zm0,0a.75.75,0,0,0-.74,0l-2.84,1.62a.74.74,0,0,0-.39.65v35.55a.74.74,0,0,0,.37.64.66.66,0,0,0,.37.11.7.7,0,0,0,.39-.11l2.84-1.66a.72.72,0,0,0,.37-.65V272.71A.74.74,0,0,0,389.1,272.07Zm-9.16,5.26a.75.75,0,0,0-.74,0L376.36,279a.72.72,0,0,0-.39.63v35.57a.75.75,0,0,0,.37.64.77.77,0,0,0,.38.1.75.75,0,0,0,.38-.1l2.84-1.67a.75.75,0,0,0,.38-.64V278A.75.75,0,0,0,379.94,277.33Zm-9.15,5.26a.78.78,0,0,0-.74,0l-2.86,1.63a.68.68,0,0,0-.37.63v35.57a.73.73,0,0,0,.37.64.73.73,0,0,0,.74,0l2.86-1.67a.88.88,0,0,0,.15-.12.74.74,0,0,0,.16-.27.66.66,0,0,0,0-.25V283.23A.75.75,0,0,0,370.79,282.59ZM361.63,288a.75.75,0,0,0-.74,0L358,289.58a.79.79,0,0,0-.37.66v35.55a.75.75,0,0,0,1.12.64l2.85-1.66a.74.74,0,0,0,.36-.65V288.61A.73.73,0,0,0,361.63,288Zm-9.17,5.26a.75.75,0,0,0-.74,0l-2.84,1.61a.72.72,0,0,0-.37.64v35.57a.72.72,0,0,0,.37.64.66.66,0,0,0,.37.1.74.74,0,0,0,.37-.1l2.84-1.68a.7.7,0,0,0,.37-.63V293.87A.71.71,0,0,0,352.46,293.23Zm0,0a.75.75,0,0,0-.74,0l-2.84,1.61a.72.72,0,0,0-.37.64v35.57a.72.72,0,0,0,.37.64.66.66,0,0,0,.37.1.74.74,0,0,0,.37-.1l2.84-1.68a.7.7,0,0,0,.37-.63V293.87A.71.71,0,0,0,352.46,293.23Zm9.17-5.26a.75.75,0,0,0-.74,0L358,289.58a.79.79,0,0,0-.37.66v35.55a.75.75,0,0,0,1.12.64l2.85-1.66a.74.74,0,0,0,.36-.65V288.61A.73.73,0,0,0,361.63,288Zm9.16-5.38a.78.78,0,0,0-.74,0l-2.86,1.63a.68.68,0,0,0-.37.63v35.57a.73.73,0,0,0,.37.64.73.73,0,0,0,.74,0l2.86-1.67a.88.88,0,0,0,.15-.12.74.74,0,0,0,.16-.27.66.66,0,0,0,0-.25V283.23A.75.75,0,0,0,370.79,282.59Zm9.15-5.26a.75.75,0,0,0-.74,0L376.36,279a.72.72,0,0,0-.39.63v35.57a.75.75,0,0,0,.37.64.77.77,0,0,0,.38.1.75.75,0,0,0,.38-.1l2.84-1.67a.75.75,0,0,0,.38-.64V278A.75.75,0,0,0,379.94,277.33Zm9.16-5.26a.75.75,0,0,0-.74,0l-2.84,1.62a.74.74,0,0,0-.39.65v35.55a.74.74,0,0,0,.37.64.66.66,0,0,0,.37.11.7.7,0,0,0,.39-.11l2.84-1.66a.72.72,0,0,0,.37-.65V272.71A.74.74,0,0,0,389.1,272.07Zm0,0a.75.75,0,0,0-.74,0l-2.84,1.62a.74.74,0,0,0-.39.65v35.55a.74.74,0,0,0,.37.64.66.66,0,0,0,.37.11.7.7,0,0,0,.39-.11l2.84-1.66a.72.72,0,0,0,.37-.65V272.71A.74.74,0,0,0,389.1,272.07Zm-9.16,5.26a.75.75,0,0,0-.74,0L376.36,279a.72.72,0,0,0-.39.63v35.57a.75.75,0,0,0,.37.64.77.77,0,0,0,.38.1.75.75,0,0,0,.38-.1l2.84-1.67a.75.75,0,0,0,.38-.64V278A.75.75,0,0,0,379.94,277.33Zm-9.15,5.26a.78.78,0,0,0-.74,0l-2.86,1.63a.68.68,0,0,0-.37.63v35.57a.73.73,0,0,0,.37.64.73.73,0,0,0,.74,0l2.86-1.67a.88.88,0,0,0,.15-.12.74.74,0,0,0,.16-.27.66.66,0,0,0,0-.25V283.23A.75.75,0,0,0,370.79,282.59ZM361.63,288a.75.75,0,0,0-.74,0L358,289.58a.79.79,0,0,0-.37.66v35.55a.75.75,0,0,0,1.12.64l2.85-1.66a.74.74,0,0,0,.36-.65V288.61A.73.73,0,0,0,361.63,288Zm-9.17,5.26a.75.75,0,0,0-.74,0l-2.84,1.61a.72.72,0,0,0-.37.64v35.57a.72.72,0,0,0,.37.64.66.66,0,0,0,.37.1.74.74,0,0,0,.37-.1l2.84-1.68a.7.7,0,0,0,.37-.63V293.87A.71.71,0,0,0,352.46,293.23Zm0,0a.75.75,0,0,0-.74,0l-2.84,1.61a.72.72,0,0,0-.37.64v35.57a.72.72,0,0,0,.37.64.66.66,0,0,0,.37.1.74.74,0,0,0,.37-.1l2.84-1.68a.7.7,0,0,0,.37-.63V293.87A.71.71,0,0,0,352.46,293.23Zm9.17-5.26a.75.75,0,0,0-.74,0L358,289.58a.79.79,0,0,0-.37.66v35.55a.75.75,0,0,0,1.12.64l2.85-1.66a.74.74,0,0,0,.36-.65V288.61A.73.73,0,0,0,361.63,288Zm9.16-5.38a.78.78,0,0,0-.74,0l-2.86,1.63a.68.68,0,0,0-.37.63v35.57a.73.73,0,0,0,.37.64.73.73,0,0,0,.74,0l2.86-1.67a.88.88,0,0,0,.15-.12.74.74,0,0,0,.16-.27.66.66,0,0,0,0-.25V283.23A.75.75,0,0,0,370.79,282.59Zm9.15-5.26a.75.75,0,0,0-.74,0L376.36,279a.72.72,0,0,0-.39.63v35.57a.75.75,0,0,0,.37.64.77.77,0,0,0,.38.1.75.75,0,0,0,.38-.1l2.84-1.67a.75.75,0,0,0,.38-.64V278A.75.75,0,0,0,379.94,277.33Zm9.16-5.26a.75.75,0,0,0-.74,0l-2.84,1.62a.74.74,0,0,0-.39.65v35.55a.74.74,0,0,0,.37.64.66.66,0,0,0,.37.11.7.7,0,0,0,.39-.11l2.84-1.66a.72.72,0,0,0,.37-.65V272.71A.74.74,0,0,0,389.1,272.07Zm0,0a.75.75,0,0,0-.74,0l-2.84,1.62a.74.74,0,0,0-.39.65v35.55a.74.74,0,0,0,.37.64.66.66,0,0,0,.37.11.7.7,0,0,0,.39-.11l2.84-1.66a.72.72,0,0,0,.37-.65V272.71A.74.74,0,0,0,389.1,272.07Zm-9.16,5.26a.75.75,0,0,0-.74,0L376.36,279a.72.72,0,0,0-.39.63v35.57a.75.75,0,0,0,.37.64.77.77,0,0,0,.38.1.75.75,0,0,0,.38-.1l2.84-1.67a.75.75,0,0,0,.38-.64V278A.75.75,0,0,0,379.94,277.33Zm-9.15,5.26a.78.78,0,0,0-.74,0l-2.86,1.63a.68.68,0,0,0-.37.63v35.57a.73.73,0,0,0,.37.64.73.73,0,0,0,.74,0l2.86-1.67a.88.88,0,0,0,.15-.12.74.74,0,0,0,.16-.27.66.66,0,0,0,0-.25V283.23A.75.75,0,0,0,370.79,282.59ZM361.63,288a.75.75,0,0,0-.74,0L358,289.58a.79.79,0,0,0-.37.66v35.55a.75.75,0,0,0,1.12.64l2.85-1.66a.74.74,0,0,0,.36-.65V288.61A.73.73,0,0,0,361.63,288Zm-9.17,5.26a.75.75,0,0,0-.74,0l-2.84,1.61a.72.72,0,0,0-.37.64v35.57a.72.72,0,0,0,.37.64.66.66,0,0,0,.37.1.74.74,0,0,0,.37-.1l2.84-1.68a.7.7,0,0,0,.37-.63V293.87A.71.71,0,0,0,352.46,293.23Zm0,0a.75.75,0,0,0-.74,0l-2.84,1.61a.72.72,0,0,0-.37.64v35.57a.72.72,0,0,0,.37.64.66.66,0,0,0,.37.1.74.74,0,0,0,.37-.1l2.84-1.68a.7.7,0,0,0,.37-.63V293.87A.71.71,0,0,0,352.46,293.23Zm9.17-5.26a.75.75,0,0,0-.74,0L358,289.58a.79.79,0,0,0-.37.66v35.55a.75.75,0,0,0,1.12.64l2.85-1.66a.74.74,0,0,0,.36-.65V288.61A.73.73,0,0,0,361.63,288Zm9.16-5.38a.78.78,0,0,0-.74,0l-2.86,1.63a.68.68,0,0,0-.37.63v35.57a.73.73,0,0,0,.37.64.73.73,0,0,0,.74,0l2.86-1.67a.88.88,0,0,0,.15-.12.74.74,0,0,0,.16-.27.66.66,0,0,0,0-.25V283.23A.75.75,0,0,0,370.79,282.59Zm9.15-5.26a.75.75,0,0,0-.74,0L376.36,279a.72.72,0,0,0-.39.63v35.57a.75.75,0,0,0,.37.64.77.77,0,0,0,.38.1.75.75,0,0,0,.38-.1l2.84-1.67a.75.75,0,0,0,.38-.64V278A.75.75,0,0,0,379.94,277.33Zm9.16-5.26a.75.75,0,0,0-.74,0l-2.84,1.62a.74.74,0,0,0-.39.65v35.55a.74.74,0,0,0,.37.64.66.66,0,0,0,.37.11.7.7,0,0,0,.39-.11l2.84-1.66a.72.72,0,0,0,.37-.65V272.71A.74.74,0,0,0,389.1,272.07Zm0,0a.75.75,0,0,0-.74,0l-2.84,1.62a.74.74,0,0,0-.39.65v35.55a.74.74,0,0,0,.37.64.66.66,0,0,0,.37.11.7.7,0,0,0,.39-.11l2.84-1.66a.72.72,0,0,0,.37-.65V272.71A.74.74,0,0,0,389.1,272.07Zm-9.16,5.26a.75.75,0,0,0-.74,0L376.36,279a.72.72,0,0,0-.39.63v35.57a.75.75,0,0,0,.37.64.77.77,0,0,0,.38.1.75.75,0,0,0,.38-.1l2.84-1.67a.75.75,0,0,0,.38-.64V278A.75.75,0,0,0,379.94,277.33Zm-9.15,5.26a.78.78,0,0,0-.74,0l-2.86,1.63a.68.68,0,0,0-.37.63v35.57a.73.73,0,0,0,.37.64.73.73,0,0,0,.74,0l2.86-1.67a.88.88,0,0,0,.15-.12.74.74,0,0,0,.16-.27.66.66,0,0,0,0-.25V283.23A.75.75,0,0,0,370.79,282.59ZM361.63,288a.75.75,0,0,0-.74,0L358,289.58a.79.79,0,0,0-.37.66v35.55a.75.75,0,0,0,1.12.64l2.85-1.66a.74.74,0,0,0,.36-.65V288.61A.73.73,0,0,0,361.63,288Zm-9.17,5.26a.75.75,0,0,0-.74,0l-2.84,1.61a.72.72,0,0,0-.37.64v35.57a.72.72,0,0,0,.37.64.66.66,0,0,0,.37.1.74.74,0,0,0,.37-.1l2.84-1.68a.7.7,0,0,0,.37-.63V293.87A.71.71,0,0,0,352.46,293.23Zm0,0a.75.75,0,0,0-.74,0l-2.84,1.61a.72.72,0,0,0-.37.64v35.57a.72.72,0,0,0,.37.64.66.66,0,0,0,.37.1.74.74,0,0,0,.37-.1l2.84-1.68a.7.7,0,0,0,.37-.63V293.87A.71.71,0,0,0,352.46,293.23Zm9.17-5.26a.75.75,0,0,0-.74,0L358,289.58a.79.79,0,0,0-.37.66v35.55a.75.75,0,0,0,1.12.64l2.85-1.66a.74.74,0,0,0,.36-.65V288.61A.73.73,0,0,0,361.63,288Zm9.16-5.38a.78.78,0,0,0-.74,0l-2.86,1.63a.68.68,0,0,0-.37.63v35.57a.73.73,0,0,0,.37.64.73.73,0,0,0,.74,0l2.86-1.67a.88.88,0,0,0,.15-.12.74.74,0,0,0,.16-.27.66.66,0,0,0,0-.25V283.23A.75.75,0,0,0,370.79,282.59Zm9.15-5.26a.75.75,0,0,0-.74,0L376.36,279a.72.72,0,0,0-.39.63v35.57a.75.75,0,0,0,.37.64.77.77,0,0,0,.38.1.75.75,0,0,0,.38-.1l2.84-1.67a.75.75,0,0,0,.38-.64V278A.75.75,0,0,0,379.94,277.33Zm9.16-5.26a.75.75,0,0,0-.74,0l-2.84,1.62a.74.74,0,0,0-.39.65v35.55a.74.74,0,0,0,.37.64.66.66,0,0,0,.37.11.7.7,0,0,0,.39-.11l2.84-1.66a.72.72,0,0,0,.37-.65V272.71A.74.74,0,0,0,389.1,272.07Zm0,0a.75.75,0,0,0-.74,0l-2.84,1.62a.74.74,0,0,0-.39.65v35.55a.74.74,0,0,0,.37.64.66.66,0,0,0,.37.11.7.7,0,0,0,.39-.11l2.84-1.66a.72.72,0,0,0,.37-.65V272.71A.74.74,0,0,0,389.1,272.07Zm-9.16,5.26a.75.75,0,0,0-.74,0L376.36,279a.72.72,0,0,0-.39.63v35.57a.75.75,0,0,0,.37.64.77.77,0,0,0,.38.1.75.75,0,0,0,.38-.1l2.84-1.67a.75.75,0,0,0,.38-.64V278A.75.75,0,0,0,379.94,277.33Zm-9.15,5.26a.78.78,0,0,0-.74,0l-2.86,1.63a.68.68,0,0,0-.37.63v35.57a.73.73,0,0,0,.37.64.73.73,0,0,0,.74,0l2.86-1.67a.88.88,0,0,0,.15-.12.74.74,0,0,0,.16-.27.66.66,0,0,0,0-.25V283.23A.75.75,0,0,0,370.79,282.59ZM361.63,288a.75.75,0,0,0-.74,0L358,289.58a.79.79,0,0,0-.37.66v35.55a.75.75,0,0,0,1.12.64l2.85-1.66a.74.74,0,0,0,.36-.65V288.61A.73.73,0,0,0,361.63,288Zm-9.17,5.26a.75.75,0,0,0-.74,0l-2.84,1.61a.72.72,0,0,0-.37.64v35.57a.72.72,0,0,0,.37.64.66.66,0,0,0,.37.1.74.74,0,0,0,.37-.1l2.84-1.68a.7.7,0,0,0,.37-.63V293.87A.71.71,0,0,0,352.46,293.23Zm0,0a.75.75,0,0,0-.74,0l-2.84,1.61a.72.72,0,0,0-.37.64v35.57a.72.72,0,0,0,.37.64.66.66,0,0,0,.37.1.74.74,0,0,0,.37-.1l2.84-1.68a.7.7,0,0,0,.37-.63V293.87A.71.71,0,0,0,352.46,293.23Zm9.17-5.26a.75.75,0,0,0-.74,0L358,289.58a.79.79,0,0,0-.37.66v35.55a.75.75,0,0,0,1.12.64l2.85-1.66a.74.74,0,0,0,.36-.65V288.61A.73.73,0,0,0,361.63,288Zm9.16-5.38a.78.78,0,0,0-.74,0l-2.86,1.63a.68.68,0,0,0-.37.63v35.57a.73.73,0,0,0,.37.64.73.73,0,0,0,.74,0l2.86-1.67a.88.88,0,0,0,.15-.12.74.74,0,0,0,.16-.27.66.66,0,0,0,0-.25V283.23A.75.75,0,0,0,370.79,282.59Zm9.15-5.26a.75.75,0,0,0-.74,0L376.36,279a.72.72,0,0,0-.39.63v35.57a.75.75,0,0,0,.37.64.77.77,0,0,0,.38.1.75.75,0,0,0,.38-.1l2.84-1.67a.75.75,0,0,0,.38-.64V278A.75.75,0,0,0,379.94,277.33Zm9.16-5.26a.75.75,0,0,0-.74,0l-2.84,1.62a.74.74,0,0,0-.39.65v35.55a.74.74,0,0,0,.37.64.66.66,0,0,0,.37.11.7.7,0,0,0,.39-.11l2.84-1.66a.72.72,0,0,0,.37-.65V272.71A.74.74,0,0,0,389.1,272.07Zm0,0a.75.75,0,0,0-.74,0l-2.84,1.62a.74.74,0,0,0-.39.65v35.55a.74.74,0,0,0,.37.64.66.66,0,0,0,.37.11.7.7,0,0,0,.39-.11l2.84-1.66a.72.72,0,0,0,.37-.65V272.71A.74.74,0,0,0,389.1,272.07Zm-9.16,5.26a.75.75,0,0,0-.74,0L376.36,279a.72.72,0,0,0-.39.63v35.57a.75.75,0,0,0,.37.64.77.77,0,0,0,.38.1.75.75,0,0,0,.38-.1l2.84-1.67a.75.75,0,0,0,.38-.64V278A.75.75,0,0,0,379.94,277.33Zm-9.15,5.26a.78.78,0,0,0-.74,0l-2.86,1.63a.68.68,0,0,0-.37.63v35.57a.73.73,0,0,0,.37.64.73.73,0,0,0,.74,0l2.86-1.67a.88.88,0,0,0,.15-.12.74.74,0,0,0,.16-.27.66.66,0,0,0,0-.25V283.23A.75.75,0,0,0,370.79,282.59ZM361.63,288a.75.75,0,0,0-.74,0L358,289.58a.79.79,0,0,0-.37.66v35.55a.75.75,0,0,0,1.12.64l2.85-1.66a.74.74,0,0,0,.36-.65V288.61A.73.73,0,0,0,361.63,288Zm-9.17,5.26a.75.75,0,0,0-.74,0l-2.84,1.61a.72.72,0,0,0-.37.64v35.57a.72.72,0,0,0,.37.64.66.66,0,0,0,.37.1.74.74,0,0,0,.37-.1l2.84-1.68a.7.7,0,0,0,.37-.63V293.87A.71.71,0,0,0,352.46,293.23Zm0,0a.75.75,0,0,0-.74,0l-2.84,1.61a.72.72,0,0,0-.37.64v35.57a.72.72,0,0,0,.37.64.66.66,0,0,0,.37.1.74.74,0,0,0,.37-.1l2.84-1.68a.7.7,0,0,0,.37-.63V293.87A.71.71,0,0,0,352.46,293.23Zm9.17-5.26a.75.75,0,0,0-.74,0L358,289.58a.79.79,0,0,0-.37.66v35.55a.75.75,0,0,0,1.12.64l2.85-1.66a.74.74,0,0,0,.36-.65V288.61A.73.73,0,0,0,361.63,288Zm9.16-5.38a.78.78,0,0,0-.74,0l-2.86,1.63a.68.68,0,0,0-.37.63v35.57a.73.73,0,0,0,.37.64.73.73,0,0,0,.74,0l2.86-1.67a.88.88,0,0,0,.15-.12.74.74,0,0,0,.16-.27.66.66,0,0,0,0-.25V283.23A.75.75,0,0,0,370.79,282.59Zm9.15-5.26a.75.75,0,0,0-.74,0L376.36,279a.72.72,0,0,0-.39.63v35.57a.75.75,0,0,0,.37.64.77.77,0,0,0,.38.1.75.75,0,0,0,.38-.1l2.84-1.67a.75.75,0,0,0,.38-.64V278A.75.75,0,0,0,379.94,277.33Zm9.16-5.26a.75.75,0,0,0-.74,0l-2.84,1.62a.74.74,0,0,0-.39.65v35.55a.74.74,0,0,0,.37.64.66.66,0,0,0,.37.11.7.7,0,0,0,.39-.11l2.84-1.66a.72.72,0,0,0,.37-.65V272.71A.74.74,0,0,0,389.1,272.07Zm0,0a.75.75,0,0,0-.74,0l-2.84,1.62a.74.74,0,0,0-.39.65v35.55a.74.74,0,0,0,.37.64.66.66,0,0,0,.37.11.7.7,0,0,0,.39-.11l2.84-1.66a.72.72,0,0,0,.37-.65V272.71A.74.74,0,0,0,389.1,272.07Zm-9.16,5.26a.75.75,0,0,0-.74,0L376.36,279a.72.72,0,0,0-.39.63v35.57a.75.75,0,0,0,.37.64.77.77,0,0,0,.38.1.75.75,0,0,0,.38-.1l2.84-1.67a.75.75,0,0,0,.38-.64V278A.75.75,0,0,0,379.94,277.33Zm-9.15,5.26a.78.78,0,0,0-.74,0l-2.86,1.63a.68.68,0,0,0-.37.63v35.57a.73.73,0,0,0,.37.64.73.73,0,0,0,.74,0l2.86-1.67a.88.88,0,0,0,.15-.12.74.74,0,0,0,.16-.27.66.66,0,0,0,0-.25V283.23A.75.75,0,0,0,370.79,282.59ZM361.63,288a.75.75,0,0,0-.74,0L358,289.58a.79.79,0,0,0-.37.66v35.55a.75.75,0,0,0,1.12.64l2.85-1.66a.74.74,0,0,0,.36-.65V288.61A.73.73,0,0,0,361.63,288Zm-9.17,5.26a.75.75,0,0,0-.74,0l-2.84,1.61a.72.72,0,0,0-.37.64v35.57a.72.72,0,0,0,.37.64.66.66,0,0,0,.37.1.74.74,0,0,0,.37-.1l2.84-1.68a.7.7,0,0,0,.37-.63V293.87A.71.71,0,0,0,352.46,293.23Zm0,0a.75.75,0,0,0-.74,0l-2.84,1.61a.72.72,0,0,0-.37.64v35.57a.72.72,0,0,0,.37.64.66.66,0,0,0,.37.1.74.74,0,0,0,.37-.1l2.84-1.68a.7.7,0,0,0,.37-.63V293.87A.71.71,0,0,0,352.46,293.23Zm9.17-5.26a.75.75,0,0,0-.74,0L358,289.58a.79.79,0,0,0-.37.66v35.55a.75.75,0,0,0,1.12.64l2.85-1.66a.74.74,0,0,0,.36-.65V288.61A.73.73,0,0,0,361.63,288Zm9.16-5.38a.78.78,0,0,0-.74,0l-2.86,1.63a.68.68,0,0,0-.37.63v35.57a.73.73,0,0,0,.37.64.73.73,0,0,0,.74,0l2.86-1.67a.88.88,0,0,0,.15-.12.74.74,0,0,0,.16-.27.66.66,0,0,0,0-.25V283.23A.75.75,0,0,0,370.79,282.59Zm9.15-5.26a.75.75,0,0,0-.74,0L376.36,279a.72.72,0,0,0-.39.63v35.57a.75.75,0,0,0,.37.64.77.77,0,0,0,.38.1.75.75,0,0,0,.38-.1l2.84-1.67a.75.75,0,0,0,.38-.64V278A.75.75,0,0,0,379.94,277.33Zm9.16-5.26a.75.75,0,0,0-.74,0l-2.84,1.62a.74.74,0,0,0-.39.65v35.55a.74.74,0,0,0,.37.64.66.66,0,0,0,.37.11.7.7,0,0,0,.39-.11l2.84-1.66a.72.72,0,0,0,.37-.65V272.71A.74.74,0,0,0,389.1,272.07Zm0,0a.75.75,0,0,0-.74,0l-2.84,1.62a.74.74,0,0,0-.39.65v35.55a.74.74,0,0,0,.37.64.66.66,0,0,0,.37.11.7.7,0,0,0,.39-.11l2.84-1.66a.72.72,0,0,0,.37-.65V272.71A.74.74,0,0,0,389.1,272.07Zm-9.9,5.26L376.36,279a.72.72,0,0,0-.39.63v35.57a.75.75,0,0,0,.37.64.77.77,0,0,0,.38.1.75.75,0,0,0,.38-.1l2.84-1.67a.75.75,0,0,0,.38-.64V278a.75.75,0,0,0-1.12-.64Zm-9.15,5.25-2.86,1.63a.68.68,0,0,0-.37.63v35.57a.73.73,0,0,0,.37.64.73.73,0,0,0,.74,0l2.86-1.67a.88.88,0,0,0,.15-.12.74.74,0,0,0,.16-.27.66.66,0,0,0,0-.25V283.23a.75.75,0,0,0-.36-.64A.78.78,0,0,0,370.05,282.58ZM360.89,288,358,289.58a.79.79,0,0,0-.37.66v35.55a.75.75,0,0,0,1.12.64l2.85-1.66a.74.74,0,0,0,.36-.65V288.61a.73.73,0,0,0-.36-.64A.75.75,0,0,0,360.89,288Zm-8.43,5.26a.75.75,0,0,0-.74,0l-2.84,1.61a.72.72,0,0,0-.37.64v35.57a.72.72,0,0,0,.37.64.66.66,0,0,0,.37.1.74.74,0,0,0,.37-.1l2.84-1.68a.7.7,0,0,0,.37-.63V293.87A.71.71,0,0,0,352.46,293.23Zm47.65-100L235.25,98.06a4.45,4.45,0,0,0-4.41,0L99.92,172.12A4.45,4.45,0,0,0,97.67,176V302.9a4.43,4.43,0,0,0,2.22,3.84l18.31,10.59a4.49,4.49,0,0,0,4.45,0,4.45,4.45,0,0,0,2.22-3.85v-2.89l119.33,68.9v8a4.39,4.39,0,0,0,2.22,3.83l18.31,10.6a4.71,4.71,0,0,0,2.23.59,4.58,4.58,0,0,0,2.22-.59l18.32-10.6a4.39,4.39,0,0,0,2.22-3.83v-8l85.41-48v3a4.45,4.45,0,0,0,2.22,3.85,4.58,4.58,0,0,0,2.22.59,4.71,4.71,0,0,0,2.23-.59l18.31-10.59a4.42,4.42,0,0,0,2.22-3.84V197.08A4.39,4.39,0,0,0,400.11,193.25ZM118.65,261.76l.07,0h.08a2.46,2.46,0,0,1,1.68,1.26c.27.46.26.76.14.83a2.36,2.36,0,0,1-1.76-1.24C118.59,262.1,118.62,261.81,118.65,261.76Zm22.43-6.87a2.43,2.43,0,0,1-1.37-1.9.28.28,0,0,1,.14,0,1.15,1.15,0,0,1,.56.17,2.36,2.36,0,0,1,1.35,1.91A1,1,0,0,1,141.08,254.89Zm-1.72,7.17a1.54,1.54,0,0,1,.81-.19,4.18,4.18,0,0,1,1.74.47c2,1,3.7,3.29,3.7,5a1.2,1.2,0,0,1-.5,1.12,2.81,2.81,0,0,1-2.55-.28c-2-1-3.72-3.29-3.72-5A1.23,1.23,0,0,1,139.36,262.06ZM134,271.85c.05-.12.17-.27.51-.31h.15a4.56,4.56,0,0,1,3.31,2.34,2.15,2.15,0,0,1,.35,1.84.6.6,0,0,1-.52.31c-.92.13-2.58-.83-3.45-2.34A2.15,2.15,0,0,1,134,271.85Zm-3.16-7.35a.57.57,0,0,1-.52.31c-.95.12-2.58-.83-3.45-2.34a2.18,2.18,0,0,1-.36-1.83.57.57,0,0,1,.52-.31h.15a4.56,4.56,0,0,1,3.3,2.34A2.11,2.11,0,0,1,130.87,264.5Zm-.25,10.21a3.24,3.24,0,0,1,.5,2.8,1.09,1.09,0,0,1-.93.58c-1.56.18-3.87-1.36-5-3.36a3.31,3.31,0,0,1-.5-2.8,1,1,0,0,1,.93-.58C127.15,271.17,129.45,272.71,130.62,274.71Zm19.8-6.52a1,1,0,0,1,.49-.1,2.72,2.72,0,0,1,1.16.32,4.66,4.66,0,0,1,2.58,3.43.67.67,0,0,1-.27.63,1.79,1.79,0,0,1-1.64-.2,4.64,4.64,0,0,1-2.6-3.43A.71.71,0,0,1,150.42,268.19Zm2.82-6.12c-.27.17-.83.2-1.64-.22a4.6,4.6,0,0,1-2.58-3.42.72.72,0,0,1,.26-.64,1,1,0,0,1,.49-.12,2.65,2.65,0,0,1,1.16.33,4.63,4.63,0,0,1,2.59,3.42A.7.7,0,0,1,153.24,262.07Zm76.5,9.83-4.18,2.51v-2.63a.72.72,0,0,0-.37-.64.77.77,0,0,0-.75,0l-3.63,2.18L218.05,275a.74.74,0,0,0-.35.63v70.83a.76.76,0,0,0,.37.65.84.84,0,0,0,.37.09.75.75,0,0,0,.38-.1l5.44-3.27h0l0,0,.92-.55a.73.73,0,0,0,.35-.63v-3.53l4.18-2.5v6.14l-8.93,5.37-1.54.93-4.4,2.64v-77l14.87-8.93ZM229,335.27l-4.18,2.52-4.88-3.2,1.59-1,2.24-1.35ZM103.6,176l7.76-4.4L247.16,250l-7.64,4.43-4.09-2.37a.44.44,0,0,0-.19-.07h0ZM251.74,299.5v9.17l-9.69-5.62v-9.16Zm-9.69-7.32V283l9.69,5.6v9.16Zm9.69,18.19v9.17l-9.69-5.62v-9.15Zm0,10.87v9.17l-9.69-5.6v-9.17Zm0,10.88v9.17l-9.69-5.6v-9.16Zm0,10.89v9.15l-9.69-5.6v-9.15Zm11.19,24v10.19l-20.88-12.06V355Zm0-61.1v9.16l-9.71-5.6v-9.16Zm-9.71-7.31v-9.17l9.71,5.6v9.17Zm9.71,18.19V326l-9.71-5.6v-9.15Zm0,10.87v9.17l-9.71-5.6V322.1Zm0,10.88v9.17l-9.71-5.6V333Zm0,10.87v9.17l-9.71-5.6v-9.17Zm.74-61.7-20.88-12.06V265.18l20.88,12.05ZM241,255.3l8-4.63a.76.76,0,0,0,.38-.66.72.72,0,0,0-.38-.63L112.86,170.76l120.17-68,163.36,94.32L267,270.33h0Zm43.54,121.63v10.15L267.7,396.8v-9.17a.53.53,0,0,0,0-.12V271.6l129.43-73.24V323.57l-16.82,9.72V324a.72.72,0,0,0-.38-.64.73.73,0,0,0-.74,0l-94.28,52.93A.75.75,0,0,0,284.54,376.93Zm101-66.4a.66.66,0,0,0,.37.11.7.7,0,0,0,.39-.11l2.84-1.66a.72.72,0,0,0,.37-.65V272.71a.74.74,0,0,0-.37-.64.75.75,0,0,0-.74,0l-2.84,1.62a.74.74,0,0,0-.39.65v35.55A.74.74,0,0,0,385.5,310.53Zm-5.18,3V278a.75.75,0,0,0-1.12-.64L376.36,279a.72.72,0,0,0-.39.63v35.57a.75.75,0,0,0,.37.64.77.77,0,0,0,.38.1.75.75,0,0,0,.38-.1l2.84-1.67A.75.75,0,0,0,380.32,313.48Zm-10.27-30.9-2.86,1.63a.68.68,0,0,0-.37.63v35.57a.73.73,0,0,0,.37.64.73.73,0,0,0,.74,0l2.86-1.67a.88.88,0,0,0,.15-.12.74.74,0,0,0,.16-.27.66.66,0,0,0,0-.25V283.23a.75.75,0,0,0-.36-.64A.78.78,0,0,0,370.05,282.58ZM360.89,288,358,289.58a.79.79,0,0,0-.37.66v35.55a.75.75,0,0,0,1.12.64l2.85-1.66a.74.74,0,0,0,.36-.65V288.61a.73.73,0,0,0-.36-.64A.75.75,0,0,0,360.89,288Zm-8.43,5.26a.75.75,0,0,0-.74,0l-2.84,1.61a.72.72,0,0,0-.37.64v35.57a.72.72,0,0,0,.37.64.66.66,0,0,0,.37.1.74.74,0,0,0,.37-.1l2.84-1.68a.7.7,0,0,0,.37-.63V293.87A.71.71,0,0,0,352.46,293.23Zm0,0a.75.75,0,0,0-.74,0l-2.84,1.61a.72.72,0,0,0-.37.64v35.57a.72.72,0,0,0,.37.64.66.66,0,0,0,.37.1.74.74,0,0,0,.37-.1l2.84-1.68a.7.7,0,0,0,.37-.63V293.87A.71.71,0,0,0,352.46,293.23Zm9.17-5.26a.75.75,0,0,0-.74,0L358,289.58a.79.79,0,0,0-.37.66v35.55a.75.75,0,0,0,1.12.64l2.85-1.66a.74.74,0,0,0,.36-.65V288.61A.73.73,0,0,0,361.63,288Zm9.16-5.38a.78.78,0,0,0-.74,0l-2.86,1.63a.68.68,0,0,0-.37.63v35.57a.73.73,0,0,0,.37.64.73.73,0,0,0,.74,0l2.86-1.67a.88.88,0,0,0,.15-.12.74.74,0,0,0,.16-.27.66.66,0,0,0,0-.25V283.23A.75.75,0,0,0,370.79,282.59Zm9.15-5.26a.75.75,0,0,0-.74,0L376.36,279a.72.72,0,0,0-.39.63v35.57a.75.75,0,0,0,.37.64.77.77,0,0,0,.38.1.75.75,0,0,0,.38-.1l2.84-1.67a.75.75,0,0,0,.38-.64V278A.75.75,0,0,0,379.94,277.33Zm9.16-5.26a.75.75,0,0,0-.74,0l-2.84,1.62a.74.74,0,0,0-.39.65v35.55a.74.74,0,0,0,.37.64.66.66,0,0,0,.37.11.7.7,0,0,0,.39-.11l2.84-1.66a.72.72,0,0,0,.37-.65V272.71A.74.74,0,0,0,389.1,272.07Zm0,0a.75.75,0,0,0-.74,0l-2.84,1.62a.74.74,0,0,0-.39.65v35.55a.74.74,0,0,0,.37.64.66.66,0,0,0,.37.11.7.7,0,0,0,.39-.11l2.84-1.66a.72.72,0,0,0,.37-.65V272.71A.74.74,0,0,0,389.1,272.07Zm-9.16,5.26a.75.75,0,0,0-.74,0L376.36,279a.72.72,0,0,0-.39.63v35.57a.75.75,0,0,0,.37.64.77.77,0,0,0,.38.1.75.75,0,0,0,.38-.1l2.84-1.67a.75.75,0,0,0,.38-.64V278A.75.75,0,0,0,379.94,277.33Zm-9.15,5.26a.78.78,0,0,0-.74,0l-2.86,1.63a.68.68,0,0,0-.37.63v35.57a.73.73,0,0,0,.37.64.73.73,0,0,0,.74,0l2.86-1.67a.88.88,0,0,0,.15-.12.74.74,0,0,0,.16-.27.66.66,0,0,0,0-.25V283.23A.75.75,0,0,0,370.79,282.59ZM361.63,288a.75.75,0,0,0-.74,0L358,289.58a.79.79,0,0,0-.37.66v35.55a.75.75,0,0,0,1.12.64l2.85-1.66a.74.74,0,0,0,.36-.65V288.61A.73.73,0,0,0,361.63,288Zm-9.17,5.26a.75.75,0,0,0-.74,0l-2.84,1.61a.72.72,0,0,0-.37.64v35.57a.72.72,0,0,0,.37.64.66.66,0,0,0,.37.1.74.74,0,0,0,.37-.1l2.84-1.68a.7.7,0,0,0,.37-.63V293.87A.71.71,0,0,0,352.46,293.23Zm0,0a.75.75,0,0,0-.74,0l-2.84,1.61a.72.72,0,0,0-.37.64v35.57a.72.72,0,0,0,.37.64.66.66,0,0,0,.37.1.74.74,0,0,0,.37-.1l2.84-1.68a.7.7,0,0,0,.37-.63V293.87A.71.71,0,0,0,352.46,293.23Zm9.17-5.26a.75.75,0,0,0-.74,0L358,289.58a.79.79,0,0,0-.37.66v35.55a.75.75,0,0,0,1.12.64l2.85-1.66a.74.74,0,0,0,.36-.65V288.61A.73.73,0,0,0,361.63,288Zm9.16-5.38a.78.78,0,0,0-.74,0l-2.86,1.63a.68.68,0,0,0-.37.63v35.57a.73.73,0,0,0,.37.64.73.73,0,0,0,.74,0l2.86-1.67a.88.88,0,0,0,.15-.12.74.74,0,0,0,.16-.27.66.66,0,0,0,0-.25V283.23A.75.75,0,0,0,370.79,282.59Zm9.15-5.26a.75.75,0,0,0-.74,0L376.36,279a.72.72,0,0,0-.39.63v35.57a.75.75,0,0,0,.37.64.77.77,0,0,0,.38.1.75.75,0,0,0,.38-.1l2.84-1.67a.75.75,0,0,0,.38-.64V278A.75.75,0,0,0,379.94,277.33Zm9.16-5.26a.75.75,0,0,0-.74,0l-2.84,1.62a.74.74,0,0,0-.39.65v35.55a.74.74,0,0,0,.37.64.66.66,0,0,0,.37.11.7.7,0,0,0,.39-.11l2.84-1.66a.72.72,0,0,0,.37-.65V272.71A.74.74,0,0,0,389.1,272.07Zm0,0a.75.75,0,0,0-.74,0l-2.84,1.62a.74.74,0,0,0-.39.65v35.55a.74.74,0,0,0,.37.64.66.66,0,0,0,.37.11.7.7,0,0,0,.39-.11l2.84-1.66a.72.72,0,0,0,.37-.65V272.71A.74.74,0,0,0,389.1,272.07Zm-9.16,5.26a.75.75,0,0,0-.74,0L376.36,279a.72.72,0,0,0-.39.63v35.57a.75.75,0,0,0,.37.64.77.77,0,0,0,.38.1.75.75,0,0,0,.38-.1l2.84-1.67a.75.75,0,0,0,.38-.64V278A.75.75,0,0,0,379.94,277.33Zm-9.15,5.26a.78.78,0,0,0-.74,0l-2.86,1.63a.68.68,0,0,0-.37.63v35.57a.73.73,0,0,0,.37.64.73.73,0,0,0,.74,0l2.86-1.67a.88.88,0,0,0,.15-.12.74.74,0,0,0,.16-.27.66.66,0,0,0,0-.25V283.23A.75.75,0,0,0,370.79,282.59ZM361.63,288a.75.75,0,0,0-.74,0L358,289.58a.79.79,0,0,0-.37.66v35.55a.75.75,0,0,0,1.12.64l2.85-1.66a.74.74,0,0,0,.36-.65V288.61A.73.73,0,0,0,361.63,288Zm-9.17,5.26a.75.75,0,0,0-.74,0l-2.84,1.61a.72.72,0,0,0-.37.64v35.57a.72.72,0,0,0,.37.64.66.66,0,0,0,.37.1.74.74,0,0,0,.37-.1l2.84-1.68a.7.7,0,0,0,.37-.63V293.87A.71.71,0,0,0,352.46,293.23Zm0,0a.75.75,0,0,0-.74,0l-2.84,1.61a.72.72,0,0,0-.37.64v35.57a.72.72,0,0,0,.37.64.66.66,0,0,0,.37.1.74.74,0,0,0,.37-.1l2.84-1.68a.7.7,0,0,0,.37-.63V293.87A.71.71,0,0,0,352.46,293.23Zm9.17-5.26a.75.75,0,0,0-.74,0L358,289.58a.79.79,0,0,0-.37.66v35.55a.75.75,0,0,0,1.12.64l2.85-1.66a.74.74,0,0,0,.36-.65V288.61A.73.73,0,0,0,361.63,288Zm9.16-5.38a.78.78,0,0,0-.74,0l-2.86,1.63a.68.68,0,0,0-.37.63v35.57a.73.73,0,0,0,.37.64.73.73,0,0,0,.74,0l2.86-1.67a.88.88,0,0,0,.15-.12.74.74,0,0,0,.16-.27.66.66,0,0,0,0-.25V283.23A.75.75,0,0,0,370.79,282.59Zm9.15-5.26a.75.75,0,0,0-.74,0L376.36,279a.72.72,0,0,0-.39.63v35.57a.75.75,0,0,0,.37.64.77.77,0,0,0,.38.1.75.75,0,0,0,.38-.1l2.84-1.67a.75.75,0,0,0,.38-.64V278A.75.75,0,0,0,379.94,277.33Zm9.16-5.26a.75.75,0,0,0-.74,0l-2.84,1.62a.74.74,0,0,0-.39.65v35.55a.74.74,0,0,0,.37.64.66.66,0,0,0,.37.11.7.7,0,0,0,.39-.11l2.84-1.66a.72.72,0,0,0,.37-.65V272.71A.74.74,0,0,0,389.1,272.07Zm0,0a.75.75,0,0,0-.74,0l-2.84,1.62a.74.74,0,0,0-.39.65v35.55a.74.74,0,0,0,.37.64.66.66,0,0,0,.37.11.7.7,0,0,0,.39-.11l2.84-1.66a.72.72,0,0,0,.37-.65V272.71A.74.74,0,0,0,389.1,272.07Zm-9.16,5.26a.75.75,0,0,0-.74,0L376.36,279a.72.72,0,0,0-.39.63v35.57a.75.75,0,0,0,.37.64.77.77,0,0,0,.38.1.75.75,0,0,0,.38-.1l2.84-1.67a.75.75,0,0,0,.38-.64V278A.75.75,0,0,0,379.94,277.33Zm-9.15,5.26a.78.78,0,0,0-.74,0l-2.86,1.63a.68.68,0,0,0-.37.63v35.57a.73.73,0,0,0,.37.64.73.73,0,0,0,.74,0l2.86-1.67a.88.88,0,0,0,.15-.12.74.74,0,0,0,.16-.27.66.66,0,0,0,0-.25V283.23A.75.75,0,0,0,370.79,282.59ZM361.63,288a.75.75,0,0,0-.74,0L358,289.58a.79.79,0,0,0-.37.66v35.55a.75.75,0,0,0,1.12.64l2.85-1.66a.74.74,0,0,0,.36-.65V288.61A.73.73,0,0,0,361.63,288Zm-9.17,5.26a.75.75,0,0,0-.74,0l-2.84,1.61a.72.72,0,0,0-.37.64v35.57a.72.72,0,0,0,.37.64.66.66,0,0,0,.37.1.74.74,0,0,0,.37-.1l2.84-1.68a.7.7,0,0,0,.37-.63V293.87A.71.71,0,0,0,352.46,293.23Zm0,0a.75.75,0,0,0-.74,0l-2.84,1.61a.72.72,0,0,0-.37.64v35.57a.72.72,0,0,0,.37.64.66.66,0,0,0,.37.1.74.74,0,0,0,.37-.1l2.84-1.68a.7.7,0,0,0,.37-.63V293.87A.71.71,0,0,0,352.46,293.23Zm9.17-5.26a.75.75,0,0,0-.74,0L358,289.58a.79.79,0,0,0-.37.66v35.55a.75.75,0,0,0,1.12.64l2.85-1.66a.74.74,0,0,0,.36-.65V288.61A.73.73,0,0,0,361.63,288Zm9.16-5.38a.78.78,0,0,0-.74,0l-2.86,1.63a.68.68,0,0,0-.37.63v35.57a.73.73,0,0,0,.37.64.73.73,0,0,0,.74,0l2.86-1.67a.88.88,0,0,0,.15-.12.74.74,0,0,0,.16-.27.66.66,0,0,0,0-.25V283.23A.75.75,0,0,0,370.79,282.59Zm9.15-5.26a.75.75,0,0,0-.74,0L376.36,279a.72.72,0,0,0-.39.63v35.57a.75.75,0,0,0,.37.64.77.77,0,0,0,.38.1.75.75,0,0,0,.38-.1l2.84-1.67a.75.75,0,0,0,.38-.64V278A.75.75,0,0,0,379.94,277.33Zm9.16-5.26a.75.75,0,0,0-.74,0l-2.84,1.62a.74.74,0,0,0-.39.65v35.55a.74.74,0,0,0,.37.64.66.66,0,0,0,.37.11.7.7,0,0,0,.39-.11l2.84-1.66a.72.72,0,0,0,.37-.65V272.71A.74.74,0,0,0,389.1,272.07Zm0,0a.75.75,0,0,0-.74,0l-2.84,1.62a.74.74,0,0,0-.39.65v35.55a.74.74,0,0,0,.37.64.66.66,0,0,0,.37.11.7.7,0,0,0,.39-.11l2.84-1.66a.72.72,0,0,0,.37-.65V272.71A.74.74,0,0,0,389.1,272.07Zm-9.16,5.26a.75.75,0,0,0-.74,0L376.36,279a.72.72,0,0,0-.39.63v35.57a.75.75,0,0,0,.37.64.77.77,0,0,0,.38.1.75.75,0,0,0,.38-.1l2.84-1.67a.75.75,0,0,0,.38-.64V278A.75.75,0,0,0,379.94,277.33Zm-9.15,5.26a.78.78,0,0,0-.74,0l-2.86,1.63a.68.68,0,0,0-.37.63v35.57a.73.73,0,0,0,.37.64.73.73,0,0,0,.74,0l2.86-1.67a.88.88,0,0,0,.15-.12.74.74,0,0,0,.16-.27.66.66,0,0,0,0-.25V283.23A.75.75,0,0,0,370.79,282.59ZM361.63,288a.75.75,0,0,0-.74,0L358,289.58a.79.79,0,0,0-.37.66v35.55a.75.75,0,0,0,1.12.64l2.85-1.66a.74.74,0,0,0,.36-.65V288.61A.73.73,0,0,0,361.63,288Zm-9.17,5.26a.75.75,0,0,0-.74,0l-2.84,1.61a.72.72,0,0,0-.37.64v35.57a.72.72,0,0,0,.37.64.66.66,0,0,0,.37.1.74.74,0,0,0,.37-.1l2.84-1.68a.7.7,0,0,0,.37-.63V293.87A.71.71,0,0,0,352.46,293.23Zm0,0a.75.75,0,0,0-.74,0l-2.84,1.61a.72.72,0,0,0-.37.64v35.57a.72.72,0,0,0,.37.64.66.66,0,0,0,.37.1.74.74,0,0,0,.37-.1l2.84-1.68a.7.7,0,0,0,.37-.63V293.87A.71.71,0,0,0,352.46,293.23Zm9.17-5.26a.75.75,0,0,0-.74,0L358,289.58a.79.79,0,0,0-.37.66v35.55a.75.75,0,0,0,1.12.64l2.85-1.66a.74.74,0,0,0,.36-.65V288.61A.73.73,0,0,0,361.63,288Zm9.16-5.38a.78.78,0,0,0-.74,0l-2.86,1.63a.68.68,0,0,0-.37.63v35.57a.73.73,0,0,0,.37.64.73.73,0,0,0,.74,0l2.86-1.67a.88.88,0,0,0,.15-.12.74.74,0,0,0,.16-.27.66.66,0,0,0,0-.25V283.23A.75.75,0,0,0,370.79,282.59Zm9.15-5.26a.75.75,0,0,0-.74,0L376.36,279a.72.72,0,0,0-.39.63v35.57a.75.75,0,0,0,.37.64.77.77,0,0,0,.38.1.75.75,0,0,0,.38-.1l2.84-1.67a.75.75,0,0,0,.38-.64V278A.75.75,0,0,0,379.94,277.33Zm9.16-5.26a.75.75,0,0,0-.74,0l-2.84,1.62a.74.74,0,0,0-.39.65v35.55a.74.74,0,0,0,.37.64.66.66,0,0,0,.37.11.7.7,0,0,0,.39-.11l2.84-1.66a.72.72,0,0,0,.37-.65V272.71A.74.74,0,0,0,389.1,272.07Zm0,0a.75.75,0,0,0-.74,0l-2.84,1.62a.74.74,0,0,0-.39.65v35.55a.74.74,0,0,0,.37.64.66.66,0,0,0,.37.11.7.7,0,0,0,.39-.11l2.84-1.66a.72.72,0,0,0,.37-.65V272.71A.74.74,0,0,0,389.1,272.07Zm-9.16,5.26a.75.75,0,0,0-.74,0L376.36,279a.72.72,0,0,0-.39.63v35.57a.75.75,0,0,0,.37.64.77.77,0,0,0,.38.1.75.75,0,0,0,.38-.1l2.84-1.67a.75.75,0,0,0,.38-.64V278A.75.75,0,0,0,379.94,277.33Zm-9.15,5.26a.78.78,0,0,0-.74,0l-2.86,1.63a.68.68,0,0,0-.37.63v35.57a.73.73,0,0,0,.37.64.73.73,0,0,0,.74,0l2.86-1.67a.88.88,0,0,0,.15-.12.74.74,0,0,0,.16-.27.66.66,0,0,0,0-.25V283.23A.75.75,0,0,0,370.79,282.59ZM361.63,288a.75.75,0,0,0-.74,0L358,289.58a.79.79,0,0,0-.37.66v35.55a.75.75,0,0,0,1.12.64l2.85-1.66a.74.74,0,0,0,.36-.65V288.61A.73.73,0,0,0,361.63,288Zm-9.17,5.26a.75.75,0,0,0-.74,0l-2.84,1.61a.72.72,0,0,0-.37.64v35.57a.72.72,0,0,0,.37.64.66.66,0,0,0,.37.1.74.74,0,0,0,.37-.1l2.84-1.68a.7.7,0,0,0,.37-.63V293.87A.71.71,0,0,0,352.46,293.23Zm0,0a.75.75,0,0,0-.74,0l-2.84,1.61a.72.72,0,0,0-.37.64v35.57a.72.72,0,0,0,.37.64.66.66,0,0,0,.37.1.74.74,0,0,0,.37-.1l2.84-1.68a.7.7,0,0,0,.37-.63V293.87A.71.71,0,0,0,352.46,293.23Zm9.17-5.26a.75.75,0,0,0-.74,0L358,289.58a.79.79,0,0,0-.37.66v35.55a.75.75,0,0,0,1.12.64l2.85-1.66a.74.74,0,0,0,.36-.65V288.61A.73.73,0,0,0,361.63,288Zm9.16-5.38a.78.78,0,0,0-.74,0l-2.86,1.63a.68.68,0,0,0-.37.63v35.57a.73.73,0,0,0,.37.64.73.73,0,0,0,.74,0l2.86-1.67a.88.88,0,0,0,.15-.12.74.74,0,0,0,.16-.27.66.66,0,0,0,0-.25V283.23A.75.75,0,0,0,370.79,282.59Zm9.15-5.26a.75.75,0,0,0-.74,0L376.36,279a.72.72,0,0,0-.39.63v35.57a.75.75,0,0,0,.37.64.77.77,0,0,0,.38.1.75.75,0,0,0,.38-.1l2.84-1.67a.75.75,0,0,0,.38-.64V278A.75.75,0,0,0,379.94,277.33Zm9.16-5.26a.75.75,0,0,0-.74,0l-2.84,1.62a.74.74,0,0,0-.39.65v35.55a.74.74,0,0,0,.37.64.66.66,0,0,0,.37.11.7.7,0,0,0,.39-.11l2.84-1.66a.72.72,0,0,0,.37-.65V272.71A.74.74,0,0,0,389.1,272.07Zm0,0a.75.75,0,0,0-.74,0l-2.84,1.62a.74.74,0,0,0-.39.65v35.55a.74.74,0,0,0,.37.64.66.66,0,0,0,.37.11.7.7,0,0,0,.39-.11l2.84-1.66a.72.72,0,0,0,.37-.65V272.71A.74.74,0,0,0,389.1,272.07Zm-9.16,5.26a.75.75,0,0,0-.74,0L376.36,279a.72.72,0,0,0-.39.63v35.57a.75.75,0,0,0,.37.64.77.77,0,0,0,.38.1.75.75,0,0,0,.38-.1l2.84-1.67a.75.75,0,0,0,.38-.64V278A.75.75,0,0,0,379.94,277.33Zm-9.15,5.26a.78.78,0,0,0-.74,0l-2.86,1.63a.68.68,0,0,0-.37.63v35.57a.73.73,0,0,0,.37.64.73.73,0,0,0,.74,0l2.86-1.67a.88.88,0,0,0,.15-.12.74.74,0,0,0,.16-.27.66.66,0,0,0,0-.25V283.23A.75.75,0,0,0,370.79,282.59ZM361.63,288a.75.75,0,0,0-.74,0L358,289.58a.79.79,0,0,0-.37.66v35.55a.75.75,0,0,0,1.12.64l2.85-1.66a.74.74,0,0,0,.36-.65V288.61A.73.73,0,0,0,361.63,288Zm-9.17,5.26a.75.75,0,0,0-.74,0l-2.84,1.61a.72.72,0,0,0-.37.64v35.57a.72.72,0,0,0,.37.64.66.66,0,0,0,.37.1.74.74,0,0,0,.37-.1l2.84-1.68a.7.7,0,0,0,.37-.63V293.87A.71.71,0,0,0,352.46,293.23Zm0,0a.75.75,0,0,0-.74,0l-2.84,1.61a.72.72,0,0,0-.37.64v35.57a.72.72,0,0,0,.37.64.66.66,0,0,0,.37.1.74.74,0,0,0,.37-.1l2.84-1.68a.7.7,0,0,0,.37-.63V293.87A.71.71,0,0,0,352.46,293.23Zm9.17-5.26a.75.75,0,0,0-.74,0L358,289.58a.79.79,0,0,0-.37.66v35.55a.75.75,0,0,0,1.12.64l2.85-1.66a.74.74,0,0,0,.36-.65V288.61A.73.73,0,0,0,361.63,288Zm9.16-5.38a.78.78,0,0,0-.74,0l-2.86,1.63a.68.68,0,0,0-.37.63v35.57a.73.73,0,0,0,.37.64.73.73,0,0,0,.74,0l2.86-1.67a.88.88,0,0,0,.15-.12.74.74,0,0,0,.16-.27.66.66,0,0,0,0-.25V283.23A.75.75,0,0,0,370.79,282.59Zm9.15-5.26a.75.75,0,0,0-.74,0L376.36,279a.72.72,0,0,0-.39.63v35.57a.75.75,0,0,0,.37.64.77.77,0,0,0,.38.1.75.75,0,0,0,.38-.1l2.84-1.67a.75.75,0,0,0,.38-.64V278A.75.75,0,0,0,379.94,277.33Zm9.16-5.26a.75.75,0,0,0-.74,0l-2.84,1.62a.74.74,0,0,0-.39.65v35.55a.74.74,0,0,0,.37.64.66.66,0,0,0,.37.11.7.7,0,0,0,.39-.11l2.84-1.66a.72.72,0,0,0,.37-.65V272.71A.74.74,0,0,0,389.1,272.07Zm0,0a.75.75,0,0,0-.74,0l-2.84,1.62a.74.74,0,0,0-.39.65v35.55a.74.74,0,0,0,.37.64.66.66,0,0,0,.37.11.7.7,0,0,0,.39-.11l2.84-1.66a.72.72,0,0,0,.37-.65V272.71A.74.74,0,0,0,389.1,272.07Zm-9.16,5.26a.75.75,0,0,0-.74,0L376.36,279a.72.72,0,0,0-.39.63v35.57a.75.75,0,0,0,.37.64.77.77,0,0,0,.38.1.75.75,0,0,0,.38-.1l2.84-1.67a.75.75,0,0,0,.38-.64V278A.75.75,0,0,0,379.94,277.33Zm-9.15,5.26a.78.78,0,0,0-.74,0l-2.86,1.63a.68.68,0,0,0-.37.63v35.57a.73.73,0,0,0,.37.64.73.73,0,0,0,.74,0l2.86-1.67a.88.88,0,0,0,.15-.12.74.74,0,0,0,.16-.27.66.66,0,0,0,0-.25V283.23A.75.75,0,0,0,370.79,282.59ZM361.63,288a.75.75,0,0,0-.74,0L358,289.58a.79.79,0,0,0-.37.66v35.55a.75.75,0,0,0,1.12.64l2.85-1.66a.74.74,0,0,0,.36-.65V288.61A.73.73,0,0,0,361.63,288Zm-9.17,5.26a.75.75,0,0,0-.74,0l-2.84,1.61a.72.72,0,0,0-.37.64v35.57a.72.72,0,0,0,.37.64.66.66,0,0,0,.37.1.74.74,0,0,0,.37-.1l2.84-1.68a.7.7,0,0,0,.37-.63V293.87A.71.71,0,0,0,352.46,293.23Zm0,0a.75.75,0,0,0-.74,0l-2.84,1.61a.72.72,0,0,0-.37.64v35.57a.72.72,0,0,0,.37.64.66.66,0,0,0,.37.1.74.74,0,0,0,.37-.1l2.84-1.68a.7.7,0,0,0,.37-.63V293.87A.71.71,0,0,0,352.46,293.23Zm9.17-5.26a.75.75,0,0,0-.74,0L358,289.58a.79.79,0,0,0-.37.66v35.55a.75.75,0,0,0,1.12.64l2.85-1.66a.74.74,0,0,0,.36-.65V288.61A.73.73,0,0,0,361.63,288Zm9.16-5.38a.78.78,0,0,0-.74,0l-2.86,1.63a.68.68,0,0,0-.37.63v35.57a.73.73,0,0,0,.37.64.73.73,0,0,0,.74,0l2.86-1.67a.88.88,0,0,0,.15-.12.74.74,0,0,0,.16-.27.66.66,0,0,0,0-.25V283.23A.75.75,0,0,0,370.79,282.59Zm9.15-5.26a.75.75,0,0,0-.74,0L376.36,279a.72.72,0,0,0-.39.63v35.57a.75.75,0,0,0,.37.64.77.77,0,0,0,.38.1.75.75,0,0,0,.38-.1l2.84-1.67a.75.75,0,0,0,.38-.64V278A.75.75,0,0,0,379.94,277.33Zm9.16-5.26a.75.75,0,0,0-.74,0l-2.84,1.62a.74.74,0,0,0-.39.65v35.55a.74.74,0,0,0,.37.64.66.66,0,0,0,.37.11.7.7,0,0,0,.39-.11l2.84-1.66a.72.72,0,0,0,.37-.65V272.71A.74.74,0,0,0,389.1,272.07Zm0,0a.75.75,0,0,0-.74,0l-2.84,1.62a.74.74,0,0,0-.39.65v35.55a.74.74,0,0,0,.37.64.66.66,0,0,0,.37.11.7.7,0,0,0,.39-.11l2.84-1.66a.72.72,0,0,0,.37-.65V272.71A.74.74,0,0,0,389.1,272.07Zm-9.16,5.26a.75.75,0,0,0-.74,0L376.36,279a.72.72,0,0,0-.39.63v35.57a.75.75,0,0,0,.37.64.77.77,0,0,0,.38.1.75.75,0,0,0,.38-.1l2.84-1.67a.75.75,0,0,0,.38-.64V278A.75.75,0,0,0,379.94,277.33Zm-9.15,5.26a.78.78,0,0,0-.74,0l-2.86,1.63a.68.68,0,0,0-.37.63v35.57a.73.73,0,0,0,.37.64.73.73,0,0,0,.74,0l2.86-1.67a.88.88,0,0,0,.15-.12.74.74,0,0,0,.16-.27.66.66,0,0,0,0-.25V283.23A.75.75,0,0,0,370.79,282.59ZM361.63,288a.75.75,0,0,0-.74,0L358,289.58a.79.79,0,0,0-.37.66v35.55a.75.75,0,0,0,1.12.64l2.85-1.66a.74.74,0,0,0,.36-.65V288.61A.73.73,0,0,0,361.63,288Zm-9.17,5.26a.75.75,0,0,0-.74,0l-2.84,1.61a.72.72,0,0,0-.37.64v35.57a.72.72,0,0,0,.37.64.66.66,0,0,0,.37.1.74.74,0,0,0,.37-.1l2.84-1.68a.7.7,0,0,0,.37-.63V293.87A.71.71,0,0,0,352.46,293.23Zm0,0a.75.75,0,0,0-.74,0l-2.84,1.61a.72.72,0,0,0-.37.64v35.57a.72.72,0,0,0,.37.64.66.66,0,0,0,.37.1.74.74,0,0,0,.37-.1l2.84-1.68a.7.7,0,0,0,.37-.63V293.87A.71.71,0,0,0,352.46,293.23Zm9.17-5.26a.75.75,0,0,0-.74,0L358,289.58a.79.79,0,0,0-.37.66v35.55a.75.75,0,0,0,1.12.64l2.85-1.66a.74.74,0,0,0,.36-.65V288.61A.73.73,0,0,0,361.63,288Zm9.16-5.38a.78.78,0,0,0-.74,0l-2.86,1.63a.68.68,0,0,0-.37.63v35.57a.73.73,0,0,0,.37.64.73.73,0,0,0,.74,0l2.86-1.67a.88.88,0,0,0,.15-.12.74.74,0,0,0,.16-.27.66.66,0,0,0,0-.25V283.23A.75.75,0,0,0,370.79,282.59Zm9.15-5.26a.75.75,0,0,0-.74,0L376.36,279a.72.72,0,0,0-.39.63v35.57a.75.75,0,0,0,.37.64.77.77,0,0,0,.38.1.75.75,0,0,0,.38-.1l2.84-1.67a.75.75,0,0,0,.38-.64V278A.75.75,0,0,0,379.94,277.33Zm9.16-5.26a.75.75,0,0,0-.74,0l-2.84,1.62a.74.74,0,0,0-.39.65v35.55a.74.74,0,0,0,.37.64.66.66,0,0,0,.37.11.7.7,0,0,0,.39-.11l2.84-1.66a.72.72,0,0,0,.37-.65V272.71A.74.74,0,0,0,389.1,272.07Zm0,0a.75.75,0,0,0-.74,0l-2.84,1.62a.74.74,0,0,0-.39.65v35.55a.74.74,0,0,0,.37.64.66.66,0,0,0,.37.11.7.7,0,0,0,.39-.11l2.84-1.66a.72.72,0,0,0,.37-.65V272.71A.74.74,0,0,0,389.1,272.07Zm-9.16,5.26a.75.75,0,0,0-.74,0L376.36,279a.72.72,0,0,0-.39.63v35.57a.75.75,0,0,0,.37.64.77.77,0,0,0,.38.1.75.75,0,0,0,.38-.1l2.84-1.67a.75.75,0,0,0,.38-.64V278A.75.75,0,0,0,379.94,277.33Zm-9.15,5.26a.78.78,0,0,0-.74,0l-2.86,1.63a.68.68,0,0,0-.37.63v35.57a.73.73,0,0,0,.37.64.73.73,0,0,0,.74,0l2.86-1.67a.88.88,0,0,0,.15-.12.74.74,0,0,0,.16-.27.66.66,0,0,0,0-.25V283.23A.75.75,0,0,0,370.79,282.59ZM361.63,288a.75.75,0,0,0-.74,0L358,289.58a.79.79,0,0,0-.37.66v35.55a.75.75,0,0,0,1.12.64l2.85-1.66a.74.74,0,0,0,.36-.65V288.61A.73.73,0,0,0,361.63,288Zm-9.17,5.26a.75.75,0,0,0-.74,0l-2.84,1.61a.72.72,0,0,0-.37.64v35.57a.72.72,0,0,0,.37.64.66.66,0,0,0,.37.1.74.74,0,0,0,.37-.1l2.84-1.68a.7.7,0,0,0,.37-.63V293.87A.71.71,0,0,0,352.46,293.23Zm0,0a.75.75,0,0,0-.74,0l-2.84,1.61a.72.72,0,0,0-.37.64v35.57a.72.72,0,0,0,.37.64.66.66,0,0,0,.37.1.74.74,0,0,0,.37-.1l2.84-1.68a.7.7,0,0,0,.37-.63V293.87A.71.71,0,0,0,352.46,293.23Zm9.17-5.26a.75.75,0,0,0-.74,0L358,289.58a.79.79,0,0,0-.37.66v35.55a.75.75,0,0,0,1.12.64l2.85-1.66a.74.74,0,0,0,.36-.65V288.61A.73.73,0,0,0,361.63,288Zm9.16-5.38a.78.78,0,0,0-.74,0l-2.86,1.63a.68.68,0,0,0-.37.63v35.57a.73.73,0,0,0,.37.64.73.73,0,0,0,.74,0l2.86-1.67a.88.88,0,0,0,.15-.12.74.74,0,0,0,.16-.27.66.66,0,0,0,0-.25V283.23A.75.75,0,0,0,370.79,282.59Zm9.15-5.26a.75.75,0,0,0-.74,0L376.36,279a.72.72,0,0,0-.39.63v35.57a.75.75,0,0,0,.37.64.77.77,0,0,0,.38.1.75.75,0,0,0,.38-.1l2.84-1.67a.75.75,0,0,0,.38-.64V278A.75.75,0,0,0,379.94,277.33Zm9.16-5.26a.75.75,0,0,0-.74,0l-2.84,1.62a.74.74,0,0,0-.39.65v35.55a.74.74,0,0,0,.37.64.66.66,0,0,0,.37.11.7.7,0,0,0,.39-.11l2.84-1.66a.72.72,0,0,0,.37-.65V272.71A.74.74,0,0,0,389.1,272.07Zm0,0a.75.75,0,0,0-.74,0l-2.84,1.62a.74.74,0,0,0-.39.65v35.55a.74.74,0,0,0,.37.64.66.66,0,0,0,.37.11.7.7,0,0,0,.39-.11l2.84-1.66a.72.72,0,0,0,.37-.65V272.71A.74.74,0,0,0,389.1,272.07Zm-9.16,5.26a.75.75,0,0,0-.74,0L376.36,279a.72.72,0,0,0-.39.63v35.57a.75.75,0,0,0,.37.64.77.77,0,0,0,.38.1.75.75,0,0,0,.38-.1l2.84-1.67a.75.75,0,0,0,.38-.64V278A.75.75,0,0,0,379.94,277.33Zm-9.15,5.26a.78.78,0,0,0-.74,0l-2.86,1.63a.68.68,0,0,0-.37.63v35.57a.73.73,0,0,0,.37.64.73.73,0,0,0,.74,0l2.86-1.67a.88.88,0,0,0,.15-.12.74.74,0,0,0,.16-.27.66.66,0,0,0,0-.25V283.23A.75.75,0,0,0,370.79,282.59ZM361.63,288a.75.75,0,0,0-.74,0L358,289.58a.79.79,0,0,0-.37.66v35.55a.75.75,0,0,0,1.12.64l2.85-1.66a.74.74,0,0,0,.36-.65V288.61A.73.73,0,0,0,361.63,288Zm-9.17,5.26a.75.75,0,0,0-.74,0l-2.84,1.61a.72.72,0,0,0-.37.64v35.57a.72.72,0,0,0,.37.64.66.66,0,0,0,.37.1.74.74,0,0,0,.37-.1l2.84-1.68a.7.7,0,0,0,.37-.63V293.87A.71.71,0,0,0,352.46,293.23Zm0,0a.75.75,0,0,0-.74,0l-2.84,1.61a.72.72,0,0,0-.37.64v35.57a.72.72,0,0,0,.37.64.66.66,0,0,0,.37.1.74.74,0,0,0,.37-.1l2.84-1.68a.7.7,0,0,0,.37-.63V293.87A.71.71,0,0,0,352.46,293.23Zm9.17-5.26a.75.75,0,0,0-.74,0L358,289.58a.79.79,0,0,0-.37.66v35.55a.75.75,0,0,0,1.12.64l2.85-1.66a.74.74,0,0,0,.36-.65V288.61A.73.73,0,0,0,361.63,288Zm9.16-5.38a.78.78,0,0,0-.74,0l-2.86,1.63a.68.68,0,0,0-.37.63v35.57a.73.73,0,0,0,.37.64.73.73,0,0,0,.74,0l2.86-1.67a.88.88,0,0,0,.15-.12.74.74,0,0,0,.16-.27.66.66,0,0,0,0-.25V283.23A.75.75,0,0,0,370.79,282.59Zm9.15-5.26a.75.75,0,0,0-.74,0L376.36,279a.72.72,0,0,0-.39.63v35.57a.75.75,0,0,0,.37.64.77.77,0,0,0,.38.1.75.75,0,0,0,.38-.1l2.84-1.67a.75.75,0,0,0,.38-.64V278A.75.75,0,0,0,379.94,277.33Zm9.16-5.26a.75.75,0,0,0-.74,0l-2.84,1.62a.74.74,0,0,0-.39.65v35.55a.74.74,0,0,0,.37.64.66.66,0,0,0,.37.11.7.7,0,0,0,.39-.11l2.84-1.66a.72.72,0,0,0,.37-.65V272.71A.74.74,0,0,0,389.1,272.07Zm0,0a.75.75,0,0,0-.74,0l-2.84,1.62a.74.74,0,0,0-.39.65v35.55a.74.74,0,0,0,.37.64.66.66,0,0,0,.37.11.7.7,0,0,0,.39-.11l2.84-1.66a.72.72,0,0,0,.37-.65V272.71A.74.74,0,0,0,389.1,272.07Zm-9.16,5.26a.75.75,0,0,0-.74,0L376.36,279a.72.72,0,0,0-.39.63v35.57a.75.75,0,0,0,.37.64.77.77,0,0,0,.38.1.75.75,0,0,0,.38-.1l2.84-1.67a.75.75,0,0,0,.38-.64V278A.75.75,0,0,0,379.94,277.33Zm-9.15,5.26a.78.78,0,0,0-.74,0l-2.86,1.63a.68.68,0,0,0-.37.63v35.57a.73.73,0,0,0,.37.64.73.73,0,0,0,.74,0l2.86-1.67a.88.88,0,0,0,.15-.12.74.74,0,0,0,.16-.27.66.66,0,0,0,0-.25V283.23A.75.75,0,0,0,370.79,282.59ZM361.63,288a.75.75,0,0,0-.74,0L358,289.58a.79.79,0,0,0-.37.66v35.55a.75.75,0,0,0,1.12.64l2.85-1.66a.74.74,0,0,0,.36-.65V288.61A.73.73,0,0,0,361.63,288Zm-9.17,5.26a.75.75,0,0,0-.74,0l-2.84,1.61a.72.72,0,0,0-.37.64v35.57a.72.72,0,0,0,.37.64.66.66,0,0,0,.37.1.74.74,0,0,0,.37-.1l2.84-1.68a.7.7,0,0,0,.37-.63V293.87A.71.71,0,0,0,352.46,293.23Zm0,0a.75.75,0,0,0-.74,0l-2.84,1.61a.72.72,0,0,0-.37.64v35.57a.72.72,0,0,0,.37.64.66.66,0,0,0,.37.1.74.74,0,0,0,.37-.1l2.84-1.68a.7.7,0,0,0,.37-.63V293.87A.71.71,0,0,0,352.46,293.23Zm9.17-5.26a.75.75,0,0,0-.74,0L358,289.58a.79.79,0,0,0-.37.66v35.55a.75.75,0,0,0,1.12.64l2.85-1.66a.74.74,0,0,0,.36-.65V288.61A.73.73,0,0,0,361.63,288Zm9.16-5.38a.78.78,0,0,0-.74,0l-2.86,1.63a.68.68,0,0,0-.37.63v35.57a.73.73,0,0,0,.37.64.73.73,0,0,0,.74,0l2.86-1.67a.88.88,0,0,0,.15-.12.74.74,0,0,0,.16-.27.66.66,0,0,0,0-.25V283.23A.75.75,0,0,0,370.79,282.59Zm9.15-5.26a.75.75,0,0,0-.74,0L376.36,279a.72.72,0,0,0-.39.63v35.57a.75.75,0,0,0,.37.64.77.77,0,0,0,.38.1.75.75,0,0,0,.38-.1l2.84-1.67a.75.75,0,0,0,.38-.64V278A.75.75,0,0,0,379.94,277.33Zm9.16-5.26a.75.75,0,0,0-.74,0l-2.84,1.62a.74.74,0,0,0-.39.65v35.55a.74.74,0,0,0,.37.64.66.66,0,0,0,.37.11.7.7,0,0,0,.39-.11l2.84-1.66a.72.72,0,0,0,.37-.65V272.71A.74.74,0,0,0,389.1,272.07Zm0,0a.75.75,0,0,0-.74,0l-2.84,1.62a.74.74,0,0,0-.39.65v35.55a.74.74,0,0,0,.37.64.66.66,0,0,0,.37.11.7.7,0,0,0,.39-.11l2.84-1.66a.72.72,0,0,0,.37-.65V272.71A.74.74,0,0,0,389.1,272.07Zm-9.16,5.26a.75.75,0,0,0-.74,0L376.36,279a.72.72,0,0,0-.39.63v35.57a.75.75,0,0,0,.37.64.77.77,0,0,0,.38.1.75.75,0,0,0,.38-.1l2.84-1.67a.75.75,0,0,0,.38-.64V278A.75.75,0,0,0,379.94,277.33Zm-9.15,5.26a.78.78,0,0,0-.74,0l-2.86,1.63a.68.68,0,0,0-.37.63v35.57a.73.73,0,0,0,.37.64.73.73,0,0,0,.74,0l2.86-1.67a.88.88,0,0,0,.15-.12.74.74,0,0,0,.16-.27.66.66,0,0,0,0-.25V283.23A.75.75,0,0,0,370.79,282.59ZM361.63,288a.75.75,0,0,0-.74,0L358,289.58a.79.79,0,0,0-.37.66v35.55a.75.75,0,0,0,1.12.64l2.85-1.66a.74.74,0,0,0,.36-.65V288.61A.73.73,0,0,0,361.63,288Zm-9.17,5.26a.75.75,0,0,0-.74,0l-2.84,1.61a.72.72,0,0,0-.37.64v35.57a.72.72,0,0,0,.37.64.66.66,0,0,0,.37.1.74.74,0,0,0,.37-.1l2.84-1.68a.7.7,0,0,0,.37-.63V293.87A.71.71,0,0,0,352.46,293.23Z"/><path class="cls-2" d="M398.26,196.45a.72.72,0,0,0-.75,0l-.37.2-.75.43L267,270.33h0l-.36.2a.72.72,0,0,0-.37.64V332l0,65.69v.42a.75.75,0,0,0,.37.64.92.92,0,0,0,.38.11.8.8,0,0,0,.37-.11l18.32-10.58a.7.7,0,0,0,.37-.63V377.36l92.81-52.1v9.32a.72.72,0,0,0,.37.63.7.7,0,0,0,.74,0l18.32-10.58a.74.74,0,0,0,.37-.63V197.1A.74.74,0,0,0,398.26,196.45Zm-1.12,1.91V323.57l-16.82,9.72V324a.72.72,0,0,0-.38-.64.73.73,0,0,0-.74,0l-94.28,52.93a.75.75,0,0,0-.38.65v10.15L267.7,396.8V271.6Z"/><path class="cls-2" d="M398.26,196.45,233.4,101.28a.75.75,0,0,0-.74,0L111.27,170l-9.53,5.39h0a.75.75,0,0,0,0,1.29l.39.22,132.2,76.33,1.48.84h0l3.32,1.92h0l22.44,13,4.62,2.68h0l.35.21a.77.77,0,0,0,.38.1.81.81,0,0,0,.37-.09l.37-.21h0l129.43-73.24.74-.42.38-.21a.74.74,0,0,0,0-1.28ZM267,270.33h0l-26-15-1.48-.86L235.24,252h0L103.6,176l7.76-4.4,1.5-.84,120.17-68,163.36,94.32Z"/><path class="cls-2" d="M221.53,254.67,111.64,191.22a.7.7,0,0,0-.74,0,.74.74,0,0,0-.37.63V287a.73.73,0,0,0,.37.63l96.16,55.53a.73.73,0,0,0,.74,0,.74.74,0,0,0,.37-.64V270.84l13.38-8a.73.73,0,0,0,.35-.64V255.3A.72.72,0,0,0,221.53,254.67Zm-1.11,7.08-13.37,8a.75.75,0,0,0-.36.64v70.86L112,286.61V193.14l108.41,62.59Z"/><path class="cls-2" d="M230.85,334.62l-6.71-3.84a.77.77,0,0,0-.75,0l-1.49.89-1.48.91-1.24.75-.68.4-.31.19a.73.73,0,0,0-.36.63.77.77,0,0,0,.33.63s0,0,0,0l1,.64,4.9,3.21.34.23a.78.78,0,0,0,.4.12.68.68,0,0,0,.39-.11l.35-.21h0l4.18-2.5,1.13-.69a.74.74,0,0,0,.35-.63A.75.75,0,0,0,230.85,334.62Zm-6,3.17-4.88-3.2,1.59-1,2.24-1.35,5.23,3Z"/><path class="cls-2" d="M221.53,273.33a.74.74,0,0,0-.72,0L218.05,275a.74.74,0,0,0-.35.63v58.86a.75.75,0,0,0,.32.62l.14.09s0,0,0,0a.75.75,0,0,0,.37.09.78.78,0,0,0,.39-.1l.22-.14.78-.47,1.59-1a.74.74,0,0,0,.35-.64V274A.72.72,0,0,0,221.53,273.33Zm-1.11,59.25-1.24.75V276l1.24-.74Z"/><path class="cls-2" d="M221.9,348.74v1.75a.77.77,0,0,1-.37.65.75.75,0,0,1-.37.09.64.64,0,0,1-.37-.11l-1.09-.63-.39-.23a.72.72,0,0,1-.37-.62.73.73,0,0,1,.33-.62l1.54-.93a.74.74,0,0,1,.72,0A.72.72,0,0,1,221.9,348.74Z"/><path class="cls-2" d="M249,249.38,112.86,170.76l-.75-.43-.47-.27a.74.74,0,0,0-.37-.1.66.66,0,0,0-.37.1l-9.16,5.29h0a.75.75,0,0,0,0,1.29l.39.22,132.2,76.33,1.48.84h0l3.32,1.92h0l.15.06h.19a1,1,0,0,0,.37-.08l1.11-.64,0,0,8-4.63a.76.76,0,0,0,.38-.66A.72.72,0,0,0,249,249.38Zm-9.49,5.06,0,0L235.24,252h0L103.6,176h0l7.69-4.43.09,0L247.16,250Z"/><path class="cls-2" d="M267.71,312.19v75.32a.53.53,0,0,1,0,.12v0a.77.77,0,0,1-.73.59.74.74,0,0,1-.74-.74V312.37l0-40.77-4.62-2.68L239.31,256h0l-3.5-2V368.62L249,376.29a.73.73,0,0,1,.27,1,.72.72,0,0,1-.64.37.71.71,0,0,1-.37-.1l-13.58-7.88a.72.72,0,0,1-.37-.64V252.71a.71.71,0,0,1,.89-.71h0a.44.44,0,0,1,.19.07l4.09,2.37,1.48.86,26,15h0l.36.2a.74.74,0,0,1,.37.64v41Z"/><path class="cls-2" d="M224.45,276.37a.79.79,0,0,0,.76,0l5.66-3.4a.74.74,0,0,0,.35-.64v-7.88a.76.76,0,0,0-.37-.64.77.77,0,0,0-.75,0l-1.08.65-14.91,9-.37.22a.74.74,0,0,0-.35.64V353a.74.74,0,0,0,.37.65l.17.08s.06,0,.09,0h.3a.48.48,0,0,0,.18-.08s0,0,0,0l5.16-3.09,2.2-1.34,9-5.37a.74.74,0,0,0,.35-.64v-7.88a.75.75,0,0,0-.37-.64.77.77,0,0,0-.75,0l-1.08.65-4.18,2.52-.4.24a.75.75,0,0,0-.36.63v3.53l-.18.12h0l-1.44.86-3.27,2V276l1.24-.74,1.48-.91,2.18-1.3v2.64A.78.78,0,0,0,224.45,276.37Zm-3.64-3.05L218.05,275a.74.74,0,0,0-.35.63v70.83a.76.76,0,0,0,.37.65.84.84,0,0,0,.37.09.75.75,0,0,0,.38-.1l5.44-3.27h0l0,0,.92-.55a.73.73,0,0,0,.35-.63v-3.53l4.18-2.5v6.14l-8.93,5.37-1.54.93-4.4,2.64v-77l14.87-8.95v6.17l-4.18,2.51v-2.63a.72.72,0,0,0-.37-.64.77.77,0,0,0-.75,0Zm4.4,66a.68.68,0,0,1-.39.11.78.78,0,0,1-.4-.12l-.34-.23v3.13l-.18.12h0l-1.44.86-3.27,2V335.06l-.22.14a.78.78,0,0,1-.39.1.75.75,0,0,1-.37-.09s0,0,0,0l-.14-.09a.75.75,0,0,1-.32-.62v12a.76.76,0,0,0,.37.65.84.84,0,0,0,.37.09.75.75,0,0,0,.38-.1l5.44-3.27h0l0,0,.92-.55a.73.73,0,0,0,.35-.63v-3.52Z"/><path class="cls-2" d="M214.5,273.63l-.39-.22-5.21-3h0l-1.08-.62a.75.75,0,0,0-.74,0h0a1.49,1.49,0,0,0-.14.12s0,0,0,0a.69.69,0,0,0-.21.51v78.7a.76.76,0,0,0,.37.65l6.7,3.84a.44.44,0,0,0,.17.06.42.42,0,0,0,.2,0,.64.64,0,0,0,.37-.11s0,0,0,0a.69.69,0,0,0,.33-.6V274.27A.75.75,0,0,0,214.5,273.63Zm-6.33-1.93,5.22,3v77l-5.22-3Z"/><path class="cls-2" d="M230.85,263.79,224.14,260a.72.72,0,0,0-.75,0l-1.49.88-1.48.89-13.36,8.06h0a1.49,1.49,0,0,0-.14.12s0,0,0,0a.69.69,0,0,0-.21.51.76.76,0,0,0,.37.64l1.11.64,5.22,3h0l.37.21a.78.78,0,0,0,.37.09.67.67,0,0,0,.38-.11l.36-.2v0l14.87-8.93v0l1.13-.66a.75.75,0,0,0,0-1.28Zm-21.95,6.62,12.66-7.61,2.23-1.35,5.23,3-14.91,9Z"/><path class="cls-2" d="M224.27,342.53l-.37-.22h0l-4.71-2.85h0l-.36-.21a.77.77,0,0,0-.75,0,.76.76,0,0,0-.37.64v6.56a.76.76,0,0,0,.37.65.84.84,0,0,0,.37.09.75.75,0,0,0,.38-.1l5.44-3.27h0l0,0a.72.72,0,0,0,.34-.62A.74.74,0,0,0,224.27,342.53Zm-5.09,2.61V341.2l3.27,2Z"/><path class="cls-2" d="M225.22,338l-.38-.25-4.88-3.2-.78-.52-.33-.21a.82.82,0,0,0-.35-.13.7.7,0,0,0-.4.09.74.74,0,0,0-.4.65v5.41a.74.74,0,0,0,.35.64l1.13.68,3.27,2,1.05.64a.78.78,0,0,0,.39.1.71.71,0,0,0,.37-.1h0l0,0,.92-.55a.73.73,0,0,0,.35-.63v-3.95A.76.76,0,0,0,225.22,338Zm-1.33,4.27-4.71-2.85v-3.61l4.9,3.21v3.13l-.18.12Z"/><path class="cls-2" d="M154,258.77a7,7,0,0,0-2.41-2.1,3.22,3.22,0,0,0-3.1-.14,2.15,2.15,0,0,0-1,1.9c0,1.72,1.48,3.79,3.39,4.75a4,4,0,0,0,1.84.48,2.29,2.29,0,0,0,1.25-.33,2.12,2.12,0,0,0,1-1.91A4.64,4.64,0,0,0,154,258.77Zm-.77,3.3c-.27.17-.83.2-1.64-.22a4.6,4.6,0,0,1-2.58-3.42.72.72,0,0,1,.26-.64,1,1,0,0,1,.49-.12,2.65,2.65,0,0,1,1.16.33,4.63,4.63,0,0,1,2.59,3.42A.7.7,0,0,1,153.24,262.07Z"/><path class="cls-2" d="M152.74,267.08a3.22,3.22,0,0,0-3.1-.15,2.18,2.18,0,0,0-1,1.91c0,1.71,1.5,3.8,3.41,4.76a4.24,4.24,0,0,0,1.82.47,2.35,2.35,0,0,0,1.26-.34,2.08,2.08,0,0,0,1-1.89C156.13,270.12,154.63,268,152.74,267.08Zm1.64,5.39a1.79,1.79,0,0,1-1.64-.2,4.64,4.64,0,0,1-2.6-3.43.71.71,0,0,1,.28-.65,1,1,0,0,1,.49-.1,2.72,2.72,0,0,1,1.16.32,4.66,4.66,0,0,1,2.58,3.43A.67.67,0,0,1,154.38,272.47Z"/><path class="cls-2" d="M145.79,263.79a9.4,9.4,0,0,0-3.23-2.77,4.13,4.13,0,0,0-4-.22,2.68,2.68,0,0,0-1.21,2.38c0,2.27,2,5,4.55,6.32a5.44,5.44,0,0,0,2.38.62,3,3,0,0,0,1.59-.42,2.68,2.68,0,0,0,1.21-2.38A6.41,6.41,0,0,0,145.79,263.79Zm-.68,4.65a2.81,2.81,0,0,1-2.55-.28c-2-1-3.72-3.29-3.72-5a1.23,1.23,0,0,1,.52-1.12,1.54,1.54,0,0,1,.81-.19,4.18,4.18,0,0,1,1.74.47c2,1,3.7,3.29,3.7,5A1.2,1.2,0,0,1,145.11,268.44Z"/><path class="cls-2" d="M141.08,251.81a2.19,2.19,0,0,0-2.14-.08,1.57,1.57,0,0,0-.72,1.38,3.92,3.92,0,0,0,2.19,3.11,2.76,2.76,0,0,0,1.23.31,1.7,1.7,0,0,0,.9-.23,1.62,1.62,0,0,0,.73-1.4A3.88,3.88,0,0,0,141.08,251.81Zm0,3.08a2.43,2.43,0,0,1-1.37-1.9.28.28,0,0,1,.14,0,1.15,1.15,0,0,1,.56.17,2.36,2.36,0,0,1,1.35,1.91A1,1,0,0,1,141.08,254.89Z"/><path class="cls-2" d="M131.79,261.93a5.93,5.93,0,0,0-4.58-3.09,1.62,1.62,0,0,0-.31,0,2.07,2.07,0,0,0-1.69,1.11,3.46,3.46,0,0,0,.42,3.24,6,6,0,0,0,4.57,3.1h.31a2.06,2.06,0,0,0,1.68-1.13A3.46,3.46,0,0,0,131.79,261.93Zm-.92,2.57a.57.57,0,0,1-.52.31c-.95.12-2.58-.83-3.45-2.34a2.18,2.18,0,0,1-.36-1.83.57.57,0,0,1,.52-.31h.15a4.56,4.56,0,0,1,3.3,2.34A2.11,2.11,0,0,1,130.87,264.5Z"/><path class="cls-2" d="M139.27,273.14c-1.1-1.91-3.22-3.26-4.89-3.07a2,2,0,0,0-1.67,1.11,3.42,3.42,0,0,0,.4,3.25,6,6,0,0,0,4.59,3.1l.3,0a2.06,2.06,0,0,0,1.68-1.13A3.47,3.47,0,0,0,139.27,273.14Zm-.92,2.58a.6.6,0,0,1-.52.31c-.92.13-2.58-.83-3.45-2.34a2.15,2.15,0,0,1-.35-1.84c.05-.12.17-.27.51-.31h.15a4.56,4.56,0,0,1,3.31,2.34A2.15,2.15,0,0,1,138.35,275.72Z"/><path class="cls-2" d="M131.89,274c-1.38-2.39-4-4.12-6.09-4.12a2.48,2.48,0,0,0-.38,0,2.57,2.57,0,0,0-2.09,1.39,4.51,4.51,0,0,0,.55,4.21c1.38,2.38,4,4.11,6.07,4.11h.4a2.62,2.62,0,0,0,2.09-1.39A4.48,4.48,0,0,0,131.89,274Zm-.77,3.54a1.09,1.09,0,0,1-.93.58c-1.56.18-3.87-1.36-5-3.36a3.31,3.31,0,0,1-.5-2.8,1,1,0,0,1,.93-.58c1.57-.18,3.87,1.36,5,3.36A3.24,3.24,0,0,1,131.12,277.51Z"/><path class="cls-2" d="M121.77,262.25a3.71,3.71,0,0,0-3.21-2,1.55,1.55,0,0,0-1.23.83,2.33,2.33,0,0,0,.25,2.22,3.81,3.81,0,0,0,3,2h.21a1.5,1.5,0,0,0,1.23-.83A2.33,2.33,0,0,0,121.77,262.25Zm-1.15,1.57a2.36,2.36,0,0,1-1.76-1.24c-.27-.48-.24-.77-.21-.82l.07,0h.08a2.46,2.46,0,0,1,1.68,1.26C120.75,263.45,120.74,263.75,120.62,263.82Z"/><path class="cls-2" d="M264,366l-22.36-12.9a.75.75,0,0,0-.74,0,.71.71,0,0,0-.37.64v11.89a.72.72,0,0,0,.37.65l22.36,12.91a.73.73,0,0,0,.37.1.89.89,0,0,0,.37-.1.79.79,0,0,0,.37-.64V366.62A.76.76,0,0,0,264,366Zm-1.11,11.26-20.88-12.06V355l20.88,12.05Z"/><path class="cls-2" d="M264.78,276.16l-22.36-12.9a.75.75,0,0,0-.74,0,.71.71,0,0,0-.37.64v12.22a.73.73,0,0,0,.37.65L264,289.67a.73.73,0,0,0,.37.11.87.87,0,0,0,.37-.11.76.76,0,0,0,.37-.63V276.8A.76.76,0,0,0,264.78,276.16Zm-1.11,11.59-20.88-12.06V265.18l20.88,12.05Z"/><path class="cls-2" d="M252.85,287.55l-11.17-6.45a.74.74,0,0,0-1.11.63v10.88a.73.73,0,0,0,.37.65l1.11.63,9.69,5.61.37.2a.66.66,0,0,0,.37.11.64.64,0,0,0,.37-.11.7.7,0,0,0,.37-.63V288.19A.71.71,0,0,0,252.85,287.55Zm-10.8,4.63V283l9.69,5.6v9.16Z"/><path class="cls-2" d="M264,294l-11.19-6.45a.74.74,0,0,0-1.11.64v10.88a.74.74,0,0,0,.37.63l1.11.64h0l9.71,5.6.37.21a.73.73,0,0,0,.37.11.92.92,0,0,0,.37-.11.75.75,0,0,0,.37-.64V294.64A.76.76,0,0,0,264,294Zm-10.82,4.64v-9.17l9.71,5.6v9.17Z"/><path class="cls-2" d="M252.85,298.43l-1.11-.64h0l-9.69-5.6-.37-.21a.75.75,0,0,0-.74,0,.72.72,0,0,0-.37.64V303.5a.7.7,0,0,0,.37.63l1.11.64,9.69,5.6.37.21a.74.74,0,0,0,.37.1.71.71,0,0,0,.37-.1.7.7,0,0,0,.37-.64V299.07A.71.71,0,0,0,252.85,298.43Zm-10.8,4.62v-9.16l9.69,5.61v9.17Z"/><path class="cls-2" d="M264,304.87l-1.11-.63-9.71-5.6-.37-.21a.74.74,0,0,0-1.11.64v10.87a.74.74,0,0,0,.37.64l1.11.63v0l9.71,5.6.37.21a.64.64,0,0,0,.37.1.74.74,0,0,0,.74-.74V305.52A.79.79,0,0,0,264,304.87Zm-10.82,4.64v-9.16l9.71,5.6v9.16Z"/><path class="cls-2" d="M252.85,309.3l-1.11-.63-9.69-5.62-.37-.21a.74.74,0,0,0-1.11.66v10.87a.72.72,0,0,0,.37.64l1.11.63,9.69,5.6v0l.37.2a.84.84,0,0,0,.37.09.81.81,0,0,0,.37-.09.72.72,0,0,0,.37-.65V309.94A.72.72,0,0,0,252.85,309.3Zm-10.8,4.62v-9.15l9.69,5.6v9.17Z"/><path class="cls-2" d="M264,315.76l-1.11-.65-9.71-5.6-.37-.21a.75.75,0,0,0-.74,0,.76.76,0,0,0-.37.64v10.87a.76.76,0,0,0,.37.65l1.11.64,9.71,5.6.37.21a.64.64,0,0,0,.37.1.76.76,0,0,0,.37-.1.75.75,0,0,0,.37-.64V316.4A.74.74,0,0,0,264,315.76Zm-10.82,4.62v-9.15l9.71,5.6V326Z"/><path class="cls-2" d="M252.85,320.18l-1.11-.64-9.69-5.62-.37-.2a.7.7,0,0,0-.74,0,.72.72,0,0,0-.37.65v10.87a.71.71,0,0,0,.37.64l1.11.65,9.69,5.59h0l.37.21a.86.86,0,0,0,.37.1.82.82,0,0,0,.37-.1.73.73,0,0,0,.37-.64V320.81A.7.7,0,0,0,252.85,320.18Zm-10.8,4.63v-9.17l9.69,5.6v9.17Z"/><path class="cls-2" d="M264,326.63l-1.11-.65-9.71-5.6-.37-.2a.7.7,0,0,0-.74,0,.74.74,0,0,0-.37.63V331.7a.77.77,0,0,0,.37.64l1.11.64,9.71,5.6.37.2a.58.58,0,0,0,.37.11.68.68,0,0,0,.37-.11.73.73,0,0,0,.37-.63V327.27A.77.77,0,0,0,264,326.63Zm-10.82,4.64V322.1l9.71,5.6v9.17Z"/><path class="cls-2" d="M252.85,331.05l-1.11-.64-9.69-5.6-.37-.2a.74.74,0,0,0-1.11.63v10.88a.7.7,0,0,0,.37.63l1.11.66,9.69,5.6.37.2a.87.87,0,0,0,.37.11.83.83,0,0,0,.37-.11.7.7,0,0,0,.37-.63V331.7A.72.72,0,0,0,252.85,331.05Zm-10.8,4.64v-9.16l9.69,5.59v9.17Z"/><path class="cls-2" d="M264,337.51l-1.11-.64-9.71-5.6h0l-.37-.21a.75.75,0,0,0-.74,0,.76.76,0,0,0-.37.65v10.88a.74.74,0,0,0,.37.63l1.11.64,9.71,5.6h0l.37.21a.72.72,0,0,0,.37.09.87.87,0,0,0,.37-.09.76.76,0,0,0,.37-.65V338.15A.75.75,0,0,0,264,337.51Zm-10.82,4.64V333l9.71,5.6v9.17Z"/><path class="cls-2" d="M252.85,341.92l-1.11-.63-9.69-5.6-.37-.21a.75.75,0,0,0-.74,0,.71.71,0,0,0-.37.64V347a.72.72,0,0,0,.37.65l11.17,6.45a.74.74,0,0,0,.37.1.71.71,0,0,0,.37-.1.72.72,0,0,0,.37-.64V342.58A.75.75,0,0,0,252.85,341.92Zm-10.8-4.51,9.69,5.6v9.15l-9.69-5.6Z"/><path class="cls-2" d="M264,348.38l-1.11-.63-9.71-5.6v0l-.37-.21a.75.75,0,0,0-.74,0,.79.79,0,0,0-.37.66v10.87a.76.76,0,0,0,.37.64l11.19,6.46a.84.84,0,0,0,.37.08,1,1,0,0,0,.37-.08.79.79,0,0,0,.37-.66V349A.76.76,0,0,0,264,348.38Zm-1.11,10.24-9.71-5.6v-9.17l9.71,5.6Z"/><path class="cls-2" d="M389.1,272.07a.75.75,0,0,0-.74,0l-2.84,1.62a.74.74,0,0,0-.39.65v35.55a.74.74,0,0,0,.37.64.66.66,0,0,0,.37.11.7.7,0,0,0,.39-.11l2.84-1.66a.72.72,0,0,0,.37-.65V272.71A.74.74,0,0,0,389.1,272.07ZM388,307.81l-.73.43-.65.37V274.77L388,274Z"/><path class="cls-2" d="M389.1,307.58,388,307l-1.38-.8-.37-.21a.74.74,0,0,0-1.11.64v3.31a.74.74,0,0,0,.37.64.66.66,0,0,0,.37.11.7.7,0,0,0,.39-.11l2.84-1.66a.72.72,0,0,0,.37-.65A.76.76,0,0,0,389.1,307.58Zm-2.49,1v-.74l.65.37Z"/><path class="cls-2" d="M379.94,277.33a.75.75,0,0,0-.74,0L376.36,279a.72.72,0,0,0-.39.63v35.57a.75.75,0,0,0,.37.64.77.77,0,0,0,.38.1.75.75,0,0,0,.38-.1l2.84-1.67a.75.75,0,0,0,.38-.64V278A.75.75,0,0,0,379.94,277.33Zm-1.11,35.72-.74.43-.63.39V280l1.37-.77Z"/><path class="cls-2" d="M379.94,312.84l-1.11-.63-1.37-.8-.37-.21a.77.77,0,0,0-.75,0,.74.74,0,0,0-.37.64v3.31a.75.75,0,0,0,.37.64.77.77,0,0,0,.38.1.75.75,0,0,0,.38-.1l2.84-1.67a.73.73,0,0,0,0-1.28Zm-2.48,1v-.76l.63.37Z"/><path class="cls-2" d="M370.79,282.59a.78.78,0,0,0-.74,0l-2.86,1.63a.68.68,0,0,0-.37.63v35.57a.73.73,0,0,0,.37.64.73.73,0,0,0,.74,0l2.86-1.67a.88.88,0,0,0,.15-.12.74.74,0,0,0,.16-.27.66.66,0,0,0,0-.25V283.23A.75.75,0,0,0,370.79,282.59Zm-1.13,35.72-.72.43-.64.37V285.27l1.36-.77Z"/><path class="cls-2" d="M370.79,318.09l-1.13-.65-1.36-.79-.37-.21a.74.74,0,0,0-1.11.65v3.32a.73.73,0,0,0,.37.64.73.73,0,0,0,.74,0l2.86-1.67a.88.88,0,0,0,.15-.12.74.74,0,0,0,.16-.27.66.66,0,0,0,0-.25A.76.76,0,0,0,370.79,318.09Zm-2.49,1v-.74l.64.37Z"/><path class="cls-2" d="M361.63,288a.75.75,0,0,0-.74,0L358,289.58a.79.79,0,0,0-.37.66v35.55a.75.75,0,0,0,1.12.64l2.85-1.66a.74.74,0,0,0,.36-.65V288.61A.73.73,0,0,0,361.63,288Zm-1.12,35.73-.73.43-.63.37V290.67l1.36-.79Z"/><path class="cls-2" d="M361.62,323.48l-1.11-.64-1.36-.8-.37-.2a.75.75,0,0,0-1.12.63v3.32a.75.75,0,0,0,1.12.64l2.85-1.66a.74.74,0,0,0,.36-.65A.71.71,0,0,0,361.62,323.48Zm-2.47,1v-.74l.63.37Z"/><path class="cls-2" d="M352.46,293.23a.75.75,0,0,0-.74,0l-2.84,1.61a.72.72,0,0,0-.37.64v35.57a.72.72,0,0,0,.37.64.66.66,0,0,0,.37.1.74.74,0,0,0,.37-.1l2.84-1.68a.7.7,0,0,0,.37-.63V293.87A.71.71,0,0,0,352.46,293.23ZM351.35,329l-.72.43-.64.38V295.92l1.36-.78Z"/><path class="cls-2" d="M352.46,328.74l-1.11-.64-1.36-.8-.37-.21a.75.75,0,0,0-.74,0,.7.7,0,0,0-.37.64v3.32a.72.72,0,0,0,.37.64.66.66,0,0,0,.37.1.74.74,0,0,0,.37-.1l2.84-1.68a.73.73,0,0,0,0-1.27Zm-2.47,1V329l.64.37Z"/><path class="cls-2" d="M400.11,193.25,235.25,98.06a4.45,4.45,0,0,0-4.41,0L99.92,172.12A4.45,4.45,0,0,0,97.67,176V302.9a4.43,4.43,0,0,0,2.22,3.84l18.31,10.59a4.49,4.49,0,0,0,4.45,0,4.45,4.45,0,0,0,2.22-3.85v-2.89l119.33,68.9v8a4.39,4.39,0,0,0,2.22,3.83l18.31,10.6a4.71,4.71,0,0,0,2.23.59,4.58,4.58,0,0,0,2.22-.59l18.32-10.6a4.39,4.39,0,0,0,2.22-3.83v-8l85.41-48v3a4.45,4.45,0,0,0,2.22,3.85,4.58,4.58,0,0,0,2.22.59,4.71,4.71,0,0,0,2.23-.59l18.31-10.59a4.42,4.42,0,0,0,2.22-3.84V197.08A4.39,4.39,0,0,0,400.11,193.25ZM397.88,324l-18.31,10.58V324l-94.29,52.93v10.58L267,398.08l-.75-.42-17.57-10.15V376.93l-14.32-8.27L120.41,302.9l0,10.58L102.12,302.9V176l10-5.66L233,101.92l164.11,94.73.74.43Z"/><path class="cls-3" d="M120.62,263.82a2.36,2.36,0,0,1-1.76-1.24c-.27-.48-.24-.77-.21-.82l.07,0h.08a2.46,2.46,0,0,1,1.68,1.26C120.75,263.45,120.74,263.75,120.62,263.82Z"/><path class="cls-3" d="M131.12,277.51a1.09,1.09,0,0,1-.93.58c-1.56.18-3.87-1.36-5-3.36a3.31,3.31,0,0,1-.5-2.8,1,1,0,0,1,.93-.58c1.57-.18,3.87,1.36,5,3.36A3.24,3.24,0,0,1,131.12,277.51Z"/><path class="cls-3" d="M138.35,275.72a.6.6,0,0,1-.52.31c-.92.13-2.58-.83-3.45-2.34a2.15,2.15,0,0,1-.35-1.84c.05-.12.17-.27.51-.31h.15a4.56,4.56,0,0,1,3.31,2.34A2.15,2.15,0,0,1,138.35,275.72Z"/><path class="cls-3" d="M130.87,264.5a.57.57,0,0,1-.52.31c-.95.12-2.58-.83-3.45-2.34a2.18,2.18,0,0,1-.36-1.83.57.57,0,0,1,.52-.31h.15a4.56,4.56,0,0,1,3.3,2.34A2.11,2.11,0,0,1,130.87,264.5Z"/><path class="cls-3" d="M141.76,255a1,1,0,0,1-.68-.15,2.43,2.43,0,0,1-1.37-1.9.28.28,0,0,1,.14,0,1.15,1.15,0,0,1,.56.17A2.36,2.36,0,0,1,141.76,255Z"/><path class="cls-3" d="M153.52,261.42a.7.7,0,0,1-.28.65c-.27.17-.83.2-1.64-.22a4.6,4.6,0,0,1-2.58-3.42.72.72,0,0,1,.26-.64,1,1,0,0,1,.49-.12,2.65,2.65,0,0,1,1.16.33A4.63,4.63,0,0,1,153.52,261.42Z"/><path class="cls-3" d="M145.61,267.32a1.2,1.2,0,0,1-.5,1.12,2.81,2.81,0,0,1-2.55-.28c-2-1-3.72-3.29-3.72-5a1.23,1.23,0,0,1,.52-1.12,1.54,1.54,0,0,1,.81-.19,4.18,4.18,0,0,1,1.74.47C143.92,263.35,145.61,265.63,145.61,267.32Z"/><path class="cls-3" d="M154.65,271.84a.67.67,0,0,1-.27.63,1.79,1.79,0,0,1-1.64-.2,4.64,4.64,0,0,1-2.6-3.43.71.71,0,0,1,.28-.65,1,1,0,0,1,.49-.1,2.72,2.72,0,0,1,1.16.32A4.66,4.66,0,0,1,154.65,271.84Z"/><polygon class="cls-3" points="262.93 349.45 262.93 358.62 253.22 353.02 253.22 343.85 262.93 349.45"/><polygon class="cls-3" points="251.74 332.12 251.74 341.29 242.05 335.69 242.05 326.53 251.74 332.12"/><polygon class="cls-3" points="251.74 343 251.74 352.16 242.05 346.56 242.05 337.4 251.74 343"/><polygon class="cls-3" points="262.93 338.58 262.93 347.75 253.22 342.15 253.22 332.98 262.93 338.58"/><polygon class="cls-3" points="262.93 327.7 262.93 336.87 253.22 331.27 253.22 322.1 262.93 327.7"/><polygon class="cls-3" points="251.74 321.24 251.74 330.41 242.05 324.81 242.05 315.64 251.74 321.24"/><polygon class="cls-3" points="251.74 310.37 251.74 319.54 242.05 313.92 242.05 304.77 251.74 310.37"/><polygon class="cls-3" points="262.93 316.83 262.93 325.98 253.22 320.38 253.22 311.23 262.93 316.83"/><polygon class="cls-3" points="262.93 305.95 262.93 315.11 253.22 309.51 253.22 300.35 262.93 305.95"/><polygon class="cls-3" points="251.74 299.5 251.74 308.67 242.05 303.05 242.05 293.89 251.74 299.5"/><polygon class="cls-3" points="251.74 288.62 251.74 297.78 242.05 292.18 242.05 283.02 251.74 288.62"/><polygon class="cls-3" points="262.93 295.06 262.93 304.24 253.22 298.64 253.22 289.47 262.93 295.06"/><polygon class="cls-3" points="263.67 277.23 263.67 287.75 242.79 275.69 242.79 265.19 263.67 277.23"/><polygon class="cls-3" points="262.93 367.05 262.93 377.24 242.05 365.18 242.05 355 262.93 367.05"/><polygon class="cls-4" points="229.01 335.27 224.84 337.79 219.96 334.59 221.55 333.63 223.79 332.28 229.01 335.27"/><path class="cls-4" d="M225.56,274.41v-2.63a.72.72,0,0,0-.37-.64.77.77,0,0,0-.75,0l-3.63,2.18L218.05,275a.74.74,0,0,0-.35.63v70.83a.76.76,0,0,0,.37.65.84.84,0,0,0,.37.09.75.75,0,0,0,.38-.1l5.44-3.27h0l0,0,.92-.55a.73.73,0,0,0,.35-.63v-3.53l4.18-2.5v6.14l-8.93,5.37-1.54.93-4.4,2.64v-77l14.87-8.93v6.15Z"/><path class="cls-4" d="M267.71,271.6V387.51a.53.53,0,0,1,0,.12v9.17l16.84-9.72V376.93a.75.75,0,0,1,.38-.65l94.28-52.93a.73.73,0,0,1,.74,0,.72.72,0,0,1,.38.64v9.29l16.82-9.72V198.36Zm85.12,57.78a.7.7,0,0,1-.37.63l-2.84,1.68a.74.74,0,0,1-.37.1.66.66,0,0,1-.37-.1.72.72,0,0,1-.37-.64V295.48a.72.72,0,0,1,.37-.64l2.84-1.61a.75.75,0,0,1,.74,0,.71.71,0,0,1,.37.64Zm9.16-5.26a.74.74,0,0,1-.36.65l-2.85,1.66a.72.72,0,0,1-.38.1.74.74,0,0,1-.74-.74V290.24a.79.79,0,0,1,.37-.66l2.86-1.61a.75.75,0,0,1,.74,0,.73.73,0,0,1,.36.64Zm9.16-5.38a.66.66,0,0,1,0,.25.74.74,0,0,1-.16.27.88.88,0,0,1-.15.12l-2.86,1.67a.73.73,0,0,1-.74,0,.73.73,0,0,1-.37-.64V284.84a.68.68,0,0,1,.37-.63l2.86-1.63a.78.78,0,0,1,.74,0,.75.75,0,0,1,.36.64Zm9.17-5.26a.75.75,0,0,1-.38.64l-2.84,1.67a.75.75,0,0,1-.38.1.77.77,0,0,1-.38-.1.75.75,0,0,1-.37-.64V279.58a.72.72,0,0,1,.39-.63l2.84-1.62a.75.75,0,0,1,1.12.64Zm9.15-5.26a.72.72,0,0,1-.37.65l-2.84,1.66a.7.7,0,0,1-.39.11.66.66,0,0,1-.37-.11.74.74,0,0,1-.37-.64V274.34a.74.74,0,0,1,.39-.65l2.84-1.62a.75.75,0,0,1,.74,0,.74.74,0,0,1,.37.64Z"/><path class="cls-4" d="M396.39,197.08,267,270.33h0l-26-15,8-4.63a.76.76,0,0,0,.38-.66.72.72,0,0,0-.38-.63L112.86,170.76l120.17-68Z"/><path class="cls-4" d="M247.16,250l-7.64,4.43-4.09-2.37a.44.44,0,0,0-.19-.07h0L103.6,176l7.76-4.4Z"/></svg>