<svg id="Layer_1" data-name="Layer 1" xmlns="http://www.w3.org/2000/svg" viewBox="0 0 500 500"><defs><style>.cls-1{fill:none;stroke:#000;stroke-linecap:round;stroke-linejoin:round;}</style></defs><path d="M269.78,423.52a.92.92,0,0,1-.43-.11.86.86,0,0,1-.43-.75v-148a.86.86,0,0,1,.44-.75L422,187.56a.86.86,0,0,1,1.28.75v148a.86.86,0,0,1-.43.75l-21.35,12.33a.9.9,0,0,1-.87,0,.87.87,0,0,1-.43-.75V337.75L292,398.5v11.83a.85.85,0,0,1-.44.74l-21.36,12.34A.92.92,0,0,1,269.78,423.52Zm.87-148.33v146l19.64-11.33V398a.86.86,0,0,1,.44-.75l109.94-61.71a.85.85,0,0,1,.86,0,.88.88,0,0,1,.42.75v10.84l19.63-11.34v-146Z"/><path class="cls-1" d="M237.75,256.19l-5.17-3-155-89.51v148L98.93,324l0-12.33L248.42,398v12.33l21.35,12.34v-148ZM227.25,276l-6.6,4V275.4L216.38,278l-3.18,1.92V348.5l.16.1,3-1.83,3-1.83,7.83,4.47v9.19l-10.87,6.53-1.72,1-6.48,3.88v0l-7.81-4.47V273.83l16-9.64,3-1.83,7.83,4.47Z"/><path d="M269.78,275.55a.87.87,0,0,1-.44-.11l-192.2-111a.86.86,0,0,1,0-1.49L229.79,76.59a.88.88,0,0,1,.86,0l192.21,111a.83.83,0,0,1,.43.75.86.86,0,0,1-.43.75L270.2,275.44A.8.8,0,0,1,269.78,275.55ZM79.31,163.72l190.47,110,150.91-85.39-190.48-110Z"/><path d="M200.37,358.79a.82.82,0,0,1-.43-.12L87.82,293.94a.89.89,0,0,1-.43-.75v-111a.89.89,0,0,1,.43-.75.9.9,0,0,1,.87,0l128.12,74a.87.87,0,0,1,.44.75v8a.87.87,0,0,1-.42.74l-15.59,9.38v83.62a.85.85,0,0,1-.44.74A.82.82,0,0,1,200.37,358.79ZM89.12,292.69l110.39,63.74v-82.6a.85.85,0,0,1,.42-.74l15.59-9.39v-7l-126.4-73Z"/><path d="M220.65,354.25a.92.92,0,0,1-.48-.14l-7.28-4.79a.84.84,0,0,1-.39-.73.87.87,0,0,1,.41-.73L219,344.2a.85.85,0,0,1,.87,0l7.83,4.47a.87.87,0,0,1,.43.74.86.86,0,0,1-.42.75l-6.6,4A.78.78,0,0,1,220.65,354.25ZM215,348.63l5.69,3.73,4.87-2.93-6.11-3.49Z"/><path d="M213.36,349.46a.82.82,0,0,1-.48-.14l-.16-.11a.86.86,0,0,1-.38-.71V279.87a.87.87,0,0,1,.42-.74l3.18-1.91a.86.86,0,0,1,1.31.73v68.82a.87.87,0,0,1-.42.74l-3,1.83A.89.89,0,0,1,213.36,349.46Zm.71-69.1v66.8l1.45-.88v-66.8Z"/><path d="M216.38,368a.92.92,0,0,1-.43-.11l-1.73-1a.86.86,0,0,1,0-1.48l1.73-1a.87.87,0,0,1,.87,0,.86.86,0,0,1,.44.75v2a.87.87,0,0,1-.44.75A.92.92,0,0,1,216.38,368Z"/><path d="M237.75,257.06a.82.82,0,0,1-.43-.12L77.14,164.46a.84.84,0,0,1-.43-.74.85.85,0,0,1,.43-.75l10.68-6.16a.83.83,0,0,1,.86,0l160.18,92.47a.87.87,0,0,1,0,1.5l-10.68,6.16A.82.82,0,0,1,237.75,257.06ZM79.3,163.72,237.75,255.2,246.7,250,88.25,158.55Z"/><path d="M269.79,411.19a.87.87,0,0,1-.87-.86V275.19l-35.46-20.53V388.31l15.4,8.94a.86.86,0,0,1,.32,1.18.87.87,0,0,1-1.18.31l-15.84-9.19a.85.85,0,0,1-.43-.75V253.16a.86.86,0,0,1,.43-.75.88.88,0,0,1,.86,0l37.2,21.53a.86.86,0,0,1,.43.75V410.33A.87.87,0,0,1,269.79,411.19Z"/><path d="M208.18,370.92a.92.92,0,0,1-.43-.11.89.89,0,0,1-.44-.76V278.3a.87.87,0,0,1,.42-.74l19.07-11.47a.87.87,0,0,1,.87,0,.86.86,0,0,1,.44.75V276a.87.87,0,0,1-.42.74l-6.6,4a.86.86,0,0,1-1.3-.74v-3.07l-5.72,3.44v80.57l5.72-3.44v-4.11a.86.86,0,0,1,.41-.74l6.6-4a.87.87,0,0,1,.87,0,.86.86,0,0,1,.44.75v9.19a.85.85,0,0,1-.42.74l-19.07,11.45A.78.78,0,0,1,208.18,370.92Zm.86-92.13v89.74l17.34-10.42v-7.17l-4.87,2.93V358a.87.87,0,0,1-.42.74l-7.44,4.47a.83.83,0,0,1-.87,0,.86.86,0,0,1-.44-.75V279.87a.87.87,0,0,1,.42-.74l7.45-4.47a.81.81,0,0,1,.86,0,.84.84,0,0,1,.44.75v3.06l4.87-2.93v-7.17Z"/><path d="M208.18,370.93a.81.81,0,0,1-.43-.11l-7.81-4.47a.86.86,0,0,1-.43-.75V273.83a.86.86,0,0,1,1.29-.75l7.81,4.47a.85.85,0,0,1,.43.75v91.77a.86.86,0,0,1-.43.75A.81.81,0,0,1,208.18,370.93Zm-6.94-5.83,6.07,3.48V278.8l-6.07-3.48Z"/><path d="M208.18,279.16a.92.92,0,0,1-.43-.11l-7.81-4.47a.88.88,0,0,1-.43-.74.82.82,0,0,1,.42-.75l19-11.47a.85.85,0,0,1,.87,0l7.83,4.47a.86.86,0,0,1,.43.74.88.88,0,0,1-.42.75L208.62,279A.86.86,0,0,1,208.18,279.16Zm-6.1-5.35,6.09,3.49,17.37-10.45-6.11-3.49Z"/><path d="M213.2,363.32a.81.81,0,0,1-.42-.12.86.86,0,0,1-.44-.75V354.8a.86.86,0,0,1,.44-.75.87.87,0,0,1,.87,0L220,357.9a.86.86,0,0,1,0,1.47l-6.36,3.82A.81.81,0,0,1,213.2,363.32Zm.87-7v4.6l3.82-2.29Z"/><path d="M219.56,359.5a.84.84,0,0,1-.45-.13l-6.35-3.83a.87.87,0,0,1-.42-.74v-6.3a.88.88,0,0,1,.46-.77.86.86,0,0,1,.89,0l7.43,4.88a.85.85,0,0,1,.39.72V358a.87.87,0,0,1-.42.74l-1.08.65A.81.81,0,0,1,219.56,359.5Zm-5.49-5.19,5.49,3.32.23-.14v-3.64l-5.72-3.75Z"/><path d="M136.63,265.94a4.84,4.84,0,0,1-2.13-.56c-2.23-1.12-4-3.55-4-5.55a2.47,2.47,0,0,1,1.14-2.21,3.67,3.67,0,0,1,3.6.17h0c2.22,1.11,4,3.54,4,5.54a2.52,2.52,0,0,1-1.14,2.22A2.76,2.76,0,0,1,136.63,265.94Zm-3.48-7a1.08,1.08,0,0,0-.57.14.81.81,0,0,0-.32.74c0,1.35,1.38,3.18,3,4a2.14,2.14,0,0,0,1.92.25.83.83,0,0,0,.32-.75c0-1.35-1.38-3.18-3-4h0A3.2,3.2,0,0,0,133.15,259Z"/><path d="M138,278.07a4.71,4.71,0,0,1-2.13-.56c-2.23-1.11-4-3.54-4-5.54a2.5,2.5,0,0,1,1.14-2.22,3.72,3.72,0,0,1,3.6.17c2.23,1.11,4,3.55,4,5.54a2.49,2.49,0,0,1-1.14,2.22A2.76,2.76,0,0,1,138,278.07Zm-3.48-7a1.09,1.09,0,0,0-.57.13.83.83,0,0,0-.32.75c0,1.35,1.38,3.18,3,4a2.13,2.13,0,0,0,1.92.24.81.81,0,0,0,.32-.75c0-1.35-1.38-3.18-3-4h0A3.06,3.06,0,0,0,134.47,271.09Z"/><path d="M126.76,273.47a6.37,6.37,0,0,1-2.8-.74c-3-1.48-5.28-4.71-5.28-7.35a3.12,3.12,0,0,1,1.41-2.78c1.18-.73,2.87-.63,4.65.25h0c3,1.48,5.29,4.71,5.29,7.34a3.15,3.15,0,0,1-1.42,2.79A3.55,3.55,0,0,1,126.76,273.47ZM122,263.84a1.83,1.83,0,0,0-1,.23,1.42,1.42,0,0,0-.6,1.31c0,2,2,4.63,4.34,5.8a3.24,3.24,0,0,0,3,.33,1.43,1.43,0,0,0,.6-1.32c0-2-2-4.62-4.34-5.79h0A4.62,4.62,0,0,0,122,263.84Z"/><path d="M123.65,257.62a3.16,3.16,0,0,1-1.42-.37,4.52,4.52,0,0,1-2.56-3.61,1.84,1.84,0,0,1,.85-1.62,2.51,2.51,0,0,1,2.48.09h0a4.52,4.52,0,0,1,2.56,3.61,1.84,1.84,0,0,1-.85,1.62A2,2,0,0,1,123.65,257.62Zm-2.07-4.16a.32.32,0,0,0-.16,0,2.81,2.81,0,0,0,1.58,2.22c.51.25.78.18.81.16a2.81,2.81,0,0,0-1.58-2.22A1.53,1.53,0,0,0,121.58,253.46Z"/><path d="M110.33,269c-1.85,0-4.14-1.52-5.35-3.6a4.08,4.08,0,0,1-.47-3.79,2.41,2.41,0,0,1,2-1.3h0c1.91-.22,4.42,1.36,5.71,3.58a4,4,0,0,1,.47,3.79,2.41,2.41,0,0,1-2,1.3Zm-3.49-7h-.18a.64.64,0,0,0-.6.36,2.44,2.44,0,0,0,.42,2.14c1,1.76,2.91,2.86,4,2.73a.66.66,0,0,0,.6-.36,2.44,2.44,0,0,0-.42-2.14A5.35,5.35,0,0,0,106.84,262Z"/><path d="M119.06,282.09c-1.86,0-4.14-1.51-5.35-3.6a4,4,0,0,1-.47-3.79,2.4,2.4,0,0,1,2-1.3c2-.22,4.42,1.36,5.71,3.58a4,4,0,0,1,.46,3.79,2.38,2.38,0,0,1-2,1.3A2.17,2.17,0,0,1,119.06,282.09Zm-3.5-7h-.17a.69.69,0,0,0-.61.36,2.51,2.51,0,0,0,.42,2.14c1,1.77,3,2.88,4,2.73a.65.65,0,0,0,.6-.36,2.47,2.47,0,0,0-.42-2.14A5.35,5.35,0,0,0,115.56,275.11Z"/><path d="M110,284.5c-2.45,0-5.48-2-7.09-4.8-1.06-1.83-1.29-3.62-.64-4.91a3,3,0,0,1,2.44-1.62h0c2.54-.28,5.84,1.82,7.55,4.78,1.06,1.82,1.29,3.61.64,4.91a3,3,0,0,1-2.44,1.61A3.55,3.55,0,0,1,110,284.5Zm-5.1-9.61a1.28,1.28,0,0,0-1.09.67,3.82,3.82,0,0,0,.59,3.27c1.35,2.33,4.06,4.13,5.87,3.92a1.26,1.26,0,0,0,1.09-.67,3.79,3.79,0,0,0-.59-3.27c-1.35-2.33-4-4.12-5.87-3.92Z"/><path d="M99.09,267.85a4.49,4.49,0,0,1-3.49-2.32,2.74,2.74,0,0,1-.28-2.59,1.77,1.77,0,0,1,1.43-1,4.33,4.33,0,0,1,3.74,2.3,2.72,2.72,0,0,1,.29,2.59,1.77,1.77,0,0,1-1.43,1ZM97,263.69H97l-.09,0c0,.06-.07.41.24,1a2.76,2.76,0,0,0,2.05,1.46c.13-.08.16-.43-.15-1A2.85,2.85,0,0,0,97,263.69Z"/><path d="M265.93,400.72a.82.82,0,0,1-.43-.12l-26.06-15a.87.87,0,0,1-.44-.75V370.93a.87.87,0,0,1,1.3-.75l26.06,15.05a.86.86,0,0,1,.44.75v13.88a.86.86,0,0,1-.44.74A.82.82,0,0,1,265.93,400.72Zm-25.2-16.41,24.34,14.05V386.48l-24.34-14.05Z"/><path d="M266.8,296.37a.87.87,0,0,1-.44-.11L240.3,281.21a.87.87,0,0,1-.43-.75V266.21a.87.87,0,0,1,.43-.75.85.85,0,0,1,.87,0l26.06,15.05a.87.87,0,0,1,.43.75v14.25a.89.89,0,0,1-.43.75A.86.86,0,0,1,266.8,296.37ZM241.6,280,265.93,294V281.75L241.6,267.7Z"/><path d="M252.9,308.08a.82.82,0,0,1-.43-.12l-13-7.52a.87.87,0,0,1-.44-.75V287a.86.86,0,0,1,.44-.75.83.83,0,0,1,.86,0l13,7.52a.86.86,0,0,1,.43.75v12.68a.85.85,0,0,1-.43.75A.82.82,0,0,1,252.9,308.08Zm-12.17-8.89L252,305.72V295l-11.31-6.53Z"/><path d="M265.93,315.6a.82.82,0,0,1-.43-.12l-13-7.52a.85.85,0,0,1-.43-.75V294.53a.86.86,0,0,1,.43-.75.88.88,0,0,1,.86,0l13,7.53a.86.86,0,0,1,.44.75v12.68a.85.85,0,0,1-.44.74A.82.82,0,0,1,265.93,315.6Zm-12.17-8.89,11.31,6.53V302.55L253.76,296Z"/><path d="M252.9,320.76a.82.82,0,0,1-.43-.12l-13-7.52a.87.87,0,0,1-.44-.75V299.69a.86.86,0,0,1,.44-.75.88.88,0,0,1,.86,0l13,7.52a.86.86,0,0,1,.43.75v12.68a.85.85,0,0,1-.43.75A.82.82,0,0,1,252.9,320.76Zm-12.17-8.89L252,318.4V307.71l-11.31-6.53Z"/><path d="M265.93,328.28a.92.92,0,0,1-.43-.11l-13-7.53a.85.85,0,0,1-.43-.75V307.21a.86.86,0,0,1,.43-.75.88.88,0,0,1,.86,0l13,7.53a.86.86,0,0,1,.44.75v12.68a.87.87,0,0,1-.44.75A.92.92,0,0,1,265.93,328.28Zm-12.17-8.89,11.31,6.53V315.24l-11.31-6.53Z"/><path d="M252.9,333.44a.82.82,0,0,1-.43-.12l-13-7.52a.87.87,0,0,1-.44-.75V312.37a.87.87,0,0,1,1.3-.75l13,7.53a.84.84,0,0,1,.43.74v12.68a.85.85,0,0,1-.43.75A.82.82,0,0,1,252.9,333.44Zm-12.17-8.89L252,331.08V320.39l-11.31-6.52Z"/><path d="M265.93,341a.92.92,0,0,1-.43-.11l-13-7.53a.85.85,0,0,1-.43-.75V319.89a.86.86,0,0,1,1.29-.74l13,7.52a.86.86,0,0,1,.44.75V340.1a.87.87,0,0,1-.44.75A.92.92,0,0,1,265.93,341Zm-12.17-8.88,11.31,6.52V327.92l-11.31-6.53Z"/><path d="M252.9,346.12a.82.82,0,0,1-.43-.12l-13-7.52a.87.87,0,0,1-.44-.75V325.05a.87.87,0,0,1,1.3-.75l13,7.53a.85.85,0,0,1,.43.74v12.69a.85.85,0,0,1-.43.74A.82.82,0,0,1,252.9,346.12Zm-12.17-8.89L252,343.76V333.07l-11.31-6.52Z"/><path d="M265.93,353.64a.81.81,0,0,1-.43-.11l-13-7.53a.85.85,0,0,1-.43-.74V332.57a.85.85,0,0,1,.43-.74.83.83,0,0,1,.86,0l13,7.52a.87.87,0,0,1,.44.75v12.68a.87.87,0,0,1-.44.75A.81.81,0,0,1,265.93,353.64Zm-12.17-8.88,11.31,6.52V340.6l-11.31-6.53Z"/><path d="M252.9,358.8a.82.82,0,0,1-.43-.12l-13-7.52a.86.86,0,0,1-.44-.75V337.73a.87.87,0,0,1,1.3-.75l13,7.53a.85.85,0,0,1,.43.75v12.68a.84.84,0,0,1-.43.74A.82.82,0,0,1,252.9,358.8Zm-12.17-8.89L252,356.44V345.76l-11.31-6.53Z"/><path d="M265.93,366.32a.81.81,0,0,1-.43-.11l-13-7.53a.84.84,0,0,1-.43-.74V345.26a.85.85,0,0,1,.43-.75.83.83,0,0,1,.86,0l13,7.52a.87.87,0,0,1,.44.75v12.68a.87.87,0,0,1-.44.75A.81.81,0,0,1,265.93,366.32Zm-12.17-8.88L265.07,364V353.28l-11.31-6.53Z"/><path d="M252.9,371.48a.92.92,0,0,1-.43-.11l-13-7.53a.86.86,0,0,1-.44-.75V350.41a.85.85,0,0,1,.44-.74.83.83,0,0,1,.86,0l13,7.52a.85.85,0,0,1,.43.75v12.68a.86.86,0,0,1-.43.75A.92.92,0,0,1,252.9,371.48Zm-12.17-8.89L252,369.12V358.44l-11.31-6.53Z"/><path d="M265.93,379a.82.82,0,0,1-.43-.12l-13-7.52a.86.86,0,0,1-.43-.75V357.94a.85.85,0,0,1,.43-.75.83.83,0,0,1,.86,0l13,7.52a.87.87,0,0,1,.44.75v12.68a.86.86,0,0,1-.44.75A.82.82,0,0,1,265.93,379Zm-12.17-8.89,11.31,6.53V366l-11.31-6.53Z"/><path d="M408.43,320.7a.92.92,0,0,1-.43-.11.87.87,0,0,1-.44-.75V278.38a.86.86,0,0,1,.44-.75l3.33-1.89a.88.88,0,0,1,.86,0,.86.86,0,0,1,.43.75v41.4a.86.86,0,0,1-.43.75l-3.33,1.94A.82.82,0,0,1,408.43,320.7Zm.86-41.82v39.45l1.6-.93V278Zm2.47,39h0Z"/><path d="M408.43,320.7a.92.92,0,0,1-.43-.11.87.87,0,0,1-.44-.75V316a.87.87,0,0,1,1.3-.75l3.33,1.93a.86.86,0,0,1,0,1.49l-3.33,1.94A.82.82,0,0,1,408.43,320.7Zm.86-3.23v.86l.75-.43Z"/><path d="M397.75,326.83a.87.87,0,0,1-.86-.86V284.5a.87.87,0,0,1,.44-.75l3.32-1.88a.85.85,0,0,1,.86,0,.86.86,0,0,1,.43.75V324a.85.85,0,0,1-.42.74l-3.33,1.95A.88.88,0,0,1,397.75,326.83Zm.87-41.82v39.45l1.6-.94V284.1Zm2.46,39h0Z"/><path d="M397.75,326.83a.87.87,0,0,1-.86-.86V322.1a.85.85,0,0,1,.43-.75.88.88,0,0,1,.86,0l3.33,1.92a.87.87,0,0,1,0,1.49l-3.33,1.95A.88.88,0,0,1,397.75,326.83Zm.87-3.24v.87l.74-.44Z"/><path d="M387.07,333a.82.82,0,0,1-.43-.12.85.85,0,0,1-.43-.75V290.63a.85.85,0,0,1,.43-.75L390,288a.87.87,0,0,1,1.29.75v41.41a.85.85,0,0,1-.43.74l-3.32,1.95A.88.88,0,0,1,387.07,333Zm.86-41.83v39.46l1.6-.94V290.23Zm2.47,39h0Z"/><path d="M387.07,333a.82.82,0,0,1-.43-.12.85.85,0,0,1-.43-.75v-3.86a.86.86,0,0,1,1.29-.75l3.33,1.92a.86.86,0,0,1,0,1.49l-3.32,1.95A.88.88,0,0,1,387.07,333Zm.86-3.24v.87l.75-.44Z"/><path d="M376.4,339.24a.82.82,0,0,1-.43-.12.86.86,0,0,1-.44-.75V296.91a.87.87,0,0,1,.44-.75l3.33-1.89a.85.85,0,0,1,.86,0,.87.87,0,0,1,.43.74v41.41a.87.87,0,0,1-.43.74l-3.33,1.95A.82.82,0,0,1,376.4,339.24Zm.86-41.83v39.46l1.6-.94V296.51Zm2.46,39h0Z"/><path d="M376.4,339.24a.82.82,0,0,1-.43-.12.86.86,0,0,1-.44-.75v-3.86a.87.87,0,0,1,.43-.75.85.85,0,0,1,.87,0l3.32,1.92a.88.88,0,0,1,.44.75.87.87,0,0,1-.43.74l-3.33,1.95A.82.82,0,0,1,376.4,339.24Zm.86-3.24v.87l.74-.44Z"/><path d="M365.72,345.37a.82.82,0,0,1-.43-.12.86.86,0,0,1-.44-.75V303a.86.86,0,0,1,.44-.75l3.33-1.89a.85.85,0,0,1,.86,0,.87.87,0,0,1,.43.74v41.4a.89.89,0,0,1-.43.75l-3.33,1.95A.82.82,0,0,1,365.72,345.37Zm.86-41.83V343l1.6-.94V302.64Zm2.46,39h0Z"/><path d="M365.72,345.37a.82.82,0,0,1-.43-.12.86.86,0,0,1-.44-.75v-3.87a.89.89,0,0,1,.43-.75.9.9,0,0,1,.87,0l3.32,1.93a.85.85,0,0,1,.44.74.89.89,0,0,1-.43.75l-3.33,1.95A.82.82,0,0,1,365.72,345.37Zm.86-3.24V343l.75-.44Z"/><path d="M230.22,77.34l192.21,111v148l-21.36,12.33V336.28L291.14,398v12.32l-21.36,12.34-21.36-12.34V398L98.92,311.68V324L77.57,311.68v-148L230.22,77.34m0-5.18a5.14,5.14,0,0,0-2.55.67L75,159.2a5.18,5.18,0,0,0-2.63,4.51v148A5.17,5.17,0,0,0,75,316.16L96.33,328.5a5.19,5.19,0,0,0,7.78-4.49v-3.35L243.24,401v9.33a5.17,5.17,0,0,0,2.59,4.49l21.36,12.34a5.21,5.21,0,0,0,5.18,0l21.36-12.34a5.17,5.17,0,0,0,2.59-4.49V401l99.57-55.9v3.48a5.19,5.19,0,0,0,7.78,4.49L425,340.76a5.17,5.17,0,0,0,2.59-4.48v-148a5.17,5.17,0,0,0-2.59-4.48l-192.21-111a5.21,5.21,0,0,0-2.59-.69Z"/></svg>