<svg id="Layer_1" data-name="Layer 1" xmlns="http://www.w3.org/2000/svg" viewBox="0 0 500 500"><defs><style>.cls-1{fill:none;stroke:#000;stroke-linecap:round;stroke-linejoin:round;}</style></defs><path d="M250,475.68a.77.77,0,0,1-.39-.11l-25.09-14.48a.79.79,0,0,1-.39-.68v-14l-98.75-57v13.13a.79.79,0,0,1-1.18.68L99.1,388.69a.78.78,0,0,1-.4-.68V315.6a.79.79,0,0,1,1.18-.68L250.38,401.8a.79.79,0,0,1,.39.68v72.41a.79.79,0,0,1-.78.79ZM225.69,460l23.51,13.57V402.94L100.28,317v70.59l23.51,13.58V388a.79.79,0,0,1,1.18-.68l100.32,57.93a.78.78,0,0,1,.4.68Z"/><path d="M250,403.27a.86.86,0,0,1-.41-.1L99.1,316.27a.78.78,0,0,1,0-1.36l46.54-26.86a.78.78,0,0,1,.74,0,.8.8,0,0,1,.43.62c.46,4.34,1.93,7.52,4.48,9.7a16.89,16.89,0,0,0,9.05,3.54.66.66,0,0,1,.34.06l.13.05a.8.8,0,0,1,.42.85,30.26,30.26,0,0,0,8.19,14.64.68.68,0,0,1,.18.26c.14.31.28.64.46,1l.09.16c.08.13.15.25.22.39a30.39,30.39,0,0,0,3.81,5c.53.62,1.08,1.21,1.68,1.79a7.84,7.84,0,0,0,.67.63c.26.25.48.45.72.65.49.43,1,.82,1.45,1.19l4.27,3.32c9.28,7.18,23.63,11.29,39.38,11.29,21.89,0,40.93-7.54,48.52-19.22a19.16,19.16,0,0,0,2.85-7.11l0-.19a.8.8,0,0,1,.57-.64,28.29,28.29,0,0,0,4.21-6.25l-2.78-1.6a.76.76,0,0,1-.38-.59.77.77,0,0,1,.25-.67,27.07,27.07,0,0,0,3.34-3.62.79.79,0,0,1,1-.2l1.76,1,68.93,39.79a.78.78,0,0,1,0,1.36L250.48,403.1A.75.75,0,0,1,250,403.27ZM101.06,315.59l148.91,86,98.74-57L281,305.46h0l-1.16-.68a28.78,28.78,0,0,1-2.34,2.55l2.5,1.43a.8.8,0,0,1,.32,1,30.2,30.2,0,0,1-5,7.57,20.75,20.75,0,0,1-3,7.45c-7.87,12.12-27.43,19.95-49.84,19.95-16.09,0-30.79-4.24-40.34-11.63l-4.26-3.31c-.51-.38-1-.8-1.51-1.24-.25-.2-.5-.43-.75-.66s-.48-.44-.74-.7c-.57-.55-1.14-1.16-1.75-1.86a32.94,32.94,0,0,1-4-5.32l-.2-.35-.11-.2c-.18-.34-.33-.66-.46-1a31.75,31.75,0,0,1-8.47-15.12,18.34,18.34,0,0,1-9.49-3.85A15,15,0,0,1,145.4,290Zm100.07,23.7a3.61,3.61,0,1,1,3.6-3.6A3.61,3.61,0,0,1,201.13,339.29Zm-2-3.6a2,2,0,1,0,2-2A2,2,0,0,0,199.09,335.69Zm9,2.83a2.83,2.83,0,1,1,2.83-2.83A2.83,2.83,0,0,1,208.08,338.52Zm-1.26-2.83a1.26,1.26,0,1,0,1.26-1.25A1.25,1.25,0,0,0,206.82,335.69Zm.49-4.93a2.84,2.84,0,1,1,2.83-2.85A2.86,2.86,0,0,1,207.31,330.76ZM206,327.91a1.27,1.27,0,1,0,2.53,0,1.25,1.25,0,0,0-1.25-1.25A1.28,1.28,0,0,0,206,327.91Zm-5.92,1.5a2,2,0,1,1,0-4,2,2,0,0,1,0,4Zm-.44-2c0,.48.86.5.86,0a.42.42,0,0,0-.42-.42A.43.43,0,0,0,199.67,327.39Zm61,.27a2.82,2.82,0,0,1-2.82-2.83,2.83,2.83,0,1,1,5.65,0,2.82,2.82,0,0,1-2.83,2.83Zm-1.25-2.83a1.25,1.25,0,0,0,1.25,1.26,1.26,1.26,0,0,0,1.26-1.26,1.22,1.22,0,0,0-.37-.89,1.26,1.26,0,0,0-1.78,0A1.25,1.25,0,0,0,259.38,324.83Zm6.21-3.2a2.85,2.85,0,0,1-2-.83,2.85,2.85,0,0,1,0-4,2.87,2.87,0,0,1,4,0h0a2.87,2.87,0,0,1,0,4A2.86,2.86,0,0,1,265.59,321.63Zm-1.26-2.83a1.28,1.28,0,0,0,.38.9,1.33,1.33,0,0,0,1.77,0,1.26,1.26,0,0,0-1.73-1.84h-.06A1.28,1.28,0,0,0,264.33,318.8ZM159.06,295a.74.74,0,0,1-.36-.09.79.79,0,0,1-.43-.64c-.06-.86-.11-1.73-.14-2.64a.78.78,0,0,1,.53-.77.79.79,0,0,1,.89.28c.12.16.24.33.36.48a1,1,0,0,1,.21.63,1.4,1.4,0,0,0,0,.28,8.94,8.94,0,0,0,.13,1.31.77.77,0,0,1-.4.82l-.38.22A.72.72,0,0,1,159.06,295Zm2.29-8.41h-.06a.8.8,0,0,1-.68-.53,17,17,0,0,1-.94-5.54.93.93,0,0,1,.39-.76l25.67-14.82a.76.76,0,0,1,.81,0c.41.25.83.49,1.26.73l.42.24c.29.16.61.32.92.47l.05,0,1,.51a.78.78,0,0,1,.45.78.8.8,0,0,1-.57.69c-12.29,3.44-21.42,8.73-26.4,15.29a20.15,20.15,0,0,0-1.62,2.48A.79.79,0,0,1,161.35,286.55Zm-.1-5.7a16.19,16.19,0,0,0,.36,3c.25-.37.52-.74.8-1.11a32.16,32.16,0,0,1,6.27-6.15Zm24.86-14.36-7.23,4.18a75.35,75.35,0,0,1,8.85-3.26l-.28-.15L187,267Z"/><path d="M200.11,329.41a2,2,0,1,1,0-4,2,2,0,0,1,0,4Zm0-2.44a.43.43,0,0,0-.44.42c0,.48.86.5.86,0A.42.42,0,0,0,200.11,327Z"/><path d="M201.13,339.29a3.61,3.61,0,1,1,3.6-3.6A3.61,3.61,0,0,1,201.13,339.29Zm0-5.64a2,2,0,1,0,2,2A2,2,0,0,0,201.13,333.65Z"/><path d="M207.31,330.76a2.84,2.84,0,1,1,2.83-2.85A2.86,2.86,0,0,1,207.31,330.76Zm0-4.1a1.27,1.27,0,1,0,0,2.53,1.26,1.26,0,0,0,1.25-1.28A1.25,1.25,0,0,0,207.31,326.66Z"/><path d="M208.08,338.52a2.83,2.83,0,1,1,2.83-2.83A2.83,2.83,0,0,1,208.08,338.52Zm0-4.08a1.26,1.26,0,1,0,1.26,1.25A1.25,1.25,0,0,0,208.08,334.44Z"/><path d="M260.63,327.66a2.82,2.82,0,0,1-2.82-2.83,2.84,2.84,0,0,1,.82-2,2.91,2.91,0,0,1,4,0,2.84,2.84,0,0,1,.82,2,2.82,2.82,0,0,1-2.83,2.83Zm0-4.09a1.25,1.25,0,0,0-1.25,1.26,1.25,1.25,0,0,0,1.25,1.26,1.26,1.26,0,0,0,1.26-1.26,1.22,1.22,0,0,0-.37-.89A1.24,1.24,0,0,0,260.63,323.57Z"/><path d="M265.59,321.63a2.85,2.85,0,0,1-2-.83,2.85,2.85,0,0,1,0-4,2.83,2.83,0,0,1,4.83,2,2.9,2.9,0,0,1-.81,2A2.86,2.86,0,0,1,265.59,321.63Zm0-4.1a1.26,1.26,0,0,0-.9.37,1.28,1.28,0,0,0,0,1.8,1.33,1.33,0,0,0,1.77,0,1.29,1.29,0,0,0,.36-.89,1.32,1.32,0,0,0-.36-.91A1.28,1.28,0,0,0,265.59,317.53Z"/><path d="M160.46,303.49a1.22,1.22,0,0,1-.42-.09.8.8,0,0,1-.45-.71.81.81,0,0,1,1.13-.73.84.84,0,0,1,.45.9A.74.74,0,0,1,160.46,303.49Z"/><path d="M243.72,376.4a.79.79,0,0,1-.39-.11L130.47,311.13a.79.79,0,0,1-.39-.68.77.77,0,0,1,.39-.68l19.91-11.5a.77.77,0,0,1,.9.08,17.17,17.17,0,0,0,9.19,3.56.78.78,0,0,1,.67.59,30.41,30.41,0,0,0,8.28,15,.68.68,0,0,1,.18.26c.14.31.28.64.46,1l.09.16c.08.13.15.25.22.39a30.39,30.39,0,0,0,3.81,5c.53.62,1.08,1.21,1.68,1.79a7.84,7.84,0,0,0,.67.63c.26.25.48.45.72.65.49.43,1,.82,1.45,1.19l4.27,3.32c9.28,7.18,23.63,11.29,39.38,11.29,21.89,0,40.93-7.54,48.52-19.22a19.16,19.16,0,0,0,2.85-7.11l0-.19a.8.8,0,0,1,.57-.64,28.72,28.72,0,0,0,4.53-6.9.74.74,0,0,1,.47-.41.77.77,0,0,1,.63.07l39.38,22.74a.78.78,0,0,1,0,1.36l-75.21,43.42A.83.83,0,0,1,243.72,376.4ZM132.43,310.45l111.29,64.26,73.65-42.52-37.48-21.64a30,30,0,0,1-4.66,6.8,20.75,20.75,0,0,1-3,7.45c-7.87,12.12-27.43,19.95-49.84,19.95-16.09,0-30.79-4.24-40.34-11.63l-4.26-3.31c-.51-.38-1-.8-1.51-1.24-.25-.2-.5-.43-.75-.66s-.48-.44-.74-.7c-.57-.55-1.14-1.16-1.75-1.86a32.94,32.94,0,0,1-4-5.32l-.2-.35-.11-.2c-.18-.34-.33-.66-.46-1a31.75,31.75,0,0,1-8.47-15.12,18.68,18.68,0,0,1-9.05-3.5Z"/><path d="M200.11,329.41a2,2,0,1,1,0-4,2,2,0,0,1,0,4Zm0-2.44a.43.43,0,0,0-.44.42c0,.48.86.5.86,0A.42.42,0,0,0,200.11,327Z"/><path d="M201.13,339.29a3.61,3.61,0,1,1,3.6-3.6A3.61,3.61,0,0,1,201.13,339.29Zm0-5.64a2,2,0,1,0,2,2A2,2,0,0,0,201.13,333.65Z"/><path d="M207.31,330.76a2.84,2.84,0,1,1,2.83-2.85A2.86,2.86,0,0,1,207.31,330.76Zm0-4.1a1.27,1.27,0,1,0,0,2.53,1.26,1.26,0,0,0,1.25-1.28A1.25,1.25,0,0,0,207.31,326.66Z"/><path d="M208.08,338.52a2.83,2.83,0,1,1,2.83-2.83A2.83,2.83,0,0,1,208.08,338.52Zm0-4.08a1.26,1.26,0,1,0,1.26,1.25A1.25,1.25,0,0,0,208.08,334.44Z"/><path d="M260.63,327.66a2.82,2.82,0,0,1-2.82-2.83,2.84,2.84,0,0,1,.82-2,2.91,2.91,0,0,1,4,0,2.84,2.84,0,0,1,.82,2,2.82,2.82,0,0,1-2.83,2.83Zm0-4.09a1.25,1.25,0,0,0-1.25,1.26,1.25,1.25,0,0,0,1.25,1.26,1.26,1.26,0,0,0,1.26-1.26,1.22,1.22,0,0,0-.37-.89A1.24,1.24,0,0,0,260.63,323.57Z"/><path d="M265.59,321.63a2.85,2.85,0,0,1-2-.83,2.85,2.85,0,0,1,0-4,2.83,2.83,0,0,1,4.83,2,2.9,2.9,0,0,1-.81,2A2.86,2.86,0,0,1,265.59,321.63Zm0-4.1a1.26,1.26,0,0,0-.9.37,1.28,1.28,0,0,0,0,1.8,1.33,1.33,0,0,0,1.77,0,1.29,1.29,0,0,0,.36-.89,1.32,1.32,0,0,0-.36-.91A1.28,1.28,0,0,0,265.59,317.53Z"/><path d="M160.46,303.49a1.22,1.22,0,0,1-.42-.09.8.8,0,0,1-.45-.71.81.81,0,0,1,1.13-.73.84.84,0,0,1,.45.9A.74.74,0,0,1,160.46,303.49Z"/><path d="M243.72,376.4a.79.79,0,0,1-.39-.11L130.47,311.13a.79.79,0,0,1-.39-.68.77.77,0,0,1,.39-.68l19.91-11.5a.77.77,0,0,1,.9.08,17.17,17.17,0,0,0,9.19,3.56.78.78,0,0,1,.67.59,30.41,30.41,0,0,0,8.28,15,.68.68,0,0,1,.18.26c.14.31.28.64.46,1l.09.16c.08.13.15.25.22.39a30.39,30.39,0,0,0,3.81,5c.53.62,1.08,1.21,1.68,1.79a7.84,7.84,0,0,0,.67.63c.26.25.48.45.72.65.49.43,1,.82,1.45,1.19l4.27,3.32c9.28,7.18,23.63,11.29,39.38,11.29,21.89,0,40.93-7.54,48.52-19.22a19.16,19.16,0,0,0,2.85-7.11l0-.19a.8.8,0,0,1,.57-.64,28.72,28.72,0,0,0,4.53-6.9.74.74,0,0,1,.47-.41.77.77,0,0,1,.63.07l39.38,22.74a.78.78,0,0,1,0,1.36l-75.21,43.42A.83.83,0,0,1,243.72,376.4ZM132.43,310.45l111.29,64.26,73.65-42.52-37.48-21.64a30,30,0,0,1-4.66,6.8,20.75,20.75,0,0,1-3,7.45c-7.87,12.12-27.43,19.95-49.84,19.95-16.09,0-30.79-4.24-40.34-11.63l-4.26-3.31c-.51-.38-1-.8-1.51-1.24-.25-.2-.5-.43-.75-.66s-.48-.44-.74-.7c-.57-.55-1.14-1.16-1.75-1.86a32.94,32.94,0,0,1-4-5.32l-.2-.35-.11-.2c-.18-.34-.33-.66-.46-1a31.75,31.75,0,0,1-8.47-15.12,18.68,18.68,0,0,1-9.05-3.5Z"/><path d="M243.71,385.17a.83.83,0,0,1-.4-.11L130.46,319.9a.78.78,0,0,1-.4-.68l0-8.76a.79.79,0,0,1,1.18-.68l112.86,65.16a.79.79,0,0,1,.39.68l0,8.76a.79.79,0,0,1-.78.79Zm-112.07-66.4L242.92,383l0-6.95L131.65,311.82Z"/><path d="M158.92,292.35a.79.79,0,0,1-.64-.33,34.48,34.48,0,0,1-4.37-8,20.63,20.63,0,0,1-1.52-7.07v-39.5a17.27,17.27,0,0,1,.33-3.34c1.52-7.41,7.38-11.45,15.67-10.81a.79.79,0,0,1,.73.78v0a.79.79,0,0,1-.29.6,18.93,18.93,0,0,0-2.37,2.37,1.37,1.37,0,0,1-.17.21c-.2.24-.44.54-.66.86s-.48.66-.69,1-.42.66-.62,1-.55,1-.8,1.52-.35.74-.5,1.1l-.06.11c-.17.41-.32.81-.45,1.22a20.43,20.43,0,0,0-.78,2.67c-.06.24-.1.47-.14.69-.07.37-.13.7-.16,1s-.07.54-.1.78c-.06.67-.09,1.2-.09,1.73v32.07c-.49,2.81-.86,5.47-1.12,8.07a81.52,81.52,0,0,0-.42,10.41.77.77,0,0,1-.53.76A.74.74,0,0,1,158.92,292.35Zm7.48-67.53c-6.44.12-10.91,3.62-12.14,9.61a16.46,16.46,0,0,0-.3,3V277a18.86,18.86,0,0,0,1.42,6.51A32.48,32.48,0,0,0,158.1,289c0-2.56.17-5.23.46-8s.64-5.34,1.12-8V241c0-.58,0-1.15.08-1.73,0,0,0-.15,0-.16,0-.27.06-.55.1-.82s.09-.68.16-1.05a7.85,7.85,0,0,1,.17-.82,21.81,21.81,0,0,1,.82-2.82c.14-.44.32-.9.52-1.38a.34.34,0,0,1,.06-.12c.16-.37.32-.74.51-1.11.25-.53.55-1.09.86-1.63.21-.36.42-.69.64-1s.48-.7.73-1.06.51-.68.8-1l.72.35-.6-.5C165.63,225.63,166,225.21,166.4,224.82Z"/><path d="M159.06,295a.74.74,0,0,1-.36-.09.79.79,0,0,1-.43-.64c-.06-.86-.11-1.73-.14-2.64a.78.78,0,0,1,.53-.77.79.79,0,0,1,.89.28c.12.16.24.33.36.48a1,1,0,0,1,.21.63,1.4,1.4,0,0,0,0,.28,8.94,8.94,0,0,0,.13,1.31.77.77,0,0,1-.4.82l-.38.22A.72.72,0,0,1,159.06,295Z"/><path d="M160.37,303.47h-.09a18.6,18.6,0,0,1-10-3.92c-2.87-2.47-4.51-6-5-10.73a45.46,45.46,0,0,1-.24-5.16v-50a17.11,17.11,0,0,1,1.31-6.53,17.84,17.84,0,0,1,18.41-10.55l23.73,1.67a.81.81,0,0,1,.72.65.79.79,0,0,1-.47.86,47,47,0,0,0-8.51,4.74,28.64,28.64,0,0,0-2.61,2,.84.84,0,0,1-.73.18l-5-1.28c-.36-.09-.71-.16-1.07-.22s-.47-.09-.71-.12l-.89-.13-.92-.09c-7.41-.57-12.64,3-14,9.56a16.46,16.46,0,0,0-.3,3V277a18.86,18.86,0,0,0,1.42,6.51,32.9,32.9,0,0,0,4.17,7.63.75.75,0,0,1,.15.43c0,.89.08,1.74.14,2.58a47.9,47.9,0,0,0,1.3,8.37.62.62,0,0,1,0,.19.79.79,0,0,1-.26.6A.81.81,0,0,1,160.37,303.47ZM162.8,218a16.15,16.15,0,0,0-15,9.68,15.4,15.4,0,0,0-1.2,5.93v50a44.28,44.28,0,0,0,.23,5c.46,4.35,1.93,7.53,4.48,9.71a16.34,16.34,0,0,0,8.06,3.4,51.76,51.76,0,0,1-1.08-7.52c-.05-.78-.1-1.58-.13-2.4a34.63,34.63,0,0,1-4.23-7.8,20.63,20.63,0,0,1-1.52-7.07v-39.5a17.27,17.27,0,0,1,.33-3.34c1.52-7.41,7.38-11.45,15.67-10.81l.94.09.95.13.77.13c.37.07.77.15,1.17.25l4.64,1.17c.73-.62,1.53-1.24,2.43-1.87a46.14,46.14,0,0,1,6-3.61l-20.73-1.47Q163.69,218,162.8,218Z"/><path d="M250,475.67a.77.77,0,0,1-.79-.78V402.48a.79.79,0,0,1,.39-.68l150.48-86.89a.79.79,0,0,1,1.18.68V388a.79.79,0,0,1-.39.68l-25.09,14.48a.73.73,0,0,1-.78,0,.79.79,0,0,1-.4-.68V389.36l-98.75,57v14a.79.79,0,0,1-.39.68l-25.08,14.48A.78.78,0,0,1,250,475.67Zm.79-72.73v70.59L274.28,460v-14a.79.79,0,0,1,.39-.68L375,387.32a.79.79,0,0,1,1.18.68v13.12l23.51-13.57V317Z"/><path d="M375.4,403.27a.79.79,0,0,1-.39-.11l-12.54-7.24a.78.78,0,0,1,0-1.36L375,387.32a.79.79,0,0,1,1.18.68v14.48a.81.81,0,0,1-.79.79Zm-11-8,10.18,5.88V389.36Z"/><path d="M124.57,403.27a.77.77,0,0,1-.78-.78V388a.79.79,0,0,1,1.18-.68l12.53,7.24a.78.78,0,0,1,0,1.36L125,403.17A.82.82,0,0,1,124.57,403.27Zm.79-13.91v11.76l10.18-5.88Z"/><path d="M350.28,345.36a.79.79,0,0,1-.78-.79l0-202.77a.79.79,0,0,1,.39-.68l50.2-29a.79.79,0,0,1,1.18.68l0,202.76a.78.78,0,0,1-.4.68l-50.2,29A.77.77,0,0,1,350.28,345.36Zm.82-203.11,0,201,48.63-28.07,0-200.95Z"/><path d="M222.61,351.32c-16.08,0-30.77-4.25-40.3-11.64L178,336.36c-6.75-5.2-10.27-11.72-9.92-18.34a.76.76,0,0,1,.82-.74.78.78,0,0,1,.74.82c-.31,6.1,3,12.14,9.32,17l4.29,3.31c9.26,7.19,23.6,11.31,39.34,11.31,21.9,0,40.95-7.55,48.54-19.24a17.06,17.06,0,0,0,2.64-13.41.79.79,0,0,1,1.53-.36,18.57,18.57,0,0,1-2.85,14.63C264.6,343.48,245,351.32,222.61,351.32Z"/><path d="M175.31,327.44a.77.77,0,0,1-.55-.22l-.48-.48-.39-.39A30,30,0,0,1,169,320a.77.77,0,0,1,.3-1.06.76.76,0,0,1,1.06.29,30.88,30.88,0,0,0,3.84,5.06c.39.46.79.9,1.22,1.34l.46.46a.79.79,0,0,1,0,1.11A.82.82,0,0,1,175.31,327.44Z"/><path d="M222.9,246.12c-4.9,0-9.38-1.29-12.29-3.56l-1.27-1a7.81,7.81,0,0,1-3-4.26,5.74,5.74,0,0,1-.16-1.36v-5.44a.78.78,0,0,1,.78-.78.79.79,0,0,1,.8.78c0,.17,0,.32.05.46s.05.25.09.38.1.32.13.42a4.73,4.73,0,0,0,.38.78.77.77,0,0,1,.07.16l.19.26a.27.27,0,0,1,.07.08c.1.14.21.27.33.41l.11.13,0,0,0,0a7.9,7.9,0,0,0,1,.95l1.28,1c.26.2.52.39.79.57s.54.34.84.5l.34.18.69.33q.54.24,1.11.45l1.18.38,1.21.3,1.18.23a26.3,26.3,0,0,0,4,.3h.58a4.89,4.89,0,0,1,.58,0l1.1-.07q.53,0,1-.12c.48,0,.84-.11,1.21-.17s.71-.14,1.06-.22l.28-.07.74-.19,1-.29c.42-.13.74-.25,1-.37l.86-.37.85-.42c.27-.16.59-.34.89-.54l.4-.26.18-.13.46-.36a.82.82,0,0,1,.92-.08l2.69,1.57a.78.78,0,0,1,.38.8,4.82,4.82,0,0,1-.28,1,7.32,7.32,0,0,1-.7,1.4C235.7,243.71,229.72,246.12,222.9,246.12Zm-15.15-11.77V236a4.19,4.19,0,0,0,.12,1,6.26,6.26,0,0,0,2.43,3.39l1.27,1c2.65,2.06,6.77,3.23,11.33,3.23,6.21,0,11.8-2.18,13.91-5.44a6,6,0,0,0,.55-1.1,1.72,1.72,0,0,0,.07-.21l-1.72-1-.14.1-.18.13-.46.31c-.32.21-.66.4-1,.6l-.92.45c-.31.15-.63.28-1,.41s-.69.27-1.05.38-.76.24-1.1.33l-.8.21-.29.07c-.4.09-.78.17-1.16.23s-.78.13-1.18.18-.81.1-1.18.13l-1.16.08a5.07,5.07,0,0,0-.59,0h-.64a26.6,26.6,0,0,1-4.16-.31c-.53-.09-1-.17-1.35-.26l-1.3-.32c-.46-.14-.88-.27-1.28-.41s-.83-.32-1.23-.5l-.78-.37.19-.79-.35.7-.2-.11c-.32-.17-.62-.35-.93-.55s-.61-.42-.89-.64l-1.28-1a10.15,10.15,0,0,1-1.23-1.12h0c0-.05-.09-.09-.13-.15h0l-.1-.13Z"/><path d="M189.91,219.17a.8.8,0,0,1-.72-.47.79.79,0,0,1,.4-1c.69-.31,1.39-.59,2.1-.86l1.42-.46a.78.78,0,1,1,.49,1.49c-1.24.41-2.35.83-3.38,1.27A.85.85,0,0,1,189.91,219.17Z"/><path d="M197.26,216.66a.79.79,0,0,1-.23-1.54l2.88-.86a.92.92,0,0,1,.49.07l.15.08a.79.79,0,0,1,.43.8.78.78,0,0,1-.61.67l-.41.1c-.84.2-1.66.41-2.48.65A.83.83,0,0,1,197.26,216.66Z"/><path d="M223.1,261.89c-9.62,0-18.4-2.54-24.1-7l-2.53-2c-5.16-4-7.14-9.18-5.43-14.2a.79.79,0,0,1,.74-.54h0a.8.8,0,0,1,.74.53,14.11,14.11,0,0,0,4.91,6.32l2.53,2c5.43,4.21,13.86,6.63,23.14,6.63,12.75,0,23.9-4.36,28.39-11.09a.75.75,0,0,1,.26-.24l1.88-1.12a.84.84,0,0,1,.74,0,.81.81,0,0,1,.44.59,11.5,11.5,0,0,1-1.89,8.15C248.21,257.19,236.51,261.89,223.1,261.89ZM192,241.45c-.37,3.67,1.49,7.26,5.39,10.28l2.53,2c5.43,4.21,13.86,6.63,23.14,6.63,12.89,0,24.07-4.42,28.5-11.26h0a10.08,10.08,0,0,0,1.77-5.86l-.67.4c-4.84,7.08-16.43,11.64-29.6,11.64-9.62,0-18.4-2.53-24.1-7l-2.53-2A17.16,17.16,0,0,1,192,241.45Z"/><path d="M253,269.16a.79.79,0,0,1-.31-1.51c8-3.34,14.1-8,17.64-13.44,4.52-7,4.09-14.45-1.19-21.1a.76.76,0,0,1-.16-.63.78.78,0,0,1,.38-.54l.7-.4a.78.78,0,0,1,1,.18c3.77,4.7,5.33,10,4.49,15.21h0a20.2,20.2,0,0,1-3.11,7.81c-.19.3-.4.59-.61.89l-.11.15a2.92,2.92,0,0,1-.21.28,23.75,23.75,0,0,1-1.65,2l-.2.23c-.24.27-.48.54-.73.79l-.95.95c-.29.27-.59.54-.89.78s-.62.56-1,.84-.68.56-1,.83-.82.62-1.26.92-.88.63-1.34.93l-1.13.71c-.42.26-.83.52-1.27.76l-1.2.66a55.42,55.42,0,0,1-5.6,2.62A.71.71,0,0,1,253,269.16Z"/><path d="M243.71,385.17a.83.83,0,0,1-.4-.11.79.79,0,0,1-.39-.68l0-8.76a.79.79,0,0,1,.39-.68l75.23-43.43a.78.78,0,0,1,.78,0,.79.79,0,0,1,.39.68V341a.77.77,0,0,1-.4.68L244.1,385.06A.79.79,0,0,1,243.71,385.17Zm.8-9.1V383l73.65-42.52v-6.94ZM318.93,341h0Z"/><path d="M222.9,246.12c-4.9,0-9.38-1.29-12.29-3.56l-1.27-1a7.81,7.81,0,0,1-3-4.26,5.74,5.74,0,0,1-.16-1.36v-5.44a.78.78,0,0,1,.78-.78.79.79,0,0,1,.8.78c0,.17,0,.32.05.46s.05.25.09.38.1.32.13.42a4.73,4.73,0,0,0,.38.78.77.77,0,0,1,.07.16l.19.26a.27.27,0,0,1,.07.08c.1.14.21.27.33.41l.11.13,0,0,0,0a7.9,7.9,0,0,0,1,.95l1.28,1c.26.2.52.39.79.57s.54.34.84.5l.34.18.69.33q.54.24,1.11.45l1.18.38,1.21.3,1.18.23a26.3,26.3,0,0,0,4,.3h.58a4.89,4.89,0,0,1,.58,0l1.1-.07q.53,0,1-.12c.48,0,.84-.11,1.21-.17s.71-.14,1.06-.22l.28-.07.74-.19,1-.29c.42-.13.74-.25,1-.37l.86-.37.85-.42c.27-.16.59-.34.89-.54l.4-.26.18-.13.46-.36a.82.82,0,0,1,.92-.08l2.69,1.57a.78.78,0,0,1,.38.8,4.82,4.82,0,0,1-.28,1,7.32,7.32,0,0,1-.7,1.4C235.7,243.71,229.72,246.12,222.9,246.12Zm-15.15-11.77V236a4.19,4.19,0,0,0,.12,1,6.26,6.26,0,0,0,2.43,3.39l1.27,1c2.65,2.06,6.77,3.23,11.33,3.23,6.21,0,11.8-2.18,13.91-5.44a6,6,0,0,0,.55-1.1,1.72,1.72,0,0,0,.07-.21l-1.72-1-.14.1-.18.13-.46.31c-.32.21-.66.4-1,.6l-.92.45c-.31.15-.63.28-1,.41s-.69.27-1.05.38-.76.24-1.1.33l-.8.21-.29.07c-.4.09-.78.17-1.16.23s-.78.13-1.18.18-.81.1-1.18.13l-1.16.08a5.07,5.07,0,0,0-.59,0h-.64a26.6,26.6,0,0,1-4.16-.31c-.53-.09-1-.17-1.35-.26l-1.3-.32c-.46-.14-.88-.27-1.28-.41s-.83-.32-1.23-.5l-.78-.37.19-.79-.35.7-.2-.11c-.32-.17-.62-.35-.93-.55s-.61-.42-.89-.64l-1.28-1a10.15,10.15,0,0,1-1.23-1.12h0c0-.05-.09-.09-.13-.15h0l-.1-.13Z"/><path d="M221.83,275l-2.13,0h-.2a10.65,10.65,0,0,1-1.12-.06c-.81,0-1.65-.07-2.49-.12a3.1,3.1,0,0,1-.41,0l-2-.15c-1-.1-1.94-.21-2.9-.34a1.89,1.89,0,0,1-.44-.06c-.34,0-.79-.09-1.22-.17a1.25,1.25,0,0,1-.3-.05l-1.2-.19c-.47-.06-1-.15-1.49-.26s-1-.17-1.45-.29c-.71-.13-1.45-.29-2.15-.47s-1.35-.32-2-.51-1.05-.28-1.58-.44l-.59-.19c-.35-.1-.76-.21-1.17-.36-.62-.2-1.27-.41-1.89-.65-.3-.11-.57-.2-.82-.31s-.74-.27-1.13-.44-.77-.3-1.16-.48c-.72-.29-1.48-.63-2.21-1l-.32-.15c-.36-.17-.7-.35-1.06-.55s-.65-.32-1-.5L187,267c-.45-.25-.9-.5-1.33-.77l-.37-.22c-.56-.35-1.1-.71-1.64-1.07a3.73,3.73,0,0,1-.36-.24l-.19-.14c-.57-.39-1.1-.79-1.63-1.19l-4.26-3.32c-5.69-4.4-9.08-9.65-9.81-15.16A18.72,18.72,0,0,1,170.63,232c.24-.38.5-.75.78-1.12a30.34,30.34,0,0,1,5.13-5.49l.09-.07a30.39,30.39,0,0,1,2.66-2.07,48.33,48.33,0,0,1,8.8-4.9.5.5,0,0,1,.24-.06l.07-.06a1.18,1.18,0,0,1,.19-.11l1-.42c1.07-.45,2.21-.88,3.49-1.31a4.27,4.27,0,0,1,.6-.18c.32-.13.75-.27,1.2-.42l.76-.23,1.39-.41c.84-.24,1.69-.46,2.56-.66l.43-.1a.78.78,0,0,1,.56.09l8.19,4.79a.79.79,0,0,1-.19,1.44c-6.87,1.94-12.13,5.28-14.81,9.41a9.71,9.71,0,0,0-1.27,8.68.74.74,0,0,1,0,.51c-1.5,4.42.24,8.84,4.91,12.46l2.53,2c5.43,4.21,13.86,6.63,23.14,6.63,12.89,0,24.07-4.42,28.5-11.26a9.85,9.85,0,0,0,1.66-7,.77.77,0,0,1,.37-.8L269.38,232a.8.8,0,0,1,1,.18c5.65,7.12,6.12,15.48,1.28,22.94h0c-3.7,5.7-10,10.54-18.3,14l-.13.06a67.66,67.66,0,0,1-6.61,2.36l-.34.11-.38.11c-.95.28-1.94.55-2.94.79l-1.2.28c-2.05.48-3.9.84-5.66,1.1-.6.1-1.24.2-1.89.28-1.82.26-3.81.48-6.07.65-1.2.07-2.39.13-3.57.16C223.67,275,222.75,275,221.83,275Zm-5.89-1.78c.87.05,1.7.1,2.52.13.4,0,.72,0,1.06,0h.21c1.6,0,3.21,0,4.81,0,1.17,0,2.35-.1,3.52-.16,2.2-.17,4.16-.38,6-.63.63-.08,1.25-.18,1.85-.28,1.74-.26,3.55-.61,5.55-1.08l1.19-.28c1-.23,1.94-.5,2.88-.78l.34-.1.38-.11a65.76,65.76,0,0,0,6.47-2.32l0,0c8-3.34,14.1-8,17.64-13.44h0c4.4-6.76,4.11-14-.78-20.56l-14.7,8.66a11.59,11.59,0,0,1-2,7.61c-4.71,7.27-16.41,12-29.82,12-9.62,0-18.4-2.54-24.1-7l-2.53-2c-5.08-3.93-7.08-9-5.52-13.95a11.25,11.25,0,0,1,1.52-9.79c2.65-4.09,7.57-7.45,14-9.55L200.08,216l-.12,0c-.84.2-1.66.41-2.48.65l-1.37.4-.74.22c-.42.13-.83.27-1.24.43a3.6,3.6,0,0,0-.49.14c-1.28.43-2.39.85-3.42,1.29l-1.13.54a.78.78,0,0,1-.49.16h0a47.33,47.33,0,0,0-8.36,4.68,28.64,28.64,0,0,0-2.61,2l-.11.08a29.65,29.65,0,0,0-4.8,5.15c-.27.36-.51.71-.74,1.06A17.19,17.19,0,0,0,169,244.7c.67,5.1,3.86,10,9.21,14.13l4.26,3.32c.5.38,1,.76,1.55,1.13l.23.16.27.19c.57.38,1.1.73,1.64,1.07l.38.21c.41.26.83.5,1.26.74l.42.24c.29.16.61.32.92.47s.7.37,1,.54l.17.08c.84.4,1.57.72,2.29,1,.39.18.75.33,1.12.46s.73.31,1.1.43l.76.29c.67.25,1.29.45,1.9.65.4.15.78.25,1.15.35a4.5,4.5,0,0,0,.53.17c.55.17,1.06.31,1.58.44s1.3.35,2,.5,1.4.33,2.11.47c.48.11,1,.2,1.42.27a13.62,13.62,0,0,0,1.44.25c.41.08.79.14,1.16.19a.61.61,0,0,1,.13,0h0a.78.78,0,0,1,.22,0c.4.07.82.13,1.24.18l.36,0q1.43.19,2.85.33l2,.16ZM271,254.64h0Z"/><path d="M188.6,219.81h-.17a.78.78,0,0,1-.76-.6.79.79,0,0,1,.41-.89c.25-.12.38-.19.51-.24a.8.8,0,0,1,1,.34.79.79,0,0,1-.2,1l-.28.22A.78.78,0,0,1,188.6,219.81Z"/><path d="M223.1,261.89c-9.62,0-18.4-2.54-24.1-7l-2.53-2c-5.16-4-7.14-9.18-5.43-14.2a.79.79,0,0,1,.74-.54h0a.8.8,0,0,1,.74.53,14.11,14.11,0,0,0,4.91,6.32l2.53,2c5.43,4.21,13.86,6.63,23.14,6.63,12.75,0,23.9-4.36,28.39-11.09a.75.75,0,0,1,.26-.24l1.88-1.12a.84.84,0,0,1,.74,0,.81.81,0,0,1,.44.59,11.5,11.5,0,0,1-1.89,8.15C248.21,257.19,236.51,261.89,223.1,261.89ZM192,241.45c-.37,3.67,1.49,7.26,5.39,10.28l2.53,2c5.43,4.21,13.86,6.63,23.14,6.63,12.89,0,24.07-4.42,28.5-11.26h0a10.08,10.08,0,0,0,1.77-5.86l-.67.4c-4.84,7.08-16.43,11.64-29.6,11.64-9.62,0-18.4-2.53-24.1-7l-2.53-2A17.16,17.16,0,0,1,192,241.45Z"/><path d="M274.5,317.73a.68.68,0,0,1-.34-.08.77.77,0,0,1-.44-.79l0-.21a.78.78,0,0,1,.71-.66.79.79,0,0,1,.81.54,1.72,1.72,0,0,1,.08.38.8.8,0,0,1-.26.58A.85.85,0,0,1,274.5,317.73Zm-.73-.82h0Z"/><path d="M222.9,246.12c-4.9,0-9.38-1.29-12.29-3.56l-1.27-1a7.81,7.81,0,0,1-3-4.26,5.74,5.74,0,0,1-.16-1.36v-5.44a.78.78,0,0,1,.78-.78.79.79,0,0,1,.8.78c0,.17,0,.32.05.46s.05.25.09.38.1.32.13.42a4.73,4.73,0,0,0,.38.78.77.77,0,0,1,.07.16l.19.26a.27.27,0,0,1,.07.08c.1.14.21.27.33.41l.11.13,0,0,0,0a7.9,7.9,0,0,0,1,.95l1.28,1c.26.2.52.39.79.57s.54.34.84.5l.34.18.69.33q.54.24,1.11.45l1.18.38,1.21.3,1.18.23a26.3,26.3,0,0,0,4,.3h.58a4.89,4.89,0,0,1,.58,0l1.1-.07q.53,0,1-.12c.48,0,.84-.11,1.21-.17s.71-.14,1.06-.22l.28-.07.74-.19,1-.29c.42-.13.74-.25,1-.37l.86-.37.85-.42c.27-.16.59-.34.89-.54l.4-.26.18-.13.46-.36a.82.82,0,0,1,.92-.08l2.69,1.57a.78.78,0,0,1,.38.8,4.82,4.82,0,0,1-.28,1,7.32,7.32,0,0,1-.7,1.4C235.7,243.71,229.72,246.12,222.9,246.12Zm-15.15-11.77V236a4.19,4.19,0,0,0,.12,1h0a6.27,6.27,0,0,0,2.43,3.38l1.27,1c2.65,2.06,6.77,3.23,11.33,3.23,6.21,0,11.8-2.18,13.91-5.44a6,6,0,0,0,.55-1.1,1.72,1.72,0,0,0,.07-.21l-1.72-1-.14.1-.18.13-.46.31c-.32.21-.66.4-1,.6l-.92.45c-.31.15-.63.28-1,.41s-.69.27-1.05.38-.76.24-1.1.33l-.8.21-.29.07c-.4.09-.78.17-1.16.23s-.78.13-1.18.18-.81.1-1.18.13l-1.16.08a5.07,5.07,0,0,0-.59,0h-.64a26.6,26.6,0,0,1-4.16-.31c-.53-.09-1-.17-1.35-.26l-1.3-.32c-.46-.14-.88-.27-1.28-.41s-.83-.32-1.23-.5l-.78-.37.19-.79-.35.7-.2-.11c-.32-.17-.62-.35-.93-.55s-.61-.42-.89-.64l-1.28-1a10.15,10.15,0,0,1-1.23-1.12h0c0-.05-.09-.09-.13-.15h0l-.1-.13Z"/><path d="M223.1,261.89c-9.62,0-18.4-2.54-24.1-7l-2.53-2c-5.16-4-7.14-9.18-5.43-14.2a.79.79,0,0,1,.74-.54h0a.8.8,0,0,1,.74.53,14.11,14.11,0,0,0,4.91,6.32l2.53,2c5.43,4.21,13.86,6.63,23.14,6.63,12.75,0,23.9-4.36,28.39-11.09a.75.75,0,0,1,.26-.24l1.88-1.12a.84.84,0,0,1,.74,0,.81.81,0,0,1,.44.59,11.5,11.5,0,0,1-1.89,8.15C248.21,257.19,236.51,261.89,223.1,261.89ZM192,241.45c-.37,3.67,1.49,7.26,5.39,10.28l2.53,2c5.43,4.21,13.86,6.63,23.14,6.63,12.89,0,24.07-4.42,28.5-11.26h0a10.08,10.08,0,0,0,1.77-5.86l-.67.4c-4.84,7.08-16.43,11.64-29.6,11.64-9.62,0-18.4-2.53-24.1-7l-2.53-2A17.16,17.16,0,0,1,192,241.45Z"/><path d="M223.1,255.24c-9.62,0-18.4-2.53-24.1-7l-2.53-2a15.51,15.51,0,0,1-5.43-7,11.21,11.21,0,0,1,1.43-10.05c2.89-4.45,8.46-8,15.71-10.08a.77.77,0,0,1,.61.08l5.28,3.1a.78.78,0,0,1-.11,1.41,12,12,0,0,0-4.91,3.28,6.27,6.27,0,0,0-.48.64,4.5,4.5,0,0,0-.81,2.82.83.83,0,0,1,0,.22V236a4.19,4.19,0,0,0,.12,1,6.26,6.26,0,0,0,2.43,3.39l1.27,1c2.65,2.06,6.77,3.23,11.33,3.23,6.21,0,11.8-2.18,13.91-5.44a6,6,0,0,0,.55-1.1,3,3,0,0,0,.19-.71.79.79,0,0,1,.44-.59.78.78,0,0,1,.74,0l11.3,6.6,1.72-1a.79.79,0,0,1,1.05,1.12C248,250.61,236.36,255.24,223.1,255.24Zm-14.82-34.48c-6.72,2-11.86,5.26-14.49,9.32a9.71,9.71,0,0,0-1.27,8.68,14.11,14.11,0,0,0,4.91,6.32l2.53,2c5.43,4.21,13.86,6.63,23.14,6.63,11.21,0,21.18-3.37,26.48-8.76l-10.76-6.3a8.24,8.24,0,0,1-.69,1.36c-2.43,3.74-8.41,6.15-15.23,6.15-4.9,0-9.38-1.29-12.29-3.56l-1.27-1a7.81,7.81,0,0,1-3-4.26,5.74,5.74,0,0,1-.16-1.36v-5.56a6.19,6.19,0,0,1,1.06-3.59,8.43,8.43,0,0,1,.6-.81,12.25,12.25,0,0,1,4.11-3.1Z"/><path d="M222.9,246.12c-4.9,0-9.38-1.29-12.29-3.56l-1.27-1a7.81,7.81,0,0,1-3-4.26,5.74,5.74,0,0,1-.16-1.36v-5.44a.78.78,0,0,1,.78-.78.79.79,0,0,1,.8.78c0,.17,0,.32.05.46s.05.25.09.38.1.32.13.42a4.73,4.73,0,0,0,.38.78.77.77,0,0,1,.07.16l.19.26a.27.27,0,0,1,.07.08c.1.14.21.27.33.41l.11.13,0,0,0,0a7.9,7.9,0,0,0,1,.95l1.28,1c.26.2.52.39.79.57s.54.34.84.5l.34.18.69.33q.54.24,1.11.45l1.18.38,1.21.3,1.18.23a26.3,26.3,0,0,0,4,.3h.58a4.89,4.89,0,0,1,.58,0l1.1-.07q.53,0,1-.12c.48,0,.84-.11,1.21-.17s.71-.14,1.06-.22l.28-.07.74-.19,1-.29c.42-.13.74-.25,1-.37l.86-.37.85-.42c.27-.16.59-.34.89-.54l.4-.26.18-.13.46-.36a.82.82,0,0,1,.92-.08l2.69,1.57a.78.78,0,0,1,.38.8,4.82,4.82,0,0,1-.28,1,7.32,7.32,0,0,1-.7,1.4C235.7,243.71,229.72,246.12,222.9,246.12Zm-15.15-11.77V236a4.19,4.19,0,0,0,.12,1,6.26,6.26,0,0,0,2.43,3.39l1.27,1c2.65,2.06,6.77,3.23,11.33,3.23,6.21,0,11.8-2.18,13.91-5.44a6,6,0,0,0,.55-1.1,1.72,1.72,0,0,0,.07-.21l-1.72-1-.14.1-.18.13-.46.31c-.32.21-.66.4-1,.6l-.92.45c-.31.15-.63.28-1,.41s-.69.27-1.05.38-.76.24-1.1.33l-.8.21-.29.07c-.4.09-.78.17-1.16.23s-.78.13-1.18.18-.81.1-1.18.13l-1.16.08a5.07,5.07,0,0,0-.59,0h-.64a26.6,26.6,0,0,1-4.16-.31c-.53-.09-1-.17-1.35-.26l-1.3-.32c-.46-.14-.88-.27-1.28-.41s-.83-.32-1.23-.5l-.78-.37.19-.79-.35.7-.2-.11c-.32-.17-.62-.35-.93-.55s-.61-.42-.89-.64l-1.28-1a10.15,10.15,0,0,1-1.23-1.12h0c0-.05-.09-.09-.13-.15h0l-.1-.13Z"/><path d="M222.16,324.05c-14.78,0-28.79-2.66-39.46-7.47a53.09,53.09,0,0,1-7.56-4.14l-5-3.31a31.37,31.37,0,0,1-7.68-6.92l-.09-.09a18,18,0,0,1-3.67-8.06,12,12,0,0,1-.15-1.47,2.49,2.49,0,0,1,0-.55,16.67,16.67,0,0,1,2.11-6.66,19.87,19.87,0,0,1,1.74-2.67c5.19-6.84,14.6-12.32,27.22-15.86a.8.8,0,0,1,.57.06l.15.07c.84.4,1.57.72,2.29,1,.39.18.75.33,1.12.46s.73.31,1.1.43a4.9,4.9,0,0,0,.77.29c.66.25,1.28.45,1.89.65.4.15.78.25,1.15.35a4.5,4.5,0,0,0,.53.17c.55.17,1.06.31,1.58.44s1.3.35,2,.5,1.4.33,2.11.47c.48.11,1,.2,1.42.27a13.62,13.62,0,0,0,1.44.25c.46.1.86.16,1.27.21h.08a.45.45,0,0,1,.16,0c.4.07.82.13,1.24.18l.36,0q1.43.19,2.85.33l2,.16h.3c.87.06,1.69.11,2.51.13.41,0,.73,0,1.07,0h.21c1.6,0,3.21,0,4.81,0,1.17,0,2.35-.1,3.52-.16,2.2-.17,4.16-.38,6-.63.63-.08,1.25-.18,1.85-.28,1.74-.26,3.55-.61,5.55-1.08l1.19-.28c1-.23,1.94-.5,2.88-.78l.34-.1.38-.11a66.9,66.9,0,0,0,6.48-2.32.8.8,0,0,1,.57,0,61,61,0,0,1,14.3,6.75l5,3.32c6.79,4.49,10.77,9.87,11.51,15.56v.14c-.06,1.27-.18,2.52-.33,3.7a1.58,1.58,0,0,1-.09.31,18.92,18.92,0,0,1-3.37,6.71l-.16.19a29,29,0,0,1-3.45,3.73C265.92,317.92,245,324.05,222.16,324.05Zm-58.62-23,.09.1a29.68,29.68,0,0,0,7.37,6.66l5,3.31a51,51,0,0,0,7.34,4c10.47,4.73,24.25,7.34,38.81,7.34,22.5,0,43-6,53.46-15.58a27.07,27.07,0,0,0,3.34-3.62s.13-.16.17-.19a17.82,17.82,0,0,0,3.06-6.19c.15-1.11.26-2.28.32-3.48-.7-5.2-4.43-10.18-10.8-14.39l-5-3.32A59.13,59.13,0,0,0,253,269.23c-2,.84-4.18,1.6-6.39,2.27l-.34.11-.38.11c-.95.28-1.94.55-2.94.79l-1.2.28c-2.05.48-3.9.84-5.66,1.1-.6.1-1.24.2-1.89.28-1.82.26-3.81.48-6.07.65-1.2.07-2.39.13-3.57.16-1.63.06-3.26.06-4.89,0h-.2a10.65,10.65,0,0,1-1.12-.06c-.81,0-1.66-.06-2.5-.12a3,3,0,0,1-.4,0l-2-.15c-1-.1-1.94-.21-2.9-.34a1.89,1.89,0,0,1-.44-.06c-.34,0-.79-.09-1.22-.17a.64.64,0,0,1-.28-.05,10.33,10.33,0,0,1-1.24-.2c-.45-.05-1-.14-1.47-.25s-1-.17-1.45-.29c-.71-.13-1.45-.29-2.15-.47s-1.35-.32-2-.51-1.05-.28-1.58-.44l-.59-.19c-.35-.1-.76-.21-1.17-.36-.62-.2-1.27-.41-1.89-.65a5,5,0,0,1-.86-.33,10.71,10.71,0,0,1-1.09-.42c-.37-.14-.77-.3-1.16-.48-.72-.29-1.48-.63-2.21-1l0,0c-12.15,3.45-21.18,8.71-26.12,15.22a20.15,20.15,0,0,0-1.62,2.48,15.33,15.33,0,0,0-1.92,6.06,1.51,1.51,0,0,0,0,.29,8.94,8.94,0,0,0,.13,1.31A16.29,16.29,0,0,0,163.54,301.06Z"/><path class="cls-1" d="M276.15,307.48c-11.18,10.25-32.62,15.78-54,15.78-14,0-28.07-2.4-39.13-7.4a51.33,51.33,0,0,1-7.45-4.07l-5-3.32a30.61,30.61,0,0,1-7.56-6.83h0a17.08,17.08,0,0,1-3.52-7.71l-.18.1-.23.14a48.14,48.14,0,0,0,1.32,8.5l.08,0h-.08a31.06,31.06,0,0,0,8.5,15.37c.14.33.3.68.49,1,.09.17.2.34.3.53a31.59,31.59,0,0,0,3.93,5.2q.79.93,1.71,1.83a9.07,9.07,0,0,0,.72.67c.24.22.47.44.72.65.49.42,1,.83,1.48,1.21l4.26,3.31c10.06,7.78,24.94,11.46,39.86,11.46,20.45,0,40.94-6.9,49.18-19.58a20.07,20.07,0,0,0,3-7.4l0-.21a.7.7,0,0,1,0,.14,29.28,29.28,0,0,0,5-7.46Zm-76,18.7a1.22,1.22,0,0,1,0,2.44,1.22,1.22,0,1,1,0-2.44Zm1,12.33a2.83,2.83,0,1,1,2.81-2.82A2.82,2.82,0,0,1,201.13,338.51Zm4.12-10.6a2.05,2.05,0,1,1,2.06,2.06A2.07,2.07,0,0,1,205.25,327.91Zm2.83,9.83a2,2,0,1,1,2-2.05A2.05,2.05,0,0,1,208.08,337.74Zm54-11.46a2,2,0,0,1-3.49-1.45,2,2,0,0,1,.6-1.44,2,2,0,0,1,2.89,0,2,2,0,0,1,.6,1.44A2,2,0,0,1,262.08,326.28Zm4.95-6a2,2,0,0,1-2.89,0,2,2,0,1,1,2.89,0Z"/><path d="M279.56,310.23a.8.8,0,0,1-.34-.07.79.79,0,0,1-.37-1.05,36.71,36.71,0,0,0,1.75-4.56,42.41,42.41,0,0,0,1.57-7.55.81.81,0,0,1,.88-.69.79.79,0,0,1,.68.88A43.67,43.67,0,0,1,282.1,305a36.44,36.44,0,0,1-1.83,4.77A.78.78,0,0,1,279.56,310.23Z"/><path d="M175.31,327.44a.78.78,0,0,1-.56-.23l-.86-.86-.11-.12c-.26-.29-.52-.58-.78-.89a.78.78,0,0,1,.08-1.1.79.79,0,0,1,1.11.08l.76.86.91.92a.78.78,0,0,1,0,1.11A.74.74,0,0,1,175.31,327.44Z"/><path d="M159.34,292.91a.79.79,0,0,1-.58-.25,1.77,1.77,0,0,1-.16-.22,3.85,3.85,0,0,1-.32-.42.86.86,0,0,1-.15-.44,81,81,0,0,1,.43-10.61c.26-2.63.64-5.34,1.12-8a.8.8,0,0,1,.84-.65.79.79,0,0,1,.72.78v7.42a15.54,15.54,0,0,0,.85,5,.73.73,0,0,1-.05.63,15.17,15.17,0,0,0-1.92,6.06.78.78,0,0,1-.53.67A.73.73,0,0,1,159.34,292.91Zm.58-9.55c-.11,1.36-.18,2.71-.22,4,.24-.57.5-1.13.8-1.69A17.63,17.63,0,0,1,159.92,283.36Z"/><path d="M160.46,273.85l-.16,0a.78.78,0,0,1-.61-.92l.17-1c0-.32.11-.65.19-1,.14-.74.3-1.53.47-2.33.46-2.21,1-4.66,1.77-7.46l.07-.28c.18-.7.37-1.42.58-2.13.5-1.82,1.05-3.71,1.65-5.65.9-2.93,1.87-5.81,2.89-8.55a.79.79,0,0,1,1.48.55c-1,2.71-2,5.56-2.86,8.46-.6,1.92-1.15,3.8-1.65,5.62-.21.71-.39,1.41-.57,2.1l-.07.28c-.73,2.77-1.3,5.19-1.75,7.39-.18.79-.33,1.56-.47,2.33a9.07,9.07,0,0,0-.18.94l-.09.47-.09.55A.8.8,0,0,1,160.46,273.85Z"/><path d="M283.3,294.17h-.07a.8.8,0,0,1-.72-.85c0-.37.05-.73.06-1.11a84.07,84.07,0,0,0-1-15.85l-6.16,3.69a.78.78,0,0,1-1.19-.68l.08-7.21a.77.77,0,0,1,.39-.67L286,264.94l-7.61-4.41a.8.8,0,0,1-.39-.71h0c-.53-2-1.13-4-1.82-6.28-.41-1.34-.84-2.65-1.27-3.94a21.6,21.6,0,0,1-2.47,5.14c-.19.3-.4.59-.61.89l-.11.15a2.92,2.92,0,0,1-.21.28,23.75,23.75,0,0,1-1.65,2l-.2.23c-.24.27-.48.54-.73.79l-.95.95c-.3.27-.59.54-.89.78s-.62.56-1,.84-.68.56-1,.83-.82.62-1.26.92-.88.63-1.34.93l-1.13.71c-.42.26-.83.52-1.27.76l-1.2.66a55.42,55.42,0,0,1-5.6,2.62.79.79,0,0,1-.59-1.46,53.29,53.29,0,0,0,5.44-2.54l1.18-.65c.42-.24.82-.48,1.22-.73l1.1-.69c.42-.28.85-.57,1.26-.87s.84-.59,1.23-.91.68-.52,1-.79.63-.52.93-.8.58-.5.84-.74l.88-.88c.27-.28.5-.53.72-.78l.21-.23c.57-.64,1.1-1.29,1.58-2l.16-.21.75.3-.65-.45c.2-.28.4-.57.58-.85a18.68,18.68,0,0,0,2.88-7.21.79.79,0,0,1,1.52-.13c.74,2.09,1.46,4.29,2.16,6.53s1.29,4.29,1.82,6.28l8.47,4.91a.79.79,0,0,1,0,1.36l-12.13,7-.06,5.37,6-3.57a.76.76,0,0,1,.73,0,.78.78,0,0,1,.45.59,88.21,88.21,0,0,1,1.19,17.28c0,.42,0,.81-.07,1.2A.79.79,0,0,1,283.3,294.17Z"/><path d="M222.9,240.42a26.6,26.6,0,0,1-4.16-.31c-.53-.09-1-.17-1.35-.26l-1.3-.32c-.46-.14-.88-.27-1.28-.41s-.83-.32-1.23-.5l-.78-.37.19-.79-.35.7-.2-.11c-.32-.17-.62-.35-.93-.55s-.61-.42-.89-.64l-1.28-1a10.15,10.15,0,0,1-1.23-1.12h0c0-.05-.09-.09-.13-.15h0l-.1-.13c-.14-.16-.28-.32-.4-.48l0-.05h0a3,3,0,0,1-.32-.47,1.21,1.21,0,0,1-.11-.19,7.29,7.29,0,0,1-.43-.89,4.16,4.16,0,0,1-.2-.65,2.81,2.81,0,0,1-.12-.5,3.55,3.55,0,0,1-.07-.57s0-.14,0-.17a6,6,0,0,1,1.05-3.71,8.43,8.43,0,0,1,.6-.81,13.37,13.37,0,0,1,5.55-3.74.81.81,0,0,1,.68.06l22,12.84a.78.78,0,0,1,.38.61.77.77,0,0,1-.28.67l-.5-.6.49.61c-.18.15-.37.3-.55.43l-.18.13-.46.31c-.32.21-.66.4-1,.6l-.92.45c-.31.15-.63.28-1,.41s-.69.27-1.05.38-.76.24-1.1.33l-.8.21-.29.07c-.4.09-.78.17-1.16.23s-.78.13-1.18.18-.81.1-1.18.13l-1.16.08a5.07,5.07,0,0,0-.59,0Zm-13.68-6.76,0,0a7.9,7.9,0,0,0,1,.95l1.28,1c.26.2.52.39.79.57s.54.34.84.5l.34.18.69.33q.54.24,1.11.45l1.18.38,1.21.3,1.18.23a26.3,26.3,0,0,0,4,.3h.58a4.89,4.89,0,0,1,.58,0l1.1-.07q.53,0,1-.12c.48,0,.84-.11,1.21-.17s.71-.14,1.06-.22l.28-.07.74-.19,1-.29c.42-.13.74-.25,1-.37l.86-.37.85-.42c.27-.16.59-.34.89-.54l.13-.07-20.6-12.05a11.65,11.65,0,0,0-4.56,3.14,6.27,6.27,0,0,0-.48.64,4.5,4.5,0,0,0-.81,2.82c0,.22,0,.37.05.51s.05.25.09.38.1.32.13.42a4.73,4.73,0,0,0,.38.78.77.77,0,0,1,.07.16l.19.26a.27.27,0,0,1,.07.08c.1.14.21.27.33.41l.11.13Z"/><path d="M211.93,237.62a.82.82,0,0,1-.4-.1,10.19,10.19,0,0,1-.93-.64l-1.26-1a.78.78,0,0,1,1-1.24l1.27,1c.26.2.52.39.79.57a.78.78,0,0,1-.43,1.44Z"/><path d="M222.88,240.43a26.43,26.43,0,0,1-4.14-.32.78.78,0,0,1-.67-.77s0-.08,0-.12a.8.8,0,0,1,.9-.66,26,26,0,0,0,3.92.29h.58a.79.79,0,0,1,.06,1.57Z"/><path d="M222.9,246.12c-4.9,0-9.38-1.29-12.29-3.56l-1.27-1a7.81,7.81,0,0,1-3-4.26,5.74,5.74,0,0,1-.16-1.36v-5.44a.78.78,0,0,1,.78-.78.79.79,0,0,1,.8.78c0,.17,0,.32.05.46s.05.25.09.38.1.32.13.42a4.73,4.73,0,0,0,.38.78.77.77,0,0,1,.07.16l.19.26a.27.27,0,0,1,.07.08,2.6,2.6,0,0,0,.4.49l.08.1,0,0a7.24,7.24,0,0,0,1.05.94l1.26,1c.26.2.52.39.79.57s.54.34.84.5l.34.18.69.33q.54.24,1.11.45l1.18.38,1.21.3,1.18.23a26.3,26.3,0,0,0,4,.3h.58a4.89,4.89,0,0,1,.58,0l1.1-.07q.53,0,1-.12c.48,0,.84-.11,1.21-.17s.71-.14,1.06-.22l.28-.07.74-.19,1-.29c.42-.13.74-.25,1-.37l.86-.37.85-.42c.27-.16.59-.34.89-.54l.4-.26.18-.13.46-.36a.82.82,0,0,1,.92-.08l2.69,1.57a.78.78,0,0,1,.38.8,4.82,4.82,0,0,1-.28,1,7.32,7.32,0,0,1-.7,1.4C235.7,243.71,229.72,246.12,222.9,246.12Zm-15.15-11.75V236a4.19,4.19,0,0,0,.12,1,6.26,6.26,0,0,0,2.43,3.39l1.27,1c2.65,2.06,6.77,3.23,11.33,3.23,6.21,0,11.8-2.18,13.91-5.44a6,6,0,0,0,.55-1.1,1.72,1.72,0,0,0,.07-.21l-1.72-1-.14.1-.18.13-.46.31c-.32.21-.66.4-1,.6l-.92.45c-.31.15-.63.28-1,.41s-.69.27-1.05.38-.76.24-1.1.33l-.8.21-.29.07c-.4.09-.78.17-1.16.23s-.78.13-1.18.18-.81.1-1.18.13l-1.16.08a5.07,5.07,0,0,0-.59,0h-.64a26.6,26.6,0,0,1-4.16-.31c-.53-.09-1-.17-1.35-.26l-1.3-.32c-.46-.14-.88-.27-1.28-.41s-.83-.32-1.23-.5l-.78-.37.19-.79-.35.7-.2-.11c-.32-.17-.62-.35-.93-.55s-.61-.42-.89-.64l-1.28-1a10.14,10.14,0,0,1-1.24-1.13h0l-.09-.1A3.58,3.58,0,0,1,207.75,234.37Z"/><path d="M275,280.17a.78.78,0,0,1-.39-.1.76.76,0,0,1-.39-.69l.08-7.22a.8.8,0,0,1,.4-.67l12.5-7.24a.79.79,0,0,1,1.18.68v6.9a.76.76,0,0,1-.38.67l-12.6,7.56A.77.77,0,0,1,275,280.17Zm.87-7.54-.06,5.36,11-6.6v-5.1Z"/><path d="M270.94,264.18a.78.78,0,0,1-.79-.78v-8.27a.77.77,0,0,1,.4-.68.75.75,0,0,1,.79,0l7.89,4.72a.78.78,0,1,1-.81,1.34l-6.7-4v6.89A.78.78,0,0,1,270.94,264.18Z"/><path d="M275.1,273a.79.79,0,0,1-.39-.11L263,266.14a.79.79,0,0,1-.3-1.07.78.78,0,0,1,1.07-.29l11.75,6.71a.77.77,0,0,1,.29,1.07A.79.79,0,0,1,275.1,273Z"/><path d="M280.13,269.6a.78.78,0,0,1-.39-.1l-5.06-2.88a.78.78,0,1,1,.78-1.36l5.06,2.87a.78.78,0,0,1,.29,1.07A.77.77,0,0,1,280.13,269.6Z"/><path d="M275,280.17a.75.75,0,0,1-.43-.13l-5.79-3.86a.79.79,0,0,1,.87-1.31l5.79,3.86a.79.79,0,0,1-.44,1.44Z"/><path d="M250,245a.77.77,0,0,1-.79-.79l0-44.54a.79.79,0,0,1,.39-.68l100.26-57.91a.79.79,0,0,1,1.18.68v43.41a.79.79,0,0,1-.39.67L250.42,244.93A.7.7,0,0,1,250,245Zm.81-44.87,0,42.71,19.28-11.34,79.44-46.78v-41.6Z"/><path class="cls-1" d="M99.55,112.83v43.44L200.05,215l.15.08,8.19,4.79,5.28,3.1,3.32,1.93,18.64,10.91h0l2.69,1.57,11.7,6.83V217.68l0-18Zm35.67,46.37-6.57,3.8-16.29-9.41V141l6.57-3.78,16.29,9.39Zm33.46,17.88-6.56,3.79-16.3-9.4V158.93l6.57-3.79,16.29,9.4Zm33.46,18-6.56,3.79-16.3-9.4V177l6.57-3.79,16.29,9.4Zm33.47,19.31L229,218.21l-9.38-5.4-.53-.32-6.38-3.68V196.27l6.56-3.79,16.3,9.4Z"/><path d="M400.51,113.62a.79.79,0,0,1-.39-.11L250,26,100,113.51a.79.79,0,0,1-.79-1.36L249.63,24.44a.75.75,0,0,1,.79,0l150.49,87.71a.79.79,0,0,1-.4,1.47Z"/><path d="M159.32,293.35a.79.79,0,0,1-.77-.63,3.5,3.5,0,0,1,0-.66,11.85,11.85,0,0,1,0-1.33.79.79,0,0,1,.85-.72.78.78,0,0,1,.72.84,9.45,9.45,0,0,0,0,1.19,2.19,2.19,0,0,0,0,.37.78.78,0,0,1-.61.93Z"/><path d="M283,297.8a.76.76,0,0,1-.21,0,.78.78,0,0,1-.55-1,14.33,14.33,0,0,0,.37-4.5,13.57,13.57,0,0,0-.35-2.07.78.78,0,0,1-.19-.71l0-.2a.79.79,0,0,1,.72-.61.74.74,0,0,1,.78.51,1.17,1.17,0,0,1,.06.2,16.2,16.2,0,0,1,.49,2.72,12.51,12.51,0,0,1,0,2.2,12.86,12.86,0,0,1-.43,2.87A.8.8,0,0,1,283,297.8Z"/><path d="M283.39,296.86h0a.79.79,0,0,1-.74-.83,11.84,11.84,0,0,0,0-1.59v-.16a5,5,0,0,0-.07-.77.79.79,0,0,1,1.55-.25,5.86,5.86,0,0,1,.09,1,13.87,13.87,0,0,1,0,1.83A.8.8,0,0,1,283.39,296.86Z"/><path d="M253,269.18a.92.92,0,0,1-.28-.05l.28-.74-.39.69.14-.78.29-.73.25.09a.79.79,0,0,1,.45,1A.8.8,0,0,1,253,269.18Z"/><path d="M159.84,298.13a.77.77,0,0,1-.74-.54.35.35,0,0,1,0-.12l0-.05a15.62,15.62,0,0,1-.54-3.36,11.73,11.73,0,0,1,0-1.57.8.8,0,0,1,.86-.7.78.78,0,0,1,.71.85,8.85,8.85,0,0,0,0,1.36,13.17,13.17,0,0,0,.38,2.6.78.78,0,0,1,.2.72l0,.2a.8.8,0,0,1-.73.61Z"/><path d="M207.31,330.76a2.84,2.84,0,1,1,2.83-2.85A2.86,2.86,0,0,1,207.31,330.76Zm0-4.1a1.27,1.27,0,1,0,0,2.53,1.26,1.26,0,0,0,1.25-1.28A1.25,1.25,0,0,0,207.31,326.66Z"/><path d="M208.08,338.52a2.83,2.83,0,1,1,2.83-2.83A2.83,2.83,0,0,1,208.08,338.52Zm0-4.08a1.26,1.26,0,1,0,1.26,1.25A1.25,1.25,0,0,0,208.08,334.44Z"/><path d="M201.13,339.29a3.61,3.61,0,1,1,3.6-3.6A3.61,3.61,0,0,1,201.13,339.29Zm0-5.64a2,2,0,1,0,2,2A2,2,0,0,0,201.13,333.65Z"/><path d="M200.11,329.41a2,2,0,1,1,0-4,2,2,0,0,1,0,4Zm0-2.44a.43.43,0,0,0-.44.42c0,.48.86.5.86,0A.42.42,0,0,0,200.11,327Z"/><path d="M265.59,321.63a2.85,2.85,0,0,1-2-.83,2.85,2.85,0,0,1,0-4,2.83,2.83,0,0,1,4.83,2,2.9,2.9,0,0,1-.81,2A2.86,2.86,0,0,1,265.59,321.63Zm0-4.1a1.26,1.26,0,0,0-.9.37,1.28,1.28,0,0,0,0,1.8,1.33,1.33,0,0,0,1.77,0,1.29,1.29,0,0,0,.36-.89,1.32,1.32,0,0,0-.36-.91A1.28,1.28,0,0,0,265.59,317.53Z"/><path d="M260.63,327.66a2.82,2.82,0,0,1-2.82-2.83,2.84,2.84,0,0,1,.82-2,2.91,2.91,0,0,1,4,0,2.84,2.84,0,0,1,.82,2,2.82,2.82,0,0,1-2.83,2.83Zm0-4.09a1.25,1.25,0,0,0-1.25,1.26,1.25,1.25,0,0,0,1.25,1.26,1.26,1.26,0,0,0,1.26-1.26,1.22,1.22,0,0,0-.37-.89A1.24,1.24,0,0,0,260.63,323.57Z"/><path d="M248.63,177a46.3,46.3,0,0,1-22.49-5.6l-79.86-46.11c-6.32-3.65-9.95-8.55-9.95-13.43,0-4.1,2.54-7.82,7.15-10.48l85.44-49.32c10.21-5.9,28.08-5.18,39.84,1.61l79.86,46.11c6.32,3.65,9.95,8.55,9.95,13.43,0,4.1-2.54,7.82-7.15,10.48L266,173C261.35,175.68,255.13,177,248.63,177ZM246.27,49.6c-6.22,0-12.15,1.25-16.57,3.81h0l-85.43,49.32c-4.11,2.37-6.37,5.61-6.37,9.12,0,4.3,3.34,8.71,9.17,12.07L226.93,170c11.32,6.53,28.49,7.26,38.27,1.61l85.43-49.32c4.11-2.37,6.37-5.61,6.37-9.12,0-4.3-3.34-8.71-9.17-12.07L268,55A44.61,44.61,0,0,0,246.27,49.6Zm-17,3.13h0Z"/><path d="M222.84,431a.83.83,0,0,1-.4-.11l-65.16-37.62a.79.79,0,0,1-.39-.68V380.09a.79.79,0,0,1,.39-.68.78.78,0,0,1,.78,0L223.23,417a.79.79,0,0,1,.39.68v12.54a.79.79,0,0,1-.78.79Zm-64.38-38.87,63.59,36.72V418.16l-63.59-36.71Z"/><path d="M222.84,431a.83.83,0,0,1-.4-.11.79.79,0,0,1-.39-.68V418.16l-64.77-37.39a.79.79,0,0,1,0-1.36l6.56-3.79a.8.8,0,0,1,.79,0l65.16,37.62a.78.78,0,0,1,.4.68v12.54a.78.78,0,0,1-.4.68l-6.56,3.79A.79.79,0,0,1,222.84,431Zm-63.6-51,64,36.94a.79.79,0,0,1,.39.68v11.18l5-2.88V414.37L164.24,377.2Z"/><path d="M229,219a.79.79,0,0,1-.39-.11l-16.3-9.4a.79.79,0,0,1-.39-.68V196.27a.79.79,0,0,1,1.18-.68l16.3,9.42a.79.79,0,0,1,.39.68v12.52a.79.79,0,0,1-.39.68A.8.8,0,0,1,229,219Zm-15.51-10.64,14.73,8.49V206.14l-14.73-8.51Z"/><path d="M229,219a.79.79,0,0,1-.78-.79V206.14L212.35,197a.79.79,0,0,1,0-1.36l6.57-3.79a.8.8,0,0,1,.79,0l16.3,9.4a.79.79,0,0,1,.39.68v12.54a.82.82,0,0,1-.39.69l-6.57,3.78A.8.8,0,0,1,229,219Zm-14.72-22.73L229.44,205a.79.79,0,0,1,.39.68v11.16l5-2.88V202.34l-15.52-9Z"/><path d="M195.58,199.68a.78.78,0,0,1-.39-.1l-16.3-9.4a.79.79,0,0,1-.39-.68V177a.78.78,0,0,1,.39-.68.8.8,0,0,1,.79,0l16.3,9.4a.79.79,0,0,1,.39.68V198.9a.79.79,0,0,1-.39.68A.82.82,0,0,1,195.58,199.68ZM180.07,189l14.73,8.5V186.81l-14.73-8.49Z"/><path d="M195.58,199.68a.77.77,0,0,1-.78-.78V186.81l-15.91-9.17a.79.79,0,0,1-.39-.68.81.81,0,0,1,.39-.69l6.57-3.78a.8.8,0,0,1,.79,0l16.28,9.4a.79.79,0,0,1,.39.68v12.54a.79.79,0,0,1-.39.68L196,199.58A.82.82,0,0,1,195.58,199.68ZM180.86,177,196,185.67a.79.79,0,0,1,.39.68v11.18l5-2.87V183l-15.5-9Z"/><path d="M162.12,181.66a.79.79,0,0,1-.39-.11l-16.3-9.4a.79.79,0,0,1-.39-.68V158.93a.79.79,0,0,1,1.18-.68l16.3,9.4a.79.79,0,0,1,.39.68v12.54a.79.79,0,0,1-.39.68A.83.83,0,0,1,162.12,181.66ZM146.61,171l14.73,8.49V168.78l-14.73-8.49Z"/><path d="M162.12,181.66a.79.79,0,0,1-.78-.79V168.78l-15.91-9.17a.79.79,0,0,1,0-1.36l6.57-3.79a.8.8,0,0,1,.79,0l16.28,9.4a.79.79,0,0,1,.39.68v12.54a.79.79,0,0,1-.39.68l-6.55,3.79A.83.83,0,0,1,162.12,181.66ZM147.4,158.93l15.12,8.72a.79.79,0,0,1,.39.68v11.18l5-2.88V165l-15.5-8.94Z"/><path d="M128.64,163.79a.79.79,0,0,1-.39-.11L112,154.26a.78.78,0,0,1-.39-.68V141a.79.79,0,0,1,1.18-.68L129,149.78a.79.79,0,0,1,.39.68V163a.79.79,0,0,1-.39.68A.8.8,0,0,1,128.64,163.79Zm-15.49-10.66,14.71,8.51V150.91l-14.71-8.5Z"/><path d="M128.64,163.79a.79.79,0,0,1-.78-.79V150.91L112,141.72a.79.79,0,0,1,0-1.36l6.57-3.79a.8.8,0,0,1,.79,0L135.61,146a.79.79,0,0,1,.39.68V159.2a.79.79,0,0,1-.39.68l-6.57,3.8A.8.8,0,0,1,128.64,163.79Zm-14.7-22.74,15.1,8.73a.79.79,0,0,1,.39.68v11.18l5-2.9V147.11l-15.5-9Z"/><path d="M142.77,385a.79.79,0,0,1-.39-.11L109.8,366.11a.78.78,0,0,1-.4-.68V352.89a.79.79,0,0,1,1.18-.68L143.16,371a.78.78,0,0,1,.4.68v12.54a.78.78,0,0,1-.4.68A.77.77,0,0,1,142.77,385ZM111,365l31,17.91V372.15l-31-17.9Z"/><path d="M142.77,385a.79.79,0,0,1-.78-.79V372.15L109.8,353.57a.78.78,0,0,1,0-1.36l6.56-3.79a.78.78,0,0,1,.78,0l32.59,18.81a.79.79,0,0,1,.39.68v12.54a.79.79,0,0,1-.39.68l-6.57,3.79A.77.77,0,0,1,142.77,385Zm-31-32.14L143.16,371a.78.78,0,0,1,.4.68v11.18l5-2.88V368.36L116.75,350Z"/><path d="M384.75,369.12a.75.75,0,0,1-.38-.1.79.79,0,0,1-.41-.69V339.16a.79.79,0,0,1,.39-.68l3.2-1.84a.75.75,0,0,1,.79,0,.78.78,0,0,1,.39.68v29a.8.8,0,0,1-.36.66l-3.2,2.05A.74.74,0,0,1,384.75,369.12Zm.78-29.51v27.28l1.63-1V338.68Z"/><path d="M377.7,373.35a.75.75,0,0,1-.38-.1.78.78,0,0,1-.41-.69V343.4a.77.77,0,0,1,.39-.68l3.2-1.85a.79.79,0,0,1,1.18.68v29a.79.79,0,0,1-.36.66l-3.2,2.06A.81.81,0,0,1,377.7,373.35Zm.78-29.5v27.28l1.63-1.05V342.91Z"/><path d="M370.44,377.28a.85.85,0,0,1-.38-.09.8.8,0,0,1-.41-.69V347.33a.79.79,0,0,1,.39-.68l3.2-1.85a.79.79,0,0,1,1.18.68v29a.82.82,0,0,1-.36.67l-3.2,2.05A.81.81,0,0,1,370.44,377.28Zm.78-29.5v27.28l1.63-1.05V346.84Z"/><path d="M250,25.11l150.49,87.72,0,202.76V388L375.4,402.49l-12.54-7.25-87.78,50.68v14.49L250,474.89l-25.08-14.48V445.93l-87.78-50.69-12.54,7.25L99.49,388V315.59L146,288.74a44.86,44.86,0,0,1-.22-5.09v-50a16.24,16.24,0,0,1,1.25-6.24,16.94,16.94,0,0,1,15.75-10.18,16.51,16.51,0,0,1,1.85.1L188.43,219c.16-.06.3-.14.45-.2l1-.44c.71-.31,1.44-.59,2.16-.88l1.28-.4a4.91,4.91,0,0,1,.5-.17c.43-.15.86-.29,1.3-.42.69-.22,1.4-.43,2.11-.64l2.53-.79L200,215,99.56,156.27V112.83L250,25.11M160.46,273c0-.29.11-.59.17-.89s.11-.65.19-1c.14-.77.3-1.55.47-2.34q.74-3.56,1.76-7.43c.2-.79.41-1.59.64-2.39.51-1.82,1.06-3.71,1.65-5.64,1-3.19,1.95-6,2.88-8.51a18,18,0,0,1,3.06-12.41c.24-.36.49-.72.76-1.09a30.36,30.36,0,0,1,5-5.36l-5-1.27c-.37-.09-.75-.17-1.13-.23-.23-.05-.49-.1-.74-.13l-.91-.13-.45,0-.46,0a19.13,19.13,0,0,0-2.47,2.46,1.67,1.67,0,0,1-.12.16c-.27.33-.52.64-.76,1s-.48.68-.7,1-.43.67-.63,1c-.3.52-.59,1.05-.84,1.59-.19.37-.36.75-.52,1.13,0,0,0,0,0,0-.19.46-.36.9-.5,1.36a20.71,20.71,0,0,0-.8,2.73c-.06.25-.11.52-.16.77s-.12.69-.16,1-.07.61-.11.91c0,.56-.07,1.12-.07,1.67v32M250,413.92V402.49h0v11.43M250,20.4a4.66,4.66,0,0,0-2.37.64L97.19,108.76a4.7,4.7,0,0,0-2.34,4.07v43.44a4.71,4.71,0,0,0,2.33,4.07l91.43,53.47-.56.24-.45.19-22.55-1.6c-.74-.07-1.5-.11-2.25-.11a21.56,21.56,0,0,0-20.11,13.08,21,21,0,0,0-1.61,8v50c0,.77,0,1.6,0,2.48l-44,25.38a4.71,4.71,0,0,0-2.36,4.08V388a4.73,4.73,0,0,0,2.36,4.09l25.09,14.47a4.74,4.74,0,0,0,4.72,0l10.18-5.88,83.07,48v11.75a4.71,4.71,0,0,0,2.35,4.08L247.63,479a4.74,4.74,0,0,0,4.72,0l25.07-14.48a4.7,4.7,0,0,0,2.36-4.08V448.65l83.07-48L373,406.57a4.74,4.74,0,0,0,4.72,0l25.08-14.49a4.69,4.69,0,0,0,2.35-4.08V315.59l0-202.76a4.7,4.7,0,0,0-2.34-4.07L252.4,21A4.72,4.72,0,0,0,250,20.4Z"/><path d="M189.28,335.83a.79.79,0,0,1-.55-.22,28.55,28.55,0,0,1-3.2-3.63.79.79,0,0,1,1.27-.94,26.85,26.85,0,0,0,3,3.44.78.78,0,0,1-.54,1.35Zm-9.07-17.93a.78.78,0,0,1-.77-.64c-.28-1.51-.51-3.1-.66-4.74a.77.77,0,0,1,.7-.85.8.8,0,0,1,.86.7c.15,1.59.37,3.14.64,4.6a.78.78,0,0,1-.62.92Zm-.34-20.35h-.09a.79.79,0,0,1-.69-.87c.17-1.52.39-3.09.64-4.71a.79.79,0,1,1,1.55.25c-.25,1.59-.46,3.14-.63,4.63A.79.79,0,0,1,179.87,297.55Zm4-20a.71.71,0,0,1-.2,0,.79.79,0,0,1-.55-1c.4-1.48.83-3,1.3-4.55a.78.78,0,1,1,1.5.45c-.46,1.54-.89,3-1.29,4.51A.78.78,0,0,1,183.86,277.53Z"/></svg>