<svg id="Layer_1" data-name="Layer 1" xmlns="http://www.w3.org/2000/svg" viewBox="0 0 500 500"><rect x="116.53" y="340.49" width="22.83" height="1.73" transform="matrix(0.87, -0.5, 0.5, 0.87, -153.63, 109.82)"/><path d="M256.54,405a.87.87,0,0,1-.45-.12L137.4,336.39a.86.86,0,0,1-.31-1.18L156.87,301a.85.85,0,0,1,1.18-.32l118.68,68.52a.86.86,0,0,1,.31,1.18L257.3,404.59a.62.62,0,0,1-.14.18A.93.93,0,0,1,256.54,405ZM139,335.32,256.22,403l18.9-32.78L157.93,302.57Z"/><rect x="374.34" y="335.66" width="1.73" height="5.7"/><rect x="354.31" y="278.38" width="1.73" height="46.5" transform="translate(-83.91 457.62) rotate(-59.9)"/><rect x="154.43" y="292.39" width="35.63" height="1.73" transform="translate(-124.49 127.07) rotate(-30.32)"/><path d="M276.3,164.48a.92.92,0,0,1-.43-.11L156.44,96.71l.86-1.5,119,67.41,98.56-56.37.86,1.5-99,56.62A1,1,0,0,1,276.3,164.48Z"/><path d="M276.3,141.64a.92.92,0,0,1-.43-.11L156.44,73.87l.86-1.5,119,67.41,98.56-56.37.86,1.49-99,56.62A.85.85,0,0,1,276.3,141.64Z"/><polygon points="136.97 404.18 136.97 404.16 138.7 404.16 136.97 404.18"/><path d="M237.6,485.61,216.1,473.2V450.35l-77.4-44.68v22.84l-21.5-12.42V345.56L237.6,415.1ZM217.83,472.2l18,10.42V416.09l-117-67.54V415.1l18,10.42V402.68l80.86,46.67Z"/><path d="M235.88,485.61V415.1l20-11.58,19.74-34.24.2-.12,100.2-57.85,0,93.4-21.52,12.38V394.26L257.4,450.35V473.2Zm1.72-69.52v66.53l18.07-10.42V449.35l.43-.25,100.19-57.83V414.1l18.06-10.39V314.3l-97.41,56.24-19.77,34.23-.25.25h-.14Z"/><rect x="136.31" y="420.44" width="22.83" height="1.73" transform="matrix(0.87, -0.5, 0.5, 0.87, -190.98, 130.44)"/><rect x="344.67" y="398.47" width="1.73" height="22.83" transform="translate(-182.26 503.85) rotate(-59.96)"/><path d="M276.32,347.92a.87.87,0,0,1-.44-.11l-79.13-45.68.87-1.49,78.7,45.43,59.73-33.54.84,1.51-60.15,33.77A.8.8,0,0,1,276.32,347.92Z"/><path d="M333.27,312.36l-4.43-2.67.89-1.48,4.44,2.68Zm-11.83-7.14L317,302.54l.89-1.47,4.44,2.67Zm-11.83-7.14-4.43-2.68.89-1.47,4.44,2.67Zm-11.83-7.14-4.43-2.68.89-1.48,4.44,2.68ZM286,283.8l-4.43-2.68.89-1.48,4.44,2.68Zm-11.83-7.14L269.69,274l.89-1.48,4.44,2.68Zm-11.83-7.14-4.43-2.68.89-1.48,4.44,2.68Z"/><path d="M197.62,302.13l-.87-1.49,4.49-2.59.86,1.49Zm12-6.91-.86-1.49,4.49-2.59.86,1.49Zm12-6.91-.86-1.49,4.48-2.59.87,1.49Zm12-6.9-.87-1.5,4.49-2.59.87,1.49Zm12-6.91-.86-1.5,4.49-2.59.86,1.5Zm12-6.91-.86-1.5.85-.49v-3.2h1.73v3.7a.89.89,0,0,1-.43.75Zm1.72-13.83h-1.73v-5.18h1.73Zm0-13.81h-1.73v-5.19h1.73Zm0-13.82h-1.73V221h1.73Zm0-13.82h-1.73v-5.18h1.73Zm0-13.82h-1.73v-5.18h1.73Zm0-13.82h-1.73v-5.18h1.73Zm0-13.82h-1.73v-5.18h1.73Zm0-13.81h-1.73v-4.12h1.73Z"/><rect x="275.44" y="163.62" width="1.73" height="183.44"/><path d="M337.32,313.45l-1.7-.32,38.89-206.69.35-.19a12.27,12.27,0,0,0,.2-21.23l-.21-.12-38.8-22.11.85-1.5,39,22.25a14,14,0,0,1,.12,24Z"/><path d="M196.64,301.54,156.4,96.48a14.14,14.14,0,0,1,.34-24.12l39.77-22.83.86,1.5L157.61,73.85a12.41,12.41,0,0,0-.11,21.28l.33.2.19.45L198.34,301.2Z"/><path d="M334.63,290.71l-4.14-2.4.87-1.49,4.13,2.4ZM188.06,285l-.87-1.49,4.47-2.61.88,1.49Zm135-1-4.48-2.59.86-1.5,4.49,2.6Zm-123-6-.87-1.5,4.47-2.61.87,1.49Zm111.08-1-4.49-2.6.87-1.49,4.48,2.6Zm-99.15-6-.87-1.49,4.47-2.62.87,1.49Zm87.19-.93-4.48-2.59.86-1.5,4.49,2.6Zm-75.27-6.05-.87-1.49,4.48-2.62.87,1.49Zm63.32-.88-4.49-2.6.87-1.49,4.48,2.6Zm-51.39-6.1-.87-1.49,4.47-2.62.87,1.5Zm39.43-.83-4.48-2.6.86-1.49,4.49,2.6Zm-27.5-6.15-.87-1.49L251.3,246l.87,1.49Zm15.55-.78-4.49-2.6.87-1.49,4.48,2.6Z"/><path d="M276.32,119.52a.92.92,0,0,1-.43-.11L196.51,73.87l.86-1.5,78.95,45.29,59.73-33.53.84,1.5-60.15,33.78A.91.91,0,0,1,276.32,119.52Z"/><polygon points="276.31 96.81 195.21 50.28 239.94 24.46 240.81 25.95 198.68 50.28 276.32 94.82 334.75 62.02 291.82 36.5 292.71 35.01 338.2 62.06 276.31 96.81"/><rect x="196.08" y="50.28" width="1.73" height="22.84"/><rect x="335.61" y="62.04" width="1.73" height="22.84"/><rect x="275.45" y="95.82" width="1.73" height="22.84"/><path d="M212.6,440.63a.82.82,0,0,1-.43-.12l-18.46-10.66a.85.85,0,0,1-.44-.74V418.43a.85.85,0,0,1,.44-.74.83.83,0,0,1,.86,0L213,428.36a.86.86,0,0,1,.44.75v10.65a.86.86,0,0,1-.44.75A.82.82,0,0,1,212.6,440.63Zm-17.6-12,16.74,9.66V429.6L195,419.93Z"/><path d="M212.6,440.63a.82.82,0,0,1-.43-.12.85.85,0,0,1-.43-.75V429.11a.85.85,0,0,1,.43-.75l4.18-2.42a.87.87,0,0,1,1.3.75v10.66a.85.85,0,0,1-.44.74L213,440.51A.88.88,0,0,1,212.6,440.63Zm.87-11v8.67l2.45-1.42v-8.66Z"/><path d="M212.6,430a.82.82,0,0,1-.43-.12l-18.46-10.67a.86.86,0,0,1-.44-.75.9.9,0,0,1,.44-.75l4.18-2.4a.85.85,0,0,1,.86,0l18.46,10.65a.86.86,0,0,1,0,1.5L213,429.85A.88.88,0,0,1,212.6,430Zm-16.73-11.54,16.73,9.68,2.46-1.42L198.32,417Z"/><path d="M184.54,424.56a.92.92,0,0,1-.43-.11l-50.89-29.29a.89.89,0,0,1-.43-.75V383.73a.87.87,0,0,1,1.29-.75L185,412.29a.86.86,0,0,1,.43.75V423.7a.86.86,0,0,1-.43.75A.92.92,0,0,1,184.54,424.56Zm-50-30.65,49.15,28.29v-8.66l-49.15-28.31Z"/><path d="M184.54,424.56a.92.92,0,0,1-.43-.11.87.87,0,0,1-.44-.75V413a.89.89,0,0,1,.43-.75l4.19-2.41a.83.83,0,0,1,.86,0,.85.85,0,0,1,.43.74v10.66a.85.85,0,0,1-.43.75L185,424.45A.92.92,0,0,1,184.54,424.56Zm.86-11v8.66l2.45-1.42v-8.66Z"/><path d="M184.54,413.91a.82.82,0,0,1-.43-.12l-50.89-29.31a.85.85,0,0,1-.43-.75.89.89,0,0,1,.43-.75l4.18-2.4a.88.88,0,0,1,.86,0l50.89,29.3a.86.86,0,0,1,0,1.49L185,413.79A.82.82,0,0,1,184.54,413.91Zm-49.15-30.17L184.54,412l2.45-1.41-49.16-28.3Z"/><path d="M248.11,391.44a.81.81,0,0,1-.43-.11l-11.32-6.54a.86.86,0,0,1-.32-1.18L242.15,373a.84.84,0,0,1,.52-.4.89.89,0,0,1,.66.08l11.32,6.56a.87.87,0,0,1,.32,1.18L248.86,391A.86.86,0,0,1,248.11,391.44ZM238,383.73l9.82,5.67,5.25-9.08-9.83-5.69Z"/><path d="M248.11,391.44a.85.85,0,0,1-.61-.25.86.86,0,0,1-.14-1l6.11-10.58a.84.84,0,0,1,.31-.31l4.18-2.42a.87.87,0,0,1,1.19,1.18L253,388.59a1,1,0,0,1-.32.32l-4.18,2.42A.92.92,0,0,1,248.11,391.44Zm6.74-10.8-4.38,7.57,1.19-.68L256,380Z"/><path d="M254.22,380.87a.88.88,0,0,1-.44-.12l-11.32-6.55a.86.86,0,0,1-.43-.75.89.89,0,0,1,.43-.75l4.18-2.4a.9.9,0,0,1,.87,0l11.32,6.54a.85.85,0,0,1,.43.75.86.86,0,0,1-.43.75l-4.18,2.41A.82.82,0,0,1,254.22,380.87Zm-9.6-7.42,9.6,5.56,2.45-1.42-9.6-5.54Z"/><path d="M228.52,380.13a.82.82,0,0,1-.43-.12l-11.33-6.53a.86.86,0,0,1-.31-1.18l6.11-10.59a.84.84,0,0,1,.52-.4.89.89,0,0,1,.66.08L235.06,368a.86.86,0,0,1,.31,1.18l-6.1,10.57A.86.86,0,0,1,228.52,380.13Zm-10.14-7.72,9.82,5.68,5.25-9.08-9.83-5.69Z"/><path d="M228.52,380.13a.86.86,0,0,1-.61-.25.85.85,0,0,1-.14-1l6.11-10.58a.77.77,0,0,1,.31-.31l4.18-2.42a.88.88,0,0,1,1,.14.86.86,0,0,1,.13,1l-6.1,10.57a1,1,0,0,1-.32.32L229,380A.82.82,0,0,1,228.52,380.13Zm6.74-10.8-4.38,7.57,1.19-.68,4.37-7.58Z"/><path d="M234.63,369.56a.88.88,0,0,1-.44-.12l-11.32-6.55a.86.86,0,0,1-.43-.75.89.89,0,0,1,.43-.75l4.18-2.4a.87.87,0,0,1,.87,0l11.32,6.54a.85.85,0,0,1,.43.75.84.84,0,0,1-.43.74l-4.18,2.42A.85.85,0,0,1,234.63,369.56Zm-9.6-7.42,9.6,5.56,2.45-1.42-9.6-5.54Z"/><path d="M163.08,342.22a.82.82,0,0,1-.43-.12l-11.32-6.53a.86.86,0,0,1-.32-1.18l6.11-10.59a.85.85,0,0,1,.52-.41.9.9,0,0,1,.66.09L169.62,330a.87.87,0,0,1,.32,1.18l-6.11,10.57A.88.88,0,0,1,163.08,342.22Zm-10.14-7.72,9.82,5.68L168,331.1l-9.83-5.69Z"/><path d="M163.08,342.22a.9.9,0,0,1-.61-.25.88.88,0,0,1-.14-1.05l6.11-10.57a.84.84,0,0,1,.31-.31l4.18-2.42a.88.88,0,0,1,1,.13.89.89,0,0,1,.14,1.05L168,339.37a.86.86,0,0,1-.32.31l-4.18,2.42A.82.82,0,0,1,163.08,342.22Zm6.74-10.8L165.44,339l1.19-.69,4.37-7.57Z"/><path d="M169.19,331.65a.88.88,0,0,1-.44-.12L157.43,325a.86.86,0,0,1-.43-.75.87.87,0,0,1,.43-.75l4.19-2.4a.85.85,0,0,1,.86,0l11.32,6.54a.86.86,0,0,1,0,1.49l-4.18,2.42A.82.82,0,0,1,169.19,331.65Zm-9.6-7.42,9.6,5.55,2.45-1.42-9.6-5.54Z"/><path d="M208.75,368.72a.82.82,0,0,1-.43-.12l-37.53-21.71a.86.86,0,0,1-.31-1.18l6.11-10.58a.85.85,0,0,1,.52-.41,1,1,0,0,1,.66.09l37.52,21.72a.88.88,0,0,1,.32,1.18l-6.11,10.58a.89.89,0,0,1-.53.4A.83.83,0,0,1,208.75,368.72ZM172.4,345.83l36,20.84,5.25-9.07-36-20.86Z"/><path d="M208.75,368.72a.87.87,0,0,1-.75-1.3l6.11-10.57a.89.89,0,0,1,.32-.32l4.17-2.41a.88.88,0,0,1,1.05.13.89.89,0,0,1,.14,1.05l-6.11,10.57a.86.86,0,0,1-.32.31l-4.18,2.42A.82.82,0,0,1,208.75,368.72Zm6.74-10.81-4.38,7.58,1.19-.69,4.37-7.57Z"/><path d="M214.86,358.15a.82.82,0,0,1-.43-.12L176.9,336.3a.85.85,0,0,1-.43-.74.87.87,0,0,1,.43-.75l4.18-2.4a.85.85,0,0,1,.87,0l37.52,21.71a.86.86,0,0,1,0,1.49L215.29,358A.82.82,0,0,1,214.86,358.15Zm-35.8-22.59,35.8,20.72,2.45-1.42-35.8-20.71Z"/><path d="M276.2,239.33a1,1,0,0,1-.44-.11L172.93,179.13a.86.86,0,0,1,0-1.49l63.38-36.88.87,1.49-62.1,36.14L276.2,237.47,358,189.68,300.86,156l.88-1.49,58.36,34.42a.86.86,0,0,1,0,1.49l-83.46,48.79A1,1,0,0,1,276.2,239.33Z"/><path d="M275.13,54.37a47.57,47.57,0,0,1-20.88-5.12,38,38,0,0,1-10.86-8,1.81,1.81,0,0,1-.2-.25,17.87,17.87,0,0,1-4.85-9.55,11.41,11.41,0,0,1-.1-1.41V30c0-3.95,2-7.27,5.77-9.59,8.19-5,22.41-4.29,34.57,1.84a37.28,37.28,0,0,1,11,8.08A18,18,0,0,1,294.48,40c0,.45.07.78.09,1.11v.37a10.85,10.85,0,0,1-5.29,9.27C285.67,53.18,280.66,54.37,275.13,54.37ZM257.87,18.88c-5.33,0-9.9,1.14-13,3-3.24,2-4.95,4.8-4.95,8.12v.06a9.94,9.94,0,0,0,.08,1.2,16.45,16.45,0,0,0,4.5,8.71l.2.24A36.54,36.54,0,0,0,255,47.71c13.38,6.73,26.88,5.91,33.3,1.62a9.2,9.2,0,0,0,4.52-7.83v-.33c0-.25,0-.56-.07-.87a16.25,16.25,0,0,0-4.49-8.79,35.85,35.85,0,0,0-10.47-7.7A44.8,44.8,0,0,0,257.87,18.88Z"/><path d="M275.11,73.68a47.32,47.32,0,0,1-20.86-5.17,37.9,37.9,0,0,1-11-8.08,18.13,18.13,0,0,1-4.93-9.67,10.94,10.94,0,0,1-.1-1.38V30.08a.87.87,0,0,1,1.73,0,9.94,9.94,0,0,0,.08,1.2,16.45,16.45,0,0,0,4.5,8.71l.2.24A36.54,36.54,0,0,0,255,47.71c13.38,6.73,26.88,5.91,33.3,1.62a9.2,9.2,0,0,0,4.52-7.83.87.87,0,0,1,1.73,0v19c.11,4-1.83,7.38-5.59,9.76S280.47,73.68,275.11,73.68ZM240,36.51V49.38a9.46,9.46,0,0,0,.08,1.17,16.41,16.41,0,0,0,4.5,8.71A36,36,0,0,0,255,67c13.13,6.61,26.56,5.91,33,1.8,3.22-2,4.87-4.9,4.78-8.28V47.3a12.43,12.43,0,0,1-3.56,3.47c-8,5.32-22.71,4.69-35-1.52a38,38,0,0,1-10.86-8,1.81,1.81,0,0,1-.2-.25A21.44,21.44,0,0,1,240,36.51Z"/><rect x="292.41" y="184" width="54.95" height="1.73" transform="matrix(0.87, -0.5, 0.5, 0.87, -49.58, 184.86)"/><rect x="292.71" y="208" width="50.32" height="1.73" transform="matrix(0.87, -0.5, 0.5, 0.87, -61.85, 187.07)"/><rect x="293.09" y="232.58" width="43.55" height="1.73" transform="translate(-74.56 188.86) rotate(-30.02)"/><rect x="293.38" y="256.61" width="38.85" height="1.73" transform="matrix(0.87, -0.5, 0.5, 0.87, -86.85, 191.06)"/><rect x="294.04" y="280.99" width="32.18" height="1.73" transform="matrix(0.87, -0.5, 0.5, 0.87, -99.41, 192.99)"/><rect x="293.83" y="305.29" width="27.56" height="1.73" transform="matrix(0.87, -0.5, 0.5, 0.87, -111.91, 194.99)"/><rect x="292.01" y="159.83" width="60.35" height="1.73" transform="matrix(0.87, -0.5, 0.5, 0.87, -37.17, 182.76)"/><path d="M212.2,247.27a6,6,0,0,1-3.77-1.33,6.08,6.08,0,0,1,7.57-9.52h0a6.09,6.09,0,0,1-3.1,10.81C212.67,247.25,212.44,247.27,212.2,247.27Zm0-10.44a4.35,4.35,0,1,0,.49,8.68,4.28,4.28,0,0,0,2.91-1.62,4.34,4.34,0,0,0-.69-6.11h0A4.33,4.33,0,0,0,212.22,236.83Z"/><path d="M212.22,227.47a4.64,4.64,0,0,1-.52-9.26,4.52,4.52,0,0,1,3.42,1h0a4.65,4.65,0,0,1,.74,6.53A4.65,4.65,0,0,1,212.22,227.47Zm0-7.57-.34,0a3,3,0,0,0-2,1.09,2.92,2.92,0,0,0,4.58,3.63,3,3,0,0,0,.62-2.15,2.93,2.93,0,0,0-1.09-2h0A2.88,2.88,0,0,0,212.23,219.9Z"/><path d="M202.14,237.83a4.61,4.61,0,0,1-2.88-1,4.64,4.64,0,0,1,2.37-8.26,4.59,4.59,0,0,1,3.42,1,4.65,4.65,0,0,1,.74,6.53,4.59,4.59,0,0,1-3.11,1.73Zm0-7.57a2,2,0,0,0-.34,0,2.85,2.85,0,0,0-1.95,1.08,2.92,2.92,0,0,0,.46,4.11,2.94,2.94,0,0,0,4.11-.47,2.92,2.92,0,0,0-2.28-4.74Z"/><path d="M223.23,233.48a3.12,3.12,0,1,1,1.94-5.56h0a3.12,3.12,0,0,1-1.94,5.56Zm0-4.51a1.39,1.39,0,0,0-.86,2.48,1.39,1.39,0,0,0,1.73-2.18h0A1.41,1.41,0,0,0,223.23,229Z"/><path d="M258.59,307.8a6,6,0,0,1-3.78-1.32,6.08,6.08,0,1,1,3.78,1.32Zm0-10.44a4.19,4.19,0,0,0-.5,0,4.29,4.29,0,1,0,.5,0Z"/><path d="M258.59,288a4.65,4.65,0,1,1,2.9-8.29h0a4.65,4.65,0,0,1-2.37,8.26A4.58,4.58,0,0,1,258.59,288Zm0-7.57a2.92,2.92,0,0,0-2.91,3.25,2.94,2.94,0,0,0,3.24,2.57,2.92,2.92,0,0,0-.33-5.82Z"/><path d="M248.52,298.36a4.65,4.65,0,1,1,3.65-1.75A4.65,4.65,0,0,1,248.52,298.36Zm0-7.57-.33,0a2.92,2.92,0,1,0,2.15.62A2.89,2.89,0,0,0,248.53,290.79Z"/><path d="M269.6,294a3.05,3.05,0,0,1-1.93-.68,3.12,3.12,0,0,1,1.59-5.54,3.13,3.13,0,0,1,3.45,2.75,3.1,3.1,0,0,1-.66,2.29A3.06,3.06,0,0,1,270,294Zm0-4.51h-.16a1.37,1.37,0,0,0-.93.52,1.34,1.34,0,0,0-.29,1,1.36,1.36,0,0,0,.51.93,1.48,1.48,0,0,0,1,.3,1.41,1.41,0,0,0,.93-.52,1.41,1.41,0,0,0-.22-2A1.43,1.43,0,0,0,269.61,289.5Z"/><path d="M257.78,16.93A46.13,46.13,0,0,1,278.2,22a36.76,36.76,0,0,1,10.72,7.89,19.66,19.66,0,0,1,3.34,4.84h0L336.47,61l38.82,22.12.2.12a13.13,13.13,0,0,1-.2,22.72l-35,186,34.53,20h0l.36.21,0,22.4v68.57l-19.8,11.38v0l-19.76-11.43L256.54,448.8v22.85l-19.8,11.42L217,471.65V450.7l-60.61-34.79L137.84,426l0,0-19.75-11.4V346h0l19.74-11.4L157.24,301l.74-.45,29.64-17.32,5.84-3.42L157.2,95.1l0-.21-.12-.07a13.26,13.26,0,0,1,0-22.66l.16-.1L197,49.24l43.42-25.08c2.68-4.63,9.34-7.23,17.41-7.23m0-5.18c-9.58,0-17.16,3.09-21.07,8.54L194.35,44.75,154.59,67.56l-.3.19-.08,0A18.46,18.46,0,0,0,152.48,98l35.18,179.23L185,278.75l-29.64,17.32-.81.49a5.12,5.12,0,0,0-1.8,1.84L134,330.81l-18.54,10.71a5.23,5.23,0,0,0-2.61,4.5v68.52a5.17,5.17,0,0,0,2.59,4.49l19.67,11.36a5.26,5.26,0,0,0,2.72.75,5.07,5.07,0,0,0,2.45-.62l16-8.67,55.5,31.86v17.94a5.2,5.2,0,0,0,2.59,4.49l19.78,11.41a5.14,5.14,0,0,0,5.18,0l19.8-11.41a5.2,5.2,0,0,0,2.59-4.49V451.79l73.93-42.68L352.82,419a5.21,5.21,0,0,0,2.59.69,5.12,5.12,0,0,0,2.52-.65l.15-.09,19.72-11.34a5.16,5.16,0,0,0,2.6-4.49V334.59l0-22.41a5.17,5.17,0,0,0-2.61-4.49l-.36-.21-.24-.13-31.11-18L380,109.05a18.32,18.32,0,0,0-1.84-30.27l-.24-.14L339.08,56.51,296.17,31a25.78,25.78,0,0,0-3.42-4.63,41.92,41.92,0,0,0-12.22-9,51.62,51.62,0,0,0-22.75-5.61Z"/></svg>