<svg id="Layer_1" data-name="Layer 1" xmlns="http://www.w3.org/2000/svg" viewBox="0 0 500 500"><path d="M207.17,477.56H189.69a14,14,0,0,1-14-14V411.13a14,14,0,0,1,14-14h1.79V351.11a.86.86,0,0,1,.44-.75.83.83,0,0,1,.86,0l12.15,7.15a.86.86,0,0,1,.42.74v38.9h1.82a14,14,0,0,1,14,14v52.46A14,14,0,0,1,207.17,477.56Zm-17.48-78.67a12.25,12.25,0,0,0-12.25,12.24v52.46a12.26,12.26,0,0,0,12.25,12.25h17.48a12.26,12.26,0,0,0,12.23-12.25V411.13a12.25,12.25,0,0,0-12.23-12.24h-2.68a.86.86,0,0,1-.86-.87V358.75l-10.42-6.13V398a.87.87,0,0,1-.86.87Z"/><path d="M208.13,470.44l-.86-1.49a11.3,11.3,0,0,0,5.63-9.76v-42a11.28,11.28,0,0,0-5.63-9.76l.87-1.5a13.06,13.06,0,0,1,6.49,11.26v42A13,13,0,0,1,208.13,470.44Z"/><path d="M189.08,470.44a13,13,0,0,1-6.5-11.25v-42a13,13,0,0,1,6.5-11.26l.86,1.5a11.32,11.32,0,0,0-5.63,9.76v42a11.32,11.32,0,0,0,5.63,9.76Z"/><rect x="192.59" y="406.67" width="1.73" height="63.03"/><rect x="202.89" y="406.67" width="1.73" height="63.03"/><path d="M148.47,444.75H131a14,14,0,0,1-14-14V378.32a14,14,0,0,1,14-14h1.82V316.55a.85.85,0,0,1,.43-.75.87.87,0,0,1,.87,0L146.23,323a.86.86,0,0,1,.43.75v40.64h1.81a14,14,0,0,1,14,14v52.45A14,14,0,0,1,148.47,444.75ZM131,366.07a12.25,12.25,0,0,0-12.24,12.25v52.45A12.25,12.25,0,0,0,131,443h17.48a12.25,12.25,0,0,0,12.23-12.25V378.32a12.25,12.25,0,0,0-12.23-12.25H145.8a.87.87,0,0,1-.87-.86v-41l-10.4-6.13v47.15a.86.86,0,0,1-.86.86Z"/><path d="M149.44,437.63l-.86-1.5a11.32,11.32,0,0,0,5.63-9.76v-42a11.32,11.32,0,0,0-5.63-9.76l.86-1.49a13,13,0,0,1,6.5,11.25v42A13,13,0,0,1,149.44,437.63Z"/><path d="M130.39,437.63a13,13,0,0,1-6.5-11.26v-42a13,13,0,0,1,6.49-11.25l.87,1.49a11.31,11.31,0,0,0-5.64,9.76v42a11.31,11.31,0,0,0,5.64,9.76Z"/><rect x="133.9" y="373.85" width="1.73" height="63.03"/><rect x="144.2" y="373.85" width="1.73" height="63.03"/><path d="M207.37,360.82a.82.82,0,0,1-.43-.12.85.85,0,0,1-.43-.75V184.82a.87.87,0,0,1,.43-.74l185.36-107a.88.88,0,0,1,.86,0,.86.86,0,0,1,.43.75v83a59.3,59.3,0,0,1-29.67,51.28l-91.86,52.75V293c0,17.18-12.1,38-27,46.45L207.8,360.7A.82.82,0,0,1,207.37,360.82Zm.87-175.5V358.47l36-20.48c14.39-8.16,26.09-28.33,26.09-44.95V264.35a.86.86,0,0,1,.44-.75l92.29-53a57.58,57.58,0,0,0,28.8-49.79V79.32Z"/><path d="M258.17,212.12a18,18,0,0,1-8.92-33.58l93.46-53.48a11.48,11.48,0,0,1,17.18,10v20.62a.87.87,0,0,1-.44.75l-92.3,53.29A17.87,17.87,0,0,1,258.17,212.12Zm90.24-86.86a9.71,9.71,0,0,0-4.84,1.3L250.11,180a16.26,16.26,0,0,0-8.17,14.09,16.23,16.23,0,0,0,24.34,14.06l91.88-53.05V135a9.79,9.79,0,0,0-9.75-9.76Z"/><path d="M207.37,360.82a.82.82,0,0,1-.43-.12L119.09,309a25.86,25.86,0,0,1-12.69-22.2V126.43a.87.87,0,0,1,1.3-.75l100.11,58.4a.87.87,0,0,1,.43.74V360a.86.86,0,0,1-.44.75A.82.82,0,0,1,207.37,360.82ZM108.12,127.93V286.77A24.13,24.13,0,0,0,120,307.48l86.55,51V185.32Zm82.39,203.7a.85.85,0,0,1-.43-.12l-5.63-3.26a.86.86,0,0,1-.43-.75V249.67a.87.87,0,0,1,.43-.75.9.9,0,0,1,.87,0l5.63,3.26a.89.89,0,0,1,.43.75v77.83a.87.87,0,0,1-.43.75A.88.88,0,0,1,190.51,331.63ZM185.75,327l3.9,2.26V253.43l-3.9-2.26Zm-12.09-5.12a.87.87,0,0,1-.44-.11l-5.63-3.25a.87.87,0,0,1-.43-.75V239.94a.89.89,0,0,1,.43-.75.9.9,0,0,1,.87,0l5.63,3.27a.85.85,0,0,1,.43.75v70.67a.88.88,0,0,1,0,.16l0,7a.87.87,0,0,1-.43.75A.86.86,0,0,1,173.66,321.88Zm-4.77-4.61,3.91,2.26v-5.31a.78.78,0,0,1,0-.16V243.7l-3.9-2.26Zm-12.07-5.11a.82.82,0,0,1-.43-.12l-5.65-3.24a.87.87,0,0,1-.44-.75V230.22a.86.86,0,0,1,.44-.75.88.88,0,0,1,.86,0l5.65,3.25a.87.87,0,0,1,.43.74V311.3a.87.87,0,0,1-.86.86ZM152,307.55,156,309.8V234L152,231.71Z"/><path d="M156.82,312.16a.82.82,0,0,1-.43-.12l-5.65-3.24a.87.87,0,0,1-.44-.75V230.22a.86.86,0,0,1,.44-.75.88.88,0,0,1,.86,0l5.65,3.25a.87.87,0,0,1,.43.74V311.3a.87.87,0,0,1-.86.86ZM152,307.55,156,309.8V234L152,231.71Z"/><path d="M173.66,321.88a.87.87,0,0,1-.44-.11l-5.63-3.25a.87.87,0,0,1-.43-.75V239.94a.89.89,0,0,1,.43-.75.9.9,0,0,1,.87,0l5.63,3.27a.85.85,0,0,1,.43.75v70.67a.88.88,0,0,1,0,.16l0,7a.87.87,0,0,1-.43.75A.86.86,0,0,1,173.66,321.88Zm-4.77-4.61,3.91,2.26v-5.3a1,1,0,0,1,0-.17V243.7l-3.9-2.26Z"/><path d="M190.51,331.63a.85.85,0,0,1-.43-.12l-5.63-3.26a.86.86,0,0,1-.43-.75V249.67a.87.87,0,0,1,.43-.75.9.9,0,0,1,.87,0l5.63,3.26a.89.89,0,0,1,.43.75v77.83a.87.87,0,0,1-.43.75A.88.88,0,0,1,190.51,331.63ZM185.75,327l3.9,2.26V253.43l-3.9-2.26Z"/><path d="M107.7,127.17l-.87-1.49,171.9-99.77a25.83,25.83,0,0,1,25.82,0l88.61,51.18-.86,1.49L303.68,27.38a24.06,24.06,0,0,0-24.08,0Z"/><path d="M287.49,45.52a9.27,9.27,0,0,1-4.56-1.11,3.73,3.73,0,0,1-2.15-3.14,3.73,3.73,0,0,1,2.15-3.13h0a10,10,0,0,1,9.12,0,3.73,3.73,0,0,1,2.15,3.13,3.73,3.73,0,0,1-2.15,3.14A9.27,9.27,0,0,1,287.49,45.52Zm0-6.75a7.58,7.58,0,0,0-3.7.87h0c-.81.47-1.28,1.06-1.28,1.63a2.15,2.15,0,0,0,1.28,1.64,8.3,8.3,0,0,0,7.4,0,2.15,2.15,0,0,0,1.28-1.64c0-.57-.47-1.16-1.28-1.63A7.58,7.58,0,0,0,287.49,38.77Z"/><path d="M304.74,53.67a9.29,9.29,0,0,1-4.57-1.11,3.37,3.37,0,0,1,0-6.27h0a10,10,0,0,1,9.13,0,3.37,3.37,0,0,1,0,6.27A9.27,9.27,0,0,1,304.74,53.67ZM301,47.79c-.82.47-1.28,1.06-1.28,1.64s.46,1.16,1.28,1.63a8.3,8.3,0,0,0,7.4,0c.81-.47,1.28-1.06,1.28-1.63s-.47-1.17-1.28-1.64a8.3,8.3,0,0,0-7.4,0Z"/><path d="M290.7,63.05a12.49,12.49,0,0,1-6.12-1.49c-1.8-1-2.79-2.47-2.79-4s1-3,2.79-4h0a13.37,13.37,0,0,1,12.25,0c1.8,1,2.79,2.47,2.79,4s-1,3-2.79,4A12.5,12.5,0,0,1,290.7,63.05ZM285.44,55a3.19,3.19,0,0,0-1.92,2.54,3.2,3.2,0,0,0,1.92,2.54,11.69,11.69,0,0,0,10.53,0,3.2,3.2,0,0,0,1.92-2.54A3.19,3.19,0,0,0,296,55a11.63,11.63,0,0,0-10.53,0Z"/><path d="M271.92,51.92a5.86,5.86,0,0,1-2.89-.7,2.34,2.34,0,0,1,0-4.33h0a6.28,6.28,0,0,1,5.78,0,2.34,2.34,0,0,1,0,4.33A5.86,5.86,0,0,1,271.92,51.92Zm0-4a4.14,4.14,0,0,0-2,.47h0c-.36.21-.59.47-.59.67s.23.47.59.68a4.6,4.6,0,0,0,4.06,0c.36-.21.59-.47.59-.68s-.23-.46-.59-.67A4.14,4.14,0,0,0,271.92,47.91Z"/><path d="M208.19,136.52a9.31,9.31,0,0,1-4.57-1.11,3.36,3.36,0,0,1,0-6.26,9.94,9.94,0,0,1,9.13,0,3.36,3.36,0,0,1,0,6.26A9.27,9.27,0,0,1,208.19,136.52Zm0-6.75a7.58,7.58,0,0,0-3.7.87,1.69,1.69,0,0,0,0,3.28,8.33,8.33,0,0,0,7.4,0,1.69,1.69,0,0,0,0-3.28A7.61,7.61,0,0,0,208.19,129.77Z"/><path d="M225.43,144.67a9.27,9.27,0,0,1-4.56-1.11,3.36,3.36,0,0,1,0-6.26h0a9.94,9.94,0,0,1,9.13,0,3.36,3.36,0,0,1,0,6.26A9.29,9.29,0,0,1,225.43,144.67Zm0-6.74a7.54,7.54,0,0,0-3.69.86h0c-.82.47-1.29,1.07-1.29,1.64s.47,1.17,1.29,1.64a8.28,8.28,0,0,0,7.39,0,1.69,1.69,0,0,0,0-3.28A7.58,7.58,0,0,0,225.43,137.93Z"/><path d="M211.4,154.06a12.46,12.46,0,0,1-6.12-1.49c-1.8-1-2.79-2.48-2.79-4s1-3,2.79-4a13.31,13.31,0,0,1,12.25,0c1.8,1,2.79,2.47,2.79,4s-1,3-2.79,4A12.5,12.5,0,0,1,211.4,154.06Zm0-9.32a10.74,10.74,0,0,0-5.26,1.25h0a2.64,2.64,0,0,0,0,5.08,11.61,11.61,0,0,0,10.52,0,2.64,2.64,0,0,0,0-5.08A10.71,10.71,0,0,0,211.4,144.74Z"/><path d="M192.62,142.93a5.93,5.93,0,0,1-2.9-.7,2.35,2.35,0,0,1,0-4.34h0a6.3,6.3,0,0,1,5.79,0,2.35,2.35,0,0,1,0,4.34A5.86,5.86,0,0,1,192.62,142.93Zm-2-3.54c-.36.2-.59.46-.59.67s.23.46.59.67a4.53,4.53,0,0,0,4.06,0c.36-.21.58-.46.58-.67s-.22-.47-.58-.67a4.53,4.53,0,0,0-4.06,0Z"/><path d="M317.84,229.79a.82.82,0,0,1-.43-.12.85.85,0,0,1-.43-.74V212.07a.85.85,0,0,1,.43-.74L368,182.11a.9.9,0,0,1,.87,0,.89.89,0,0,1,.43.75v16.85a.87.87,0,0,1-.43.75l-50.56,29.21A.82.82,0,0,1,317.84,229.79Zm.87-17.22v14.86l48.82-28.22V184.36Z"/><path d="M317.84,229.79a.82.82,0,0,1-.43-.12l-8.82-5.09a.85.85,0,0,1-.43-.75V207a.86.86,0,0,1,.43-.75L359.15,177a.88.88,0,0,1,.86,0l8.82,5.09a.89.89,0,0,1,.43.75.86.86,0,0,1-.43.75l-50.12,29v16.36a.86.86,0,0,1-.44.74A.82.82,0,0,1,317.84,229.79Zm-7.95-6.46,7.09,4.1V212.07a.85.85,0,0,1,.43-.74l49.26-28.47-7.09-4.09-49.69,28.71Z"/><path d="M247.27,267.21a.82.82,0,0,1-.43-.12.85.85,0,0,1-.43-.75V254.5a.86.86,0,0,1,.43-.75l15.39-8.88a.83.83,0,0,1,.86,0,.86.86,0,0,1,.44.74v11.85a.87.87,0,0,1-.44.75l-15.39,8.88A.82.82,0,0,1,247.27,267.21Zm.87-12.21v9.85L261.8,257v-9.85Z"/><path d="M247.27,267.21a.82.82,0,0,1-.43-.12l-6.2-3.58a.85.85,0,0,1-.43-.75V250.92a.86.86,0,0,1,.43-.75L256,241.29a.83.83,0,0,1,.86,0l6.2,3.58a.85.85,0,0,1,.43.75.84.84,0,0,1-.43.74L248.14,255v11.34a.86.86,0,0,1-.44.75A.82.82,0,0,1,247.27,267.21Zm-5.33-4.94,4.47,2.58V254.5a.86.86,0,0,1,.43-.75l14.09-8.13L256.46,243l-14.52,8.39Z"/><path d="M281,247.59a.87.87,0,0,1-.86-.87V234.88a.89.89,0,0,1,.43-.75l15.39-8.88a.83.83,0,0,1,.86,0,.86.86,0,0,1,.44.75v11.84a.87.87,0,0,1-.44.75l-15.38,8.88A.88.88,0,0,1,281,247.59Zm.87-12.21v9.85l13.66-7.89v-9.85Z"/><path d="M281,247.59a.88.88,0,0,1-.43-.12l-6.2-3.58a.85.85,0,0,1-.43-.74V231.3a.86.86,0,0,1,.43-.75l15.39-8.88a.88.88,0,0,1,.86,0l6.2,3.58a.85.85,0,0,1,.43.75.84.84,0,0,1-.43.74l-15,8.64v11.34a.87.87,0,0,1-.43.75A.88.88,0,0,1,281,247.59Zm-5.33-4.94,4.47,2.58V234.88a.89.89,0,0,1,.43-.75L294.63,226l-4.47-2.59-14.52,8.39Z"/><rect x="341.31" y="126.46" width="1.73" height="38.91" transform="translate(44.71 369.27) rotate(-60)"/><path d="M190.51,331.63a.85.85,0,0,1-.43-.12l-5.63-3.26a.86.86,0,0,1-.43-.75V249.67a.87.87,0,0,1,.43-.75.9.9,0,0,1,.87,0l5.63,3.26a.89.89,0,0,1,.43.75v77.83a.87.87,0,0,1-.43.75A.88.88,0,0,1,190.51,331.63ZM185.75,327l3.9,2.26V253.43l-3.9-2.26Z"/><path d="M190.51,331.63a.85.85,0,0,1-.43-.12l-5.63-3.26a.88.88,0,0,1-.43-.73.86.86,0,0,1,.39-.74l5.63-3.73a.82.82,0,0,1,.88,0,.86.86,0,0,1,.46.76v7a.87.87,0,0,1-.43.75A.88.88,0,0,1,190.51,331.63Zm-4-4.18,3.13,1.81v-3.88Z"/><path d="M173.66,321.88a.87.87,0,0,1-.44-.11l-5.63-3.25a.87.87,0,0,1-.43-.75V239.94a.89.89,0,0,1,.43-.75.9.9,0,0,1,.87,0l5.63,3.27a.85.85,0,0,1,.43.75V321a.87.87,0,0,1-.43.75A.86.86,0,0,1,173.66,321.88Zm-4.77-4.61,3.9,2.26V243.7l-3.9-2.26Z"/><path d="M173.66,321.88a.87.87,0,0,1-.44-.11l-5.63-3.25a.86.86,0,0,1-.43-.72.87.87,0,0,1,.39-.75l5.62-3.7a.86.86,0,0,1,1.37.69l0,7a.87.87,0,0,1-.43.75A.86.86,0,0,1,173.66,321.88Zm-4-4.16,3.13,1.81v-3.87Z"/><path d="M156.82,312.16a.82.82,0,0,1-.43-.12l-5.65-3.24a.87.87,0,0,1-.44-.75V230.22a.86.86,0,0,1,.44-.75.88.88,0,0,1,.86,0l5.65,3.25a.87.87,0,0,1,.43.74V311.3a.87.87,0,0,1-.86.86ZM152,307.55,156,309.8V234L152,231.71Z"/><path d="M156.82,312.16a.82.82,0,0,1-.43-.12l-5.65-3.24a.88.88,0,0,1-.44-.72.87.87,0,0,1,.39-.75l5.65-3.73a.86.86,0,0,1,1.34.72v7a.87.87,0,0,1-.86.86Zm-4-4.16,3.14,1.8v-3.88Z"/><path d="M291.67,23.3a24.91,24.91,0,0,1,12.45,3.33l88.61,51.18v83a58.28,58.28,0,0,1-29.25,50.53l-92.29,53V293c0,16.89-11.9,37.42-26.53,45.72L207.37,360l-2.88-1.69V398h2.68a13.1,13.1,0,0,1,13.09,13.11v52.46a13.1,13.1,0,0,1-13.09,13.11H189.68a13.09,13.09,0,0,1-13.09-13.11V411.13A13.09,13.09,0,0,1,189.68,398h2.67V351.11L145.8,323.68v41.53h2.67a13.1,13.1,0,0,1,13.11,13.11v52.46a13.1,13.1,0,0,1-13.11,13.11H131a13.1,13.1,0,0,1-13.1-13.11V378.32A13.1,13.1,0,0,1,131,365.21h2.67V316.54l-14.14-8.32a24.92,24.92,0,0,1-12.25-21.46V126.43L279.16,26.66a25,25,0,0,1,12.51-3.36m0-5.18h0a30.15,30.15,0,0,0-15.11,4.06L104.66,122a5.18,5.18,0,0,0-2.58,4.48V286.76a30.21,30.21,0,0,0,14.81,25.92l11.59,6.83V360.2a18.3,18.3,0,0,0-15.77,18.12v52.46A18.31,18.31,0,0,0,131,449.07h17.48a18.32,18.32,0,0,0,18.29-18.29V378.32A18.32,18.32,0,0,0,151,360.2V332.75l36.18,21.32V393a18.31,18.31,0,0,0-15.76,18.12v52.46a18.3,18.3,0,0,0,18.27,18.29h17.49a18.3,18.3,0,0,0,18.27-18.29V411.13A18.32,18.32,0,0,0,209.67,393V364.6l.26-.14,37.29-21.21c16.34-9.27,29.15-31.33,29.15-50.22V267.35l89.69-51.51a63.62,63.62,0,0,0,31.86-55v-83a5.2,5.2,0,0,0-2.59-4.49L306.71,22.15a30.07,30.07,0,0,0-15-4Z"/></svg>