<svg id="Layer_1" data-name="Layer 1" xmlns="http://www.w3.org/2000/svg" viewBox="0 0 500 500"><defs><style>.cls-1{fill:none;stroke:#000;stroke-linejoin:round;}</style></defs><path d="M151.37,232.27a2.59,2.59,0,0,1-1.3-.39,5.44,5.44,0,0,1-2.5-4.33,2,2,0,0,1,3.15-1.82h0a5.45,5.45,0,0,1,2.5,4.34,2.17,2.17,0,0,1-1,2A1.79,1.79,0,0,1,151.37,232.27Zm-1.94-5.62a.49.49,0,0,0-.25.06,1,1,0,0,0-.31.84,4.17,4.17,0,0,0,1.85,3.21,1,1,0,0,0,.89.15,1,1,0,0,0,.32-.84,4.16,4.16,0,0,0-1.86-3.21h0A1.3,1.3,0,0,0,149.43,226.65Z"/><path d="M152.2,242.29a2.56,2.56,0,0,1-1.3-.39,5.43,5.43,0,0,1-2.5-4.33,2,2,0,0,1,3.15-1.82,5.46,5.46,0,0,1,2.5,4.33,2.17,2.17,0,0,1-1,2A1.72,1.72,0,0,1,152.2,242.29Zm-1.95-5.62a.45.45,0,0,0-.24.05,1,1,0,0,0-.32.85,4.16,4.16,0,0,0,1.86,3.21,1,1,0,0,0,.89.15,1,1,0,0,0,.31-.85,4.19,4.19,0,0,0-1.85-3.21h0A1.45,1.45,0,0,0,150.25,236.67Z"/><path d="M145.17,239.08a3.33,3.33,0,0,1-1.67-.5,7.24,7.24,0,0,1-3.32-5.75,2.46,2.46,0,0,1,4-2.3h0a7.25,7.25,0,0,1,3.33,5.76,2.72,2.72,0,0,1-1.21,2.51A2.17,2.17,0,0,1,145.17,239.08Zm-2.68-7.75a.88.88,0,0,0-.46.12,1.52,1.52,0,0,0-.55,1.38,6,6,0,0,0,2.67,4.63,1.52,1.52,0,0,0,1.48.21,1.54,1.54,0,0,0,.55-1.38,6,6,0,0,0-2.68-4.63h0A2,2,0,0,0,142.49,231.33Z"/><path d="M143.33,226.08a1.77,1.77,0,0,1-.91-.27,3.48,3.48,0,0,1-1.62-2.8,1.43,1.43,0,0,1,2.27-1.32h0a3.54,3.54,0,0,1,1.62,2.81,1.53,1.53,0,0,1-.7,1.4A1.28,1.28,0,0,1,143.33,226.08Zm-1.16-3.35h0a.52.52,0,0,0-.05.28,2.22,2.22,0,0,0,1,1.68c.16.09.25.1.27.09a.56.56,0,0,0,0-.28,2.2,2.2,0,0,0-1-1.68h0A.48.48,0,0,0,142.17,222.73Z"/><path d="M177.64,158.9a2.59,2.59,0,0,1-1.3-.39,5.44,5.44,0,0,1-2.5-4.33,2,2,0,0,1,3.15-1.82h0a5.47,5.47,0,0,1,2.5,4.34,2.18,2.18,0,0,1-1,2A1.82,1.82,0,0,1,177.64,158.9Zm-1.95-5.62a.48.48,0,0,0-.24.06,1,1,0,0,0-.31.84,4.15,4.15,0,0,0,1.85,3.21.7.7,0,0,0,1.2-.69,4.17,4.17,0,0,0-1.85-3.21h0A1.36,1.36,0,0,0,175.69,153.28Z"/><path d="M178.46,168.92a2.59,2.59,0,0,1-1.3-.39,5.46,5.46,0,0,1-2.5-4.33,2,2,0,0,1,3.15-1.82,5.43,5.43,0,0,1,2.5,4.33,2.17,2.17,0,0,1-1,2A1.7,1.7,0,0,1,178.46,168.92Zm-1.94-5.62a.49.49,0,0,0-.25,0,1,1,0,0,0-.31.85,4.17,4.17,0,0,0,1.85,3.21.94.94,0,0,0,.89.15,1,1,0,0,0,.32-.85,4.17,4.17,0,0,0-1.86-3.21A1.42,1.42,0,0,0,176.52,163.3Z"/><path d="M171.44,165.71a3.27,3.27,0,0,1-1.67-.5,7.25,7.25,0,0,1-3.33-5.75,2.47,2.47,0,0,1,4-2.3h0a7.27,7.27,0,0,1,3.32,5.76,2.69,2.69,0,0,1-1.2,2.5A2.11,2.11,0,0,1,171.44,165.71ZM168.75,158a.84.84,0,0,0-.45.12,1.53,1.53,0,0,0-.56,1.38,6,6,0,0,0,2.68,4.63,1.21,1.21,0,0,0,2-1.17,6,6,0,0,0-2.68-4.63h0A2.06,2.06,0,0,0,168.75,158Z"/><path d="M169.59,152.71a1.76,1.76,0,0,1-.9-.27,3.52,3.52,0,0,1-1.62-2.8,1.55,1.55,0,0,1,.7-1.41,1.59,1.59,0,0,1,1.57.09h0a3.52,3.52,0,0,1,1.62,2.81,1.54,1.54,0,0,1-.71,1.4A1.26,1.26,0,0,1,169.59,152.71Zm-1.16-3.35h0a.68.68,0,0,0,0,.28,2.23,2.23,0,0,0,1,1.68.55.55,0,0,0,.27.09.56.56,0,0,0,0-.28,2.22,2.22,0,0,0-1-1.68A.51.51,0,0,0,168.43,149.36Z"/><path d="M250,460.84a.62.62,0,0,1-.32-.09.66.66,0,0,1-.33-.56V183.36a.65.65,0,0,1,.32-.57L374,111a.63.63,0,0,1,.65,0,.64.64,0,0,1,.32.56V388.42a.65.65,0,0,1-.32.56l-17.77,10.25a.61.61,0,0,1-.64,0,.63.63,0,0,1-.33-.56v-9.13l-87.49,50.52v9.88a.64.64,0,0,1-.33.56l-17.75,10.25A.66.66,0,0,1,250,460.84Zm.65-277.11V459.06l16.46-9.5v-9.88a.65.65,0,0,1,.32-.56l88.8-51.26a.61.61,0,0,1,.64,0,.63.63,0,0,1,.33.56v9.13L373.67,388V112.73Z"/><path class="cls-1" d="M125.7,111.59V388.41l17.76,10.26V388.41l88.79,51.28v10.24L250,460.18V183.35ZM228.91,246.78,223.85,244V192l5.06,2.78,12.36-7.13v5.7L237,195.87V193l-2.55,1.48-2.27,1.31v46.25l4.13-2.39.69-.4v-2.85l4.28-2.47v5.71l-9,5.21Z"/><path d="M250,184a.66.66,0,0,1-.33-.09L125.37,112.16a.65.65,0,0,1,0-1.12L249.68,39.25a.63.63,0,0,1,.65,0L374.65,111a.65.65,0,0,1,0,1.12L250.33,183.92A.62.62,0,0,1,250,184ZM127,111.6l123,71,123-71-123-71Z"/><path d="M250,255.78a.62.62,0,0,1-.32-.09.64.64,0,0,1-.33-.56V183.36a.64.64,0,0,1,.33-.57l8.9-5.11a.63.63,0,0,1,.65,0,.65.65,0,0,1,.32.56V250a.63.63,0,0,1-.33.56l-8.9,5.14A.62.62,0,0,1,250,255.78Zm.65-72.05V254l7.6-4.39V179.36Z"/><path d="M250,440.32a.61.61,0,0,1-.32-.08L125.38,368.47a.64.64,0,0,1-.33-.57l0-184.56a.64.64,0,0,1,1-.57l98.19,56.7a.65.65,0,0,1,.33.56v3.59l4.4,2.41,3-1.73a.63.63,0,0,1,.65,0l17.77,10.26a.65.65,0,0,1,.32.57V439.68a.63.63,0,0,1-.65.64ZM126.35,367.53l123,71,0-183-17.13-9.89-3,1.73a.66.66,0,0,1-.64,0l-5.06-2.78a.64.64,0,0,1-.34-.57v-3.6l-96.88-55.94Z"/><path d="M250,440.32a.66.66,0,0,1-.33-.09.64.64,0,0,1-.32-.56l0-184.54a.63.63,0,0,1,.33-.56l8.9-5.14a.61.61,0,0,1,.64,0,.63.63,0,0,1,.33.56V434.54a.68.68,0,0,1-.33.57l-8.92,5.12A.62.62,0,0,1,250,440.32Zm.67-184.82,0,183.05,7.62-4.38V251.11Z"/><path d="M250,184a.66.66,0,0,1-.33-.09L125.37,112.16a.65.65,0,0,1,0-1.12l8.88-5.14a.63.63,0,0,1,.65,0l124.33,71.78a.64.64,0,0,1,.33.56.66.66,0,0,1-.33.57l-8.9,5.11A.62.62,0,0,1,250,184ZM127,111.6l123,71,7.6-4.37-123-71Z"/><path d="M228.9,411.13a.62.62,0,0,1-.32-.09.65.65,0,0,1-.33-.56V267.31a.66.66,0,0,1,.33-.56l12.36-7.13a.61.61,0,0,1,.64,0,.63.63,0,0,1,.33.56v5.71a.64.64,0,0,1-.33.56l-4.28,2.47a.63.63,0,0,1-.65,0,.64.64,0,0,1-.32-.56v-1.73l-3.53,2v136l3.53-2v-2.48a.64.64,0,0,1,.32-.56l4.28-2.47a.63.63,0,0,1,.65,0,.65.65,0,0,1,.33.56v5.71a.66.66,0,0,1-.33.56L229.23,411A.66.66,0,0,1,228.9,411.13Zm.65-143.44V409.36L240.61,403v-4.21l-3,1.72V403a.66.66,0,0,1-.33.57l-4.82,2.78a.63.63,0,0,1-.65,0,.65.65,0,0,1-.33-.56V268.29a.66.66,0,0,1,.33-.56l4.82-2.78a.63.63,0,0,1,.65,0,.65.65,0,0,1,.33.56v1.73l3-1.73V261.3Zm11.71-1.8h0Z"/><path d="M228.9,411.13a.68.68,0,0,1-.31-.08l-5.07-2.78a.64.64,0,0,1-.33-.57V264.53a.66.66,0,0,1,.31-.56.66.66,0,0,1,.65,0l5.06,2.78a.66.66,0,0,1,.34.57V410.48a.65.65,0,0,1-.32.56A.63.63,0,0,1,228.9,411.13Zm-4.42-3.82,3.77,2.07V267.7l-3.77-2.07Z"/><path d="M228.9,268a.58.58,0,0,1-.31-.08l-5.07-2.78a.65.65,0,0,1-.33-.56.63.63,0,0,1,.32-.57l12.36-7.14a.66.66,0,0,1,.64,0l5.06,2.78a.64.64,0,0,1,0,1.13l-12.35,7.14A.76.76,0,0,1,228.9,268Zm-3.74-3.44,3.73,2.05,11.05-6.38-3.74-2.05Z"/><path d="M237,400.76a.74.74,0,0,1-.35-.1l-4.73-3a.65.65,0,0,1,0-1.11l3.94-2.28a.64.64,0,0,1,.63,0l5.07,2.79a.64.64,0,0,1,0,1.13l-4.28,2.47A.62.62,0,0,1,237,400.76Zm-3.47-3.61,3.48,2.2,2.95-1.7-3.74-2Z"/><path d="M236.28,404a.66.66,0,0,1-.33-.09l-4-2.33a.64.64,0,0,1-.33-.56v-3.91a.65.65,0,0,1,1-.55l4.72,3a.65.65,0,0,1,.31.55V403a.66.66,0,0,1-.33.57l-.7.4A.62.62,0,0,1,236.28,404ZM237,403h0Zm-4.08-2.29,3.38,1.95.05,0v-2.12l-3.43-2.16Z"/><path d="M237,269a.68.68,0,0,1-.31-.08l-2.56-1.37a.7.7,0,0,1-.34-.57.65.65,0,0,1,.33-.57l2.55-1.47a.63.63,0,0,1,.65,0,.65.65,0,0,1,.33.56v2.85a.65.65,0,0,1-.65.65ZM235.75,267l.58.31v-.64Z"/><path d="M228.91,247.43a.62.62,0,0,1-.32-.09.66.66,0,0,1-.33-.56v-52a.66.66,0,0,1,.33-.56L241,187.13a.61.61,0,0,1,.64,0,.65.65,0,0,1,.33.56v5.7a.66.66,0,0,1-.33.56l-4.28,2.48a.65.65,0,0,1-1-.56v-1.73l-3.52,2v44.75l3.52-2v-2.48a.65.65,0,0,1,.32-.57l4.29-2.46a.61.61,0,0,1,.64,0,.65.65,0,0,1,.33.56v5.71a.65.65,0,0,1-.33.56l-12.35,7.13A.66.66,0,0,1,228.91,247.43Zm.65-52.24v50.46l11.06-6.37v-4.22l-3,1.72v2.48a.64.64,0,0,1-.32.56l-4.82,2.79a.64.64,0,0,1-1-.56V195.8a.64.64,0,0,1,.33-.56l4.81-2.79a.63.63,0,0,1,.65,0,.64.64,0,0,1,.32.56v1.73l3-1.73v-4.2Z"/><path d="M228.91,247.43a.68.68,0,0,1-.31-.08l-5.06-2.78a.64.64,0,0,1-.34-.57V192a.65.65,0,0,1,.32-.56.64.64,0,0,1,.64,0l5.06,2.78a.64.64,0,0,1,.34.56v52a.65.65,0,0,1-.32.56A.63.63,0,0,1,228.91,247.43Zm-4.41-3.81,3.76,2.06V195.2l-3.76-2.07Z"/><path d="M228.91,195.46a.58.58,0,0,1-.31-.08l-5.06-2.77a.65.65,0,0,1-.34-.57.64.64,0,0,1,.32-.56l12.36-7.14a.64.64,0,0,1,.64,0l5.06,2.79a.64.64,0,0,1,0,1.13l-12.35,7.13A.76.76,0,0,1,228.91,195.46ZM225.17,192l3.73,2,11-6.37-3.74-2.06Z"/><path d="M237,237.05a.64.64,0,0,1-.35-.1l-4.72-3a.64.64,0,0,1-.31-.56.67.67,0,0,1,.33-.55l3.94-2.28a.64.64,0,0,1,.64,0l5.06,2.79a.65.65,0,0,1,.34.56.63.63,0,0,1-.33.57L237.31,237A.61.61,0,0,1,237,237.05Zm-3.47-3.59,3.48,2.19L240,234l-3.74-2.06Z"/><path d="M236.3,240.31a.76.76,0,0,1-.33-.08l-4-2.33a.65.65,0,0,1-.33-.56v-3.91a.64.64,0,0,1,.34-.56.65.65,0,0,1,.66,0l4.72,3a.63.63,0,0,1,.3.55v2.85a.64.64,0,0,1-.32.56l-.68.41A.8.8,0,0,1,236.3,240.31ZM232.91,237l3.38,1.94.05,0v-2.13l-3.43-2.15Z"/><path d="M237,196.52a.65.65,0,0,1-.31-.08l-2.55-1.38a.68.68,0,0,1-.34-.56.65.65,0,0,1,.33-.57l2.54-1.48a.63.63,0,0,1,.65,0,.64.64,0,0,1,.32.56v2.86a.63.63,0,0,1-.31.55A.58.58,0,0,1,237,196.52Zm-1.22-2.05.57.31v-.64Z"/><path d="M325.68,383.42a.67.67,0,0,1-.34-.09.65.65,0,0,1-.31-.55l0-3.18a.64.64,0,0,1,.36-.58l39.81-19.91a.66.66,0,0,1,.64,0,.63.63,0,0,1,.3.56l0,3.2a.64.64,0,0,1-.36.58L326,383.36A.72.72,0,0,1,325.68,383.42Zm.62-3.42,0,1.73,38.46-19.23,0-1.75Zm39.13-17.1h0Z"/><path d="M365.43,363.55a.54.54,0,0,1-.22,0l-3.69-1.35a.66.66,0,0,1-.43-.58.65.65,0,0,1,.36-.61l3.71-1.86a.66.66,0,0,1,.64,0,.63.63,0,0,1,.3.56l0,3.2a.64.64,0,0,1-.28.53A.63.63,0,0,1,365.43,363.55Zm-2.05-2.09,1.41.51v-1.22Z"/><path d="M325.68,371.41a.67.67,0,0,1-.34-.1.65.65,0,0,1-.31-.55l0-3.17a.66.66,0,0,1,.36-.59l39.81-19.91a.66.66,0,0,1,.64,0,.63.63,0,0,1,.3.56l0,3.21a.64.64,0,0,1-.36.57L326,371.34A.73.73,0,0,1,325.68,371.41Zm.62-3.43,0,1.73,38.46-19.23,0-1.75Zm39.13-17.1h0Z"/><path d="M365.43,351.53a.54.54,0,0,1-.22,0l-3.69-1.35a.65.65,0,0,1-.43-.57.66.66,0,0,1,.36-.62l3.71-1.86a.66.66,0,0,1,.64,0,.63.63,0,0,1,.3.56l0,3.21a.64.64,0,0,1-.28.52A.63.63,0,0,1,365.43,351.53Zm-2.05-2.09,1.41.51v-1.22Z"/><path d="M325.68,359.39a.59.59,0,0,1-.34-.1.63.63,0,0,1-.31-.55l0-3.17a.66.66,0,0,1,.36-.59l39.81-19.91a.64.64,0,0,1,.64,0,.61.61,0,0,1,.3.55l0,3.21a.64.64,0,0,1-.36.57L326,359.32A.73.73,0,0,1,325.68,359.39Zm.62-3.43,0,1.73,38.46-19.23,0-1.75Zm39.13-17.1h0Z"/><path d="M365.43,339.51a.54.54,0,0,1-.22,0l-3.69-1.35a.65.65,0,0,1-.43-.57.67.67,0,0,1,.36-.62l3.71-1.86a.64.64,0,0,1,.64,0,.61.61,0,0,1,.3.55l0,3.21a.66.66,0,0,1-.28.53A.7.7,0,0,1,365.43,339.51Zm-2.05-2.09,1.41.52v-1.23Z"/><path d="M325.68,347.37a.64.64,0,0,1-.65-.64l0-3.18a.66.66,0,0,1,.36-.59l39.81-19.9a.66.66,0,0,1,.64,0,.63.63,0,0,1,.3.55l0,3.21a.66.66,0,0,1-.36.58L326,347.3A.59.59,0,0,1,325.68,347.37Zm.62-3.43,0,1.74,38.46-19.24,0-1.75Zm39.13-17.09h0Z"/><path d="M365.43,327.49a.54.54,0,0,1-.22,0l-3.69-1.35a.64.64,0,0,1-.43-.57.67.67,0,0,1,.36-.62l3.71-1.85a.66.66,0,0,1,.64,0,.63.63,0,0,1,.3.55l0,3.21a.66.66,0,0,1-.28.53A.7.7,0,0,1,365.43,327.49Zm-2.05-2.09,1.41.52v-1.23Z"/><path d="M325.68,335.35a.64.64,0,0,1-.65-.64l0-3.18a.67.67,0,0,1,.36-.59L365.16,311a.66.66,0,0,1,.64,0,.63.63,0,0,1,.3.55l0,3.21a.64.64,0,0,1-.36.58L326,335.28A.59.59,0,0,1,325.68,335.35Zm.62-3.43,0,1.74,38.46-19.24,0-1.75Zm39.13-17.09h0Z"/><path d="M365.43,315.48a.78.78,0,0,1-.22,0l-3.69-1.35a.66.66,0,0,1-.43-.58.64.64,0,0,1,.36-.61l3.71-1.86a.66.66,0,0,1,.64,0,.63.63,0,0,1,.3.55l0,3.21a.66.66,0,0,1-.28.53A.63.63,0,0,1,365.43,315.48Zm-2.05-2.1,1.41.52v-1.23Z"/><path d="M171.05,307a.68.68,0,0,1-.33-.09l-26.2-15.37a.65.65,0,0,1-.32-.56l-.14-30.68a.66.66,0,0,1,.33-.57.66.66,0,0,1,.65,0l26.34,15.56a.64.64,0,0,1,.32.56v30.5a.64.64,0,0,1-.33.57A.72.72,0,0,1,171.05,307ZM145.5,290.6l24.9,14.62v-29l-25-14.79Z"/><path d="M162.62,253.18a.63.63,0,0,1-.33-.09l-14.67-8.72a.65.65,0,0,1-.32-.56l-.08-30.65a.65.65,0,0,1,.33-.56.63.63,0,0,1,.66,0L163,221.47a.62.62,0,0,1,.32.55v30.51a.66.66,0,0,1-.33.57A.72.72,0,0,1,162.62,253.18Zm-14-9.74L162,251.39v-29l-13.45-8.08Z"/><path d="M161,267.34a2.65,2.65,0,0,1-1.3-.38,5.44,5.44,0,0,1-2.51-4.33,2,2,0,0,1,3.15-1.82h0a5.44,5.44,0,0,1,2.51,4.33,2.15,2.15,0,0,1-1,2A1.65,1.65,0,0,1,161,267.34Zm-1.95-5.62a.43.43,0,0,0-.24.06,1,1,0,0,0-.32.85,4.17,4.17,0,0,0,1.85,3.21,1,1,0,0,0,.89.15,1,1,0,0,0,.32-.85,4.17,4.17,0,0,0-1.85-3.21h0A1.36,1.36,0,0,0,159.09,261.72Z"/><path d="M161.86,277.36a2.68,2.68,0,0,1-1.3-.38,5.46,5.46,0,0,1-2.5-4.33,2.19,2.19,0,0,1,1-2,2.16,2.16,0,0,1,2.19.16h0a5.46,5.46,0,0,1,2.5,4.33,2.17,2.17,0,0,1-1,2A1.82,1.82,0,0,1,161.86,277.36Zm-2-5.62a.48.48,0,0,0-.24.06c-.2.11-.31.43-.31.85a4.11,4.11,0,0,0,1.85,3.2,1,1,0,0,0,.89.16,1,1,0,0,0,.31-.85,4.17,4.17,0,0,0-1.85-3.21h0A1.36,1.36,0,0,0,159.91,271.74Z"/><path d="M154.83,274.16a3.37,3.37,0,0,1-1.66-.5,7.25,7.25,0,0,1-3.33-5.76,2.46,2.46,0,0,1,4-2.29h0a7.24,7.24,0,0,1,3.32,5.76,2.73,2.73,0,0,1-1.2,2.5A2.24,2.24,0,0,1,154.83,274.16Zm-2.68-7.75a1,1,0,0,0-.46.11,1.54,1.54,0,0,0-.55,1.38,6,6,0,0,0,2.68,4.64,1.2,1.2,0,0,0,2-1.17,6,6,0,0,0-2.67-4.64A2.14,2.14,0,0,0,152.15,266.41Z"/><path d="M153,261.15a1.91,1.91,0,0,1-.91-.26,3.49,3.49,0,0,1-1.62-2.81,1.55,1.55,0,0,1,.71-1.4,1.52,1.52,0,0,1,1.56.09,3.46,3.46,0,0,1,1.62,2.81,1.54,1.54,0,0,1-.7,1.4A1.35,1.35,0,0,1,153,261.15Zm-1.16-3.35h0a.5.5,0,0,0-.05.27,2.22,2.22,0,0,0,1,1.69.41.41,0,0,0,.28.08.65.65,0,0,0,.05-.27,2.23,2.23,0,0,0-1-1.69A.61.61,0,0,0,151.83,257.8Z"/><path d="M250,39.81,374.32,111.6V388.42l-17.76,10.25V388.42l-88.79,51.26v10.26L250,460.19V439.66h0v20.53l-17.76-10.25V439.68l-88.79-51.26v10.25L125.7,388.42V367.91h0l0-184.57,0,0V111.6l8.87-5.14h0L250,39.81m0,215.32v0h0m0-219.21a3.85,3.85,0,0,0-1.95.52l-115.15,66.5a2,2,0,0,0-.29.15l-8.88,5.14a3.9,3.9,0,0,0-1.94,3.37V183c0,.12,0,.25,0,.38l0,184.57v20.51a3.88,3.88,0,0,0,2,3.37L141.51,402a3.89,3.89,0,0,0,5.84-3.37v-3.51l81,46.77v8a3.9,3.9,0,0,0,1.94,3.38l17.76,10.25a3.91,3.91,0,0,0,1.26.46,4,4,0,0,0,.69.06,3.88,3.88,0,0,0,2-.52l17.76-10.25a3.9,3.9,0,0,0,1.94-3.37v-8l81-46.77v3.51a3.88,3.88,0,0,0,5.84,3.37l17.76-10.25a3.88,3.88,0,0,0,2-3.37V111.6a3.88,3.88,0,0,0-2-3.37L252,36.44a3.84,3.84,0,0,0-1.94-.52Z"/></svg>