<svg id="Layer_1" data-name="Layer 1" xmlns="http://www.w3.org/2000/svg" viewBox="0 0 500 500"><defs><style>.cls-1{fill:none;stroke:#000;stroke-linecap:round;stroke-linejoin:round;}</style></defs><path d="M252,474.72a.71.71,0,0,1-.28-.06.81.81,0,0,1-.53-.74V239a.81.81,0,0,1,.5-.75l145.66-84a.89.89,0,0,1,.85,0,.8.8,0,0,1,.45.67l.7,234.49a.84.84,0,0,1-.41.71l-16.33,9.39a.81.81,0,0,1-.8,0,.8.8,0,0,1-.41-.7v-8l-6.92,4-.1,0L269.11,455.58v8.93a.8.8,0,0,1-.4.7l-16.25,9.39a.58.58,0,0,1-.25.09A.63.63,0,0,1,252,474.72Zm.79-235.29,0,233.09,14.67-8.47v-8.93a.8.8,0,0,1,.4-.7l105.77-61.1.1-.05,8.05-4.64a.77.77,0,0,1,.8,0,.81.81,0,0,1,.41.7v8l14.71-8.46-.69-232.64Z"/><path class="cls-1" d="M252,285.93V239h0L107,154.83l-1.46,63.85,7.2-4.12,8.15,4.69-8.12,4.7,8.11,4.66L234.8,294.44h0l8.13-4.7v9.39l-8.13,4.71-3.15,1.81L106.49,233.34l-.74,118.53-.11,18.74-.12,18.72,16.32,9.39v-9.39l8.08,4.66h0l105.83,61.13v9.39L252,473.9h0V455.1Zm-27.38-39c.42-4.92,3.3-7.44,6.44-5.63l1.75,1c2.88,1.66,5,6.39,5,10.95,0,.41,0,.83,0,1.23-.44,4.84-3.23,7.36-6.29,5.71a.65.65,0,0,1-.17-.08l-1.75-1c-2.86-1.65-4.94-6.36-4.94-10.93C224.59,247.75,224.6,247.33,224.64,246.91ZM197.83,233c0-.42,0-.84,0-1.26.42-4.93,3.31-7.44,6.44-5.64l1.71,1,.05,0c2.87,1.66,4.95,6.39,4.95,11,0,.4,0,.82-.05,1.22-.43,4.85-3.22,7.36-6.29,5.72l-.16-.08-1.76-1C199.91,242.26,197.83,237.55,197.83,233ZM171.08,217.8c0-.42,0-.84,0-1.26.42-4.92,3.31-7.44,6.46-5.63l1.71,1,0,0c2.87,1.66,5,6.39,5,10.95,0,.41,0,.83-.05,1.23-.44,4.84-3.23,7.36-6.3,5.71a.79.79,0,0,1-.16-.08l-1.76-1C173.16,227.08,171.08,222.37,171.08,217.8Zm-26.76-15.35c0-.42,0-.84.05-1.26.42-4.92,3.31-7.45,6.45-5.64l1.75,1,.11.08a.06.06,0,0,1,0,0c2.81,1.74,4.79,6.37,4.79,10.86,0,.4,0,.82-.05,1.23-.43,4.89-3.29,7.4-6.4,5.64h0l-1.76-1C146.4,211.72,144.32,207,144.32,202.45ZM119,192.64l-1-.56a6.83,6.83,0,0,1-2.41-2.73,8.25,8.25,0,0,1-1-3.79c0-2.5,1.52-3.67,3.41-2.57l1,.6a.24.24,0,0,1,.09.06s0,0,0,0a6.74,6.74,0,0,1,2.26,2.64,8.47,8.47,0,0,1,1,3.79c0,2.5-1.52,3.66-3.4,2.56Zm12.86,7.94-1.05-.6a6.75,6.75,0,0,1-2.42-2.72,8.55,8.55,0,0,1-1-3.8c0-2.5,1.53-3.66,3.42-2.58l1.05.62a6.45,6.45,0,0,1,2.4,2.72,8.42,8.42,0,0,1,1,3.8c0,2.45-1.46,3.61-3.3,2.61Z"/><path d="M252,455.92a.8.8,0,0,1-.4-.11L105.1,371.22a.8.8,0,0,1-.4-.7V351.73a.8.8,0,0,1,.4-.7.79.79,0,0,1,.81,0l146.52,84.59a.81.81,0,0,1,.4.7v18.79a.8.8,0,0,1-.4.7A.87.87,0,0,1,252,455.92ZM106.31,370.06l144.91,83.66V436.79L106.31,353.12Z"/><path d="M220.79,428.49a.87.87,0,0,1-.41-.11l-7-4a.8.8,0,0,1,.81-1.39l7,4a.81.81,0,0,1-.4,1.51Zm-14-8.07a.8.8,0,0,1-.4-.11l-7-4a.8.8,0,0,1-.3-1.1.81.81,0,0,1,1.11-.29l7,4a.81.81,0,0,1-.4,1.51Zm-14-8.07a.86.86,0,0,1-.4-.11l-7-4a.81.81,0,0,1,.81-1.4l7,4a.81.81,0,0,1,.29,1.11A.82.82,0,0,1,192.83,412.35Zm-14-8.07a.77.77,0,0,1-.41-.11l-7-4a.81.81,0,1,1,.8-1.4l7,4a.8.8,0,0,1,.3,1.1A.81.81,0,0,1,178.86,404.28Zm-14-8.07a.73.73,0,0,1-.4-.11l-7-4a.79.79,0,0,1-.29-1.1.8.8,0,0,1,1.1-.3l7,4a.8.8,0,0,1-.41,1.5Zm-14-8.07a.77.77,0,0,1-.41-.11l-7-4a.81.81,0,0,1,.8-1.4l7,4a.8.8,0,0,1-.4,1.5Zm-14-8.07a.82.82,0,0,1-.4-.1l-7-4a.79.79,0,0,1-.29-1.1.8.8,0,0,1,1.1-.3l7,4a.8.8,0,0,1-.4,1.5Z"/><path d="M243.89,423a.87.87,0,0,1-.41-.11l-130.22-75.2a.78.78,0,0,1-.4-.69V243.66a.8.8,0,0,1,.4-.7.83.83,0,0,1,.81,0l130.22,75.18a.78.78,0,0,1,.4.69V422.22a.8.8,0,0,1-.4.7A.86.86,0,0,1,243.89,423ZM114.47,346.56l128.61,74.26V319.3L114.47,245.06Z"/><path d="M231.67,306.46a.82.82,0,0,1-.81-.81v-9.39a.82.82,0,0,1,.41-.7l3.13-1.82.1-.05,8.05-4.65a.81.81,0,0,1,1.21.7v9.39a.8.8,0,0,1-.4.7l-11.29,6.52A.8.8,0,0,1,231.67,306.46Zm.81-9.74v7.54l9.67-5.59v-7.53l-6.93,4-.1.05Z"/><path d="M120.86,229.42a.87.87,0,0,1-.41-.11l-8.1-4.66a.81.81,0,0,1-.4-.7.8.8,0,0,1,.4-.7l8.12-4.7a.81.81,0,0,1,1.21.7l0,9.36a.8.8,0,0,1-.4.7A.86.86,0,0,1,120.86,229.42ZM114.37,224l5.68,3.27v-6.57Z"/><path d="M234.82,295.24a.78.78,0,0,1-.42-.11l-8.14-4.72a.85.85,0,0,1-.4-.7.81.81,0,0,1,.41-.7l8.13-4.66a.79.79,0,0,1,.81,0l8.15,4.69a.83.83,0,0,1,.4.7.82.82,0,0,1-.4.7l-8.14,4.69A.71.71,0,0,1,234.82,295.24Zm-6.54-5.53,6.53,3.8,6.53-3.77L234.8,286Z"/><path d="M231.67,306.46a.8.8,0,0,1-.4-.11L101.06,231.13a.8.8,0,0,1-.41-.69V221a.81.81,0,0,1,.41-.7.77.77,0,0,1,.8,0l130.22,75.23a.83.83,0,0,1,.4.7v9.39a.82.82,0,0,1-.4.7A.87.87,0,0,1,231.67,306.46ZM102.27,230l4.63,2.67,124,71.61v-7.52l-128.59-74.3Z"/><path d="M252,455.92a.81.81,0,0,1-.8-.81l0-168.7-144.27-83.3a.79.79,0,0,1-.29-1.1.8.8,0,0,1,1.1-.29L252,285l7.75-4.46a.81.81,0,0,1,.8,0,.8.8,0,0,1,.41.7V450.42a.82.82,0,0,1-.41.7l-8.13,4.69A.87.87,0,0,1,252,455.92Zm.79-169.51,0,167.31,6.52-3.77V282.65Z"/><path d="M382.23,399.52a.86.86,0,0,1-.41-.1l-8.15-4.69a.8.8,0,0,1,0-1.4l8.15-4.71a.83.83,0,0,1,.81,0,.81.81,0,0,1,.4.7v9.4a.81.81,0,0,1-.4.7A.79.79,0,0,1,382.23,399.52ZM375.69,394l5.73,3.29v-6.6Z"/><path d="M121.85,399.52a.86.86,0,0,1-.41-.1.81.81,0,0,1-.4-.7v-9.4a.8.8,0,0,1,.4-.7.83.83,0,0,1,.81,0l8.1,4.68a.78.78,0,0,1,.4.69.8.8,0,0,1-.4.7l-8.1,4.72A.71.71,0,0,1,121.85,399.52Zm.8-8.8v6.59l5.69-3.31Z"/><path d="M379.21,373.1a.87.87,0,0,1-.41-.11.8.8,0,0,1-.4-.7V334.64a.8.8,0,0,1,.41-.7l3-1.71a.8.8,0,0,1,1.2.7v37.59a.81.81,0,0,1-.4.7l-3,1.77A.8.8,0,0,1,379.21,373.1Zm.8-38v35.77l1.41-.82V334.32Zm2.22,35.41h0Z"/><path d="M379.21,373.1a.87.87,0,0,1-.41-.11.8.8,0,0,1-.4-.7v-3.51a.8.8,0,0,1,.4-.7.79.79,0,0,1,.81,0l3,1.74a.81.81,0,0,1,.4.7.79.79,0,0,1-.4.7l-3,1.77A.8.8,0,0,1,379.21,373.1Zm.8-2.92v.7l.61-.35Z"/><path d="M371.09,377.81a.82.82,0,0,1-.81-.81V339.35a.81.81,0,0,1,.41-.7l3-1.71a.81.81,0,0,1,.81,0,.83.83,0,0,1,.4.7v37.59a.81.81,0,0,1-.4.7l-3,1.77A.87.87,0,0,1,371.09,377.81Zm.81-38v35.77l1.4-.82V339Zm2.21,35.41h0Z"/><path d="M371.09,377.81a.82.82,0,0,1-.81-.81v-3.51a.81.81,0,0,1,.41-.7.77.77,0,0,1,.8,0l3,1.74a.82.82,0,0,1,.41.7.81.81,0,0,1-.4.7l-3,1.77A.87.87,0,0,1,371.09,377.81Zm.81-2.93v.71l.6-.35Z"/><path d="M363,382.51a.82.82,0,0,1-.81-.81V344.05a.81.81,0,0,1,.41-.7l3-1.71a.81.81,0,0,1,1.21.7v37.59a.81.81,0,0,1-.4.7l-3,1.77A.87.87,0,0,1,363,382.51Zm.81-38v35.77l1.4-.82V343.72ZM366,379.93h0Z"/><path d="M363,382.51a.82.82,0,0,1-.81-.81v-3.51a.81.81,0,0,1,.41-.7.77.77,0,0,1,.8,0l3,1.74a.82.82,0,0,1,.41.7.81.81,0,0,1-.4.7l-3,1.77A.87.87,0,0,1,363,382.51Zm.81-2.93v.71l.61-.35Z"/><path d="M354.81,387.2a.79.79,0,0,1-.4-.1.81.81,0,0,1-.4-.7V348.75a.8.8,0,0,1,.4-.7l3-1.71a.79.79,0,0,1,.81,0,.8.8,0,0,1,.4.7v37.59a.78.78,0,0,1-.4.69l-3,1.77A.77.77,0,0,1,354.81,387.2Zm.81-38V385l1.41-.82V348.42Zm2.21,35.41h0Z"/><path d="M354.81,387.2a.79.79,0,0,1-.4-.1.81.81,0,0,1-.4-.7v-3.51a.8.8,0,0,1,.4-.7.79.79,0,0,1,.81,0l3,1.74a.8.8,0,0,1,0,1.39l-3,1.77A.77.77,0,0,1,354.81,387.2Zm.81-2.92V385l.61-.36Z"/><path d="M346.67,391.9a.79.79,0,0,1-.4-.1.82.82,0,0,1-.4-.7V353.45a.79.79,0,0,1,.41-.7l3-1.71a.77.77,0,0,1,.8,0,.8.8,0,0,1,.4.7v37.59a.79.79,0,0,1-.4.69l-3,1.77A.77.77,0,0,1,346.67,391.9Zm.81-38v35.77l1.41-.83V353.12Zm2.21,35.41h0Z"/><path d="M346.67,391.9a.79.79,0,0,1-.4-.1.82.82,0,0,1-.4-.7v-3.52a.79.79,0,0,1,.4-.69.79.79,0,0,1,.81,0l3,1.74a.8.8,0,0,1,0,1.39l-3,1.77A.77.77,0,0,1,346.67,391.9Zm.81-2.92v.71l.61-.36Z"/><path d="M338.53,396.6a.85.85,0,0,1-.4-.1.82.82,0,0,1-.4-.7V358.15a.79.79,0,0,1,.41-.7l3-1.72a.81.81,0,0,1,1.2.7V394a.79.79,0,0,1-.4.69l-3,1.77A.74.74,0,0,1,338.53,396.6Zm.81-38v35.77l1.41-.83V357.82ZM341.56,394h0Z"/><path d="M338.53,396.6a.85.85,0,0,1-.4-.1.82.82,0,0,1-.4-.7v-3.52a.81.81,0,0,1,.4-.7.83.83,0,0,1,.81,0l3,1.75a.8.8,0,0,1,0,1.39l-3,1.77A.74.74,0,0,1,338.53,396.6Zm.81-2.92v.71L340,394Z"/><path d="M235.2,262.6a4.84,4.84,0,0,1-2.41-.69l-1.75-1a.81.81,0,0,1,.79-1.41,2.63,2.63,0,0,0,2.61.12c1.34-.72,2.27-2.66,2.5-5.19,0-.38,0-.77,0-1.16,0-4.34-1.95-8.75-4.55-10.26a.79.79,0,0,1-.33-1,.81.81,0,0,1,1-.44,1.73,1.73,0,0,1,.34.17l1.73,1c3.09,1.78,5.34,6.67,5.34,11.62,0,.44,0,.88-.05,1.32-.28,3.16-1.51,5.53-3.38,6.5A4,4,0,0,1,235.2,262.6Zm3.1-12.46a17,17,0,0,1,.29,3.11c0,.43,0,.87-.05,1.3-.27,3.09-1.47,5.43-3.28,6.44a2.36,2.36,0,0,0,1.06-.28c1.35-.7,2.29-2.65,2.52-5.2,0-.39,0-.79,0-1.19A15.35,15.35,0,0,0,238.3,250.14Z"/><path d="M234.76,261.15a.81.81,0,0,1-.37-1.53c1.36-.69,2.32-2.64,2.55-5.21,0-.38,0-.77,0-1.16a15.7,15.7,0,0,0-.49-3.82.81.81,0,1,1,1.56-.4,17,17,0,0,1,.54,4.22c0,.43,0,.87-.05,1.3-.28,3.17-1.53,5.54-3.41,6.51A.81.81,0,0,1,234.76,261.15Zm-7-2.8a.81.81,0,0,1-.61-.28,15.21,15.21,0,0,1-3.19-7.8.8.8,0,0,1,.7-.91.81.81,0,0,1,.9.7,13.75,13.75,0,0,0,2.82,7,.82.82,0,0,1-.1,1.14A.78.78,0,0,1,227.72,258.35Zm5.43-15.05a.86.86,0,0,1-.46-.14,2.26,2.26,0,0,0-.26-.16l-1.76-1a3.17,3.17,0,0,0-1.6-.48h0a2.91,2.91,0,0,0-2.31,1.36.81.81,0,0,1-1.31-.94,4.46,4.46,0,0,1,3.62-2,4.61,4.61,0,0,1,2.41.69l1.76,1,.36.22a.81.81,0,0,1-.45,1.48Z"/><path d="M238.07,267.65a.81.81,0,0,1-.29-1.56c1.86-.7,3.35-2.79,4.1-5.72a.81.81,0,0,1,1.56.4c-.89,3.5-2.7,5.92-5.09,6.83A.92.92,0,0,1,238.07,267.65Zm-7.47-2.12a.81.81,0,0,1-.39-.1,14.74,14.74,0,0,1-5.49-6.38.81.81,0,1,1,1.45-.72A13.32,13.32,0,0,0,231,264a.84.84,0,0,1,.33,1.12A.82.82,0,0,1,230.6,265.53Zm2.71-4h0a4.71,4.71,0,0,1-2.24-.6s-.15-.07-.21-.11l-1.73-1a10.37,10.37,0,0,1-4-5.05.81.81,0,1,1,1.49-.63,8.8,8.8,0,0,0,3.33,4.29l1.76,1a3.4,3.4,0,0,0,1.61.48h0a2.36,2.36,0,0,0,1.37-.43.81.81,0,0,1,.9,1.34A4,4,0,0,1,233.31,261.5Zm4.47-7.86a.81.81,0,0,1-.8-.78,15.14,15.14,0,0,0-2.08-7.28.8.8,0,0,1,.26-1.11.81.81,0,0,1,1.11.27,16.72,16.72,0,0,1,2.32,8.07.81.81,0,0,1-.78.83Zm5.24-.28a.81.81,0,0,1-.8-.7,23.72,23.72,0,0,0-2.21-7.44.81.81,0,1,1,1.44-.72,25.3,25.3,0,0,1,2.37,7.95.8.8,0,0,1-.69.91Zm-19.86-1.57a.8.8,0,0,1-.8-.7,24.38,24.38,0,0,1-.21-3.18c0-.66,0-1.33.08-2a20,20,0,0,1,.53-3.16.81.81,0,0,1,1-.58.79.79,0,0,1,.58,1,18.15,18.15,0,0,0-.48,2.89c0,.6-.07,1.23-.07,1.85a22.89,22.89,0,0,0,.19,3,.82.82,0,0,1-.7.91Zm1.52-4.45h-.1a.81.81,0,0,1-.71-.89c.46-4,2.5-6.55,5.2-6.55l.09.81,0,.8h0c-1.84,0-3.28,2.06-3.63,5.12A.82.82,0,0,1,224.68,247.34Zm10.95-7.64a.87.87,0,0,1-.41-.11L232.53,238a4.74,4.74,0,0,0-4.08-.54.81.81,0,0,1-.55-1.52,6.37,6.37,0,0,1,5.43.66l2.7,1.55a.81.81,0,0,1,.3,1.1A.82.82,0,0,1,235.63,239.7Z"/><path d="M208.45,247.41a4.85,4.85,0,0,1-2.42-.69l-1.75-1a.8.8,0,0,1,.79-1.4,2.65,2.65,0,0,0,2.62.11c1.33-.72,2.26-2.66,2.49-5.19,0-.37,0-.77,0-1.15,0-4.35-1.95-8.76-4.55-10.26a.81.81,0,0,1,.66-1.47,2.29,2.29,0,0,1,.35.17l1.72,1c3.1,1.78,5.34,6.67,5.34,11.62,0,.44,0,.88-.05,1.32-.28,3.17-1.51,5.53-3.38,6.5A3.94,3.94,0,0,1,208.45,247.41Zm3.1-12.46a17.09,17.09,0,0,1,.29,3.12c0,.42,0,.86-.05,1.29-.28,3.1-1.48,5.44-3.29,6.44a2.28,2.28,0,0,0,1.07-.28c1.35-.7,2.29-2.65,2.51-5.2,0-.39,0-.79,0-1.19A15.74,15.74,0,0,0,211.55,235Z"/><path d="M208,246a.8.8,0,0,1-.72-.44.81.81,0,0,1,.35-1.09c1.36-.69,2.31-2.64,2.54-5.21,0-.37,0-.77,0-1.15a15.17,15.17,0,0,0-.49-3.82.81.81,0,0,1,1.57-.4,17,17,0,0,1,.54,4.22c0,.42,0,.86-.05,1.29-.29,3.18-1.53,5.55-3.42,6.51A.77.77,0,0,1,208,246Zm-7-2.8a.78.78,0,0,1-.61-.28,15.26,15.26,0,0,1-3.19-7.8.81.81,0,0,1,.7-.9.8.8,0,0,1,.9.7,13.72,13.72,0,0,0,2.82,7,.81.81,0,0,1-.09,1.14A.82.82,0,0,1,201,243.16Zm5.43-15a.75.75,0,0,1-.45-.14l-.27-.16-1.75-1a3.28,3.28,0,0,0-1.6-.47,2.93,2.93,0,0,0-2.32,1.36.81.81,0,0,1-1.13.18.8.8,0,0,1-.18-1.12,4.37,4.37,0,0,1,6-1.34l1.71,1c.18.1.29.18.41.26a.8.8,0,0,1-.45,1.47Z"/><path d="M211.31,252.46a.81.81,0,0,1-.28-1.56c1.85-.7,3.35-2.78,4.1-5.71a.81.81,0,0,1,1.56.4c-.89,3.5-2.7,5.92-5.09,6.82A.74.74,0,0,1,211.31,252.46Zm-7.47-2.11a.76.76,0,0,1-.38-.11,14.64,14.64,0,0,1-5.5-6.38.81.81,0,0,1,1.45-.72,13.26,13.26,0,0,0,4.8,5.67.85.85,0,0,1,.32,1.12A.82.82,0,0,1,203.84,250.35Zm2.7-4a4.67,4.67,0,0,1-2.23-.6,1.59,1.59,0,0,1-.24-.13l-1.7-1a10.43,10.43,0,0,1-4-5.05.81.81,0,0,1,1.49-.63,8.87,8.87,0,0,0,3.33,4.28l1.76,1a2.58,2.58,0,0,0,3,0,.81.81,0,0,1,.9,1.34A4,4,0,0,1,206.54,246.32Zm4.49-7.86a.81.81,0,0,1-.81-.79,15,15,0,0,0-2.08-7.27.81.81,0,0,1,1.38-.85,16.79,16.79,0,0,1,2.31,8.08.81.81,0,0,1-.78.83Zm5.24-.27a.81.81,0,0,1-.79-.71,24.09,24.09,0,0,0-2.23-7.44.81.81,0,0,1,.37-1.08.8.8,0,0,1,1.08.36,25.64,25.64,0,0,1,2.38,8,.82.82,0,0,1-.7.9Zm-19.87-1.58a.81.81,0,0,1-.8-.71,24.31,24.31,0,0,1-.2-3.17c0-.67,0-1.34.08-2a18.28,18.28,0,0,1,.53-3.16.8.8,0,0,1,1-.58.82.82,0,0,1,.58,1,16.92,16.92,0,0,0-.48,2.89c-.05.6-.08,1.22-.08,1.85a22.89,22.89,0,0,0,.19,3,.8.8,0,0,1-.7.9Zm1.52-4.46h-.09a.8.8,0,0,1-.71-.9c.45-4,2.49-6.55,5.2-6.55l.08.81-.05.81c-1.83,0-3.28,2.05-3.63,5.12A.81.81,0,0,1,197.92,232.15Zm11-7.64a.71.71,0,0,1-.4-.11l-2.7-1.54a4.71,4.71,0,0,0-4.08-.54.81.81,0,0,1-.55-1.52,6.35,6.35,0,0,1,5.44.66l2.69,1.55a.8.8,0,0,1-.4,1.5Z"/><path d="M181.69,232.23a4.84,4.84,0,0,1-2.41-.69l-1.75-1a.81.81,0,0,1,.79-1.41,2.63,2.63,0,0,0,2.61.11c1.33-.71,2.27-2.65,2.49-5.18,0-.38.05-.77.05-1.16,0-4.34-2-8.75-4.55-10.26a.8.8,0,0,1,.68-1.45,1.37,1.37,0,0,1,.32.16l1.73,1C184.74,214.11,187,219,187,224c0,.44,0,.88-.05,1.32-.27,3.15-1.5,5.52-3.37,6.49A4,4,0,0,1,181.69,232.23Zm3.1-12.46a16.9,16.9,0,0,1,.29,3.11c0,.43,0,.87-.05,1.29-.28,3.1-1.47,5.44-3.28,6.44a2.46,2.46,0,0,0,1.07-.27c1.35-.71,2.29-2.66,2.51-5.2,0-.39,0-.79,0-1.19A15.74,15.74,0,0,0,184.79,219.77Z"/><path d="M181.25,230.77a.83.83,0,0,1-.72-.43.82.82,0,0,1,.35-1.09c1.36-.7,2.31-2.65,2.54-5.21,0-.38.05-.77.05-1.16a15.7,15.7,0,0,0-.49-3.82.81.81,0,1,1,1.56-.4,17,17,0,0,1,.54,4.22c0,.43,0,.87-.05,1.29-.28,3.18-1.53,5.55-3.41,6.52A.8.8,0,0,1,181.25,230.77Zm-7-2.79a.84.84,0,0,1-.62-.28,15.38,15.38,0,0,1-3.19-7.8.81.81,0,0,1,1.61-.21,13.87,13.87,0,0,0,2.81,7,.81.81,0,0,1-.09,1.14A.8.8,0,0,1,174.21,228Zm5.42-15a.85.85,0,0,1-.45-.14l-.27-.17-1.74-1a3.2,3.2,0,0,0-1.6-.48,2.91,2.91,0,0,0-2.32,1.36.81.81,0,1,1-1.31-.94,4.39,4.39,0,0,1,6-1.34l1.72,1,.39.24a.81.81,0,0,1-.46,1.48Z"/><path d="M184.55,237.28a.81.81,0,0,1-.29-1.56c1.86-.7,3.36-2.78,4.11-5.71a.8.8,0,0,1,1-.58.82.82,0,0,1,.58,1c-.9,3.49-2.71,5.91-5.1,6.81A.92.92,0,0,1,184.55,237.28Zm-7.86-2.23a14.6,14.6,0,0,1-5.49-6.39.79.79,0,0,1,.37-1.07.8.8,0,0,1,1.08.36,13.24,13.24,0,0,0,4.8,5.68Zm3.1-3.92a4.68,4.68,0,0,1-2.24-.6.77.77,0,0,1-.24-.13l-1.7-1a10.37,10.37,0,0,1-4-5,.8.8,0,1,1,1.48-.62,8.8,8.8,0,0,0,3.34,4.27l1.76,1a2.59,2.59,0,0,0,3,.05.81.81,0,0,1,.9,1.34A4.07,4.07,0,0,1,179.79,231.13Zm4.48-7.86a.82.82,0,0,1-.81-.79,15.13,15.13,0,0,0-2.07-7.27.8.8,0,0,1,.26-1.11.81.81,0,0,1,1.11.26,16.8,16.8,0,0,1,2.32,8.08.81.81,0,0,1-.79.83Zm5.25-.26a.81.81,0,0,1-.8-.7,23.87,23.87,0,0,0-2.22-7.45.81.81,0,1,1,1.45-.71,25.23,25.23,0,0,1,2.37,7.95.81.81,0,0,1-.69.91Zm-19.88-1.6a.81.81,0,0,1-.8-.71,25.91,25.91,0,0,1-.2-3.16c0-.66,0-1.33.08-2a18.86,18.86,0,0,1,.54-3.17.81.81,0,0,1,1.56.4,18.26,18.26,0,0,0-.49,2.9c-.05.6-.08,1.23-.08,1.85a24.77,24.77,0,0,0,.19,3,.79.79,0,0,1-.69.9Zm1.52-4.45h-.09a.81.81,0,0,1-.71-.89c.46-4,2.5-6.55,5.21-6.55l.08.81-.05.8c-1.84,0-3.29,2.06-3.64,5.12A.79.79,0,0,1,171.16,217Zm11-7.63a.83.83,0,0,1-.4-.11L179,207.67a4.8,4.8,0,0,0-4.07-.55.8.8,0,1,1-.55-1.51,6.34,6.34,0,0,1,5.42.66l2.71,1.55a.81.81,0,0,1-.4,1.51Z"/><path d="M155,216.87a4.76,4.76,0,0,1-2.42-.7l-1.75-1a2.92,2.92,0,0,1-.28-.21.81.81,0,0,1-.08-1.06.8.8,0,0,1,1-.22,2.68,2.68,0,0,0,2.69.18c1.35-.71,2.29-2.65,2.52-5.2,0-.37,0-.77,0-1.15,0-4.24-1.89-8.61-4.41-10.18a.81.81,0,0,1,.83-1.38l1.75,1c3.1,1.79,5.35,6.67,5.35,11.63,0,.44,0,.88,0,1.32-.27,3.16-1.5,5.53-3.38,6.51A4,4,0,0,1,155,216.87ZM158,204.39a17.2,17.2,0,0,1,.3,3.13c0,.42,0,.87-.05,1.29-.28,3.11-1.48,5.45-3.31,6.45a2.58,2.58,0,0,0,1.09-.27c1.35-.71,2.29-2.66,2.51-5.21,0-.4.05-.8.05-1.19A15.44,15.44,0,0,0,158,204.39Z"/><path d="M154.49,215.41a.81.81,0,0,1-.72-.44.82.82,0,0,1,.35-1.09c1.37-.69,2.32-2.64,2.55-5.2,0-.38,0-.78,0-1.16a15.21,15.21,0,0,0-.48-3.82.81.81,0,0,1,1.56-.4,17,17,0,0,1,.54,4.22c0,.42,0,.87-.05,1.29-.29,3.18-1.53,5.55-3.43,6.51A.77.77,0,0,1,154.49,215.41Zm-7.05-2.8a.78.78,0,0,1-.61-.28,15.42,15.42,0,0,1-3.19-7.81.81.81,0,1,1,1.6-.2,14,14,0,0,0,2.82,7,.8.8,0,0,1-.1,1.13A.78.78,0,0,1,147.44,212.61Zm5.45-15a.82.82,0,0,1-.45-.14,1.07,1.07,0,0,1-.32-.2l-1.7-1a3.35,3.35,0,0,0-1.61-.47,2.92,2.92,0,0,0-2.31,1.36.81.81,0,0,1-1.31-.95,4.48,4.48,0,0,1,3.62-2,4.31,4.31,0,0,1,2.41.69l1.75,1,.1.06.08,0,.18.12a.81.81,0,0,1-.44,1.48Z"/><path d="M157.78,221.92a.81.81,0,0,1-.76-.52.82.82,0,0,1,.47-1c1.86-.69,3.36-2.77,4.12-5.69a.81.81,0,0,1,1.56.4c-.9,3.5-2.72,5.91-5.11,6.8A.69.69,0,0,1,157.78,221.92Zm-7.47-2.12a.75.75,0,0,1-.38-.1,14.61,14.61,0,0,1-5.49-6.41.79.79,0,0,1,.37-1.07.8.8,0,0,1,1.08.36,13.31,13.31,0,0,0,4.8,5.7.81.81,0,0,1,.32,1.1A.8.8,0,0,1,150.31,219.8Zm2.72-4a4.72,4.72,0,0,1-2.3-.63l-.11,0-1.76-1a10.48,10.48,0,0,1-4-5.07.81.81,0,0,1,1.49-.62,8.84,8.84,0,0,0,3.33,4.29l1.7,1,.1,0a2.68,2.68,0,0,0,2.95,0,.81.81,0,0,1,1.12.22.82.82,0,0,1-.23,1.12A4.07,4.07,0,0,1,153,215.76Zm4.48-7.86a.8.8,0,0,1-.8-.78,15.14,15.14,0,0,0-2.07-7.28A.8.8,0,1,1,156,199a16.69,16.69,0,0,1,2.31,8.07.81.81,0,0,1-.78.83Zm5.26-.24a.8.8,0,0,1-.8-.7,23.87,23.87,0,0,0-2.22-7.45.81.81,0,0,1,.37-1.08.82.82,0,0,1,1.08.37,25.65,25.65,0,0,1,2.37,7.95.82.82,0,0,1-.7.91ZM142.89,206a.8.8,0,0,1-.8-.71,24,24,0,0,1-.21-3.15c0-.67,0-1.34.09-2a19,19,0,0,1,.54-3.18.81.81,0,0,1,1.56.4,18.18,18.18,0,0,0-.5,2.91c0,.6-.07,1.22-.07,1.85a22.7,22.7,0,0,0,.19,2.95.81.81,0,0,1-.7.9Zm1.52-4.43h-.1a.79.79,0,0,1-.7-.89c.45-4,2.5-6.55,5.21-6.55l.07.8,0,.81c-1.83,0-3.28,2.06-3.63,5.12A.82.82,0,0,1,144.41,201.61Zm11-7.63a.76.76,0,0,1-.4-.11l-2.7-1.56a4.72,4.72,0,0,0-4.07-.55.81.81,0,1,1-.54-1.52,6.35,6.35,0,0,1,5.42.67l2.7,1.56a.81.81,0,0,1-.41,1.51Z"/><path d="M134.34,202.46a3.52,3.52,0,0,1-1.77-.52l-1-.61a.82.82,0,0,1-.3-1.1.81.81,0,0,1,1.09-.31,1.43,1.43,0,0,0,1.36.14,2.39,2.39,0,0,0,.76-2.05,7.75,7.75,0,0,0-.91-3.42,5.69,5.69,0,0,0-2.09-2.39.81.81,0,0,1,.73-1.44l.06,0,.14.08,1,.59a7.48,7.48,0,0,1,2.71,3,9,9,0,0,1,1.1,4.17,3.8,3.8,0,0,1-1.58,3.45A2.56,2.56,0,0,1,134.34,202.46Z"/><path d="M133.19,201.8a3.53,3.53,0,0,1-1.65-.46l-1.16-.65a7.63,7.63,0,0,1-2.74-3.06,9.29,9.29,0,0,1-1.09-4.17,3.8,3.8,0,0,1,1.59-3.45,3,3,0,0,1,3,.17l1.06.62a7.19,7.19,0,0,1,2.71,3A9.29,9.29,0,0,1,136,198a3.79,3.79,0,0,1-1.55,3.43A2.5,2.5,0,0,1,133.19,201.8Zm-3.76-10.52a.94.94,0,0,0-.48.13,2.32,2.32,0,0,0-.78,2.05,7.55,7.55,0,0,0,.91,3.42,6,6,0,0,0,2.11,2.41l1,.59a1.51,1.51,0,0,0,1.44.18,2.39,2.39,0,0,0,.76-2.05,7.75,7.75,0,0,0-.91-3.42,5.69,5.69,0,0,0-2.09-2.39l-1.06-.62A2,2,0,0,0,129.43,191.28Z"/><path d="M121.52,194.56a3.53,3.53,0,0,1-1.76-.53l-1.05-.59a2.56,2.56,0,0,1-.26-.2.8.8,0,0,1,1-1.26,1.48,1.48,0,0,0,1.42.18,2.32,2.32,0,0,0,.77-2,7.66,7.66,0,0,0-.9-3.42,6,6,0,0,0-2-2.32.8.8,0,0,1-.27-1.1.81.81,0,0,1,1.09-.29l1,.57a7.53,7.53,0,0,1,2.74,3,9.36,9.36,0,0,1,1.09,4.17,3.79,3.79,0,0,1-1.59,3.45A2.58,2.58,0,0,1,121.52,194.56Z"/><path d="M120.38,193.9a3.54,3.54,0,0,1-1.77-.53l-1-.59a7.53,7.53,0,0,1-2.72-3.06,8.91,8.91,0,0,1-1.09-4.16,3.79,3.79,0,0,1,1.58-3.46,3,3,0,0,1,3,.19l1,.6.09.05.14.09a7.66,7.66,0,0,1,2.5,2.91,9.33,9.33,0,0,1,1.09,4.17,3.8,3.8,0,0,1-1.58,3.45A2.57,2.57,0,0,1,120.38,193.9Zm-3.77-10.52a1,1,0,0,0-.47.12,2.36,2.36,0,0,0-.77,2.06,7.43,7.43,0,0,0,.9,3.41,6.1,6.1,0,0,0,2.1,2.41l1,.56a1.52,1.52,0,0,0,1.48.22,2.32,2.32,0,0,0,.77-2,7.66,7.66,0,0,0-.9-3.42,6,6,0,0,0-2-2.32l0,0-.09-.07-1-.59A2,2,0,0,0,116.61,183.38Z"/><path d="M372.59,170.21a.87.87,0,0,1-.41-.11.8.8,0,0,1-.4-.7V124.61a.8.8,0,0,1,.4-.7l25.18-14.54a.77.77,0,0,1,.8,0,.8.8,0,0,1,.41.69v44.82a.82.82,0,0,1-.41.7L373,170.1A.86.86,0,0,1,372.59,170.21Zm.8-45.14V168L397,154.41V111.46Z"/><path d="M107,155.64a.81.81,0,0,1-.41-1.51L226.73,84.37a.81.81,0,1,1,.81,1.4L107.38,155.53A.83.83,0,0,1,107,155.64Z"/><path d="M397.83,155.63a.71.71,0,0,1-.32-.07l-.1-.05a.82.82,0,0,1-.38-1.08.81.81,0,0,1,1.08-.37.85.85,0,0,1,.42,1.1A.79.79,0,0,1,397.83,155.63Z"/><path d="M372.59,170.44a.87.87,0,0,1-.41-.11.81.81,0,0,1-.4-.7v-.23a.78.78,0,0,1,.4-.69l25.18-14.53a.81.81,0,0,1,1.21.7v.21a.82.82,0,0,1-.41.7L373,170.33A.86.86,0,0,1,372.59,170.44Z"/><path d="M372.59,125.41a.77.77,0,0,1-.41-.11l-145.45-84a.8.8,0,0,1,0-1.39l25.2-14.54a.77.77,0,0,1,.8,0l145.43,84a.79.79,0,0,1,0,1.39L373,125.3A.76.76,0,0,1,372.59,125.41ZM228.75,40.63l143.84,83,23.56-13.61L252.33,27Z"/><path d="M372.39,170.32a.71.71,0,0,1-.4-.11L226.73,86.36a.82.82,0,0,1-.4-.69v-45a.82.82,0,0,1,.4-.7.79.79,0,0,1,.81,0l145.45,84a.8.8,0,0,1,.4.7V169.4a.81.81,0,0,1-.4.7l-.19.11A.77.77,0,0,1,372.39,170.32ZM227.94,85.2l143.84,83V125.07L227.94,42Z"/><path d="M372.59,170.44a.87.87,0,0,1-.41-.11l-.19-.12a.81.81,0,0,1-.41-.69.83.83,0,0,1,.4-.7l.2-.11a.8.8,0,0,1,1.21.69v.23a.81.81,0,0,1-.4.7A.86.86,0,0,1,372.59,170.44Z"/><path d="M363.21,158.17a.77.77,0,0,1-.41-.11L231.56,82.29a.8.8,0,0,1-.3-1.1.81.81,0,0,1,1.11-.29l131.24,75.77a.8.8,0,0,1,.3,1.1A.81.81,0,0,1,363.21,158.17Z"/><path d="M363.21,151a.77.77,0,0,1-.41-.11L231.56,75.12a.81.81,0,0,1-.3-1.1.82.82,0,0,1,1.11-.3L363.61,149.5a.8.8,0,0,1,.3,1.1A.81.81,0,0,1,363.21,151Z"/><path d="M363.21,143.83a.87.87,0,0,1-.41-.11L231.56,68a.81.81,0,1,1,.81-1.4l131.24,75.77a.81.81,0,0,1,.3,1.1A.82.82,0,0,1,363.21,143.83Z"/><path d="M363.21,136.66a.71.71,0,0,1-.4-.11L250.73,71.84a.79.79,0,0,1-.29-1.1.8.8,0,0,1,1.1-.3l112.07,64.72a.8.8,0,0,1-.4,1.5Z"/><path d="M251.12,72a.8.8,0,0,1-.4-.11L231.56,60.77a.79.79,0,0,1-.29-1.1.81.81,0,0,1,1.1-.3l19.15,11.07a.81.81,0,0,1-.4,1.51Z"/><path d="M363.21,129.48a.77.77,0,0,1-.41-.11L231.56,53.6a.81.81,0,0,1-.3-1.1.82.82,0,0,1,1.11-.3L363.61,128a.8.8,0,0,1,.3,1.1A.81.81,0,0,1,363.21,129.48Z"/><path d="M237.61,202.36a11.9,11.9,0,0,1-6-1.44L229,199.35a4.48,4.48,0,0,1-2.5-3.86c0-1.8,1.32-3.57,3.58-4.86,3.84-2.18,10.1-2.38,13.44-.39l2.61,1.56a4.5,4.5,0,0,1,2.51,3.88c0,1.8-1.32,3.56-3.57,4.84h0A15.47,15.47,0,0,1,237.61,202.36Zm-.13-12a13.69,13.69,0,0,0-6.62,1.63c-1.75,1-2.76,2.25-2.77,3.47a3,3,0,0,0,1.72,2.46l2.61,1.56a10.35,10.35,0,0,0,5.19,1.21,13.88,13.88,0,0,0,6.64-1.62c1.74-1,2.75-2.25,2.76-3.46a3,3,0,0,0-1.73-2.47l-2.61-1.57A10.35,10.35,0,0,0,237.48,190.41Zm7.17,9.41h0Z"/><path d="M238.45,219.53a11.81,11.81,0,0,1-6-1.44l-35.6-21.27a5.54,5.54,0,0,1-2-1.92,3.8,3.8,0,0,1-.36-2.93,6.78,6.78,0,0,1,3.41-3.81l31.86-18c4-2.27,9.87-2.45,13.31-.39L278.72,191h0a4.7,4.7,0,0,1,2.44,3.21A4.34,4.34,0,0,1,280,197.8a8.4,8.4,0,0,1-2.36,1.9l-31.86,18A15.34,15.34,0,0,1,238.45,219.53ZM237.17,170a13.74,13.74,0,0,0-6.57,1.61l-31.85,18a5.24,5.24,0,0,0-2.66,2.83,2.16,2.16,0,0,0,.22,1.7,3.84,3.84,0,0,0,1.4,1.33l35.6,21.27c2.93,1.77,8.18,1.58,11.7-.41l31.85-18a6.86,6.86,0,0,0,1.92-1.54,2.77,2.77,0,0,0,.79-2.24,3.2,3.2,0,0,0-1.67-2.09l-35.6-21.27A10.22,10.22,0,0,0,237.17,170Zm2.22,37.51a24.51,24.51,0,0,1-12.28-2.92l-5.55-3.33c-2.78-1.65-4.45-3.85-4.81-6.33a8.68,8.68,0,0,1,2.59-7.14,17.83,17.83,0,0,1,4.48-3.46,32.05,32.05,0,0,1,15.32-3.77,24.5,24.5,0,0,1,12.29,2.92l5.54,3.31c3,1.77,4.7,4.21,4.88,6.89.19,2.89-1.39,5.82-4.47,8.27h0a23.15,23.15,0,0,1-2.66,1.77A32,32,0,0,1,239.39,207.47Zm-.25-25.33a30.36,30.36,0,0,0-14.53,3.56,16,16,0,0,0-4.07,3.14,7.14,7.14,0,0,0-2.2,5.81c.3,2,1.69,3.79,4,5.19l5.55,3.32a22.79,22.79,0,0,0,11.45,2.7,30.43,30.43,0,0,0,14.53-3.58,19.44,19.44,0,0,0,2.46-1.64c2.65-2.1,4-4.55,3.86-6.89-.15-2.16-1.56-4.1-4.1-5.61l-5.53-3.31A22.84,22.84,0,0,0,239.14,182.14Zm17.74,19.13h0Z"/><path d="M237.61,202.36a11.9,11.9,0,0,1-6-1.44L229,199.35a4.48,4.48,0,0,1-2.5-3.86c0-1.8,1.32-3.57,3.58-4.86h0c3.84-2.18,10.1-2.38,13.44-.39l2.61,1.56a4.5,4.5,0,0,1,2.51,3.88c0,1.8-1.32,3.56-3.57,4.84A15.47,15.47,0,0,1,237.61,202.36ZM230.86,192c-1.75,1-2.76,2.25-2.77,3.47a3,3,0,0,0,1.72,2.46l2.61,1.56a10.35,10.35,0,0,0,5.19,1.21,13.88,13.88,0,0,0,6.64-1.62c1.74-1,2.75-2.25,2.76-3.46a3,3,0,0,0-1.73-2.47l-2.61-1.57a10.35,10.35,0,0,0-5.19-1.21,13.72,13.72,0,0,0-6.62,1.63Z"/><path d="M238.14,220.8a13.78,13.78,0,0,1-6.93-1.66l-33.57-20.08c-1.95-1.17-3-2.82-2.84-4.62.1-2,1.55-3.88,4.09-5.31l29.46-16.64c4.7-2.66,11.52-2.87,15.53-.47l33.59,20.08h0c2.23,1.34,3.22,3.29,2.72,5.36-.38,1.71-1.8,3.34-4,4.57l-29.46,16.63A17.86,17.86,0,0,1,238.14,220.8ZM237,172a16.19,16.19,0,0,0-7.8,1.93l-29.47,16.64c-2,1.13-3.2,2.59-3.27,4a3.53,3.53,0,0,0,2.06,3.14L232,217.75c3.49,2.09,9.73,1.87,13.9-.49l29.47-16.64a6,6,0,0,0,3.21-3.52c.33-1.37-.37-2.65-2-3.62L243.05,173.4A12.15,12.15,0,0,0,237,172Zm2.44,35.5a24.51,24.51,0,0,1-12.28-2.92l-5.55-3.33c-2.78-1.65-4.45-3.85-4.81-6.33a8.68,8.68,0,0,1,2.59-7.14,17.83,17.83,0,0,1,4.48-3.46h0a32.05,32.05,0,0,1,15.32-3.77,24.5,24.5,0,0,1,12.29,2.92l5.54,3.31c3,1.77,4.7,4.21,4.88,6.89.19,2.89-1.39,5.82-4.47,8.27a23.15,23.15,0,0,1-2.66,1.77A32,32,0,0,1,239.39,207.47ZM224.61,185.7a16,16,0,0,0-4.07,3.14,7.14,7.14,0,0,0-2.2,5.81c.3,2,1.69,3.79,4,5.19l5.55,3.32a22.79,22.79,0,0,0,11.45,2.7,30.43,30.43,0,0,0,14.53-3.58,19.44,19.44,0,0,0,2.46-1.64c2.65-2.1,4-4.55,3.86-6.89-.15-2.16-1.56-4.1-4.1-5.61l-5.53-3.31a22.84,22.84,0,0,0-11.47-2.69,30.36,30.36,0,0,0-14.53,3.56Z"/><path d="M239.39,207.47a24.51,24.51,0,0,1-12.28-2.92l-5.55-3.33c-2.78-1.65-4.45-3.85-4.81-6.33a8.68,8.68,0,0,1,2.59-7.14,17.83,17.83,0,0,1,4.48-3.46,32.05,32.05,0,0,1,15.32-3.77,24.5,24.5,0,0,1,12.29,2.92l5.54,3.31c3,1.77,4.7,4.21,4.88,6.89.19,2.89-1.39,5.82-4.47,8.27a23.15,23.15,0,0,1-2.66,1.77A32,32,0,0,1,239.39,207.47Zm-.25-25.33a30.36,30.36,0,0,0-14.53,3.56,16,16,0,0,0-4.07,3.14,7.14,7.14,0,0,0-2.2,5.81c.3,2,1.69,3.79,4,5.19l5.55,3.32a22.79,22.79,0,0,0,11.45,2.7,30.43,30.43,0,0,0,14.53-3.58,19.44,19.44,0,0,0,2.46-1.64c2.65-2.1,4-4.55,3.86-6.89-.15-2.16-1.56-4.1-4.1-5.61h0l-5.53-3.31A22.84,22.84,0,0,0,239.14,182.14Zm-1.53,20.22a11.9,11.9,0,0,1-6-1.44L229,199.35a4.48,4.48,0,0,1-2.5-3.86c0-1.8,1.32-3.57,3.58-4.86,3.84-2.18,10.1-2.38,13.44-.39l2.61,1.56a4.5,4.5,0,0,1,2.51,3.88c0,1.8-1.32,3.56-3.57,4.84h0A15.47,15.47,0,0,1,237.61,202.36Zm-.13-12a13.69,13.69,0,0,0-6.62,1.63c-1.75,1-2.76,2.25-2.77,3.47a3,3,0,0,0,1.72,2.46l2.61,1.56a10.35,10.35,0,0,0,5.19,1.21,13.88,13.88,0,0,0,6.64-1.62c1.74-1,2.75-2.25,2.76-3.46a3,3,0,0,0-1.73-2.47l-2.61-1.57A10.35,10.35,0,0,0,237.48,190.41Zm7.17,9.41h0Z"/><path d="M237.61,202.36a11.9,11.9,0,0,1-6-1.44L229,199.35a4.48,4.48,0,0,1-2.5-3.86c0-1.8,1.32-3.57,3.58-4.86,3.84-2.18,10.1-2.38,13.44-.39l2.61,1.56a4.5,4.5,0,0,1,2.51,3.88c0,1.8-1.32,3.56-3.57,4.84h0A15.47,15.47,0,0,1,237.61,202.36Zm-.13-12a13.69,13.69,0,0,0-6.62,1.63c-1.75,1-2.76,2.25-2.77,3.47a3,3,0,0,0,1.72,2.46l2.61,1.56a10.35,10.35,0,0,0,5.19,1.21,13.88,13.88,0,0,0,6.64-1.62c1.74-1,2.75-2.25,2.76-3.46a3,3,0,0,0-1.73-2.47l-2.61-1.57A10.35,10.35,0,0,0,237.48,190.41Zm7.17,9.41h0Z"/><path d="M237.61,202.36a11.9,11.9,0,0,1-6-1.44L229,199.35a4.48,4.48,0,0,1-2.5-3.86c0-1.8,1.32-3.57,3.58-4.86h0c3.84-2.18,10.1-2.38,13.44-.39l2.61,1.56a4.5,4.5,0,0,1,2.51,3.88c0,1.8-1.32,3.56-3.57,4.84A15.47,15.47,0,0,1,237.61,202.36ZM230.86,192c-1.75,1-2.76,2.25-2.77,3.47a3,3,0,0,0,1.72,2.46l2.61,1.56a10.35,10.35,0,0,0,5.19,1.21,13.88,13.88,0,0,0,6.64-1.62c1.74-1,2.75-2.25,2.76-3.46a3,3,0,0,0-1.73-2.47l-2.61-1.57a10.35,10.35,0,0,0-5.19-1.21,13.72,13.72,0,0,0-6.62,1.63Z"/><path d="M237.68,209.05a24.39,24.39,0,0,1-12.29-2.92l-5.56-3.31c-3-1.76-4.68-4.21-4.86-6.88-.19-2.89,1.39-5.83,4.47-8.27a.8.8,0,0,1,1.09.08.81.81,0,0,1,0,1.1,7.11,7.11,0,0,0-2.2,5.8c.3,2,1.69,3.79,4,5.19l5.55,3.32a22.79,22.79,0,0,0,11.45,2.7,30.43,30.43,0,0,0,14.53-3.58,19.44,19.44,0,0,0,2.46-1.64.8.8,0,0,1,1.09.09.79.79,0,0,1,0,1.09,17.83,17.83,0,0,1-4.47,3.45A32.09,32.09,0,0,1,237.68,209.05Zm-21-14.74a5.6,5.6,0,0,0-.11,1.52c.14,2.16,1.55,4.1,4.08,5.61l5.55,3.31a23.22,23.22,0,0,0,11.73,2.69,23.62,23.62,0,0,1-10.83-2.89l-5.55-3.33c-2.78-1.65-4.45-3.85-4.81-6.33A5.42,5.42,0,0,1,216.69,194.31Z"/><path d="M237.61,202.36a11.9,11.9,0,0,1-6-1.44L229,199.35a4.48,4.48,0,0,1-2.5-3.86c0-1.8,1.32-3.57,3.58-4.86,3.84-2.18,10.1-2.38,13.44-.39l2.61,1.56a4.5,4.5,0,0,1,2.51,3.88c0,1.8-1.32,3.56-3.57,4.84h0A15.47,15.47,0,0,1,237.61,202.36Zm-.13-12a13.69,13.69,0,0,0-6.62,1.63c-1.75,1-2.76,2.25-2.77,3.47a3,3,0,0,0,1.72,2.46l2.61,1.56a10.35,10.35,0,0,0,5.19,1.21,13.88,13.88,0,0,0,6.64-1.62c1.74-1,2.75-2.25,2.76-3.46a3,3,0,0,0-1.73-2.47l-2.61-1.57A10.35,10.35,0,0,0,237.48,190.41Zm7.17,9.41h0Z"/><path d="M177.61,166.5a11.88,11.88,0,0,1-6-1.44L169,163.5a4.52,4.52,0,0,1-2.5-3.88c0-1.81,1.33-3.57,3.59-4.85,3.86-2.17,10.1-2.38,13.43-.39l2.61,1.57a4.49,4.49,0,0,1,2.51,3.87c0,1.8-1.32,3.56-3.58,4.83h0A15.49,15.49,0,0,1,177.61,166.5Zm-.11-11.94a13.94,13.94,0,0,0-6.64,1.62c-1.75,1-2.76,2.24-2.77,3.46a3,3,0,0,0,1.72,2.47l2.62,1.57c2.82,1.68,8.38,1.5,11.82-.43,1.74-1,2.75-2.24,2.76-3.45a3,3,0,0,0-1.73-2.47l-2.61-1.56A10.29,10.29,0,0,0,177.5,154.56Zm7.15,9.39h0Z"/><path d="M177.68,173.19a24.39,24.39,0,0,1-12.29-2.92L159.85,167c-3-1.77-4.7-4.21-4.88-6.89-.19-2.89,1.41-5.84,4.5-8.28a.82.82,0,0,1,1.1.08.83.83,0,0,1,0,1.1,7.12,7.12,0,0,0-2.23,5.82c.29,2,1.69,3.79,4,5.2l5.55,3.33A22.92,22.92,0,0,0,179.39,170a30.32,30.32,0,0,0,14.53-3.58,17.23,17.23,0,0,0,2.42-1.62.81.81,0,0,1,1.11,1.17,17.85,17.85,0,0,1-4.45,3.44A32,32,0,0,1,177.68,173.19Zm-21-14.75a5.57,5.57,0,0,0-.11,1.52c.14,2.16,1.56,4.1,4.1,5.6l5.54,3.33a22.88,22.88,0,0,0,11.46,2.69h.23a23.49,23.49,0,0,1-10.8-2.89l-5.55-3.32c-2.79-1.67-4.45-3.87-4.81-6.36A5.51,5.51,0,0,1,156.69,158.44Z"/><path d="M178.46,183.66a11.8,11.8,0,0,1-6-1.43L136.89,161a5.4,5.4,0,0,1-2-2,3.74,3.74,0,0,1-.36-2.91,6.76,6.76,0,0,1,3.41-3.8l31.86-18c4-2.28,9.9-2.45,13.32-.39l35.59,21.27a4.65,4.65,0,0,1,2.44,3.19,4.32,4.32,0,0,1-1.14,3.56,8.37,8.37,0,0,1-2.36,1.9l-31.86,18A15.24,15.24,0,0,1,178.46,183.66Zm-1.28-49.57a13.68,13.68,0,0,0-6.58,1.63l-31.85,18a5.25,5.25,0,0,0-2.66,2.82,2.13,2.13,0,0,0,.22,1.69,3.85,3.85,0,0,0,1.41,1.36l35.59,21.26c2.94,1.76,8.19,1.58,11.7-.41l31.85-18a6.52,6.52,0,0,0,1.92-1.54,2.8,2.8,0,0,0,.79-2.26,3.17,3.17,0,0,0-1.67-2.07h0L182.3,135.3A10.15,10.15,0,0,0,177.18,134.09Zm.5,39.1a24.39,24.39,0,0,1-12.29-2.92L159.85,167c-3-1.77-4.7-4.21-4.88-6.89-.19-2.89,1.41-5.84,4.5-8.28a17.47,17.47,0,0,1,4.35-3.35,32.09,32.09,0,0,1,15.32-3.78,24.5,24.5,0,0,1,12.29,2.92L197,150.9c3,1.76,4.69,4.2,4.86,6.88.19,2.88-1.39,5.81-4.45,8.24a17.74,17.74,0,0,1-4.4,3.39A32,32,0,0,1,177.68,173.19Zm1.46-26.93a30.43,30.43,0,0,0-14.53,3.58,16.4,16.4,0,0,0-4,3.11c-2.76,2.2-4.15,4.66-4,7,.14,2.16,1.56,4.1,4.1,5.6l5.54,3.33a22.88,22.88,0,0,0,11.46,2.69A30.43,30.43,0,0,0,192.21,168a16.42,16.42,0,0,0,4-3.12l.1-.09c2.66-2.11,4.05-4.56,3.89-6.92-.14-2.16-1.55-4.09-4.08-5.6L190.61,149A22.94,22.94,0,0,0,179.14,146.26Z"/><path d="M177.61,166.5a11.88,11.88,0,0,1-6-1.44L169,163.5a4.52,4.52,0,0,1-2.5-3.88c0-1.81,1.33-3.57,3.59-4.85h0c3.86-2.17,10.1-2.38,13.43-.39l2.61,1.57a4.49,4.49,0,0,1,2.51,3.87c0,1.8-1.32,3.56-3.58,4.83A15.49,15.49,0,0,1,177.61,166.5Zm-6.75-10.32c-1.75,1-2.76,2.24-2.77,3.46a3,3,0,0,0,1.72,2.47l2.62,1.57c2.82,1.68,8.38,1.5,11.82-.43,1.74-1,2.75-2.24,2.76-3.45a3,3,0,0,0-1.73-2.47l-2.61-1.56c-2.84-1.7-8.43-1.5-11.81.41Z"/><path d="M178.15,184.91a13.81,13.81,0,0,1-6.92-1.63L137.64,163.2c-2-1.17-3-2.82-2.84-4.64a.81.81,0,0,1,1.51-.33,3.91,3.91,0,0,0,1.41,1.35l35.59,21.26c2.94,1.76,8.19,1.58,11.7-.41l31.85-18h0a6.6,6.6,0,0,0,1.91-1.54.83.83,0,0,1,1-.21.81.81,0,0,1,.44.9c-.39,1.71-1.81,3.34-4,4.58l-29.46,16.64A18,18,0,0,1,178.15,184.91Zm-.47-11.72a24.39,24.39,0,0,1-12.29-2.92L159.85,167c-3-1.77-4.7-4.21-4.88-6.89-.19-2.89,1.41-5.84,4.5-8.28a.82.82,0,0,1,1.1.08.83.83,0,0,1,0,1.1,7.12,7.12,0,0,0-2.23,5.82c.29,2,1.69,3.79,4,5.2l5.55,3.33A22.92,22.92,0,0,0,179.39,170a30.32,30.32,0,0,0,14.53-3.58,17.23,17.23,0,0,0,2.42-1.62.81.81,0,0,1,1.11,1.17,17.85,17.85,0,0,1-4.45,3.44A32,32,0,0,1,177.68,173.19Zm-21-14.75a5.57,5.57,0,0,0-.11,1.52c.14,2.16,1.56,4.1,4.1,5.6h0l5.54,3.33a22.88,22.88,0,0,0,11.46,2.69h.23a23.49,23.49,0,0,1-10.8-2.89l-5.55-3.32c-2.79-1.67-4.45-3.87-4.81-6.36A5.51,5.51,0,0,1,156.69,158.44Z"/><path class="cls-1" d="M196.57,151.59,191,148.26a23.73,23.73,0,0,0-11.88-2.81,31.19,31.19,0,0,0-14.92,3.68,17.07,17.07,0,0,0-4.25,3.28c-3.84,4.16-3.29,9.1,2,12.27l5.56,3.32a23.65,23.65,0,0,0,11.86,2.81,31.13,31.13,0,0,0,14.92-3.68,19,19,0,0,0,2.54-1.7C202.46,161,202.56,155.15,196.57,151.59ZM184.65,164a14.8,14.8,0,0,1-7,1.74,11.1,11.1,0,0,1-5.6-1.32l-2.61-1.57c-3.2-1.9-2.71-5.19,1.06-7.32a14.68,14.68,0,0,1,7-1.73,11.13,11.13,0,0,1,5.58,1.32l2.62,1.57C188.89,158.54,188.42,161.82,184.65,164Z"/><path d="M177.61,166.5a11.88,11.88,0,0,1-6-1.44L169,163.5a4.52,4.52,0,0,1-2.5-3.88c0-1.81,1.33-3.57,3.59-4.85,3.86-2.17,10.1-2.38,13.43-.39l2.61,1.57a4.49,4.49,0,0,1,2.51,3.87c0,1.8-1.32,3.56-3.58,4.83h0A15.49,15.49,0,0,1,177.61,166.5Zm-.11-11.94a13.94,13.94,0,0,0-6.64,1.62c-1.75,1-2.76,2.24-2.77,3.46a3,3,0,0,0,1.72,2.47l2.62,1.57c2.82,1.68,8.38,1.5,11.82-.43,1.74-1,2.75-2.24,2.76-3.45a3,3,0,0,0-1.73-2.47l-2.61-1.56A10.29,10.29,0,0,0,177.5,154.56Zm7.15,9.39h0Z"/><path d="M177.61,166.5a11.88,11.88,0,0,1-6-1.44L169,163.5a4.52,4.52,0,0,1-2.5-3.88c0-1.81,1.33-3.57,3.59-4.85h0c3.86-2.17,10.1-2.38,13.43-.39l2.61,1.57a4.49,4.49,0,0,1,2.51,3.87c0,1.8-1.32,3.56-3.58,4.83A15.49,15.49,0,0,1,177.61,166.5Zm-6.75-10.32c-1.75,1-2.76,2.24-2.77,3.46a3,3,0,0,0,1.72,2.47l2.62,1.57c2.82,1.68,8.38,1.5,11.82-.43,1.74-1,2.75-2.24,2.76-3.45a3,3,0,0,0-1.73-2.47l-2.61-1.56c-2.84-1.7-8.43-1.5-11.81.41Z"/><path d="M177.68,173.19a24.39,24.39,0,0,1-12.29-2.92L159.85,167c-3-1.77-4.7-4.21-4.88-6.89-.19-2.89,1.41-5.84,4.5-8.28a.82.82,0,0,1,1.1.08.83.83,0,0,1,0,1.1,7.12,7.12,0,0,0-2.23,5.82c.29,2,1.69,3.79,4,5.2l5.55,3.33A22.92,22.92,0,0,0,179.39,170a30.32,30.32,0,0,0,14.53-3.58,17.23,17.23,0,0,0,2.42-1.62.81.81,0,0,1,1.11,1.17,17.85,17.85,0,0,1-4.45,3.44A32,32,0,0,1,177.68,173.19Zm-21-14.75a5.57,5.57,0,0,0-.11,1.52c.14,2.16,1.56,4.1,4.1,5.6l5.54,3.33a22.88,22.88,0,0,0,11.46,2.69h.23a23.49,23.49,0,0,1-10.8-2.89l-5.55-3.32c-2.79-1.67-4.45-3.87-4.81-6.36A5.51,5.51,0,0,1,156.69,158.44Z"/><path d="M177.61,166.5a11.88,11.88,0,0,1-6-1.44L169,163.5a4.52,4.52,0,0,1-2.5-3.88c0-1.81,1.33-3.57,3.59-4.85,3.86-2.17,10.1-2.38,13.43-.39l2.61,1.57a4.49,4.49,0,0,1,2.51,3.87c0,1.8-1.32,3.56-3.58,4.83h0A15.49,15.49,0,0,1,177.61,166.5Zm-.11-11.94a13.94,13.94,0,0,0-6.64,1.62c-1.75,1-2.76,2.24-2.77,3.46a3,3,0,0,0,1.72,2.47l2.62,1.57c2.82,1.68,8.38,1.5,11.82-.43,1.74-1,2.75-2.24,2.76-3.45a3,3,0,0,0-1.73-2.47l-2.61-1.56A10.29,10.29,0,0,0,177.5,154.56Zm7.15,9.39h0Z"/><path d="M292.29,171.47a11.92,11.92,0,0,1-6-1.44l-2.61-1.56a4.5,4.5,0,0,1-2.51-3.87c0-1.8,1.33-3.57,3.59-4.85,3.83-2.18,10.12-2.39,13.45-.4l2.61,1.57a4.52,4.52,0,0,1,2.51,3.86c0,1.8-1.33,3.57-3.59,4.86h0A15.54,15.54,0,0,1,292.29,171.47Zm-.12-11.94a13.81,13.81,0,0,0-6.63,1.62c-1.75,1-2.76,2.26-2.78,3.47a3,3,0,0,0,1.72,2.46l2.62,1.57a10.32,10.32,0,0,0,5.19,1.21,13.81,13.81,0,0,0,6.63-1.63h0c1.75-1,2.76-2.26,2.77-3.47A3,3,0,0,0,300,162.3l-2.61-1.56A10.35,10.35,0,0,0,292.17,159.53Zm7.15,9.41h0Z"/><path d="M292.35,178.17a24.42,24.42,0,0,1-12.29-2.93l-5.54-3.31c-3-1.77-4.7-4.23-4.88-6.91-.18-2.88,1.4-5.81,4.47-8.24a.82.82,0,0,1,1.1.08.83.83,0,0,1,0,1.1,7.11,7.11,0,0,0-2.19,5.81c.29,2,1.69,3.78,4,5.18l5.55,3.33A22.92,22.92,0,0,0,294.06,175a30.43,30.43,0,0,0,14.53-3.57h0a19.32,19.32,0,0,0,2.43-1.62.79.79,0,0,1,1.09.07.81.81,0,0,1,0,1.1,18.14,18.14,0,0,1-4.44,3.43A32,32,0,0,1,292.35,178.17Zm-21-14.75a5.84,5.84,0,0,0-.11,1.5c.15,2.16,1.56,4.11,4.1,5.63l5.54,3.31a22.83,22.83,0,0,0,11.46,2.69h.23a23.42,23.42,0,0,1-10.79-2.89l-5.56-3.32c-2.78-1.66-4.44-3.85-4.81-6.34A5.7,5.7,0,0,1,271.36,163.42Z"/><path d="M292.29,171.47a11.92,11.92,0,0,1-6-1.44l-2.61-1.56a4.5,4.5,0,0,1-2.51-3.87c0-1.8,1.33-3.57,3.59-4.85h0c3.83-2.18,10.12-2.39,13.45-.4l2.61,1.57a4.52,4.52,0,0,1,2.51,3.86c0,1.8-1.33,3.57-3.59,4.86A15.54,15.54,0,0,1,292.29,171.47Zm-6.75-10.32c-1.75,1-2.76,2.26-2.78,3.47a3,3,0,0,0,1.72,2.46l2.62,1.57a10.32,10.32,0,0,0,5.19,1.21,13.81,13.81,0,0,0,6.63-1.63c1.75-1,2.76-2.26,2.77-3.47A3,3,0,0,0,300,162.3l-2.61-1.56a10.35,10.35,0,0,0-5.19-1.21,13.81,13.81,0,0,0-6.63,1.62Z"/><path d="M292.82,189.89a13.68,13.68,0,0,1-6.92-1.64l-33.58-20.08c-2-1.17-3-2.82-2.85-4.64a.82.82,0,0,1,.64-.73.81.81,0,0,1,.87.4,3.91,3.91,0,0,0,1.41,1.35L288,185.82c2.92,1.76,8.17,1.57,11.69-.42l31.86-18h0a6.61,6.61,0,0,0,1.91-1.53.81.81,0,0,1,1.42.68c-.39,1.72-1.8,3.34-4,4.58l-29.47,16.64A18.07,18.07,0,0,1,292.82,189.89Zm-.47-11.72a24.42,24.42,0,0,1-12.29-2.93l-5.54-3.31h0c-3-1.77-4.7-4.23-4.88-6.91-.18-2.88,1.4-5.81,4.47-8.24a.82.82,0,0,1,1.1.08.83.83,0,0,1,0,1.1,7.11,7.11,0,0,0-2.19,5.81c.29,2,1.69,3.78,4,5.18l5.55,3.33A22.92,22.92,0,0,0,294.06,175a30.4,30.4,0,0,0,14.53-3.57,19.32,19.32,0,0,0,2.43-1.62.79.79,0,0,1,1.09.07.81.81,0,0,1,0,1.1,18.14,18.14,0,0,1-4.44,3.43A32,32,0,0,1,292.35,178.17Zm-17-7.62,5.54,3.31a22.83,22.83,0,0,0,11.46,2.69h.23a23.42,23.42,0,0,1-10.79-2.89l-5.56-3.32c-2.78-1.66-4.44-3.85-4.81-6.34a5.7,5.7,0,0,1-.06-.58,5.84,5.84,0,0,0-.11,1.5c.15,2.16,1.56,4.11,4.1,5.63Z"/><path d="M293.12,188.64a11.77,11.77,0,0,1-6-1.44l-35.6-21.27a5.4,5.4,0,0,1-2-2,3.74,3.74,0,0,1-.36-2.91,6.78,6.78,0,0,1,3.42-3.8l31.85-18c4-2.27,9.88-2.44,13.32-.39l35.6,21.27h0a4.72,4.72,0,0,1,2.44,3.22,4.33,4.33,0,0,1-1.15,3.53,8.28,8.28,0,0,1-2.36,1.91l-31.85,18A15.38,15.38,0,0,1,293.12,188.64Zm-1.28-49.57a13.68,13.68,0,0,0-6.56,1.62l-31.86,18a5.2,5.2,0,0,0-2.65,2.82,2.13,2.13,0,0,0,.21,1.69,3.85,3.85,0,0,0,1.41,1.36L288,185.82c2.92,1.76,8.17,1.57,11.69-.42l31.86-18a6.61,6.61,0,0,0,1.91-1.53,2.82,2.82,0,0,0,.8-2.24,3.2,3.2,0,0,0-1.68-2.1L297,140.27A10.27,10.27,0,0,0,291.84,139.07Zm.51,39.1a24.42,24.42,0,0,1-12.29-2.93l-5.54-3.31c-3-1.77-4.7-4.23-4.88-6.91-.18-2.88,1.4-5.81,4.47-8.24a17.25,17.25,0,0,1,4.38-3.38,32.3,32.3,0,0,1,15.33-3.77,24.29,24.29,0,0,1,12.29,2.93l5.55,3.3c3,1.77,4.69,4.21,4.87,6.89.19,2.88-1.39,5.81-4.46,8.24a17.87,17.87,0,0,1-4.39,3.39A32,32,0,0,1,292.35,178.17Zm1.47-26.92a30.54,30.54,0,0,0-14.53,3.56,15.88,15.88,0,0,0-4.08,3.14c-2.74,2.19-4.11,4.63-4,7,.15,2.16,1.56,4.11,4.1,5.63l5.54,3.31a22.83,22.83,0,0,0,11.46,2.69A30.4,30.4,0,0,0,306.88,173a16.19,16.19,0,0,0,4-3.12l.1-.09c2.67-2.11,4.05-4.56,3.9-6.92-.15-2.16-1.56-4.09-4.09-5.6l-5.55-3.31A22.82,22.82,0,0,0,293.82,151.25Z"/><path d="M292.29,171.47a11.92,11.92,0,0,1-6-1.44l-2.61-1.56a4.5,4.5,0,0,1-2.51-3.87c0-1.8,1.33-3.57,3.59-4.85,3.83-2.18,10.12-2.39,13.45-.4l2.61,1.57a4.52,4.52,0,0,1,2.51,3.86c0,1.8-1.33,3.57-3.59,4.86h0A15.54,15.54,0,0,1,292.29,171.47Zm-.12-11.94a13.81,13.81,0,0,0-6.63,1.62c-1.75,1-2.76,2.26-2.78,3.47a3,3,0,0,0,1.72,2.46l2.62,1.57a10.32,10.32,0,0,0,5.19,1.21,13.81,13.81,0,0,0,6.63-1.63h0c1.75-1,2.76-2.26,2.77-3.47A3,3,0,0,0,300,162.3l-2.61-1.56A10.35,10.35,0,0,0,292.17,159.53Zm7.15,9.41h0Z"/><path class="cls-1" d="M311.25,156.56l-5.55-3.31a23.52,23.52,0,0,0-11.88-2.81,31.27,31.27,0,0,0-14.93,3.66,17.62,17.62,0,0,0-4.28,3.31c-3.8,4.17-3.24,9.09,2,12.24L282.2,173a23.7,23.7,0,0,0,11.86,2.81A31.17,31.17,0,0,0,309,172.1a18.89,18.89,0,0,0,2.53-1.7C317.14,166,317.23,160.12,311.25,156.56Zm-11.93,12.38a14.67,14.67,0,0,1-7,1.72,11.09,11.09,0,0,1-5.59-1.32l-2.62-1.57c-3.19-1.9-2.71-5.18,1.07-7.32a14.52,14.52,0,0,1,7-1.73,11.21,11.21,0,0,1,5.6,1.32l2.62,1.57C303.58,163.51,303.1,166.79,299.32,168.94Z"/><path d="M292.29,171.47a11.92,11.92,0,0,1-6-1.44l-2.61-1.56a4.5,4.5,0,0,1-2.51-3.87c0-1.8,1.33-3.57,3.59-4.85h0c3.83-2.18,10.12-2.39,13.45-.4l2.61,1.57a4.52,4.52,0,0,1,2.51,3.86c0,1.8-1.33,3.57-3.59,4.86A15.54,15.54,0,0,1,292.29,171.47Zm-6.75-10.32c-1.75,1-2.76,2.26-2.78,3.47a3,3,0,0,0,1.72,2.46l2.62,1.57a10.32,10.32,0,0,0,5.19,1.21,13.81,13.81,0,0,0,6.63-1.63c1.75-1,2.76-2.26,2.77-3.47A3,3,0,0,0,300,162.3l-2.61-1.56a10.35,10.35,0,0,0-5.19-1.21,13.81,13.81,0,0,0-6.63,1.62Z"/><path d="M292.35,178.17a24.42,24.42,0,0,1-12.29-2.93l-5.54-3.31c-3-1.77-4.7-4.23-4.88-6.91-.18-2.88,1.4-5.81,4.47-8.24a.82.82,0,0,1,1.1.08.83.83,0,0,1,0,1.1,7.11,7.11,0,0,0-2.19,5.81c.29,2,1.69,3.78,4,5.18l5.55,3.33A22.92,22.92,0,0,0,294.06,175a30.4,30.4,0,0,0,14.53-3.57,19.32,19.32,0,0,0,2.43-1.62.79.79,0,0,1,1.09.07.81.81,0,0,1,0,1.1,18.14,18.14,0,0,1-4.44,3.43A32,32,0,0,1,292.35,178.17Zm-21-14.75a5.84,5.84,0,0,0-.11,1.5c.15,2.16,1.56,4.11,4.1,5.63l5.54,3.31a22.83,22.83,0,0,0,11.46,2.69h.23a23.42,23.42,0,0,1-10.79-2.89l-5.56-3.32c-2.78-1.66-4.44-3.85-4.81-6.34A5.7,5.7,0,0,1,271.36,163.42Z"/><path d="M292.29,171.47a11.92,11.92,0,0,1-6-1.44l-2.61-1.56a4.5,4.5,0,0,1-2.51-3.87c0-1.8,1.33-3.57,3.59-4.85,3.83-2.18,10.12-2.39,13.45-.4l2.61,1.57a4.52,4.52,0,0,1,2.51,3.86c0,1.8-1.33,3.57-3.59,4.86h0A15.54,15.54,0,0,1,292.29,171.47Zm-.12-11.94a13.81,13.81,0,0,0-6.63,1.62c-1.75,1-2.76,2.26-2.78,3.47a3,3,0,0,0,1.72,2.46l2.62,1.57a10.32,10.32,0,0,0,5.19,1.21,13.81,13.81,0,0,0,6.63-1.63h0c1.75-1,2.76-2.26,2.77-3.47A3,3,0,0,0,300,162.3l-2.61-1.56A10.35,10.35,0,0,0,292.17,159.53Zm7.15,9.41h0Z"/><path d="M232.29,135.61a11.92,11.92,0,0,1-6-1.44l-2.61-1.56a4.5,4.5,0,0,1-2.51-3.88c0-1.8,1.33-3.57,3.59-4.84h0c3.87-2.19,10.12-2.38,13.45-.4l2.61,1.57a4.49,4.49,0,0,1,2.51,3.87c0,1.8-1.33,3.56-3.59,4.83A15.52,15.52,0,0,1,232.29,135.61Zm-6.76-10.32c-1.74,1-2.75,2.25-2.77,3.46a3,3,0,0,0,1.72,2.47l2.62,1.57c2.82,1.68,8.39,1.51,11.83-.43,1.74-1,2.75-2.24,2.76-3.45a3,3,0,0,0-1.72-2.47l-2.61-1.56c-2.83-1.69-8.44-1.5-11.83.41Z"/><path d="M232.35,142.31a24.52,24.52,0,0,1-12.29-2.92l-5.54-3.33c-3-1.78-4.7-4.23-4.87-6.9-.19-2.89,1.41-5.83,4.5-8.27a.81.81,0,0,1,1.09,1.18,7.14,7.14,0,0,0-2.22,5.82c.29,2,1.69,3.8,4,5.2l5.55,3.33a22.81,22.81,0,0,0,11.45,2.69,30.4,30.4,0,0,0,14.53-3.57,19.7,19.7,0,0,0,2.43-1.62.79.79,0,0,1,1.09.07.81.81,0,0,1,0,1.1,18,18,0,0,1-4.44,3.43A32,32,0,0,1,232.35,142.31Zm-21-14.74a5.71,5.71,0,0,0-.1,1.48c.14,2.16,1.55,4.11,4.09,5.63l5.54,3.32a22.83,22.83,0,0,0,11.46,2.69h.26a23.54,23.54,0,0,1-10.82-2.88l-5.56-3.33c-2.78-1.67-4.45-3.87-4.81-6.36C211.39,127.94,211.38,127.76,211.36,127.57Z"/><path class="cls-1" d="M273,125l-35.6-21.27c-3.16-1.9-8.76-1.71-12.5.41l-31.86,18c-2.81,1.58-3.77,3.81-2.74,5.62a4.6,4.6,0,0,0,1.69,1.64l35.6,21.27c3.17,1.89,8.77,1.71,12.51-.4l31.86-18a7.39,7.39,0,0,0,2.14-1.72C275.7,128.62,275.39,126.41,273,125Zm-21.46,9.56a17,17,0,0,1-4.24,3.27,31.06,31.06,0,0,1-14.93,3.68,23.62,23.62,0,0,1-11.88-2.81l-5.53-3.32c-6-3.58-5.91-9.41-.29-13.85a16.81,16.81,0,0,1,4.24-3.27,31.09,31.09,0,0,1,14.93-3.68,23.62,23.62,0,0,1,11.88,2.81l5.55,3.32C257.23,124.27,257.14,130.11,251.52,134.55Z"/><path d="M232.29,135.61a11.92,11.92,0,0,1-6-1.44l-2.61-1.56a4.5,4.5,0,0,1-2.51-3.88c0-1.8,1.33-3.57,3.59-4.84h0c3.87-2.19,10.12-2.38,13.45-.4l2.61,1.57a4.49,4.49,0,0,1,2.51,3.87c0,1.8-1.33,3.56-3.59,4.83A15.52,15.52,0,0,1,232.29,135.61Zm-6.76-10.32c-1.74,1-2.75,2.25-2.77,3.46a3,3,0,0,0,1.72,2.47l2.62,1.57c2.82,1.68,8.39,1.51,11.83-.43,1.74-1,2.75-2.24,2.76-3.45a3,3,0,0,0-1.72-2.47l-2.61-1.56c-2.83-1.69-8.44-1.5-11.83.41Z"/><path d="M232.35,142.31a24.52,24.52,0,0,1-12.29-2.92l-5.54-3.33c-3-1.78-4.7-4.23-4.87-6.9-.19-2.89,1.41-5.83,4.5-8.27a.81.81,0,0,1,1.09,1.18,7.14,7.14,0,0,0-2.22,5.82c.29,2,1.69,3.8,4,5.2l5.55,3.33a22.81,22.81,0,0,0,11.45,2.69,30.4,30.4,0,0,0,14.53-3.57,19.7,19.7,0,0,0,2.43-1.62.79.79,0,0,1,1.09.07.81.81,0,0,1,0,1.1,18,18,0,0,1-4.44,3.43A32,32,0,0,1,232.35,142.31Zm-21-14.74a5.71,5.71,0,0,0-.1,1.48c.14,2.16,1.55,4.11,4.09,5.63l5.54,3.32a22.83,22.83,0,0,0,11.46,2.69h.26a23.54,23.54,0,0,1-10.82-2.88l-5.56-3.33c-2.78-1.67-4.45-3.87-4.81-6.36C211.39,127.94,211.38,127.76,211.36,127.57Z"/><path d="M232.82,154a13.81,13.81,0,0,1-6.92-1.63l-33.58-20.07c-2-1.18-3-2.83-2.84-4.65a.79.79,0,0,1,.63-.72.8.8,0,0,1,.88.39,3.85,3.85,0,0,0,1.41,1.36L228,150c2.93,1.75,8.18,1.57,11.69-.42l31.86-18a6.81,6.81,0,0,0,1.92-1.53.8.8,0,0,1,1-.22.81.81,0,0,1,.44.9,7.52,7.52,0,0,1-4,4.57l-29.46,16.65A18,18,0,0,1,232.82,154Z"/><path d="M232.29,135.61a11.92,11.92,0,0,1-6-1.44l-2.61-1.56a4.5,4.5,0,0,1-2.51-3.88c0-1.8,1.33-3.57,3.59-4.84,3.87-2.19,10.12-2.38,13.45-.4l2.61,1.57a4.49,4.49,0,0,1,2.51,3.87c0,1.8-1.33,3.56-3.59,4.83h0A15.52,15.52,0,0,1,232.29,135.61Zm-.12-11.94a13.94,13.94,0,0,0-6.64,1.62c-1.74,1-2.75,2.25-2.77,3.46a3,3,0,0,0,1.72,2.47l2.62,1.57c2.82,1.68,8.39,1.51,11.83-.43,1.74-1,2.75-2.24,2.76-3.45a3,3,0,0,0-1.72-2.47l-2.61-1.56A10.35,10.35,0,0,0,232.17,123.67Zm7.15,9.39h0Z"/><path d="M234.06,140.73a24.47,24.47,0,0,1-12.27-2.92l-5.56-3.33c-2.78-1.67-4.45-3.87-4.81-6.36a8.68,8.68,0,0,1,2.63-7.14,17.77,17.77,0,0,1,4.44-3.43,32,32,0,0,1,15.33-3.79,24.52,24.52,0,0,1,12.29,2.92l5.55,3.33c3,1.76,4.69,4.21,4.87,6.88.19,2.9-1.41,5.84-4.51,8.29a20.35,20.35,0,0,1-2.63,1.76A32,32,0,0,1,234.06,140.73Zm-.24-25.36A30.4,30.4,0,0,0,219.29,119a16,16,0,0,0-4,3.11c-1.74,1.89-2.51,3.9-2.23,5.83s1.69,3.8,4,5.2l5.55,3.33a22.81,22.81,0,0,0,11.45,2.69,30.4,30.4,0,0,0,14.53-3.57,19.7,19.7,0,0,0,2.43-1.62c2.67-2.12,4-4.57,3.9-6.92-.15-2.16-1.56-4.1-4.09-5.61h0l-5.55-3.32A22.83,22.83,0,0,0,233.82,115.37Zm-1.53,20.24a11.92,11.92,0,0,1-6-1.44l-2.61-1.56a4.5,4.5,0,0,1-2.51-3.88c0-1.8,1.33-3.57,3.59-4.84,3.87-2.19,10.12-2.38,13.45-.4l2.61,1.57a4.49,4.49,0,0,1,2.51,3.87c0,1.8-1.33,3.56-3.59,4.83h0A15.52,15.52,0,0,1,232.29,135.61Zm-.12-11.94a13.94,13.94,0,0,0-6.64,1.62c-1.74,1-2.75,2.25-2.77,3.46a3,3,0,0,0,1.72,2.47l2.62,1.57c2.82,1.68,8.39,1.51,11.83-.43h0c1.74-1,2.75-2.24,2.76-3.45a3,3,0,0,0-1.72-2.47l-2.61-1.56A10.35,10.35,0,0,0,232.17,123.67Zm7.15,9.39h0Z"/><path d="M232.29,135.61a11.92,11.92,0,0,1-6-1.44l-2.61-1.56a4.5,4.5,0,0,1-2.51-3.88c0-1.8,1.33-3.57,3.59-4.84h0c3.87-2.19,10.12-2.38,13.45-.4l2.61,1.57a4.49,4.49,0,0,1,2.51,3.87c0,1.8-1.33,3.56-3.59,4.83A15.52,15.52,0,0,1,232.29,135.61Zm-6.76-10.32c-1.74,1-2.75,2.25-2.77,3.46a3,3,0,0,0,1.72,2.47l2.62,1.57c2.82,1.68,8.39,1.51,11.83-.43,1.74-1,2.75-2.24,2.76-3.45a3,3,0,0,0-1.72-2.47l-2.61-1.56c-2.83-1.69-8.44-1.5-11.83.41Z"/><path d="M232.35,142.31a24.52,24.52,0,0,1-12.29-2.92l-5.54-3.33c-3-1.78-4.7-4.23-4.87-6.9-.19-2.89,1.41-5.83,4.5-8.27a.81.81,0,0,1,1.09,1.18,7.14,7.14,0,0,0-2.22,5.82c.29,2,1.69,3.8,4,5.2l5.55,3.33a22.81,22.81,0,0,0,11.45,2.69,30.4,30.4,0,0,0,14.53-3.57,19.7,19.7,0,0,0,2.43-1.62.79.79,0,0,1,1.09.07.81.81,0,0,1,0,1.1,18,18,0,0,1-4.44,3.43A32,32,0,0,1,232.35,142.31Zm-21-14.74a5.71,5.71,0,0,0-.1,1.48c.14,2.16,1.55,4.11,4.09,5.63l5.54,3.32a22.83,22.83,0,0,0,11.46,2.69h.26a23.54,23.54,0,0,1-10.82-2.88l-5.56-3.33c-2.78-1.67-4.45-3.87-4.81-6.36C211.39,127.94,211.38,127.76,211.36,127.57Z"/><path d="M232.29,135.61a11.92,11.92,0,0,1-6-1.44l-2.61-1.56a4.5,4.5,0,0,1-2.51-3.88c0-1.8,1.33-3.57,3.59-4.84,3.87-2.19,10.12-2.38,13.45-.4l2.61,1.57a4.49,4.49,0,0,1,2.51,3.87c0,1.8-1.33,3.56-3.59,4.83h0A15.52,15.52,0,0,1,232.29,135.61Zm-.12-11.94a13.94,13.94,0,0,0-6.64,1.62c-1.74,1-2.75,2.25-2.77,3.46a3,3,0,0,0,1.72,2.47l2.62,1.57c2.82,1.68,8.39,1.51,11.83-.43,1.74-1,2.75-2.24,2.76-3.45a3,3,0,0,0-1.72-2.47l-2.61-1.56A10.35,10.35,0,0,0,232.17,123.67Zm7.15,9.39h0Z"/><path d="M382.59,195.67a2,2,0,0,1-1-.27,2.46,2.46,0,0,1-1.1-2.24,6.05,6.05,0,0,1,2.78-4.81,2.24,2.24,0,0,1,3.59,2.07,6.05,6.05,0,0,1-2.78,4.81A3,3,0,0,1,382.59,195.67Zm2.12-6.14a1.28,1.28,0,0,0-.65.22,4.42,4.42,0,0,0-2,3.41c0,.42.11.74.3.84s.5.05.87-.16a4.45,4.45,0,0,0,2-3.42c0-.42-.1-.73-.29-.84A.48.48,0,0,0,384.71,189.53Z"/><path d="M383.49,205.57a2,2,0,0,1-1-.27,2.46,2.46,0,0,1-1.1-2.24,6.05,6.05,0,0,1,2.78-4.81,2.24,2.24,0,0,1,3.59,2.07,6.05,6.05,0,0,1-2.78,4.81A3,3,0,0,1,383.49,205.57Zm2.12-6.14a1.28,1.28,0,0,0-.65.22,4.42,4.42,0,0,0-2,3.41c0,.42.11.74.3.84s.5,0,.87-.16a4.45,4.45,0,0,0,2-3.42c0-.42-.1-.73-.29-.84A.48.48,0,0,0,385.61,199.43Z"/><path d="M375,211.39a2.47,2.47,0,0,1-1.26-.33,3.05,3.05,0,0,1-1.36-2.82,8,8,0,0,1,3.68-6.37h0a2.78,2.78,0,0,1,4.48,2.59,8,8,0,0,1-3.68,6.37A3.68,3.68,0,0,1,375,211.39Zm1.86-8.12a6.48,6.48,0,0,0-2.87,5,1.23,1.23,0,0,0,2.07,1.2,6.48,6.48,0,0,0,2.87-5,1.56,1.56,0,0,0-.56-1.42,1.6,1.6,0,0,0-1.51.23Z"/><path d="M374.66,198.55a1.5,1.5,0,0,1-.77-.2,1.77,1.77,0,0,1-.81-1.61,3.9,3.9,0,0,1,1.81-3.15,1.66,1.66,0,0,1,2.63,1.51,3.89,3.89,0,0,1-1.82,3.15A2.09,2.09,0,0,1,374.66,198.55Zm1.22-3.66s-.08,0-.18.09h0a2.31,2.31,0,0,0-1,1.75.45.45,0,0,0,0,.21s.08,0,.17-.09a2.33,2.33,0,0,0,1-1.76A.66.66,0,0,0,375.88,194.89Z"/><path d="M366.8,213.13a2,2,0,0,1-1-.27,2.45,2.45,0,0,1-1.1-2.23,6.07,6.07,0,0,1,2.78-4.82,2.24,2.24,0,0,1,3.59,2.07,6.09,6.09,0,0,1-2.78,4.82A3,3,0,0,1,366.8,213.13Zm2.12-6.14a1.28,1.28,0,0,0-.65.22,4.43,4.43,0,0,0-2,3.42,1,1,0,0,0,.3.84,1,1,0,0,0,.87-.17,4.43,4.43,0,0,0,2-3.42,1,1,0,0,0-.29-.84A.48.48,0,0,0,368.92,207Z"/><path d="M367.7,223a2,2,0,0,1-1-.27,2.45,2.45,0,0,1-1.1-2.23,6.07,6.07,0,0,1,2.78-4.82,2.24,2.24,0,0,1,3.59,2.07,6.07,6.07,0,0,1-2.78,4.82A3,3,0,0,1,367.7,223Zm2.12-6.14a1.28,1.28,0,0,0-.65.22,4.43,4.43,0,0,0-2,3.42,1,1,0,0,0,.29.84,1,1,0,0,0,.88-.17,4.43,4.43,0,0,0,2-3.42,1,1,0,0,0-.29-.84A.48.48,0,0,0,369.82,216.89Z"/><path d="M359.22,228.86a2.46,2.46,0,0,1-1.25-.33,3.06,3.06,0,0,1-1.36-2.82,8,8,0,0,1,3.68-6.38,2.78,2.78,0,0,1,4.48,2.59,8,8,0,0,1-3.68,6.38A3.79,3.79,0,0,1,359.22,228.86Zm2.93-8.47a2.28,2.28,0,0,0-1.06.34,6.45,6.45,0,0,0-2.87,5,1.57,1.57,0,0,0,.56,1.42,1.6,1.6,0,0,0,1.51-.23,6.48,6.48,0,0,0,2.87-5,1.58,1.58,0,0,0-.56-1.42A.91.91,0,0,0,362.15,220.39Z"/><path d="M358.87,216a1.51,1.51,0,0,1-.77-.21,1.77,1.77,0,0,1-.82-1.61,3.92,3.92,0,0,1,1.82-3.15h0a1.66,1.66,0,0,1,2.63,1.51,3.92,3.92,0,0,1-1.82,3.16A2.09,2.09,0,0,1,358.87,216Zm1-3.57a2.33,2.33,0,0,0-1,1.75.54.54,0,0,0,0,.22s.08,0,.17-.1a2.36,2.36,0,0,0,1-1.76.66.66,0,0,0,0-.21,1.41,1.41,0,0,1-.18.1Z"/><path d="M252.32,26.09l145.44,84v44.72l.09.05h-.09v0l.09,0,.69,234.49-16.31,9.4L374.07,394,268.3,455.12v9.4L252,473.9h0l-16.26-9.38v-9.4L121.85,389.31l8.09,4.69-8.09,4.71-16.32-9.4.12-18.71-.15-.08v-18.8l.26.15.74-118.53-5-2.91V221l3.13-1.82,2-1.14.39-63.24L227.14,85.07V40.64l25.18-14.55M397.85,154.83h0m0,0h0M252.32,21.25a4.78,4.78,0,0,0-2.42.65L224.72,36.44a4.88,4.88,0,0,0-2.42,4.2V82.28L104.55,150.65a4.82,4.82,0,0,0-2.41,4.15l-.38,60.46L99,216.85A4.81,4.81,0,0,0,96.62,221v9.4A4.83,4.83,0,0,0,99,234.62l2.6,1.51-.71,114a5,5,0,0,0-.27,1.58v18.8a4.81,4.81,0,0,0,.14,1.14l-.11,17.62a4.84,4.84,0,0,0,2.42,4.23l16.32,9.4a4.88,4.88,0,0,0,4.85,0l5.68-3.31,101,58.32v6.61a4.85,4.85,0,0,0,2.42,4.19l16.1,9.29a4.32,4.32,0,0,0,.67.36,4.94,4.94,0,0,0,1.91.39,4.8,4.8,0,0,0,.85-.07,5.41,5.41,0,0,0,1-.31,5.13,5.13,0,0,0,.66-.34l16.14-9.32a4.85,4.85,0,0,0,2.42-4.19v-6.61l100.94-58.29,5.73,3.3a4.88,4.88,0,0,0,4.83,0l16.32-9.4a4.84,4.84,0,0,0,2.42-4.21L402.69,155v-.19a4.7,4.7,0,0,0-.09-.92V110.06a4.83,4.83,0,0,0-2.42-4.19l-145.44-84a4.73,4.73,0,0,0-2.42-.65Z"/><path d="M123.82,231.13a.78.78,0,0,1-.39-.1l-22.36-12.47a.82.82,0,0,1-.32-1.1.81.81,0,0,1,1.1-.31l22.37,12.47a.81.81,0,0,1-.4,1.51Z"/></svg>