<svg id="Layer_1" data-name="Layer 1" xmlns="http://www.w3.org/2000/svg" viewBox="0 0 500 500"><defs><style>.cls-1{fill:none;stroke:#000;stroke-linecap:round;stroke-linejoin:round;}</style></defs><path d="M122.73,275.28a.87.87,0,0,1-.86-.76c0-.24,0-.47,0-.71v0l-.68-.9c-7.84-10.76-12.89-23.67-12.89-32.93V152.35a36.78,36.78,0,0,1,.72-7.23c3.25-16,15.89-24.66,33.84-23.27a.86.86,0,0,1,.79.86v0a.86.86,0,0,1-.34.69,8.12,8.12,0,0,0-.94.82c-.7.62-1.36,1.23-2,1.87l-.95,1c-.33.33-.6.66-.88,1a40.54,40.54,0,0,0-3.31,4.27,10.91,10.91,0,0,0-.73,1.09c-.52.78-1,1.54-1.43,2.32a50.54,50.54,0,0,0-2.57,5.05l-.41,1c-.67,1.62-1.24,3.17-1.68,4.59-.12.37-.24.72-.34,1.08a47.47,47.47,0,0,0-1.78,9.77c0,.52-.07,1-.09,1.49s0,1,0,1.47v87.59a34.16,34.16,0,0,0,1.94,11.39.86.86,0,0,1-.06.7,35.1,35.1,0,0,0-4.39,13.83l0,.8a.86.86,0,0,1-.84.81Zm16.45-151.85c-15.12,0-25.66,8.06-28.51,22a35.54,35.54,0,0,0-.69,6.89v87.59c0,8.78,4.78,21.05,12.2,31.42a37.52,37.52,0,0,1,4.15-12,35.9,35.9,0,0,1-1.91-11.6V160.16c0-.47,0-.94,0-1.41,0-.64,0-1.16.1-1.7A48,48,0,0,1,126.39,147c.11-.38.23-.76.36-1.13a49.22,49.22,0,0,1,1.73-4.74l.41-1a55.3,55.3,0,0,1,2.66-5.23c.46-.8.95-1.6,1.46-2.38.22-.36.49-.76.78-1.17a44.25,44.25,0,0,1,3.42-4.4c.3-.35.61-.71,1-1.06l.93-1c.49-.51,1-1,1.51-1.46C140.13,123.44,139.66,123.43,139.18,123.43Z"/><path d="M162.09,127.67H162a.76.76,0,0,1-.21,0l-11.16-2.79a.87.87,0,0,1,.43-1.68L162.23,126a.89.89,0,0,1,.7.85A.84.84,0,0,1,162.09,127.67Z"/><path d="M125.08,297.89H125c-33.09-4.12-33.09-29.48-33.09-43.11V143.91a36.77,36.77,0,0,1,2.86-14.15c6.34-15.29,22.74-24.7,39.91-22.88l52.65,3.73a.87.87,0,0,1,.8.71.89.89,0,0,1-.51.94,107.86,107.86,0,0,0-19.09,10.62c-2.08,1.48-4.06,3-5.88,4.57a.86.86,0,0,1-.77.18l-11.17-2.78c-1.34-.33-2.77-.61-4.37-.85-.56-.09-1.1-.15-1.66-.22s-1.33-.15-2-.21c-17-1.29-28.95,6.86-32,21.89a35.54,35.54,0,0,0-.69,6.89v87.59c0,8.91,4.93,21.43,12.55,31.9a.84.84,0,0,1,.16.48,116.76,116.76,0,0,0,3.21,24.43v0a.87.87,0,0,1-.83,1.1Zm5.36-189.5c-14.9,0-28.55,8.65-34.1,22a35.12,35.12,0,0,0-2.73,13.49V254.78c0,17.86,2.37,37.2,30.33,41.23a119.6,119.6,0,0,1-3-23.37c-7.74-10.7-12.72-23.51-12.72-32.7V152.35a36.78,36.78,0,0,1,.72-7.23c3.25-16,15.89-24.66,33.84-23.27.67.05,1.35.13,2,.21s1.14.14,1.71.23c1.65.25,3.13.54,4.52.88l10.75,2.68c1.76-1.49,3.67-3,5.66-4.38a107.42,107.42,0,0,1,16.28-9.38L134.5,108.6A37.06,37.06,0,0,0,130.44,108.39Z"/><path d="M263.12,404c-35.45,0-67.84-9.33-88.88-25.61l-9.5-7.36c-14.69-11.36-22.39-25.54-21.68-40a.85.85,0,0,1,.91-.82.86.86,0,0,1,.81.91c-.68,13.82,6.79,27.49,21,38.5l9.5,7.36c20.73,16,52.75,25.24,87.82,25.24,48.85,0,91.37-16.9,108.34-43.06,6.32-9.8,8.4-20.32,6-30.44a.86.86,0,0,1,.64-1,.85.85,0,0,1,1,.64c2.51,10.59.35,21.58-6.23,31.78C355.63,386.74,312.54,404,263.12,404Z"/><path d="M158.19,351a.92.92,0,0,1-.6-.23,69.14,69.14,0,0,1-13.34-17c-.43-.81-.8-1.6-1.12-2.36a.89.89,0,0,1,0-.68.85.85,0,0,1,.49-.46l1.41-.54a.88.88,0,0,1,1.13.53c.3.9.64,1.81,1,2.69a50,50,0,0,0,9.6,14.52c.75.8,1.4,1.45,2,2.08a.86.86,0,0,1,0,1.21A.85.85,0,0,1,158.19,351Z"/><path d="M143.92,331.94a.92.92,0,0,1-.47-.14.87.87,0,0,1-.39-.78c.09-1.33.23-2.68.42-4a.86.86,0,0,1,.81-.73.81.81,0,0,1,.88.64c.3,1.14.6,2.17.94,3.15a.87.87,0,0,1-.42,1l-1.36.73A1,1,0,0,1,143.92,331.94Z"/><path d="M190.58,110.9a.86.86,0,0,1-.34-1.66c1.6-.68,3.2-1.32,4.81-1.94l2.9-.92a.87.87,0,0,1,1.08.56.86.86,0,0,1-.55,1.08c-2.5.83-5,1.75-7.58,2.81A.71.71,0,0,1,190.58,110.9Z"/><path d="M263.73,170.7c-10.66,0-20.4-2.81-26.72-7.71l-2.81-2.16a16.77,16.77,0,0,1-6.34-8.94,12.59,12.59,0,0,1-.34-2.84V137a.87.87,0,0,1,.87-.87.89.89,0,0,1,.89.81l.06.72c0,.2.06.4.1.61a4.32,4.32,0,0,0,.14.67,12.25,12.25,0,0,0,1.44,3.32l.17.26a19.45,19.45,0,0,0,1.44,1.86c.19.23.37.41.56.61a1.45,1.45,0,0,1,.18.17,14.12,14.12,0,0,0,1.14,1,.8.8,0,0,1,.13.13l.53.41,2.9,2.25c.32.25.65.48,1,.71l.51.35.23.14c.64.42,1.31.84,2,1.23s1.57.8,2.41,1.17l1.07.47a2.28,2.28,0,0,1,.36.13,40.1,40.1,0,0,0,5,1.6l1.11.26.29.06c.45.1.92.21,1.39.29,1,.17,1.92.32,2.89.46s1.95.22,2.94.31,2,.12,3,.15c.26,0,.48,0,.73,0h.74a55.35,55.35,0,0,0,17.15-2.65c.77-.26,1.5-.53,2.21-.8l1-.41c.95-.41,1.9-.87,2.81-1.36l1.77-1c.28-.16.54-.34.8-.52.56-.38,1.08-.76,1.6-1.16.23-.18.46-.38.69-.58s.47-.4.7-.62.43-.42.65-.63a17.9,17.9,0,0,0,2.2-2.73c.09-.17.17-.3.24-.41.16-.27.35-.58.51-.9a10.23,10.23,0,0,0,.44-1c.11-.29.22-.6.32-.9A4.27,4.27,0,0,0,297,140a3.24,3.24,0,0,0,.11-.54,5.07,5.07,0,0,0,.1-.63l0-.28a.9.9,0,0,1,.9-.86.81.81,0,0,1,.84.79l0,11.61h0v.36a12,12,0,0,1-.79,4.06,14,14,0,0,1-1.46,2.92C291.54,165.49,278.57,170.7,263.73,170.7Zm-34.48-28v6.39a10.62,10.62,0,0,0,.29,2.43,15,15,0,0,0,5.72,8l2.81,2.16c6,4.67,15.37,7.35,25.66,7.35,14.27,0,26.67-4.9,31.59-12.48a12.69,12.69,0,0,0,1.29-2.58,10.23,10.23,0,0,0,.68-3.47v-6.51l-.27.45c-.08.12-.11.19-.15.25l-.09.16a19.27,19.27,0,0,1-2.42,3l-.71.69q-.37.35-.75.66l-.75.63c-.56.43-1.11.84-1.7,1.23-.28.19-.57.39-.88.58l-1.82,1c-1,.52-2,1-3,1.44l-1,.43c-.75.28-1.5.56-2.29.83a57.05,57.05,0,0,1-17.7,2.73H263c-.28,0-.54,0-.82,0-1,0-2-.08-3-.15s-2-.19-3-.32-2-.3-3-.47l-1.47-.3-.29-.06-1.15-.28a42.1,42.1,0,0,1-5.3-1.69l-1.44-.6c-.93-.41-1.77-.81-2.55-1.24s-1.43-.85-2.12-1.29l-.23-.15-.55-.37c-.35-.25-.71-.5-1.05-.77l-2.81-2.18-.72-.57-.09-.09a14.74,14.74,0,0,1-1.24-1.12,1,1,0,0,1-.25-.26,4.85,4.85,0,0,1-.6-.65,21.31,21.31,0,0,1-1.58-2l.57-.73-.74.46Z"/><path d="M264.19,205.64c-21.13,0-40.42-5.56-52.93-15.26L205.64,186c-11.13-8.63-15.4-19.75-11.7-30.5a.87.87,0,0,1,.82-.59h0a.86.86,0,0,1,.81.58c1.83,5.25,5.58,10.11,11.13,14.43l5.62,4.35c12.2,9.45,31.1,14.88,51.86,14.88,28.85,0,53.94-10,63.92-25.36A26.15,26.15,0,0,0,331,158a.89.89,0,0,1,.82-.59h0a.88.88,0,0,1,.82.58c2.49,7.15,1.44,14.58-3.05,21.5h0C319.25,195.38,293.59,205.64,264.19,205.64ZM194.9,158.46c-2.09,9.27,2.11,18.7,11.8,26.2l5.62,4.35c12.21,9.47,31.12,14.9,51.87,14.9,28.83,0,53.92-9.95,63.91-25.36,3.69-5.69,4.89-11.73,3.55-17.61a29.91,29.91,0,0,1-2.1,3.82c-10.29,15.88-35.95,26.15-65.37,26.15-21.14,0-40.42-5.56-52.92-15.25l-5.62-4.35A35.29,35.29,0,0,1,194.9,158.46ZM328.83,179h0Z"/><path d="M330.56,221.79a.86.86,0,0,1-.34-1.66c17.93-7.54,31.59-18,39.49-30.16,13-20,7.7-42-14.08-58.87l-9.47-7.34c-20.71-16-52.73-25.25-87.86-25.25a192.18,192.18,0,0,0-45.61,5.35c-1.88.45-3.76,1-5.58,1.45a.86.86,0,0,1-.48-1.66l5.59-1.75,14.05-3c2.92-.51,5.65-.92,8.36-1.24a200,200,0,0,1,25.44-1.61c35.48,0,67.88,9.33,88.89,25.61l9.47,7.36c16.27,12.57,23.82,28.25,21.25,44.15h0a44.15,44.15,0,0,1-6.78,17c-.48.73-1,1.43-1.46,2.13-.16.23-.33.47-.52.7-8.5,11.6-22.36,21.54-40.05,28.7A1,1,0,0,1,330.56,221.79Zm33-86.06c9.2,9.12,14.23,19.34,14.86,29.78C377.93,155,372.83,144.74,363.55,135.73Z"/><path class="cls-1" d="M356.15,130.42l-9.46-7.34c-22.3-17.28-55.31-25.43-88.39-25.43A194.48,194.48,0,0,0,212.48,103c-1.88.45-3.77,1-5.6,1.45q-2.38.7-4.7,1.42c-1,.29-1.91.6-2.86.93a11.18,11.18,0,0,0-1.11.38c-2.61.87-5.15,1.82-7.63,2.83l-2.28,1-.62.5-.44,0A109,109,0,0,0,168,122.18c-2.07,1.47-4.06,3-5.94,4.61l0,0a70.79,70.79,0,0,0-8.61,8.62c-.52.6-1,1.21-1.49,1.84s-1,1.25-1.4,1.89-.9,1.28-1.31,1.93c-5.84,9-8.05,18.36-6.81,27.55,1.56,11.63,8.73,22.89,21.08,32.49l9.48,7.36a99.74,99.74,0,0,0,17.41,10.69c20.43,10,45.67,14.74,70.94,14.74,24.41,0,48.9-4.46,69.11-13h.07c17.29-7.28,31.47-17.52,39.88-30.49C383.64,170.09,378.28,147.55,356.15,130.42ZM328.83,179c-10.81,16.67-37.76,25.76-64.64,25.76-19.62,0-39.19-4.84-52.4-15.08l-5.62-4.36c-10.95-8.48-15-19.19-11.41-29.53v0c-2.37-6.8-1.44-14,3-20.76,10.81-16.67,37.76-25.74,64.65-25.74,19.61,0,39.18,4.82,52.39,15.06l5.62,4.36c11,8.5,15,19.22,11.41,29.57C334.15,165.07,333.22,172.25,328.83,179Z"/><path d="M153.48,136.29a.91.91,0,0,1-.56-.2.87.87,0,0,1-.11-1.21,67.48,67.48,0,0,1,8.68-8.73.88.88,0,0,1,.94-.14l0,0a.87.87,0,0,1,.48.67.84.84,0,0,1-.3.77,70.49,70.49,0,0,0-8.51,8.51A.88.88,0,0,1,153.48,136.29Z"/><path d="M187.68,112.37h-.07l-.43,0a.86.86,0,0,1-.79-.71.88.88,0,0,1,.5-.94l1.05-.46a.86.86,0,0,1,.9,1.45l-.62.51A.91.91,0,0,1,187.68,112.37Z"/><path d="M263.73,170.7c-10.66,0-20.4-2.81-26.72-7.71l-2.81-2.16a16.77,16.77,0,0,1-6.34-8.94,12.59,12.59,0,0,1-.34-2.84V137a.87.87,0,0,1,.87-.87.89.89,0,0,1,.89.81l.06.72c0,.2.06.4.1.61a4.32,4.32,0,0,0,.14.67,12.25,12.25,0,0,0,1.44,3.32l.17.26a19.45,19.45,0,0,0,1.44,1.86c.19.23.37.41.56.61a1.45,1.45,0,0,1,.18.17,14.12,14.12,0,0,0,1.14,1,.8.8,0,0,1,.13.13l.53.41,2.9,2.25c.32.25.65.48,1,.71l.51.35.23.14c.64.42,1.31.84,2,1.23s1.57.8,2.41,1.17l1.07.47a2.28,2.28,0,0,1,.36.13,40.1,40.1,0,0,0,5,1.6l1.11.26.29.06c.45.1.92.21,1.39.29,1,.17,1.92.32,2.89.46s1.95.22,2.94.31,2,.12,3,.15c.26,0,.48,0,.73,0h.74a55.35,55.35,0,0,0,17.15-2.65c.77-.26,1.5-.53,2.21-.8l1-.41c.95-.41,1.9-.87,2.81-1.36l1.77-1c.28-.16.54-.34.8-.52.56-.38,1.08-.76,1.6-1.16.23-.18.46-.38.69-.58s.47-.4.7-.62.43-.42.65-.63a17.9,17.9,0,0,0,2.2-2.73c.09-.17.17-.3.24-.41.16-.27.35-.58.51-.9a10.23,10.23,0,0,0,.44-1c.11-.29.22-.6.32-.9A4.27,4.27,0,0,0,297,140a3.24,3.24,0,0,0,.11-.54,5.07,5.07,0,0,0,.1-.63l0-.28a.9.9,0,0,1,.9-.86.81.81,0,0,1,.84.79l0,11.61h0v.36a12,12,0,0,1-.79,4.06,14,14,0,0,1-1.46,2.92C291.54,165.49,278.57,170.7,263.73,170.7Zm-34.48-28v6.39a10.62,10.62,0,0,0,.29,2.43,15,15,0,0,0,5.72,8l2.81,2.16c6,4.67,15.37,7.35,25.66,7.35,14.27,0,26.67-4.9,31.59-12.48a12.69,12.69,0,0,0,1.29-2.58,10.23,10.23,0,0,0,.68-3.47v-6.51l-.27.45c-.08.12-.11.19-.15.25l-.09.16a19.27,19.27,0,0,1-2.42,3l-.71.69q-.37.35-.75.66l-.75.63c-.56.43-1.11.84-1.7,1.23-.28.19-.57.39-.88.58l-1.82,1c-1,.52-2,1-3,1.44l-1,.43c-.75.28-1.5.56-2.29.83a57.05,57.05,0,0,1-17.7,2.73H263c-.28,0-.54,0-.82,0-1,0-2-.08-3-.15s-2-.19-3-.32-2-.3-3-.47l-1.47-.3-.29-.06-1.15-.28a42.1,42.1,0,0,1-5.3-1.69l-1.44-.6c-.93-.41-1.77-.81-2.55-1.24s-1.43-.85-2.12-1.29l-.23-.15-.55-.37c-.35-.25-.71-.5-1.05-.77l-2.81-2.18-.72-.57-.09-.09a14.74,14.74,0,0,1-1.24-1.12,1,1,0,0,1-.25-.26,4.85,4.85,0,0,1-.6-.65,21.31,21.31,0,0,1-1.58-2l.57-.73-.74.46Z"/><path d="M264.19,205.64c-21.13,0-40.42-5.56-52.93-15.26L205.64,186c-11.13-8.63-15.4-19.75-11.7-30.5a.87.87,0,0,1,.82-.59h0a.86.86,0,0,1,.81.58c1.83,5.25,5.58,10.11,11.13,14.43l5.62,4.35c12.2,9.45,31.1,14.88,51.86,14.88,28.85,0,53.94-10,63.92-25.36A26.15,26.15,0,0,0,331,158a.89.89,0,0,1,.82-.59h0a.88.88,0,0,1,.82.58c2.49,7.15,1.44,14.58-3.05,21.5h0C319.25,195.38,293.59,205.64,264.19,205.64ZM194.9,158.46c-2.09,9.27,2.11,18.7,11.8,26.2l5.62,4.35c12.21,9.47,31.12,14.9,51.87,14.9,28.83,0,53.92-9.95,63.91-25.36,3.69-5.69,4.89-11.73,3.55-17.61a29.91,29.91,0,0,1-2.1,3.82c-10.29,15.88-35.95,26.15-65.37,26.15-21.14,0-40.42-5.56-52.92-15.25l-5.62-4.35A35.29,35.29,0,0,1,194.9,158.46ZM328.83,179h0Z"/><path d="M378.16,329.54a.78.78,0,0,1-.39-.1.85.85,0,0,1-.46-.9l.07-.45a.85.85,0,0,1,.85-.73h0a.87.87,0,0,1,.85.73s.06.25.07.26a.89.89,0,0,1-.24.78l-.14.15A.85.85,0,0,1,378.16,329.54Z"/><path d="M263.73,170.7c-10.66,0-20.4-2.81-26.72-7.71l-2.81-2.16a16.77,16.77,0,0,1-6.34-8.94,12.59,12.59,0,0,1-.34-2.84V137a.87.87,0,0,1,.87-.87.89.89,0,0,1,.89.81l.06.72c0,.2.06.4.1.61a4.32,4.32,0,0,0,.14.67,12.25,12.25,0,0,0,1.44,3.32l.17.26a19.45,19.45,0,0,0,1.44,1.86c.19.23.37.41.56.61a1.45,1.45,0,0,1,.18.17,14.12,14.12,0,0,0,1.14,1,.8.8,0,0,1,.13.13l.53.41,2.9,2.25c.32.25.65.48,1,.71l.51.35.23.14c.64.42,1.31.84,2,1.23s1.57.8,2.41,1.17l1.07.47a2.28,2.28,0,0,1,.36.13,40.1,40.1,0,0,0,5,1.6l1.11.26.29.06c.45.1.92.21,1.39.29,1,.17,1.92.32,2.89.46s1.95.22,2.94.31,2,.12,3,.15c.26,0,.48,0,.73,0h.74a55.35,55.35,0,0,0,17.15-2.65c.77-.26,1.5-.53,2.21-.8l1-.41c.95-.41,1.9-.87,2.81-1.36l1.77-1c.28-.16.54-.34.8-.52.56-.38,1.08-.76,1.6-1.16.23-.18.46-.38.69-.58s.47-.4.7-.62.43-.42.65-.63a17.9,17.9,0,0,0,2.2-2.73c.09-.17.17-.3.24-.41.16-.27.35-.58.51-.9a10.23,10.23,0,0,0,.44-1c.11-.29.22-.6.32-.9A4.27,4.27,0,0,0,297,140a3.24,3.24,0,0,0,.11-.54,5.07,5.07,0,0,0,.1-.63l0-.28a.9.9,0,0,1,.9-.86.81.81,0,0,1,.84.79l0,11.61h0v.36a12,12,0,0,1-.79,4.06,14,14,0,0,1-1.46,2.92C291.54,165.49,278.57,170.7,263.73,170.7Zm-34.48-28v6.39a10.62,10.62,0,0,0,.29,2.43,15,15,0,0,0,5.72,8l2.81,2.16c6,4.67,15.37,7.35,25.66,7.35,14.27,0,26.67-4.9,31.59-12.48a12.69,12.69,0,0,0,1.29-2.58,10.23,10.23,0,0,0,.68-3.47v-6.51l-.27.45c-.08.12-.11.19-.15.25l-.09.16a19.27,19.27,0,0,1-2.42,3l-.71.69q-.37.35-.75.66l-.75.63c-.56.43-1.11.84-1.7,1.23-.28.19-.57.39-.88.58l-1.82,1c-1,.52-2,1-3,1.44l-1,.43c-.75.28-1.5.56-2.29.83a57.05,57.05,0,0,1-17.7,2.73H263c-.28,0-.54,0-.82,0-1,0-2-.08-3-.15s-2-.19-3-.32-2-.3-3-.47l-1.47-.3-.29-.06-1.15-.28a42.1,42.1,0,0,1-5.3-1.69l-1.44-.6c-.93-.41-1.77-.81-2.55-1.24s-1.43-.85-2.12-1.29l-.23-.15-.55-.37c-.35-.25-.71-.5-1.05-.77l-2.81-2.18-.72-.57-.09-.09a14.74,14.74,0,0,1-1.24-1.12,1,1,0,0,1-.25-.26,4.85,4.85,0,0,1-.6-.65,21.31,21.31,0,0,1-1.58-2l.57-.73-.74.46Z"/><path d="M264.19,205.64c-21.13,0-40.42-5.56-52.93-15.26L205.64,186c-11.13-8.63-15.4-19.75-11.7-30.5a.87.87,0,0,1,.82-.59h0a.86.86,0,0,1,.81.58c1.83,5.25,5.58,10.11,11.13,14.43l5.62,4.35c12.2,9.45,31.1,14.88,51.86,14.88,28.85,0,53.94-10,63.92-25.36A26.15,26.15,0,0,0,331,158a.89.89,0,0,1,.82-.59h0a.88.88,0,0,1,.82.58c2.49,7.15,1.44,14.58-3.05,21.5h0C319.25,195.38,293.59,205.64,264.19,205.64ZM194.9,158.46c-2.09,9.27,2.11,18.7,11.8,26.2l5.62,4.35c12.21,9.47,31.12,14.9,51.87,14.9,28.83,0,53.92-9.95,63.91-25.36,3.69-5.69,4.89-11.73,3.55-17.61a29.91,29.91,0,0,1-2.1,3.82c-10.29,15.88-35.95,26.15-65.37,26.15-21.14,0-40.42-5.56-52.92-15.25l-5.62-4.35A35.29,35.29,0,0,1,194.9,158.46ZM328.83,179h0Z"/><path class="cls-1" d="M320.37,128.71l-5.62-4.36c-13.21-10.24-32.78-15.06-52.39-15.06-26.89,0-53.84,9.07-64.65,25.74-4.39,6.77-5.32,14-3,20.76v0c1.85,5.3,5.68,10.36,11.41,14.82l5.62,4.35C225,185.22,244.57,190,264.18,190c26.87,0,53.84-9.07,64.65-25.75a27.17,27.17,0,0,0,2.95-6C335.34,147.93,331.33,137.21,320.37,128.71Zm-22.22,21.74a11.28,11.28,0,0,1-.72,3.75,14.3,14.3,0,0,1-1.38,2.77c-5.41,8.32-18.87,12.86-32.32,12.86-9.8,0-19.57-2.4-26.19-7.53l-2.81-2.16a15.77,15.77,0,0,1-6-8.46,11.31,11.31,0,0,1-.31-2.63V137h0a12.23,12.23,0,0,1,2.09-7.31c.35-.53.73-1.05,1.14-1.57h0c6-7.32,18.59-11.3,31.16-11.3,9.81,0,19.59,2.42,26.19,7.53l2.81,2.18a22.62,22.62,0,0,1,2.37,2.12c3,3.15,4.3,6.69,3.9,10.25a2,2,0,0,0,.05-.42l0,11.61Z"/><path d="M263.73,170.7c-10.66,0-20.4-2.81-26.72-7.71l-2.81-2.16a16.77,16.77,0,0,1-6.34-8.94,12.59,12.59,0,0,1-.34-2.84V137a.87.87,0,0,1,.87-.87.89.89,0,0,1,.89.81l.06.72c0,.2.06.4.1.61a4.32,4.32,0,0,0,.14.67,12.25,12.25,0,0,0,1.44,3.32l.17.26a19.45,19.45,0,0,0,1.44,1.86c.19.23.37.41.56.61a1.45,1.45,0,0,1,.18.17,14.12,14.12,0,0,0,1.14,1,.8.8,0,0,1,.13.13l.53.41,2.9,2.25c.32.25.65.48,1,.71l.51.35.23.14c.64.42,1.31.84,2,1.23s1.57.8,2.41,1.17l1.07.47a2.28,2.28,0,0,1,.36.13,40.1,40.1,0,0,0,5,1.6l1.11.26.29.06c.45.1.92.21,1.39.29,1,.17,1.92.32,2.89.46s1.95.22,2.94.31,2,.12,3,.15c.26,0,.48,0,.73,0h.74a55.35,55.35,0,0,0,17.15-2.65c.77-.26,1.5-.53,2.21-.8l1-.41c.95-.41,1.9-.87,2.81-1.36l1.77-1c.28-.16.54-.34.8-.52.56-.38,1.08-.76,1.6-1.16.23-.18.46-.38.69-.58s.47-.4.7-.62.43-.42.65-.63a17.9,17.9,0,0,0,2.2-2.73c.09-.17.17-.3.24-.41.16-.27.35-.58.51-.9a10.23,10.23,0,0,0,.44-1c.11-.29.22-.6.32-.9A4.27,4.27,0,0,0,297,140a3.24,3.24,0,0,0,.11-.54,5.07,5.07,0,0,0,.1-.63l0-.28a.9.9,0,0,1,.9-.86.81.81,0,0,1,.84.79l0,11.61h0v.36a12,12,0,0,1-.79,4.06,14,14,0,0,1-1.46,2.92C291.54,165.49,278.57,170.7,263.73,170.7Zm-34.48-28v6.39a10.62,10.62,0,0,0,.29,2.43,15,15,0,0,0,5.72,8l2.81,2.16c6,4.67,15.37,7.35,25.66,7.35,14.27,0,26.67-4.9,31.59-12.48a12.69,12.69,0,0,0,1.29-2.58,10.23,10.23,0,0,0,.68-3.47v-6.51l-.27.45c-.08.12-.11.19-.15.25l-.09.16a19.27,19.27,0,0,1-2.42,3l-.71.69q-.37.35-.75.66l-.75.63c-.56.43-1.11.84-1.7,1.23-.28.19-.57.39-.88.58l-1.82,1c-1,.52-2,1-3,1.44l-1,.43c-.75.28-1.5.56-2.29.83a57.05,57.05,0,0,1-17.7,2.73H263c-.28,0-.54,0-.82,0-1,0-2-.08-3-.15s-2-.19-3-.32-2-.3-3-.47l-1.47-.3-.29-.06-1.15-.28a42.1,42.1,0,0,1-5.3-1.69l-1.44-.6c-.93-.41-1.77-.81-2.55-1.24s-1.43-.85-2.12-1.29l-.23-.15-.55-.37c-.35-.25-.71-.5-1.05-.77l-2.81-2.18-.72-.57-.09-.09a14.74,14.74,0,0,1-1.24-1.12,1,1,0,0,1-.25-.26,4.85,4.85,0,0,1-.6-.65,21.31,21.31,0,0,1-1.58-2l.57-.73-.74.46Z"/><path d="M262.52,389.39c-35.5,0-67.91-9.33-88.92-25.61l-9.46-7.32c-1.1-.86-2.2-1.77-3.32-2.73-.54-.47-1.09-1-1.61-1.45s-1.07-1-1.62-1.5-1.32-1.32-2-2a51.93,51.93,0,0,1-10-15.13c-.27-.64-.53-1.3-.76-2l-.59.22a.89.89,0,0,1-.58,0h0a.84.84,0,0,1-.14-.06h0a1.33,1.33,0,0,1-.19-.14c-9.1-8.71-15.52-20.3-19.07-34.45v-.07a118.24,118.24,0,0,1-3.25-24.8.86.86,0,0,1,1.54-.55l.87,1.14a1,1,0,0,1,.16.47v.32c0,.19,0,.38,0,.57.43,6.84,3.11,13.51,8,19.87a67.74,67.74,0,0,0,16.58,14.9l11.11,7.36a114.39,114.39,0,0,0,16.42,9c23.24,10.52,53.92,16.31,86.41,16.31,57.19,0,107-16.92,126.83-43.1a40.35,40.35,0,0,0,7.19-14.49.87.87,0,0,1,1.7.32C395.53,303,389.19,318,379,329.07a45,45,0,0,1-6.7,16.48C355,372.18,311.92,389.39,262.52,389.39ZM146.14,330.22l0,0c.3.9.64,1.81,1,2.69a50,50,0,0,0,9.6,14.52c.75.8,1.4,1.45,2,2.08s1,1,1.56,1.45l1.59,1.43c1.09.94,2.17,1.83,3.25,2.66l9.46,7.33c20.72,16,52.74,25.24,87.86,25.24,48.83,0,91.34-16.9,108.3-43.05a43.11,43.11,0,0,0,6.49-16.08l.07-.44a.86.86,0,0,1,.81-.73c8.12-9,13.67-20.62,16.54-34.72a46.94,46.94,0,0,1-4.43,7h0c-20.18,26.59-70.5,43.78-128.21,43.78-32.73,0-63.67-5.85-87.12-16.47a117.43,117.43,0,0,1-16.67-9.1l-11.11-7.36a69.21,69.21,0,0,1-17-15.29,41.62,41.62,0,0,1-6.79-12.64,104.6,104.6,0,0,0,2.4,13.77.86.86,0,0,1,.3.87.88.88,0,0,1,0,.15c3.32,12.9,9.09,23.58,17.16,31.78.07-.72.16-1.44.26-2.16a.86.86,0,0,1,.81-.73.81.81,0,0,1,.88.64c.3,1.14.6,2.17.94,3.15Zm243.47-31.06h0ZM215.45,377.3a7.14,7.14,0,0,1-7.12-7.12,7.11,7.11,0,0,1,12.15-5,7.12,7.12,0,0,1-5,12.15Zm0-12.51a5.39,5.39,0,0,0-3.81,9.2,5.51,5.51,0,0,0,7.62,0,5.39,5.39,0,0,0-3.81-9.2Zm15.41,10.8a5.41,5.41,0,1,1,3.82-1.59A5.39,5.39,0,0,1,230.86,375.59Zm0-9.09a3.68,3.68,0,0,0-3.68,3.68,3.63,3.63,0,0,0,1.08,2.6,3.76,3.76,0,0,0,5.2,0,3.68,3.68,0,0,0-2.6-6.28Zm-1.71-8.15a5.39,5.39,0,1,1,3.82-1.58A5.38,5.38,0,0,1,229.15,358.35Zm0-9.07a3.67,3.67,0,0,0-3.68,3.66,3.61,3.61,0,0,0,1.08,2.6,3.76,3.76,0,0,0,5.2,0,3.65,3.65,0,0,0,0-5.18A3.63,3.63,0,0,0,229.15,349.28Zm-16,6.08a3.57,3.57,0,1,1,3.57-3.56A3.57,3.57,0,0,1,213.19,355.36Zm0-5.41A1.84,1.84,0,1,0,215,351.8,1.84,1.84,0,0,0,213.19,350Zm134.22,1.54A5.34,5.34,0,0,1,342,346.1a5.38,5.38,0,0,1,9.2-3.83,5.42,5.42,0,0,1,0,7.66h0A5.39,5.39,0,0,1,347.41,351.49Zm0-9.05a3.68,3.68,0,0,0-2.6,6.27,3.82,3.82,0,0,0,5.2,0,3.66,3.66,0,0,0-2.6-6.26Zm3.21,6.88h0Zm7.75-11.21a5.32,5.32,0,0,1-3.83-1.6,5.41,5.41,0,1,1,7.66,0A5.32,5.32,0,0,1,358.38,338.11Zm0-9.08a3.66,3.66,0,0,0-2.6,6.27,3.75,3.75,0,0,0,5.19,0h0a3.67,3.67,0,0,0-2.59-6.27Zm3.21,6.88h0Z"/><path d="M156.14,348.92a.86.86,0,0,1-.63-.27,75.66,75.66,0,0,1-11.26-14.87c-.43-.83-.8-1.61-1.12-2.37a.86.86,0,1,1,1.59-.67c.3.72.66,1.46,1.06,2.23a74,74,0,0,0,11,14.49.87.87,0,0,1-.62,1.46Z"/><path d="M397.68,277.34h-.05a.85.85,0,0,1-.81-.9h0c.05-.89.1-1.77.12-2.67h0v0a191.63,191.63,0,0,0-2.39-36.53l-14.8,8.89a.84.84,0,0,1-.88,0,.86.86,0,0,1-.43-.76l.19-16a.86.86,0,0,1,.43-.74l26.44-15.3-18.19-10.53a.86.86,0,0,1-.43-.77s0-.07,0-.11c-1.22-4.5-2.6-9.25-4.1-14.1-1.18-3.85-2.44-7.69-3.73-11.46a45.49,45.49,0,0,1-6.15,13.9c-.48.73-1,1.43-1.46,2.13-.16.23-.33.47-.52.7-8.5,11.6-22.36,21.54-40.05,28.7a.87.87,0,0,1-1.12-.48.85.85,0,0,1,.47-1.12c17.39-7,31-16.78,39.34-28.16a7.38,7.38,0,0,0,.47-.64c.5-.7,1-1.38,1.42-2.07A42.39,42.39,0,0,0,378,172.91a.85.85,0,0,1,.77-.72.87.87,0,0,1,.9.57c1.67,4.73,3.29,9.6,4.79,14.49s2.91,9.69,4.14,14.23l19.08,11.05a.86.86,0,0,1,0,1.49l-27.31,15.8-.16,14L394.76,235a.86.86,0,0,1,.81,0,.85.85,0,0,1,.49.65,194.28,194.28,0,0,1,2.6,38,.33.33,0,0,1,0,.14c0,.91-.07,1.8-.12,2.7A.87.87,0,0,1,397.68,277.34Z"/><path d="M121.83,273.21a.86.86,0,0,1-.86-.84,204.21,204.21,0,0,1,3.47-41.46l0-.28c.17-1,.35-2,.55-3s.43-2.26.66-3.4l.4-1.93c.1-.46.2-.92.29-1.39l2.44-10.66c.23-.92.46-1.84.7-2.76.74-2.93,1.55-5.93,2.4-9,.4-1.42.82-2.85,1.25-4.3q1-3.42,2.08-6.95c2.07-6.7,4.22-13.06,6.4-18.91a.86.86,0,0,1,1.62.6c-2.17,5.82-4.31,12.15-6.37,18.82q-1.09,3.51-2.07,6.93c-.43,1.45-.85,2.86-1.24,4.27-.85,3-1.66,6-2.4,9-.24.92-.46,1.83-.69,2.74l-2.43,10.61c-.09.45-.19.92-.29,1.39l-.4,1.91c-.22,1.13-.44,2.27-.65,3.39s-.38,2-.55,3l0,.29a202.76,202.76,0,0,0-3.45,41.1.85.85,0,0,1-.83.89Z"/><path d="M195.9,369.59a.86.86,0,0,1-.6-.24c-1.26-1.2-2.48-2.48-3.64-3.79a.87.87,0,0,1,1.3-1.15c1.12,1.28,2.31,2.52,3.54,3.69a.87.87,0,0,1,0,1.22A.84.84,0,0,1,195.9,369.59ZM182.79,351.5A.86.86,0,0,1,182,351c-.76-1.54-1.48-3.15-2.14-4.79a.86.86,0,1,1,1.6-.64c.65,1.59,1.35,3.16,2.09,4.67a.87.87,0,0,1-.78,1.24Zm-6.92-21.28a.87.87,0,0,1-.85-.7c-.32-1.67-.61-3.4-.86-5.15a.87.87,0,0,1,.73-1,.89.89,0,0,1,1,.73c.25,1.73.53,3.44.85,5.07a.88.88,0,0,1-.69,1Zm-2.12-22.32a.87.87,0,0,1-.87-.85c0-.6,0-1.2,0-1.8,0-1.12,0-2.26,0-3.41a.86.86,0,0,1,.86-.85h0a.86.86,0,0,1,.84.88c0,1.14,0,2.27,0,3.38,0,.6,0,1.19,0,1.78a.87.87,0,0,1-.85.87Zm1.19-22.41h-.1a.86.86,0,0,1-.76-.95c.19-1.7.4-3.42.63-5.17a.86.86,0,1,1,1.71.23c-.23,1.74-.44,3.44-.62,5.12A.86.86,0,0,1,174.94,285.49Zm3.49-22.17a.52.52,0,0,1-.17,0,.86.86,0,0,1-.68-1c.34-1.67.69-3.37,1.07-5.09a.87.87,0,0,1,1-.66.86.86,0,0,1,.66,1c-.37,1.71-.72,3.39-1.05,5.06A.86.86,0,0,1,178.43,263.32Zm5.15-21.85a.83.83,0,0,1-.22,0,.86.86,0,0,1-.61-1.06q.66-2.48,1.38-5a.86.86,0,0,1,1.66.47c-.48,1.68-.93,3.35-1.38,5A.86.86,0,0,1,183.58,241.47Z"/><path d="M263.73,158.05H263c-.28,0-.54,0-.82,0-1,0-2-.08-3-.15s-2-.19-3-.32-2-.3-3-.47l-1.47-.3-.29-.06-1.15-.28a42.1,42.1,0,0,1-5.3-1.69l-1.44-.6c-.93-.41-1.77-.81-2.55-1.24s-1.43-.85-2.12-1.29l-.23-.15-.55-.37c-.35-.25-.71-.5-1.05-.77l-2.81-2.18-.72-.57-.09-.09a14.74,14.74,0,0,1-1.24-1.12,1,1,0,0,1-.25-.26,4.85,4.85,0,0,1-.6-.65,21.31,21.31,0,0,1-1.58-2l.57-.73-.74.46a14.08,14.08,0,0,1-1.64-3.78,6.4,6.4,0,0,1-.17-.83c0-.17-.08-.41-.11-.65l-.06-.68,0-.18a12.94,12.94,0,0,1,2.23-7.83,20,20,0,0,1,1.19-1.64l.11-.12c5.9-7.1,18-11.5,31.74-11.5,10.65,0,20.39,2.81,26.72,7.71l2.81,2.18a23.75,23.75,0,0,1,2.47,2.21c3.13,3.3,4.56,7.08,4.13,10.93a.09.09,0,0,1,0,0l-.1.62a3.54,3.54,0,0,1-.14.71,5.18,5.18,0,0,1-.22.86c-.11.32-.23.66-.36,1a10.35,10.35,0,0,1-.51,1.12c-.17.34-.37.69-.59,1-.08.12-.11.19-.15.25l-.09.16a19.27,19.27,0,0,1-2.42,3l-.71.69q-.37.35-.75.66l-.75.63c-.56.43-1.11.84-1.7,1.23-.28.19-.57.39-.88.58l-1.82,1c-1,.52-2,1-3,1.44l-1,.43c-.75.28-1.5.56-2.29.83A57.05,57.05,0,0,1,263.73,158.05Zm-29.09-11.73.53.41,2.9,2.25c.32.25.65.48,1,.71l.51.35.23.14c.64.42,1.31.84,2,1.23s1.57.8,2.41,1.17l1.07.47a2.28,2.28,0,0,1,.36.13,40.1,40.1,0,0,0,5,1.6l1.11.26.29.06c.45.1.92.21,1.39.29,1,.17,1.92.32,2.89.46s1.95.22,2.94.31,2,.12,3,.15c.26,0,.48,0,.73,0h.74a55.35,55.35,0,0,0,17.15-2.65c.77-.26,1.5-.53,2.21-.8l1-.41c.95-.41,1.9-.87,2.81-1.36l1.77-1c.28-.16.54-.34.8-.52.56-.38,1.08-.76,1.6-1.16.23-.18.46-.38.69-.58s.47-.4.7-.62.43-.42.65-.63a17.9,17.9,0,0,0,2.2-2.73c.09-.17.17-.3.24-.41.16-.27.35-.58.51-.9a10.23,10.23,0,0,0,.44-1c.11-.29.22-.6.32-.9A4.27,4.27,0,0,0,297,140a3.24,3.24,0,0,0,.11-.54l.11-.68c.36-3.33-.91-6.62-3.68-9.53a20.1,20.1,0,0,0-2.27-2L288.47,125c-6-4.68-15.38-7.35-25.66-7.35-13.06,0-25,4.31-30.49,11l-.1.1c-.36.46-.69.92-1,1.39a11.31,11.31,0,0,0-2,6.63.77.77,0,0,1,0,.15l.06.72c0,.2.06.4.1.61a4.32,4.32,0,0,0,.14.67,12.25,12.25,0,0,0,1.44,3.32l.17.26a19.45,19.45,0,0,0,1.44,1.86c.19.23.37.41.56.61a1.45,1.45,0,0,1,.18.17,14.12,14.12,0,0,0,1.14,1A.8.8,0,0,1,234.64,146.32Zm63.44-7.42h0Z"/><path d="M228.47,138.59a.87.87,0,0,1-.85-.75c0-.26-.06-.52-.08-.78a.87.87,0,0,1,1.74-.12l.06.72a.87.87,0,0,1-.78.92Z"/><path d="M263.73,158.07c-.28,0-.54,0-.81,0a.86.86,0,0,1,.07-1.72h.74a55.35,55.35,0,0,0,17.15-2.65.86.86,0,1,1,.55,1.63A55.83,55.83,0,0,1,263.73,158.07Z"/><path d="M263.73,170.7c-10.66,0-20.4-2.81-26.72-7.71l-2.81-2.16a16.77,16.77,0,0,1-6.34-8.94,12.59,12.59,0,0,1-.34-2.84V137a.87.87,0,0,1,.87-.87.89.89,0,0,1,.89.81l.06.72c0,.2.06.4.1.61a4.32,4.32,0,0,0,.14.67,12.25,12.25,0,0,0,1.44,3.32l.17.26a12.39,12.39,0,0,0,1.42,1.83c.21.26.39.44.58.64a1.45,1.45,0,0,1,.18.17,14.12,14.12,0,0,0,1.14,1,.68.68,0,0,1,.12.12l.08.06.55.45,2.81,2.15c.32.26.65.49,1,.72l.51.35.23.14c.64.42,1.31.84,2,1.23s1.57.8,2.41,1.17l1.07.47a2.28,2.28,0,0,1,.36.13,40.1,40.1,0,0,0,5,1.6l1.11.26.29.06c.45.1.92.21,1.39.29,1,.17,1.92.32,2.89.46s1.95.22,2.94.31,2,.12,3,.15c.26,0,.48,0,.73,0h.74a55.35,55.35,0,0,0,17.15-2.65c.77-.26,1.5-.53,2.21-.8l1-.41c.95-.41,1.9-.87,2.81-1.36l1.77-1c.28-.16.54-.34.8-.52.56-.38,1.08-.76,1.6-1.16.23-.18.46-.38.69-.58s.47-.4.7-.62.43-.42.65-.63a17.9,17.9,0,0,0,2.2-2.73c.09-.17.17-.3.24-.41.16-.27.35-.58.51-.9a10.23,10.23,0,0,0,.44-1c.11-.29.22-.6.32-.9A4.27,4.27,0,0,0,297,140a3.24,3.24,0,0,0,.11-.54,5.07,5.07,0,0,0,.1-.63l0-.28a.9.9,0,0,1,.9-.86.81.81,0,0,1,.84.79l0,11.61h0v.36a12,12,0,0,1-.79,4.06,14,14,0,0,1-1.46,2.92C291.54,165.49,278.57,170.7,263.73,170.7Zm-34.48-28v6.39a10.62,10.62,0,0,0,.29,2.43,15,15,0,0,0,5.72,8l2.81,2.16c6,4.67,15.37,7.35,25.66,7.35,14.27,0,26.67-4.9,31.59-12.48a12.69,12.69,0,0,0,1.29-2.58,10.23,10.23,0,0,0,.68-3.47v-6.51l-.27.45c-.08.12-.11.19-.15.25l-.09.16a19.27,19.27,0,0,1-2.42,3l-.71.69q-.37.35-.75.66l-.75.63c-.56.43-1.11.84-1.7,1.23-.28.19-.57.39-.88.58l-1.82,1c-1,.52-2,1-3,1.44l-1,.43c-.75.28-1.5.56-2.29.83a57.05,57.05,0,0,1-17.7,2.73H263c-.28,0-.54,0-.82,0-1,0-2-.08-3-.15s-2-.19-3-.32-2-.3-3-.47l-1.47-.3-.29-.06-1.15-.28a42.1,42.1,0,0,1-5.3-1.69l-1.44-.6c-.93-.41-1.77-.81-2.55-1.24s-1.43-.85-2.12-1.29l-.23-.15-.55-.37c-.35-.25-.71-.5-1.05-.77l-2.81-2.15-.6-.5a1.18,1.18,0,0,1-.27-.23,13.49,13.49,0,0,1-1.18-1.08,1,1,0,0,1-.25-.26,4.85,4.85,0,0,1-.6-.65,12.54,12.54,0,0,1-1.58-2.05l.57-.71-.74.46Z"/><path d="M379.3,246.19a.82.82,0,0,1-.43-.12.87.87,0,0,1-.44-.76l.2-16a.86.86,0,0,1,.43-.74l27.73-16a.9.9,0,0,1,.87,0,.89.89,0,0,1,.43.75l0,15.3a.87.87,0,0,1-.42.74l-27.95,16.75A.8.8,0,0,1,379.3,246.19Zm1.05-16.37-.17,14,26.2-15.71,0-13.32Z"/><path d="M370.26,210.73a.87.87,0,0,1-.86-.87V191.53a.86.86,0,0,1,.44-.75.85.85,0,0,1,.87,0l17.48,10.47a.88.88,0,0,1,.3,1.19.86.86,0,0,1-1.19.29l-16.17-9.69v16.81A.87.87,0,0,1,370.26,210.73Z"/><path d="M379.49,230.19a.85.85,0,0,1-.43-.12l-26-14.88a.87.87,0,0,1-.33-1.18.86.86,0,0,1,1.18-.32l26.05,14.88a.87.87,0,0,1-.43,1.62Z"/><path d="M390.64,222.74a.84.84,0,0,1-.43-.11L379,216.25a.86.86,0,0,1,.86-1.5l11.22,6.38a.85.85,0,0,1,.32,1.17A.87.87,0,0,1,390.64,222.74Z"/><path d="M379.3,246.19a.83.83,0,0,1-.48-.15L366,237.48a.86.86,0,0,1-.24-1.2A.88.88,0,0,1,367,236l12.83,8.57a.86.86,0,0,1-.48,1.58Z"/><path d="M122.68,274.33a.86.86,0,0,1-.87-.83c0-.92,0-1.89,0-2.94a.81.81,0,0,1,.91-.82.87.87,0,0,1,.82.91c-.06,1-.07,1.92,0,2.79a.85.85,0,0,1-.83.89Z"/><path d="M397,285.2l-.21,0a.86.86,0,0,1-.62-1.05,29.33,29.33,0,0,0,.89-5.7,27.75,27.75,0,0,0-.07-4.57v-.14a32.24,32.24,0,0,0-.84-4.8.88.88,0,0,1-.36-.87l.09-.45a.86.86,0,0,1,.79-.7.84.84,0,0,1,.87.58,3,3,0,0,1,.12.41,33.48,33.48,0,0,1,1.05,5.75.56.56,0,0,1,0,.31,29.1,29.1,0,0,1,.05,4.58,31.19,31.19,0,0,1-.94,6A.86.86,0,0,1,397,285.2Z"/><path d="M262.09,343.46c-32.73,0-63.67-5.85-87.12-16.47a117.43,117.43,0,0,1-16.67-9.1l-11.11-7.36a69.21,69.21,0,0,1-17-15.29c-5.08-6.63-7.89-13.62-8.33-20.77l0-.93a36.71,36.71,0,0,1,4.6-14.53,48,48,0,0,1,3.78-5.78c11.37-15,32.08-27.06,59.91-34.88a.81.81,0,0,1,.61.06c19.36,9.44,44.42,14.64,70.56,14.64,24.6,0,49-4.58,68.77-12.9a.91.91,0,0,1,.61,0A132.61,132.61,0,0,1,362.3,235l11.1,7.36c14.85,9.83,23.54,21.59,25.13,34a.86.86,0,0,1,0,.16c-.17,2.69-.42,5.35-.73,7.91a42.05,42.05,0,0,1-7.51,15.23C370.12,326.27,319.8,343.46,262.09,343.46ZM190.36,220.1c-27.3,7.73-47.59,19.54-58.69,34.17a47.78,47.78,0,0,0-3.64,5.58,35,35,0,0,0-4.39,13.82l0,.8c.43,6.69,3.11,13.36,8,19.72a67.74,67.74,0,0,0,16.58,14.9l11.11,7.36a114.39,114.39,0,0,0,16.42,9c23.24,10.52,53.92,16.31,86.41,16.31,57.19,0,107-16.92,126.83-43.1a40.31,40.31,0,0,0,7.19-14.48c.3-2.55.54-5.08.7-7.65-1.56-11.86-10-23.17-24.36-32.69l-11.11-7.36a130.44,130.44,0,0,0-30.82-14.59c-19.9,8.33-44.44,12.92-69.14,12.92C235.12,234.78,209.91,229.57,190.36,220.1Z"/><path d="M397.89,283.18h-.05a.88.88,0,0,1-.82-.91,31.22,31.22,0,0,0,0-3.75c0-.65-.1-1.3-.19-1.93a.86.86,0,0,1,1.71-.23c.09.68.17,1.38.2,2.05a34.57,34.57,0,0,1,0,3.95A.87.87,0,0,1,397.89,283.18Z"/><path d="M330.49,221.81a.8.8,0,0,1-.3-.06l-.57-.19a.85.85,0,0,1-.51-1.1.86.86,0,0,1,1.1-.52l.57.19a.87.87,0,0,1-.29,1.68Z"/><path d="M123.9,286h0a.87.87,0,0,1-.84-.72l0-.17a32.36,32.36,0,0,1-1.13-10.76.84.84,0,0,1,.92-.8.86.86,0,0,1,.8.92,30.78,30.78,0,0,0,.9,9.53.86.86,0,0,1,.35.87l-.09.43A.86.86,0,0,1,123.9,286Z"/><path d="M229.15,358.35a5.39,5.39,0,1,1,3.82-1.58A5.38,5.38,0,0,1,229.15,358.35Zm0-9.07a3.67,3.67,0,0,0-3.68,3.66,3.61,3.61,0,0,0,1.08,2.6,3.76,3.76,0,0,0,5.2,0,3.65,3.65,0,0,0,0-5.18A3.63,3.63,0,0,0,229.15,349.28Z"/><path d="M230.86,375.59a5.41,5.41,0,1,1,3.82-1.59A5.39,5.39,0,0,1,230.86,375.59Zm0-9.09a3.68,3.68,0,0,0-3.68,3.68,3.63,3.63,0,0,0,1.08,2.6,3.76,3.76,0,0,0,5.2,0,3.68,3.68,0,0,0-2.6-6.28Z"/><path d="M215.45,377.3a7.14,7.14,0,0,1-7.12-7.12,7.11,7.11,0,0,1,12.15-5,7.12,7.12,0,0,1-5,12.15Zm0-12.51a5.39,5.39,0,0,0-3.81,9.2,5.51,5.51,0,0,0,7.62,0,5.39,5.39,0,0,0-3.81-9.2Z"/><path d="M213.19,355.36a3.57,3.57,0,1,1,3.57-3.56A3.57,3.57,0,0,1,213.19,355.36Zm0-5.41A1.84,1.84,0,1,0,215,351.8,1.84,1.84,0,0,0,213.19,350Z"/><path d="M358.38,338.11a5.32,5.32,0,0,1-3.83-1.6,5.41,5.41,0,1,1,7.66,0A5.32,5.32,0,0,1,358.38,338.11Zm0-9.08a3.66,3.66,0,0,0-2.6,6.27,3.75,3.75,0,0,0,5.19,0,3.67,3.67,0,0,0-2.59-6.27Z"/><path d="M347.41,351.49A5.34,5.34,0,0,1,342,346.1a5.38,5.38,0,0,1,9.2-3.83,5.42,5.42,0,0,1,0,7.66A5.43,5.43,0,0,1,347.41,351.49Zm0-9.05a3.68,3.68,0,0,0-2.6,6.27,3.82,3.82,0,0,0,5.2,0,3.69,3.69,0,0,0,0-5.2A3.69,3.69,0,0,0,347.42,342.44Z"/><path d="M260.06,96.92c33.08,0,66.08,8.16,88.37,25.43l9.47,7.36c16.2,12.53,23.41,28,20.94,43.34,1.55,4.38,3.15,9.18,4.78,14.45q2.29,7.47,4.2,14.45l-.07.05,19.47,11.27,0,15.3-12.05,7.21A191.58,191.58,0,0,1,397.77,274a30.72,30.72,0,0,1,.06,4.29,30.42,30.42,0,0,1,.05,4.05l-.46-.42c-.14.84-.3,1.68-.51,2.53-2.53,20.32-9.61,34.41-18.61,44.1,2.43,10.28.44,21-6.12,31.11-18.24,28.12-63.72,43.45-109.06,43.45-33.05,0-66.05-8.16-88.35-25.43l-9.49-7.36c-14.77-11.41-22.05-25.25-21.35-39.22-8.12-7.75-15-18.7-18.84-34.06-31.1-3.86-32.34-26.32-32.34-42.23V143.91a35.84,35.84,0,0,1,2.79-13.82c5.81-14,19.9-22.57,34.88-22.57a38.23,38.23,0,0,1,4.13.22l52.75,3.73c.34-.15.66-.32,1-.46l2.28-1c1.58-.68,3.18-1.31,4.79-2l2.84-.9c.36-.14.75-.26,1.11-.36,1-.34,1.9-.65,2.87-1,1.53-.48,3.11-.94,4.69-1.4l5.61-1.75,14-3c2.74-.48,5.49-.89,8.28-1.23a199.28,199.28,0,0,1,25.33-1.61M125.29,231.15c.19-1.1.39-2.23.6-3.35s.43-2.26.66-3.4l.15-.76c.18-.85.37-1.69.54-2.56s.38-1.73.57-2.61.4-1.76.59-2.64.41-1.76.62-2.66.43-1.81.65-2.71.45-1.83.69-2.75c.75-2.93,1.56-5.92,2.41-9,.39-1.42.81-2.83,1.24-4.28q1-3.42,2.07-6.95c2.2-7.1,4.34-13.35,6.39-18.86-1.24-9.19,1-18.57,6.81-27.55.41-.65.86-1.29,1.31-1.93s.92-1.26,1.4-1.89,1-1.24,1.49-1.84a70.79,70.79,0,0,1,8.61-8.62l0,0L150.88,124c-1.48-.36-3-.64-4.43-.86-.57-.09-1.13-.16-1.7-.23s-1.33-.14-2-.19c-.35.29-.69.59-1,.9-.67.6-1.34,1.23-2,1.88l-.95,1c-.31.32-.61.67-.92,1-1.19,1.38-2.31,2.83-3.37,4.33-.26.38-.5.76-.76,1.14-.5.76-1,1.54-1.43,2.33a53.74,53.74,0,0,0-2.61,5.13c-.14.33-.28.64-.41,1-.64,1.54-1.23,3.11-1.71,4.68-.12.36-.25.73-.35,1.11a47.29,47.29,0,0,0-1.81,9.93c0,.52-.07,1-.09,1.52s0,1,0,1.5v71M260.06,91.74a203.44,203.44,0,0,0-26,1.65c-2.83.34-5.63.76-8.52,1.27l-.18,0-14,3a4.05,4.05,0,0,0-.47.12l-5.56,1.73c-1.65.49-3.23.95-4.76,1.43-.89.27-1.85.59-2.86,1-.45.12-.88.26-1.28.41l-2.68.85-.33.12c-1.63.64-3.29,1.3-4.94,2l-2.19.93L135,102.58a44,44,0,0,0-4.59-.24c-17.6,0-33.17,10.11-39.67,25.76a41,41,0,0,0-3.18,15.81V254.78c0,13.44,0,40.93,33.4,46.85,3.66,12.64,9.62,23.23,17.73,31.56.11,15,8.34,29.56,23.41,41.2l9.49,7.36c21.75,16.85,55.11,26.51,91.52,26.51,50.85,0,95.36-18,113.41-45.81,6.69-10.35,9.21-21.5,7.36-32.41,9.7-11.35,15.78-26.33,18.11-44.59a5.21,5.21,0,0,0,1.05-2.84,36,36,0,0,0,0-4.39,37,37,0,0,0-.06-4.34,194,194,0,0,0-2.11-35.44l9.06-5.43a5.17,5.17,0,0,0,2.52-4.45l0-15.3a5.2,5.2,0,0,0-2.59-4.48l-17.53-10.14c-1.08-3.9-2.31-8.07-3.72-12.66s-2.92-9.17-4.42-13.45c2.2-17.06-5.95-33.67-23.08-46.92l-9.46-7.35c-21.76-16.86-55.13-26.52-91.55-26.52ZM141.77,130.92l.3-.34c.15-.18.31-.35.47-.52l.42-.44.53-.54c.31-.33.66-.66,1-1l1.18.16c1.46.22,2.77.48,4,.77l2.07.52c-.77.84-1.51,1.69-2.23,2.54-.52.61-1.08,1.3-1.64,2.05s-1.05,1.38-1.51,2-1,1.38-1.45,2.15c-6.09,9.36-8.76,19.61-7.72,29.68-2.06,5.6-4.09,11.63-6.05,18l-.66,2.17v-28c0-.44,0-.87,0-1.31s0-.79.06-1.2c0-.05,0-.1,0-.15a41.73,41.73,0,0,1,1.62-8.85c.1-.36.19-.64.28-.91l0-.12c.4-1.3.91-2.68,1.54-4.21l.18-.41.2-.47a49.21,49.21,0,0,1,2.33-4.6c.4-.66.83-1.39,1.29-2.09l.38-.57.33-.5c.93-1.32,1.95-2.63,3-3.85Z"/></svg>