<svg id="Layer_1" data-name="Layer 1" xmlns="http://www.w3.org/2000/svg" viewBox="0 0 500 500"><path d="M126.44,353.75a.81.81,0,0,1-.43-.11l-34.38-20a.89.89,0,0,1-.43-.75V150.16a.87.87,0,0,1,1.73,0V332.39l33.94,19.75a.86.86,0,0,1-.43,1.61Z"/><path d="M249.68,425.47a.82.82,0,0,1-.43-.12L174,381.53a.86.86,0,0,1-.31-1.18.87.87,0,0,1,1.19-.31l74.85,43.57,157.37-90.86V150.52a.87.87,0,0,1,1.73,0V333.25a.85.85,0,0,1-.43.75L250.11,425.35A.82.82,0,0,1,249.68,425.47Z"/><path d="M388.14,368.37a.82.82,0,0,1-.43-.12.85.85,0,0,1-.43-.74V344.67a.85.85,0,0,1,.43-.75L407.5,332.5a.88.88,0,0,1,.86,0,.86.86,0,0,1,.43.75v23.21a.86.86,0,0,1-.44.75l-19.79,11.05A.88.88,0,0,1,388.14,368.37Zm.87-23.2V366L407.07,356v-21.2Z"/><path d="M388.14,368.37a.82.82,0,0,1-.43-.12l-19.78-11.41a.85.85,0,0,1-.43-.75.84.84,0,0,1,.43-.74l19.78-11.43a.88.88,0,0,1,.86,0,.86.86,0,0,1,.44.75v22.84a.85.85,0,0,1-.44.74A.82.82,0,0,1,388.14,368.37Zm-18.05-12.28L387.28,366V346.16Z"/><path d="M249.68,448.32a.82.82,0,0,1-.43-.12l-19.77-11.42a.86.86,0,0,1-.43-.75V413.19a.85.85,0,0,1,.43-.74.83.83,0,0,1,.86,0l19.34,11.17L269,412.44a.88.88,0,0,1,.86,0,.86.86,0,0,1,.43.75V436a.86.86,0,0,1-.43.75L250.11,448.2A.82.82,0,0,1,249.68,448.32Zm-18.91-12.79,18.91,10.93,18.92-10.93V414.69l-18.48,10.67a.9.9,0,0,1-.87,0l-18.48-10.67Z"/><path d="M111.22,368.38a.8.8,0,0,1-.44-.13L91.63,356.84a.88.88,0,0,1-.42-.75v-23.2a.86.86,0,0,1,.44-.75.85.85,0,0,1,.87,0l19.15,11.46a.87.87,0,0,1,.42.74v23.16a.86.86,0,0,1-.44.75A.82.82,0,0,1,111.22,368.38ZM92.94,355.6,110.36,366V344.84L92.94,334.41Z"/><path d="M111.22,368.38a.88.88,0,0,1-.44-.12.85.85,0,0,1-.42-.74V344.36a.86.86,0,0,1,.43-.75.88.88,0,0,1,.86,0l15.22,8.6a.85.85,0,0,1,.43.76l-.08,6.22a.86.86,0,0,1-.45.74l-15.13,8.35A.87.87,0,0,1,111.22,368.38Zm.87-22.54v20.22l13.41-7.4.07-5.2Z"/><path d="M249.78,235a50.42,50.42,0,0,1-25.42-6.85L91.63,150.91a.89.89,0,0,1-.43-.75.87.87,0,0,1,.44-.75l119.49-69a.86.86,0,0,1,1.09.19.87.87,0,0,1,0,1.11,130.69,130.69,0,0,0-11.84,17.09c-16.18,27.72-18.29,54.13-18.52,57.82a.88.88,0,0,1,.17.53c-.21,9.92,7.27,20,20.51,27.75l8.36,4.85c25.29,14.7,63.69,16.35,85.62,3.68l7.1-4.1c9.24-5.32,14.38-12.65,14.49-20.62v-.25a18.22,18.22,0,0,0-.19-2.76c-1.1-13.2-7.13-42.54-22.74-69.11a138.87,138.87,0,0,0-11.57-16.88.86.86,0,0,1,1.11-1.28l123.62,71.34a.84.84,0,0,1,.43.74.85.85,0,0,1-.43.75L275.07,228.22A50.52,50.52,0,0,1,249.78,235Zm-156-84.82,131.43,76.48a49,49,0,0,0,49,.09l132-76.21L287.67,82.13a139.86,139.86,0,0,1,9,13.6c19.41,33,22.66,66.12,23,69.78a20.55,20.55,0,0,1,.19,3,.76.76,0,0,1,0,.3c-.12,8.6-5.57,16.43-15.35,22.07l-7.1,4.1C275,207.88,235.8,206.23,210,191.26l-8.36-4.86c-13.61-7.92-21.37-18.41-21.37-28.83a.87.87,0,0,1-.18-.56c0-.29,1.17-28.93,18.77-59.07a134.57,134.57,0,0,1,9.19-13.77Z"/><path d="M249.81,225.6a44.92,44.92,0,0,1-22.62-6.09L109.39,151a.87.87,0,0,1,0-1.5l89.82-51.85a.86.86,0,0,1,1.18,1.18c-16.19,27.74-18.3,54.13-18.52,57.82a.88.88,0,0,1,.17.53c-.21,9.92,7.27,20,20.51,27.75l8.36,4.85c25.29,14.7,63.69,16.35,85.62,3.68l7.1-4.1c9.24-5.32,14.38-12.65,14.49-20.62v-.25a18.22,18.22,0,0,0-.19-2.76c-1.1-13.2-7.13-42.54-22.74-69.11a.86.86,0,0,1,.14-1,.85.85,0,0,1,1-.14l94.22,54.37a.86.86,0,0,1,0,1.5L272.29,219.6A45,45,0,0,1,249.81,225.6ZM111.55,150.23,228.06,218a43.33,43.33,0,0,0,43.37.08l117-67.56-90.15-52c18,32.08,21.07,63.43,21.37,67a20.55,20.55,0,0,1,.19,3,.76.76,0,0,1,0,.3c-.12,8.6-5.57,16.43-15.35,22.07l-7.1,4.1C275,207.88,235.8,206.23,210,191.26l-8.36-4.86c-13.61-7.92-21.37-18.41-21.37-28.83a.87.87,0,0,1-.18-.56c0-.28,1.1-27.2,17.19-56.3Z"/><path d="M259.48,203.66c-17.2,0-35.33-4.2-49.44-12.4l-8.36-4.86c-13.61-7.92-21.37-18.41-21.37-28.83a.87.87,0,0,1-.18-.56c0-.29,1.17-28.93,18.77-59.07a132.69,132.69,0,0,1,39.76-42.82l2.54-1.56c3.89-2.34,10.67-2.54,15.46-.47l1.47.64a9.34,9.34,0,0,1,3.19,2.15A124,124,0,0,1,285,78.65a139.49,139.49,0,0,1,11.71,17.08c19.41,33,22.66,66.12,23,69.78a20.55,20.55,0,0,1,.19,3,.76.76,0,0,1,0,.3c-.12,8.6-5.57,16.43-15.35,22.07l-7.1,4.1C287.26,200.79,273.69,203.66,259.48,203.66Zm-77.61-47a.88.88,0,0,1,.17.53c-.21,9.92,7.27,20,20.51,27.75l8.36,4.85c25.28,14.7,63.69,16.35,85.62,3.68l7.1-4.1c9.24-5.32,14.38-12.65,14.49-20.62v-.25a18.22,18.22,0,0,0-.19-2.76c-1.1-13.2-7.13-42.54-22.74-69.11a138.87,138.87,0,0,0-11.57-16.88,122,122,0,0,0-23.39-22.5.86.86,0,0,1-.14-.13,7.76,7.76,0,0,0-2.65-1.78l-1.39-.6c-4.33-1.88-10.56-1.71-14,.33l-2.5,1.53a131,131,0,0,0-39.21,42.24C184.2,126.55,182.09,152.94,181.87,156.63Z"/><path d="M190,167.81a1,1,0,0,1-.33-.06l-.21-.09a.85.85,0,0,1-.53-.78c0-.4-.73-41.14,26.47-78.51a.86.86,0,0,1,1.39,1c-25.29,34.76-26.13,72.44-26.14,77a.86.86,0,0,1-.65,1.43Z"/><path d="M214.38,179.94a.87.87,0,0,1-.86-.75c-.06-.48-6.15-48.53,19-99.9a.88.88,0,0,1,1.16-.4.86.86,0,0,1,.39,1.16c-24.92,50.88-18.91,98.44-18.85,98.91a.86.86,0,0,1-.74,1Z"/><path d="M306.37,167.81a.87.87,0,0,1-.79-.51.89.89,0,0,1,.12-.9c0-4.6-.85-44.45-28.44-80.09a.86.86,0,1,1,1.36-1c29.58,38.19,28.82,81.19,28.81,81.62a.87.87,0,0,1-.51.77l-.19.09A.92.92,0,0,1,306.37,167.81Zm.19-.95h0Z"/><path d="M282,179.94h-.12a.87.87,0,0,1-.74-1c.06-.48,6.15-48.76-19.42-100.08a.87.87,0,0,1,1.55-.77c25.81,51.82,19.65,100.59,19.58,101.08A.87.87,0,0,1,282,179.94Z"/><path d="M166.58,374.1a.85.85,0,0,1-.31-.06c-9.18-3.63-7.69-15.18-7.68-15.29a.89.89,0,0,1,.42-.63l19.12-11.26a.87.87,0,0,1,.87,0l17.25,9.81a.87.87,0,0,1,.44.76.85.85,0,0,1-.45.75L167,374A.87.87,0,0,1,166.58,374.1Zm-6.32-14.71c-.17,1.93-.45,9.95,6.27,12.89l27.52-14.88-15.47-8.8Z"/><path d="M145.33,395.21a14.48,14.48,0,0,1-7.08-1.75L132,390c-4.29-2.35-6.74-7.57-6.74-14.33l1.15-80.14a.71.71,0,0,1,0-.14c0-1.49,0-14.65-.06-25.68,0-8,0-14.81,0-15.36a19.18,19.18,0,0,1,.13-2c0-.1,0-.19,0-.29s0-.18,0-.19c.07-.48.16-1,.27-1.46l.15-.64c.06-.26.14-.51.21-.76l.09-.28c.06-.19.1-.33.15-.48s.08-.31.13-.46h0v0a6.67,6.67,0,0,1,.41-1.08,6.09,6.09,0,0,1,.31-.75l.9.12-.8-.33a1.3,1.3,0,0,0,.08-.17,18.22,18.22,0,0,1,4.38-5.4,23,23,0,0,1,5.17-3.32l22-14.11,19.17-11.28a.85.85,0,0,1,.86,0l16.56,9.43a.92.92,0,0,1,.76.06.87.87,0,0,1,.43.75v11a.85.85,0,0,1-.42.74l-17.12,10.31-8.84,5.11c-5.53,3.2-10,11-10,17.4l0,29.49v.17l-1.11,63c-.06.52-1.29,10.23,6.35,13.46a10.42,10.42,0,0,0,2.79-1.13l8.83-5.09,17.13-9.46a.86.86,0,0,1,1.28.76v11a.87.87,0,0,1-.43.75L157.6,391.48A25,25,0,0,1,145.33,395.21Zm-17.21-99.92a.76.76,0,0,1,0,.15L127,375.7c0,6.1,2.12,10.77,5.84,12.81l6.27,3.44c3.28,1.81,7.35,2,11.8.64a.85.85,0,0,1-.15-.64.86.86,0,0,1,1-.72,5.12,5.12,0,0,0,1.19,0,.85.85,0,0,1,.72.31,33.61,33.61,0,0,0,3.11-1.57L195,367.9v-9l-15.84,8.74-8.81,5.09a12,12,0,0,1-3.56,1.37.79.79,0,0,1-.48,0c-9.18-3.63-7.69-15.18-7.68-15.29l1.1-62.88-.05-29.64c0-6.94,4.89-15.42,10.9-18.9h0l8.82-5.09,16.69-10.06v-9.61l-16.44-9.37-18.7,11-22.12,14.15a21.82,21.82,0,0,0-4.88,3.12,16.57,16.57,0,0,0-4,4.88l-.1.21a5.84,5.84,0,0,0-.32.74,5.61,5.61,0,0,0-.35.94l0,.07v0c0,.13-.08.26-.11.39s-.11.37-.17.55l-.07.24c-.07.23-.14.46-.2.69l-.14.61c-.09.42-.17.87-.24,1.31l-.06.42a15.63,15.63,0,0,0-.12,1.77c0,.59,0,7.44,0,15.4C128.09,280.51,128.11,293.32,128.12,295.29Z"/><path d="M146.64,347.79h0a.88.88,0,0,1-.86-.88l.89-66.62a.86.86,0,0,1,.86-.85h0a.87.87,0,0,1,.86.87l-.89,66.62A.87.87,0,0,1,146.64,347.79Z"/><path d="M168.17,239.15a.86.86,0,0,1-.43-1.61l28.41-16.41a.86.86,0,1,1,.87,1.49L168.6,239A.82.82,0,0,1,168.17,239.15Z"/><path d="M239.79,187.8a.87.87,0,0,1-.84-.64c-8.08-30.43-.92-82.11,4.06-110.22a.86.86,0,1,1,1.7.31c-5,28-12.08,79.36-4.09,109.46a.87.87,0,0,1-.61,1.06Z"/><path d="M257.25,187.8a.78.78,0,0,1-.22,0,.87.87,0,0,1-.62-1.06c8-30.21.86-81.7-4.12-109.7a.87.87,0,0,1,.69-1,.88.88,0,0,1,1,.7c5,28.15,12.19,79.93,4.09,110.46A.86.86,0,0,1,257.25,187.8Z"/><path d="M317,365.83a.87.87,0,0,1-.86-.87V224.09a.87.87,0,0,1,.43-.75l52.87-30.52a.83.83,0,0,1,.86,0,.85.85,0,0,1,.43.75V334.44a.85.85,0,0,1-.43.75l-52.86,30.52A.88.88,0,0,1,317,365.83Zm.87-141.24V363.47L369,333.94V195.06Z"/><path d="M336,339.72a.86.86,0,0,1-.75-.43.87.87,0,0,1,.32-1.18l14.71-8.49a.86.86,0,1,1,.87,1.49l-14.72,8.5A.81.81,0,0,1,336,339.72Z"/><path d="M336,320.9a.86.86,0,0,1-.75-.43.87.87,0,0,1,.32-1.18l14.71-8.49a.86.86,0,1,1,.87,1.49l-14.72,8.49A.82.82,0,0,1,336,320.9Z"/><path d="M336,302.08a.88.88,0,0,1-.75-.43.87.87,0,0,1,.32-1.18l14.71-8.5a.87.87,0,0,1,.87,1.5L336.46,302A.82.82,0,0,1,336,302.08Z"/><path d="M336,283.26a.88.88,0,0,1-.75-.43.86.86,0,0,1,.32-1.18l14.71-8.5a.87.87,0,0,1,.87,1.5l-14.72,8.49A.82.82,0,0,1,336,283.26Z"/><path d="M336,264.43a.86.86,0,0,1-.75-.43.87.87,0,0,1,.32-1.18l14.71-8.49a.86.86,0,0,1,.87,1.49l-14.72,8.5A.81.81,0,0,1,336,264.43Z"/><path d="M336,245.61a.86.86,0,0,1-.75-.43.87.87,0,0,1,.32-1.18l14.71-8.49a.86.86,0,0,1,1.18.31.86.86,0,0,1-.31,1.18l-14.72,8.49A.82.82,0,0,1,336,245.61Z"/><path d="M336,226.79a.88.88,0,0,1-.75-.43.87.87,0,0,1,.32-1.18l14.71-8.5a.87.87,0,0,1,.87,1.5l-14.72,8.49A.82.82,0,0,1,336,226.79Z"/><path d="M317,283.79a.86.86,0,0,1-.43-1.61l52.87-30.52a.86.86,0,1,1,.86,1.49l-52.86,30.52A.88.88,0,0,1,317,283.79Z"/><path d="M360,270.23a2.33,2.33,0,0,1-1.14-.29,2.76,2.76,0,0,1-1.22-2.51,6.86,6.86,0,0,1,3.14-5.45h0a2.5,2.5,0,0,1,4,2.32,6.86,6.86,0,0,1-3.15,5.45A3.31,3.31,0,0,1,360,270.23Zm2.42-7a1.66,1.66,0,0,0-.78.26h0a5.13,5.13,0,0,0-2.28,3.95.83.83,0,0,0,1.42.82,5.1,5.1,0,0,0,2.28-3.95c0-.5-.13-.88-.36-1A.51.51,0,0,0,362.43,263.22Z"/><path d="M361,281.53a2.19,2.19,0,0,1-1.13-.29,2.76,2.76,0,0,1-1.23-2.51,6.83,6.83,0,0,1,3.15-5.44,2.5,2.5,0,0,1,4,2.31,6.85,6.85,0,0,1-3.15,5.45A3.31,3.31,0,0,1,361,281.53Zm2.43-7a1.63,1.63,0,0,0-.78.25,5.16,5.16,0,0,0-2.28,4c0,.51.13.88.36,1s.62.06,1.06-.19a5.13,5.13,0,0,0,2.28-3.95c0-.5-.13-.88-.36-1A.61.61,0,0,0,363.46,274.53Z"/><path d="M351.36,288.19a2.82,2.82,0,0,1-1.4-.37,3.44,3.44,0,0,1-1.53-3.17,9.1,9.1,0,0,1,4.17-7.23h0a3.13,3.13,0,0,1,5,2.91,9.11,9.11,0,0,1-4.18,7.23A4.22,4.22,0,0,1,351.36,288.19Zm2.1-9.27a7.43,7.43,0,0,0-3.3,5.73,1.45,1.45,0,0,0,2.44,1.41,7.44,7.44,0,0,0,3.31-5.73,1.45,1.45,0,0,0-2.45-1.41Z"/><path d="M337.26,333.6a2.19,2.19,0,0,1-1.12-.3c-1.5-.86-1.64-3.33-.32-5.61a6.32,6.32,0,0,1,2.24-2.34,2.76,2.76,0,0,1,2.78-.19h0a2.75,2.75,0,0,1,1.23,2.5,6.47,6.47,0,0,1-.91,3.11C340.14,332.53,338.6,333.6,337.26,333.6Zm2.44-7a1.63,1.63,0,0,0-.78.26,4.63,4.63,0,0,0-1.6,1.7c-.91,1.58-.8,3-.32,3.26s1.75-.33,2.66-1.9a4.76,4.76,0,0,0,.68-2.25,1.16,1.16,0,0,0-.36-1h0A.51.51,0,0,0,339.7,326.59Z"/><path d="M330.7,346.63a2.18,2.18,0,0,1-1.12-.29c-1.5-.86-1.63-3.33-.32-5.61s3.53-3.4,5-2.53h0c1.5.86,1.63,3.33.32,5.61A5,5,0,0,1,330.7,346.63Zm2.44-7a3.49,3.49,0,0,0-2.38,2c-.91,1.58-.8,3-.32,3.26s1.75-.34,2.66-1.91.8-3,.32-3.25A.61.61,0,0,0,333.14,339.63Z"/><path d="M323.74,344.2a2.72,2.72,0,0,1-1.4-.37c-1.91-1.09-2-4.3-.32-7.28a8.39,8.39,0,0,1,3-3.11,3.44,3.44,0,0,1,3.51-.26c1.9,1.09,2,4.3.31,7.28a8.39,8.39,0,0,1-3,3.11A4.22,4.22,0,0,1,323.74,344.2Zm3.34-9.66a2.6,2.6,0,0,0-1.24.39,7,7,0,0,0-2.33,2.48c-1.3,2.26-1.21,4.41-.31,4.93a1.87,1.87,0,0,0,1.78-.26,6.83,6.83,0,0,0,2.33-2.48c1.3-2.26,1.21-4.41.32-4.93A1.09,1.09,0,0,0,327.08,334.54Z"/><path d="M331.5,327.44a1.68,1.68,0,0,1-.85-.22,1.81,1.81,0,0,1-.82-1.12,3.69,3.69,0,0,1,.51-2.7,4.19,4.19,0,0,1,1.46-1.52,1.94,1.94,0,0,1,2-.11c1.08.62,1.22,2.26.32,3.82a4.27,4.27,0,0,1-1.46,1.52A2.36,2.36,0,0,1,331.5,327.44Zm1.44-4.17a1.86,1.86,0,0,0-1.1,1,1.72,1.72,0,0,0-.3,1.47h0a2,2,0,0,0,1.08-1A1.87,1.87,0,0,0,332.94,323.27Z"/><path d="M249.24,52.54a18.26,18.26,0,0,1,7.08,1.35l.09,0,1.38.6a8.14,8.14,0,0,1,2.94,2,122.57,122.57,0,0,1,23.53,22.64L323,101.54l84.89,49V333.25l-1.34.78,1.35-.78v23.21l-19.79,11.05-19.78-11.42,2.64-1.52L269.46,413.19V436l-19.78,11.43L229.91,436V413.19l19.77,11.42,5.52-3.18-5.51,3.18-75.31-43.82-17.22,9.94a13.89,13.89,0,0,1-.79.39c-.35.18-.68.32-1,.46a4.35,4.35,0,0,1-.51.17l-.29.08a1.91,1.91,0,0,0,.28-.07l.52-.18a8,8,0,0,0,1-.46l.36-.18a4.09,4.09,0,0,0,.44-.2,24.27,24.27,0,0,1-11.85,3.6,13.59,13.59,0,0,1-6.65-1.63l-6.27-3.44c-4-2.21-6.29-7.1-6.29-13.58l.24-16.51-15.13,8.33L92.07,356.09v-23.2h0V150.16l72.25-41.71,47.31-27.32a131.8,131.8,0,0,1,27.52-25.29l2.5-1.54a15.24,15.24,0,0,1,7.59-1.76M126.44,353v-.08L92.19,333l19,11.39L126.44,353m21.4,36.86a8.94,8.94,0,0,1-1.45-5.32l.13-19.93h0l-.13,19.94a8.83,8.83,0,0,0,1.45,5.31m.51.67a3.47,3.47,0,0,0,.32.34l.12.1.26.21a4,4,0,0,0,.66.41,4.1,4.1,0,0,1-.66-.42l-.27-.2-.11-.1a3.4,3.4,0,0,1-.32-.34h0A3.09,3.09,0,0,1,148,390a2.67,2.67,0,0,0,.37.46h0m2.14,1.36a.29.29,0,0,0,.1,0h0l-.1,0h0m2,.28a6.4,6.4,0,0,1-.88-.06,5.53,5.53,0,0,0,.92.07,5.63,5.63,0,0,0,1.05-.1,7,7,0,0,1-1.09.09M249.24,47.36h0A20.23,20.23,0,0,0,239,49.86l-2.55,1.56-.22.15a137.39,137.39,0,0,0-28,25.54L161.73,104,89.48,145.67a5.2,5.2,0,0,0-2.59,4.49V356.09a5.17,5.17,0,0,0,2.53,4.45L108.57,372a5.21,5.21,0,0,0,5.16.09l7.31-4-.11,7.6c0,8.45,3.27,15.06,9,18.19l6.28,3.44a18.71,18.71,0,0,0,9.14,2.27,29.54,29.54,0,0,0,14.43-4.29l.27-.17,14.35-8.28,50.36,29.3V436a5.18,5.18,0,0,0,2.59,4.49l19.77,11.42a5.14,5.14,0,0,0,5.18,0l19.78-11.42a5.2,5.2,0,0,0,2.59-4.49V416.19l93.72-54.11L385.55,372a5.19,5.19,0,0,0,5.12,0l19.79-11a5.19,5.19,0,0,0,2.65-4.52V333.25a2.26,2.26,0,0,0,0-.26V150.52a5.15,5.15,0,0,0-2.59-4.48l-84.89-49L287.68,75.16a127.65,127.65,0,0,0-23.5-22.52,13.64,13.64,0,0,0-4.35-2.88l-1.35-.59-.15-.06h0a23.19,23.19,0,0,0-9.06-1.74Z"/></svg>