<svg id="Layer_1" data-name="Layer 1" xmlns="http://www.w3.org/2000/svg" viewBox="0 0 500 500"><defs><style>.cls-1{fill:none;stroke:#000;stroke-linecap:round;stroke-linejoin:round;}</style></defs><path d="M279.64,449.21a1,1,0,0,1-.43-.11l-19.78-11.42a.89.89,0,0,1-.43-.75V414.58L142,347.06V368.4a.85.85,0,0,1-.43.75.88.88,0,0,1-.86,0L121,357.73a.84.84,0,0,1-.43-.74V197.1a.85.85,0,0,1,.43-.75.83.83,0,0,1,.86,0l158.24,91.37a.87.87,0,0,1,.43.74V448.35a.89.89,0,0,1-.43.75A1,1,0,0,1,279.64,449.21Zm-18.91-12.78,18,10.42V289l-156.5-90.37v157.9l18.06,10.42V345.56a.86.86,0,0,1,.43-.75.88.88,0,0,1,.86,0l118.7,68.52a.89.89,0,0,1,.43.75Z"/><path d="M121.39,198a.85.85,0,0,1-.74-.43.86.86,0,0,1,.31-1.18l85.45-50a.87.87,0,0,1,.87,1.5l-85.45,50A.88.88,0,0,1,121.39,198Z"/><path d="M377.88,231.84a.82.82,0,0,1-.43-.12L330.79,204.8a.87.87,0,0,1,.87-1.5l46.65,26.93a.86.86,0,0,1-.43,1.61Z"/><path d="M279.64,266.49a.88.88,0,0,1-.43-.12L160.53,197.84a.86.86,0,0,1-.43-.74.87.87,0,0,1,.43-.75l19.78-11.41a.83.83,0,0,1,.86,0l118.69,68.52a.86.86,0,0,1,0,1.49l-19.78,11.42A.88.88,0,0,1,279.64,266.49ZM162.69,197.1l117,67.53L297.7,254.2l-117-67.52Z"/><path d="M284.4,211.49a1.81,1.81,0,0,1-.42,0,5.42,5.42,0,0,1-3.22-1.87l-.11-.09c-.21-.24-.42-.49-.62-.76a6.81,6.81,0,0,1-1.4-3.8,2.68,2.68,0,0,1,1.09-2.34c1.51-1,4.11,0,5.79,2.35a6.16,6.16,0,0,1,1.35,4.44,2.48,2.48,0,0,1-1,1.68A2.41,2.41,0,0,1,284.4,211.49Zm-2.54-3.24a.43.43,0,0,1,.1.09,4,4,0,0,0,2.31,1.41.81.81,0,0,0,.55-.09l0,0a.83.83,0,0,0,.31-.56,4.65,4.65,0,0,0-1.05-3.12c-1.27-1.76-2.88-2.3-3.43-1.94a1.15,1.15,0,0,0-.33.91,5.14,5.14,0,0,0,1.09,2.79A5.43,5.43,0,0,0,281.86,208.25Z"/><path d="M293.14,207.56a5.94,5.94,0,0,1-4.38-2.76,7.74,7.74,0,0,1-1.21-2.42.87.87,0,0,1,1.27-1L295,205a.87.87,0,0,1,.36,1.08,2.39,2.39,0,0,1-.85,1.07A2.49,2.49,0,0,1,293.14,207.56Zm-2.35-3a3.92,3.92,0,0,0,2.23,1.29Z"/><path d="M293.74,224.88c-1.87,0-4.13-1.43-5.76-3.65a9,9,0,0,1-1.87-5,3.42,3.42,0,0,1,1.36-3c1.81-1.21,4.79-.13,7,2.47a5,5,0,0,1,.55.69,8.21,8.21,0,0,1,1.8,5.86,3.14,3.14,0,0,1-1.3,2.12h0A3.11,3.11,0,0,1,293.74,224.88Zm1.28-1.23h0Zm-5.77-9.2a1.43,1.43,0,0,0-.81.21,1.86,1.86,0,0,0-.61,1.53,7.35,7.35,0,0,0,1.55,4c1.91,2.61,4.18,3.38,5.16,2.73a1.43,1.43,0,0,0,.55-1,6.65,6.65,0,0,0-1.5-4.56,4.24,4.24,0,0,0-.44-.55A5.94,5.94,0,0,0,289.25,214.45Z"/><path d="M302,218.06a4,4,0,0,1-2.89-1.78,4.45,4.45,0,0,1-.9-2.49,2,2,0,0,1,.79-1.66c1.11-.74,2.84,0,3.94,1.46a4.08,4.08,0,0,1,.87,2.9,1.85,1.85,0,0,1-.77,1.26h0A1.94,1.94,0,0,1,302,218.06Zm-1.95-4.51c-.07,0-.11.09-.11.24a2.71,2.71,0,0,0,.57,1.47,2.41,2.41,0,0,0,1.49,1.07l.55.71-.49-.71c.09-.08.15-.81-.52-1.72A2.33,2.33,0,0,0,300.05,213.55Z"/><path d="M319.2,243.65a.86.86,0,0,1-.43-.11L200.09,175a.85.85,0,0,1-.43-.75.86.86,0,0,1,.43-.75l4.8-2.76a.86.86,0,0,1,.89,0,.83.83,0,0,1,.4.79l-.27,4.33,106,61.22,7.74,5a.88.88,0,0,1,.27,1.18A.85.85,0,0,1,319.2,243.65Zm-116.95-69.4,2,1.13.15-2.34Z"/><path d="M329.41,237.75a.81.81,0,0,1-.45-.13.86.86,0,0,1-.41-.78l.59-10.71a.83.83,0,0,1,.45-.71.87.87,0,0,1,.84,0l9,5.18a.85.85,0,0,1,.43.75.84.84,0,0,1-.43.74l-9.57,5.53A.82.82,0,0,1,329.41,237.75Zm1.37-10.12-.42,7.71,6.89-4Z"/><path d="M141.18,369.27a.82.82,0,0,1-.43-.12.85.85,0,0,1-.43-.75V345.56a.86.86,0,0,1,.43-.75.88.88,0,0,1,.86,0l19.79,11.42a.86.86,0,0,1,0,1.5l-19.78,11.42A.82.82,0,0,1,141.18,369.27Zm.86-22.21v19.85L159.23,357Z"/><path d="M358.76,403.53a.82.82,0,0,1-.43-.12L338.55,392a.86.86,0,0,1-.43-.74.87.87,0,0,1,.43-.75l19.78-11.42a.83.83,0,0,1,.86,0,.86.86,0,0,1,.44.74v22.85a.86.86,0,0,1-.44.74A.82.82,0,0,1,358.76,403.53Zm-18.05-12.28,17.19,9.92V381.32Z"/><path d="M234.65,110.19a2.72,2.72,0,0,1-1.27-.37,4.3,4.3,0,0,1-2.1-3.38c0-1.51,1.5-2.31,3-1.45a4.24,4.24,0,0,1,2.1,3.37A1.68,1.68,0,0,1,234.65,110.19ZM233,106.34a2.77,2.77,0,0,0,1.26,2,1,1,0,0,0,.41.14l0-.1a2.62,2.62,0,0,0-1.25-1.88A.94.94,0,0,0,233,106.34Z"/><path d="M234.34,123.25a4.68,4.68,0,0,1-2.35-.73,8.92,8.92,0,0,1-3-3,7.41,7.41,0,0,1-1.27-3.85c0-2.65,2.35-4,5.16-2.38a8.82,8.82,0,0,1,4.29,6.83A2.81,2.81,0,0,1,234.34,123.25Zm-3.85-8.92c-.89,0-1.07.75-1.07,1.37a5.64,5.64,0,0,0,1,2.92,7.34,7.34,0,0,0,2.43,2.41,3.05,3.05,0,0,0,1.49.49c.89,0,1.07-.74,1.07-1.37a7.17,7.17,0,0,0-3.42-5.33A3.23,3.23,0,0,0,230.49,114.33Z"/><path d="M284.4,211.49a1.81,1.81,0,0,1-.42,0,1,1,0,0,1-.21-.09l-2.88-1.69a1.5,1.5,0,0,1-.24-.18c-.21-.24-.42-.49-.62-.76a6.81,6.81,0,0,1-1.4-3.8,2.68,2.68,0,0,1,1.09-2.34c1.51-1,4.11,0,5.79,2.35a6.16,6.16,0,0,1,1.35,4.44,2.48,2.48,0,0,1-1,1.68A2.41,2.41,0,0,1,284.4,211.49Zm-2.55-3.26,2.63,1.54a.72.72,0,0,0,.34-.11l0,0a.83.83,0,0,0,.31-.56,4.65,4.65,0,0,0-1.05-3.12c-1.27-1.76-2.88-2.3-3.43-1.94a1.15,1.15,0,0,0-.33.91,5.14,5.14,0,0,0,1.09,2.79A5.37,5.37,0,0,0,281.85,208.23Z"/><path d="M293.79,217.12a.74.74,0,0,1-.43-.12l-4.55-2.67a.87.87,0,0,1,.44-1.61c1.68,0,3.62,1.12,5.2,3a.88.88,0,0,1,0,1.12A.85.85,0,0,1,293.79,217.12Z"/><path d="M293.14,207.56a5.94,5.94,0,0,1-4.38-2.76,7.59,7.59,0,0,1-1.16-2.26.49.49,0,0,1-.06-.17,5.06,5.06,0,0,1-.19-1.36,2.72,2.72,0,0,1,1.09-2.34,2.41,2.41,0,0,1,1.41-.43,6.07,6.07,0,0,1,4.38,2.76c1.27,1.75,1.73,3.74,1.17,5.07a2.39,2.39,0,0,1-.85,1.07A2.49,2.49,0,0,1,293.14,207.56Zm-4-5.77a.5.5,0,0,1,.05.13,5.83,5.83,0,0,0,.94,1.86c1.26,1.75,2.83,2.32,3.41,1.93a.76.76,0,0,0,.24-.29v0a4.05,4.05,0,0,0-1-3.38c-1.29-1.75-2.9-2.3-3.41-1.94a1.14,1.14,0,0,0-.35.93A3.66,3.66,0,0,0,289.17,201.79Z"/><path d="M302,218.06a4,4,0,0,1-2.89-1.78,4.45,4.45,0,0,1-.9-2.49,2,2,0,0,1,.79-1.66c1.11-.74,2.84,0,3.94,1.46a4.08,4.08,0,0,1,.87,2.9,1.85,1.85,0,0,1-.77,1.26h0A1.94,1.94,0,0,1,302,218.06Zm-1.95-4.51c-.07,0-.11.09-.11.24a2.71,2.71,0,0,0,.57,1.47,2.41,2.41,0,0,0,1.49,1.07l.55.71-.49-.71c.09-.08.15-.81-.52-1.72A2.33,2.33,0,0,0,300.05,213.55Z"/><path d="M319.2,243.65a.84.84,0,0,1-.46-.13L311,238.58a.87.87,0,0,1-.39-.78l5.85-99.52a.87.87,0,0,1,.45-.71.84.84,0,0,1,.84,0l.54.31c1.83,1.06,3.53,1.26,4.8.57s1.9-2,2-3.93l0-.69c.26-4.36-2.75-9.77-6.7-12.06L211.26,59.89a5.57,5.57,0,0,0-4-.85.87.87,0,0,1-1-.6.85.85,0,0,1,.54-1.06l18.55-6.53a.78.78,0,0,1,.21,0A7.66,7.66,0,0,1,230,52l107.2,61.91c4.45,2.55,7.85,8.68,7.58,13.65h0l-.05.7c-.14,2.49-1.18,4.39-2.91,5.33a6.27,6.27,0,0,1-5.8-.23l-5.7,103.59a.83.83,0,0,1-.43.7l-10.21,5.91A.81.81,0,0,1,319.2,243.65Zm-6.81-6.25,6.84,4.38,9.34-5.41,5.75-104.5a.83.83,0,0,1,.45-.71.87.87,0,0,1,.84,0l.54.31c1.82,1.05,3.52,1.25,4.79.57a4.48,4.48,0,0,0,2-3.93l.06-.7c.23-4.38-2.78-9.78-6.72-12L229.09,53.47a6.16,6.16,0,0,0-3.35-.95l-14.9,5.25a9.57,9.57,0,0,1,1.29.63l107.19,61.89c4.47,2.58,7.86,8.7,7.57,13.65l0,.68c-.14,2.52-1.17,4.42-2.9,5.36a6.26,6.26,0,0,1-5.82-.24Zm31.48-109.92h0Z"/><path d="M319.2,243.65a.86.86,0,0,1-.75-.43.88.88,0,0,1,.32-1.18l10.21-5.9a.85.85,0,0,1,.86,0,.86.86,0,0,1,.43.75V237a.85.85,0,0,1-.43.75l-10.21,5.82A.81.81,0,0,1,319.2,243.65Z"/><path d="M311.5,238.72a.82.82,0,0,1-.43-.12L204.58,177.11a.87.87,0,0,1-.43-.81L206,147.05l4.35-69.51-.07-.05c-4.53-2.61-7.86-8.61-7.58-13.64l0-.71c.13-2.62,1.3-4.61,3.2-5.47l.18-.09.64-.2a7.18,7.18,0,0,1,5.38,1l107.19,61.89h0c4.47,2.58,7.86,8.7,7.57,13.65l0,.68c-.14,2.52-1.17,4.42-2.9,5.36a6.26,6.26,0,0,1-5.82-.24l-5.77,98.16a.88.88,0,0,1-.86.82ZM205.91,175.88,310.72,236.4l5.77-98.12a.87.87,0,0,1,.45-.71.84.84,0,0,1,.84,0l.54.31c1.83,1.06,3.53,1.26,4.8.57s1.9-2,2-3.93l0-.69c.26-4.36-2.75-9.77-6.7-12.06L211.26,59.89a5.57,5.57,0,0,0-4-.85l-.46.15-.06,0c-1.33.56-2.14,2-2.24,4l-.05.71c-.25,4.35,2.77,9.76,6.72,12l.53.31a.86.86,0,0,1,.43.8Zm87.83,49c-1.87,0-4.13-1.43-5.76-3.65a9,9,0,0,1-1.87-5,3.42,3.42,0,0,1,1.36-3c1.81-1.21,4.79-.13,7,2.47a5,5,0,0,1,.55.69,8.21,8.21,0,0,1,1.8,5.86,3.14,3.14,0,0,1-1.3,2.12h0A3.11,3.11,0,0,1,293.74,224.88Zm1.28-1.23h0Zm-5.77-9.2a1.43,1.43,0,0,0-.81.21,1.86,1.86,0,0,0-.61,1.53,7.35,7.35,0,0,0,1.55,4c1.91,2.61,4.17,3.38,5.16,2.73a1.43,1.43,0,0,0,.55-1,6.65,6.65,0,0,0-1.5-4.56,4.24,4.24,0,0,0-.44-.55A5.94,5.94,0,0,0,289.25,214.45ZM302,218.06a4,4,0,0,1-2.89-1.78,4.45,4.45,0,0,1-.9-2.49,2,2,0,0,1,.79-1.66c1.11-.74,2.84,0,3.94,1.46a4.08,4.08,0,0,1,.87,2.9,1.85,1.85,0,0,1-.77,1.26h0A1.94,1.94,0,0,1,302,218.06Zm-1.95-4.51c-.07,0-.11.09-.11.24a2.71,2.71,0,0,0,.57,1.47,2.41,2.41,0,0,0,1.49,1.07l.55.71-.49-.71c.09-.08.15-.81-.52-1.72A2.33,2.33,0,0,0,300.05,213.55Zm-15.65-2.06a1.81,1.81,0,0,1-.42,0,5.42,5.42,0,0,1-3.22-1.87l-.11-.09c-.21-.24-.42-.49-.62-.76a6.81,6.81,0,0,1-1.4-3.8,2.68,2.68,0,0,1,1.09-2.34c1.51-1,4.11,0,5.79,2.35a6.16,6.16,0,0,1,1.35,4.44,2.48,2.48,0,0,1-1,1.68A2.34,2.34,0,0,1,284.4,211.49Zm-2.54-3.24a.43.43,0,0,1,.1.09,4,4,0,0,0,2.31,1.41.81.81,0,0,0,.55-.09l0,0a.83.83,0,0,0,.31-.56,4.65,4.65,0,0,0-1.05-3.12c-1.27-1.76-2.88-2.3-3.43-1.94a1.15,1.15,0,0,0-.33.91,5.14,5.14,0,0,0,1.09,2.79A5.43,5.43,0,0,0,281.86,208.25Zm11.28-.69a5.94,5.94,0,0,1-4.38-2.76,7.59,7.59,0,0,1-1.16-2.26.49.49,0,0,1-.06-.17,5.06,5.06,0,0,1-.19-1.36,2.71,2.71,0,0,1,1.07-2.33c1.45-1,4.12,0,5.81,2.32,1.28,1.75,1.73,3.75,1.17,5.08a2.42,2.42,0,0,1-.85,1.06A2.49,2.49,0,0,1,293.14,207.56Zm-4-5.77a.5.5,0,0,1,.05.13,5.83,5.83,0,0,0,.94,1.86c1.26,1.75,2.83,2.32,3.41,1.93a.76.76,0,0,0,.24-.29,4.08,4.08,0,0,0-1-3.4c-1.29-1.75-2.9-2.3-3.41-1.94l0,0a1.12,1.12,0,0,0-.33.91A3.66,3.66,0,0,0,289.17,201.79Zm-.25-2.41h0Zm-54.58-76.13a4.68,4.68,0,0,1-2.35-.73,8.92,8.92,0,0,1-3-3,7.41,7.41,0,0,1-1.27-3.85c0-2.65,2.35-4,5.16-2.38a8.82,8.82,0,0,1,4.29,6.83A2.81,2.81,0,0,1,234.34,123.25Zm-3.85-8.92c-.89,0-1.07.75-1.07,1.37a5.64,5.64,0,0,0,1,2.92,7.34,7.34,0,0,0,2.43,2.41,3.05,3.05,0,0,0,1.49.49c.89,0,1.07-.74,1.07-1.37a7.17,7.17,0,0,0-3.42-5.33A3.23,3.23,0,0,0,230.49,114.33Zm-6.19,2.2a3.76,3.76,0,0,1-1.82-.55,6.62,6.62,0,0,1-3.24-5.15,2.26,2.26,0,0,1,2.27-2.49,3.67,3.67,0,0,1,1.83.55,6.67,6.67,0,0,1,3.23,5.17A2.25,2.25,0,0,1,224.3,116.53Zm-2.79-6.46c-.15,0-.54,0-.54.76a5,5,0,0,0,2.37,3.65,2,2,0,0,0,1,.32c.19,0,.54,0,.54-.74a4.94,4.94,0,0,0-2.37-3.68A2,2,0,0,0,221.51,110.07Zm13.14.12a2.72,2.72,0,0,1-1.27-.37,4.3,4.3,0,0,1-2.1-3.38c0-1.51,1.5-2.31,3-1.45a4.24,4.24,0,0,1,2.1,3.37A1.68,1.68,0,0,1,234.65,110.19ZM233,106.34h0a2.86,2.86,0,0,0,1.28,2,1.06,1.06,0,0,0,.41.14,2.74,2.74,0,0,0-1.28-2A.94.94,0,0,0,233,106.34Zm-7.6.19a3.68,3.68,0,0,1-1.84-.55,6.67,6.67,0,0,1-3.22-5.17c0-2.11,2-3.14,4.08-1.93a6.72,6.72,0,0,1,3.24,5.16A2.26,2.26,0,0,1,225.38,106.53Zm-2.8-6.46c-.19,0-.54,0-.54.74a5,5,0,0,0,2.37,3.67,2,2,0,0,0,1,.32c.14,0,.53,0,.53-.76a5,5,0,0,0-2.37-3.66A2.09,2.09,0,0,0,222.58,100.07Z"/><path d="M224.3,116.53a3.76,3.76,0,0,1-1.82-.55,6.62,6.62,0,0,1-3.24-5.15,2.26,2.26,0,0,1,2.27-2.49,3.67,3.67,0,0,1,1.83.55,6.67,6.67,0,0,1,3.23,5.17A2.25,2.25,0,0,1,224.3,116.53Zm-2.79-6.46c-.15,0-.54,0-.54.76a5,5,0,0,0,2.37,3.65,2,2,0,0,0,1,.32c.19,0,.54,0,.54-.74a4.94,4.94,0,0,0-2.37-3.68A2,2,0,0,0,221.51,110.07Z"/><path d="M225.38,106.53a3.68,3.68,0,0,1-1.84-.55,6.67,6.67,0,0,1-3.22-5.17c0-2.11,2-3.14,4.08-1.93a6.72,6.72,0,0,1,3.24,5.16A2.26,2.26,0,0,1,225.38,106.53Zm-2.8-6.46c-.19,0-.54,0-.54.74a5,5,0,0,0,2.37,3.67,2,2,0,0,0,1,.32c.14,0,.53,0,.53-.76a5,5,0,0,0-2.37-3.66A2.09,2.09,0,0,0,222.58,100.07Z"/><path d="M234.65,110.19a2.72,2.72,0,0,1-1.27-.37,4.3,4.3,0,0,1-2.1-3.38c0-1.51,1.5-2.31,3-1.45a4.24,4.24,0,0,1,2.1,3.37A1.68,1.68,0,0,1,234.65,110.19ZM233,106.34a2.77,2.77,0,0,0,1.26,2,1,1,0,0,0,.41.14l0-.1a2.62,2.62,0,0,0-1.25-1.88A.94.94,0,0,0,233,106.34Z"/><path d="M234.34,123.25a4.68,4.68,0,0,1-2.35-.73,8.92,8.92,0,0,1-3-3,7.41,7.41,0,0,1-1.27-3.85c0-2.65,2.35-4,5.16-2.38a8.82,8.82,0,0,1,4.29,6.83A2.81,2.81,0,0,1,234.34,123.25Zm-3.85-8.92c-.89,0-1.07.75-1.07,1.37a5.64,5.64,0,0,0,1,2.92,7.34,7.34,0,0,0,2.43,2.41,3.05,3.05,0,0,0,1.49.49c.89,0,1.07-.74,1.07-1.37a7.17,7.17,0,0,0-3.42-5.33A3.23,3.23,0,0,0,230.49,114.33Z"/><path d="M284.4,211.49a1.81,1.81,0,0,1-.42,0,5.42,5.42,0,0,1-3.22-1.87l-.11-.09c-.21-.24-.42-.49-.62-.76a6.81,6.81,0,0,1-1.4-3.8,2.68,2.68,0,0,1,1.09-2.34c1.51-1,4.11,0,5.79,2.35a6.16,6.16,0,0,1,1.35,4.44,2.48,2.48,0,0,1-1,1.68A2.41,2.41,0,0,1,284.4,211.49Zm-2.54-3.24a.43.43,0,0,1,.1.09,4,4,0,0,0,2.31,1.41.81.81,0,0,0,.55-.09l0,0a.83.83,0,0,0,.31-.56,4.65,4.65,0,0,0-1.05-3.12c-1.27-1.76-2.88-2.3-3.43-1.94a1.15,1.15,0,0,0-.33.91,5.14,5.14,0,0,0,1.09,2.79A5.43,5.43,0,0,0,281.86,208.25Z"/><path d="M293.14,207.56a5.94,5.94,0,0,1-4.38-2.76,7.59,7.59,0,0,1-1.16-2.26.49.49,0,0,1-.06-.17,5.06,5.06,0,0,1-.19-1.36,2.72,2.72,0,0,1,1.09-2.34,2.41,2.41,0,0,1,1.41-.43,6.07,6.07,0,0,1,4.38,2.76c1.27,1.75,1.73,3.74,1.17,5.07a2.39,2.39,0,0,1-.85,1.07A2.49,2.49,0,0,1,293.14,207.56Zm-4-5.77a.5.5,0,0,1,.05.13,5.83,5.83,0,0,0,.94,1.86c1.26,1.75,2.83,2.32,3.41,1.93a.76.76,0,0,0,.24-.29v0a4.05,4.05,0,0,0-1-3.38c-1.29-1.75-2.9-2.3-3.41-1.94a1.14,1.14,0,0,0-.35.93A3.66,3.66,0,0,0,289.17,201.79Z"/><path d="M293.74,224.88c-1.87,0-4.13-1.43-5.76-3.65a9,9,0,0,1-1.87-5,3.42,3.42,0,0,1,1.36-3c1.81-1.21,4.79-.13,7,2.47a5,5,0,0,1,.55.69,8.21,8.21,0,0,1,1.8,5.86,3.14,3.14,0,0,1-1.3,2.12h0A3.11,3.11,0,0,1,293.74,224.88Zm1.28-1.23h0Zm-5.77-9.2a1.43,1.43,0,0,0-.81.21,1.86,1.86,0,0,0-.61,1.53,7.35,7.35,0,0,0,1.55,4c1.91,2.61,4.18,3.38,5.16,2.73a1.43,1.43,0,0,0,.55-1,6.65,6.65,0,0,0-1.5-4.56,4.24,4.24,0,0,0-.44-.55A5.94,5.94,0,0,0,289.25,214.45Z"/><path d="M302,218.06a4,4,0,0,1-2.89-1.78,4.45,4.45,0,0,1-.9-2.49,2,2,0,0,1,.79-1.66c1.11-.74,2.84,0,3.94,1.46a4.08,4.08,0,0,1,.87,2.9,1.85,1.85,0,0,1-.77,1.26h0A1.94,1.94,0,0,1,302,218.06Zm-1.95-4.51c-.07,0-.11.09-.11.24a2.71,2.71,0,0,0,.57,1.47,2.41,2.41,0,0,0,1.49,1.07l.55.71-.49-.71c.09-.08.15-.81-.52-1.72A2.33,2.33,0,0,0,300.05,213.55Z"/><path d="M225.38,106.53a3.68,3.68,0,0,1-1.84-.55,6.67,6.67,0,0,1-3.22-5.17c0-2.11,2-3.14,4.08-1.93a6.72,6.72,0,0,1,3.24,5.16A2.26,2.26,0,0,1,225.38,106.53Zm-2.8-6.46c-.19,0-.54,0-.54.74a5,5,0,0,0,2.37,3.67,2,2,0,0,0,1,.32c.14,0,.53,0,.53-.76a5,5,0,0,0-2.37-3.66A2.09,2.09,0,0,0,222.58,100.07Z"/><path d="M224.3,116.53a3.76,3.76,0,0,1-1.82-.55,6.62,6.62,0,0,1-3.24-5.15,2.26,2.26,0,0,1,2.27-2.49,3.67,3.67,0,0,1,1.83.55,6.67,6.67,0,0,1,3.23,5.17A2.25,2.25,0,0,1,224.3,116.53Zm-2.79-6.46c-.15,0-.54,0-.54.76a5,5,0,0,0,2.37,3.65,2,2,0,0,0,1,.32c.19,0,.54,0,.54-.74a4.94,4.94,0,0,0-2.37-3.68A2,2,0,0,0,221.51,110.07Z"/><path d="M234.34,123.25a4.68,4.68,0,0,1-2.35-.73,8.92,8.92,0,0,1-3-3,7.41,7.41,0,0,1-1.27-3.85c0-2.65,2.35-4,5.16-2.38a8.82,8.82,0,0,1,4.29,6.83A2.81,2.81,0,0,1,234.34,123.25Zm-3.85-8.92c-.89,0-1.07.75-1.07,1.37a5.64,5.64,0,0,0,1,2.92,7.34,7.34,0,0,0,2.43,2.41,3.05,3.05,0,0,0,1.49.49c.89,0,1.07-.74,1.07-1.37a7.17,7.17,0,0,0-3.42-5.33A3.23,3.23,0,0,0,230.49,114.33Z"/><path d="M234.65,110.19a2.72,2.72,0,0,1-1.27-.37,4.3,4.3,0,0,1-2.1-3.38c0-1.51,1.5-2.31,3-1.45a4.24,4.24,0,0,1,2.1,3.37A1.68,1.68,0,0,1,234.65,110.19ZM233,106.34a2.77,2.77,0,0,0,1.26,2,1,1,0,0,0,.41.14l0-.1a2.62,2.62,0,0,0-1.25-1.88A.94.94,0,0,0,233,106.34Z"/><path class="cls-1" d="M279.63,288.46l0,159.9,19.77-11.44V414.09L339,391.25l19.78-11.43v22.85l19.79-11.42V231.36Zm75.07-11.28-21.32,12.3-8.56,4.94-4.15,2.4v-8.5l-8.58-.17,12.73-7.34,8.56-5,12.73-7.34,8.59.17Z"/><path d="M324.82,281.67a1,1,0,0,1-.44-.11.89.89,0,0,1-.43-.75v-5.72a.89.89,0,0,1,.43-.75L333,269.4a.88.88,0,0,1,1.3.75v5.7a.86.86,0,0,1-.44.75l-8.56,5A1,1,0,0,1,324.82,281.67Zm.86-6.08v3.72l6.84-4v-3.7Z"/><path d="M324.82,390.16a1,1,0,0,1-.44-.11.89.89,0,0,1-.43-.75V294.42a.89.89,0,0,1,.43-.75l8.57-4.94a.87.87,0,0,1,1.3.75v94.86a.86.86,0,0,1-.44.75l-8.56,5A1,1,0,0,1,324.82,390.16Zm.86-95.24V387.8l6.84-4V291Z"/><path d="M287.57,402.14a.86.86,0,0,1-.86-.87,21.29,21.29,0,0,1,.72-5.33.86.86,0,0,1,1.05-.63.87.87,0,0,1,.62,1.06,19.8,19.8,0,0,0-.67,4.9A.86.86,0,0,1,287.57,402.14Zm4.12-13a.84.84,0,0,1-.46-.13.87.87,0,0,1-.28-1.19,30.67,30.67,0,0,1,3.2-4.27.88.88,0,0,1,1.22-.06.86.86,0,0,1,.06,1.22,29,29,0,0,0-3,4A.86.86,0,0,1,291.69,389.12Zm20.6-1.26a.86.86,0,0,1-.86-.86,13.59,13.59,0,0,0-.22-2.47.86.86,0,1,1,1.7-.32,16.26,16.26,0,0,1,.25,2.79.87.87,0,0,1-.86.86Zm-10.62-8a.86.86,0,0,1-.33-1.66,9.88,9.88,0,0,1,5.54-.76.86.86,0,0,1,.7,1,.89.89,0,0,1-1,.7,8.15,8.15,0,0,0-4.57.66A1,1,0,0,1,301.67,379.86Z"/><path d="M304,406.34a4.47,4.47,0,0,1-2.26-.6c-1.84-1.06-2.9-3.44-2.9-6.52,0-5.52,3.4-12,7.57-14.38h0l2.21-1.28a5.41,5.41,0,0,1,5.53-.37c1.85,1.06,2.9,3.44,2.9,6.52,0,5.52-3.39,12-7.57,14.38l-2.2,1.28A6.61,6.61,0,0,1,304,406.34Zm3.28-20c-3.7,2.14-6.71,7.92-6.71,12.89,0,2.45.74,4.28,2,5a3.76,3.76,0,0,0,3.81-.38l2.21-1.27c3.7-2.14,6.71-7.92,6.71-12.89,0-2.45-.75-4.28-2-5-1-.59-2.34-.46-3.81.38Z"/><path d="M303.59,406h0l-8.71-.17a.93.93,0,0,1-.23,0c-2.39-.73-3.81-3.31-3.81-6.91a18.41,18.41,0,0,1,2.19-8.34,14.84,14.84,0,0,1,5.38-6.05l2.21-1.28a6.76,6.76,0,0,1,2.38-.9h7.86A.87.87,0,0,1,311,384a5.09,5.09,0,0,0-1.79.68L307,386a13.38,13.38,0,0,0-4.71,5.36,16.73,16.73,0,0,0-2,7.54,7.41,7.41,0,0,0,1,4,2.86,2.86,0,0,0,2.38,1.41.87.87,0,0,1,.85.87.85.85,0,0,1-.26.62A.87.87,0,0,1,303.59,406Zm-8.55-1.9,5,.1-.3-.42a9.1,9.1,0,0,1-1.23-4.9,18.41,18.41,0,0,1,2.19-8.34,14.91,14.91,0,0,1,5.38-6.05l.8-.46h-3.79a5.38,5.38,0,0,0-1.65.67L299.26,386a13.3,13.3,0,0,0-4.71,5.36,16.73,16.73,0,0,0-2,7.54C292.56,401.59,293.51,403.58,295,404.12Z"/><path d="M320.67,297.68a.81.81,0,0,1-.43-.11.86.86,0,0,1-.43-.75v-8.5a.84.84,0,0,1,.43-.74l34-19.64a.86.86,0,0,1,1.29.74v8.5a.85.85,0,0,1-.43.75l-34,19.64A.81.81,0,0,1,320.67,297.68Zm.86-8.86v6.5l32.3-18.64v-6.5Z"/><path d="M320.67,297.68h0l-8.58-.17a.86.86,0,0,1-.85-.86v-8.5a.87.87,0,0,1,1.73,0v7.65l7.74.16a.86.86,0,0,1,0,1.72Z"/><path d="M320.67,289.19h0l-8.58-.18a.84.84,0,0,1-.82-.65.87.87,0,0,1,.4-1l34-19.64a1.35,1.35,0,0,1,.45-.11l8.58.17a.86.86,0,0,1,.42,1.61l-34,19.64A.82.82,0,0,1,320.67,289.19Zm-5.47-1.84,5.25.1,31.13-18-5.24-.1Z"/><path d="M279.64,266.49a.88.88,0,0,1-.43-.12l-98.91-57.1a.85.85,0,0,1-.43-.75V185.68a.86.86,0,0,1,1.29-.74l118.69,68.52a.86.86,0,0,1,0,1.49l-19.78,11.42A.88.88,0,0,1,279.64,266.49ZM181.6,208l98,56.61L297.7,254.2l-116.09-67Z"/><path d="M226,51.66a7.2,7.2,0,0,1,3.54,1.07l107.2,61.9c4.21,2.42,7.41,8.19,7.15,12.85l-.05.7c-.19,3.26-2,5.13-4.54,5.13a7.18,7.18,0,0,1-3.57-1.08l-.53-.31-4,72.12,47.35,27.32v159.9l-19.8,11.4L339,391.29l-39.51,22.78v22.86l-19.79,11.41-19.78-11.41V414.09L161,357,141.2,368.41,121.42,357V197.09l85.43-50,4.39-70-.54-.32c-4.21-2.43-7.41-8.18-7.15-12.85l.06-.69c.12-2.43,1.19-4.11,2.76-4.78l0,0,.64-.21,16.44-5.78,2.11-.75H226m0-5.19c-.3,0-.58,0-.87,0a5.07,5.07,0,0,0-1.27.28l-2.1.74-16.39,5.76-.57.19a5.18,5.18,0,0,0-.84.36c-3.24,1.56-5.29,4.91-5.52,9l0,.64a.31.31,0,0,0,0,.1c-.32,5.76,2.8,12.23,7.5,16.08l-4,64.33-83,48.59a5.19,5.19,0,0,0-2.56,4.47V357a5.2,5.2,0,0,0,2.59,4.49l19.78,11.41a5.14,5.14,0,0,0,5.18,0L161,363l93.72,54.11v19.85a5.17,5.17,0,0,0,2.59,4.48l19.78,11.42a5.14,5.14,0,0,0,5.18,0L302,441.42a5.18,5.18,0,0,0,2.59-4.49V417.07L339,397.26l17.24,9.89a5.11,5.11,0,0,0,2.57.69,5.18,5.18,0,0,0,2.59-.69l19.79-11.4a5.19,5.19,0,0,0,2.6-4.49V231.36a5.2,5.2,0,0,0-2.59-4.49l-44.59-25.73L340,138.47c5-.35,8.64-4.34,9-9.95l.05-.65v-.1c.37-6.65-3.82-14.23-9.74-17.63L232.12,48.24A12.35,12.35,0,0,0,226,46.47Z"/><path d="M293.74,224.88c-1.87,0-4.13-1.43-5.76-3.65a9,9,0,0,1-1.87-5,3.42,3.42,0,0,1,1.36-3c1.81-1.21,4.79-.13,7,2.47a5,5,0,0,1,.55.69,8.21,8.21,0,0,1,1.8,5.86,3.14,3.14,0,0,1-1.3,2.12h0A3.11,3.11,0,0,1,293.74,224.88Zm-4.49-10.43a1.43,1.43,0,0,0-.81.21,1.86,1.86,0,0,0-.61,1.53,7.35,7.35,0,0,0,1.55,4c1.91,2.61,4.18,3.38,5.16,2.73a1.43,1.43,0,0,0,.55-1,6.65,6.65,0,0,0-1.5-4.56,4.24,4.24,0,0,0-.44-.55A5.94,5.94,0,0,0,289.25,214.45Z"/><path d="M293.14,207.56a5.94,5.94,0,0,1-4.38-2.76,7.59,7.59,0,0,1-1.16-2.26.49.49,0,0,1-.06-.17,5.06,5.06,0,0,1-.19-1.36,2.72,2.72,0,0,1,1.09-2.34,2.41,2.41,0,0,1,1.41-.43,6.07,6.07,0,0,1,4.38,2.76c1.27,1.75,1.73,3.74,1.17,5.07a2.39,2.39,0,0,1-.85,1.07A2.49,2.49,0,0,1,293.14,207.56Zm-4-5.77a.5.5,0,0,1,.05.13,5.83,5.83,0,0,0,.94,1.86c1.26,1.75,2.83,2.32,3.41,1.93a.76.76,0,0,0,.24-.29v0a4.05,4.05,0,0,0-1-3.38c-1.29-1.75-2.9-2.3-3.41-1.94a1.14,1.14,0,0,0-.35.93A3.66,3.66,0,0,0,289.17,201.79Z"/><path d="M284.4,211.49a1.81,1.81,0,0,1-.42,0,5.42,5.42,0,0,1-3.22-1.87l-.11-.09c-.21-.24-.42-.49-.62-.76a6.81,6.81,0,0,1-1.4-3.8,2.68,2.68,0,0,1,1.09-2.34c1.51-1,4.11,0,5.79,2.35a6.16,6.16,0,0,1,1.35,4.44,2.48,2.48,0,0,1-1,1.68A2.41,2.41,0,0,1,284.4,211.49Zm-2.54-3.24a.43.43,0,0,1,.1.09,4,4,0,0,0,2.31,1.41.81.81,0,0,0,.55-.09l0,0a.83.83,0,0,0,.31-.56,4.65,4.65,0,0,0-1.05-3.12c-1.27-1.76-2.88-2.3-3.43-1.94a1.15,1.15,0,0,0-.33.91,5.14,5.14,0,0,0,1.09,2.79A5.43,5.43,0,0,0,281.86,208.25Z"/><path d="M302,218.06a4,4,0,0,1-2.89-1.78,4.45,4.45,0,0,1-.9-2.49,2,2,0,0,1,.79-1.66c1.11-.74,2.84,0,3.94,1.46a4.08,4.08,0,0,1,.87,2.9,1.85,1.85,0,0,1-.77,1.26h0A1.94,1.94,0,0,1,302,218.06Zm-1.95-4.51c-.07,0-.11.09-.11.24a2.71,2.71,0,0,0,.57,1.47,2.41,2.41,0,0,0,1.49,1.07l.55.71-.49-.71c.09-.08.15-.81-.52-1.72A2.33,2.33,0,0,0,300.05,213.55Z"/></svg>