<svg id="Layer_1" data-name="Layer 1" xmlns="http://www.w3.org/2000/svg" viewBox="0 0 500 500"><path d="M118.77,178.65a3.44,3.44,0,0,1-1.73-.51,7.24,7.24,0,0,1-3.33-5.76A2.61,2.61,0,0,1,117.9,170h0a7.25,7.25,0,0,1,3.33,5.76,2.9,2.9,0,0,1-1.28,2.63A2.41,2.41,0,0,1,118.77,178.65Zm-2.6-7.47a.66.66,0,0,0-.32.07,1.29,1.29,0,0,0-.42,1.13,5.54,5.54,0,0,0,2.47,4.27,1.27,1.27,0,0,0,1.18.2,1.29,1.29,0,0,0,.42-1.13,5.54,5.54,0,0,0-2.46-4.26h0A1.84,1.84,0,0,0,116.17,171.18Z"/><path d="M119.86,192a3.49,3.49,0,0,1-1.73-.51,7.26,7.26,0,0,1-3.33-5.76,2.62,2.62,0,0,1,4.2-2.42h0a7.27,7.27,0,0,1,3.32,5.76,2.88,2.88,0,0,1-1.28,2.63A2.35,2.35,0,0,1,119.86,192Zm-2.59-7.47a.66.66,0,0,0-.32.07,1.29,1.29,0,0,0-.42,1.13A5.54,5.54,0,0,0,119,190a1.27,1.27,0,0,0,1.18.2,1.29,1.29,0,0,0,.42-1.13,5.52,5.52,0,0,0-2.47-4.26h0A1.76,1.76,0,0,0,117.27,184.51Z"/><path d="M110.51,187.72a4.51,4.51,0,0,1-2.22-.66,9.64,9.64,0,0,1-4.42-7.66,3.28,3.28,0,0,1,5.29-3.06,9.66,9.66,0,0,1,4.42,7.67,3.63,3.63,0,0,1-1.6,3.33A2.85,2.85,0,0,1,110.51,187.72Zm-3.57-10.31a1.23,1.23,0,0,0-.61.15,2.06,2.06,0,0,0-.73,1.84,8,8,0,0,0,3.56,6.16,1.6,1.6,0,0,0,2.69-1.55,8,8,0,0,0-3.56-6.17h0A2.82,2.82,0,0,0,106.94,177.41Z"/><path d="M108.06,170.42a2.4,2.4,0,0,1-1.21-.36,4.67,4.67,0,0,1-2.15-3.73,2.08,2.08,0,0,1,.93-1.87,2.06,2.06,0,0,1,2.09.13,4.62,4.62,0,0,1,2.15,3.73,2.08,2.08,0,0,1-.93,1.87A1.81,1.81,0,0,1,108.06,170.42ZM106.51,166h0a.73.73,0,0,0-.07.37,3,3,0,0,0,1.3,2.24.61.61,0,0,0,.36.12.78.78,0,0,0,.07-.37,3,3,0,0,0-1.3-2.24h0A.7.7,0,0,0,106.51,166Z"/><path d="M250,482.79a1,1,0,0,1-.44-.11.89.89,0,0,1-.43-.75V209.07a.84.84,0,0,1,.43-.74L415,112.85a.86.86,0,0,1,1.29.74V386.43a.85.85,0,0,1-.43.75l-23.64,13.64a.86.86,0,0,1-1.29-.74V387.93L274.51,455.15v13.14a.89.89,0,0,1-.43.75l-23.63,13.64A1,1,0,0,1,250,482.79Zm.86-273.22V480.43l21.9-12.64V454.65a.85.85,0,0,1,.43-.75l118.15-68.22a.88.88,0,0,1,.86,0,.86.86,0,0,1,.43.75v12.15l21.91-12.65V115.09Z"/><path d="M250,482.79a.92.92,0,0,1-.43-.11L226,469a.86.86,0,0,1-.43-.75V455.15L109.1,387.93v12.14a.87.87,0,0,1-.43.75.85.85,0,0,1-.87,0L84.17,387.18a.86.86,0,0,1-.44-.75V113.59a.85.85,0,0,1,.44-.74.83.83,0,0,1,.86,0l165.41,95.48a.85.85,0,0,1,.44.74V481.93a.86.86,0,0,1-.43.75A.92.92,0,0,1,250,482.79Zm-22.77-15,21.91,12.64V209.57L85.46,115.09V385.93l21.91,12.65V386.43a.86.86,0,0,1,.43-.75.9.9,0,0,1,.87,0L226.82,453.9a.87.87,0,0,1,.43.75Z"/><path d="M250,209.94a.82.82,0,0,1-.43-.12L84.17,114.34a.86.86,0,0,1-.44-.75.85.85,0,0,1,.44-.74L249.58,17.32a.88.88,0,0,1,.86,0l165.42,95.53a.84.84,0,0,1,.43.74.85.85,0,0,1-.43.75L250.44,209.82A.82.82,0,0,1,250,209.94ZM86.32,113.59,250,208.08,413.7,113.59,250,19.07Z"/><path d="M250,455.49a.88.88,0,0,1-.43-.12L84.17,359.89a.86.86,0,0,1-.44-.75l0-245.59a.85.85,0,0,1,.43-.74.83.83,0,0,1,.86,0l165.44,95.51a.87.87,0,0,1,.44.75l0,245.56a.86.86,0,0,1-.43.74A.88.88,0,0,1,250,455.49ZM85.46,358.64l163.66,94.49,0-243.56L85.44,115.05Z"/><path d="M250,455.49a.85.85,0,0,1-.43-.12.84.84,0,0,1-.43-.74l0-245.56a.86.86,0,0,1,.43-.75l11.85-6.83a.83.83,0,0,1,.86,0,.85.85,0,0,1,.43.74V447.81a.88.88,0,0,1-.43.75l-11.88,6.82A.92.92,0,0,1,250,455.49Zm.9-245.92,0,243.56L261,447.31V203.73Z"/><path d="M221.93,416.65a.87.87,0,0,1-.44-.11.89.89,0,0,1-.43-.75V225.29a.89.89,0,0,1,.43-.75l16.45-9.49a.83.83,0,0,1,.86,0,.85.85,0,0,1,.43.74v7.6a.86.86,0,0,1-.43.75l-5.7,3.29a.88.88,0,0,1-.86,0,.86.86,0,0,1-.43-.75v-2.3l-4.69,2.71V408l4.69-2.71V402a.85.85,0,0,1,.43-.75l5.7-3.29a.88.88,0,0,1,.86,0,.85.85,0,0,1,.43.75v7.6a.84.84,0,0,1-.43.74l-16.44,9.5A.86.86,0,0,1,221.93,416.65Zm.86-190.86v188.5l14.71-8.49v-5.61l-4,2.3v3.3a.86.86,0,0,1-.44.74l-6.42,3.71a.88.88,0,0,1-.86,0,.85.85,0,0,1-.43-.75V226.59a.86.86,0,0,1,.43-.75l6.42-3.7a.83.83,0,0,1,.86,0,.85.85,0,0,1,.44.74v2.3l4-2.29v-5.6Zm15.58-2.4h0Z"/><path d="M221.93,416.65a.87.87,0,0,1-.42-.1l-6.74-3.71a.85.85,0,0,1-.45-.75V221.58a.86.86,0,0,1,1.28-.75l6.74,3.7a.86.86,0,0,1,.45.76v190.5a.85.85,0,0,1-.42.74A.88.88,0,0,1,221.93,416.65Zm-5.88-5.07,5,2.75V225.8l-5-2.76Z"/><path d="M221.93,226.15a.87.87,0,0,1-.42-.1l-6.74-3.71a.84.84,0,0,1-.45-.75.85.85,0,0,1,.43-.75l16.45-9.5a.87.87,0,0,1,.84,0l6.75,3.71a.85.85,0,0,1,.44.75.83.83,0,0,1-.43.75L222.36,226A1,1,0,0,1,221.93,226.15Zm-5-4.58,5,2.73,14.69-8.49-5-2.73Z"/><path d="M232.67,402.85a.84.84,0,0,1-.46-.13l-6.29-4a.86.86,0,0,1,0-1.47l5.24-3a.86.86,0,0,1,.85,0l6.74,3.7a.85.85,0,0,1,.45.75.88.88,0,0,1-.43.76l-5.7,3.28A.82.82,0,0,1,232.67,402.85Zm-4.62-4.79,4.64,2.92,3.92-2.26-5-2.73Z"/><path d="M231.74,407.19a.82.82,0,0,1-.43-.12L226,404a.86.86,0,0,1-.43-.75V398a.85.85,0,0,1,.45-.75.83.83,0,0,1,.87,0l6.29,4a.86.86,0,0,1,.41.73v3.8a.87.87,0,0,1-.43.74l-.94.54A.82.82,0,0,1,231.74,407.19Zm.93-1.4h0Zm-5.42-3.06,4.49,2.6.07,0v-2.83l-4.56-2.87Z"/><path d="M232.67,227.54a.86.86,0,0,1-.41-.1l-3.4-1.83a.87.87,0,0,1-.45-.75.85.85,0,0,1,.43-.76l3.4-2a.83.83,0,0,1,.86,0,.85.85,0,0,1,.44.74v3.8a.85.85,0,0,1-.43.74A.83.83,0,0,1,232.67,227.54ZM231,224.82l.77.41v-.85Z"/><path d="M350.7,379.79a.9.9,0,0,1-.45-.13.88.88,0,0,1-.42-.73l0-4.23a.86.86,0,0,1,.48-.78l53-26.49a.88.88,0,0,1,1.25.78l0,4.27a.89.89,0,0,1-.48.77l-52.9,26.44A.75.75,0,0,1,350.7,379.79Zm.82-4.57,0,2.31,51.18-25.59,0-2.33Zm52.07-22.74h0Z"/><path d="M403.59,353.34a.93.93,0,0,1-.29,0l-4.91-1.8a.88.88,0,0,1-.57-.76.85.85,0,0,1,.48-.82l4.94-2.48a.88.88,0,0,1,1.25.78l0,4.27a.85.85,0,0,1-.87.86Zm-2.73-2.78,1.88.68v-1.63Z"/><path d="M350.7,363.8a.9.9,0,0,1-.45-.13.88.88,0,0,1-.42-.73l0-4.23a.86.86,0,0,1,.48-.78l53-26.49a.87.87,0,0,1,1.25.78l0,4.27a.9.9,0,0,1-.48.77l-52.9,26.44A.86.86,0,0,1,350.7,363.8Zm.82-4.57,0,2.31L402.73,336l0-2.33Zm52.07-22.75h0Z"/><path d="M403.59,337.35a.72.72,0,0,1-.29-.06l-4.91-1.79a.88.88,0,0,1-.57-.77.87.87,0,0,1,.48-.82l4.94-2.47a.87.87,0,0,1,1.25.78l0,4.27a.85.85,0,0,1-.37.7A.9.9,0,0,1,403.59,337.35Zm-2.73-2.79,1.88.69v-1.63Z"/><path d="M350.7,347.8a.89.89,0,0,1-.45-.12.88.88,0,0,1-.42-.73l0-4.23a.86.86,0,0,1,.48-.78l53-26.49a.84.84,0,0,1,.84,0,.86.86,0,0,1,.41.74l0,4.27a.87.87,0,0,1-.48.76l-52.9,26.45A.85.85,0,0,1,350.7,347.8Zm.82-4.56,0,2.31L402.73,320l0-2.33Zm52.07-22.75h0Z"/><path d="M403.59,321.36a.72.72,0,0,1-.29-.06l-4.91-1.79a.88.88,0,0,1-.57-.77.87.87,0,0,1,.48-.82l4.94-2.47a.84.84,0,0,1,.84,0,.86.86,0,0,1,.41.74l0,4.27a.85.85,0,0,1-.37.7A.9.9,0,0,1,403.59,321.36Zm-2.73-2.79,1.88.69v-1.63Z"/><path d="M350.7,331.81a.89.89,0,0,1-.45-.12.88.88,0,0,1-.42-.73l0-4.23a.86.86,0,0,1,.48-.78l53-26.49a.87.87,0,0,1,1.25.78l0,4.27a.87.87,0,0,1-.48.76l-52.9,26.45A.85.85,0,0,1,350.7,331.81Zm.82-4.56,0,2.31L402.73,304l0-2.32Zm52.07-22.75h0Z"/><path d="M403.59,305.36a.71.71,0,0,1-.29-.05l-4.91-1.79a.88.88,0,0,1-.57-.77.87.87,0,0,1,.48-.82l4.94-2.47a.87.87,0,0,1,1.25.78l0,4.27a.85.85,0,0,1-.37.7A.89.89,0,0,1,403.59,305.36Zm-2.73-2.78,1.88.69v-1.63Z"/><path d="M350.7,315.82a.81.81,0,0,1-.45-.13.86.86,0,0,1-.42-.72l0-4.23a.85.85,0,0,1,.48-.78l53-26.49a.84.84,0,0,1,.84,0,.86.86,0,0,1,.41.74l0,4.27a.87.87,0,0,1-.48.76l-52.9,26.45A.85.85,0,0,1,350.7,315.82Zm.82-4.56,0,2.31L402.73,288l0-2.32Zm52.07-22.75h0Z"/><path d="M403.59,289.37a.71.71,0,0,1-.29-.05l-4.91-1.8a.86.86,0,0,1-.09-1.58l4.94-2.47a.84.84,0,0,1,.84,0,.86.86,0,0,1,.41.74l0,4.27a.85.85,0,0,1-.37.7A.89.89,0,0,1,403.59,289.37Zm-2.73-2.78,1.88.69v-1.63Z"/><path d="M131.62,225.33a3.49,3.49,0,0,1-1.73-.51,7.28,7.28,0,0,1-3.33-5.77,2.62,2.62,0,0,1,4.2-2.42h0a7.27,7.27,0,0,1,3.32,5.77A2.88,2.88,0,0,1,132.8,225,2.36,2.36,0,0,1,131.62,225.33ZM129,217.85a.63.63,0,0,0-.32.07,1.3,1.3,0,0,0-.42,1.13,5.54,5.54,0,0,0,2.47,4.27,1.24,1.24,0,0,0,1.18.2,1.28,1.28,0,0,0,.42-1.12,5.52,5.52,0,0,0-2.47-4.27h0A1.76,1.76,0,0,0,129,217.85Z"/><path d="M132.72,238.66a3.57,3.57,0,0,1-1.73-.51,7.26,7.26,0,0,1-3.33-5.77,2.61,2.61,0,0,1,4.19-2.42h0a7.26,7.26,0,0,1,3.33,5.77,2.9,2.9,0,0,1-1.28,2.62A2.36,2.36,0,0,1,132.72,238.66Zm-2.59-7.48a.58.58,0,0,0-.33.08,1.28,1.28,0,0,0-.41,1.12,5.51,5.51,0,0,0,2.46,4.27.94.94,0,0,0,1.6-.92,5.54,5.54,0,0,0-2.46-4.27h0A1.76,1.76,0,0,0,130.13,231.18Z"/><path d="M123.37,234.4a4.53,4.53,0,0,1-2.22-.67,9.64,9.64,0,0,1-4.42-7.66,3.27,3.27,0,0,1,5.28-3,9.65,9.65,0,0,1,4.43,7.66,3.62,3.62,0,0,1-1.6,3.33A2.91,2.91,0,0,1,123.37,234.4Zm-3.57-10.32a1.2,1.2,0,0,0-.61.15,2,2,0,0,0-.74,1.84,8,8,0,0,0,3.56,6.17,1.61,1.61,0,0,0,2.7-1.56,8,8,0,0,0-3.56-6.17h0A2.85,2.85,0,0,0,119.8,224.08Z"/><path d="M120.92,217.09a2.46,2.46,0,0,1-1.21-.35,4.64,4.64,0,0,1-2.16-3.74,2,2,0,0,1,.94-1.86,2,2,0,0,1,2.08.12,4.63,4.63,0,0,1,2.16,3.73,2.07,2.07,0,0,1-.94,1.87A1.74,1.74,0,0,1,120.92,217.09Zm-1.55-4.46h0a.68.68,0,0,0-.07.36,2.94,2.94,0,0,0,1.29,2.24.65.65,0,0,0,.37.12A1,1,0,0,0,121,215a3,3,0,0,0-1.29-2.24A.74.74,0,0,0,119.37,212.63Z"/><path d="M250,18.07l165.42,95.52V386.43l-23.64,13.65V386.43L273.64,454.65v13.64L250,481.93V454.61h0v27.32l-23.63-13.64V454.65L108.23,386.43v13.64L84.6,386.43V359.14h0l0-245.59,0,0v0l11.81-6.84h0L250,18.07m0,191h0m0-196.18a5.18,5.18,0,0,0-2.59.69L94.2,102.06l-.39.2-11.3,6.56a3.4,3.4,0,0,0-.54.27,5.17,5.17,0,0,0-2.58,4.46l0,245.59v27.29A5.18,5.18,0,0,0,82,390.92l23.63,13.64a5.19,5.19,0,0,0,7.78-4.49v-4.66L221.2,457.64v10.65a5.2,5.2,0,0,0,2.59,4.49l23.63,13.64A4.94,4.94,0,0,0,249,487a4.87,4.87,0,0,0,1,.1,5.24,5.24,0,0,0,2.59-.69l23.63-13.64a5.2,5.2,0,0,0,2.59-4.49V457.64l107.79-62.23v4.67a5.17,5.17,0,0,0,2.59,4.48,5.14,5.14,0,0,0,5.18,0L418,390.92a5.2,5.2,0,0,0,2.59-4.49V113.59a5.17,5.17,0,0,0-2.59-4.48L252.6,13.58a5.21,5.21,0,0,0-2.59-.69Z"/><path d="M250,209.94a.82.82,0,0,1-.43-.12L84.17,114.34a.85.85,0,0,1,0-1.49L96,106a.88.88,0,0,1,.86,0l165.45,95.49a.86.86,0,0,1,0,1.49l-11.85,6.84A.82.82,0,0,1,250,209.94ZM86.32,113.59,250,208.08l10.12-5.85L96.41,107.75Z"/></svg>