<svg xmlns="http://www.w3.org/2000/svg" viewBox="0 0 58.23 39.88"><defs><style>.cls-1{fill:#c7e4db;}</style></defs><g id="Layer_2" data-name="Layer 2"><g id="Layer_2-2" data-name="Layer 2"><path class="cls-1" d="M55.26,1.57V38.38l1.5-1.5H1.55l1.5,1.5V1.57L.79,2.87,22.33,18.4l6,4.31a1.48,1.48,0,0,0,1.52,0L53.38,5.83l4.14-3C59.07,1.76,57.58-.85,56,.28L34.31,15.81l-6,4.31h1.52L6.46,3.27,2.31.28A1.51,1.51,0,0,0,.05,1.57V38.38a1.52,1.52,0,0,0,1.5,1.5H56.76a1.52,1.52,0,0,0,1.5-1.5V1.57A1.5,1.5,0,0,0,55.26,1.57Z" transform="translate(-0.04)"/><path class="cls-1" d="M.79,2.87,22.33,18.4l6,4.31a1.48,1.48,0,0,0,1.52,0L53.38,5.83l4.14-3a1.52,1.52,0,0,0-.76-2.8H1.55a1.5,1.5,0,0,0,0,3H56.76L56,.28,34.31,15.81l-6,4.31h1.52L6.46,3.27,2.31.28C.74-.85-.76,1.75.79,2.87Z" transform="translate(-0.04)"/><path class="cls-1" d="M22,16,3.17,34.68.49,37.32c-1.38,1.36.74,3.48,2.12,2.12L21.47,20.81l2.68-2.65C25.52,16.81,23.4,14.68,22,16Z" transform="translate(-0.04)"/><path class="cls-1" d="M57.82,37.32l-19-18.63L36.13,16c-1.38-1.35-3.5.77-2.12,2.12L53,36.8l2.7,2.64c1.38,1.36,3.5-.76,2.12-2.12Z" transform="translate(-0.04)"/></g></g></svg>