<?xml version="1.0" encoding="utf-8"?>
<!-- Generator: Adobe Illustrator 24.2.1, SVG Export Plug-In . SVG Version: 6.00 Build 0)  -->
<svg version="1.1" id="Layer_1" xmlns="http://www.w3.org/2000/svg" xmlns:xlink="http://www.w3.org/1999/xlink" x="0px" y="0px"
	 viewBox="0 0 52.2 52.2" style="enable-background:new 0 0 52.2 52.2;" xml:space="preserve">
<style type="text/css">
	.st0{fill:#C7E4DB;}
	.st1{fill:none;}
</style>
<g id="Layer_2_1_">
	<g id="Layer_2-2">
		<path class="st0" d="M39.7,9.7c-9,0-18,0-27,0c-3.7,0-6.9,2.5-7.7,6.1c-0.2,1.5-0.3,3.1-0.2,4.6v23.6c-0.1,3.2,1.7,6.1,4.5,7.4
			c1.7,0.8,3.6,0.7,5.4,0.7h24c2.8,0,5.4-0.9,7.1-3.3c1.3-1.8,1.4-3.9,1.4-6V18.8c0-2.4-0.3-4.7-2.1-6.6
			C43.8,10.7,41.8,9.8,39.7,9.7c-1.6,0-1.6,2.5,0,2.5c3.1,0.1,5.2,2.6,5.2,5.6c0,1.7,0,3.5,0,5.3v17.1c0,1.4,0,2.9,0,4.3
			c0,2.9-2.4,5.3-5.3,5.3c0,0,0,0,0,0c-4.4,0.1-8.8,0-13.1,0c-4.5,0-9.1,0-13.6,0c-2.9,0.1-5.4-2.2-5.5-5.1c0,0,0-0.1,0-0.1
			c0-1.3,0-2.6,0-3.9V18c0-2.7,1.5-5.3,4.4-5.7c1.3-0.1,2.6-0.2,3.9-0.1h24.1c0.7,0,1.2-0.5,1.2-1.2C40.9,10.3,40.3,9.7,39.7,9.7z"
			/>
		<path class="st0" d="M26.1,21.7c-5.2,0-9.3,4.2-9.3,9.3c0,2.7,1.2,5.3,3.3,7.1c3.9,3.3,9.8,2.9,13.1-1c1.8-2.1,2.6-5,2.1-7.7
			C34.4,24.9,30.6,21.7,26.1,21.7c-0.7,0-1.2,0.5-1.2,1.2s0.5,1.2,1.2,1.2c3.8,0,6.9,3.1,6.9,6.9c0,3.8-3.1,6.9-6.9,6.9
			c-3.8,0-6.9-3.1-6.9-6.9c0-0.4,0-0.9,0.1-1.3c0.7-3.2,3.5-5.5,6.8-5.6c0.7,0,1.2-0.5,1.2-1.2C27.4,22.2,26.8,21.6,26.1,21.7z"/>
		<path class="st0" d="M38,15.6c-0.2,0-0.5,0-0.7,0.1c-0.2,0.1-0.4,0.2-0.7,0.3c-0.2,0.2-0.4,0.3-0.6,0.6c-0.2,0.2-0.3,0.5-0.4,0.7
			c-0.1,0.2-0.1,0.5-0.1,0.7c0,0.2,0,0.5,0.1,0.7c0.1,0.2,0.2,0.5,0.3,0.7c0.1,0.2,0.3,0.4,0.4,0.5c0.3,0.2,0.5,0.4,0.9,0.5
			c0.2,0.1,0.5,0.1,0.7,0.1c0.5,0,1-0.1,1.4-0.3c0.2-0.1,0.4-0.3,0.6-0.4c0.2-0.2,0.3-0.4,0.4-0.6c0.1-0.3,0.2-0.6,0.3-1
			c0-0.2,0-0.5,0-0.7c0-0.3-0.1-0.5-0.3-0.7c-0.1-0.2-0.3-0.4-0.5-0.6C39.2,15.8,38.6,15.6,38,15.6c-0.7,0-1.2,0.5-1.2,1.2l0,0
			c0,0.3,0.1,0.6,0.4,0.9c0.2,0.2,0.5,0.4,0.9,0.4h0.2l-0.3,0c0.1,0,0.2,0,0.3,0.1l-0.3-0.1c0.1,0,0.2,0.1,0.3,0.2l-0.3-0.2
			c0.1,0.1,0.1,0.1,0.2,0.2l-0.2-0.2c0.1,0.1,0.1,0.2,0.2,0.3L38,17.9c0,0.1,0.1,0.2,0.1,0.3l0-0.3c0,0.1,0,0.2,0,0.3l0-0.3
			c0,0.1,0,0.2-0.1,0.3l0.1-0.3c0,0.1-0.1,0.2-0.2,0.3l0.2-0.3c-0.1,0.1-0.1,0.2-0.2,0.2l0.3-0.2c-0.1,0.1-0.2,0.1-0.3,0.2l0.3-0.1
			c-0.1,0-0.2,0.1-0.3,0.1l0.3,0h-0.3l0.3,0c-0.1,0-0.2,0-0.3-0.1l0.3,0.1c-0.1,0-0.2-0.1-0.3-0.2l0.3,0.2c-0.1-0.1-0.2-0.1-0.2-0.2
			l0.2,0.3c-0.1-0.1-0.1-0.2-0.2-0.3l0.1,0.3c0-0.1-0.1-0.2-0.1-0.3l0,0.3c0-0.1,0-0.2,0-0.3l0,0.3c0-0.1,0-0.2,0.1-0.3l-0.1,0.3
			c0-0.1,0.1-0.2,0.2-0.3l-0.2,0.3c0.1-0.1,0.1-0.2,0.2-0.2l-0.3,0.2c0.1-0.1,0.2-0.1,0.3-0.2l-0.3,0.1c0.1,0,0.2-0.1,0.3-0.1
			l-0.3,0H38c0.3,0,0.6-0.1,0.9-0.4c0.5-0.5,0.5-1.3,0-1.7C38.6,15.7,38.3,15.6,38,15.6L38,15.6z"/>
	</g>
</g>
<rect class="st1" width="52.2" height="52.2"/>
</svg>
