<svg xmlns="http://www.w3.org/2000/svg" viewBox="0 0 59.74 49.42"><defs><style>.cls-1{fill:#c7e4db;}</style></defs><g id="Layer_2" data-name="Layer 2"><g id="Layer_2-2" data-name="Layer 2"><g id="_57ct4y.tif" data-name="57ct4y.tif"><path class="cls-1" d="M39.52,3A11.69,11.69,0,0,0,41,3c.76-.1.2,0,.78,0A12.54,12.54,0,0,1,44,3.55,11.86,11.86,0,0,1,47.9,6c1.33,1.12,3,.43,4.48,0a29.88,29.88,0,0,0,4.94-2.2l-2.2-1.69c-.4,2.37-2.74,4.21-4.44,5.68a1.51,1.51,0,0,0,1.06,2.56,27.38,27.38,0,0,0,6.89-1.82l-1.69-2.2a25.61,25.61,0,0,1-2.42,3c-.92,1-2.12,1.68-3,2.66S51,14.3,51,15.49a29.52,29.52,0,0,1-.55,4.87A34.21,34.21,0,0,1,45,33.28,31.21,31.21,0,0,1,19.15,46.41a31.48,31.48,0,0,1-8.69-1.2A30.59,30.59,0,0,1,6.32,43.7c-.65-.29-1.28-.6-1.91-.94-.31-.16-.62-.34-.93-.52l-.56-.32c-.44-.3-.49-.31-.16,0L1.47,44.16a25.43,25.43,0,0,0,17.74-5c.88-.67,1.07-2.5-.36-2.74-4.15-.68-8.66-2.65-9.75-7.11L7.25,31.11A13.55,13.55,0,0,0,13,30.89,1.51,1.51,0,0,0,13,28,10.57,10.57,0,0,1,5,17.83L2.72,19.12a13,13,0,0,0,6,1.62c1.18,0,2.14-1.72,1.06-2.56A11.29,11.29,0,0,1,5.39,12,10.18,10.18,0,0,1,5.14,8.3a11.09,11.09,0,0,1,.42-1.88c.11-.34.23-.67.37-1s.68-.81,0-.34l-1.15.16c-.22-.07-.4-.4-.29-.09a1.79,1.79,0,0,0,.37.41c.3.35.61.68.93,1C6.39,7.23,7,7.86,7.71,8.46a36.47,36.47,0,0,0,3.85,3,33.62,33.62,0,0,0,9,4.33A34.45,34.45,0,0,0,25.35,17c1.23.2,3.46.87,4.58.13,1.35-.9.53-3,.58-4.34a9.83,9.83,0,0,1,1-4.08C33.29,5.24,36.32,3.72,39.92,3c1.88-.41,1.08-3.3-.8-2.9-3.74.8-6.92,2.37-9.2,5.54a12.63,12.63,0,0,0-2.07,4.57,13.45,13.45,0,0,0-.35,2.75,12.82,12.82,0,0,0,.05,1.39,10.06,10.06,0,0,1,.18,1.08l.69-.89c.13-.09.59,0,.36-.13a1.67,1.67,0,0,0-.5,0c-.46,0-.91-.09-1.37-.15-.82-.11-1.64-.26-2.46-.43a34.71,34.71,0,0,1-4.87-1.41,30.36,30.36,0,0,1-8.31-4.75A36.74,36.74,0,0,1,7.62,4.17C6.72,3.21,5.41,1.38,4,2.8,3,3.77,2.56,5.71,2.32,7a14.11,14.11,0,0,0-.07,4.63A13.68,13.68,0,0,0,7.64,20.3L8.7,17.74a9.58,9.58,0,0,1-4.46-1.21A1.52,1.52,0,0,0,2,17.83,13.62,13.62,0,0,0,12.2,30.89V28a10,10,0,0,1-4.15.22A1.53,1.53,0,0,0,6.2,30.07c1.34,5.46,6.66,8.35,11.85,9.2l-.36-2.74A22.93,22.93,0,0,1,1.47,41.16a1.51,1.51,0,0,0-1.3,2.26c.56,1.06,2.08,1.6,3.11,2.13A35.82,35.82,0,0,0,7.49,47.4a33.83,33.83,0,0,0,8.07,1.82,35.76,35.76,0,0,0,16.52-2.13A34.79,34.79,0,0,0,52.43,24.58,34.66,34.66,0,0,0,54,14.52a4.57,4.57,0,0,1,0-1c-.27.58.63-.27.75-.37.57-.47,1.13-1,1.66-1.51a28.31,28.31,0,0,0,3.18-3.88,1.51,1.51,0,0,0-1.7-2.2A24.87,24.87,0,0,1,51.74,7.3L52.8,9.86c2.09-1.81,4.73-4.11,5.21-7a1.52,1.52,0,0,0-2.2-1.7,24.81,24.81,0,0,1-4.67,2c-.43.13-.88.24-1.32.36l-.44.11c.39,0,.46,0,.21-.2-.15-.44-1.29-1-1.68-1.31A14.42,14.42,0,0,0,39.52,0,1.5,1.5,0,0,0,39.52,3Z"/></g></g></g></svg>